<?xml version="1.0" encoding="UTF-8"?>
<svg id="_图层_2" data-name="图层 2" xmlns="http://www.w3.org/2000/svg" viewBox="0 0 11.37 10.27">
  <defs>
    <style>
      .cls-1 {
        fill: #dcca37;
      }

      .cls-2 {
        fill: #21180b;
      }

      .cls-3 {
        fill: #090103;
      }
    </style>
  </defs>
  <g id="_图层_1-2" data-name="图层 1">
    <g>
      <path class="cls-1" d="M11.23,8.88L6.46.53c-.11-.25-.33-.5-.68-.53-.19-.02-.55.02-.81.49L.18,8.9c-.1.15-.3.54-.09.94.07.13.29.44.81.44h9.59c.27-.03.61-.17.78-.49.08-.16.18-.48-.05-.9"/>
      <path class="cls-2" d="M1.25,9.12h8.91L5.71,1.31,1.25,9.12ZM10.19,9.68H1.14c-.29,0-.42-.13-.47-.24-.12-.23.02-.49.07-.56L5.3.89c.15-.27.33-.31.45-.3.19.02.32.17.38.32l4.53,7.95c.14.24.1.42.04.53-.13.25-.42.28-.48.29,0,0-.02,0-.03,0"/>
      <path class="cls-3" d="M5.68,8.43c-.13,0-.24-.05-.33-.14-.09-.1-.14-.21-.14-.34s.04-.25.13-.34c.09-.09.2-.14.34-.14s.24.04.34.14c.1.09.14.2.14.34s-.05.24-.14.34c-.09.09-.2.14-.34.14M5.54,7.08l-.36-2.83c0-.17.04-.31.13-.41.09-.11.21-.16.37-.16s.29.05.38.16c.08.1.12.23.12.4,0,.04-.06.57-.36,2.82h-.28Z"/>
    </g>
  </g>
</svg>