<?xml version="1.0" encoding="UTF-8"?>
<svg id="_图层_2" data-name="图层 2" xmlns="http://www.w3.org/2000/svg" viewBox="0 0 251.92 122.29">
  <defs>
    <style>
      .cls-1 {
        stroke: #585857;
        stroke-linecap: square;
      }

      .cls-1, .cls-2, .cls-3, .cls-4, .cls-5, .cls-6, .cls-7, .cls-8, .cls-9, .cls-10, .cls-11 {
        stroke-miterlimit: 10;
      }

      .cls-1, .cls-2, .cls-12, .cls-8, .cls-10 {
        fill: none;
      }

      .cls-1, .cls-13, .cls-14 {
        stroke-width: .25px;
      }

      .cls-2 {
        stroke: #595957;
        stroke-width: .12px;
      }

      .cls-3, .cls-4 {
        fill: #fff;
      }

      .cls-3, .cls-4, .cls-5, .cls-6, .cls-7, .cls-8, .cls-9, .cls-11 {
        stroke-width: .5px;
      }

      .cls-3, .cls-7, .cls-8, .cls-11 {
        stroke: #cc641a;
      }

      .cls-4 {
        stroke: #e7211a;
      }

      .cls-5 {
        stroke: #e60012;
      }

      .cls-5, .cls-6, .cls-15, .cls-7, .cls-9 {
        fill: #221714;
      }

      .cls-13 {
        fill: #1a4593;
      }

      .cls-13, .cls-14 {
        stroke: #040000;
        stroke-linecap: round;
        stroke-linejoin: round;
      }

      .cls-6 {
        stroke: #be7341;
      }

      .cls-16 {
        fill: #070001;
      }

      .cls-17 {
        letter-spacing: -.02em;
      }

      .cls-18 {
        font-size: 7px;
      }

      .cls-18, .cls-19 {
        fill: #585857;
        font-family: TimesNewRomanPS-BoldMT, 'Times New Roman';
        font-weight: 700;
      }

      .cls-19 {
        font-size: 5px;
      }

      .cls-9 {
        stroke: #c4621d;
      }

      .cls-14 {
        fill: #e7211a;
      }

      .cls-10 {
        stroke: #231815;
        stroke-dasharray: .67 .67;
        stroke-width: .29px;
      }

      .cls-11 {
        fill: #c91e1d;
      }

      .cls-20 {
        letter-spacing: -.02em;
      }
    </style>
  </defs>
  <g id="_图层_1-2" data-name="图层 1">
    <g>
      <text class="cls-19" transform="translate(0 44.4)"><tspan x="0" y="0">Handleba</tspan><tspan class="cls-17" x="20.84" y="0">r</tspan><tspan x="22.97" y="0" xml:space="preserve"> Di</tspan><tspan class="cls-20" x="29.22" y="0">r</tspan><tspan x="31.35" y="0">ection</tspan></text>
      <text class="cls-18" transform="translate(141.48 23.34)"><tspan x="0" y="0">72V23Ah Battery</tspan></text>
      <rect class="cls-16" x="3.2" y="51.68" width="29.72" height=".94"/>
      <polygon class="cls-16" points="0 52.15 4.8 54.92 4.8 49.39 0 52.15"/>
      <rect class="cls-10" x="84.77" y=".15" width="167" height="122"/>
      <g>
        <g>
          <g>
            <g>
              <path class="cls-2" d="M120.18,100.79v-55.63c0-.42-.34-.76-.76-.76h-22.52c-.42,0-.76.34-.76.76v55.63c0,.42.34.76.76.76h22.52c.42,0,.76-.34.76-.76ZM96.82,100.81v-55.66s16.14,0,16.14,0h6.49v44.44h0v11.22h-6.49s0,0,0,0h-16.14Z"/>
              <path class="cls-2" d="M119.44,89.59h-6.14c-.19,0-.34.15-.34.34v10.88h6.49v-11.22Z"/>
              <path class="cls-2" d="M113.3,89.59h6.14v-44.44h-6.49v10.88c0,.19.15.34.34.34h6.14-6.14c-.19,0-.34-.15-.34-.34v-10.88h-16.14s0,55.66,0,55.66h16.14v-10.88c0-.19.15-.34.34-.34Z"/>
              <g>
                <path class="cls-1" d="M116.05,88.92c-1.17,0-2.12-.95-2.12-2.12s.95-2.12,2.12-2.12,2.12.95,2.12,2.12-.95,2.12-2.12,2.12Z"/>
                <path class="cls-1" d="M118.15,86.8c0-1.16-.94-2.1-2.1-2.1s-2.1.94-2.1,2.1.94,2.1,2.1,2.1,2.1-.94,2.1-2.1ZM114.8,87.21v-.85h2.33v.85h-2.33Z"/>
                <rect class="cls-1" x="114.79" y="86.36" width="2.36" height=".85"/>
              </g>
              <g>
                <path class="cls-1" d="M114.05,59.52c0-1.16.94-2.1,2.1-2.1s2.1.94,2.1,2.1-.94,2.1-2.1,2.1-2.1-.94-2.1-2.1Z"/>
                <path class="cls-1" d="M118.24,59.52c0-1.16-.94-2.1-2.1-2.1s-2.1.94-2.1,2.1.94,2.1,2.1,2.1,2.1-.94,2.1-2.1ZM115.94,59.73h-1.28v-.34h1.28v-1.28h.34v1.28h1.28v.34h-1.28v1.28h-.34v-1.28Z"/>
                <polygon class="cls-1" points="116.28 59.73 117.56 59.73 117.56 59.39 116.28 59.39 116.28 58.1 115.94 58.1 115.94 59.39 114.66 59.39 114.66 59.73 115.94 59.73 115.94 61.01 116.28 61.01 116.28 59.73"/>
              </g>
            </g>
            <path class="cls-14" d="M113.94,54.78v-7.71c0-.36.29-.66.66-.66h3.2c.36,0,.66.29.66.66v7.71c0,.36-.29.66-.66.66h-3.2c-.36,0-.66-.29-.66-.66ZM117.53,53.04c0-.74-.6-1.33-1.33-1.33s-1.33.6-1.33,1.33.6,1.33,1.33,1.33,1.33-.6,1.33-1.33Z"/>
            <path class="cls-13" d="M118.46,91.11v7.71c0,.36-.29.66-.66.66h-3.2c-.36,0-.66-.29-.66-.66v-7.71c0-.36.29-.66.66-.66h3.2c.36,0,.66.29.66.66ZM114.87,92.86c0,.74.6,1.33,1.33,1.33s1.33-.6,1.33-1.33-.6-1.33-1.33-1.33-1.33.6-1.33,1.33Z"/>
          </g>
          <g>
            <g>
              <path class="cls-2" d="M168.27,100.79v-55.63c0-.42-.34-.76-.76-.76h-22.52c-.42,0-.76.34-.76.76v55.63c0,.42.34.76.76.76h22.52c.42,0,.76-.34.76-.76ZM144.91,100.81v-55.66s16.14,0,16.14,0h6.49v44.44h0v11.22h-6.49s0,0,0,0h-16.14Z"/>
              <path class="cls-2" d="M167.53,89.59h-6.14c-.19,0-.34.15-.34.34v10.88h6.49v-11.22Z"/>
              <path class="cls-2" d="M161.39,89.59h6.14v-44.44h-6.49v10.88c0,.19.15.34.34.34h6.14-6.14c-.19,0-.34-.15-.34-.34v-10.88h-16.14s0,55.66,0,55.66h16.14v-10.88c0-.19.15-.34.34-.34Z"/>
              <g>
                <path class="cls-1" d="M164.14,88.92c-1.17,0-2.12-.95-2.12-2.12s.95-2.12,2.12-2.12,2.12.95,2.12,2.12-.95,2.12-2.12,2.12Z"/>
                <path class="cls-1" d="M166.24,86.8c0-1.16-.94-2.1-2.1-2.1s-2.1.94-2.1,2.1.94,2.1,2.1,2.1,2.1-.94,2.1-2.1ZM162.89,87.21v-.85h2.33v.85h-2.33Z"/>
                <rect class="cls-1" x="162.88" y="86.36" width="2.36" height=".85"/>
              </g>
              <g>
                <path class="cls-1" d="M162.14,59.52c0-1.16.94-2.1,2.1-2.1s2.1.94,2.1,2.1-.94,2.1-2.1,2.1-2.1-.94-2.1-2.1Z"/>
                <path class="cls-1" d="M166.33,59.52c0-1.16-.94-2.1-2.1-2.1s-2.1.94-2.1,2.1.94,2.1,2.1,2.1,2.1-.94,2.1-2.1ZM164.03,59.73h-1.28v-.34h1.28v-1.28h.34v1.28h1.28v.34h-1.28v1.28h-.34v-1.28Z"/>
                <polygon class="cls-1" points="164.37 59.73 165.65 59.73 165.65 59.39 164.37 59.39 164.37 58.1 164.03 58.1 164.03 59.39 162.75 59.39 162.75 59.73 164.03 59.73 164.03 61.01 164.37 61.01 164.37 59.73"/>
              </g>
            </g>
            <path class="cls-14" d="M162.03,54.78v-7.71c0-.36.29-.66.66-.66h3.2c.36,0,.66.29.66.66v7.71c0,.36-.29.66-.66.66h-3.2c-.36,0-.66-.29-.66-.66ZM165.62,53.04c0-.74-.6-1.33-1.33-1.33s-1.33.6-1.33,1.33.6,1.33,1.33,1.33,1.33-.6,1.33-1.33Z"/>
            <path class="cls-13" d="M166.55,91.11v7.71c0,.36-.29.66-.66.66h-3.2c-.36,0-.66-.29-.66-.66v-7.71c0-.36.29-.66.66-.66h3.2c.36,0,.66.29.66.66ZM162.96,92.86c0,.74.6,1.33,1.33,1.33s1.33-.6,1.33-1.33-.6-1.33-1.33-1.33-1.33.6-1.33,1.33Z"/>
          </g>
          <g>
            <g>
              <path class="cls-2" d="M120.18,45.16v55.63c0,.42.34.76.76.76h22.52c.42,0,.76-.34.76-.76v-55.63c0-.42-.34-.76-.76-.76h-22.52c-.42,0-.76.34-.76.76ZM143.54,45.15v55.66s-16.14,0-16.14,0h-6.49v-44.44h0v-11.22h6.49s0,0,0,0h16.14Z"/>
              <path class="cls-2" d="M120.92,56.37h6.14c.19,0,.34-.15.34-.34v-10.88h-6.49v11.22Z"/>
              <path class="cls-2" d="M127.06,56.37h-6.14v44.44h6.49v-10.88c0-.19-.15-.34-.34-.34h-6.14,6.14c.19,0,.34.15.34.34v10.88h16.14s0-55.66,0-55.66h-16.14v10.88c0,.19-.15.34-.34.34Z"/>
              <g>
                <path class="cls-1" d="M124.31,57.04c1.17,0,2.12.95,2.12,2.12s-.95,2.12-2.12,2.12-2.12-.95-2.12-2.12.95-2.12,2.12-2.12Z"/>
                <path class="cls-1" d="M122.21,59.15c0,1.16.94,2.1,2.1,2.1s2.1-.94,2.1-2.1-.94-2.1-2.1-2.1-2.1.94-2.1,2.1ZM125.56,58.75v.85h-2.33v-.85h2.33Z"/>
                <rect class="cls-1" x="123.22" y="58.74" width="2.36" height=".85"/>
              </g>
              <g>
                <path class="cls-1" d="M126.31,86.43c0,1.16-.94,2.1-2.1,2.1s-2.1-.94-2.1-2.1.94-2.1,2.1-2.1,2.1.94,2.1,2.1Z"/>
                <path class="cls-1" d="M122.12,86.43c0,1.16.94,2.1,2.1,2.1s2.1-.94,2.1-2.1-.94-2.1-2.1-2.1-2.1.94-2.1,2.1ZM124.42,86.23h1.28v.34h-1.28v1.28h-.34v-1.28h-1.28v-.34h1.28v-1.28h.34v1.28Z"/>
                <polygon class="cls-1" points="124.08 86.23 122.8 86.23 122.8 86.57 124.08 86.57 124.08 87.85 124.42 87.85 124.42 86.57 125.7 86.57 125.7 86.23 124.42 86.23 124.42 84.95 124.08 84.95 124.08 86.23"/>
              </g>
            </g>
            <path class="cls-14" d="M126.42,91.17v7.71c0,.36-.29.66-.66.66h-3.2c-.36,0-.66-.29-.66-.66v-7.71c0-.36.29-.66.66-.66h3.2c.36,0,.66.29.66.66ZM122.83,92.92c0,.74.6,1.33,1.33,1.33s1.33-.6,1.33-1.33-.6-1.33-1.33-1.33-1.33.6-1.33,1.33Z"/>
            <path class="cls-13" d="M121.9,54.84v-7.71c0-.36.29-.66.66-.66h3.2c.36,0,.66.29.66.66v7.71c0,.36-.29.66-.66.66h-3.2c-.36,0-.66-.29-.66-.66ZM125.49,53.1c0-.74-.6-1.33-1.33-1.33s-1.33.6-1.33,1.33.6,1.33,1.33,1.33,1.33-.6,1.33-1.33Z"/>
          </g>
        </g>
        <g>
          <g>
            <g>
              <path class="cls-2" d="M240.41,100.79v-55.63c0-.42-.34-.76-.76-.76h-22.52c-.42,0-.76.34-.76.76v55.63c0,.42.34.76.76.76h22.52c.42,0,.76-.34.76-.76ZM217.05,100.81v-55.66s16.14,0,16.14,0h6.49v44.44h0v11.22h-6.49s0,0,0,0h-16.14Z"/>
              <path class="cls-2" d="M239.67,89.59h-6.14c-.19,0-.34.15-.34.34v10.88h6.49v-11.22Z"/>
              <path class="cls-2" d="M233.53,89.59h6.14v-44.44h-6.49v10.88c0,.19.15.34.34.34h6.14-6.14c-.19,0-.34-.15-.34-.34v-10.88h-16.14s0,55.66,0,55.66h16.14v-10.88c0-.19.15-.34.34-.34Z"/>
              <g>
                <path class="cls-1" d="M236.28,88.92c-1.17,0-2.12-.95-2.12-2.12s.95-2.12,2.12-2.12,2.12.95,2.12,2.12-.95,2.12-2.12,2.12Z"/>
                <path class="cls-1" d="M238.38,86.8c0-1.16-.94-2.1-2.1-2.1s-2.1.94-2.1,2.1.94,2.1,2.1,2.1,2.1-.94,2.1-2.1ZM235.03,87.21v-.85h2.33v.85h-2.33Z"/>
                <rect class="cls-1" x="235.02" y="86.36" width="2.36" height=".85"/>
              </g>
              <g>
                <path class="cls-1" d="M234.28,59.52c0-1.16.94-2.1,2.1-2.1s2.1.94,2.1,2.1-.94,2.1-2.1,2.1-2.1-.94-2.1-2.1Z"/>
                <path class="cls-1" d="M238.47,59.52c0-1.16-.94-2.1-2.1-2.1s-2.1.94-2.1,2.1.94,2.1,2.1,2.1,2.1-.94,2.1-2.1ZM236.17,59.73h-1.28v-.34h1.28v-1.28h.34v1.28h1.28v.34h-1.28v1.28h-.34v-1.28Z"/>
                <polygon class="cls-1" points="236.51 59.73 237.79 59.73 237.79 59.39 236.51 59.39 236.51 58.1 236.17 58.1 236.17 59.39 234.89 59.39 234.89 59.73 236.17 59.73 236.17 61.01 236.51 61.01 236.51 59.73"/>
              </g>
            </g>
            <path class="cls-14" d="M234.17,54.78v-7.71c0-.36.29-.66.66-.66h3.2c.36,0,.66.29.66.66v7.71c0,.36-.29.66-.66.66h-3.2c-.36,0-.66-.29-.66-.66ZM237.76,53.04c0-.74-.6-1.33-1.33-1.33s-1.33.6-1.33,1.33.6,1.33,1.33,1.33,1.33-.6,1.33-1.33Z"/>
            <path class="cls-13" d="M238.69,91.11v7.71c0,.36-.29.66-.66.66h-3.2c-.36,0-.66-.29-.66-.66v-7.71c0-.36.29-.66.66-.66h3.2c.36,0,.66.29.66.66ZM235.1,92.86c0,.74.6,1.33,1.33,1.33s1.33-.6,1.33-1.33-.6-1.33-1.33-1.33-1.33.6-1.33,1.33Z"/>
          </g>
          <g>
            <g>
              <path class="cls-2" d="M168.27,45.16v55.63c0,.42.34.76.76.76h22.52c.42,0,.76-.34.76-.76v-55.63c0-.42-.34-.76-.76-.76h-22.52c-.42,0-.76.34-.76.76ZM191.63,45.15v55.66s-16.14,0-16.14,0h-6.49v-44.44h0v-11.22h6.49s0,0,0,0h16.14Z"/>
              <path class="cls-2" d="M169.01,56.37h6.14c.19,0,.34-.15.34-.34v-10.88h-6.49v11.22Z"/>
              <path class="cls-2" d="M175.15,56.37h-6.14v44.44h6.49v-10.88c0-.19-.15-.34-.34-.34h-6.14,6.14c.19,0,.34.15.34.34v10.88h16.14s0-55.66,0-55.66h-16.14v10.88c0,.19-.15.34-.34.34Z"/>
              <g>
                <path class="cls-1" d="M172.4,57.04c1.17,0,2.12.95,2.12,2.12s-.95,2.12-2.12,2.12-2.12-.95-2.12-2.12.95-2.12,2.12-2.12Z"/>
                <path class="cls-1" d="M170.31,59.15c0,1.16.94,2.1,2.1,2.1s2.1-.94,2.1-2.1-.94-2.1-2.1-2.1-2.1.94-2.1,2.1ZM173.65,58.75v.85h-2.33v-.85h2.33Z"/>
                <rect class="cls-1" x="171.31" y="58.74" width="2.36" height=".85"/>
              </g>
              <g>
                <path class="cls-1" d="M174.4,86.43c0,1.16-.94,2.1-2.1,2.1s-2.1-.94-2.1-2.1.94-2.1,2.1-2.1,2.1.94,2.1,2.1Z"/>
                <path class="cls-1" d="M170.21,86.43c0,1.16.94,2.1,2.1,2.1s2.1-.94,2.1-2.1-.94-2.1-2.1-2.1-2.1.94-2.1,2.1ZM172.51,86.23h1.28v.34h-1.28v1.28h-.34v-1.28h-1.28v-.34h1.28v-1.28h.34v1.28Z"/>
                <polygon class="cls-1" points="172.17 86.23 170.89 86.23 170.89 86.57 172.17 86.57 172.17 87.85 172.51 87.85 172.51 86.57 173.79 86.57 173.79 86.23 172.51 86.23 172.51 84.95 172.17 84.95 172.17 86.23"/>
              </g>
            </g>
            <path class="cls-14" d="M174.51,91.17v7.71c0,.36-.29.66-.66.66h-3.2c-.36,0-.66-.29-.66-.66v-7.71c0-.36.29-.66.66-.66h3.2c.36,0,.66.29.66.66ZM170.92,92.92c0,.74.6,1.33,1.33,1.33s1.33-.6,1.33-1.33-.6-1.33-1.33-1.33-1.33.6-1.33,1.33Z"/>
            <path class="cls-13" d="M170,54.84v-7.71c0-.36.29-.66.66-.66h3.2c.36,0,.66.29.66.66v7.71c0,.36-.29.66-.66.66h-3.2c-.36,0-.66-.29-.66-.66ZM173.59,53.1c0-.74-.6-1.33-1.33-1.33s-1.33.6-1.33,1.33.6,1.33,1.33,1.33,1.33-.6,1.33-1.33Z"/>
          </g>
          <g>
            <g>
              <path class="cls-2" d="M216.36,100.79v-55.63c0-.42-.34-.76-.76-.76h-22.52c-.42,0-.76.34-.76.76v55.63c0,.42.34.76.76.76h22.52c.42,0,.76-.34.76-.76ZM193,100.81v-55.66s16.14,0,16.14,0h6.49v44.44h0v11.22h-6.49s0,0,0,0h-16.14Z"/>
              <path class="cls-2" d="M215.63,89.59h-6.14c-.19,0-.34.15-.34.34v10.88h6.49v-11.22Z"/>
              <path class="cls-2" d="M209.48,89.59h6.14v-44.44h-6.49v10.88c0,.19.15.34.34.34h6.14-6.14c-.19,0-.34-.15-.34-.34v-10.88h-16.14s0,55.66,0,55.66h16.14v-10.88c0-.19.15-.34.34-.34Z"/>
              <g>
                <path class="cls-1" d="M212.24,88.92c-1.17,0-2.12-.95-2.12-2.12s.95-2.12,2.12-2.12,2.12.95,2.12,2.12-.95,2.12-2.12,2.12Z"/>
                <path class="cls-1" d="M214.33,86.8c0-1.16-.94-2.1-2.1-2.1s-2.1.94-2.1,2.1.94,2.1,2.1,2.1,2.1-.94,2.1-2.1ZM210.98,87.21v-.85h2.33v.85h-2.33Z"/>
                <rect class="cls-1" x="210.97" y="86.36" width="2.36" height=".85"/>
              </g>
              <g>
                <path class="cls-1" d="M210.23,59.52c0-1.16.94-2.1,2.1-2.1s2.1.94,2.1,2.1-.94,2.1-2.1,2.1-2.1-.94-2.1-2.1Z"/>
                <path class="cls-1" d="M214.43,59.52c0-1.16-.94-2.1-2.1-2.1s-2.1.94-2.1,2.1.94,2.1,2.1,2.1,2.1-.94,2.1-2.1ZM212.13,59.73h-1.28v-.34h1.28v-1.28h.34v1.28h1.28v.34h-1.28v1.28h-.34v-1.28Z"/>
                <polygon class="cls-1" points="212.46 59.73 213.75 59.73 213.75 59.39 212.46 59.39 212.46 58.1 212.13 58.1 212.13 59.39 210.84 59.39 210.84 59.73 212.13 59.73 212.13 61.01 212.46 61.01 212.46 59.73"/>
              </g>
            </g>
            <path class="cls-14" d="M210.13,54.78v-7.71c0-.36.29-.66.66-.66h3.2c.36,0,.66.29.66.66v7.71c0,.36-.29.66-.66.66h-3.2c-.36,0-.66-.29-.66-.66ZM213.72,53.04c0-.74-.6-1.33-1.33-1.33s-1.33.6-1.33,1.33.6,1.33,1.33,1.33,1.33-.6,1.33-1.33Z"/>
            <path class="cls-13" d="M214.64,91.11v7.71c0,.36-.29.66-.66.66h-3.2c-.36,0-.66-.29-.66-.66v-7.71c0-.36.29-.66.66-.66h3.2c.36,0,.66.29.66.66ZM211.05,92.86c0,.74.6,1.33,1.33,1.33s1.33-.6,1.33-1.33-.6-1.33-1.33-1.33-1.33.6-1.33,1.33Z"/>
          </g>
        </g>
        <g>
          <g>
            <path class="cls-12" d="M116.16,49.38c.41,0,.8.1,1.15.28h-2.29c.34-.18.73-.28,1.15-.28Z"/>
            <path class="cls-11" d="M117.31,49.66c.8.41,1.34,1.24,1.34,2.2,0,1.37-1.11,2.49-2.49,2.49-1.37,0-2.49-1.11-2.49-2.49,0-.96.54-1.79,1.34-2.2"/>
            <path class="cls-11" d="M115.02,49.66h-.16v-3.66h2.61v3.66h-.16c-.34-.18-.73-.28-1.15-.28s-.8.1-1.15.28Z"/>
            <polyline class="cls-11" points="116.61 54.35 116.61 55.44 115.71 55.44 115.71 54.35"/>
          </g>
          <polyline class="cls-3" points="116.79 41.31 116.79 46 115.54 46 115.54 41.31"/>
          <g>
            <path class="cls-15" d="M124.2,49.38c.41,0,.8.1,1.15.28h-2.29c.34-.18.73-.28,1.15-.28Z"/>
            <path class="cls-5" d="M125.34,49.66c.8.41,1.34,1.24,1.34,2.2,0,1.37-1.11,2.49-2.49,2.49s-2.49-1.11-2.49-2.49c0-.96.54-1.79,1.34-2.2"/>
            <path class="cls-9" d="M123.05,49.66h-.16v-3.66h2.61v3.66h-.16c-.34-.18-.73-.28-1.15-.28s-.8.1-1.15.28Z"/>
            <polyline class="cls-6" points="124.65 54.35 124.65 55.44 123.75 55.44 123.75 54.35"/>
          </g>
          <polyline class="cls-3" points="124.82 41.31 124.82 46 123.57 46 123.57 41.31"/>
          <line class="cls-3" x1="123.57" y1="41.31" x2="116.79" y2="41.31"/>
          <polyline class="cls-3" points="115.54 41.31 115.54 40.06 116.79 40.06 117 40.06 123.21 40.06 123.57 40.06 124.82 40.06 124.82 41.31"/>
        </g>
        <g>
          <g>
            <path class="cls-12" d="M164.25,49.38c.41,0,.8.1,1.15.28h-2.29c.34-.18.73-.28,1.15-.28Z"/>
            <path class="cls-11" d="M165.4,49.66c.8.41,1.34,1.24,1.34,2.2,0,1.37-1.11,2.49-2.49,2.49-1.37,0-2.49-1.11-2.49-2.49,0-.96.54-1.79,1.34-2.2"/>
            <path class="cls-11" d="M163.11,49.66h-.16v-3.66h2.61v3.66h-.16c-.34-.18-.73-.28-1.15-.28s-.8.1-1.15.28Z"/>
            <polyline class="cls-11" points="164.7 54.35 164.7 55.44 163.81 55.44 163.81 54.35"/>
          </g>
          <polyline class="cls-3" points="164.88 41.31 164.88 46 163.63 46 163.63 41.31"/>
          <g>
            <path class="cls-15" d="M172.29,49.38c.41,0,.8.1,1.15.28h-2.29c.34-.18.73-.28,1.15-.28Z"/>
            <path class="cls-5" d="M173.44,49.66c.8.41,1.34,1.24,1.34,2.2,0,1.37-1.11,2.49-2.49,2.49s-2.49-1.11-2.49-2.49c0-.96.54-1.79,1.34-2.2"/>
            <path class="cls-9" d="M171.14,49.66h-.16v-3.66h2.61v3.66h-.16c-.34-.18-.73-.28-1.15-.28s-.8.1-1.15.28Z"/>
            <polyline class="cls-6" points="172.74 54.35 172.74 55.44 171.84 55.44 171.84 54.35"/>
          </g>
          <polyline class="cls-3" points="172.92 41.31 172.92 46 171.67 46 171.67 41.31"/>
          <line class="cls-3" x1="171.67" y1="41.31" x2="164.88" y2="41.31"/>
          <polyline class="cls-3" points="163.63 41.31 163.63 40.06 164.88 40.06 165.09 40.06 171.3 40.06 171.67 40.06 172.92 40.06 172.92 41.31"/>
        </g>
        <g>
          <g>
            <path class="cls-12" d="M124.03,95.81c-.41,0-.8-.1-1.15-.28h2.29c-.34.18-.73.28-1.15.28Z"/>
            <path class="cls-11" d="M122.88,95.53c-.8-.41-1.34-1.24-1.34-2.2,0-1.37,1.11-2.49,2.49-2.49s2.49,1.11,2.49,2.49c0,.96-.54,1.79-1.34,2.2"/>
            <path class="cls-11" d="M125.17,95.53h.16v3.66h-2.61v-3.66h.16c.34.18.73.28,1.15.28s.8-.1,1.15-.28Z"/>
            <polyline class="cls-11" points="123.58 90.84 123.58 89.75 124.47 89.75 124.47 90.84"/>
          </g>
          <g>
            <polyline class="cls-3" points="163.66 105.06 163.66 99.19 164.9 99.19 164.9 105.06"/>
            <polyline class="cls-8" points="164.9 105.06 164.9 106.31 163.66 106.31"/>
          </g>
          <g>
            <path class="cls-15" d="M164.45,95.81c-.41,0-.8-.1-1.14-.28h2.27c-.34.18-.73.28-1.14.28Z"/>
            <path class="cls-7" d="M163.31,95.53c-.79-.41-1.33-1.24-1.33-2.2,0-1.37,1.1-2.49,2.46-2.49s2.46,1.11,2.46,2.49c0,.96-.54,1.79-1.33,2.2"/>
            <path class="cls-7" d="M165.58,95.53h.16v3.66h-2.59v-3.66h.16c.34.18.73.28,1.14.28s.8-.1,1.14-.28Z"/>
            <polyline class="cls-7" points="164 90.84 164 89.75 164.89 89.75 164.89 90.84"/>
          </g>
          <polyline class="cls-3" points="123.57 105.06 123.57 99.19 124.82 99.19 124.82 105.06"/>
          <line class="cls-8" x1="163.66" y1="106.31" x2="124.82" y2="106.31"/>
          <line class="cls-8" x1="124.82" y1="105.06" x2="163.66" y2="105.06"/>
          <polyline class="cls-8" points="124.82 106.31 123.57 106.31 123.57 105.06"/>
        </g>
        <g>
          <g>
            <path class="cls-12" d="M172.12,95.81c-.41,0-.8-.1-1.15-.28h2.29c-.34.18-.73.28-1.15.28Z"/>
            <path class="cls-11" d="M170.97,95.53c-.8-.41-1.34-1.24-1.34-2.2,0-1.37,1.11-2.49,2.49-2.49s2.49,1.11,2.49,2.49c0,.96-.54,1.79-1.34,2.2"/>
            <path class="cls-11" d="M173.26,95.53h.16v3.66h-2.61v-3.66h.16c.34.18.73.28,1.15.28s.8-.1,1.15-.28Z"/>
            <polyline class="cls-11" points="171.67 90.84 171.67 89.75 172.57 89.75 172.57 90.84"/>
          </g>
          <g>
            <polyline class="cls-3" points="211.75 105.06 211.75 99.19 212.99 99.19 212.99 105.06"/>
            <polyline class="cls-8" points="212.99 105.06 212.99 106.31 211.75 106.31"/>
          </g>
          <g>
            <path class="cls-15" d="M212.54,95.81c-.41,0-.8-.1-1.14-.28h2.27c-.34.18-.73.28-1.14.28Z"/>
            <path class="cls-7" d="M211.4,95.53c-.79-.41-1.33-1.24-1.33-2.2,0-1.37,1.1-2.49,2.46-2.49s2.46,1.11,2.46,2.49c0,.96-.54,1.79-1.33,2.2"/>
            <path class="cls-7" d="M213.68,95.53h.16v3.66h-2.59v-3.66h.16c.34.18.73.28,1.14.28s.8-.1,1.14-.28Z"/>
            <polyline class="cls-7" points="212.09 90.84 212.09 89.75 212.98 89.75 212.98 90.84"/>
          </g>
          <polyline class="cls-3" points="171.66 105.06 171.66 99.19 172.91 99.19 172.91 105.06"/>
          <line class="cls-8" x1="211.75" y1="106.31" x2="172.91" y2="106.31"/>
          <line class="cls-8" x1="172.91" y1="105.06" x2="211.75" y2="105.06"/>
          <polyline class="cls-8" points="172.91 106.31 171.66 106.31 171.66 105.06"/>
        </g>
        <g>
          <g>
            <path class="cls-12" d="M215.2,53.5c0-.41-.1-.8-.28-1.15v2.29c.18-.34.28-.73.28-1.15Z"/>
            <path class="cls-11" d="M214.92,52.36c-.41-.8-1.24-1.34-2.2-1.34-1.37,0-2.49,1.11-2.49,2.49,0,1.37,1.11,2.49,2.49,2.49.96,0,1.79-.54,2.2-1.34"/>
            <path class="cls-11" d="M214.92,54.65v.16h3.66v-2.61h-3.66v.16c.18.34.28.73.28,1.15s-.1.8-.28,1.15Z"/>
            <polyline class="cls-11" points="210.23 53.05 209.14 53.05 209.14 53.95 210.23 53.95"/>
          </g>
          <g>
            <polyline class="cls-3" points="224.87 93.14 230 93.14 230 94.38 224.87 94.38"/>
            <polyline class="cls-8" points="224.87 94.38 223.62 94.38 223.62 93.14"/>
          </g>
          <g>
            <path class="cls-15" d="M233.38,93.92c0-.41.1-.8.28-1.14v2.27c-.18-.34-.28-.73-.28-1.14Z"/>
            <path class="cls-7" d="M233.66,92.79c.41-.79,1.24-1.33,2.2-1.33,1.37,0,2.49,1.1,2.49,2.46s-1.11,2.46-2.49,2.46c-.96,0-1.79-.54-2.2-1.33"/>
            <path class="cls-7" d="M233.66,95.06v.16h-3.66v-2.59h3.66v.16c-.18.34-.28.73-.28,1.14s.1.8.28,1.14Z"/>
            <polyline class="cls-7" points="238.35 93.48 239.44 93.48 239.44 94.37 238.35 94.37"/>
          </g>
          <polyline class="cls-3" points="223.71 53.04 218.58 53.04 218.58 54.29 223.71 54.29"/>
          <line class="cls-8" x1="223.62" y1="93.14" x2="223.62" y2="54.29"/>
          <line class="cls-8" x1="224.87" y1="54.29" x2="224.87" y2="93.14"/>
          <polyline class="cls-8" points="223.62 53.04 224.87 53.04 224.87 54.29"/>
          <rect class="cls-4" x="222.83" y="65.44" width="2.95" height="14.02"/>
        </g>
      </g>
    </g>
  </g>
</svg>