<?xml version="1.0" encoding="UTF-8"?>
<svg id="_图层_2" data-name="图层 2" xmlns="http://www.w3.org/2000/svg" viewBox="0 0 4.85 9.17">
  <defs>
    <style>
      .cls-1 {
        fill: none;
        stroke: #070001;
        stroke-linecap: square;
        stroke-miterlimit: 10;
        stroke-width: .12px;
      }
    </style>
  </defs>
  <g id="_图层_1-2" data-name="图层 1">
    <g>
      <line class="cls-1" x1=".42" y1="2.25" x2=".42" y2="3.72"/>
      <line class="cls-1" x1=".42" y1="3.72" x2="4.43" y2="3.72"/>
      <line class="cls-1" x1="4.43" y1="3.72" x2="4.43" y2="2.25"/>
      <line class="cls-1" x1="4.43" y1="2.25" x2=".42" y2="2.25"/>
      <line class="cls-1" x1=".42" y1="1.33" x2=".42" y2="2.07"/>
      <line class="cls-1" x1=".42" y1="2.07" x2="4.43" y2="2.07"/>
      <line class="cls-1" x1="4.43" y1="2.07" x2="4.43" y2="1.33"/>
      <line class="cls-1" x1="3.77" y1=".59" x2="1.15" y2=".58"/>
      <line class="cls-1" x1=".42" y1="5.64" x2=".42" y2="7.14"/>
      <line class="cls-1" x1=".42" y1="7.14" x2="4.43" y2="7.14"/>
      <line class="cls-1" x1="4.43" y1="7.14" x2="4.43" y2="5.64"/>
      <line class="cls-1" x1="4.43" y1="5.64" x2=".42" y2="5.64"/>
      <line class="cls-1" x1=".42" y1="3.9" x2=".42" y2="5.47"/>
      <line class="cls-1" x1=".42" y1="5.47" x2="4.43" y2="5.47"/>
      <line class="cls-1" x1="4.43" y1="5.47" x2="4.43" y2="3.9"/>
      <line class="cls-1" x1="4.43" y1="3.9" x2=".42" y2="3.9"/>
      <line class="cls-1" x1=".42" y1="7.32" x2=".42" y2="8.02"/>
      <line class="cls-1" x1="1.15" y1="8.76" x2="3.69" y2="8.76"/>
      <line class="cls-1" x1="4.43" y1="8.02" x2="4.43" y2="7.32"/>
      <line class="cls-1" x1="4.43" y1="7.32" x2=".42" y2="7.32"/>
      <line class="cls-1" x1=".07" y1="8.02" x2=".07" y2="1.33"/>
      <line class="cls-1" x1="3.74" y1="9.11" x2="1.15" y2="9.11"/>
      <line class="cls-1" x1="3.69" y1="9.11" x2="2.42" y2="9.11"/>
      <line class="cls-1" x1="4.78" y1="1.33" x2="4.78" y2="8.02"/>
      <line class="cls-1" x1="2.92" y1=".24" x2="3.69" y2=".24"/>
      <line class="cls-1" x1="1.15" y1=".24" x2="1.92" y2=".24"/>
      <polyline class="cls-1" points="4.43 1.33 4.42 1.2 4.39 1.07 4.33 .96 4.26 .85 4.17 .76 4.06 .69 3.94 .63 3.82 .6 3.69 .58"/>
      <polyline class="cls-1" points="1.15 .58 1.02 .6 .9 .63 .78 .69 .68 .76 .59 .85 .51 .96 .46 1.07 .43 1.2 .42 1.33"/>
      <polyline class="cls-1" points=".42 8.02 .43 8.15 .46 8.28 .51 8.39 .59 8.5 .68 8.59 .78 8.66 .9 8.72 1.02 8.75 1.15 8.76"/>
      <polyline class="cls-1" points="3.69 8.76 3.82 8.75 3.94 8.72 4.06 8.66 4.17 8.59 4.26 8.5 4.33 8.39 4.39 8.28 4.42 8.15 4.43 8.02"/>
      <polyline class="cls-1" points=".07 8.02 .08 8.18 .11 8.33 .16 8.47 .24 8.61 .33 8.73 .44 8.84 .56 8.93 .7 9.01 .85 9.06 1 9.1 1.15 9.11"/>
      <polyline class="cls-1" points="3.69 9.11 3.85 9.1 4 9.06 4.14 9.01 4.28 8.93 4.4 8.84 4.51 8.73 4.61 8.61 4.68 8.47 4.74 8.33 4.76 8.18 4.78 8.02"/>
      <polyline class="cls-1" points="4.78 1.33 4.76 1.17 4.74 1.02 4.68 .87 4.61 .74 4.51 .61 4.4 .51 4.28 .41 4.14 .34 4 .28 3.85 .25 3.69 .24"/>
      <polyline class="cls-1" points="1.15 .24 1 .25 .85 .28 .7 .34 .56 .41 .44 .51 .33 .61 .24 .74 .16 .87 .11 1.02 .08 1.17 .07 1.33"/>
      <polyline class="cls-1" points="2.92 .24 2.8 .16 2.69 .11 2.55 .07 2.42 .06 2.29 .07 2.16 .11 2.04 .16 1.92 .24"/>
    </g>
  </g>
</svg>