<?xml version="1.0" encoding="UTF-8"?>
<svg id="_图层_2" data-name="图层 2" xmlns="http://www.w3.org/2000/svg" viewBox="0 0 12.63 8.52">
  <defs>
    <style>
      .cls-1 {
        fill: none;
        stroke: #070001;
        stroke-linecap: square;
        stroke-miterlimit: 10;
        stroke-width: .12px;
      }
    </style>
  </defs>
  <g id="_图层_1-2" data-name="图层 1">
    <g>
      <line class="cls-1" x1=".06" y1=".89" x2="1.56" y2=".89"/>
      <line class="cls-1" x1="1.56" y1=".89" x2="1.56" y2=".06"/>
      <line class="cls-1" x1="1.56" y1=".06" x2="3.18" y2=".06"/>
      <line class="cls-1" x1="3.18" y1=".06" x2="3.18" y2=".89"/>
      <line class="cls-1" x1="3.18" y1=".89" x2="6.88" y2=".89"/>
      <line class="cls-1" x1="6.88" y1=".89" x2="6.88" y2=".06"/>
      <line class="cls-1" x1="6.88" y1=".06" x2="8.5" y2=".06"/>
      <line class="cls-1" x1="8.5" y1=".06" x2="8.5" y2=".89"/>
      <line class="cls-1" x1="8.5" y1=".89" x2="10.04" y2=".89"/>
      <line class="cls-1" x1="10.04" y1=".89" x2="10.04" y2="6.59"/>
      <line class="cls-1" x1="10.04" y1="6.59" x2=".06" y2="6.59"/>
      <line class="cls-1" x1=".06" y1="6.59" x2=".06" y2=".89"/>
      <line class="cls-1" x1=".39" y1="1.31" x2=".39" y2="6.21"/>
      <line class="cls-1" x1=".39" y1="6.21" x2="9.62" y2="6.21"/>
      <line class="cls-1" x1="9.62" y1="6.21" x2="9.62" y2="1.23"/>
      <line class="cls-1" x1="9.62" y1="1.23" x2=".39" y2="1.23"/>
      <line class="cls-1" x1=".39" y1="1.31" x2=".39" y2="1.23"/>
      <line class="cls-1" x1="1.39" y1="2.93" x2="3.35" y2="2.93"/>
      <line class="cls-1" x1="3.35" y1="3.39" x2="3.35" y2="2.93"/>
      <line class="cls-1" x1="3.35" y1="3.39" x2="1.39" y2="3.39"/>
      <line class="cls-1" x1="1.39" y1="3.39" x2="1.39" y2="2.93"/>
      <line class="cls-1" x1="7.5" y1="2.14" x2="7.92" y2="2.14"/>
      <line class="cls-1" x1="7.92" y1="2.14" x2="7.92" y2="2.93"/>
      <line class="cls-1" x1="7.92" y1="2.93" x2="8.66" y2="2.93"/>
      <line class="cls-1" x1="8.66" y1="3.39" x2="8.66" y2="2.93"/>
      <line class="cls-1" x1="8.66" y1="3.39" x2="7.92" y2="3.39"/>
      <line class="cls-1" x1="7.92" y1="3.39" x2="7.92" y2="4.14"/>
      <line class="cls-1" x1="7.5" y1="4.14" x2="7.92" y2="4.14"/>
      <line class="cls-1" x1="7.5" y1="4.14" x2="7.5" y2="3.39"/>
      <line class="cls-1" x1="7.5" y1="3.39" x2="6.71" y2="3.39"/>
      <line class="cls-1" x1="6.71" y1="3.39" x2="6.71" y2="2.93"/>
      <line class="cls-1" x1="6.71" y1="2.93" x2="7.5" y2="2.93"/>
      <line class="cls-1" x1="7.5" y1="2.93" x2="7.5" y2="2.14"/>
      <line class="cls-1" x1="1.39" y1="7.46" x2="1.39" y2="6.96"/>
      <line class="cls-1" x1="1.39" y1="7.46" x2="11.16" y2="7.46"/>
      <line class="cls-1" x1="11.16" y1="7.46" x2="11.16" y2="1.85"/>
      <line class="cls-1" x1="10.7" y1="1.85" x2="11.16" y2="1.85"/>
      <line class="cls-1" x1="10.7" y1="1.85" x2="10.7" y2="6.96"/>
      <line class="cls-1" x1="10.7" y1="6.96" x2="1.39" y2="6.96"/>
      <line class="cls-1" x1="2.81" y1="8.46" x2="2.81" y2="8"/>
      <line class="cls-1" x1="2.81" y1="8.46" x2="12.57" y2="8.46"/>
      <line class="cls-1" x1="12.57" y1="8.46" x2="12.57" y2="2.81"/>
      <line class="cls-1" x1="12.11" y1="2.81" x2="12.57" y2="2.81"/>
      <line class="cls-1" x1="12.11" y1="2.81" x2="12.11" y2="8"/>
      <line class="cls-1" x1="12.11" y1="8" x2="2.81" y2="8"/>
    </g>
  </g>
</svg>