<?xml version="1.0" encoding="UTF-8"?>
<svg id="_图层_2" data-name="图层 2" xmlns="http://www.w3.org/2000/svg" viewBox="0 0 13.1 8.12">
  <defs>
    <style>
      .cls-1 {
        fill: none;
        stroke: #0e0408;
        stroke-linecap: square;
        stroke-miterlimit: 10;
        stroke-width: .12px;
      }
    </style>
  </defs>
  <g id="_图层_1-2" data-name="图层 1">
    <g>
      <polyline class="cls-1" points="4.81 2.07 4.75 2.07 4.62 2.07 4.38 2.07 4.08 2.07 3.73 2.07 3.33 2.07 2.5 2.07 1.64 2.07 1.24 2.07 .89 2.07 .6 2.07 .36 2.07 .22 2.07 .17 2.07"/>
      <line class="cls-1" x1=".09" y1="2.15" x2=".17" y2="2.07"/>
      <line class="cls-1" x1=".09" y1="2.72" x2=".09" y2="2.15"/>
      <line class="cls-1" x1=".09" y1="2.8" x2=".17" y2="2.72"/>
      <polyline class="cls-1" points=".17 2.8 .22 2.8 .36 2.8 .6 2.8 .87 2.8 1.21 2.8 1.59 2.8 2.42 2.8 3.25 2.8 3.65 2.8 3.98 2.8 4.27 2.8 4.51 2.8 4.65 2.8 4.7 2.8"/>
      <line class="cls-1" x1="4.7" y1="2.8" x2="4.81" y2="2.07"/>
      <line class="cls-1" x1="4.59" y1="4.06" x2="4.62" y2="3.71"/>
      <polyline class="cls-1" points="4.62 3.71 4.57 3.71 4.43 3.71 4.19 3.71 3.92 3.71 3.57 3.71 3.2 3.71 2.39 3.71 1.56 3.71 1.19 3.71 .87 3.71 .57 3.71 .36 3.71 .22 3.71 .17 3.71"/>
      <line class="cls-1" x1=".09" y1="3.79" x2=".17" y2="3.71"/>
      <line class="cls-1" x1=".09" y1="4.32" x2=".09" y2="3.79"/>
      <line class="cls-1" x1=".09" y1="4.41" x2=".17" y2="4.32"/>
      <polyline class="cls-1" points=".17 4.41 .22 4.41 .36 4.41 .57 4.41 .87 4.41 1.19 4.41 1.56 4.41 2.39 4.41 3.2 4.41 3.57 4.41 3.92 4.41 4.19 4.41 4.43 4.41 4.57 4.41 4.62 4.41"/>
      <line class="cls-1" x1="4.59" y1="4.41" x2="4.62" y2="4.06"/>
      <line class="cls-1" x1="6.6" y1="7.33" x2="6.6" y2="7.33"/>
      <polyline class="cls-1" points="6.6 7.33 6.76 7.33 6.98 7.33 7.25 7.33 7.51 7.3 8.16 7.25 8.86 7.14 9.58 6.98 10.28 6.74 10.95 6.42 11.24 6.23 11.51 5.99"/>
      <polyline class="cls-1" points="11.51 5.99 11.86 5.59 12.13 5.13 12.26 4.62 12.31 4.06 12.26 3.49 12.13 2.98 11.86 2.53 11.51 2.1"/>
      <polyline class="cls-1" points="11.51 2.1 11.24 1.88 10.95 1.67 10.6 1.51 10.28 1.35 9.55 1.11 8.83 .95 8.13 .87 7.51 .81 7.22 .78 6.98 .78 6.76 .78 6.58 .78"/>
      <polyline class="cls-1" points="6.58 .78 6.52 1.03 6.44 1.35 6.34 1.72 6.25 2.13 6.09 3.06 6.04 4.06"/>
      <polyline class="cls-1" points="6.04 4.06 6.07 4.51 6.09 5 6.25 5.93 6.34 6.36 6.44 6.74 6.52 7.06 6.6 7.33"/>
      <line class="cls-1" x1="6.28" y1="8.05" x2="6.79" y2="8.03"/>
      <line class="cls-1" x1="5.96" y1="8.03" x2="6.28" y2="7.78"/>
      <polyline class="cls-1" points="5.96 7.78 5.96 7.76 5.93 7.68 5.91 7.54 5.85 7.38 5.75 7.01 5.64 6.5 5.5 5.93 5.42 5.32 5.34 4.67 5.32 4.06 5.34 3.39 5.42 2.74 5.5 2.13 5.64 1.56 5.75 1.08 5.85 .7 5.91 .54 5.93 .44 5.96 .36 5.96 .33"/>
      <line class="cls-1" x1="5.96" y1=".33" x2="6.28" y2=".09"/>
      <polyline class="cls-1" points="6.28 .09 6.34 .09 6.47 .09 6.66 .09 6.93 .09 7.25 .09 7.6 .09 8 .14 8.4 .17"/>
      <polyline class="cls-1" points="8.4 .17 8.99 .28 9.53 .38 10.04 .52 10.49 .68 10.92 .87 11.32 1.08 11.67 1.32 11.99 1.59"/>
      <polyline class="cls-1" points="11.99 1.59 12.23 1.83 12.45 2.1 12.61 2.39 12.77 2.69 12.88 3.01 12.96 3.33 13.01 3.68 13.04 4.06 13.01 4.41 12.96 4.75 12.88 5.1 12.77 5.42 12.61 5.72 12.45 5.99 12.23 6.26 11.99 6.52"/>
      <polyline class="cls-1" points="11.99 6.52 11.67 6.79 11.32 7.03 10.92 7.25 10.49 7.44 10.04 7.6 9.53 7.73 8.99 7.84 8.43 7.95"/>
      <polyline class="cls-1" points="8.43 7.95 7.94 8 7.51 8.03 7.11 8.05 6.79 8.05"/>
      <polyline class="cls-1" points="4.7 5.32 4.65 5.32 4.51 5.32 4.3 5.32 4 5.32 3.65 5.32 3.28 5.32 2.45 5.32 1.59 5.32 1.21 5.32 .87 5.32 .6 5.32 .36 5.32 .22 5.32 .17 5.32"/>
      <line class="cls-1" x1=".09" y1="5.4" x2=".17" y2="5.32"/>
      <line class="cls-1" x1=".09" y1="5.96" x2=".09" y2="5.4"/>
      <line class="cls-1" x1=".09" y1="6.04" x2=".17" y2="5.96"/>
      <polyline class="cls-1" points=".17 6.04 .22 6.04 .36 6.04 .6 6.04 .89 6.04 1.24 6.04 1.64 6.04 2.5 6.04 3.36 6.04 3.73 6.04 4.08 6.04 4.4 6.04 4.62 6.04 4.78 6.04 4.83 6.04"/>
      <line class="cls-1" x1="4.83" y1="6.04" x2="4.7" y2="5.32"/>
      <polyline class="cls-1" points="5.02 6.95 4.97 6.95 4.81 6.95 4.59 6.95 4.27 6.95 3.9 6.95 3.49 6.95 2.61 6.95 1.7 6.95 1.29 6.95 .92 6.95 .62 6.95 .38 6.95 .22 6.95 .17 6.95"/>
      <line class="cls-1" x1=".09" y1="7.03" x2=".17" y2="6.95"/>
      <line class="cls-1" x1=".09" y1="7.6" x2=".09" y2="7.03"/>
      <line class="cls-1" x1=".09" y1="7.68" x2=".17" y2="7.6"/>
      <polyline class="cls-1" points=".17 7.68 .22 7.68 .38 7.68 .62 7.68 .95 7.68 1.32 7.68 1.72 7.68 2.64 7.68 3.55 7.68 3.98 7.68 4.35 7.68 4.65 7.68 4.91 7.68 5.05 7.68 5.13 7.68"/>
      <line class="cls-1" x1="5.13" y1="7.68" x2="5.18" y2="7.57"/>
      <polyline class="cls-1" points="5.18 7.57 5.13 7.3 5.02 6.95"/>
      <line class="cls-1" x1="5.13" y1=".54" x2="5.18" y2=".44"/>
      <polyline class="cls-1" points="5.13 .44 5.05 .44 4.91 .44 4.65 .44 4.35 .44 3.98 .44 3.55 .44 2.64 .44 1.72 .44 1.32 .44 .95 .44 .62 .44 .38 .44 .22 .44 .17 .44"/>
      <line class="cls-1" x1=".09" y1=".52" x2=".17" y2=".44"/>
      <line class="cls-1" x1=".09" y1="1.08" x2=".09" y2=".52"/>
      <line class="cls-1" x1=".09" y1="1.16" x2=".17" y2="1.08"/>
      <polyline class="cls-1" points=".17 1.16 .22 1.16 .38 1.16 .62 1.16 .92 1.16 1.29 1.16 1.7 1.16 2.58 1.16 3.49 1.16 3.9 1.16 4.27 1.16 4.57 1.16 4.81 1.16 4.97 1.16 5.02 1.16"/>
      <polyline class="cls-1" points="5.02 1.16 5.1 .81 5.18 .54"/>
    </g>
  </g>
</svg>