<?xml version="1.0" encoding="UTF-8"?>
<svg id="_图层_2" data-name="图层 2" xmlns="http://www.w3.org/2000/svg" xmlns:xlink="http://www.w3.org/1999/xlink" viewBox="0 0 143.44 89.07">
  <defs>
    <style>
      .cls-1 {
        stroke: #000;
        stroke-dasharray: .7;
        stroke-width: .17px;
      }

      .cls-1, .cls-2, .cls-3, .cls-4 {
        fill: none;
      }

      .cls-1, .cls-2, .cls-5, .cls-4 {
        stroke-miterlimit: 10;
      }

      .cls-2 {
        stroke: #231815;
        stroke-width: .5px;
      }

      .cls-5 {
        fill: #fff;
      }

      .cls-5, .cls-4 {
        stroke: #040000;
        stroke-linecap: square;
        stroke-width: .12px;
      }

      .cls-6 {
        clip-path: url(#clippath);
      }

      .cls-7 {
        fill: #54565a;
      }
    </style>
    <clipPath id="clippath">
      <rect class="cls-3" x="1.01" y="2.5" width="139.18" height="84.6"/>
    </clipPath>
  </defs>
  <g id="_图层_1-2" data-name="图层 1">
    <g>
      <path class="cls-7" d="M4.09,8.87c.06.18.17.33.32.44.16.11.33.17.53.16.08,0,.16,0,.24-.03.09-.03.17-.07.25-.12.06-.05.11-.11.15-.18.03-.06.05-.13.05-.2,0-.07-.02-.13-.06-.2-.04-.06-.08-.12-.14-.16-.08-.07-.17-.13-.26-.18-.11-.06-.23-.11-.35-.16-.14-.05-.28-.1-.41-.17-.11-.05-.21-.12-.3-.19-.07-.06-.13-.14-.18-.23-.03-.07-.04-.14-.04-.21,0-.22.09-.4.26-.54.1-.08.21-.14.33-.18.14-.04.28-.07.42-.07.22,0,.42.06.61.17.09.06.17.14.24.22.06.09.11.18.15.29l-.28.05c-.05-.14-.13-.25-.25-.34-.14-.1-.3-.15-.47-.15s-.34.05-.49.14c-.06.05-.12.1-.16.17-.04.06-.06.13-.06.21,0,.12.05.22.15.3.07.06.15.11.24.14.13.06.25.11.38.16.15.06.3.13.45.2.11.06.22.14.31.22.07.07.13.15.18.25.02.07.04.13.04.2,0,.22-.08.41-.24.56-.1.08-.21.14-.33.18-.14.04-.28.07-.43.07-.11,0-.22-.01-.32-.04-.13-.03-.24-.07-.35-.14-.1-.07-.19-.15-.27-.25-.08-.11-.14-.23-.19-.37l.28-.04ZM6.4,8.12c.05-.14.12-.26.21-.37.1-.1.22-.18.35-.23.11-.04.23-.06.36-.06.19,0,.37.05.54.16.15.11.25.25.32.42l-.26.04c-.05-.13-.13-.22-.25-.3-.11-.06-.22-.09-.34-.09-.09,0-.18.02-.26.04-.1.04-.19.1-.26.18-.07.09-.12.19-.16.29-.04.13-.05.25-.05.38,0,.13.01.26.05.38.03.11.08.21.15.3.07.08.15.14.25.18.08.03.17.04.26.04.14,0,.28-.04.4-.12.11-.08.19-.19.24-.32l.25.04c-.07.19-.18.34-.33.45-.17.11-.35.17-.55.17-.12,0-.23-.02-.34-.06-.13-.05-.25-.13-.34-.23-.09-.11-.16-.23-.21-.37-.05-.15-.07-.3-.07-.46,0-.16.02-.32.07-.47h0ZM8.6,8.14c.04-.14.11-.26.2-.38.1-.11.21-.19.35-.24.12-.04.24-.06.36-.06.12,0,.24.02.36.06.14.05.25.13.35.24.09.11.16.23.2.37.04.15.07.3.07.46,0,.16-.03.32-.07.47-.05.14-.11.26-.21.37-.1.1-.21.18-.35.22-.12.04-.24.06-.36.06-.12,0-.24-.02-.36-.06-.14-.05-.25-.13-.35-.23-.1-.11-.17-.24-.21-.37-.05-.15-.07-.31-.07-.47,0-.15.02-.3.07-.45h0ZM8.84,8.97c.03.11.09.21.16.3.07.08.15.14.26.18.08.03.17.04.26.04s.18-.01.26-.04c.1-.04.19-.1.26-.18.07-.09.12-.19.15-.3.03-.12.05-.25.05-.38,0-.13-.02-.25-.06-.38-.03-.11-.09-.21-.16-.3-.07-.08-.16-.14-.26-.18-.09-.03-.17-.04-.26-.04-.2,0-.37.08-.51.23-.07.09-.13.19-.16.29-.04.12-.05.25-.05.38,0,.13.01.26.05.38h0ZM10.92,8.14c.04-.14.11-.26.2-.38.1-.11.21-.19.35-.24.12-.04.24-.06.36-.06.12,0,.24.02.36.06.14.05.25.13.35.24.09.11.16.23.2.37.04.15.07.3.07.46,0,.16-.03.32-.07.47-.05.14-.11.26-.21.37-.1.1-.21.18-.35.22-.12.04-.24.06-.36.06-.12,0-.24-.02-.36-.06-.14-.05-.25-.13-.35-.23-.1-.11-.17-.24-.21-.37-.05-.15-.07-.31-.07-.47,0-.15.02-.3.07-.45h0ZM11.16,8.97c.03.11.09.21.16.3.07.08.15.14.26.18.08.03.17.04.26.04s.18-.01.26-.04c.1-.04.19-.1.26-.18.07-.09.12-.19.15-.3.03-.12.05-.25.05-.38,0-.13-.02-.25-.06-.38-.03-.11-.09-.21-.16-.3-.07-.08-.16-.14-.26-.18-.09-.03-.17-.04-.26-.04-.2,0-.37.08-.51.23-.07.09-.13.19-.16.29-.04.12-.05.25-.05.38,0,.13.01.26.05.38h0ZM13.37,7.52v-.56h.25v.56h.44v.21h-.44v1.5c0,.07.01.14.06.19.02.02.05.04.08.05.04.01.08.02.13.02.06,0,.11-.01.17-.03v.21c-.1.03-.2.04-.3.04-.06,0-.12-.01-.17-.03-.05-.02-.09-.05-.12-.08-.07-.08-.1-.17-.09-.27v-1.6h-.34v-.21h.34ZM14.38,8.15c.05-.14.11-.26.2-.38.09-.11.21-.19.34-.25.11-.04.23-.06.35-.06.12,0,.23.02.34.06.13.05.24.12.34.22.09.1.15.22.2.35.04.14.07.28.07.42v.14h-1.64c0,.12,0,.24.04.36.03.1.09.19.16.27.07.08.16.13.26.17.08.03.16.04.25.04.14,0,.27-.03.4-.1.13-.07.22-.17.29-.31l.23.05c-.08.19-.21.33-.38.44-.17.1-.35.14-.54.14-.12,0-.24-.02-.36-.06-.13-.05-.25-.12-.34-.23-.09-.11-.16-.23-.2-.37-.05-.15-.07-.3-.06-.46,0-.15.02-.3.06-.44h0ZM15.96,8.45c0-.1-.02-.2-.05-.3-.03-.09-.09-.18-.15-.26-.13-.14-.29-.21-.48-.21-.19,0-.35.08-.48.22-.07.07-.12.16-.16.26-.03.1-.05.19-.06.3h1.38ZM16.93,7.52v.46c.1-.14.22-.26.37-.36.07-.05.15-.08.23-.12.05-.02.11-.03.17-.03v.22c-.06,0-.13.02-.18.04-.07.03-.15.06-.22.11-.14.1-.27.22-.37.36v1.44h-.25v-2.12h.25ZM19.26,7.56c.05-.18.14-.35.26-.5.12-.14.27-.25.45-.32.15-.05.31-.08.48-.08.12,0,.24.02.36.04.13.03.26.09.37.16.19.14.33.32.41.54l-.27.05c-.06-.16-.16-.29-.3-.39-.17-.11-.36-.17-.57-.16-.15,0-.3.03-.44.09-.13.06-.24.15-.33.27-.09.14-.16.29-.2.46-.03.15-.05.31-.04.46,0,.15.02.3.05.44.04.17.1.32.2.46.09.12.2.22.33.29.14.07.28.1.44.1.19,0,.37-.04.53-.13.08-.05.16-.12.22-.19.06-.09.12-.18.16-.28l.26.04c-.05.12-.11.24-.18.34-.07.1-.16.19-.26.26-.11.07-.24.13-.37.16-.11.02-.23.04-.35.04-.15,0-.31-.03-.45-.08-.18-.07-.33-.17-.45-.31-.13-.15-.22-.32-.28-.5-.06-.21-.09-.42-.09-.64,0-.21.02-.42.08-.62h0ZM22.33,6.74v1.1c.1-.12.23-.22.37-.29.11-.06.24-.09.36-.09.11,0,.22.02.32.06.09.04.17.09.24.16.07.08.11.17.14.27.02.09.03.17.04.26v1.43h-.26v-1.38c0-.06-.01-.13-.03-.2-.02-.07-.06-.14-.1-.2-.05-.06-.11-.1-.18-.13-.08-.03-.16-.05-.24-.05-.11,0-.22.03-.32.08-.13.06-.24.15-.34.26v1.62h-.26v-2.9h.26ZM24.35,8.89c.03-.06.07-.11.12-.16.06-.05.11-.09.18-.13.16-.09.32-.15.49-.19.21-.05.43-.1.64-.13v-.15c0-.13-.05-.24-.15-.33-.06-.05-.13-.08-.2-.1-.07-.02-.15-.03-.22-.03-.14,0-.27.03-.38.1-.11.08-.19.18-.24.31l-.24-.03c.06-.19.17-.34.34-.45.16-.1.34-.14.53-.14.1,0,.2.01.3.03.1.02.2.07.29.13.07.06.13.13.17.21.04.09.06.18.06.28v1.26s0,.05,0,.08c0,.02.02.04.04.05.03,0,.05.01.08,0,.04,0,.07,0,.11,0v.17c-.08.02-.15.04-.23.04-.06,0-.12-.02-.17-.06-.04-.03-.07-.08-.08-.13,0-.06-.01-.13-.01-.2-.12.12-.25.22-.4.29-.14.06-.29.1-.45.1-.09,0-.18-.02-.26-.04-.08-.02-.15-.06-.22-.11-.12-.1-.18-.22-.18-.38,0-.1.02-.2.07-.3h0ZM24.57,9.31s.06.08.1.11c.1.06.2.08.31.08.15,0,.29-.03.42-.1.14-.07.27-.17.38-.28,0-.21,0-.41,0-.62-.17.02-.34.06-.51.1-.14.03-.28.08-.41.14-.05.03-.1.06-.15.1-.04.03-.08.07-.11.12-.04.07-.06.14-.06.22,0,.05,0,.1.03.15h0ZM26.88,7.52v.46c.1-.14.22-.26.37-.36.07-.05.15-.08.23-.12.05-.02.11-.03.17-.03v.22c-.06,0-.13.02-.18.04-.07.03-.15.06-.22.11-.14.1-.27.22-.37.36v1.44h-.25v-2.12h.25ZM27.96,8.1c.05-.13.11-.25.2-.36.17-.18.38-.27.62-.28.14,0,.28.03.41.1.13.07.25.17.35.28v-.32h.26v1.87c0,.15-.02.31-.06.46-.04.13-.11.25-.2.36-.1.1-.22.17-.36.21-.13.03-.26.05-.39.06-.2,0-.38-.05-.55-.15-.14-.1-.25-.23-.31-.39l.23-.05c.05.11.13.2.24.27.12.07.26.1.4.1.11,0,.22-.02.33-.06.1-.04.18-.1.24-.18.07-.09.11-.19.14-.3.02-.1.03-.2.04-.3v-.07c-.11.11-.23.2-.38.27-.12.06-.25.09-.38.09-.25,0-.46-.09-.63-.27-.09-.11-.16-.23-.2-.36-.05-.15-.07-.31-.07-.48,0-.16.02-.32.07-.48h0ZM29.2,9.38c.13-.07.25-.16.35-.27v-1.03c-.1-.12-.21-.22-.34-.29-.11-.06-.24-.1-.37-.1-.2,0-.36.08-.49.23-.07.09-.12.19-.15.29-.03.12-.05.24-.05.36,0,.12.02.24.05.36.03.11.08.2.14.29.13.16.29.24.5.24.13,0,.25-.03.36-.09h0ZM30.62,6.74v.42h-.26v-.42h.26ZM30.62,7.52v2.12h-.26v-2.12h.26ZM31.43,7.52v.32c.1-.12.23-.22.37-.29.11-.06.24-.09.36-.09.09,0,.17.01.26.03.1.03.19.07.26.14.07.07.13.15.16.24.04.11.06.22.06.34v1.43h-.26v-1.38c0-.06-.01-.13-.03-.2-.02-.07-.06-.14-.1-.2-.05-.06-.11-.1-.18-.13-.08-.03-.16-.05-.24-.05-.11,0-.22.03-.32.08-.13.06-.24.15-.34.26v1.62h-.26v-2.12h.26ZM33.46,8.1c.05-.13.11-.25.2-.36.17-.18.38-.27.62-.28.14,0,.28.03.41.1.13.07.25.17.35.28v-.32h.26v1.87c0,.15-.02.31-.06.46-.04.13-.11.25-.2.36-.1.1-.22.17-.36.21-.13.03-.26.05-.39.06-.2,0-.38-.05-.55-.15-.14-.1-.25-.23-.31-.39l.23-.05c.05.11.13.2.24.27.12.07.26.1.4.1.11,0,.22-.02.33-.06.1-.04.18-.1.24-.18.07-.09.11-.19.14-.3.02-.1.03-.2.04-.3v-.07c-.11.11-.23.2-.38.27-.12.06-.25.09-.38.09-.25,0-.46-.09-.63-.27-.09-.11-.16-.23-.2-.36-.05-.15-.07-.31-.07-.48,0-.16.02-.32.07-.48h0ZM34.7,9.38c.13-.07.25-.16.35-.27v-1.03c-.1-.12-.21-.22-.34-.29-.11-.06-.24-.1-.37-.1-.2,0-.36.08-.49.23-.07.09-.12.19-.15.29-.03.12-.05.24-.05.36,0,.12.02.24.05.36.03.11.08.2.14.29.13.16.29.24.5.24.13,0,.25-.03.36-.09h0ZM38.22,6.74c.12,0,.24.02.36.04.13.03.24.08.34.16.09.07.15.17.2.27.04.11.06.23.06.36,0,.13-.03.26-.07.38-.05.11-.12.2-.21.28-.1.08-.21.13-.34.16-.11.03-.23.04-.35.04h-.78v1.22h-.26v-2.9h1.04ZM37.44,8.18h.73c.09,0,.18,0,.26-.02.1-.02.19-.06.27-.12.07-.05.12-.12.16-.2.03-.09.05-.18.06-.28,0-.09-.02-.18-.06-.26-.04-.08-.09-.14-.16-.19-.08-.05-.17-.09-.26-.11-.09-.02-.17-.03-.26-.03h-.74v1.21ZM39.61,8.14c.04-.14.11-.26.2-.38.1-.11.21-.19.35-.24.12-.04.24-.06.36-.06.12,0,.24.02.36.06.14.05.25.13.35.24.09.11.16.23.2.37.04.15.07.3.07.46,0,.16-.03.32-.07.47-.05.14-.11.26-.21.37-.1.1-.21.18-.35.22-.12.04-.24.06-.36.06-.12,0-.24-.02-.36-.06-.14-.05-.25-.13-.35-.23-.1-.11-.17-.24-.21-.37-.05-.15-.07-.31-.07-.47,0-.15.02-.3.07-.45h0ZM39.85,8.97c.03.11.09.21.16.3.07.08.15.14.26.18.08.03.17.04.26.04s.18-.01.26-.04c.1-.04.19-.1.26-.18.07-.09.12-.19.15-.3.03-.12.05-.25.05-.38,0-.13-.02-.25-.06-.38-.03-.11-.09-.21-.16-.3-.07-.08-.16-.14-.26-.18-.09-.03-.17-.04-.26-.04-.2,0-.37.08-.51.23-.07.09-.13.19-.16.29-.04.12-.05.25-.05.38,0,.13.01.26.05.38h0ZM42.22,7.52v.46c.1-.14.22-.26.37-.36.07-.05.15-.08.23-.12.05-.02.11-.03.17-.03v.22c-.06,0-.13.02-.18.04-.07.03-.15.06-.22.11-.14.1-.27.22-.37.36v1.44h-.25v-2.12h.25ZM43.4,7.52v-.56h.25v.56h.44v.21h-.44v1.5c0,.07.01.14.06.19.02.02.05.04.08.05.04.01.08.02.13.02.06,0,.11-.01.17-.03v.21c-.1.03-.2.04-.3.04-.06,0-.12-.01-.17-.03-.05-.02-.09-.05-.12-.08-.07-.08-.1-.17-.09-.27v-1.6h-.34v-.21h.34Z"/>
      <rect class="cls-1" x=".09" y=".09" width="143.26" height="88.89"/>
      <circle class="cls-4" cx="25.59" cy="47.73" r="25.21"/>
      <path class="cls-5" d="M49.1,56.75c.8-.85,16.75-3.92,16.75-3.92l-15.04-6.12s.26.51-.31,4.09c-.52,3.32-1.59,6.15-1.41,5.96Z"/>
      <line class="cls-2" x1="26.13" y1="22.49" x2="26.13" y2="10.89"/>
      <g class="cls-6">
        <g>
          <g>
            <path class="cls-4" d="M3.94-14.35c-.91-.49-2.64-1.25-3.66-1.74-.3-.14-.6-.3-.93-.3-.52,0-1.11.44-1.67.66-.92.43-1.95.78-2.82,1.29-.5.33-1,.71-1.4,1.14-.59.71-1.15,1.61-1.69,2.36-.7,1.04-.9,1.53-1.59,2.68-2.9,5.12-6.07,10.44-7.81,13.62-.67,1.81.93,1.84,2.3,1.84,1.18.02,2.56.04,3.78.07,2.11.04,3.98.04,6.09.15.79.02.77-.34.53-.94-.06-.16-.06-.23,0-.35C-4.41,4.91-1.32-2.11,1.08-7.58c.99-2.24,2.15-4.9,2.89-6.56.03-.08.06-.15-.02-.21h0Z"/>
            <path class="cls-4" d="M-2.85.89C-2.25-.61-.38-5.2.16-6.51c.58-1.49,2.23-5.15,2.59-6.28.03-.19-.02-.47-.12-.67-.11-.23-.34-.31-.68-.46-.33-.14-.76-.33-1.12-.49-.64-.27-1.03-.48-1.51-.64-.46-.13-.96.07-1.41.26-.87.41-2.05.8-2.87,1.35-.65.45-1.29.94-1.78,1.57-.45.58-1.04,1.32-1.48,1.93-1.84,3.13-4.46,7.57-6.13,10.48-.53.95-1.23,2-1.64,2.95-.2.49-.16,1.06.22,1.43.44.36,1.15.34,1.66.44,1,.16,2.85.43,3.54.54.32.05.53.06.89.07.82.01,1.75.12,2.53.08.24-.03.39-.24.45-.46.16-.52.46-1.53.6-1.99C-5.58,2.07-1.02-8.22.78-12.48c.04-.13.04-.24-.08-.35-.26-.24-.69-.38-1.02-.52-.85-.33-1.5-.75-2.22-1.25"/>
            <path class="cls-4" d="M4.13-14.49C1.39-8.01-1.7-.71-4.42,5.79c-.32.97.17,1.82-.24,2.8-.11.3-.24.58-.38.89-.79,1.77-1.36,3.11-2.13,4.94-1.16,2.76-2.36,5.53-2.96,6.98-.8,1.93-1.29,4.04-1.04,6.15.33,3.11,1.71,10.74,2.45,15.57.19,1.1.35,2.43.51,3.6.46,3.37,2,11.78,3.01,17.8.41,2.26.49,3.14.82,5.14.2.98.33,2.08.87,2.96.52.81,1.28,1.48,2.08,1.98.98.61,2.32.64,3.45.78"/>
            <path class="cls-4" d="M-29.37,73.61c.88,1.3,1.95,2.93,2.83,4.18.67.93,1.25,1.72,1.83,2.74.71,1.16,1.41,2.53,2.2,3.67.41.61.9,1.23,1.24,1.89.3.62.48,1.38.63,2.01.18.67.14,1.23.15,1.95.08,5.27-.17,9.96-.42,15.79.01.37-.11.9.17.95.59.12,1.39-.02,2.02-.03,1.25-.08,2.26-.09,3.4-.44.61-.19,1.19-.56,1.76-.88.79-.46,1.36-.79,2.23-1.13,2.07-.84,4.12-1.76,6.22-2.47,5.62-1.97,11.4-3.73,17.15-5.35,7.15-1.91,14.19-3.71,21.41-5.57,2.65-.62,6.23-1.33,9.07-2.01,5.65-1.34,11.82-2.88,17.58-3.98,1.35-.23,3.1-.27,4.39-.91.64-.3.99-.91,1.33-1.5.72-1.31,1.43-2.59,2.18-3.88.51-.88,1.4-2.38,1.91-3.25.23-.39.55-.91.17-1.29-.24-.25-.71-.53-1.05-.71-.3-.17-.56-.35-.88-.32-2.66.26-14.83,1.4-19.57,1.85-6.81.76-34.64,3.89-45.33,4.98-1.18.11-3.13.04-4.36.06"/>
            <path class="cls-4" d="M1.59-8.48c0,.46-.01.92.08,1.38.06.34.23.85.22,1.15C1.5-4.82-1.86,3.18-2.28,4.28c-.1.18-.23.18-.49.31-.7.28-1.35.65-1.69,1.36"/>
            <path class="cls-4" d="M1.89-5.82c.33.35.86.66.64,1.12C1.94-3.26-.4,2.41-1.03,3.86c-.23.31-.69.22-1.09.24"/>
            <path class="cls-4" d="M61.38,38.44c-.62-1.71-1.51-3.51-1.95-5.29-.33-1.5-.75-2.87-.92-4.41-.11-.77-.21-1.61-.31-2.38-.14-.91-.18-1.68,0-2.57.28-1.68.7-3.52,1.17-5.11.33-1.06.82-2.19,1.21-3.25.37-1.04.8-1.83,1.34-2.79.46-.8.88-1.63,1.38-2.39.69-1,1.6-2.2,2.47-3.06,1.04-1,2.45-1.54,3.87-1.71,1.78-.23,3.77.04,5.5.28,1.91.24,3.92.47,5.84.7,5.77.54,11.69.9,17.35,1.11,1.65.03,3.87.11,5.51.13,1.95-.02,4.95-.08,6.84-.11,2.26-.05,4.65-.08,6.89-.25,2.11-.14,4.13-.32,5.97-1.29,1.48-.78,3.13-1.69,4.57-2.63.92-.6,1.88-1.24,2.79-1.83,1.87-1.2,3.82-2.65,6.07-3.03,2.05-.32,4.08-.38,6.18-.51,6.24-.3,14.6-.79,20.18-1.13,3.94-.22,8.26-.49,12.18-.67,4.25-.23,6.37-.5,6.29,4.68"/>
            <path class="cls-4" d="M61.4,38.65c2.33-.45,4.76-.91,7.03-1.63,1.18-.44,2.14-.95,3.27-1.54,1.48-.78,2.96-1.67,4.41-2.46,3.59-1.92,7.25-3.88,10.91-5.62,2.86-1.33,6.01-2.58,8.9-3.84,2.65-1.11,5.35-2,8.08-2.87.69-.23,1.04-.32,1.71-.49,1.32-.32,2.66-.7,3.98-.95,4.42-.88,9.27-1.87,13.81-2.75,3.6-.64,7.28-1.32,10.89-2.02,2.01-.37,3.42-.7,4.99-.93.97-.13,2.28-.28,3.13-.42"/>
            <path class="cls-4" d="M69.72,36.47c-.03.63.06,1.33-.08,1.96-.2.71-.56,1.27.17,1.85,1.46,1.21,3.95,2.68,6.21,4.22,1.52.99,4.47,3,6.11,4.1,1.11.85,2.8,2.13,4.02,3.06,2.09,1.61,4.55,3.58,6.57,5.31,1.26,1.04,2.79,2.25,3.91,3.19.77.62,1.6,1.37,2.32,1.94.2.16.5.41.77.64.43.34.76.67,1.2.78,6.02-.27,14.59-.67,19.44-.83,1-.07,2.13.03,3.07-.28.67-.29,1.51-.61,2.08-.99,2.18-1.37,6.08-3.81,8.53-5.34,1.12-.74,4.16-2.83,5.71-3.87,5.26-3.44,12.56-8,19.58-12.25,2.56-1.54,6.94-4.27,10.5-6.36.8-.47,1.59-.9,2.28-1.32.71-.45,1.44-1,2.19-1.53"/>
            <path class="cls-4" d="M69.42,39.15c3.59-2.18,7.21-4.42,10.97-6.31,1.52-.79,3.19-1.66,4.73-2.46,3.29-1.65,6.72-3.24,10.06-4.67,1.97-.87,4.19-1.66,6.23-2.4,1.12-.42,1.95-.64,3.05-.96,1.1-.32,2.02-.6,3.13-.85,3.77-.89,7.85-1.73,11.6-2.48,1.96-.36,3.99-.71,5.93-1.07,3.62-.68,7.86-1.48,11.65-2.15,1.9-.33,3.82-.69,5.76-.85"/>
            <path class="cls-4" d="M88.43,53.45c1.62-2.28,3.3-4.67,4.92-6.93,1.52-2.06,3.26-4.18,4.88-6.26.97-1.23,1.89-2.37,2.92-3.53,1.41-1.62,3-3.36,4.78-4.65,1.65-1.28,3.76-2.22,5.77-2.97,2.96-1.25,6.36-1.93,9.52-2.76,8.61-2.04,30.07-6.93,42.83-9.75,5.32-1.1,10.98-2.28,16.33-3.36,3.09-.65,6.18-1.16,9.14-2.01"/>
            <path class="cls-4" d="M69.74,39.15c9.57-2.61,19.51-5.32,29.13-7.6,4.2-.92,8.74-1.75,13-2.52"/>
            <path class="cls-4" d="M195.31-11.02l-2.12,10.78v.12h.69l.12,4.34c-9.23,1.66-21.76,3.52-33.67,5.48-1.87.28-3.74.65-5.63,1.01-3.58.72-8.3,1.19-12.31,1.99-.62.1-1.1.16-1.74.2-.6.03-1.21-.08-1.47-.61-.51-.83,1.06-2.23,1.64-2.85.7-.71,1.38-1.42,2.08-2.11.68-.66,1.65-1.24,2.51-1.58.48-.21.67-.21,1.16-.27,4.35-.58,11.07-1.47,15.67-2.08,6.73-.85,14.57-1.45,19.86-2.42,1.25-.21,2.33-.58,3.56-.88.37-.1.72-.19,1.04-.27.63-.19,1.17-.2,1.54-.65.91-1.69,3.12-7.25,4.4-10.1"/>
            <path class="cls-4" d="M142.56,12.74c.4.03.99-.01,1.32.13.17.09.19.26.19.45,0,.33-.11.73-.22,1.03-.22.48-.49.96-.36,1.53.2,1.12,1.89.02,2.55.56.1.08.16.14.3.15,1.12-.1,3.24-.37,4.12-.46.09-.01.17-.03.24-.07.15-.09.19-.27.3-.4.25-.28.61-.19,1.04-.26.39-.03.85-.08,1.22-.11.39-.03.83-.05,1.02-.38.25-.39.28-.84.43-1.29.39-.92.46-2.01.64-2.99"/>
            <path class="cls-4" d="M142.49,12.88c.31,4.17-.76,4.58,3.98,3.72"/>
            <path class="cls-4" d="M143.32,12.45c-.45.02-1.24.07-1.75.09-.79.07-1.36.05-1.52-.71-.08-.45.14-.92.45-1.23.34-.34,1.4-1.38,2.07-2.04.67-.7,1.26-1.12,2.07-1.79.3-.25.42-.34.7-.47.19-.09.6-.25.76-.31,5.27-.62,40.49-4.88,45.11-5.36.19-.02.27-.05.51-.13.52-.17,1.49-.46,2.01-.63"/>
            <path class="cls-4" d="M63.05,38.33c.04.64.16,2.04.16,2.04l2.3.23,2.22-.08.12-3.32"/>
            <path class="cls-4" d="M67.61,40.72c-.64.62-1.4,1.16-2,1.83-.25.29-.51.71-.77,1.17-.2.35-.48.76-.55,1.12-.06.24.05.58.17.86.19.47.48,1.16.68,1.62,1.04,2.45,1.59,5.01,2.2,7.57.14.57.33,1.15.47,1.72.2.87.23,1.79.19,2.68-.3,1.87-1.31,3.6-2.36,5.17-.74,1.16-1.39,2.28-2.08,3.43-.44.69-.78,1.48-1.45,1.94-.44.26-1,.31-1.5.38-1.03.13-2.19.19-3.25.27"/>
            <polyline class="cls-4" points="2.11 75.39 -1.04 76.26 -1.16 79.96"/>
            <polyline class="cls-4" points="2.23 75.39 26.36 73.32 46.4 71.61 57.27 70.5"/>
            <path class="cls-4" d="M-.91,77.14c2.06.13,3.32,0,5.51-.14,1.08-.07,2.22-.13,3.21-.21,10.88-1.11,27.74-2.77,43.37-4.33,1.2-.15,2.82-.39,4.74-.65,3.76-.54,10.25-1.15,15.53-1.73,4.74-.37,11.19-.88,16.79-1.41.97-.09,1.44-.12,2.43-.25.57-.07,1.34-.14,1.74-.45.51-.41.77-1.06,1-1.67"/>
            <polyline class="cls-4" points="69.15 73.04 91.8 70.94 100.54 69.91 113.57 68.1 120.42 67.25 121.54 67.38 121.41 65.42 121.09 64.14 121.33 62.66"/>
            <polyline class="cls-4" points="93.55 66.38 97.73 66.09 98.84 67.27 103.84 66.85 115.74 65.28 120.13 64.8 121.12 65.26 121.39 65.36"/>
            <path class="cls-4" d="M64.91,65.8c.14,0,8.51-.74,8.51-.74l10.97-1.19,14.87-1.49"/>
            <line class="cls-4" x1="80.56" y1="47.87" x2="65.72" y2="69.75"/>
            <path class="cls-4" d="M62.03,69.86c.94-.03,6.48-.14,7.52-.2,2.47-.16,8.79-.56,9.39-.6,2.08-.2,7.28-.73,8.27-.83.68-.15.65-1.18.93-1.66.07-.1.17-.09.34-.1,1.08-.02,3.94-.06,4.73-.07"/>
            <path class="cls-4" d="M-17.11,106.44c2.09-2.94,4.16-5.91,6.44-8.76,1.57-1.96,3.24-3.8,4.98-5.65,2.24-2.35,4.53-4.72,7.21-6.57,1.74-1.2,3.72-2.17,5.67-3.06,2.62-1.23,5.2-2.48,7.82-3.75"/>
            <path class="cls-4" d="M-17.16,106.58c2.05-1.14,4.13-2.21,6.25-3.23,1.74-.83,4.1-1.67,5.8-2.37,2.27-.83,6.43-2.21,8.24-2.85,3.82-1.16,9.14-2.87,12.13-3.65,6.09-1.48,18.05-4.5,22.77-5.69,3.93-.93,8.34-1.89,12.36-2.74,3.68-.91,7.96-1.92,11.53-2.71,1.64-.29,2.37-1.83,3.17-3.15.93-1.54,2.4-4.02,3.09-5.16.34-.74,1.14-.69,1.89-.78"/>
            <path class="cls-4" d="M69.82,73.78c3.6-.28,13.34-1.04,15.12-1.18.31-.03.6.05.81.36.32.52-.08,1.04-.32,1.5-.47.87-1.73,3.23-2.38,4.44-.74,1.37-1.59,3.02-2.35,4.35-.41.7-.74,1.31-1.4,1.86-.49.43-1.01.95-1.59,1.23-1.54.77-4.27.18-6.23.06-1.94-.13-3.57-.49-5.64-.84-1.3-.2-2.53-.58-3.8-.89"/>
            <path class="cls-4" d="M82.69,72.78c1.11.29.62.66.22,1.38"/>
            <path class="cls-4" d="M72.19,74.76c2.2-.17,10.72-.54,12.12-.6.31.03.63.16.37.56-.15.22-.49.72-.62.93-.06.09-.12.15-.22.19-.35.14-1.32.57-1.7.71-.55,0-8.41-.22-10.15-.26-.15,0-.26,0-.3,0-.01,0-.02-.02-.02-.03-.05-.26.06-.47.19-.76.09-.22.24-.54.33-.72h0Z"/>
            <line class="cls-4" x1="83.98" y1="75.63" x2="71.67" y2="76.02"/>
            <path class="cls-4" d="M70.3,78.39c2.2-.17,10.72-.54,12.12-.6.31.03.63.16.37.56-.15.22-.49.72-.62.93-.06.09-.12.15-.22.19-.35.14-1.32.57-1.7.71-.55,0-8.41-.22-10.15-.26-.15,0-.26,0-.3,0-.01,0-.02-.02-.02-.03-.05-.26.06-.47.19-.76.09-.22.24-.54.33-.72h0Z"/>
            <line class="cls-4" x1="82.08" y1="79.25" x2="69.77" y2="79.64"/>
            <path class="cls-4" d="M68.4,82.01c2.2-.17,10.72-.54,12.12-.6.31.03.63.16.37.56-.15.22-.49.72-.62.93-.06.09-.12.15-.22.19-.35.14-1.32.57-1.7.71-.55,0-8.41-.22-10.15-.26-.15,0-.26,0-.3,0-.01,0-.02-.02-.02-.03-.05-.26.06-.47.19-.76.09-.22.24-.54.33-.72h0Z"/>
            <line class="cls-4" x1="80.18" y1="82.88" x2="67.87" y2="83.27"/>
            <path class="cls-4" d="M81.71,76.55c.28.62-.08.95-.55,1.29"/>
            <path class="cls-4" d="M80.08,80.12c.28.62-.08.95-.55,1.29"/>
            <path class="cls-4" d="M64.83,83.8c2.23.41,4.37.8,6.58,1.11,1.76.22,3.65.61,5.31.06.64-.23,1.09-.69,1.62-1.17"/>
            <path class="cls-4" d="M-14.95,106.17c.06.1.13.19.33.22.07,0,.15,0,.24,0,3.36-.28,15.07-1.29,17.83-1.51,7.49-.59,17.61-1.23,25.25-1.98.83-.07,1.75-.02,2.59-.23.95-.27,1.63-.89,2.63-1.19.6-.19,1.24-.3,1.83-.41,1.49-.27,3.4-.48,4.81-.83,3.77-1.01,7.63-2.45,11.31-3.79,1.37-.47,2.72-1.12,4.09-1.56.86-.2,1.55-.2,2.51-.32,1.32-.13,2.7-.28,4.02-.41,1.16-.11,1.76-.2,2.78-.39.85-.13,1.74-.32,2.61-.21,1.02.1,1.94.78,2.43,1.66.51.96.54,2.11.33,3.16-.06.38-.28.84-.27,1.14.02.13.17.14.46.13,9.23-.72,20.36-1.41,29.16-2.1,1.13-.11,2.33-.24,3.24-.97.68-.52,1.17-1.08,1.6-1.84,2.76-4.51,9.31-15.02,11.06-17.99,1.72-2.84,3.8-6.67,5.51-9.11"/>
            <path class="cls-4" d="M-13.42,106.31c1.39-.66,2.72-1.21,4.2-1.73,1.67-.58,3.05-1.08,4.71-1.45,3.54-.81,8.43-1.95,12.19-2.78,2.35-.5,4.84-1.11,7.17-1.49,3.45-.56,6.87-1.1,10.32-1.67,2.48-.4,5.09-.92,7.54-1.36,4.76-.8,10.2-1.71,15.08-2.49,6.66-1.01,13.22-1.97,20.01-2.96,3.21-.5,6.61-.8,9.83-1.64,1.73-.4,3.44-1.19,4.6-2.55,1.11-1.3,2.13-2.93,3.12-4.36,2.36-3.53,4.63-7.22,6.73-10.93"/>
            <path class="cls-4" d="M112.8,81.78c2.19-.45,4.82-.99,7.05-1.46.8-.16,1.72-.39,2.52-.53.57-.08,1.19-.1,1.78-.14,1.2-.12,2.42.03,3.63.1,1.13.07,2.62.11,3.76.15.51.01.81.03,1.26.15.96.24,3.81.96,5.25,1.33,1.56.38,3.22.92,4.81,1.37.69.21,1.47.35,2.11-.09.64-.39.97-2.06,1.8-1.96,2.07.3,8.53,1.32,11.25,1.72.42.06.87.21,1.18.52.27.31.34.62.55,1.16.42,1.06.85,2.42,1.34,3.46.48.84,1.56,1.16,2.39,1.57,1.02.45,2.27.74,3.3,1.1.95.31,1.86.94,2.22,1.89.17.56-.13,1.44-.26,2.07-.43,2.29-1.85,6.31-2.45,8.52-.21.76-.66,1.49-1.4,1.9-.82.46-1.74.76-2.69.84-.81.09-1.45.1-2.24-.04-.79-.12-2.09-.31-2.73-.41-2.21-.3-8.85-1.26-12.88-1.81-6.31-.9-13.45-2.08-20.03-3.03-1.62-.22-3.52-.42-5.15-.7-1.21-.2-2.27-.33-3.4-.67-1.01-.32-2.21-.89-3.22-1.33-1.06-.51-2.95-1.32-4.09-1.89-.98-.51-2.15-1.13-3.15-1.66"/>
            <polyline class="cls-4" points="168.86 92.26 165.44 91.33 153.73 87.88 137.64 83.13 135.87 82.87 118.31 85.88 114.83 92.85 114.46 93.99 114.91 95.08 165.5 104.2 161.84 104.37 156.49 103.73 143.11 101.82 125.53 99.27 114.55 97.84 108.44 95.54"/>
            <path class="cls-4" d="M119.4,92.99c-.07-.17,0-.38.07-.56.3-.71.93-2.16,1.21-2.81.17-.36.16-.49.46-.58,2.31-.65,10.26-3.06,13.85-4.04.71-.18,1.56-.49,2.22-.53.43-.01,1.07-.04,1.44.02,1.78.51,22.02,6.01,24.45,6.74.18.18.32.55.25.89-.07.25-.13.46-.21.74-.72,2.3-1.7,6.2-2.47,8.37-.17.31-.57.71-.94.64-1.19-.23-31.31-6.81-40-8.68-.12-.03-.25-.05-.33-.2h0Z"/>
            <path class="cls-4" d="M139.87,54.05l-2.18,1.35-1.31.74-.26.18-1.71,1.21-1.77,1.43-.67.74-2.34,3.79-6.43,11.24s-2.07,3.49-2.09,3.56-1.01,1.88-1.01,1.88"/>
            <polyline class="cls-4" points="132.25 59.42 136.12 59.33 136.12 56.42"/>
            <polyline class="cls-4" points="137.55 53.71 163.05 55.18 163.05 55.18"/>
            <path class="cls-4" d="M142.54,82.54c1.34-1.1,2.83-2.03,4.42-2.77"/>
            <path class="cls-4" d="M156.62,77.83c11.21.43,20.17,9.65,20.17,20.97s-9.4,20.99-20.99,20.99c-10.6,0-19.36-7.86-20.78-18.06"/>
            <path class="cls-4" d="M157.24,81.87c8.71.73,15.56,8.03,15.56,16.93,0,9.38-7.61,16.99-16.99,16.99-8.16,0-14.98-5.75-16.62-13.43"/>
            <path class="cls-4" d="M140.39,82.03c1.79-1.65,3.84-3.01,6.09-4.02"/>
            <path class="cls-4" d="M156.3,76.03c12.35.26,22.28,10.36,22.28,22.77s-10.2,22.78-22.78,22.78c-11.67,0-21.29-8.78-22.62-20.09"/>
            <path class="cls-4" d="M139.1,81.56c1.99-1.93,4.32-3.52,6.89-4.67"/>
            <path class="cls-4" d="M156.18,74.8c13.09.2,23.63,10.87,23.63,24.01s-10.75,24.01-24.01,24.01c-12.43,0-22.66-9.45-23.89-21.55"/>
            <path class="cls-4" d="M130.88,79.83c3.69-4.84,8.76-8.58,14.63-10.62"/>
            <path class="cls-4" d="M153.19,67.59c.86-.07,1.73-.11,2.61-.11,17.3,0,31.32,14.02,31.32,31.32s-14.02,31.32-31.32,31.32-30.55-13.27-31.29-29.91"/>
            <path class="cls-4" d="M126.98,79.76c4.01-6.05,9.87-10.77,16.78-13.34"/>
            <path class="cls-4" d="M153.24,64.35c.85-.06,1.7-.09,2.56-.09,19.08,0,34.54,15.47,34.54,34.54s-15.47,34.54-34.54,34.54-33.97-14.9-34.53-33.5"/>
            <path class="cls-4" d="M141.07,54.12c-.32.12-.68.24-.82.55-.09.21-.04.47.13.62.17.15.52.19.82.22.65.05,1.27-.06,1.9-.15"/>
            <path class="cls-4" d="M141.61,56.36c-.32.12-.68.24-.82.55-.09.21-.04.47.13.62.17.15.52.19.82.22.65.05,1.27-.06,1.9-.15"/>
            <path class="cls-4" d="M144.26,59.88c-.62.09-1.25.2-1.9.15-.29-.02-.64-.06-.82-.22-.18-.15-.23-.41-.13-.62.15-.32.5-.43.82-.55l1.44-.5"/>
            <line class="cls-4" x1="143.29" y1="56.59" x2="143.7" y2="58.07"/>
            <line class="cls-4" x1="142.87" y1="55.07" x2="143.09" y2="55.87"/>
            <path class="cls-4" d="M141.57,56.38c2.04-.68,4.08-1.38,6.12-2.08"/>
            <path class="cls-4" d="M143.09,57.54c-2.58-.16.67-1.08,1.29-1.3,1.01-.34,2.21-.79,3.18-1.09.62-.19,1.24-.43,1.79-.76"/>
            <path class="cls-4" d="M148.32,55.52c.74-.09,2.27-.29,2.6.38.11.54-.64.89-1.08,1.09-1.33.53-2.71.86-4.04,1.38-1.15.45-1.89.72-3.18,1.35"/>
            <path class="cls-4" d="M151.58,62.1c0,.15.02.26-.15.39-.26.18-.65.31-.96.43-.69.26-1.29.48-1.99.71-1.43.48-2.85.95-4.26,1.46-.26.11-.52.21-.72.4-.38.38-.08.83.42.95.52.14,1.06.06,1.59,0l.52-.03"/>
            <path class="cls-4" d="M150.93,59.91c0,.15.02.26-.15.39-.26.18-.65.31-.96.43-.69.26-1.29.48-1.99.71-1.43.48-2.85.95-4.26,1.46-.26.11-.52.21-.72.4-.38.38-.08.83.42.95.52.14,1.06.06,1.59,0l.52-.03"/>
            <path class="cls-4" d="M150.28,57.68c0,.15.02.26-.15.39-.26.18-.65.31-.96.43-.69.26-1.29.48-1.99.71-1.43.48-2.85.95-4.26,1.46-.26.11-.52.21-.72.4-.38.38-.08.83.42.95.52.14,1.06.06,1.59,0l.52-.03"/>
            <path class="cls-4" d="M143.38,62.02c.07-.6.69-.79,1.21-.95.56-.18,1.1-.35,1.61-.51,1.43-.41,2.96-.99,4.3-1.47.37-.15.79-.33,1-.69.16-.27.07-.56-.21-.66-.63-.23-1.61-.01-2.32.1"/>
          </g>
          <g>
            <path class="cls-4" d="M66.2,50.65c-.47,0-.62.26-.55.67.09.49.26,1.1.41,1.64.16.53.23,1.1.44,1.65.15.37.47.48.86.54"/>
            <path class="cls-4" d="M58.98,48.75c-.09-.28-.15-.75-.07-1.09.06-.18.21-.28.36-.39.2-.14.42-.31.64-.38.63-.03,1.74.19,2.67.27.36.05.65.04.96.2.32.19.88.35,1.1.71.25.5.35,1.05.27,1.62-.01.14-.06.34-.16.39-.14.09-.34-.02-.56-.07-.18-.04-.34-.07-.53-.1-.69-.13-1.39-.24-1.93-.35-.58-.14-1.8-.46-2.46-.63-.11-.03-.23-.06-.28-.16h0Z"/>
            <path class="cls-4" d="M65.93,49.86c-.18-.13-.42-.37-.6-.54-.09-.09-.24-.26-.33-.19-.17.14.03.61.14.76.06.07.16.1.28.13.35.04.48.34.64.62"/>
          </g>
        </g>
      </g>
      <g>
        <path class="cls-4" d="M24.07,44.78c-.69-.02-1.37-.09-2.02.15-1.33.39-2.69,1.02-3.16,2.41-.12.31-.13.66-.15,1-.02.49,0,.88.12,1.35.26,1.33.61,3.06.87,4.36.13.61.16.96.36,1.52.33.95.97,1.88,1.72,2.57.43.41.93.6,1.51.74.65.19,1.24.18,1.9.17"/>
        <path class="cls-4" d="M36.3,44.74c.43,0,1.04-.01,1.53,0,.73,0,1.3.04,1.94.31,1.02.43,1.73,1.16,2.24,2.14.43.73.69,1.55.86,2.37.25,1.1.48,2.2.71,3.29.1.47.21.97.26,1.44.05.47.05.9.03,1.37-.02.84-.43,1.65-1.07,2.19-.26.21-.56.37-.87.51-.44.2-.87.37-1.32.5-.87.26-1.86.17-2.76.15"/>
        <path class="cls-4" d="M37.58,59.03h-12.38c-.56,0-1.05-.4-1.16-.96l-2.15-11.28c-.11-.55.32-1.06.88-1.06h11.88c.86,0,1.59.61,1.75,1.45l2.06,10.79c.11.55-.32,1.06-.88,1.06Z"/>
        <path class="cls-4" d="M36.33,57.69h-10.63c-.36,0-.67-.24-.74-.56l-1.85-8.91c-.09-.43.27-.82.74-.82h10.01c.72,0,1.34.47,1.48,1.12l1.73,8.35c.09.43-.27.82-.74.82Z"/>
        <path class="cls-4" d="M22.54,45.72h10.74c1.34,0,2.49.96,2.73,2.27l1.93,10.53c.05.26-.15.5-.41.5h-12.43"/>
        <path class="cls-4" d="M20.36,45.72h16.3c1.78,0,3.33,1.2,3.76,2.93l1.74,6.81c.46,1.81-.91,3.57-2.77,3.57h-15.12l-.53-.05"/>
        <polygon class="cls-4" points="23.94 48.39 25.68 56.52 36.1 56.52 35.22 52.59 29.9 52.66 29.01 48.39 23.94 48.39"/>
        <line class="cls-4" x1="23.94" y1="48.39" x2="25.86" y2="47.39"/>
        <line class="cls-4" x1="29.01" y1="48.39" x2="30.93" y2="47.39"/>
        <line class="cls-4" x1="29.93" y1="52.65" x2="35.72" y2="50.33"/>
        <line class="cls-4" x1="35.23" y1="52.6" x2="36.11" y2="52.24"/>
        <line class="cls-4" x1="36.05" y1="56.52" x2="36.93" y2="56.17"/>
        <path class="cls-4" d="M25.14,49.38s.33,1.91.33,1.91l2.64.02-.35-1.91-2.63-.02Z"/>
        <path class="cls-4" d="M26.47,49.38s.29,1.33.29,1.33h1.26"/>
        <line class="cls-4" x1="25.48" y1="51.28" x2="26.76" y2="50.71"/>
        <g>
          <path class="cls-4" d="M21.98,51.83c-.14-.35-.21-.71-.21-1.04-.45-.42-1-.6-1.46-.41-.75.3-1,1.42-.57,2.51.43,1.08,1.39,1.72,2.14,1.42.5-.2.78-.78.78-1.47-.27-.26-.51-.6-.68-1.01Z"/>
          <path class="cls-4" d="M21.77,50.79c.27.26.51.6.68,1.01.14.35.21.71.21,1.04"/>
          <path class="cls-4" d="M21.77,50.79c0,.33.07.69.21,1.04.16.41.4.75.68,1.01,0-.33-.07-.69-.21-1.04-.16-.41-.4-.75-.68-1.01Z"/>
        </g>
        <g>
          <path class="cls-4" d="M40.65,51.79c-.14-.35-.21-.71-.21-1.04-.45-.42-1-.6-1.46-.41-.75.3-1,1.42-.57,2.51.43,1.08,1.39,1.72,2.14,1.42.5-.2.78-.78.78-1.47-.27-.26-.51-.6-.68-1.01Z"/>
          <path class="cls-4" d="M40.44,50.75c.27.26.51.6.68,1.01.14.35.21.71.21,1.04"/>
          <path class="cls-4" d="M40.44,50.75c0,.33.07.69.21,1.04.16.41.4.75.68,1.01,0-.33-.07-.69-.21-1.04-.16-.41-.4-.75-.68-1.01Z"/>
        </g>
        <ellipse class="cls-4" cx="26.68" cy="54.7" rx=".77" ry="1" transform="translate(-18.44 13.86) rotate(-21.85)"/>
        <ellipse class="cls-4" cx="29.21" cy="54.63" rx=".77" ry="1" transform="translate(-18.23 14.79) rotate(-21.85)"/>
        <ellipse class="cls-4" cx="31.75" cy="54.63" rx=".77" ry="1" transform="translate(-18.05 15.74) rotate(-21.85)"/>
        <ellipse class="cls-4" cx="34.24" cy="54.63" rx=".77" ry="1" transform="translate(-17.87 16.66) rotate(-21.85)"/>
        <path class="cls-4" d="M21.87,42.08c.08.52.38,1.08.87,1.32.35.12.78.06,1.14.07l.32,1.7h10.94l1.15-.38-.31-1.2"/>
        <path class="cls-4" d="M31.53,42.15c.08.54.38,1.11.87,1.36,0,0,.01,0,.02,0"/>
        <path class="cls-4" d="M22.86,42.25c.12.47.42.97.86,1.2"/>
        <path class="cls-4" d="M23.14,42.25c.12.47.42.97.86,1.2"/>
        <path class="cls-4" d="M31.73,42.04c.08.48.3,1.2.97,1.48"/>
        <polyline class="cls-4" points="24.85 43.45 25.02 44.13 33.8 44.13 33.8 43.66"/>
        <polyline class="cls-4" points="23.94 43.45 34.8 43.55 35.99 43.55"/>
        <path class="cls-4" d="M14.51,43.38c1.23.05,2.6.15,3.81.13.17,0,.36,0,.52,0,.34,0,.6.02.81-.24.16-.19.19-.45.25-.68.13-.47.4-.75.9-.72,2.52,0,6.7,0,10.15,0,.04,0,.07.03.09.06l.03.23"/>
        <polyline class="cls-4" points="22.58 41.88 22.58 42.12 31.02 42.15 31.55 42.15"/>
        <line class="cls-4" x1="31.07" y1="42.03" x2="31.74" y2="42.03"/>
        <path class="cls-4" d="M36.01,43.55c.39-.06.87-.06.97-.5.11-.83.11-2.2.18-3.06.04-.51.02-.82-.43-1.14-.86-.59-1.71-1.06-2.6-1.55-.62-.36-1.26-.58-1.92-.85-.67-.27-1.37-.42-2.08-.62-.9-.25-1.94-.36-2.86-.53-1.04-.16-2.37-.18-3.34-.26-.49-.04-.84-.04-1.31-.05-1.37-.02-2.99-.07-4.19-.07-2.32.04-5.5.08-7.5.11-.57,0-1.1,0-1.69.16-.68.16-1.23.38-1.9.66-.65.26-1.44.59-2.05.84l-.13.07c-.11.53-.78,3.52-.86,4.04.1.24.54.42.8.53,1.55.46,3.35.87,5.25,1.32.63.12,1.61.33,2.31.45.64.08,1.57.25,2.27.32,1.32.09,2.68.24,4.06.25.22,0,.38,0,.62-.02.23-.02.46-.02.65-.12l.06-.03s.18-.02.26-.45.03-.96.5-.98,1.49-.02,1.49-.02"/>
        <path class="cls-4" d="M5.32,36.71c1.19,0,2.59,0,3.97,0,.12,0,.24-.1.33-.12.42,0,6.76,0,9.57,0,.83,0,1.16,0,1.4,0,2.01.1,4.4.21,6.53.34.82.02,1.95.29,3.1.47.49.08.88.17,1.39.29.78.18,2.09.47,2.91.65.4.12,1.5.49,1.92.62.23.08.44.23.65.35"/>
        <path class="cls-4" d="M4.3,40.83c.1-.36,1.19-.22,1.81-.22.48,0,.86.02,1.3-.14.55-.22.91-.71,1.28-1.15.11-.14.22-.28.3-.44.14-.3.11-.56.15-.93.03-.37.04-.91.07-1.25"/>
        <path class="cls-4" d="M10.65,42.69c-1.18-.36-2.33-.63-3.53-.94-.26-.07-.52-.14-.78-.21-.33-.08-.94-.17-.95-.48,0-.06.07-.15.16-.18.28-.11.62-.09.92-.11.18,0,.35,0,.54,0,.48.01,1,.04,1.39-.27.52-.41.88-.98,1.41-1.37.18-.12.26-.2.42-.22.84,0,9.23,0,9.85,0"/>
        <path class="cls-4" d="M9.07,38.58c.19-.11.33-.21.53-.22,1.12,0,5.1.02,7.48.03.65,0,1.15,0,1.41,0,.2,0,.35.04.55.1.55.16,1.14.36,1.48.86.23.33.43.7.76.95.42.34.89.31,1.43.34.23,0,.48.02.69.03.65.02,1.3.06,1.95.11,1.24.13,2.49.34,3.73.55.78.14,1.67.25,2.44.42.66.15,1.34.33,2.01.48.77.15,1.55.26,2.31.51.39.1.74.29,1.06.52"/>
        <path class="cls-4" d="M29.25,41.35c2,.44,3.96.93,5.94,1.41.25.06.85.32.49.6-.26.16-.63.15-.94.19"/>
        <polyline class="cls-4" points="32.51 42.1 32.55 43.1 32.77 43.37 32.81 43.55"/>
        <line class="cls-4" x1="9.68" y1="36.59" x2="9.54" y2="38.37"/>
        <line class="cls-4" x1="18.98" y1="36.62" x2="18.84" y2="38.43"/>
        <line class="cls-4" x1="20.63" y1="36.59" x2="20.43" y2="39.21"/>
        <path class="cls-4" d="M17.86,43.68c-.26.49-.5,1-.63,1.55-.12.5-.07,1.13-.03,1.67.04.82.17,1.58.3,2.39.26,1.57.69,3.3,1.01,4.88.12.49.16.88.34,1.34.42,1.14.8,2.37,1.53,3.38.5.65,1.12,1.2,1.76,1.71,1.61,1.29,2.49,1.13,4.4,1.15.37.02.62.06.89.21.36.23.66.61.92.97.37.51.81,1.14,1.2,1.68.49.68,1.12,1.35,1.84,1.73.47.23.89.14,1.43.17.73,0,1.59.03,2.3.03.52,0,.81.05,1.21-.22.62-.42.87-1.19,1.07-1.87.12-.41.23-.81.35-1.23.13-.48.27-1,.67-1.32.44-.31,1.04-.25,1.55-.26.49,0,1.02-.04,1.51-.06.55-.02,1.05-.13,1.57-.31.47-.17.9-.37,1.27-.69.49-.44.78-1.07.95-1.69.11-.45.2-.95.27-1.39.12-.64-.06-1.29-.14-1.93-.25-1.69-.75-3.57-1.08-5.24-.13-.62-.24-1.15-.46-1.74-.13-.38-.32-.93-.45-1.3-.14-.4-.25-.67-.49-1.02-.23-.35-.52-.76-.75-1.1-.31-.48-.63-.78-1.04-1.14-1.56-1.42-2.1-1.45-4.1-1.79"/>
        <path class="cls-4" d="M20.58,56.59c.61.92,1.16,1.91,1.99,2.67.72.65,1.65,1.2,2.59,1.41.34.06.69.08,1.04.1.72.04,1.53-.03,2.24,0,.57.01,1.14.17,1.61.48.65.39,1.06,1.07,1.58,1.61.22.23.49.44.77.57.27.13.51.12.82.12.86,0,2.31,0,2.95,0,1.99.11,1.16-1.96,2.59-2.58.49-.21,1.06-.18,1.57-.2.47,0,.91-.01,1.38-.02.5,0,.93-.03,1.39-.15.34-.08.66-.2.93-.4.72-.56,1.1-1.46,1.29-2.34.2-.97.06-1.99,0-2.96"/>
        <line class="cls-4" x1="21.94" y1="42.52" x2="20.64" y2="42.58"/>
        <path class="cls-4" d="M19.48,43.68c-.47.65-.69,1.41-.78,2.2-.11.82-.1,1.64.05,2.46"/>
      </g>
    </g>
  </g>
</svg>