<?xml version="1.0" encoding="UTF-8"?>
<svg id="_图层_2" data-name="图层 2" xmlns="http://www.w3.org/2000/svg" viewBox="0 0 170.12 149.02">
  <defs>
    <style>
      .cls-1 {
        stroke-width: .5px;
      }

      .cls-1, .cls-2, .cls-3, .cls-4 {
        fill: none;
        stroke-linecap: square;
        stroke-miterlimit: 10;
      }

      .cls-1, .cls-3 {
        stroke: #e60012;
      }

      .cls-5 {
        fill: #e60012;
      }

      .cls-2, .cls-3, .cls-4 {
        stroke-width: .12px;
      }

      .cls-2, .cls-4 {
        stroke: #070001;
      }

      .cls-4 {
        fill-rule: evenodd;
      }
    </style>
  </defs>
  <g id="_图层_1-2" data-name="图层 1">
    <g>
      <polyline class="cls-2" points="69.99 5.85 70.1 4.6 70.44 3.35 71.12 2.33 71.91 1.42 72.93 .74 74.07 .18 75.31 .06 75.43 .06 75.43 .06 75.54 .06 75.99 .06 76.67 .06 77.58 .06 78.6 .06 79.74 .06 82.23 .06 84.61 .06 85.63 .06 86.42 .06 87.1 .06 87.33 .06 87.44 .06 87.78 .06 88.35 .18 89.6 .52 90.62 1.08 91.53 1.99 92.21 3.01 92.66 4.14 92.89 5.39 92.89 5.73 92.89 5.85 92.89 5.85 92.89 5.96 92.89 6.19 92.89 6.64 92.89 7.66 92.89 8.11 92.89 8.34 93 8.34 93.11 8.11 93.68 7.55 94.13 6.98 94.36 6.87 94.36 6.87 94.47 6.98 94.7 7.21 95.27 7.77 95.49 8.11 95.72 8.23 95.72 8.34 95.61 8.45 95.38 8.68 94.81 9.25 94.02 10.04 93.23 10.95 92.55 11.63 92.32 11.97 92.09 12.08 91.98 12.19 91.98 12.19 91.87 12.19 91.64 11.97 91.07 11.29 89.6 9.7 88.8 9.02 88.58 8.68 88.35 8.45 88.24 8.34 88.24 8.34 88.24 8.23 88.46 8 88.8 7.66 89.26 7.09 89.48 6.87 89.6 6.87 89.6 6.98 89.82 7.09 90.39 7.77 90.73 8 90.84 8.23 90.96 8.34 90.96 8.23 90.96 7.89 90.96 7.43 90.96 6.41 90.96 6.07 90.96 5.85 90.96 5.85 90.96 5.62 90.96 5.16 90.73 4.37 90.28 3.69 89.82 3.12 89.14 2.56 88.46 2.22 87.67 2.1 87.44 2.1 87.33 2.1 87.1 2.1 86.54 2.1 85.74 2.1 84.72 2.1 83.59 2.1 78.71 2.1 77.69 2.1 76.79 2.1 75.99 2.1 75.65 2.1 75.43 2.1 74.97 2.1 74.18 2.33 73.5 2.67 72.93 3.24 72.48 3.8 72.14 4.6 71.91 5.39 71.91 5.85 71.91 5.96 71.91 6.3 71.91 6.75 71.91 7.43 71.91 8.11 71.91 11.51 71.91 12.19 71.91 12.88 71.91 13.44 71.91 13.9 71.91 14.01 71.91 14.01 71.69 14.01 71.01 14.01 70.21 14.01 69.99 14.01 69.99 14.01 69.99 13.9 69.99 13.56 69.99 12.99 69.99 12.31 69.99 10.72 69.99 9.02 69.99 7.43 69.99 6.87 69.99 6.3 69.99 5.96 69.99 5.85"/>
      <polyline class="cls-2" points="87.22 13.67 87.22 13.78 87.1 13.9 86.88 14.12 86.65 14.46 85.86 15.26 84.95 16.28 83.02 18.43 82.12 19.56 81.21 20.47 80.53 21.15 80.3 21.38 80.19 21.61 80.08 21.72 80.08 21.72 80.08 21.72 79.96 21.83 79.74 21.83 79.51 21.83 79.28 21.61 79.28 21.38 79.28 21.27 79.28 21.15 79.28 20.93 79.4 20.47 79.62 19.22 79.85 17.86 79.96 17.3 80.08 16.84 80.19 16.5 80.19 16.39 80.08 16.28 79.85 16.16 79.51 16.05 79.05 15.94 78.03 15.48 77.13 15.14 76.79 15.03 76.56 14.92 76.45 14.92 76.33 14.8 76.22 14.58 76.22 14.12 76.33 14.12 76.33 14.01 76.33 14.01 76.33 14.01 76.56 13.78 76.79 13.56 77.47 12.76 78.26 11.85 79.17 10.83 81.21 8.57 82.12 7.55 82.8 6.75 83.02 6.53 83.25 6.3 83.36 6.07 83.48 6.07 83.7 5.96 83.93 5.85 84.16 5.96 84.27 6.19 84.38 6.41 84.38 6.53 84.27 6.53 84.27 6.75 84.16 7.09 84.16 7.66 83.82 9.02 83.59 10.27 83.48 10.83 83.48 11.17 83.36 11.4 83.48 11.4 83.59 11.51 83.93 11.63 84.84 11.97 85.86 12.42 86.31 12.53 86.76 12.76 86.99 12.76 87.1 12.88 87.33 13.1 87.33 13.44 87.33 13.67 87.22 13.67 87.22 13.67"/>
      <polyline class="cls-2" points="87.44 28.41 88.69 28.3 89.82 27.84 90.84 27.16 91.64 26.37 92.32 25.23 92.77 24.1 92.89 22.74 92.89 22.29 92.89 21.83 92.89 21.15 92.89 19.68 92.89 17.98 92.89 16.28 92.89 15.6 92.89 15.03 92.89 14.69 92.89 14.46 92.89 14.46 92.66 14.46 91.87 14.46 91.18 14.46 90.96 14.46 90.96 14.46 90.96 14.69 90.96 15.03 90.96 15.6 90.96 16.28 90.96 17.07 90.96 20.36 90.96 21.15 90.96 21.72 90.96 22.17 90.96 22.51 90.96 22.63 90.96 23.08 90.73 23.87 90.39 24.67 89.94 25.35 89.37 25.8 88.58 26.14 87.9 26.37 87.44 26.37 87.22 26.37 86.88 26.37 86.08 26.37 85.18 26.37 84.16 26.37 79.28 26.37 78.15 26.37 77.13 26.37 76.33 26.37 75.77 26.37 75.54 26.37 75.43 26.37 75.2 26.37 74.41 26.25 73.73 25.91 73.05 25.46 72.48 24.78 72.14 24.1 71.91 23.31 71.91 22.85 71.91 22.63 71.91 22.63 71.91 22.4 71.91 22.06 71.91 21.04 71.91 20.59 71.91 20.25 71.91 20.13 71.91 20.25 72.14 20.47 72.48 20.81 73.05 21.38 73.27 21.61 73.27 21.61 73.39 21.61 73.61 21.38 74.07 20.81 74.41 20.47 74.52 20.25 74.63 20.25 74.63 20.13 74.52 20.02 74.29 19.79 73.95 19.56 73.27 18.77 71.8 17.18 71.23 16.5 71.01 16.39 70.89 16.28 70.89 16.28 70.78 16.39 70.55 16.62 70.33 16.84 69.65 17.64 68.85 18.43 68.06 19.22 67.49 19.79 67.27 20.02 67.15 20.13 67.15 20.25 67.38 20.36 67.61 20.7 68.17 21.27 68.4 21.49 68.51 21.61 68.51 21.61 68.74 21.49 69.19 20.93 69.76 20.36 69.87 20.13 69.99 20.13 69.99 20.36 69.99 20.81 69.99 21.83 69.99 22.29 69.99 22.51 69.99 22.63 69.99 22.63 69.99 22.74 69.99 23.08 70.21 24.33 70.67 25.46 71.35 26.48 72.25 27.39 73.27 27.96 74.52 28.41 75.09 28.41 75.43 28.41 75.43 28.41 75.77 28.41 76.22 28.41 77.01 28.41 78.03 28.41 79.05 28.41 80.3 28.41 82.8 28.41 84.04 28.41 85.06 28.41 86.08 28.41 86.76 28.41 87.22 28.41 87.44 28.41"/>
      <g>
        <line class="cls-2" x1="115.14" y1="95.34" x2="107.63" y2="95.34"/>
        <polyline class="cls-2" points="117.25 97.44 117.23 97.14 117.16 96.85 117.05 96.56 116.91 96.3 116.74 96.07 116.52 95.86 116.28 95.67 116.02 95.53 115.73 95.42 115.44 95.36 115.14 95.34"/>
        <line class="cls-2" x1="117.25" y1="105.74" x2="117.25" y2="97.44"/>
        <polyline class="cls-2" points="115.14 107.86 115.44 107.83 115.74 107.76 116.02 107.66 116.28 107.51 116.53 107.34 116.74 107.12 116.92 106.88 117.07 106.62 117.17 106.33 117.23 106.04 117.25 105.74"/>
        <line class="cls-2" x1="107.64" y1="107.86" x2="115.14" y2="107.86"/>
        <polyline class="cls-2" points="105.53 105.74 105.54 106.04 105.61 106.35 105.71 106.62 105.86 106.88 106.04 107.13 106.25 107.34 106.5 107.53 106.76 107.67 107.04 107.78 107.34 107.83 107.64 107.86"/>
        <line class="cls-2" x1="105.53" y1="97.46" x2="105.53" y2="105.74"/>
        <polyline class="cls-2" points="107.63 95.34 107.33 95.36 107.04 95.42 106.76 95.53 106.49 95.67 106.25 95.86 106.04 96.07 105.86 96.31 105.71 96.58 105.61 96.85 105.54 97.16 105.53 97.46"/>
        <line class="cls-2" x1="85.81" y1="97.9" x2="85.8" y2="88.81"/>
        <line class="cls-2" x1="85.8" y1="88.81" x2="89.16" y2="90.8"/>
        <line class="cls-2" x1="89.16" y1="90.8" x2="89.16" y2="96.79"/>
        <line class="cls-2" x1="89.16" y1="96.79" x2="85.81" y2="97.9"/>
        <line class="cls-2" x1="101.46" y1="88.81" x2="101.46" y2="97.89"/>
        <line class="cls-2" x1="101.46" y1="97.89" x2="98.1" y2="96.77"/>
        <line class="cls-2" x1="98.1" y1="96.77" x2="98.1" y2="90.8"/>
        <line class="cls-2" x1="98.1" y1="90.8" x2="101.46" y2="88.81"/>
        <line class="cls-2" x1="89.45" y1="90" x2="86.58" y2="88.33"/>
        <line class="cls-2" x1="100.66" y1="88.33" x2="86.58" y2="88.33"/>
        <line class="cls-2" x1="100.66" y1="88.33" x2="97.81" y2="90"/>
        <line class="cls-2" x1="97.81" y1="90" x2="89.45" y2="90"/>
        <line class="cls-2" x1="89.04" y1="99.48" x2="86.33" y2="98.57"/>
        <line class="cls-2" x1="86.33" y1="98.57" x2="89.04" y2="97.67"/>
        <line class="cls-2" x1="89.04" y1="97.67" x2="98.23" y2="97.67"/>
        <line class="cls-2" x1="98.23" y1="97.67" x2="100.94" y2="98.57"/>
        <line class="cls-2" x1="100.94" y1="98.57" x2="98.23" y2="99.48"/>
        <line class="cls-2" x1="98.23" y1="99.48" x2="89.04" y2="99.48"/>
        <line class="cls-2" x1="97.82" y1="109.72" x2="100.69" y2="111.39"/>
        <line class="cls-2" x1="100.69" y1="111.39" x2="86.59" y2="111.4"/>
        <line class="cls-2" x1="86.59" y1="111.4" x2="89.46" y2="109.72"/>
        <line class="cls-2" x1="89.46" y1="109.72" x2="97.82" y2="109.72"/>
        <line class="cls-2" x1="85.81" y1="110.94" x2="85.81" y2="99.26"/>
        <line class="cls-2" x1="85.81" y1="99.26" x2="89.17" y2="100.36"/>
        <line class="cls-2" x1="89.17" y1="100.36" x2="89.17" y2="108.94"/>
        <line class="cls-2" x1="89.17" y1="108.94" x2="85.81" y2="110.94"/>
        <line class="cls-2" x1="101.46" y1="99.24" x2="101.46" y2="110.93"/>
        <line class="cls-2" x1="101.46" y1="110.93" x2="98.11" y2="108.94"/>
        <line class="cls-2" x1="98.11" y1="108.94" x2="98.1" y2="100.36"/>
        <line class="cls-2" x1="98.1" y1="100.36" x2="101.46" y2="99.24"/>
        <line class="cls-2" x1="68.74" y1="97.9" x2="68.74" y2="88.82"/>
        <line class="cls-2" x1="68.74" y1="88.82" x2="72.1" y2="90.81"/>
        <line class="cls-2" x1="72.1" y1="90.81" x2="72.1" y2="96.79"/>
        <line class="cls-2" x1="72.1" y1="96.79" x2="68.74" y2="97.9"/>
        <line class="cls-2" x1="72.37" y1="90.01" x2="69.5" y2="88.33"/>
        <line class="cls-2" x1="83.6" y1="88.35" x2="69.5" y2="88.33"/>
        <line class="cls-2" x1="83.6" y1="88.35" x2="80.75" y2="90.01"/>
        <line class="cls-2" x1="80.75" y1="90.01" x2="72.37" y2="90.01"/>
        <line class="cls-2" x1="71.97" y1="99.48" x2="69.26" y2="98.59"/>
        <line class="cls-2" x1="69.26" y1="98.59" x2="71.97" y2="97.67"/>
        <line class="cls-2" x1="71.97" y1="97.67" x2="81.15" y2="97.67"/>
        <line class="cls-2" x1="81.15" y1="97.67" x2="83.87" y2="98.57"/>
        <line class="cls-2" x1="83.87" y1="98.57" x2="81.15" y2="99.48"/>
        <line class="cls-2" x1="81.15" y1="99.48" x2="71.97" y2="99.48"/>
        <line class="cls-2" x1="80.75" y1="109.72" x2="83.62" y2="111.4"/>
        <line class="cls-2" x1="83.62" y1="111.4" x2="69.51" y2="111.4"/>
        <line class="cls-2" x1="69.51" y1="111.4" x2="72.39" y2="109.73"/>
        <line class="cls-2" x1="72.39" y1="109.73" x2="80.75" y2="109.72"/>
        <line class="cls-2" x1="68.74" y1="110.94" x2="68.74" y2="99.26"/>
        <line class="cls-2" x1="68.74" y1="99.26" x2="72.1" y2="100.36"/>
        <line class="cls-2" x1="72.1" y1="100.36" x2="72.1" y2="108.96"/>
        <line class="cls-2" x1="72.1" y1="108.96" x2="68.74" y2="110.94"/>
        <line class="cls-2" x1="84.38" y1="88.81" x2="84.38" y2="97.9"/>
        <line class="cls-2" x1="84.38" y1="97.9" x2="81.04" y2="96.79"/>
        <line class="cls-2" x1="81.04" y1="96.79" x2="81.02" y2="90.81"/>
        <line class="cls-2" x1="81.02" y1="90.81" x2="84.38" y2="88.81"/>
        <line class="cls-2" x1="84.38" y1="99.26" x2="84.4" y2="110.94"/>
        <line class="cls-2" x1="84.4" y1="110.94" x2="81.04" y2="108.94"/>
        <line class="cls-2" x1="81.04" y1="108.94" x2="81.04" y2="100.36"/>
        <line class="cls-2" x1="81.04" y1="100.36" x2="84.38" y2="99.26"/>
        <line class="cls-2" x1="63.72" y1="106.57" x2="55.2" y2="106.57"/>
        <line class="cls-2" x1="63.72" y1="108.08" x2="63.72" y2="106.57"/>
        <polyline class="cls-2" points="62.67 109.13 62.87 109.12 63.07 109.05 63.25 108.96 63.41 108.83 63.54 108.66 63.64 108.49 63.7 108.29 63.72 108.08"/>
        <line class="cls-2" x1="56.25" y1="109.13" x2="62.67" y2="109.13"/>
        <polyline class="cls-2" points="55.2 108.08 55.22 108.29 55.28 108.49 55.37 108.67 55.51 108.83 55.68 108.96 55.85 109.05 56.04 109.12 56.25 109.13"/>
        <line class="cls-2" x1="55.2" y1="106.57" x2="55.2" y2="108.08"/>
        <line class="cls-2" x1="55.2" y1="103.69" x2="55.2" y2="105.89"/>
        <line class="cls-2" x1="63.72" y1="103.69" x2="55.2" y2="103.69"/>
        <line class="cls-2" x1="63.72" y1="105.89" x2="63.72" y2="103.69"/>
        <line class="cls-2" x1="55.2" y1="105.89" x2="63.72" y2="105.89"/>
        <line class="cls-2" x1="55.2" y1="100.82" x2="55.2" y2="103.01"/>
        <line class="cls-2" x1="63.72" y1="100.82" x2="55.2" y2="100.82"/>
        <line class="cls-2" x1="63.72" y1="103" x2="63.72" y2="100.82"/>
        <line class="cls-2" x1="55.2" y1="103.01" x2="63.72" y2="103"/>
        <line class="cls-2" x1="55.2" y1="97.94" x2="55.2" y2="100.14"/>
        <line class="cls-2" x1="63.71" y1="97.94" x2="55.2" y2="97.94"/>
        <line class="cls-2" x1="63.72" y1="100.12" x2="63.71" y2="97.94"/>
        <line class="cls-2" x1="55.2" y1="100.14" x2="63.72" y2="100.12"/>
        <line class="cls-2" x1="55.2" y1="95.74" x2="55.2" y2="97.25"/>
        <polyline class="cls-2" points="56.25 94.69 56.04 94.71 55.85 94.77 55.66 94.87 55.51 95 55.37 95.16 55.28 95.34 55.22 95.54 55.2 95.74"/>
        <line class="cls-2" x1="62.66" y1="94.69" x2="56.25" y2="94.69"/>
        <polyline class="cls-2" points="63.71 95.74 63.7 95.53 63.63 95.33 63.54 95.16 63.41 94.99 63.25 94.87 63.07 94.77 62.87 94.71 62.66 94.69"/>
        <line class="cls-2" x1="63.71" y1="97.25" x2="63.71" y2="95.74"/>
        <line class="cls-2" x1="55.2" y1="97.25" x2="63.71" y2="97.25"/>
        <polyline class="cls-2" points="63.05 109.73 63.3 109.71 63.55 109.64 63.77 109.51 63.97 109.35 64.13 109.15 64.26 108.93 64.33 108.68 64.35 108.43"/>
        <line class="cls-2" x1="64.35" y1="95.38" x2="64.35" y2="108.43"/>
        <polyline class="cls-2" points="64.35 95.38 64.33 95.13 64.25 94.88 64.13 94.66 63.97 94.46 63.77 94.31 63.54 94.19 63.3 94.11 63.04 94.08"/>
        <polyline class="cls-2" points="55.93 94.08 55.68 94.11 55.43 94.19 55.2 94.31 55.01 94.46 54.85 94.66 54.72 94.9 54.65 95.13 54.63 95.4"/>
        <line class="cls-2" x1="54.63" y1="108.43" x2="54.63" y2="95.4"/>
        <polyline class="cls-2" points="54.63 108.43 54.65 108.68 54.73 108.93 54.85 109.15 55.01 109.35 55.2 109.52 55.44 109.64 55.68 109.71 55.94 109.73"/>
        <line class="cls-2" x1="63.05" y1="109.73" x2="55.94" y2="109.73"/>
        <polyline class="cls-2" points="64.92 95.28 64.89 95 64.83 94.74 64.72 94.48 64.58 94.24 64.41 94.03 64.2 93.86 63.96 93.72 63.7 93.61 63.43 93.54 63.16 93.52"/>
        <line class="cls-2" x1="64.92" y1="95.28" x2="64.96" y2="108.54"/>
        <polyline class="cls-2" points="63.2 110.3 63.47 110.28 63.74 110.22 64 110.1 64.23 109.96 64.44 109.79 64.62 109.57 64.76 109.34 64.88 109.08 64.93 108.81 64.96 108.54"/>
        <line class="cls-2" x1="63.2" y1="110.3" x2="55.85" y2="110.3"/>
        <polyline class="cls-2" points="54.09 108.54 54.1 108.81 54.17 109.09 54.27 109.34 54.42 109.57 54.6 109.79 54.81 109.97 55.05 110.11 55.3 110.22 55.57 110.28 55.85 110.3"/>
        <line class="cls-2" x1="54.09" y1="108.54" x2="54.05" y2="95.29"/>
        <polyline class="cls-2" points="55.81 93.52 55.53 93.54 55.26 93.61 55.01 93.72 54.77 93.86 54.56 94.04 54.38 94.25 54.23 94.49 54.13 94.74 54.06 95.02 54.05 95.29"/>
        <line class="cls-2" x1="86.8" y1="118.02" x2="85.95" y2="118.54"/>
        <line class="cls-2" x1="85.95" y1="115.99" x2="85.95" y2="118.54"/>
        <line class="cls-2" x1="86.8" y1="116.3" x2="86.8" y2="118.02"/>
        <line class="cls-2" x1="86.8" y1="116.3" x2="85.95" y2="115.99"/>
        <line class="cls-2" x1="86.8" y1="115.02" x2="85.95" y2="115.33"/>
        <line class="cls-2" x1="85.95" y1="113.41" x2="85.95" y2="115.33"/>
        <line class="cls-2" x1="86.8" y1="113.95" x2="86.8" y2="115.02"/>
        <line class="cls-2" x1="86.8" y1="113.95" x2="85.95" y2="113.41"/>
        <line class="cls-2" x1="89.91" y1="113.41" x2="89.07" y2="113.95"/>
        <line class="cls-2" x1="89.91" y1="115.33" x2="89.91" y2="113.41"/>
        <line class="cls-2" x1="89.07" y1="115.02" x2="89.07" y2="113.95"/>
        <line class="cls-2" x1="89.91" y1="115.33" x2="89.07" y2="115.02"/>
        <line class="cls-2" x1="89.92" y1="115.99" x2="89.07" y2="116.3"/>
        <line class="cls-2" x1="89.92" y1="118.54" x2="89.92" y2="115.99"/>
        <line class="cls-2" x1="89.07" y1="118.02" x2="89.07" y2="116.3"/>
        <line class="cls-2" x1="89.92" y1="118.54" x2="89.07" y2="118.02"/>
        <line class="cls-2" x1="89.38" y1="118.87" x2="88.83" y2="118.53"/>
        <line class="cls-2" x1="87.03" y1="118.53" x2="86.47" y2="118.88"/>
        <line class="cls-2" x1="88.82" y1="113.43" x2="89.38" y2="113.08"/>
        <line class="cls-2" x1="87.05" y1="113.43" x2="86.48" y2="113.08"/>
        <line class="cls-2" x1="86.69" y1="115.67" x2="87.28" y2="115.88"/>
        <line class="cls-2" x1="87.28" y1="115.44" x2="86.69" y2="115.67"/>
        <line class="cls-2" x1="89.17" y1="115.65" x2="88.58" y2="115.44"/>
        <line class="cls-2" x1="88.58" y1="115.88" x2="89.17" y2="115.65"/>
        <line class="cls-2" x1="86.48" y1="113.08" x2="89.38" y2="113.08"/>
        <line class="cls-2" x1="87.05" y1="113.43" x2="88.82" y2="113.43"/>
        <line class="cls-2" x1="86.47" y1="118.88" x2="89.38" y2="118.88"/>
        <line class="cls-2" x1="87.03" y1="118.53" x2="88.83" y2="118.53"/>
        <line class="cls-2" x1="87.28" y1="115.88" x2="88.58" y2="115.88"/>
        <line class="cls-2" x1="87.28" y1="115.44" x2="88.58" y2="115.44"/>
        <line class="cls-2" x1="91.54" y1="118.02" x2="90.7" y2="118.54"/>
        <line class="cls-2" x1="90.7" y1="115.99" x2="90.7" y2="118.54"/>
        <line class="cls-2" x1="91.54" y1="116.3" x2="91.54" y2="118.02"/>
        <line class="cls-2" x1="91.54" y1="116.3" x2="90.7" y2="115.99"/>
        <line class="cls-2" x1="91.54" y1="115.02" x2="90.7" y2="115.33"/>
        <line class="cls-2" x1="90.7" y1="113.42" x2="90.7" y2="115.33"/>
        <line class="cls-2" x1="91.54" y1="113.95" x2="91.54" y2="115.02"/>
        <line class="cls-2" x1="91.54" y1="113.95" x2="90.7" y2="113.42"/>
        <line class="cls-2" x1="94.66" y1="113.41" x2="93.82" y2="113.95"/>
        <line class="cls-2" x1="94.66" y1="115.33" x2="94.66" y2="113.41"/>
        <line class="cls-2" x1="93.82" y1="115.02" x2="93.82" y2="113.95"/>
        <line class="cls-2" x1="94.66" y1="115.33" x2="93.82" y2="115.02"/>
        <line class="cls-2" x1="94.66" y1="115.99" x2="93.82" y2="116.3"/>
        <line class="cls-2" x1="94.66" y1="118.54" x2="94.66" y2="115.99"/>
        <line class="cls-2" x1="93.82" y1="118.02" x2="93.82" y2="116.3"/>
        <line class="cls-2" x1="94.66" y1="118.54" x2="93.82" y2="118.02"/>
        <line class="cls-2" x1="94.12" y1="118.87" x2="93.58" y2="118.53"/>
        <line class="cls-2" x1="91.77" y1="118.53" x2="91.21" y2="118.88"/>
        <line class="cls-2" x1="93.56" y1="113.43" x2="94.12" y2="113.08"/>
        <line class="cls-2" x1="91.8" y1="113.43" x2="91.24" y2="113.08"/>
        <line class="cls-2" x1="91.43" y1="115.67" x2="92.04" y2="115.88"/>
        <line class="cls-2" x1="92.04" y1="115.44" x2="91.43" y2="115.67"/>
        <line class="cls-2" x1="93.93" y1="115.67" x2="93.32" y2="115.44"/>
        <line class="cls-2" x1="93.32" y1="115.88" x2="93.93" y2="115.67"/>
        <line class="cls-2" x1="91.24" y1="113.08" x2="94.12" y2="113.08"/>
        <line class="cls-2" x1="91.8" y1="113.43" x2="93.56" y2="113.43"/>
        <line class="cls-2" x1="91.21" y1="118.88" x2="94.12" y2="118.88"/>
        <line class="cls-2" x1="91.77" y1="118.53" x2="93.58" y2="118.53"/>
        <line class="cls-2" x1="92.04" y1="115.88" x2="93.32" y2="115.88"/>
        <line class="cls-2" x1="92.04" y1="115.44" x2="93.32" y2="115.44"/>
        <line class="cls-2" x1="96.29" y1="118.02" x2="95.44" y2="118.54"/>
        <line class="cls-2" x1="95.44" y1="115.99" x2="95.44" y2="118.54"/>
        <line class="cls-2" x1="96.29" y1="116.3" x2="96.29" y2="118.02"/>
        <line class="cls-2" x1="96.29" y1="116.3" x2="95.44" y2="115.99"/>
        <line class="cls-2" x1="96.29" y1="115.02" x2="95.44" y2="115.33"/>
        <line class="cls-2" x1="95.44" y1="113.41" x2="95.44" y2="115.33"/>
        <line class="cls-2" x1="96.29" y1="113.95" x2="96.29" y2="115.02"/>
        <line class="cls-2" x1="96.29" y1="113.95" x2="95.44" y2="113.41"/>
        <line class="cls-2" x1="99.4" y1="113.41" x2="98.56" y2="113.95"/>
        <line class="cls-2" x1="99.4" y1="115.33" x2="99.4" y2="113.41"/>
        <line class="cls-2" x1="98.56" y1="115.02" x2="98.56" y2="113.95"/>
        <line class="cls-2" x1="99.4" y1="115.33" x2="98.56" y2="115.02"/>
        <line class="cls-2" x1="99.4" y1="115.99" x2="98.56" y2="116.3"/>
        <line class="cls-2" x1="99.4" y1="118.54" x2="99.4" y2="115.99"/>
        <line class="cls-2" x1="98.56" y1="118.02" x2="98.56" y2="116.3"/>
        <line class="cls-2" x1="99.4" y1="118.54" x2="98.56" y2="118.02"/>
        <line class="cls-2" x1="98.87" y1="118.87" x2="98.32" y2="118.53"/>
        <line class="cls-2" x1="96.51" y1="118.53" x2="95.96" y2="118.88"/>
        <line class="cls-2" x1="98.31" y1="113.43" x2="98.87" y2="113.08"/>
        <line class="cls-2" x1="96.54" y1="113.43" x2="95.97" y2="113.08"/>
        <line class="cls-2" x1="96.17" y1="115.65" x2="96.77" y2="115.88"/>
        <line class="cls-2" x1="96.77" y1="115.44" x2="96.17" y2="115.65"/>
        <line class="cls-2" x1="98.66" y1="115.65" x2="98.07" y2="115.44"/>
        <line class="cls-2" x1="98.07" y1="115.88" x2="98.66" y2="115.65"/>
        <line class="cls-2" x1="95.97" y1="113.08" x2="98.87" y2="113.08"/>
        <line class="cls-2" x1="96.54" y1="113.43" x2="98.31" y2="113.43"/>
        <line class="cls-2" x1="95.96" y1="118.88" x2="98.87" y2="118.88"/>
        <line class="cls-2" x1="96.51" y1="118.53" x2="98.32" y2="118.53"/>
        <line class="cls-2" x1="96.77" y1="115.88" x2="98.07" y2="115.88"/>
        <line class="cls-2" x1="96.77" y1="115.44" x2="98.07" y2="115.44"/>
        <line class="cls-2" x1="101.03" y1="118.02" x2="100.19" y2="118.54"/>
        <line class="cls-2" x1="100.17" y1="115.99" x2="100.19" y2="118.54"/>
        <line class="cls-2" x1="101.03" y1="116.3" x2="101.03" y2="118.02"/>
        <line class="cls-2" x1="101.03" y1="116.3" x2="100.17" y2="115.99"/>
        <line class="cls-2" x1="101.03" y1="115.02" x2="100.17" y2="115.33"/>
        <line class="cls-2" x1="100.17" y1="113.41" x2="100.17" y2="115.33"/>
        <line class="cls-2" x1="101.03" y1="113.95" x2="101.03" y2="115.02"/>
        <line class="cls-2" x1="101.03" y1="113.95" x2="100.17" y2="113.41"/>
        <line class="cls-2" x1="104.15" y1="113.41" x2="103.3" y2="113.95"/>
        <line class="cls-2" x1="104.15" y1="115.33" x2="104.15" y2="113.41"/>
        <line class="cls-2" x1="103.3" y1="115.02" x2="103.3" y2="113.95"/>
        <line class="cls-2" x1="104.15" y1="115.33" x2="103.3" y2="115.02"/>
        <line class="cls-2" x1="104.15" y1="115.99" x2="103.3" y2="116.3"/>
        <line class="cls-2" x1="104.15" y1="118.54" x2="104.15" y2="115.99"/>
        <line class="cls-2" x1="103.3" y1="118.02" x2="103.3" y2="116.3"/>
        <line class="cls-2" x1="104.15" y1="118.54" x2="103.3" y2="118.02"/>
        <line class="cls-2" x1="103.61" y1="118.87" x2="103.08" y2="118.53"/>
        <line class="cls-2" x1="101.26" y1="118.53" x2="100.7" y2="118.88"/>
        <line class="cls-2" x1="103.05" y1="113.43" x2="103.61" y2="113.08"/>
        <line class="cls-2" x1="101.28" y1="113.43" x2="100.71" y2="113.08"/>
        <line class="cls-2" x1="100.92" y1="115.65" x2="101.51" y2="115.86"/>
        <line class="cls-2" x1="101.51" y1="115.44" x2="100.92" y2="115.65"/>
        <line class="cls-2" x1="103.4" y1="115.65" x2="102.81" y2="115.44"/>
        <line class="cls-2" x1="102.81" y1="115.86" x2="103.4" y2="115.65"/>
        <line class="cls-2" x1="100.71" y1="113.08" x2="103.61" y2="113.08"/>
        <line class="cls-2" x1="101.28" y1="113.43" x2="103.05" y2="113.43"/>
        <line class="cls-2" x1="100.7" y1="118.88" x2="103.61" y2="118.88"/>
        <line class="cls-2" x1="101.26" y1="118.53" x2="103.08" y2="118.53"/>
        <line class="cls-2" x1="101.51" y1="115.86" x2="102.81" y2="115.86"/>
        <line class="cls-2" x1="101.51" y1="115.44" x2="102.81" y2="115.44"/>
        <line class="cls-2" x1="105.77" y1="118" x2="104.93" y2="118.54"/>
        <line class="cls-2" x1="104.93" y1="115.99" x2="104.93" y2="118.54"/>
        <line class="cls-2" x1="105.77" y1="116.3" x2="105.77" y2="118"/>
        <line class="cls-2" x1="105.77" y1="116.3" x2="104.93" y2="115.99"/>
        <line class="cls-2" x1="105.77" y1="115.02" x2="104.93" y2="115.33"/>
        <line class="cls-2" x1="104.93" y1="113.41" x2="104.93" y2="115.33"/>
        <line class="cls-2" x1="105.77" y1="113.93" x2="105.77" y2="115.02"/>
        <line class="cls-2" x1="105.77" y1="113.93" x2="104.93" y2="113.41"/>
        <line class="cls-2" x1="108.89" y1="113.41" x2="108.04" y2="113.93"/>
        <line class="cls-2" x1="108.89" y1="115.31" x2="108.89" y2="113.41"/>
        <line class="cls-2" x1="108.04" y1="115.02" x2="108.04" y2="113.93"/>
        <line class="cls-2" x1="108.89" y1="115.31" x2="108.04" y2="115.02"/>
        <line class="cls-2" x1="108.89" y1="115.99" x2="108.05" y2="116.3"/>
        <line class="cls-2" x1="108.89" y1="118.54" x2="108.89" y2="115.99"/>
        <line class="cls-2" x1="108.05" y1="118" x2="108.05" y2="116.3"/>
        <line class="cls-2" x1="108.89" y1="118.54" x2="108.05" y2="118"/>
        <line class="cls-2" x1="108.35" y1="118.87" x2="107.81" y2="118.53"/>
        <line class="cls-2" x1="106" y1="118.53" x2="105.44" y2="118.88"/>
        <line class="cls-2" x1="107.79" y1="113.43" x2="108.35" y2="113.08"/>
        <line class="cls-2" x1="106.02" y1="113.43" x2="105.45" y2="113.08"/>
        <line class="cls-2" x1="105.66" y1="115.65" x2="106.25" y2="115.86"/>
        <line class="cls-2" x1="106.25" y1="115.44" x2="105.66" y2="115.65"/>
        <line class="cls-2" x1="108.15" y1="115.65" x2="107.55" y2="115.44"/>
        <line class="cls-2" x1="107.55" y1="115.86" x2="108.15" y2="115.65"/>
        <line class="cls-2" x1="105.45" y1="113.08" x2="108.35" y2="113.08"/>
        <line class="cls-2" x1="106.02" y1="113.43" x2="107.79" y2="113.43"/>
        <line class="cls-2" x1="105.44" y1="118.88" x2="108.35" y2="118.88"/>
        <line class="cls-2" x1="106" y1="118.53" x2="107.81" y2="118.53"/>
        <line class="cls-2" x1="106.25" y1="115.86" x2="107.55" y2="115.86"/>
        <line class="cls-2" x1="106.25" y1="115.44" x2="107.55" y2="115.44"/>
        <line class="cls-2" x1="110.26" y1="103.63" x2="109.4" y2="104.15"/>
        <line class="cls-2" x1="109.4" y1="101.62" x2="109.4" y2="104.15"/>
        <line class="cls-2" x1="110.26" y1="101.91" x2="110.26" y2="103.63"/>
        <line class="cls-2" x1="110.26" y1="101.91" x2="109.4" y2="101.62"/>
        <line class="cls-2" x1="110.26" y1="100.65" x2="109.4" y2="100.94"/>
        <line class="cls-2" x1="109.4" y1="99.03" x2="109.4" y2="100.94"/>
        <line class="cls-2" x1="110.26" y1="99.56" x2="110.26" y2="100.65"/>
        <line class="cls-2" x1="110.26" y1="99.56" x2="109.4" y2="99.03"/>
        <line class="cls-2" x1="113.37" y1="99.03" x2="112.53" y2="99.56"/>
        <line class="cls-2" x1="113.37" y1="100.94" x2="113.37" y2="99.03"/>
        <line class="cls-2" x1="112.53" y1="100.63" x2="112.53" y2="99.56"/>
        <line class="cls-2" x1="113.37" y1="100.94" x2="112.53" y2="100.63"/>
        <line class="cls-2" x1="113.37" y1="101.62" x2="112.53" y2="101.91"/>
        <line class="cls-2" x1="113.37" y1="104.15" x2="113.37" y2="101.62"/>
        <line class="cls-2" x1="112.53" y1="103.63" x2="112.53" y2="101.91"/>
        <line class="cls-2" x1="113.37" y1="104.15" x2="112.53" y2="103.63"/>
        <line class="cls-2" x1="112.84" y1="104.49" x2="112.29" y2="104.15"/>
        <line class="cls-2" x1="110.49" y1="104.15" x2="109.93" y2="104.51"/>
        <line class="cls-2" x1="112.28" y1="99.06" x2="112.84" y2="98.7"/>
        <line class="cls-2" x1="110.5" y1="99.06" x2="109.94" y2="98.7"/>
        <line class="cls-2" x1="110.14" y1="101.28" x2="110.74" y2="101.49"/>
        <line class="cls-2" x1="110.74" y1="101.07" x2="110.14" y2="101.28"/>
        <line class="cls-2" x1="112.63" y1="101.28" x2="112.04" y2="101.07"/>
        <line class="cls-2" x1="112.04" y1="101.49" x2="112.63" y2="101.28"/>
        <line class="cls-2" x1="109.94" y1="98.7" x2="112.84" y2="98.7"/>
        <line class="cls-2" x1="110.5" y1="99.06" x2="112.28" y2="99.06"/>
        <line class="cls-2" x1="109.93" y1="104.51" x2="112.84" y2="104.51"/>
        <line class="cls-2" x1="110.49" y1="104.15" x2="112.29" y2="104.15"/>
        <line class="cls-2" x1="110.74" y1="101.49" x2="112.04" y2="101.49"/>
        <line class="cls-2" x1="110.74" y1="101.07" x2="112.04" y2="101.07"/>
        <line class="cls-2" x1="55.81" y1="93.52" x2="57.03" y2="93.52"/>
        <polyline class="cls-2" points="57.03 93.52 57.13 93.51 57.22 93.44 57.28 93.35 57.3 93.24"/>
        <line class="cls-2" x1="57.3" y1="93.24" x2="57.3" y2="93.18"/>
        <polyline class="cls-2" points="57.59 92.9 57.47 92.93 57.38 92.98 57.33 93.07 57.3 93.18"/>
        <line class="cls-2" x1="57.59" y1="92.9" x2="61.37" y2="92.9"/>
        <polyline class="cls-2" points="61.65 93.18 61.62 93.07 61.57 92.98 61.48 92.93 61.37 92.9"/>
        <line class="cls-2" x1="61.65" y1="93.18" x2="61.65" y2="93.24"/>
        <polyline class="cls-2" points="61.65 93.24 61.67 93.35 61.73 93.44 61.82 93.51 61.92 93.52"/>
        <line class="cls-2" x1="61.92" y1="93.52" x2="63.16" y2="93.52"/>
        <line class="cls-2" x1="55.93" y1="94.08" x2="57.46" y2="94.08"/>
        <polyline class="cls-2" points="57.46 94.08 57.57 94.06 57.66 94 57.72 93.91 57.74 93.81"/>
        <line class="cls-2" x1="57.74" y1="93.81" x2="57.74" y2="93.81"/>
        <polyline class="cls-2" points="58.03 93.52 57.92 93.54 57.83 93.6 57.76 93.69 57.74 93.81"/>
        <line class="cls-2" x1="58.03" y1="93.52" x2="60.95" y2="93.52"/>
        <polyline class="cls-2" points="61.24 93.81 61.22 93.69 61.15 93.6 61.06 93.54 60.95 93.52"/>
        <line class="cls-2" x1="61.24" y1="93.81" x2="61.24" y2="93.81"/>
        <polyline class="cls-2" points="61.24 93.81 61.25 93.91 61.32 94 61.41 94.06 61.52 94.08"/>
        <line class="cls-2" x1="61.52" y1="94.08" x2="63.04" y2="94.08"/>
        <line class="cls-2" x1="107.75" y1="107.54" x2="115.02" y2="107.54"/>
        <polyline class="cls-2" points="115.02 107.54 115.32 107.51 115.61 107.43 115.89 107.33 116.15 107.17 116.37 106.98 116.57 106.75 116.73 106.49 116.83 106.21 116.91 105.93 116.92 105.64"/>
        <line class="cls-2" x1="116.92" y1="105.64" x2="116.92" y2="97.56"/>
        <polyline class="cls-2" points="116.92 97.56 116.91 97.26 116.83 96.97 116.73 96.7 116.57 96.45 116.37 96.21 116.15 96.03 115.89 95.87 115.61 95.75 115.32 95.68 115.02 95.66"/>
        <line class="cls-2" x1="115.02" y1="95.66" x2="107.75" y2="95.66"/>
        <polyline class="cls-2" points="107.75 95.66 107.46 95.68 107.16 95.75 106.88 95.87 106.63 96.03 106.41 96.21 106.21 96.45 106.05 96.7 105.94 96.97 105.87 97.26 105.84 97.56"/>
        <line class="cls-2" x1="105.84" y1="97.56" x2="105.84" y2="105.64"/>
        <polyline class="cls-2" points="105.84 105.64 105.87 105.93 105.94 106.21 106.05 106.49 106.21 106.75 106.41 106.98 106.63 107.17 106.88 107.33 107.16 107.43 107.46 107.51 107.75 107.54"/>
        <polyline class="cls-2" points="110.85 118 110.85 118.04 111.24 117.65 111.24 117.64 111.25 117.62 111.27 117.62 111.28 117.61 111.29 117.61 111.32 117.61 111.36 117.61 111.41 117.61 111.42 117.61 111.44 117.61 111.45 117.62 111.46 117.62 111.46 117.64 111.46 117.64 111.46 117.65 111.45 117.66 111.45 117.69 111.44 117.7 111.06 118.07 111.48 118.62 111.49 118.63 111.5 118.65 111.5 118.66 111.5 118.67 111.5 118.67 111.5 118.69 111.49 118.69 111.49 118.7"/>
        <polyline class="cls-2" points="111.41 118.71 111.45 118.7 111.49 118.7"/>
        <polyline class="cls-2" points="111.41 118.71 111.36 118.7 111.33 118.7 111.32 118.7 111.31 118.7 111.29 118.69 111.29 118.67 111.28 118.67 110.85 118.16 110.85 118.67 110.85 118.67 110.85 118.69 110.83 118.69 110.83 118.7"/>
        <polyline class="cls-2" points="110.68 118.7 110.75 118.71 110.83 118.7"/>
        <polyline class="cls-2" points="110.68 118.7 110.68 118.69 110.66 118.69 110.66 118.67 110.66 118.67 110.66 117.15 110.66 117.14 110.66 117.12 110.68 117.12 110.68 117.11"/>
        <polyline class="cls-2" points="110.81 117.11 110.74 117.11 110.68 117.11"/>
        <polyline class="cls-2" points="110.81 117.11 110.82 117.11 110.83 117.11 110.83 117.12 110.85 117.12 110.85 117.14 110.85 117.15 110.85 118"/>
        <polyline class="cls-2" points="113.25 118.67 113.25 118.69 113.23 118.69 113.23 118.7"/>
        <polyline class="cls-2" points="113.08 118.7 113.16 118.71 113.23 118.7"/>
        <polyline class="cls-2" points="113.08 118.7 113.06 118.69 113.06 118.69 113.06 118.67 113.06 118.67 113.06 118.04"/>
        <polyline class="cls-2" points="113.06 118.04 113.05 117.99 113.05 117.92"/>
        <polyline class="cls-2" points="113.05 117.92 113.04 117.89 113.01 117.83"/>
        <polyline class="cls-2" points="113.01 117.83 112.95 117.77 112.85 117.75"/>
        <polyline class="cls-2" points="112.85 117.75 112.79 117.77 112.72 117.81"/>
        <polyline class="cls-2" points="112.72 117.81 112.64 117.87 112.58 117.95"/>
        <polyline class="cls-2" points="112.58 117.95 112.58 118.67 112.58 118.67 112.58 118.69 112.57 118.69 112.57 118.7"/>
        <polyline class="cls-2" points="112.43 118.7 112.5 118.71 112.57 118.7"/>
        <polyline class="cls-2" points="112.43 118.7 112.42 118.7 112.41 118.7 112.41 118.69 112.39 118.69 112.39 118.67 112.39 118.67 112.39 118.04"/>
        <polyline class="cls-2" points="112.39 118.04 112.39 117.99 112.38 117.92"/>
        <polyline class="cls-2" points="112.38 117.92 112.37 117.89 112.34 117.83"/>
        <polyline class="cls-2" points="112.34 117.83 112.32 117.81 112.28 117.78"/>
        <polyline class="cls-2" points="112.28 117.78 112.24 117.75 112.18 117.75"/>
        <polyline class="cls-2" points="112.18 117.75 112.12 117.77 112.05 117.81"/>
        <polyline class="cls-2" points="112.05 117.81 111.97 117.87 111.91 117.95"/>
        <polyline class="cls-2" points="111.91 117.95 111.91 118.67 111.91 118.67 111.91 118.69 111.9 118.69 111.9 118.7"/>
        <polyline class="cls-2" points="111.74 118.7 111.82 118.71 111.9 118.7"/>
        <polyline class="cls-2" points="111.74 118.7 111.74 118.69 111.73 118.69 111.73 118.67 111.73 118.67 111.73 117.64 111.73 117.64 111.73 117.62 111.74 117.62 111.74 117.61 111.75 117.61 111.76 117.61 111.8 117.61 111.86 117.61 111.87 117.61 111.88 117.61 111.88 117.62 111.9 117.62 111.9 117.64 111.9 117.64 111.9 117.78"/>
        <polyline class="cls-2" points="112.07 117.64 111.97 117.7 111.9 117.78"/>
        <polyline class="cls-2" points="112.22 117.6 112.15 117.6 112.07 117.64"/>
        <polyline class="cls-2" points="112.34 117.61 112.29 117.6 112.22 117.6"/>
        <polyline class="cls-2" points="112.43 117.65 112.39 117.62 112.34 117.61"/>
        <polyline class="cls-2" points="112.5 117.71 112.47 117.68 112.43 117.65"/>
        <polyline class="cls-2" points="112.54 117.79 112.53 117.75 112.5 117.71"/>
        <polyline class="cls-2" points="112.54 117.79 112.59 117.74 112.64 117.7"/>
        <polyline class="cls-2" points="112.74 117.64 112.68 117.66 112.64 117.7"/>
        <polyline class="cls-2" points="112.81 117.6 112.78 117.62 112.74 117.64"/>
        <polyline class="cls-2" points="112.89 117.6 112.85 117.6 112.81 117.6"/>
        <polyline class="cls-2" points="113.06 117.62 112.99 117.6 112.89 117.6"/>
        <polyline class="cls-2" points="113.17 117.71 113.12 117.66 113.06 117.62"/>
        <polyline class="cls-2" points="113.23 117.86 113.21 117.78 113.17 117.71"/>
        <polyline class="cls-2" points="113.25 118.02 113.25 117.94 113.23 117.86"/>
        <polyline class="cls-2" points="113.25 118.02 113.25 118.67 113.25 118.67"/>
        <polyline class="cls-2" points="81.22 113.64 81.21 113.67 81.19 113.71"/>
        <line class="cls-2" x1="81.19" y1="113.71" x2="81.19" y2="114.98"/>
        <polyline class="cls-2" points="81.19 114.98 81.21 115.01 81.22 115.04"/>
        <polyline class="cls-2" points="81.22 115.04 81.25 115.05 81.27 115.05"/>
        <polyline class="cls-2" points="81.27 115.05 81.57 115.05 81.64 115.05"/>
        <polyline class="cls-2" points="81.64 115.05 81.81 115.04 81.97 114.97 82.11 114.88"/>
        <polyline class="cls-2" points="82.11 114.88 82.19 114.77 82.24 114.64"/>
        <polyline class="cls-2" points="82.24 114.64 82.28 114.49 82.3 114.33"/>
        <polyline class="cls-2" points="82.3 114.33 82.28 114.17 82.24 114.04"/>
        <polyline class="cls-2" points="82.24 114.04 82.19 113.92 82.11 113.82"/>
        <polyline class="cls-2" points="82.11 113.82 82.02 113.74 81.9 113.68"/>
        <polyline class="cls-2" points="81.9 113.68 81.74 113.64 81.59 113.63"/>
        <line class="cls-2" x1="81.59" y1="113.63" x2="81.27" y2="113.63"/>
        <polyline class="cls-2" points="81.27 113.63 81.25 113.63 81.22 113.64"/>
        <polyline class="cls-2" points="82.94 113.82 82.86 113.87 82.79 113.95"/>
        <polyline class="cls-2" points="82.79 113.95 82.76 114.03 82.73 114.12"/>
        <polyline class="cls-2" points="82.73 114.12 82.7 114.22 82.7 114.34"/>
        <polyline class="cls-2" points="82.7 114.34 82.7 114.46 82.73 114.56"/>
        <polyline class="cls-2" points="82.73 114.56 82.76 114.67 82.79 114.75"/>
        <polyline class="cls-2" points="82.79 114.75 82.85 114.81 82.93 114.87"/>
        <polyline class="cls-2" points="82.93 114.87 83.07 114.91 83.2 114.91 83.35 114.87"/>
        <polyline class="cls-2" points="83.35 114.87 83.43 114.81 83.48 114.73"/>
        <polyline class="cls-2" points="83.48 114.73 83.53 114.66 83.56 114.56"/>
        <polyline class="cls-2" points="83.56 114.56 83.57 114.45 83.57 114.34"/>
        <polyline class="cls-2" points="83.57 114.34 83.57 114.22 83.56 114.12"/>
        <polyline class="cls-2" points="83.56 114.12 83.53 114.03 83.48 113.93"/>
        <polyline class="cls-2" points="83.48 113.93 83.43 113.87 83.35 113.82"/>
        <polyline class="cls-2" points="83.35 113.82 83.22 113.78 83.07 113.78 82.94 113.82"/>
        <polyline class="cls-2" points="79.97 115.02 80.09 115.06 80.22 115.08"/>
        <polyline class="cls-2" points="80.22 115.08 80.45 115.05 80.64 114.96"/>
        <polyline class="cls-2" points="80.64 114.96 80.69 114.92 80.73 114.88"/>
        <polyline class="cls-2" points="80.73 114.88 80.83 114.72 80.88 114.54"/>
        <polyline class="cls-2" points="80.88 114.54 80.89 114.43 80.89 114.33"/>
        <polyline class="cls-2" points="80.89 114.33 80.89 114.17 80.87 114.03"/>
        <polyline class="cls-2" points="80.87 114.03 80.81 113.91 80.75 113.79"/>
        <polyline class="cls-2" points="80.75 113.79 80.69 113.75 80.66 113.71"/>
        <polyline class="cls-2" points="80.66 113.71 80.47 113.63 80.29 113.61"/>
        <polyline class="cls-2" points="80.29 113.61 80.05 113.64 79.85 113.75"/>
        <polyline class="cls-2" points="79.85 113.75 79.71 113.93 79.64 114.14"/>
        <polyline class="cls-2" points="79.64 114.14 79.63 114.25 79.63 114.35"/>
        <polyline class="cls-2" points="79.63 114.35 79.63 114.42 79.63 114.5"/>
        <polyline class="cls-2" points="79.63 114.5 79.67 114.71 79.78 114.89"/>
        <polyline class="cls-2" points="79.78 114.89 79.87 114.97 79.97 115.02"/>
        <polyline class="cls-2" points="82.85 115.02 82.98 115.06 83.1 115.08"/>
        <polyline class="cls-2" points="83.1 115.08 83.32 115.05 83.52 114.96"/>
        <polyline class="cls-2" points="83.52 114.96 83.57 114.92 83.61 114.88"/>
        <polyline class="cls-2" points="83.61 114.88 83.7 114.72 83.75 114.54"/>
        <polyline class="cls-2" points="83.75 114.54 83.77 114.43 83.78 114.33"/>
        <polyline class="cls-2" points="83.78 114.33 83.77 114.17 83.74 114.03"/>
        <polyline class="cls-2" points="83.74 114.03 83.69 113.91 83.62 113.79"/>
        <polyline class="cls-2" points="83.62 113.79 83.58 113.75 83.53 113.71"/>
        <polyline class="cls-2" points="83.53 113.71 83.35 113.63 83.16 113.61"/>
        <polyline class="cls-2" points="83.16 113.61 82.94 113.64 82.73 113.75"/>
        <polyline class="cls-2" points="82.73 113.75 82.58 113.93 82.52 114.14"/>
        <polyline class="cls-2" points="82.52 114.14 82.51 114.25 82.51 114.35"/>
        <polyline class="cls-2" points="82.51 114.35 82.51 114.42 82.51 114.5"/>
        <polyline class="cls-2" points="82.51 114.5 82.56 114.71 82.65 114.89"/>
        <polyline class="cls-2" points="82.65 114.89 82.74 114.97 82.85 115.02"/>
        <polyline class="cls-2" points="81.97 113.95 81.9 113.88 81.82 113.83"/>
        <polyline class="cls-2" points="82.06 114.12 82.03 114.03 81.97 113.95"/>
        <polyline class="cls-2" points="82.1 114.33 82.09 114.22 82.06 114.12"/>
        <polyline class="cls-2" points="82.06 114.58 82.09 114.46 82.1 114.33"/>
        <polyline class="cls-2" points="81.73 114.88 81.88 114.83 81.99 114.72 82.06 114.58"/>
        <polyline class="cls-2" points="81.59 114.89 81.65 114.89 81.73 114.88"/>
        <polyline class="cls-2" points="81.59 114.89 81.39 114.89 81.39 113.79 81.57 113.79"/>
        <polyline class="cls-2" points="81.82 113.83 81.71 113.8 81.57 113.79"/>
        <polyline class="cls-2" points="80.6 113.93 80.55 113.87 80.47 113.82"/>
        <polyline class="cls-2" points="80.47 113.82 80.34 113.78 80.2 113.78 80.06 113.82"/>
        <polyline class="cls-2" points="80.06 113.82 79.92 113.95 79.85 114.12"/>
        <polyline class="cls-2" points="79.85 114.12 79.83 114.22 79.83 114.34"/>
        <polyline class="cls-2" points="79.83 114.34 79.83 114.46 79.84 114.56"/>
        <polyline class="cls-2" points="79.84 114.56 79.87 114.67 79.92 114.75"/>
        <polyline class="cls-2" points="79.92 114.75 79.97 114.81 80.05 114.87"/>
        <polyline class="cls-2" points="80.05 114.87 80.18 114.91 80.33 114.91 80.47 114.87"/>
        <polyline class="cls-2" points="80.47 114.87 80.54 114.81 80.6 114.73"/>
        <polyline class="cls-2" points="80.6 114.73 80.64 114.66 80.68 114.56"/>
        <polyline class="cls-2" points="80.68 114.56 80.69 114.45 80.69 114.34"/>
        <polyline class="cls-2" points="80.69 114.34 80.69 114.22 80.68 114.12"/>
        <polyline class="cls-2" points="80.68 114.12 80.66 114.03 80.6 113.93"/>
        <polyline class="cls-2" points="104.81 110.55 105.24 111.2 105.61 111.2 105.02 110.35"/>
        <polyline class="cls-2" points="104.81 110.55 105.24 111.2 105.61 111.2 105.02 110.35"/>
        <line class="cls-2" x1="105.02" y1="110.35" x2="105.6" y2="109.8"/>
        <polyline class="cls-2" points="105.6 109.8 105.16 109.8 104.65 110.32"/>
        <line class="cls-2" x1="104.65" y1="110.32" x2="104.65" y2="109.31"/>
        <polyline class="cls-2" points="104.65 109.31 104.35 109.31 104.35 111.2 104.65 111.2 104.65 110.7 104.81 110.55"/>
        <polyline class="cls-2" points="106.4 110.05 106.5 110.07 106.57 110.18 106.59 110.35 106.59 111.2 106.89 111.2 106.89 110.35 106.89 110.31 106.95 110.17 107.04 110.09 107.18 110.05 107.2 110.05"/>
        <polyline class="cls-2" points="106.4 110.05 106.5 110.07 106.57 110.18 106.59 110.35 106.59 111.2 106.89 111.2 106.89 110.35 106.89 110.31 106.95 110.17 107.04 110.09 107.18 110.05 107.2 110.05"/>
        <polyline class="cls-2" points="107.2 110.05 107.31 110.07 107.38 110.18 107.41 110.35 107.41 111.2 107.7 111.2 107.7 110.32 107.7 110.32 107.68 110.15 107.64 110.02"/>
        <polyline class="cls-2" points="107.2 110.05 107.31 110.07 107.38 110.18 107.41 110.35 107.41 111.2 107.7 111.2 107.7 110.32 107.7 110.32 107.68 110.15 107.64 110.02"/>
        <line class="cls-2" x1="106.08" y1="109.97" x2="106.08" y2="109.82"/>
        <polyline class="cls-2" points="106.08 109.82 105.78 109.82 105.78 111.2 106.08 111.2 106.08 110.35 106.08 110.31 106.15 110.18 106.24 110.09 106.37 110.05 106.4 110.05"/>
        <polyline class="cls-2" points="106.84 110.01 106.8 109.96 106.7 109.85 106.57 109.8 106.4 109.79"/>
        <polyline class="cls-2" points="106.4 109.79 106.32 109.8 106.19 109.85 106.08 109.97"/>
        <polyline class="cls-2" points="107.64 110.02 107.58 109.92 107.49 109.84 107.35 109.8 107.2 109.79"/>
        <polyline class="cls-2" points="107.2 109.79 107.07 109.81 106.95 109.88 106.84 110.01"/>
        <polyline class="cls-2" points="108.35 109.29 108.6 109.29 108.1 111.23 107.87 111.23 108.35 109.29 108.35 109.29"/>
        <polyline class="cls-2" points="109.39 110.03 109.43 110.03 109.55 110.09 109.63 110.18 109.64 110.35 109.64 111.2 109.94 111.2 109.94 110.32 109.94 110.3 109.93 110.14 109.89 110.01"/>
        <polyline class="cls-2" points="109.39 110.03 109.43 110.03 109.55 110.09 109.63 110.18 109.64 110.35 109.64 111.2 109.94 111.2 109.94 110.32 109.94 110.3 109.93 110.14 109.89 110.01"/>
        <polyline class="cls-2" points="109.89 110.01 109.82 109.9 109.72 109.84 109.59 109.8 109.44 109.79"/>
        <polyline class="cls-2" points="109.44 109.79 109.44 109.79 109.27 109.8 109.14 109.86 109.05 109.97"/>
        <line class="cls-2" x1="109.05" y1="109.97" x2="109.05" y2="109.31"/>
        <polyline class="cls-2" points="109.05 109.31 108.76 109.31 108.76 111.2 109.05 111.2 109.05 110.35 109.07 110.27 109.13 110.15 109.23 110.07 109.39 110.03"/>
        <line class="cls-2" x1="104.18" y1="85.97" x2="105.67" y2="85.97"/>
        <polyline class="cls-2" points="105.67 85.97 105.73 86.1 105.78 86.25"/>
        <polyline class="cls-2" points="105.78 86.25 104.18 86.25 104.18 85.97"/>
        <line class="cls-2" x1="104.18" y1="85.42" x2="105.56" y2="85.42"/>
        <polyline class="cls-2" points="105.56 85.42 105.58 85.56 105.61 85.69"/>
        <polyline class="cls-2" points="105.61 85.69 104.18 85.69 104.18 85.42"/>
        <line class="cls-2" x1="104.18" y1="84.88" x2="105.54" y2="84.88"/>
        <polyline class="cls-2" points="105.54 84.88 105.54 85.01 105.54 85.16"/>
        <polyline class="cls-2" points="105.54 85.16 104.18 85.16 104.18 84.88"/>
        <line class="cls-2" x1="104.18" y1="84.34" x2="105.62" y2="84.34"/>
        <polyline class="cls-2" points="105.62 84.34 105.6 84.47 105.57 84.62"/>
        <polyline class="cls-2" points="105.57 84.62 104.18 84.62 104.18 84.34"/>
        <polyline class="cls-2" points="105.81 83.79 105.74 83.93 105.7 84.07"/>
        <polyline class="cls-2" points="105.7 84.07 104.18 84.07 104.18 83.79 105.81 83.79"/>
        <polyline class="cls-2" points="107.37 86.11 107.67 86.01 107.94 85.85"/>
        <polyline class="cls-2" points="107.94 85.85 108.1 85.67 108.23 85.46 108.31 85.22"/>
        <polyline class="cls-2" points="108.31 85.22 108.34 84.97 108.3 84.72 108.21 84.49"/>
        <polyline class="cls-2" points="108.21 84.49 108.09 84.33 107.96 84.18"/>
        <polyline class="cls-2" points="107.96 84.18 107.73 84.04 107.5 83.95"/>
        <polyline class="cls-2" points="107.5 83.95 107.04 83.86 106.57 83.82 106.09 83.83"/>
        <polyline class="cls-2" points="106.09 83.83 105.96 84.14 105.87 84.49 105.83 84.84 105.82 85.18 105.86 85.54 105.95 85.88 106.07 86.21"/>
        <polyline class="cls-2" points="106.07 86.21 106.5 86.22 106.93 86.19 107.37 86.11"/>
        <polyline class="cls-2" points="107.31 85.88 107.55 85.79 107.79 85.65"/>
        <polyline class="cls-2" points="107.79 85.65 107.96 85.43 108.06 85.17"/>
        <polyline class="cls-2" points="108.06 85.17 108.09 84.98 108.06 84.79 108 84.6"/>
        <polyline class="cls-2" points="108 84.6 107.91 84.49 107.79 84.37"/>
        <polyline class="cls-2" points="107.79 84.37 107.63 84.26 107.43 84.18"/>
        <polyline class="cls-2" points="107.43 84.18 107.05 84.11 106.66 84.07 106.26 84.07"/>
        <polyline class="cls-2" points="106.26 84.07 106.16 84.37 106.09 84.7 106.07 85.01 106.08 85.34 106.15 85.65 106.24 85.97"/>
        <polyline class="cls-2" points="106.24 85.97 106.78 85.96 107.31 85.88"/>
        <polyline class="cls-2" points="80.76 116.86 79.72 116.86 79.72 117.02 80.14 117.02 80.14 118.33 80.33 118.33 80.33 117.02 80.76 117.02 80.76 116.86"/>
        <polyline class="cls-2" points="81.31 117.71 81.35 117.71 81.46 117.75 81.52 117.81 81.6 117.92 81.84 118.33 82.07 118.33 81.78 117.89 81.73 117.81 81.68 117.73 81.67 117.73 81.57 117.65"/>
        <polyline class="cls-2" points="81.31 117.71 81.35 117.71 81.46 117.75 81.52 117.81 81.6 117.92 81.84 118.33 82.07 118.33 81.78 117.89 81.73 117.81 81.68 117.73 81.67 117.73 81.57 117.65"/>
        <polyline class="cls-2" points="81.69 117.61 81.78 117.54 81.85 117.47 81.89 117.36 81.9 117.26 81.89 117.15 81.85 117.05 81.77 116.97"/>
        <polyline class="cls-2" points="81.4 117.02 81.53 117.05 81.63 117.08 81.68 117.15 81.69 117.27 81.68 117.37 81.61 117.47 81.52 117.53 81.4 117.54 81.18 117.54"/>
        <polyline class="cls-2" points="81.69 117.61 81.78 117.54 81.85 117.47 81.89 117.36 81.9 117.26 81.89 117.15 81.85 117.05 81.77 116.97"/>
        <polyline class="cls-2" points="81.4 117.02 81.53 117.05 81.63 117.08 81.68 117.15 81.69 117.27 81.68 117.37 81.61 117.47 81.52 117.53 81.4 117.54 81.18 117.54"/>
        <polyline class="cls-2" points="81.77 116.97 81.77 116.95 81.68 116.9 81.57 116.86 81.44 116.86"/>
        <polyline class="cls-2" points="81.18 117.54 81.18 117.02 81.4 117.02"/>
        <line class="cls-2" x1="81.57" y1="117.65" x2="81.69" y2="117.61"/>
        <polyline class="cls-2" points="81.44 116.86 80.98 116.86 80.98 118.33 81.18 118.33 81.18 117.71 81.31 117.71"/>
        <polyline class="cls-2" points="82.45 116.86 82.45 118.33 82.27 118.33 82.27 116.86 82.45 116.86 82.45 116.86"/>
        <polyline class="cls-2" points="83.65 117.62 83.71 117.53 83.75 117.43 83.77 117.31 83.77 117.28 83.74 117.16 83.7 117.06 83.64 116.97"/>
        <polyline class="cls-2" points="83.23 117.02 83.32 117.03 83.43 117.06 83.5 117.12 83.54 117.2 83.56 117.31 83.56 117.33 83.53 117.45 83.48 117.53 83.44 117.56 83.33 117.6 83.2 117.61 83.03 117.61"/>
        <polyline class="cls-2" points="83.65 117.62 83.71 117.53 83.75 117.43 83.77 117.31 83.77 117.28 83.74 117.16 83.7 117.06 83.64 116.97"/>
        <polyline class="cls-2" points="83.23 117.02 83.32 117.03 83.43 117.06 83.5 117.12 83.54 117.2 83.56 117.31 83.56 117.33 83.53 117.45 83.48 117.53 83.44 117.56 83.33 117.6 83.2 117.61 83.03 117.61"/>
        <polyline class="cls-2" points="83.64 116.97 83.6 116.94 83.5 116.9 83.39 116.86 83.25 116.86"/>
        <polyline class="cls-2" points="83.03 117.61 83.03 117.02 83.23 117.02"/>
        <polyline class="cls-2" points="83.25 116.86 82.83 116.86 82.83 118.33 83.03 118.33 83.03 117.78 83.22 117.78 83.29 117.78 83.41 117.77 83.52 117.71 83.61 117.65 83.65 117.62"/>
        <polyline class="cls-2" points="80.08 85.27 80.05 85.29 80.01 85.29 80.01 86.38 79.41 86.38 79.41 83.68 80.3 83.68 80.43 83.7 80.55 83.7 80.66 83.72 80.76 83.74 80.85 83.78 80.93 83.82 81 83.86 81.02 83.88 81.1 83.95 81.15 84.03 81.21 84.12 81.23 84.22 81.26 84.34 81.26 84.47 81.25 84.59 81.23 84.7 81.18 84.8 81.15 84.85 81.1 84.93 81.02 85 80.93 85.06 80.84 85.12 80.93 85.17 81 85.23 81.06 85.33 81.11 85.43 81.13 85.46 81.51 86.38 80.83 86.38 80.52 85.6 80.47 85.48 80.41 85.39 80.35 85.35 80.27 85.31 80.17 85.29 80.08 85.27"/>
        <polyline class="cls-2" points="80.3 84.17 80.01 84.17 80.01 84.79 80.3 84.79 80.42 84.77 80.51 84.75 80.55 84.71 80.6 84.63 80.63 84.51 80.63 84.47 80.62 84.35 80.58 84.26 80.55 84.25 80.47 84.2 80.37 84.17 80.3 84.17"/>
        <polyline class="cls-2" points="83.32 83.68 83.32 84.18 82.31 84.18 82.31 84.74 83.27 84.74 83.27 85.23 82.31 85.23 82.31 85.88 83.35 85.88 83.35 86.38 81.71 86.38 81.71 83.68 83.32 83.68"/>
        <polyline class="cls-2" points="88.4 85.86 88.33 85.96 88.26 86.04 88.18 86.11 88.1 86.18 88.01 86.23 87.91 86.27 87.81 86.31 87.74 86.32 87.68 86.35 87.59 86.36 87.48 86.36 87.36 86.38 87.24 86.38 86.29 86.38 86.29 83.68 87.19 83.68 87.32 83.68 87.44 83.7 87.55 83.71 87.64 83.72 87.73 83.74 87.8 83.75 87.89 83.79 87.99 83.83 88.08 83.88 88.16 83.95 88.19 83.97 88.27 84.04 88.35 84.13 88.41 84.21 88.48 84.3 88.53 84.41 88.54 84.43 88.58 84.54 88.61 84.64 88.64 84.75 88.65 84.87 88.66 84.98 88.66 85.04 88.65 85.16 88.64 85.27 88.62 85.38 88.6 85.48 88.56 85.59 88.52 85.68 88.47 85.77 88.4 85.86"/>
        <polyline class="cls-2" points="84.44 85.39 85.16 85.39 84.82 84.37 84.44 85.39"/>
        <polyline class="cls-2" points="89.24 83.68 89.77 84.56 90.32 83.68 91.03 83.68 90.07 85.16 90.07 86.38 89.46 86.38 89.46 85.16 88.52 83.68 89.24 83.68"/>
        <polyline class="cls-2" points="85.18 83.68 86.12 86.38 85.47 86.38 85.3 85.85 84.27 85.85 84.07 86.38 83.43 86.38 84.48 83.68 85.18 83.68"/>
        <polyline class="cls-2" points="87.34 84.24 86.89 84.24 86.89 85.84 87.34 85.84 87.45 85.82 87.55 85.8 87.64 85.77 87.73 85.71 87.81 85.64 87.85 85.6 87.9 85.52 87.95 85.43 87.99 85.33 88.02 85.22 88.03 85.1 88.03 85.04 88.03 84.91 88.01 84.79 87.98 84.68 87.94 84.59 87.87 84.5 87.85 84.46 87.77 84.38 87.69 84.33 87.6 84.28 87.49 84.25 87.39 84.24 87.34 84.24"/>
        <line class="cls-2" x1="100.21" y1="85.52" x2="99.9" y2="85.52"/>
        <polyline class="cls-2" points="99.89 85.51 99.89 85.52 99.9 85.52"/>
        <line class="cls-2" x1="99.89" y1="85.51" x2="99.89" y2="83.97"/>
        <polyline class="cls-2" points="99.9 83.96 99.89 83.96 99.89 83.97"/>
        <line class="cls-2" x1="99.9" y1="83.96" x2="100.31" y2="83.96"/>
        <polyline class="cls-2" points="100.31 83.96 100.32 83.96 100.32 83.95"/>
        <line class="cls-2" x1="100.32" y1="83.95" x2="100.32" y2="83.84"/>
        <polyline class="cls-2" points="100.32 83.84 100.32 83.83 100.31 83.83"/>
        <line class="cls-2" x1="100.31" y1="83.83" x2="99.68" y2="83.83"/>
        <polyline class="cls-2" points="99.66 83.82 99.66 83.82 99.68 83.83"/>
        <line class="cls-2" x1="99.66" y1="83.82" x2="99.66" y2="83.74"/>
        <polyline class="cls-2" points="99.68 83.72 99.66 83.72 99.66 83.74"/>
        <line class="cls-2" x1="99.68" y1="83.72" x2="100.31" y2="83.72"/>
        <polyline class="cls-2" points="100.31 83.72 100.32 83.71 100.32 83.71"/>
        <line class="cls-2" x1="100.32" y1="83.71" x2="100.32" y2="83.3"/>
        <polyline class="cls-2" points="100.38 83.25 100.34 83.26 100.32 83.3"/>
        <line class="cls-2" x1="100.38" y1="83.25" x2="100.8" y2="83.25"/>
        <polyline class="cls-2" points="100.87 83.3 100.84 83.26 100.8 83.25"/>
        <line class="cls-2" x1="100.87" y1="83.3" x2="100.87" y2="83.71"/>
        <polyline class="cls-2" points="100.87 83.71 100.87 83.71 100.88 83.72"/>
        <line class="cls-2" x1="100.88" y1="83.72" x2="101.5" y2="83.72"/>
        <polyline class="cls-2" points="101.51 83.74 101.51 83.72 101.5 83.72"/>
        <line class="cls-2" x1="101.51" y1="83.74" x2="101.51" y2="83.82"/>
        <polyline class="cls-2" points="101.5 83.83 101.51 83.82 101.51 83.82"/>
        <line class="cls-2" x1="101.5" y1="83.83" x2="100.88" y2="83.83"/>
        <polyline class="cls-2" points="100.88 83.83 100.87 83.83 100.87 83.84"/>
        <line class="cls-2" x1="100.87" y1="83.84" x2="100.87" y2="83.95"/>
        <polyline class="cls-2" points="100.87 83.95 100.87 83.96 100.88 83.96"/>
        <line class="cls-2" x1="100.88" y1="83.96" x2="101.29" y2="83.96"/>
        <polyline class="cls-2" points="101.3 83.97 101.3 83.96 101.29 83.96"/>
        <line class="cls-2" x1="101.3" y1="83.97" x2="101.3" y2="85.51"/>
        <polyline class="cls-2" points="101.29 85.52 101.3 85.52 101.3 85.51"/>
        <line class="cls-2" x1="101.29" y1="85.52" x2="100.97" y2="85.52"/>
        <line class="cls-2" x1="100.25" y1="84.26" x2="100.94" y2="84.26"/>
        <polyline class="cls-2" points="100.99 84.32 100.97 84.28 100.94 84.26"/>
        <line class="cls-2" x1="100.99" y1="84.32" x2="100.99" y2="84.66"/>
        <polyline class="cls-2" points="100.94 84.71 100.97 84.7 100.99 84.66"/>
        <line class="cls-2" x1="100.94" y1="84.71" x2="100.25" y2="84.71"/>
        <polyline class="cls-2" points="100.2 84.66 100.21 84.7 100.25 84.71"/>
        <line class="cls-2" x1="100.2" y1="84.66" x2="100.2" y2="84.32"/>
        <polyline class="cls-2" points="100.25 84.26 100.21 84.28 100.2 84.32"/>
        <polyline class="cls-2" points="100.97 85.52 100.87 85.14 100.59 84.98 100.32 85.14 100.21 85.52"/>
        <polyline class="cls-2" points="100.59 86 100.65 85.98 100.71 85.97 100.76 85.92 100.82 85.86 100.86 85.8 100.88 85.71 100.91 85.61 100.91 85.52 100.91 85.43 100.88 85.34 100.86 85.25 100.82 85.18 100.76 85.12 100.71 85.08 100.65 85.05 100.59 85.05 100.53 85.05 100.48 85.08 100.42 85.12 100.37 85.18 100.33 85.25 100.29 85.34 100.28 85.43 100.27 85.52 100.28 85.61 100.29 85.71 100.33 85.8 100.37 85.86 100.42 85.92 100.48 85.97 100.53 85.98 100.59 86"/>
        <polyline class="cls-2" points="100.59 86.06 100.41 86.07 100.25 86.1 100.12 86.13 100 86.15 99.91 86.18 99.83 86.21 99.78 86.23 99.73 86.26 99.68 86.31 99.65 86.35 99.65 86.4 99.66 86.43 99.69 86.47 99.73 86.49 99.79 86.52 99.87 86.55 99.99 86.57 100.11 86.59 100.41 86.63 100.69 86.65 100.8 86.67 100.9 86.67 100.97 86.68 101.01 86.69 101.04 86.7 101.05 86.72 101.04 86.73 101.03 86.74 101 86.76 100.96 86.78 100.88 86.8 100.79 86.82 100.66 86.84 100.5 86.86"/>
        <polyline class="cls-2" points="100.59 86.06 100.49 86.1 100.41 86.14 100.33 86.18 100.28 86.22 100.24 86.25 100.21 86.27 100.17 86.32 100.17 86.36 100.2 86.39 100.24 86.42 100.29 86.43 100.36 86.44 100.45 86.46 100.55 86.46 100.67 86.47 100.92 86.49 101.05 86.51 101.16 86.52 101.25 86.53 101.33 86.56 101.39 86.57 101.43 86.6 101.47 86.61 101.5 86.64 101.51 86.65 101.5 86.68 101.49 86.7 101.46 86.73 101.42 86.76 101.36 86.78 101.3 86.8 101.25 86.81 101.17 86.82 101.08 86.84 100.97 86.85 100.84 86.85 100.69 86.86 100.5 86.86"/>
        <polyline class="cls-3" points="62.79 84.17 62.8 84.03 62.84 83.88 62.92 83.76 63.01 83.66 63.13 83.58 63.26 83.51 63.41 83.5 63.42 83.5 63.42 83.5 63.43 83.5 63.49 83.5 63.56 83.5 63.67 83.5 63.79 83.5 63.92 83.5 64.21 83.5 64.48 83.5 64.6 83.5 64.69 83.5 64.77 83.5 64.8 83.5 64.81 83.5 64.85 83.5 64.92 83.51 65.06 83.55 65.18 83.62 65.28 83.72 65.36 83.84 65.42 83.97 65.44 84.12 65.44 84.16 65.44 84.17 65.44 84.17 65.44 84.18 65.44 84.21 65.44 84.26 65.44 84.38 65.44 84.43 65.44 84.46 65.46 84.46 65.47 84.43 65.53 84.37 65.59 84.3 65.61 84.29 65.61 84.29 65.63 84.3 65.65 84.33 65.72 84.39 65.74 84.43 65.77 84.45 65.77 84.46 65.76 84.47 65.73 84.5 65.67 84.56 65.57 84.66 65.48 84.76 65.4 84.84 65.38 84.88 65.35 84.89 65.34 84.91 65.34 84.91 65.32 84.91 65.3 84.88 65.23 84.8 65.06 84.62 64.97 84.54 64.94 84.5 64.92 84.47 64.9 84.46 64.9 84.46 64.9 84.45 64.93 84.42 64.97 84.38 65.02 84.32 65.05 84.29 65.06 84.29 65.06 84.3 65.09 84.32 65.15 84.39 65.19 84.42 65.21 84.45 65.22 84.46 65.22 84.45 65.22 84.41 65.22 84.35 65.22 84.24 65.22 84.2 65.22 84.17 65.22 84.17 65.22 84.14 65.22 84.09 65.19 84 65.14 83.92 65.09 83.86 65.01 83.79 64.93 83.75 64.84 83.74 64.81 83.74 64.8 83.74 64.77 83.74 64.71 83.74 64.62 83.74 64.5 83.74 64.37 83.74 63.8 83.74 63.68 83.74 63.58 83.74 63.49 83.74 63.45 83.74 63.42 83.74 63.37 83.74 63.28 83.76 63.2 83.8 63.13 83.87 63.08 83.93 63.04 84.03 63.01 84.12 63.01 84.17 63.01 84.18 63.01 84.22 63.01 84.28 63.01 84.35 63.01 84.43 63.01 84.83 63.01 84.91 63.01 84.98 63.01 85.05 63.01 85.1 63.01 85.12 63.01 85.12 62.99 85.12 62.91 85.12 62.82 85.12 62.79 85.12 62.79 85.12 62.79 85.1 62.79 85.06 62.79 85 62.79 84.92 62.79 84.74 62.79 84.54 62.79 84.35 62.79 84.29 62.79 84.22 62.79 84.18 62.79 84.17"/>
        <polyline class="cls-3" points="64.79 85.08 64.79 85.09 64.77 85.1 64.75 85.13 64.72 85.17 64.63 85.26 64.52 85.38 64.3 85.63 64.2 85.76 64.09 85.86 64.01 85.94 63.99 85.97 63.97 86 63.96 86.01 63.96 86.01 63.96 86.01 63.95 86.02 63.92 86.02 63.89 86.02 63.87 86 63.87 85.97 63.87 85.96 63.87 85.94 63.87 85.92 63.88 85.86 63.91 85.72 63.93 85.56 63.95 85.5 63.96 85.44 63.97 85.4 63.97 85.39 63.96 85.38 63.93 85.37 63.89 85.35 63.84 85.34 63.72 85.29 63.62 85.25 63.58 85.23 63.55 85.22 63.54 85.22 63.53 85.21 63.51 85.18 63.51 85.13 63.53 85.13 63.53 85.12 63.53 85.12 63.53 85.12 63.55 85.09 63.58 85.06 63.66 84.97 63.75 84.87 63.85 84.75 64.09 84.49 64.2 84.37 64.27 84.28 64.3 84.25 64.33 84.22 64.34 84.2 64.35 84.2 64.38 84.18 64.41 84.17 64.43 84.18 64.44 84.21 64.46 84.24 64.46 84.25 64.44 84.25 64.44 84.28 64.43 84.32 64.43 84.38 64.39 84.54 64.37 84.68 64.35 84.75 64.35 84.79 64.34 84.81 64.35 84.81 64.37 84.83 64.41 84.84 64.51 84.88 64.63 84.93 64.68 84.95 64.73 84.97 64.76 84.97 64.77 84.98 64.8 85.01 64.8 85.05 64.8 85.08 64.79 85.08 64.79 85.08"/>
        <polyline class="cls-3" points="64.81 86.78 64.96 86.77 65.09 86.72 65.21 86.64 65.3 86.55 65.38 86.42 65.43 86.28 65.44 86.13 65.44 86.07 65.44 86.02 65.44 85.94 65.44 85.77 65.44 85.58 65.44 85.38 65.44 85.3 65.44 85.23 65.44 85.19 65.44 85.17 65.44 85.17 65.42 85.17 65.32 85.17 65.25 85.17 65.22 85.17 65.22 85.17 65.22 85.19 65.22 85.23 65.22 85.3 65.22 85.38 65.22 85.47 65.22 85.85 65.22 85.94 65.22 86.01 65.22 86.06 65.22 86.1 65.22 86.11 65.22 86.17 65.19 86.26 65.15 86.35 65.1 86.43 65.04 86.48 64.94 86.52 64.86 86.55 64.81 86.55 64.79 86.55 64.75 86.55 64.65 86.55 64.55 86.55 64.43 86.55 63.87 86.55 63.74 86.55 63.62 86.55 63.53 86.55 63.46 86.55 63.43 86.55 63.42 86.55 63.39 86.55 63.3 86.53 63.22 86.49 63.14 86.44 63.08 86.36 63.04 86.28 63.01 86.19 63.01 86.14 63.01 86.11 63.01 86.11 63.01 86.09 63.01 86.05 63.01 85.93 63.01 85.88 63.01 85.84 63.01 85.82 63.01 85.84 63.04 85.86 63.08 85.9 63.14 85.97 63.17 86 63.17 86 63.18 86 63.21 85.97 63.26 85.9 63.3 85.86 63.32 85.84 63.33 85.84 63.33 85.82 63.32 85.81 63.29 85.79 63.25 85.76 63.17 85.67 63 85.48 62.93 85.4 62.91 85.39 62.9 85.38 62.9 85.38 62.88 85.39 62.86 85.42 62.83 85.44 62.75 85.54 62.66 85.63 62.57 85.72 62.5 85.79 62.48 85.81 62.46 85.82 62.46 85.84 62.49 85.85 62.51 85.89 62.58 85.96 62.61 85.98 62.62 86 62.62 86 62.65 85.98 62.7 85.92 62.76 85.85 62.78 85.82 62.79 85.82 62.79 85.85 62.79 85.9 62.79 86.02 62.79 86.07 62.79 86.1 62.79 86.11 62.79 86.11 62.79 86.13 62.79 86.17 62.82 86.31 62.87 86.44 62.95 86.56 63.05 86.67 63.17 86.73 63.32 86.78 63.38 86.78 63.42 86.78 63.42 86.78 63.46 86.78 63.51 86.78 63.6 86.78 63.72 86.78 63.84 86.78 63.99 86.78 64.27 86.78 64.42 86.78 64.54 86.78 64.65 86.78 64.73 86.78 64.79 86.78 64.81 86.78"/>
        <polyline class="cls-2" points="53.63 87.48 50.81 85.1 53.63 82.74 53.63 84.05 55.75 84.05 55.75 86.17 53.63 86.17 53.63 87.48"/>
        <polyline class="cls-2" points="116.49 87.39 119.33 85.02 116.49 82.65 116.49 83.96 114.38 83.96 114.38 86.07 116.49 86.07 116.49 87.39"/>
        <polyline class="cls-2" points="82.9 121.98 82.89 121.98 82.86 121.97 82.82 121.94 82.77 121.92 82.65 121.84 82.51 121.76 82.37 121.68 82.32 121.65 82.27 121.63 82.24 121.61 82.23 121.6 82.22 121.6 82.19 121.6 82.16 121.61 82.15 121.64 82.16 121.65 82.16 121.71 82.18 121.82 82.19 121.96 82.22 122.1 82.24 122.24 82.27 122.41 82.32 122.59 82.37 122.77 82.43 122.95 82.49 123.15 82.57 123.36 82.66 123.57 82.77 123.78 82.89 124 83.02 124.23 83.15 124.44 83.28 124.63 83.43 124.83 83.56 125 83.69 125.16 83.83 125.32 83.96 125.45 84.09 125.58 84.21 125.7 84.33 125.8 84.45 125.89 84.55 125.97 84.66 126.05 84.7 126.08 84.72 126.09 84.74 126.1 84.74 126.1 84.75 126.1 84.76 126.12 84.79 126.1 84.8 126.09 84.82 126.05 84.82 126.03 84.82 125.99 84.82 125.85 84.82 125.54 84.82 125.4 84.82 125.34 84.82 125.32 84.82 125.28 84.82 125.24 84.82 125.17 84.82 125.08 84.8 124.96 84.8 124.82 84.79 124.66 84.76 124.49 84.74 124.32 84.66 123.95 84.61 123.77 84.54 123.58 84.46 123.41 84.41 123.33 84.38 123.28 84.28 123.12 84.16 122.98 84.03 122.84 83.9 122.7 83.61 122.47 83.48 122.36 83.35 122.26 83.23 122.18 83.12 122.11 83.03 122.06 82.97 122.02 82.91 121.99 82.9 121.98"/>
        <polyline class="cls-2" points="87.64 121.17 87.66 121.14 87.66 121.12 87.65 121.09 87.64 121.09 87.64 121.09 87.61 121.08 87.51 121.02 87.38 120.97 87.22 120.91 87.06 120.85 86.88 120.8 86.68 120.73 86.48 120.7 86.26 120.64 86.02 120.6 85.77 120.58 85.51 120.55 85.24 120.54 84.95 120.54 84.67 120.55 84.4 120.56 84.15 120.6 83.91 120.64 83.69 120.68 83.48 120.73 83.28 120.79 83.1 120.84 82.93 120.89 82.78 120.96 82.65 121.01 82.52 121.06 82.49 121.08 82.48 121.09 82.48 121.09 82.48 121.09 82.47 121.09 82.45 121.13 82.45 121.15 82.48 121.18 82.52 121.19 82.56 121.22 82.62 121.26 82.69 121.3 82.99 121.47 83.06 121.51 83.11 121.54 83.14 121.55 83.15 121.56 83.15 121.56 83.16 121.57 83.22 121.6 83.31 121.65 83.41 121.71 83.56 121.77 83.71 121.85 83.88 121.92 84.07 121.99 84.27 122.06 84.48 122.11 84.69 122.17 84.9 122.19 85.11 122.19 85.32 122.18 85.53 122.14 85.74 122.1 85.93 122.03 86.13 121.97 86.31 121.89 86.48 121.82 86.63 121.75 86.76 121.68 86.85 121.63 86.93 121.59 86.97 121.56 86.97 121.56 87 121.55 87.03 121.52 87.09 121.5 87.15 121.46 87.31 121.36 87.45 121.29 87.52 121.25 87.59 121.21 87.63 121.18 87.64 121.18 87.64 121.18 87.64 121.17 87.64 121.17"/>
        <polyline class="cls-2" points="87.89 121.6 87.87 121.6 87.85 121.61 87.81 121.64 87.76 121.68 87.63 121.75 87.49 121.82 87.36 121.9 87.31 121.93 87.26 121.96 87.23 121.98 87.22 121.98 87.21 121.99 87.17 122.01 87.11 122.05 87.02 122.1 86.92 122.17 86.8 122.24 86.68 122.34 86.54 122.44 86.26 122.68 85.98 122.95 85.87 123.1 85.75 123.26 85.66 123.41 85.58 123.58 85.51 123.77 85.46 123.95 85.38 124.32 85.35 124.49 85.34 124.66 85.33 124.82 85.32 124.96 85.3 125.08 85.3 125.17 85.3 125.24 85.3 125.28 85.3 125.32 85.3 125.34 85.3 125.4 85.3 125.54 85.3 125.85 85.3 125.99 85.3 126.03 85.3 126.05 85.32 126.09 85.33 126.1 85.35 126.12 85.38 126.1 85.38 126.1 85.38 126.1 85.39 126.09 85.42 126.08 85.46 126.05 85.56 125.97 85.67 125.89 85.79 125.8 85.91 125.7 86.02 125.58 86.16 125.45 86.29 125.32 86.43 125.16 86.56 125 86.71 124.83 86.84 124.63 86.97 124.44 87.11 124.23 87.23 124 87.35 123.78 87.45 123.56 87.55 123.35 87.63 123.15 87.69 122.95 87.76 122.76 87.81 122.59 87.85 122.41 87.87 122.24 87.91 122.1 87.93 121.96 87.94 121.82 87.95 121.71 87.97 121.65 87.97 121.64 87.97 121.63 87.94 121.6 87.91 121.59 87.89 121.6"/>
        <path class="cls-4" d="M66.75,117.86v.11s.04.13.04.13l.08.12.05.04.12.07.14.03h.09s.13-.07.13-.07l.11-.08.07-.09.04-.12.03-.16v-.12s-.05-.13-.05-.13l-.07-.11-.05-.05-.12-.05-.14-.03h-.11s-.13.05-.13.05l-.11.08-.07.11-.04.13v.14ZM66.93,117.85l.03.16.05.09.11.08h.09s.13-.01.13-.01l.07-.07.05-.12v-.14s0-.14,0-.14l-.05-.11-.11-.07h-.09s-.13.01-.13.01l-.07.07-.05.11-.03.14ZM65.91,118.32l1.22-1.92h.2l-1.23,1.92h-.18ZM65.61,116.87v.12s.05.12.05.12l.07.12.05.05.12.05.14.03h.11s.12-.05.12-.05l.11-.09.07-.09.05-.12v-.16s0-.12,0-.12l-.04-.13-.07-.11-.05-.05-.12-.05-.14-.03h-.11s-.12.07-.12.07l-.11.08-.07.09-.05.13v.14ZM65.8,116.86v.16s.07.09.07.09l.11.08h.09s.13-.01.13-.01l.07-.07.05-.11v-.14s0-.16,0-.16l-.05-.11-.11-.07h-.08s-.14.01-.14.01l-.07.07-.05.11v.14Z"/>
        <polyline class="cls-2" points="67.2 118.19 67.11 118.17 67 118.1 66.95 118 66.93 117.85 66.95 117.7 67 117.6 67.07 117.53 67.2 117.5"/>
        <polyline class="cls-2" points="66.87 117.48 66.81 117.58 66.77 117.71 66.75 117.86 66.77 117.96 66.79 118.1 66.87 118.21 66.93 118.25 67.04 118.32 67.19 118.35 67.28 118.33 67.41 118.28 67.52 118.2"/>
        <polyline class="cls-2" points="67.52 118.2 67.58 118.11 67.62 117.99 67.65 117.83 67.63 117.71 67.59 117.58 67.53 117.48 67.48 117.43 67.36 117.37 67.21 117.35"/>
        <polyline class="cls-2" points="67.2 117.5 67.29 117.52 67.4 117.58 67.45 117.69 67.46 117.83 67.45 117.98 67.4 118.1 67.33 118.16 67.2 118.19"/>
        <polyline class="cls-2" points="67.21 117.35 67.11 117.36 66.98 117.4 66.87 117.48"/>
        <polyline class="cls-2" points="66.06 117.2 65.97 117.19 65.86 117.11 65.81 117.02 65.8 116.86 65.81 116.72 65.86 116.61 65.93 116.55 66.07 116.52"/>
        <polyline class="cls-2" points="65.74 116.51 65.68 116.6 65.63 116.73 65.61 116.87 65.63 116.99 65.67 117.11 65.73 117.23 65.78 117.28 65.9 117.33 66.05 117.36 66.15 117.35 66.27 117.31 66.37 117.22"/>
        <polyline class="cls-2" points="67.33 116.4 67.14 116.4 65.91 118.32 66.1 118.32 67.33 116.4"/>
        <polyline class="cls-2" points="66.37 117.22 66.44 117.12 66.49 117.01 66.51 116.85 66.49 116.73 66.45 116.6 66.39 116.49 66.33 116.44 66.22 116.39 66.07 116.36"/>
        <polyline class="cls-2" points="66.07 116.52 66.15 116.53 66.26 116.6 66.31 116.7 66.32 116.86 66.31 117.01 66.26 117.11 66.19 117.18 66.06 117.2"/>
        <polyline class="cls-2" points="66.07 116.36 65.97 116.38 65.85 116.43 65.74 116.51"/>
        <line class="cls-2" x1="56.57" y1="117.9" x2="55.73" y2="118.42"/>
        <line class="cls-2" x1="55.73" y1="115.88" x2="55.73" y2="118.42"/>
        <line class="cls-2" x1="56.57" y1="116.18" x2="56.57" y2="117.9"/>
        <line class="cls-2" x1="56.57" y1="116.18" x2="55.73" y2="115.88"/>
        <line class="cls-2" x1="56.57" y1="114.91" x2="55.73" y2="115.21"/>
        <line class="cls-2" x1="55.73" y1="113.29" x2="55.73" y2="115.21"/>
        <line class="cls-2" x1="56.57" y1="113.83" x2="56.57" y2="114.91"/>
        <line class="cls-2" x1="56.57" y1="113.83" x2="55.73" y2="113.29"/>
        <line class="cls-2" x1="59.15" y1="118.75" x2="58.62" y2="118.41"/>
        <line class="cls-2" x1="56.8" y1="118.41" x2="56.24" y2="118.77"/>
        <line class="cls-2" x1="58.59" y1="113.32" x2="59.15" y2="112.96"/>
        <line class="cls-2" x1="56.82" y1="113.32" x2="56.27" y2="112.96"/>
        <line class="cls-2" x1="56.46" y1="115.54" x2="57.07" y2="115.76"/>
        <line class="cls-2" x1="57.07" y1="115.33" x2="56.46" y2="115.54"/>
        <line class="cls-2" x1="58.96" y1="115.54" x2="58.35" y2="115.33"/>
        <line class="cls-2" x1="58.35" y1="115.76" x2="58.96" y2="115.54"/>
        <line class="cls-2" x1="56.27" y1="112.96" x2="59.15" y2="112.96"/>
        <line class="cls-2" x1="56.82" y1="113.32" x2="58.59" y2="113.32"/>
        <line class="cls-2" x1="56.24" y1="118.77" x2="59.15" y2="118.77"/>
        <line class="cls-2" x1="56.8" y1="118.41" x2="58.62" y2="118.41"/>
        <line class="cls-2" x1="57.07" y1="115.76" x2="58.35" y2="115.76"/>
        <line class="cls-2" x1="57.07" y1="115.33" x2="58.35" y2="115.33"/>
        <line class="cls-2" x1="61.32" y1="117.9" x2="60.47" y2="118.42"/>
        <line class="cls-2" x1="60.47" y1="115.88" x2="60.47" y2="118.42"/>
        <line class="cls-2" x1="61.32" y1="116.18" x2="61.32" y2="117.9"/>
        <line class="cls-2" x1="61.32" y1="116.18" x2="60.47" y2="115.88"/>
        <line class="cls-2" x1="61.32" y1="114.91" x2="60.47" y2="115.21"/>
        <line class="cls-2" x1="60.47" y1="113.3" x2="60.47" y2="115.21"/>
        <line class="cls-2" x1="61.32" y1="113.83" x2="61.32" y2="114.91"/>
        <line class="cls-2" x1="61.32" y1="113.83" x2="60.47" y2="113.3"/>
        <line class="cls-2" x1="64.44" y1="113.29" x2="63.59" y2="113.83"/>
        <line class="cls-2" x1="64.44" y1="115.21" x2="64.44" y2="113.29"/>
        <line class="cls-2" x1="63.59" y1="114.91" x2="63.59" y2="113.83"/>
        <line class="cls-2" x1="64.44" y1="115.21" x2="63.59" y2="114.91"/>
        <line class="cls-2" x1="64.44" y1="115.88" x2="63.59" y2="116.18"/>
        <line class="cls-2" x1="64.44" y1="118.42" x2="64.44" y2="115.88"/>
        <line class="cls-2" x1="63.59" y1="117.9" x2="63.59" y2="116.18"/>
        <line class="cls-2" x1="64.44" y1="118.42" x2="63.59" y2="117.9"/>
        <line class="cls-2" x1="63.91" y1="118.75" x2="63.37" y2="118.41"/>
        <line class="cls-2" x1="61.56" y1="118.41" x2="60.99" y2="118.77"/>
        <line class="cls-2" x1="63.34" y1="113.32" x2="63.91" y2="112.96"/>
        <line class="cls-2" x1="61.57" y1="113.32" x2="61.01" y2="112.96"/>
        <line class="cls-2" x1="61.22" y1="115.55" x2="61.81" y2="115.76"/>
        <line class="cls-2" x1="61.81" y1="115.33" x2="61.22" y2="115.55"/>
        <line class="cls-2" x1="63.7" y1="115.54" x2="63.11" y2="115.33"/>
        <line class="cls-2" x1="63.11" y1="115.76" x2="63.7" y2="115.54"/>
        <line class="cls-2" x1="61.01" y1="112.96" x2="63.91" y2="112.96"/>
        <line class="cls-2" x1="61.57" y1="113.32" x2="63.34" y2="113.32"/>
        <line class="cls-2" x1="60.99" y1="118.77" x2="63.91" y2="118.77"/>
        <line class="cls-2" x1="61.56" y1="118.41" x2="63.37" y2="118.41"/>
        <line class="cls-2" x1="61.81" y1="115.76" x2="63.11" y2="115.76"/>
        <line class="cls-2" x1="61.81" y1="115.33" x2="63.11" y2="115.33"/>
        <line class="cls-2" x1="59.69" y1="113.29" x2="58.85" y2="113.83"/>
        <line class="cls-2" x1="59.69" y1="115.21" x2="59.69" y2="113.29"/>
        <line class="cls-2" x1="58.85" y1="114.91" x2="58.85" y2="113.83"/>
        <line class="cls-2" x1="59.69" y1="115.21" x2="58.85" y2="114.91"/>
        <line class="cls-2" x1="59.69" y1="115.88" x2="58.85" y2="116.18"/>
        <line class="cls-2" x1="59.69" y1="118.42" x2="59.69" y2="115.88"/>
        <line class="cls-2" x1="58.85" y1="117.9" x2="58.85" y2="116.18"/>
        <line class="cls-2" x1="59.69" y1="118.42" x2="58.85" y2="117.9"/>
        <line class="cls-2" x1="54.94" y1="113.29" x2="54.1" y2="113.83"/>
        <line class="cls-2" x1="54.94" y1="115.21" x2="54.94" y2="113.29"/>
        <line class="cls-2" x1="54.1" y1="114.91" x2="54.1" y2="113.83"/>
        <line class="cls-2" x1="54.94" y1="115.21" x2="54.1" y2="114.91"/>
        <line class="cls-2" x1="54.94" y1="115.88" x2="54.1" y2="116.18"/>
        <line class="cls-2" x1="54.95" y1="118.42" x2="54.94" y2="115.88"/>
        <line class="cls-2" x1="54.1" y1="117.9" x2="54.1" y2="116.18"/>
        <line class="cls-2" x1="54.95" y1="118.42" x2="54.1" y2="117.9"/>
        <line class="cls-2" x1="57.37" y1="85.52" x2="57.58" y2="85.52"/>
        <line class="cls-2" x1="57.58" y1="85.52" x2="57.58" y2="85.96"/>
        <line class="cls-2" x1="57.58" y1="85.96" x2="61.52" y2="85.96"/>
        <line class="cls-2" x1="61.52" y1="85.96" x2="61.52" y2="84.38"/>
        <line class="cls-2" x1="61.52" y1="84.38" x2="57.58" y2="84.38"/>
        <line class="cls-2" x1="57.58" y1="84.38" x2="57.58" y2="84.81"/>
        <line class="cls-2" x1="57.58" y1="84.81" x2="57.37" y2="84.81"/>
        <line class="cls-2" x1="57.33" y1="84.83" x2="57.37" y2="84.81"/>
        <line class="cls-2" x1="57.29" y1="84.88" x2="57.33" y2="84.83"/>
        <line class="cls-2" x1="57.28" y1="84.92" x2="57.29" y2="84.88"/>
        <line class="cls-2" x1="57.28" y1="84.97" x2="57.28" y2="84.92"/>
        <line class="cls-2" x1="57.28" y1="84.97" x2="57.28" y2="85.37"/>
        <line class="cls-2" x1="57.28" y1="85.43" x2="57.28" y2="85.37"/>
        <line class="cls-2" x1="57.28" y1="85.47" x2="57.3" y2="85.43"/>
        <line class="cls-2" x1="57.3" y1="85.51" x2="57.34" y2="85.47"/>
        <line class="cls-2" x1="57.34" y1="85.52" x2="57.37" y2="85.51"/>
        <line class="cls-2" x1="57.67" y1="84.45" x2="57.67" y2="85.89"/>
        <line class="cls-2" x1="57.67" y1="85.89" x2="61.45" y2="85.89"/>
        <line class="cls-2" x1="61.45" y1="85.89" x2="61.45" y2="84.45"/>
        <line class="cls-2" x1="61.45" y1="84.45" x2="57.67" y2="84.45"/>
        <line class="cls-2" x1="57.33" y1="84.85" x2="57.33" y2="84.85"/>
        <line class="cls-2" x1="57.4" y1="85.43" x2="57.58" y2="85.43"/>
        <line class="cls-2" x1="57.58" y1="85.43" x2="57.58" y2="84.91"/>
        <line class="cls-2" x1="57.4" y1="84.91" x2="57.58" y2="84.91"/>
        <line class="cls-2" x1="57.36" y1="84.92" x2="57.4" y2="84.91"/>
        <line class="cls-2" x1="57.34" y1="84.96" x2="57.36" y2="84.92"/>
        <line class="cls-2" x1="57.34" y1="84.96" x2="57.34" y2="85.39"/>
        <line class="cls-2" x1="57.34" y1="85.42" x2="57.36" y2="85.39"/>
        <line class="cls-2" x1="57.36" y1="85.43" x2="57.4" y2="85.42"/>
        <line class="cls-2" x1="73.06" y1="83.93" x2="73.53" y2="83.93"/>
        <line class="cls-2" x1="73.53" y1="83.93" x2="73.53" y2="83.67"/>
        <line class="cls-2" x1="73.53" y1="83.67" x2="74.04" y2="83.67"/>
        <line class="cls-2" x1="74.04" y1="83.67" x2="74.04" y2="83.93"/>
        <line class="cls-2" x1="74.04" y1="83.93" x2="75.21" y2="83.93"/>
        <line class="cls-2" x1="75.21" y1="83.93" x2="75.21" y2="83.67"/>
        <line class="cls-2" x1="75.21" y1="83.67" x2="75.72" y2="83.67"/>
        <line class="cls-2" x1="75.72" y1="83.67" x2="75.72" y2="83.93"/>
        <line class="cls-2" x1="75.72" y1="83.93" x2="76.21" y2="83.93"/>
        <line class="cls-2" x1="76.21" y1="83.93" x2="76.21" y2="85.73"/>
        <line class="cls-2" x1="76.21" y1="85.73" x2="73.06" y2="85.73"/>
        <line class="cls-2" x1="73.06" y1="85.73" x2="73.06" y2="83.93"/>
        <line class="cls-2" x1="73.16" y1="84.07" x2="73.16" y2="85.61"/>
        <line class="cls-2" x1="73.16" y1="85.61" x2="76.07" y2="85.61"/>
        <line class="cls-2" x1="76.07" y1="85.61" x2="76.07" y2="84.04"/>
        <line class="cls-2" x1="76.07" y1="84.04" x2="73.16" y2="84.04"/>
        <line class="cls-2" x1="73.16" y1="84.07" x2="73.16" y2="84.04"/>
        <line class="cls-2" x1="73.48" y1="84.58" x2="74.09" y2="84.58"/>
        <line class="cls-2" x1="74.09" y1="84.72" x2="74.09" y2="84.58"/>
        <line class="cls-2" x1="74.09" y1="84.72" x2="73.48" y2="84.72"/>
        <line class="cls-2" x1="73.48" y1="84.72" x2="73.48" y2="84.58"/>
        <line class="cls-2" x1="75.4" y1="84.33" x2="75.54" y2="84.33"/>
        <line class="cls-2" x1="75.54" y1="84.33" x2="75.54" y2="84.58"/>
        <line class="cls-2" x1="75.54" y1="84.58" x2="75.77" y2="84.58"/>
        <line class="cls-2" x1="75.77" y1="84.72" x2="75.77" y2="84.58"/>
        <line class="cls-2" x1="75.77" y1="84.72" x2="75.54" y2="84.72"/>
        <line class="cls-2" x1="75.54" y1="84.72" x2="75.54" y2="84.96"/>
        <line class="cls-2" x1="75.4" y1="84.96" x2="75.54" y2="84.96"/>
        <line class="cls-2" x1="75.4" y1="84.96" x2="75.4" y2="84.72"/>
        <line class="cls-2" x1="75.4" y1="84.72" x2="75.16" y2="84.72"/>
        <line class="cls-2" x1="75.16" y1="84.72" x2="75.16" y2="84.58"/>
        <line class="cls-2" x1="75.16" y1="84.58" x2="75.4" y2="84.58"/>
        <line class="cls-2" x1="75.4" y1="84.58" x2="75.4" y2="84.33"/>
        <line class="cls-2" x1="73.48" y1="86.01" x2="73.48" y2="85.85"/>
        <line class="cls-2" x1="73.48" y1="86.01" x2="76.56" y2="86.01"/>
        <line class="cls-2" x1="76.56" y1="86.01" x2="76.56" y2="84.24"/>
        <line class="cls-2" x1="76.42" y1="84.24" x2="76.56" y2="84.24"/>
        <line class="cls-2" x1="76.42" y1="84.24" x2="76.42" y2="85.85"/>
        <line class="cls-2" x1="76.42" y1="85.85" x2="73.48" y2="85.85"/>
        <line class="cls-2" x1="73.92" y1="86.32" x2="73.92" y2="86.18"/>
        <line class="cls-2" x1="73.92" y1="86.32" x2="77.01" y2="86.32"/>
        <line class="cls-2" x1="77.01" y1="86.32" x2="77.01" y2="84.54"/>
        <line class="cls-2" x1="76.86" y1="84.54" x2="77.01" y2="84.54"/>
        <line class="cls-2" x1="76.86" y1="84.54" x2="76.86" y2="86.18"/>
        <line class="cls-2" x1="76.86" y1="86.18" x2="73.92" y2="86.18"/>
        <line class="cls-2" x1="69.5" y1="85.09" x2="68.82" y2="85.22"/>
        <line class="cls-2" x1="69.26" y1="85.52" x2="69.5" y2="85.09"/>
        <line class="cls-2" x1="68.92" y1="86.46" x2="70.6" y2="86.46"/>
        <line class="cls-2" x1="70.6" y1="86.46" x2="70.65" y2="86.44"/>
        <line class="cls-2" x1="70.65" y1="86.44" x2="70.69" y2="86.4"/>
        <line class="cls-2" x1="70.69" y1="86.4" x2="70.71" y2="86.35"/>
        <line class="cls-2" x1="70.69" y1="86.35" x2="70.71" y2="86.3"/>
        <line class="cls-2" x1="70.65" y1="86.3" x2="70.69" y2="86.26"/>
        <line class="cls-2" x1="70.6" y1="86.26" x2="70.65" y2="86.25"/>
        <line class="cls-2" x1="70.6" y1="86.25" x2="69.37" y2="86.25"/>
        <line class="cls-2" x1="69.33" y1="86.25" x2="69.37" y2="86.11"/>
        <line class="cls-2" x1="69.24" y1="86.11" x2="69.33" y2="86.01"/>
        <line class="cls-2" x1="69.24" y1="86.01" x2="70.18" y2="84.26"/>
        <line class="cls-2" x1="70.18" y1="84.26" x2="70.43" y2="84.26"/>
        <line class="cls-2" x1="70.43" y1="84.26" x2="70.47" y2="84.25"/>
        <line class="cls-2" x1="70.47" y1="84.25" x2="70.5" y2="84.21"/>
        <line class="cls-2" x1="70.5" y1="84.21" x2="70.64" y2="83.79"/>
        <line class="cls-2" x1="70.64" y1="83.79" x2="70.64" y2="83.75"/>
        <line class="cls-2" x1="70.61" y1="83.75" x2="70.64" y2="83.71"/>
        <line class="cls-2" x1="70.56" y1="83.71" x2="70.61" y2="83.7"/>
        <line class="cls-2" x1="70.56" y1="83.7" x2="69.6" y2="83.7"/>
        <line class="cls-2" x1="69.55" y1="83.71" x2="69.6" y2="83.7"/>
        <line class="cls-2" x1="69.52" y1="83.75" x2="69.55" y2="83.71"/>
        <line class="cls-2" x1="69.52" y1="83.79" x2="69.52" y2="83.75"/>
        <line class="cls-2" x1="69.52" y1="83.79" x2="69.67" y2="84.21"/>
        <line class="cls-2" x1="69.67" y1="84.25" x2="69.69" y2="84.21"/>
        <line class="cls-2" x1="69.69" y1="84.26" x2="69.73" y2="84.25"/>
        <line class="cls-2" x1="69.73" y1="84.26" x2="69.94" y2="84.26"/>
        <line class="cls-2" x1="69.94" y1="84.26" x2="69.62" y2="84.85"/>
        <line class="cls-2" x1="69.62" y1="84.85" x2="68.76" y2="85.02"/>
        <line class="cls-2" x1="68.66" y1="85.09" x2="68.76" y2="85.02"/>
        <line class="cls-2" x1="68.62" y1="85.19" x2="68.66" y2="85.09"/>
        <line class="cls-2" x1="68.62" y1="85.19" x2="68.62" y2="85.42"/>
        <line class="cls-2" x1="68.62" y1="85.52" x2="68.64" y2="85.42"/>
        <line class="cls-2" x1="68.64" y1="85.59" x2="68.74" y2="85.52"/>
        <line class="cls-2" x1="68.74" y1="85.59" x2="69.16" y2="85.71"/>
        <line class="cls-2" x1="69.05" y1="85.9" x2="69.16" y2="85.71"/>
        <line class="cls-2" x1="68.95" y1="85.9" x2="69.05" y2="85.89"/>
        <line class="cls-2" x1="68.75" y1="85.94" x2="68.95" y2="85.89"/>
        <line class="cls-2" x1="68.59" y1="86.06" x2="68.75" y2="85.94"/>
        <line class="cls-2" x1="68.51" y1="86.25" x2="68.59" y2="86.06"/>
        <line class="cls-2" x1="68.51" y1="86.25" x2="67.96" y2="86.25"/>
        <line class="cls-2" x1="67.91" y1="86.26" x2="67.96" y2="86.25"/>
        <line class="cls-2" x1="67.87" y1="86.3" x2="67.91" y2="86.26"/>
        <line class="cls-2" x1="67.86" y1="86.35" x2="67.87" y2="86.3"/>
        <line class="cls-2" x1="67.86" y1="86.4" x2="67.87" y2="86.35"/>
        <line class="cls-2" x1="67.87" y1="86.44" x2="67.91" y2="86.4"/>
        <line class="cls-2" x1="67.91" y1="86.46" x2="67.96" y2="86.44"/>
        <line class="cls-2" x1="67.96" y1="86.46" x2="68.92" y2="86.46"/>
        <line class="cls-2" x1="68.82" y1="85.4" x2="69.26" y2="85.52"/>
        <line class="cls-2" x1="68.82" y1="85.4" x2="68.82" y2="85.22"/>
        <path class="cls-2" d="M85.13,148.96c12.49-.03,24.92-.15,37.35-1.31,5.63-.6,10.97-1.83,16.25-3.59,3.56-1.2,6.65-2.03,10.01-3.7,5.99-2.99,7.5-10.2,9.39-16.03,3.39-11.16,8.62-28.38,11.92-39.26l-.27-.18c-1.56-1.46-3.69-2.11-5.45-3.27-5.98-3.95-11.95-7.97-18.11-11.73-4.65-2.7-9.13-6.02-14.38-7.51-6.13-1.46-11.85-1.75-18.16-2.41-9.53-.89-19.05-1.26-28.63-1.37-9.58.11-19.1.48-28.63,1.37-6.31.66-12.03.94-18.16,2.41-5.25,1.49-9.73,4.81-14.38,7.51-6.15,3.76-12.13,7.78-18.11,11.73-1.75,1.16-3.89,1.8-5.45,3.27l-.27.18c3.3,10.88,8.53,28.1,11.92,39.26,1.89,5.83,3.4,13.04,9.39,16.03,3.36,1.68,6.45,2.51,10.01,3.7,5.28,1.76,10.62,2.99,16.25,3.59,12.42,1.16,24.85,1.29,37.35,1.31h.14Z"/>
      </g>
      <g>
        <line class="cls-1" x1="78.09" y1="28.41" x2="65.96" y2="78.34"/>
        <polygon class="cls-5" points="64.78 77.04 64.92 82.65 67.61 77.72 64.78 77.04"/>
      </g>
    </g>
  </g>
</svg>