<?xml version="1.0" encoding="UTF-8"?>
<svg id="_图层_2" data-name="图层 2" xmlns="http://www.w3.org/2000/svg" viewBox="0 0 170.12 140.67">
  <defs>
    <style>
      .cls-1 {
        stroke-width: .5px;
      }

      .cls-1, .cls-2, .cls-3, .cls-4 {
        fill: none;
        stroke-linecap: square;
        stroke-miterlimit: 10;
      }

      .cls-1, .cls-3 {
        stroke: #e60012;
      }

      .cls-5 {
        fill: #e60012;
      }

      .cls-2, .cls-3, .cls-4 {
        stroke-width: .12px;
      }

      .cls-2, .cls-4 {
        stroke: #070001;
      }

      .cls-4 {
        fill-rule: evenodd;
      }
    </style>
  </defs>
  <g id="_图层_1-2" data-name="图层 1">
    <g>
      <g>
        <line class="cls-2" x1="84" y1="17.91" x2="81.53" y2="17.91"/>
        <polyline class="cls-2" points="81.43 17.81 81.43 17.91 81.53 17.91"/>
        <line class="cls-2" x1="81.43" y1="17.81" x2="81.43" y2="5.75"/>
        <polyline class="cls-2" points="81.53 5.65 81.43 5.65 81.43 5.75"/>
        <line class="cls-2" x1="81.53" y1="5.65" x2="84.73" y2="5.65"/>
        <polyline class="cls-2" points="84.73 5.65 84.83 5.65 84.83 5.54"/>
        <line class="cls-2" x1="84.83" y1="5.54" x2="84.83" y2="4.72"/>
        <polyline class="cls-2" points="84.83 4.72 84.83 4.61 84.73 4.61"/>
        <line class="cls-2" x1="84.73" y1="4.61" x2="79.78" y2="4.61"/>
        <polyline class="cls-2" points="79.68 4.51 79.68 4.51 79.78 4.61"/>
        <line class="cls-2" x1="79.68" y1="4.51" x2="79.68" y2="3.89"/>
        <polyline class="cls-2" points="79.78 3.79 79.68 3.79 79.68 3.89"/>
        <line class="cls-2" x1="79.78" y1="3.79" x2="84.73" y2="3.79"/>
        <polyline class="cls-2" points="84.73 3.79 84.83 3.69 84.83 3.69"/>
        <line class="cls-2" x1="84.83" y1="3.69" x2="84.83" y2=".49"/>
        <polyline class="cls-2" points="85.34 .08 85.04 .18 84.83 .49"/>
        <line class="cls-2" x1="85.34" y1=".08" x2="88.64" y2=".08"/>
        <polyline class="cls-2" points="89.16 .49 88.95 .18 88.64 .08"/>
        <line class="cls-2" x1="89.16" y1=".49" x2="89.16" y2="3.69"/>
        <polyline class="cls-2" points="89.16 3.69 89.16 3.69 89.26 3.79"/>
        <line class="cls-2" x1="89.26" y1="3.79" x2="94.1" y2="3.79"/>
        <polyline class="cls-2" points="94.21 3.89 94.21 3.79 94.1 3.79"/>
        <line class="cls-2" x1="94.21" y1="3.89" x2="94.21" y2="4.51"/>
        <polyline class="cls-2" points="94.1 4.61 94.21 4.51 94.21 4.51"/>
        <line class="cls-2" x1="94.1" y1="4.61" x2="89.26" y2="4.61"/>
        <polyline class="cls-2" points="89.26 4.61 89.16 4.61 89.16 4.72"/>
        <line class="cls-2" x1="89.16" y1="4.72" x2="89.16" y2="5.54"/>
        <polyline class="cls-2" points="89.16 5.54 89.16 5.65 89.26 5.65"/>
        <line class="cls-2" x1="89.26" y1="5.65" x2="92.46" y2="5.65"/>
        <polyline class="cls-2" points="92.56 5.75 92.56 5.65 92.46 5.65"/>
        <line class="cls-2" x1="92.56" y1="5.75" x2="92.56" y2="17.81"/>
        <polyline class="cls-2" points="92.46 17.91 92.56 17.91 92.56 17.81"/>
        <line class="cls-2" x1="92.46" y1="17.91" x2="89.98" y2="17.91"/>
        <line class="cls-2" x1="84.31" y1="8.02" x2="89.67" y2="8.02"/>
        <polyline class="cls-2" points="90.09 8.43 89.98 8.12 89.67 8.02"/>
        <line class="cls-2" x1="90.09" y1="8.43" x2="90.09" y2="11.11"/>
        <polyline class="cls-2" points="89.67 11.52 89.98 11.42 90.09 11.11"/>
        <line class="cls-2" x1="89.67" y1="11.52" x2="84.31" y2="11.52"/>
        <polyline class="cls-2" points="83.9 11.11 84 11.42 84.31 11.52"/>
        <line class="cls-2" x1="83.9" y1="11.11" x2="83.9" y2="8.43"/>
        <polyline class="cls-2" points="84.31 8.02 84 8.12 83.9 8.43"/>
        <polyline class="cls-2" points="89.98 17.91 89.16 14.92 86.99 13.69 84.83 14.92 84 17.91"/>
        <polyline class="cls-2" points="86.99 21.62 87.41 21.52 87.92 21.42 88.33 21 88.75 20.59 89.05 20.08 89.26 19.35 89.47 18.63 89.47 17.91 89.47 17.19 89.26 16.47 89.05 15.75 88.75 15.23 88.33 14.72 87.92 14.41 87.41 14.2 86.99 14.2 86.48 14.2 86.07 14.41 85.65 14.72 85.24 15.23 84.93 15.75 84.62 16.47 84.52 17.19 84.42 17.91 84.52 18.63 84.62 19.35 84.93 20.08 85.24 20.59 85.65 21 86.07 21.42 86.48 21.52 86.99 21.62"/>
        <polyline class="cls-2" points="86.99 22.14 85.55 22.24 84.31 22.45 83.28 22.65 82.36 22.86 81.63 23.07 81.02 23.27 80.6 23.48 80.19 23.68 79.78 24.1 79.57 24.41 79.57 24.82 79.68 25.02 79.88 25.33 80.19 25.54 80.71 25.75 81.33 25.95 82.25 26.16 83.18 26.26 85.55 26.57 87.71 26.78 88.64 26.88 89.36 26.88 89.98 26.98 90.29 27.09 90.5 27.19 90.6 27.29 90.5 27.39 90.39 27.5 90.19 27.6 89.88 27.81 89.26 27.91 88.54 28.12 87.51 28.22 86.27 28.43"/>
        <polyline class="cls-2" points="86.99 22.14 86.17 22.45 85.55 22.76 84.93 23.07 84.52 23.37 84.21 23.58 84 23.79 83.7 24.2 83.7 24.51 83.9 24.71 84.21 24.92 84.62 25.02 85.14 25.13 85.86 25.23 86.68 25.23 87.61 25.33 89.57 25.54 90.6 25.64 91.43 25.75 92.15 25.85 92.76 26.05 93.28 26.16 93.59 26.36 93.9 26.47 94.1 26.67 94.21 26.78 94.1 26.98 94 27.19 93.8 27.39 93.49 27.6 92.97 27.81 92.56 27.91 92.15 28.01 91.53 28.12 90.81 28.22 89.98 28.32 88.95 28.32 87.71 28.43 86.27 28.43"/>
      </g>
      <g>
        <line class="cls-2" x1="115.14" y1="86.99" x2="107.63" y2="86.99"/>
        <polyline class="cls-2" points="117.25 89.09 117.23 88.79 117.16 88.5 117.05 88.21 116.91 87.95 116.74 87.71 116.52 87.5 116.28 87.32 116.02 87.18 115.73 87.07 115.44 87 115.14 86.99"/>
        <line class="cls-2" x1="117.25" y1="97.39" x2="117.25" y2="89.09"/>
        <polyline class="cls-2" points="115.14 99.5 115.44 99.48 115.74 99.41 116.02 99.31 116.28 99.16 116.53 98.99 116.74 98.77 116.92 98.53 117.07 98.27 117.17 97.98 117.23 97.69 117.25 97.39"/>
        <line class="cls-2" x1="107.64" y1="99.5" x2="115.14" y2="99.5"/>
        <polyline class="cls-2" points="105.53 97.39 105.54 97.69 105.61 97.99 105.71 98.27 105.86 98.53 106.04 98.78 106.25 98.99 106.5 99.17 106.76 99.32 107.04 99.42 107.34 99.48 107.64 99.5"/>
        <line class="cls-2" x1="105.53" y1="89.11" x2="105.53" y2="97.39"/>
        <polyline class="cls-2" points="107.63 86.99 107.33 87 107.04 87.07 106.76 87.18 106.49 87.32 106.25 87.5 106.04 87.71 105.86 87.96 105.71 88.23 105.61 88.5 105.54 88.8 105.53 89.11"/>
        <line class="cls-2" x1="85.81" y1="89.55" x2="85.8" y2="80.45"/>
        <line class="cls-2" x1="85.8" y1="80.45" x2="89.16" y2="82.45"/>
        <line class="cls-2" x1="89.16" y1="82.45" x2="89.16" y2="88.44"/>
        <line class="cls-2" x1="89.16" y1="88.44" x2="85.81" y2="89.55"/>
        <line class="cls-2" x1="101.46" y1="80.45" x2="101.46" y2="89.54"/>
        <line class="cls-2" x1="101.46" y1="89.54" x2="98.1" y2="88.42"/>
        <line class="cls-2" x1="98.1" y1="88.42" x2="98.1" y2="82.45"/>
        <line class="cls-2" x1="98.1" y1="82.45" x2="101.46" y2="80.45"/>
        <line class="cls-2" x1="89.45" y1="81.65" x2="86.58" y2="79.98"/>
        <line class="cls-2" x1="100.66" y1="79.98" x2="86.58" y2="79.98"/>
        <line class="cls-2" x1="100.66" y1="79.98" x2="97.81" y2="81.65"/>
        <line class="cls-2" x1="97.81" y1="81.65" x2="89.45" y2="81.65"/>
        <line class="cls-2" x1="89.04" y1="91.13" x2="86.33" y2="90.22"/>
        <line class="cls-2" x1="86.33" y1="90.22" x2="89.04" y2="89.32"/>
        <line class="cls-2" x1="89.04" y1="89.32" x2="98.23" y2="89.32"/>
        <line class="cls-2" x1="98.23" y1="89.32" x2="100.94" y2="90.22"/>
        <line class="cls-2" x1="100.94" y1="90.22" x2="98.23" y2="91.13"/>
        <line class="cls-2" x1="98.23" y1="91.13" x2="89.04" y2="91.13"/>
        <line class="cls-2" x1="97.82" y1="101.37" x2="100.69" y2="103.03"/>
        <line class="cls-2" x1="100.69" y1="103.03" x2="86.59" y2="103.05"/>
        <line class="cls-2" x1="86.59" y1="103.05" x2="89.46" y2="101.37"/>
        <line class="cls-2" x1="89.46" y1="101.37" x2="97.82" y2="101.37"/>
        <line class="cls-2" x1="85.81" y1="102.59" x2="85.81" y2="90.9"/>
        <line class="cls-2" x1="85.81" y1="90.9" x2="89.17" y2="92.01"/>
        <line class="cls-2" x1="89.17" y1="92.01" x2="89.17" y2="100.59"/>
        <line class="cls-2" x1="89.17" y1="100.59" x2="85.81" y2="102.59"/>
        <line class="cls-2" x1="101.46" y1="90.89" x2="101.46" y2="102.58"/>
        <line class="cls-2" x1="101.46" y1="102.58" x2="98.11" y2="100.59"/>
        <line class="cls-2" x1="98.11" y1="100.59" x2="98.1" y2="92.01"/>
        <line class="cls-2" x1="98.1" y1="92.01" x2="101.46" y2="90.89"/>
        <line class="cls-2" x1="68.74" y1="89.55" x2="68.74" y2="80.47"/>
        <line class="cls-2" x1="68.74" y1="80.47" x2="72.1" y2="82.46"/>
        <line class="cls-2" x1="72.1" y1="82.46" x2="72.1" y2="88.44"/>
        <line class="cls-2" x1="72.1" y1="88.44" x2="68.74" y2="89.55"/>
        <line class="cls-2" x1="72.37" y1="81.66" x2="69.5" y2="79.98"/>
        <line class="cls-2" x1="83.6" y1="79.99" x2="69.5" y2="79.98"/>
        <line class="cls-2" x1="83.6" y1="79.99" x2="80.75" y2="81.66"/>
        <line class="cls-2" x1="80.75" y1="81.66" x2="72.37" y2="81.66"/>
        <line class="cls-2" x1="71.97" y1="91.13" x2="69.26" y2="90.23"/>
        <line class="cls-2" x1="69.26" y1="90.23" x2="71.97" y2="89.32"/>
        <line class="cls-2" x1="71.97" y1="89.32" x2="81.15" y2="89.32"/>
        <line class="cls-2" x1="81.15" y1="89.32" x2="83.87" y2="90.22"/>
        <line class="cls-2" x1="83.87" y1="90.22" x2="81.15" y2="91.13"/>
        <line class="cls-2" x1="81.15" y1="91.13" x2="71.97" y2="91.13"/>
        <line class="cls-2" x1="80.75" y1="101.37" x2="83.62" y2="103.05"/>
        <line class="cls-2" x1="83.62" y1="103.05" x2="69.51" y2="103.05"/>
        <line class="cls-2" x1="69.51" y1="103.05" x2="72.39" y2="101.38"/>
        <line class="cls-2" x1="72.39" y1="101.38" x2="80.75" y2="101.37"/>
        <line class="cls-2" x1="68.74" y1="102.59" x2="68.74" y2="90.9"/>
        <line class="cls-2" x1="68.74" y1="90.9" x2="72.1" y2="92.01"/>
        <line class="cls-2" x1="72.1" y1="92.01" x2="72.1" y2="100.61"/>
        <line class="cls-2" x1="72.1" y1="100.61" x2="68.74" y2="102.59"/>
        <line class="cls-2" x1="84.38" y1="80.45" x2="84.38" y2="89.55"/>
        <line class="cls-2" x1="84.38" y1="89.55" x2="81.04" y2="88.44"/>
        <line class="cls-2" x1="81.04" y1="88.44" x2="81.02" y2="82.46"/>
        <line class="cls-2" x1="81.02" y1="82.46" x2="84.38" y2="80.45"/>
        <line class="cls-2" x1="84.38" y1="90.9" x2="84.4" y2="102.59"/>
        <line class="cls-2" x1="84.4" y1="102.59" x2="81.04" y2="100.59"/>
        <line class="cls-2" x1="81.04" y1="100.59" x2="81.04" y2="92.01"/>
        <line class="cls-2" x1="81.04" y1="92.01" x2="84.38" y2="90.9"/>
        <line class="cls-2" x1="63.72" y1="98.22" x2="55.2" y2="98.22"/>
        <line class="cls-2" x1="63.72" y1="99.73" x2="63.72" y2="98.22"/>
        <polyline class="cls-2" points="62.67 100.78 62.87 100.76 63.07 100.7 63.25 100.61 63.41 100.47 63.54 100.3 63.64 100.13 63.7 99.94 63.72 99.73"/>
        <line class="cls-2" x1="56.25" y1="100.78" x2="62.67" y2="100.78"/>
        <polyline class="cls-2" points="55.2 99.73 55.22 99.94 55.28 100.13 55.37 100.32 55.51 100.47 55.68 100.61 55.85 100.7 56.04 100.76 56.25 100.78"/>
        <line class="cls-2" x1="55.2" y1="98.22" x2="55.2" y2="99.73"/>
        <line class="cls-2" x1="55.2" y1="95.34" x2="55.2" y2="97.53"/>
        <line class="cls-2" x1="63.72" y1="95.34" x2="55.2" y2="95.34"/>
        <line class="cls-2" x1="63.72" y1="97.53" x2="63.72" y2="95.34"/>
        <line class="cls-2" x1="55.2" y1="97.53" x2="63.72" y2="97.53"/>
        <line class="cls-2" x1="55.2" y1="92.47" x2="55.2" y2="94.66"/>
        <line class="cls-2" x1="63.72" y1="92.47" x2="55.2" y2="92.47"/>
        <line class="cls-2" x1="63.72" y1="94.65" x2="63.72" y2="92.47"/>
        <line class="cls-2" x1="55.2" y1="94.66" x2="63.72" y2="94.65"/>
        <line class="cls-2" x1="55.2" y1="89.59" x2="55.2" y2="91.78"/>
        <line class="cls-2" x1="63.71" y1="89.59" x2="55.2" y2="89.59"/>
        <line class="cls-2" x1="63.72" y1="91.77" x2="63.71" y2="89.59"/>
        <line class="cls-2" x1="55.2" y1="91.78" x2="63.72" y2="91.77"/>
        <line class="cls-2" x1="55.2" y1="87.39" x2="55.2" y2="88.9"/>
        <polyline class="cls-2" points="56.25 86.33 56.04 86.36 55.85 86.41 55.66 86.52 55.51 86.65 55.37 86.81 55.28 86.99 55.22 87.19 55.2 87.39"/>
        <line class="cls-2" x1="62.66" y1="86.33" x2="56.25" y2="86.33"/>
        <polyline class="cls-2" points="63.71 87.39 63.7 87.18 63.63 86.98 63.54 86.81 63.41 86.64 63.25 86.52 63.07 86.41 62.87 86.36 62.66 86.33"/>
        <line class="cls-2" x1="63.71" y1="88.9" x2="63.71" y2="87.39"/>
        <line class="cls-2" x1="55.2" y1="88.9" x2="63.71" y2="88.9"/>
        <polyline class="cls-2" points="63.05 101.38 63.3 101.35 63.55 101.29 63.77 101.16 63.97 101 64.13 100.8 64.26 100.58 64.33 100.33 64.35 100.08"/>
        <line class="cls-2" x1="64.35" y1="87.03" x2="64.35" y2="100.08"/>
        <polyline class="cls-2" points="64.35 87.03 64.33 86.78 64.25 86.53 64.13 86.31 63.97 86.11 63.77 85.95 63.54 85.84 63.3 85.76 63.04 85.73"/>
        <polyline class="cls-2" points="55.93 85.73 55.68 85.76 55.43 85.84 55.2 85.95 55.01 86.11 54.85 86.31 54.72 86.55 54.65 86.78 54.63 87.04"/>
        <line class="cls-2" x1="54.63" y1="100.08" x2="54.63" y2="87.04"/>
        <polyline class="cls-2" points="54.63 100.08 54.65 100.33 54.73 100.58 54.85 100.8 55.01 101 55.2 101.17 55.44 101.29 55.68 101.35 55.94 101.38"/>
        <line class="cls-2" x1="63.05" y1="101.38" x2="55.94" y2="101.38"/>
        <polyline class="cls-2" points="64.92 86.93 64.89 86.65 64.83 86.39 64.72 86.12 64.58 85.89 64.41 85.68 64.2 85.51 63.96 85.36 63.7 85.26 63.43 85.19 63.16 85.17"/>
        <line class="cls-2" x1="64.92" y1="86.93" x2="64.96" y2="100.19"/>
        <polyline class="cls-2" points="63.2 101.95 63.47 101.93 63.74 101.87 64 101.75 64.23 101.6 64.44 101.43 64.62 101.22 64.76 100.99 64.88 100.72 64.93 100.46 64.96 100.19"/>
        <line class="cls-2" x1="63.2" y1="101.95" x2="55.85" y2="101.95"/>
        <polyline class="cls-2" points="54.09 100.19 54.1 100.46 54.17 100.74 54.27 100.99 54.42 101.22 54.6 101.43 54.81 101.62 55.05 101.76 55.3 101.87 55.57 101.93 55.85 101.95"/>
        <line class="cls-2" x1="54.09" y1="100.19" x2="54.05" y2="86.94"/>
        <polyline class="cls-2" points="55.81 85.17 55.53 85.19 55.26 85.26 55.01 85.36 54.77 85.51 54.56 85.69 54.38 85.9 54.23 86.14 54.13 86.39 54.06 86.66 54.05 86.94"/>
        <line class="cls-2" x1="86.8" y1="109.66" x2="85.95" y2="110.19"/>
        <line class="cls-2" x1="85.95" y1="107.64" x2="85.95" y2="110.19"/>
        <line class="cls-2" x1="86.8" y1="107.94" x2="86.8" y2="109.66"/>
        <line class="cls-2" x1="86.8" y1="107.94" x2="85.95" y2="107.64"/>
        <line class="cls-2" x1="86.8" y1="106.67" x2="85.95" y2="106.97"/>
        <line class="cls-2" x1="85.95" y1="105.06" x2="85.95" y2="106.97"/>
        <line class="cls-2" x1="86.8" y1="105.59" x2="86.8" y2="106.67"/>
        <line class="cls-2" x1="86.8" y1="105.59" x2="85.95" y2="105.06"/>
        <line class="cls-2" x1="89.91" y1="105.06" x2="89.07" y2="105.59"/>
        <line class="cls-2" x1="89.91" y1="106.97" x2="89.91" y2="105.06"/>
        <line class="cls-2" x1="89.07" y1="106.67" x2="89.07" y2="105.59"/>
        <line class="cls-2" x1="89.91" y1="106.97" x2="89.07" y2="106.67"/>
        <line class="cls-2" x1="89.92" y1="107.64" x2="89.07" y2="107.94"/>
        <line class="cls-2" x1="89.92" y1="110.19" x2="89.92" y2="107.64"/>
        <line class="cls-2" x1="89.07" y1="109.66" x2="89.07" y2="107.94"/>
        <line class="cls-2" x1="89.92" y1="110.19" x2="89.07" y2="109.66"/>
        <line class="cls-2" x1="89.38" y1="110.52" x2="88.83" y2="110.18"/>
        <line class="cls-2" x1="87.03" y1="110.18" x2="86.47" y2="110.53"/>
        <line class="cls-2" x1="88.82" y1="105.08" x2="89.38" y2="104.73"/>
        <line class="cls-2" x1="87.05" y1="105.08" x2="86.48" y2="104.73"/>
        <line class="cls-2" x1="86.69" y1="107.31" x2="87.28" y2="107.52"/>
        <line class="cls-2" x1="87.28" y1="107.09" x2="86.69" y2="107.31"/>
        <line class="cls-2" x1="89.17" y1="107.3" x2="88.58" y2="107.09"/>
        <line class="cls-2" x1="88.58" y1="107.52" x2="89.17" y2="107.3"/>
        <line class="cls-2" x1="86.48" y1="104.73" x2="89.38" y2="104.73"/>
        <line class="cls-2" x1="87.05" y1="105.08" x2="88.82" y2="105.08"/>
        <line class="cls-2" x1="86.47" y1="110.53" x2="89.38" y2="110.53"/>
        <line class="cls-2" x1="87.03" y1="110.18" x2="88.83" y2="110.18"/>
        <line class="cls-2" x1="87.28" y1="107.52" x2="88.58" y2="107.52"/>
        <line class="cls-2" x1="87.28" y1="107.09" x2="88.58" y2="107.09"/>
        <line class="cls-2" x1="91.54" y1="109.66" x2="90.7" y2="110.19"/>
        <line class="cls-2" x1="90.7" y1="107.64" x2="90.7" y2="110.19"/>
        <line class="cls-2" x1="91.54" y1="107.94" x2="91.54" y2="109.66"/>
        <line class="cls-2" x1="91.54" y1="107.94" x2="90.7" y2="107.64"/>
        <line class="cls-2" x1="91.54" y1="106.67" x2="90.7" y2="106.97"/>
        <line class="cls-2" x1="90.7" y1="105.07" x2="90.7" y2="106.97"/>
        <line class="cls-2" x1="91.54" y1="105.59" x2="91.54" y2="106.67"/>
        <line class="cls-2" x1="91.54" y1="105.59" x2="90.7" y2="105.07"/>
        <line class="cls-2" x1="94.66" y1="105.06" x2="93.82" y2="105.59"/>
        <line class="cls-2" x1="94.66" y1="106.97" x2="94.66" y2="105.06"/>
        <line class="cls-2" x1="93.82" y1="106.67" x2="93.82" y2="105.59"/>
        <line class="cls-2" x1="94.66" y1="106.97" x2="93.82" y2="106.67"/>
        <line class="cls-2" x1="94.66" y1="107.64" x2="93.82" y2="107.94"/>
        <line class="cls-2" x1="94.66" y1="110.19" x2="94.66" y2="107.64"/>
        <line class="cls-2" x1="93.82" y1="109.66" x2="93.82" y2="107.94"/>
        <line class="cls-2" x1="94.66" y1="110.19" x2="93.82" y2="109.66"/>
        <line class="cls-2" x1="94.12" y1="110.52" x2="93.58" y2="110.18"/>
        <line class="cls-2" x1="91.77" y1="110.18" x2="91.21" y2="110.53"/>
        <line class="cls-2" x1="93.56" y1="105.08" x2="94.12" y2="104.73"/>
        <line class="cls-2" x1="91.8" y1="105.08" x2="91.24" y2="104.73"/>
        <line class="cls-2" x1="91.43" y1="107.31" x2="92.04" y2="107.52"/>
        <line class="cls-2" x1="92.04" y1="107.09" x2="91.43" y2="107.31"/>
        <line class="cls-2" x1="93.93" y1="107.31" x2="93.32" y2="107.09"/>
        <line class="cls-2" x1="93.32" y1="107.52" x2="93.93" y2="107.31"/>
        <line class="cls-2" x1="91.24" y1="104.73" x2="94.12" y2="104.73"/>
        <line class="cls-2" x1="91.8" y1="105.08" x2="93.56" y2="105.08"/>
        <line class="cls-2" x1="91.21" y1="110.53" x2="94.12" y2="110.53"/>
        <line class="cls-2" x1="91.77" y1="110.18" x2="93.58" y2="110.18"/>
        <line class="cls-2" x1="92.04" y1="107.52" x2="93.32" y2="107.52"/>
        <line class="cls-2" x1="92.04" y1="107.09" x2="93.32" y2="107.09"/>
        <line class="cls-2" x1="96.29" y1="109.66" x2="95.44" y2="110.19"/>
        <line class="cls-2" x1="95.44" y1="107.64" x2="95.44" y2="110.19"/>
        <line class="cls-2" x1="96.29" y1="107.94" x2="96.29" y2="109.66"/>
        <line class="cls-2" x1="96.29" y1="107.94" x2="95.44" y2="107.64"/>
        <line class="cls-2" x1="96.29" y1="106.67" x2="95.44" y2="106.97"/>
        <line class="cls-2" x1="95.44" y1="105.06" x2="95.44" y2="106.97"/>
        <line class="cls-2" x1="96.29" y1="105.59" x2="96.29" y2="106.67"/>
        <line class="cls-2" x1="96.29" y1="105.59" x2="95.44" y2="105.06"/>
        <line class="cls-2" x1="99.4" y1="105.06" x2="98.56" y2="105.59"/>
        <line class="cls-2" x1="99.4" y1="106.97" x2="99.4" y2="105.06"/>
        <line class="cls-2" x1="98.56" y1="106.67" x2="98.56" y2="105.59"/>
        <line class="cls-2" x1="99.4" y1="106.97" x2="98.56" y2="106.67"/>
        <line class="cls-2" x1="99.4" y1="107.64" x2="98.56" y2="107.94"/>
        <line class="cls-2" x1="99.4" y1="110.19" x2="99.4" y2="107.64"/>
        <line class="cls-2" x1="98.56" y1="109.66" x2="98.56" y2="107.94"/>
        <line class="cls-2" x1="99.4" y1="110.19" x2="98.56" y2="109.66"/>
        <line class="cls-2" x1="98.87" y1="110.52" x2="98.32" y2="110.18"/>
        <line class="cls-2" x1="96.51" y1="110.18" x2="95.96" y2="110.53"/>
        <line class="cls-2" x1="98.31" y1="105.08" x2="98.87" y2="104.73"/>
        <line class="cls-2" x1="96.54" y1="105.08" x2="95.97" y2="104.73"/>
        <line class="cls-2" x1="96.17" y1="107.3" x2="96.77" y2="107.52"/>
        <line class="cls-2" x1="96.77" y1="107.09" x2="96.17" y2="107.3"/>
        <line class="cls-2" x1="98.66" y1="107.3" x2="98.07" y2="107.09"/>
        <line class="cls-2" x1="98.07" y1="107.52" x2="98.66" y2="107.3"/>
        <line class="cls-2" x1="95.97" y1="104.73" x2="98.87" y2="104.73"/>
        <line class="cls-2" x1="96.54" y1="105.08" x2="98.31" y2="105.08"/>
        <line class="cls-2" x1="95.96" y1="110.53" x2="98.87" y2="110.53"/>
        <line class="cls-2" x1="96.51" y1="110.18" x2="98.32" y2="110.18"/>
        <line class="cls-2" x1="96.77" y1="107.52" x2="98.07" y2="107.52"/>
        <line class="cls-2" x1="96.77" y1="107.09" x2="98.07" y2="107.09"/>
        <line class="cls-2" x1="101.03" y1="109.66" x2="100.19" y2="110.19"/>
        <line class="cls-2" x1="100.17" y1="107.64" x2="100.19" y2="110.19"/>
        <line class="cls-2" x1="101.03" y1="107.94" x2="101.03" y2="109.66"/>
        <line class="cls-2" x1="101.03" y1="107.94" x2="100.17" y2="107.64"/>
        <line class="cls-2" x1="101.03" y1="106.67" x2="100.17" y2="106.97"/>
        <line class="cls-2" x1="100.17" y1="105.06" x2="100.17" y2="106.97"/>
        <line class="cls-2" x1="101.03" y1="105.59" x2="101.03" y2="106.67"/>
        <line class="cls-2" x1="101.03" y1="105.59" x2="100.17" y2="105.06"/>
        <line class="cls-2" x1="104.15" y1="105.06" x2="103.3" y2="105.59"/>
        <line class="cls-2" x1="104.15" y1="106.97" x2="104.15" y2="105.06"/>
        <line class="cls-2" x1="103.3" y1="106.67" x2="103.3" y2="105.59"/>
        <line class="cls-2" x1="104.15" y1="106.97" x2="103.3" y2="106.67"/>
        <line class="cls-2" x1="104.15" y1="107.64" x2="103.3" y2="107.94"/>
        <line class="cls-2" x1="104.15" y1="110.19" x2="104.15" y2="107.64"/>
        <line class="cls-2" x1="103.3" y1="109.66" x2="103.3" y2="107.94"/>
        <line class="cls-2" x1="104.15" y1="110.19" x2="103.3" y2="109.66"/>
        <line class="cls-2" x1="103.61" y1="110.52" x2="103.08" y2="110.18"/>
        <line class="cls-2" x1="101.26" y1="110.18" x2="100.7" y2="110.53"/>
        <line class="cls-2" x1="103.05" y1="105.08" x2="103.61" y2="104.73"/>
        <line class="cls-2" x1="101.28" y1="105.08" x2="100.71" y2="104.73"/>
        <line class="cls-2" x1="100.92" y1="107.3" x2="101.51" y2="107.51"/>
        <line class="cls-2" x1="101.51" y1="107.09" x2="100.92" y2="107.3"/>
        <line class="cls-2" x1="103.4" y1="107.3" x2="102.81" y2="107.09"/>
        <line class="cls-2" x1="102.81" y1="107.51" x2="103.4" y2="107.3"/>
        <line class="cls-2" x1="100.71" y1="104.73" x2="103.61" y2="104.73"/>
        <line class="cls-2" x1="101.28" y1="105.08" x2="103.05" y2="105.08"/>
        <line class="cls-2" x1="100.7" y1="110.53" x2="103.61" y2="110.53"/>
        <line class="cls-2" x1="101.26" y1="110.18" x2="103.08" y2="110.18"/>
        <line class="cls-2" x1="101.51" y1="107.51" x2="102.81" y2="107.51"/>
        <line class="cls-2" x1="101.51" y1="107.09" x2="102.81" y2="107.09"/>
        <line class="cls-2" x1="105.77" y1="109.65" x2="104.93" y2="110.19"/>
        <line class="cls-2" x1="104.93" y1="107.64" x2="104.93" y2="110.19"/>
        <line class="cls-2" x1="105.77" y1="107.94" x2="105.77" y2="109.65"/>
        <line class="cls-2" x1="105.77" y1="107.94" x2="104.93" y2="107.64"/>
        <line class="cls-2" x1="105.77" y1="106.67" x2="104.93" y2="106.97"/>
        <line class="cls-2" x1="104.93" y1="105.06" x2="104.93" y2="106.97"/>
        <line class="cls-2" x1="105.77" y1="105.58" x2="105.77" y2="106.67"/>
        <line class="cls-2" x1="105.77" y1="105.58" x2="104.93" y2="105.06"/>
        <line class="cls-2" x1="108.89" y1="105.06" x2="108.04" y2="105.58"/>
        <line class="cls-2" x1="108.89" y1="106.96" x2="108.89" y2="105.06"/>
        <line class="cls-2" x1="108.04" y1="106.67" x2="108.04" y2="105.58"/>
        <line class="cls-2" x1="108.89" y1="106.96" x2="108.04" y2="106.67"/>
        <line class="cls-2" x1="108.89" y1="107.64" x2="108.05" y2="107.94"/>
        <line class="cls-2" x1="108.89" y1="110.19" x2="108.89" y2="107.64"/>
        <line class="cls-2" x1="108.05" y1="109.65" x2="108.05" y2="107.94"/>
        <line class="cls-2" x1="108.89" y1="110.19" x2="108.05" y2="109.65"/>
        <line class="cls-2" x1="108.35" y1="110.52" x2="107.81" y2="110.18"/>
        <line class="cls-2" x1="106" y1="110.18" x2="105.44" y2="110.53"/>
        <line class="cls-2" x1="107.79" y1="105.08" x2="108.35" y2="104.73"/>
        <line class="cls-2" x1="106.02" y1="105.08" x2="105.45" y2="104.73"/>
        <line class="cls-2" x1="105.66" y1="107.3" x2="106.25" y2="107.51"/>
        <line class="cls-2" x1="106.25" y1="107.09" x2="105.66" y2="107.3"/>
        <line class="cls-2" x1="108.15" y1="107.3" x2="107.55" y2="107.09"/>
        <line class="cls-2" x1="107.55" y1="107.51" x2="108.15" y2="107.3"/>
        <line class="cls-2" x1="105.45" y1="104.73" x2="108.35" y2="104.73"/>
        <line class="cls-2" x1="106.02" y1="105.08" x2="107.79" y2="105.08"/>
        <line class="cls-2" x1="105.44" y1="110.53" x2="108.35" y2="110.53"/>
        <line class="cls-2" x1="106" y1="110.18" x2="107.81" y2="110.18"/>
        <line class="cls-2" x1="106.25" y1="107.51" x2="107.55" y2="107.51"/>
        <line class="cls-2" x1="106.25" y1="107.09" x2="107.55" y2="107.09"/>
        <line class="cls-2" x1="110.26" y1="95.28" x2="109.4" y2="95.8"/>
        <line class="cls-2" x1="109.4" y1="93.27" x2="109.4" y2="95.8"/>
        <line class="cls-2" x1="110.26" y1="93.56" x2="110.26" y2="95.28"/>
        <line class="cls-2" x1="110.26" y1="93.56" x2="109.4" y2="93.27"/>
        <line class="cls-2" x1="110.26" y1="92.3" x2="109.4" y2="92.58"/>
        <line class="cls-2" x1="109.4" y1="90.68" x2="109.4" y2="92.58"/>
        <line class="cls-2" x1="110.26" y1="91.21" x2="110.26" y2="92.3"/>
        <line class="cls-2" x1="110.26" y1="91.21" x2="109.4" y2="90.68"/>
        <line class="cls-2" x1="113.37" y1="90.68" x2="112.53" y2="91.21"/>
        <line class="cls-2" x1="113.37" y1="92.58" x2="113.37" y2="90.68"/>
        <line class="cls-2" x1="112.53" y1="92.28" x2="112.53" y2="91.21"/>
        <line class="cls-2" x1="113.37" y1="92.58" x2="112.53" y2="92.28"/>
        <line class="cls-2" x1="113.37" y1="93.27" x2="112.53" y2="93.56"/>
        <line class="cls-2" x1="113.37" y1="95.8" x2="113.37" y2="93.27"/>
        <line class="cls-2" x1="112.53" y1="95.28" x2="112.53" y2="93.56"/>
        <line class="cls-2" x1="113.37" y1="95.8" x2="112.53" y2="95.28"/>
        <line class="cls-2" x1="112.84" y1="96.14" x2="112.29" y2="95.8"/>
        <line class="cls-2" x1="110.49" y1="95.8" x2="109.93" y2="96.16"/>
        <line class="cls-2" x1="112.28" y1="90.71" x2="112.84" y2="90.35"/>
        <line class="cls-2" x1="110.5" y1="90.71" x2="109.94" y2="90.35"/>
        <line class="cls-2" x1="110.14" y1="92.93" x2="110.74" y2="93.14"/>
        <line class="cls-2" x1="110.74" y1="92.72" x2="110.14" y2="92.93"/>
        <line class="cls-2" x1="112.63" y1="92.93" x2="112.04" y2="92.72"/>
        <line class="cls-2" x1="112.04" y1="93.14" x2="112.63" y2="92.93"/>
        <line class="cls-2" x1="109.94" y1="90.35" x2="112.84" y2="90.35"/>
        <line class="cls-2" x1="110.5" y1="90.71" x2="112.28" y2="90.71"/>
        <line class="cls-2" x1="109.93" y1="96.16" x2="112.84" y2="96.16"/>
        <line class="cls-2" x1="110.49" y1="95.8" x2="112.29" y2="95.8"/>
        <line class="cls-2" x1="110.74" y1="93.14" x2="112.04" y2="93.14"/>
        <line class="cls-2" x1="110.74" y1="92.72" x2="112.04" y2="92.72"/>
        <line class="cls-2" x1="55.81" y1="85.17" x2="57.03" y2="85.17"/>
        <polyline class="cls-2" points="57.03 85.17 57.13 85.15 57.22 85.09 57.28 85 57.3 84.89"/>
        <line class="cls-2" x1="57.3" y1="84.89" x2="57.3" y2="84.83"/>
        <polyline class="cls-2" points="57.59 84.55 57.47 84.58 57.38 84.63 57.33 84.72 57.3 84.83"/>
        <line class="cls-2" x1="57.59" y1="84.55" x2="61.37" y2="84.55"/>
        <polyline class="cls-2" points="61.65 84.83 61.62 84.72 61.57 84.63 61.48 84.58 61.37 84.55"/>
        <line class="cls-2" x1="61.65" y1="84.83" x2="61.65" y2="84.89"/>
        <polyline class="cls-2" points="61.65 84.89 61.67 85 61.73 85.09 61.82 85.15 61.92 85.17"/>
        <line class="cls-2" x1="61.92" y1="85.17" x2="63.16" y2="85.17"/>
        <line class="cls-2" x1="55.93" y1="85.73" x2="57.46" y2="85.73"/>
        <polyline class="cls-2" points="57.46 85.73 57.57 85.7 57.66 85.65 57.72 85.56 57.74 85.46"/>
        <line class="cls-2" x1="57.74" y1="85.46" x2="57.74" y2="85.46"/>
        <polyline class="cls-2" points="58.03 85.17 57.92 85.19 57.83 85.25 57.76 85.34 57.74 85.46"/>
        <line class="cls-2" x1="58.03" y1="85.17" x2="60.95" y2="85.17"/>
        <polyline class="cls-2" points="61.24 85.46 61.22 85.34 61.15 85.25 61.06 85.19 60.95 85.17"/>
        <line class="cls-2" x1="61.24" y1="85.46" x2="61.24" y2="85.46"/>
        <polyline class="cls-2" points="61.24 85.46 61.25 85.56 61.32 85.65 61.41 85.7 61.52 85.73"/>
        <line class="cls-2" x1="61.52" y1="85.73" x2="63.04" y2="85.73"/>
        <line class="cls-2" x1="107.75" y1="99.19" x2="115.02" y2="99.19"/>
        <polyline class="cls-2" points="115.02 99.19 115.32 99.16 115.61 99.08 115.89 98.98 116.15 98.82 116.37 98.62 116.57 98.4 116.73 98.14 116.83 97.86 116.91 97.57 116.92 97.28"/>
        <line class="cls-2" x1="116.92" y1="97.28" x2="116.92" y2="89.21"/>
        <polyline class="cls-2" points="116.92 89.21 116.91 88.91 116.83 88.62 116.73 88.34 116.57 88.09 116.37 87.86 116.15 87.67 115.89 87.52 115.61 87.4 115.32 87.33 115.02 87.31"/>
        <line class="cls-2" x1="115.02" y1="87.31" x2="107.75" y2="87.31"/>
        <polyline class="cls-2" points="107.75 87.31 107.46 87.33 107.16 87.4 106.88 87.52 106.63 87.67 106.41 87.86 106.21 88.09 106.05 88.34 105.94 88.62 105.87 88.91 105.84 89.21"/>
        <line class="cls-2" x1="105.84" y1="89.21" x2="105.84" y2="97.28"/>
        <polyline class="cls-2" points="105.84 97.28 105.87 97.57 105.94 97.86 106.05 98.14 106.21 98.4 106.41 98.62 106.63 98.82 106.88 98.98 107.16 99.08 107.46 99.16 107.75 99.19"/>
        <polyline class="cls-2" points="110.85 109.65 110.85 109.69 111.24 109.3 111.24 109.28 111.25 109.27 111.27 109.27 111.28 109.26 111.29 109.26 111.32 109.26 111.36 109.26 111.41 109.26 111.42 109.26 111.44 109.26 111.45 109.27 111.46 109.27 111.46 109.28 111.46 109.28 111.46 109.3 111.45 109.31 111.45 109.34 111.44 109.35 111.06 109.72 111.48 110.27 111.49 110.28 111.5 110.3 111.5 110.31 111.5 110.32 111.5 110.32 111.5 110.33 111.49 110.33 111.49 110.35"/>
        <polyline class="cls-2" points="111.41 110.36 111.45 110.35 111.49 110.35"/>
        <polyline class="cls-2" points="111.41 110.36 111.36 110.35 111.33 110.35 111.32 110.35 111.31 110.35 111.29 110.33 111.29 110.32 111.28 110.32 110.85 109.81 110.85 110.32 110.85 110.32 110.85 110.33 110.83 110.33 110.83 110.35"/>
        <polyline class="cls-2" points="110.68 110.35 110.75 110.36 110.83 110.35"/>
        <polyline class="cls-2" points="110.68 110.35 110.68 110.33 110.66 110.33 110.66 110.32 110.66 110.32 110.66 108.8 110.66 108.79 110.66 108.77 110.68 108.77 110.68 108.76"/>
        <polyline class="cls-2" points="110.81 108.76 110.74 108.76 110.68 108.76"/>
        <polyline class="cls-2" points="110.81 108.76 110.82 108.76 110.83 108.76 110.83 108.77 110.85 108.77 110.85 108.79 110.85 108.8 110.85 109.65"/>
        <polyline class="cls-2" points="113.25 110.32 113.25 110.33 113.23 110.33 113.23 110.35"/>
        <polyline class="cls-2" points="113.08 110.35 113.16 110.36 113.23 110.35"/>
        <polyline class="cls-2" points="113.08 110.35 113.06 110.33 113.06 110.33 113.06 110.32 113.06 110.32 113.06 109.69"/>
        <polyline class="cls-2" points="113.06 109.69 113.05 109.64 113.05 109.57"/>
        <polyline class="cls-2" points="113.05 109.57 113.04 109.53 113.01 109.48"/>
        <polyline class="cls-2" points="113.01 109.48 112.95 109.42 112.85 109.4"/>
        <polyline class="cls-2" points="112.85 109.4 112.79 109.42 112.72 109.45"/>
        <polyline class="cls-2" points="112.72 109.45 112.64 109.52 112.58 109.6"/>
        <polyline class="cls-2" points="112.58 109.6 112.58 110.32 112.58 110.32 112.58 110.33 112.57 110.33 112.57 110.35"/>
        <polyline class="cls-2" points="112.43 110.35 112.5 110.36 112.57 110.35"/>
        <polyline class="cls-2" points="112.43 110.35 112.42 110.35 112.41 110.35 112.41 110.33 112.39 110.33 112.39 110.32 112.39 110.32 112.39 109.69"/>
        <polyline class="cls-2" points="112.39 109.69 112.39 109.64 112.38 109.57"/>
        <polyline class="cls-2" points="112.38 109.57 112.37 109.53 112.34 109.48"/>
        <polyline class="cls-2" points="112.34 109.48 112.32 109.45 112.28 109.43"/>
        <polyline class="cls-2" points="112.28 109.43 112.24 109.4 112.18 109.4"/>
        <polyline class="cls-2" points="112.18 109.4 112.12 109.42 112.05 109.45"/>
        <polyline class="cls-2" points="112.05 109.45 111.97 109.52 111.91 109.6"/>
        <polyline class="cls-2" points="111.91 109.6 111.91 110.32 111.91 110.32 111.91 110.33 111.9 110.33 111.9 110.35"/>
        <polyline class="cls-2" points="111.74 110.35 111.82 110.36 111.9 110.35"/>
        <polyline class="cls-2" points="111.74 110.35 111.74 110.33 111.73 110.33 111.73 110.32 111.73 110.32 111.73 109.28 111.73 109.28 111.73 109.27 111.74 109.27 111.74 109.26 111.75 109.26 111.76 109.26 111.8 109.26 111.86 109.26 111.87 109.26 111.88 109.26 111.88 109.27 111.9 109.27 111.9 109.28 111.9 109.28 111.9 109.43"/>
        <polyline class="cls-2" points="112.07 109.28 111.97 109.35 111.9 109.43"/>
        <polyline class="cls-2" points="112.22 109.24 112.15 109.24 112.07 109.28"/>
        <polyline class="cls-2" points="112.34 109.26 112.29 109.24 112.22 109.24"/>
        <polyline class="cls-2" points="112.43 109.3 112.39 109.27 112.34 109.26"/>
        <polyline class="cls-2" points="112.5 109.36 112.47 109.32 112.43 109.3"/>
        <polyline class="cls-2" points="112.54 109.44 112.53 109.4 112.5 109.36"/>
        <polyline class="cls-2" points="112.54 109.44 112.59 109.39 112.64 109.35"/>
        <polyline class="cls-2" points="112.74 109.28 112.68 109.31 112.64 109.35"/>
        <polyline class="cls-2" points="112.81 109.24 112.78 109.27 112.74 109.28"/>
        <polyline class="cls-2" points="112.89 109.24 112.85 109.24 112.81 109.24"/>
        <polyline class="cls-2" points="113.06 109.27 112.99 109.24 112.89 109.24"/>
        <polyline class="cls-2" points="113.17 109.36 113.12 109.31 113.06 109.27"/>
        <polyline class="cls-2" points="113.23 109.51 113.21 109.43 113.17 109.36"/>
        <polyline class="cls-2" points="113.25 109.66 113.25 109.59 113.23 109.51"/>
        <polyline class="cls-2" points="113.25 109.66 113.25 110.32 113.25 110.32"/>
        <polyline class="cls-2" points="81.22 105.29 81.21 105.32 81.19 105.36"/>
        <line class="cls-2" x1="81.19" y1="105.36" x2="81.19" y2="106.63"/>
        <polyline class="cls-2" points="81.19 106.63 81.21 106.66 81.22 106.68"/>
        <polyline class="cls-2" points="81.22 106.68 81.25 106.7 81.27 106.7"/>
        <polyline class="cls-2" points="81.27 106.7 81.57 106.7 81.64 106.7"/>
        <polyline class="cls-2" points="81.64 106.7 81.81 106.68 81.97 106.62 82.11 106.53"/>
        <polyline class="cls-2" points="82.11 106.53 82.19 106.42 82.24 106.29"/>
        <polyline class="cls-2" points="82.24 106.29 82.28 106.13 82.3 105.98"/>
        <polyline class="cls-2" points="82.3 105.98 82.28 105.82 82.24 105.69"/>
        <polyline class="cls-2" points="82.24 105.69 82.19 105.57 82.11 105.46"/>
        <polyline class="cls-2" points="82.11 105.46 82.02 105.38 81.9 105.33"/>
        <polyline class="cls-2" points="81.9 105.33 81.74 105.29 81.59 105.28"/>
        <line class="cls-2" x1="81.59" y1="105.28" x2="81.27" y2="105.28"/>
        <polyline class="cls-2" points="81.27 105.28 81.25 105.28 81.22 105.29"/>
        <polyline class="cls-2" points="82.94 105.46 82.86 105.52 82.79 105.59"/>
        <polyline class="cls-2" points="82.79 105.59 82.76 105.67 82.73 105.77"/>
        <polyline class="cls-2" points="82.73 105.77 82.7 105.87 82.7 105.99"/>
        <polyline class="cls-2" points="82.7 105.99 82.7 106.11 82.73 106.21"/>
        <polyline class="cls-2" points="82.73 106.21 82.76 106.32 82.79 106.4"/>
        <polyline class="cls-2" points="82.79 106.4 82.85 106.46 82.93 106.51"/>
        <polyline class="cls-2" points="82.93 106.51 83.07 106.55 83.2 106.55 83.35 106.51"/>
        <polyline class="cls-2" points="83.35 106.51 83.43 106.46 83.48 106.38"/>
        <polyline class="cls-2" points="83.48 106.38 83.53 106.3 83.56 106.21"/>
        <polyline class="cls-2" points="83.56 106.21 83.57 106.09 83.57 105.99"/>
        <polyline class="cls-2" points="83.57 105.99 83.57 105.87 83.56 105.77"/>
        <polyline class="cls-2" points="83.56 105.77 83.53 105.67 83.48 105.58"/>
        <polyline class="cls-2" points="83.48 105.58 83.43 105.52 83.35 105.46"/>
        <polyline class="cls-2" points="83.35 105.46 83.22 105.42 83.07 105.42 82.94 105.46"/>
        <polyline class="cls-2" points="79.97 106.67 80.09 106.71 80.22 106.72"/>
        <polyline class="cls-2" points="80.22 106.72 80.45 106.7 80.64 106.61"/>
        <polyline class="cls-2" points="80.64 106.61 80.69 106.57 80.73 106.53"/>
        <polyline class="cls-2" points="80.73 106.53 80.83 106.37 80.88 106.19"/>
        <polyline class="cls-2" points="80.88 106.19 80.89 106.08 80.89 105.98"/>
        <polyline class="cls-2" points="80.89 105.98 80.89 105.82 80.87 105.67"/>
        <polyline class="cls-2" points="80.87 105.67 80.81 105.56 80.75 105.44"/>
        <polyline class="cls-2" points="80.75 105.44 80.69 105.4 80.66 105.36"/>
        <polyline class="cls-2" points="80.66 105.36 80.47 105.28 80.29 105.25"/>
        <polyline class="cls-2" points="80.29 105.25 80.05 105.29 79.85 105.4"/>
        <polyline class="cls-2" points="79.85 105.4 79.71 105.58 79.64 105.79"/>
        <polyline class="cls-2" points="79.64 105.79 79.63 105.9 79.63 106"/>
        <polyline class="cls-2" points="79.63 106 79.63 106.07 79.63 106.15"/>
        <polyline class="cls-2" points="79.63 106.15 79.67 106.36 79.78 106.54"/>
        <polyline class="cls-2" points="79.78 106.54 79.87 106.62 79.97 106.67"/>
        <polyline class="cls-2" points="82.85 106.67 82.98 106.71 83.1 106.72"/>
        <polyline class="cls-2" points="83.1 106.72 83.32 106.7 83.52 106.61"/>
        <polyline class="cls-2" points="83.52 106.61 83.57 106.57 83.61 106.53"/>
        <polyline class="cls-2" points="83.61 106.53 83.7 106.37 83.75 106.19"/>
        <polyline class="cls-2" points="83.75 106.19 83.77 106.08 83.78 105.98"/>
        <polyline class="cls-2" points="83.78 105.98 83.77 105.82 83.74 105.67"/>
        <polyline class="cls-2" points="83.74 105.67 83.69 105.56 83.62 105.44"/>
        <polyline class="cls-2" points="83.62 105.44 83.58 105.4 83.53 105.36"/>
        <polyline class="cls-2" points="83.53 105.36 83.35 105.28 83.16 105.25"/>
        <polyline class="cls-2" points="83.16 105.25 82.94 105.29 82.73 105.4"/>
        <polyline class="cls-2" points="82.73 105.4 82.58 105.58 82.52 105.79"/>
        <polyline class="cls-2" points="82.52 105.79 82.51 105.9 82.51 106"/>
        <polyline class="cls-2" points="82.51 106 82.51 106.07 82.51 106.15"/>
        <polyline class="cls-2" points="82.51 106.15 82.56 106.36 82.65 106.54"/>
        <polyline class="cls-2" points="82.65 106.54 82.74 106.62 82.85 106.67"/>
        <polyline class="cls-2" points="81.97 105.59 81.9 105.53 81.82 105.48"/>
        <polyline class="cls-2" points="82.06 105.77 82.03 105.67 81.97 105.59"/>
        <polyline class="cls-2" points="82.1 105.98 82.09 105.87 82.06 105.77"/>
        <polyline class="cls-2" points="82.06 106.23 82.09 106.11 82.1 105.98"/>
        <polyline class="cls-2" points="81.73 106.53 81.88 106.47 81.99 106.37 82.06 106.23"/>
        <polyline class="cls-2" points="81.59 106.54 81.65 106.54 81.73 106.53"/>
        <polyline class="cls-2" points="81.59 106.54 81.39 106.54 81.39 105.44 81.57 105.44"/>
        <polyline class="cls-2" points="81.82 105.48 81.71 105.45 81.57 105.44"/>
        <polyline class="cls-2" points="80.6 105.58 80.55 105.52 80.47 105.46"/>
        <polyline class="cls-2" points="80.47 105.46 80.34 105.42 80.2 105.42 80.06 105.46"/>
        <polyline class="cls-2" points="80.06 105.46 79.92 105.59 79.85 105.77"/>
        <polyline class="cls-2" points="79.85 105.77 79.83 105.87 79.83 105.99"/>
        <polyline class="cls-2" points="79.83 105.99 79.83 106.11 79.84 106.21"/>
        <polyline class="cls-2" points="79.84 106.21 79.87 106.32 79.92 106.4"/>
        <polyline class="cls-2" points="79.92 106.4 79.97 106.46 80.05 106.51"/>
        <polyline class="cls-2" points="80.05 106.51 80.18 106.55 80.33 106.55 80.47 106.51"/>
        <polyline class="cls-2" points="80.47 106.51 80.54 106.46 80.6 106.38"/>
        <polyline class="cls-2" points="80.6 106.38 80.64 106.3 80.68 106.21"/>
        <polyline class="cls-2" points="80.68 106.21 80.69 106.09 80.69 105.99"/>
        <polyline class="cls-2" points="80.69 105.99 80.69 105.87 80.68 105.77"/>
        <polyline class="cls-2" points="80.68 105.77 80.66 105.67 80.6 105.58"/>
        <polyline class="cls-2" points="104.81 102.19 105.24 102.85 105.61 102.85 105.02 102"/>
        <polyline class="cls-2" points="104.81 102.19 105.24 102.85 105.61 102.85 105.02 102"/>
        <line class="cls-2" x1="105.02" y1="102" x2="105.6" y2="101.45"/>
        <polyline class="cls-2" points="105.6 101.45 105.16 101.45 104.65 101.97"/>
        <line class="cls-2" x1="104.65" y1="101.97" x2="104.65" y2="100.96"/>
        <polyline class="cls-2" points="104.65 100.96 104.35 100.96 104.35 102.85 104.65 102.85 104.65 102.35 104.81 102.19"/>
        <polyline class="cls-2" points="106.4 101.7 106.5 101.72 106.57 101.83 106.59 102 106.59 102.85 106.89 102.85 106.89 102 106.89 101.96 106.95 101.81 107.04 101.74 107.18 101.7 107.2 101.7"/>
        <polyline class="cls-2" points="106.4 101.7 106.5 101.72 106.57 101.83 106.59 102 106.59 102.85 106.89 102.85 106.89 102 106.89 101.96 106.95 101.81 107.04 101.74 107.18 101.7 107.2 101.7"/>
        <polyline class="cls-2" points="107.2 101.7 107.31 101.72 107.38 101.83 107.41 102 107.41 102.85 107.7 102.85 107.7 101.97 107.7 101.97 107.68 101.8 107.64 101.67"/>
        <polyline class="cls-2" points="107.2 101.7 107.31 101.72 107.38 101.83 107.41 102 107.41 102.85 107.7 102.85 107.7 101.97 107.7 101.97 107.68 101.8 107.64 101.67"/>
        <line class="cls-2" x1="106.08" y1="101.62" x2="106.08" y2="101.47"/>
        <polyline class="cls-2" points="106.08 101.47 105.78 101.47 105.78 102.85 106.08 102.85 106.08 102 106.08 101.96 106.15 101.83 106.24 101.74 106.37 101.7 106.4 101.7"/>
        <polyline class="cls-2" points="106.84 101.66 106.8 101.6 106.7 101.5 106.57 101.45 106.4 101.43"/>
        <polyline class="cls-2" points="106.4 101.43 106.32 101.45 106.19 101.5 106.08 101.62"/>
        <polyline class="cls-2" points="107.64 101.67 107.58 101.56 107.49 101.49 107.35 101.45 107.2 101.43"/>
        <polyline class="cls-2" points="107.2 101.43 107.07 101.46 106.95 101.52 106.84 101.66"/>
        <polyline class="cls-2" points="108.35 100.93 108.6 100.93 108.1 102.88 107.87 102.88 108.35 100.93 108.35 100.93"/>
        <polyline class="cls-2" points="109.39 101.68 109.43 101.68 109.55 101.74 109.63 101.83 109.64 102 109.64 102.85 109.94 102.85 109.94 101.97 109.94 101.95 109.93 101.79 109.89 101.66"/>
        <polyline class="cls-2" points="109.39 101.68 109.43 101.68 109.55 101.74 109.63 101.83 109.64 102 109.64 102.85 109.94 102.85 109.94 101.97 109.94 101.95 109.93 101.79 109.89 101.66"/>
        <polyline class="cls-2" points="109.89 101.66 109.82 101.55 109.72 101.49 109.59 101.45 109.44 101.43"/>
        <polyline class="cls-2" points="109.44 101.43 109.44 101.43 109.27 101.45 109.14 101.51 109.05 101.62"/>
        <line class="cls-2" x1="109.05" y1="101.62" x2="109.05" y2="100.96"/>
        <polyline class="cls-2" points="109.05 100.96 108.76 100.96 108.76 102.85 109.05 102.85 109.05 102 109.07 101.92 109.13 101.8 109.23 101.72 109.39 101.68"/>
        <line class="cls-2" x1="104.18" y1="77.62" x2="105.67" y2="77.62"/>
        <polyline class="cls-2" points="105.67 77.62 105.73 77.75 105.78 77.89"/>
        <polyline class="cls-2" points="105.78 77.89 104.18 77.89 104.18 77.62"/>
        <line class="cls-2" x1="104.18" y1="77.07" x2="105.56" y2="77.07"/>
        <polyline class="cls-2" points="105.56 77.07 105.58 77.21 105.61 77.34"/>
        <polyline class="cls-2" points="105.61 77.34 104.18 77.34 104.18 77.07"/>
        <line class="cls-2" x1="104.18" y1="76.53" x2="105.54" y2="76.53"/>
        <polyline class="cls-2" points="105.54 76.53 105.54 76.66 105.54 76.8"/>
        <polyline class="cls-2" points="105.54 76.8 104.18 76.8 104.18 76.53"/>
        <line class="cls-2" x1="104.18" y1="75.99" x2="105.62" y2="75.99"/>
        <polyline class="cls-2" points="105.62 75.99 105.6 76.12 105.57 76.27"/>
        <polyline class="cls-2" points="105.57 76.27 104.18 76.27 104.18 75.99"/>
        <polyline class="cls-2" points="105.81 75.44 105.74 75.58 105.7 75.71"/>
        <polyline class="cls-2" points="105.7 75.71 104.18 75.71 104.18 75.44 105.81 75.44"/>
        <polyline class="cls-2" points="107.37 77.76 107.67 77.66 107.94 77.5"/>
        <polyline class="cls-2" points="107.94 77.5 108.1 77.32 108.23 77.11 108.31 76.87"/>
        <polyline class="cls-2" points="108.31 76.87 108.34 76.62 108.3 76.37 108.21 76.13"/>
        <polyline class="cls-2" points="108.21 76.13 108.09 75.98 107.96 75.83"/>
        <polyline class="cls-2" points="107.96 75.83 107.73 75.69 107.5 75.6"/>
        <polyline class="cls-2" points="107.5 75.6 107.04 75.5 106.57 75.46 106.09 75.48"/>
        <polyline class="cls-2" points="106.09 75.48 105.96 75.79 105.87 76.13 105.83 76.49 105.82 76.83 105.86 77.18 105.95 77.53 106.07 77.85"/>
        <polyline class="cls-2" points="106.07 77.85 106.5 77.87 106.93 77.84 107.37 77.76"/>
        <polyline class="cls-2" points="107.31 77.53 107.55 77.43 107.79 77.3"/>
        <polyline class="cls-2" points="107.79 77.3 107.96 77.08 108.06 76.82"/>
        <polyline class="cls-2" points="108.06 76.82 108.09 76.63 108.06 76.44 108 76.25"/>
        <polyline class="cls-2" points="108 76.25 107.91 76.13 107.79 76.02"/>
        <polyline class="cls-2" points="107.79 76.02 107.63 75.91 107.43 75.83"/>
        <polyline class="cls-2" points="107.43 75.83 107.05 75.75 106.66 75.71 106.26 75.71"/>
        <polyline class="cls-2" points="106.26 75.71 106.16 76.02 106.09 76.34 106.07 76.66 106.08 76.99 106.15 77.3 106.24 77.62"/>
        <polyline class="cls-2" points="106.24 77.62 106.78 77.6 107.31 77.53"/>
        <polyline class="cls-2" points="80.76 108.51 79.72 108.51 79.72 108.67 80.14 108.67 80.14 109.98 80.33 109.98 80.33 108.67 80.76 108.67 80.76 108.51"/>
        <polyline class="cls-2" points="81.31 109.36 81.35 109.36 81.46 109.4 81.52 109.45 81.6 109.57 81.84 109.98 82.07 109.98 81.78 109.53 81.73 109.45 81.68 109.38 81.67 109.38 81.57 109.3"/>
        <polyline class="cls-2" points="81.31 109.36 81.35 109.36 81.46 109.4 81.52 109.45 81.6 109.57 81.84 109.98 82.07 109.98 81.78 109.53 81.73 109.45 81.68 109.38 81.67 109.38 81.57 109.3"/>
        <polyline class="cls-2" points="81.69 109.26 81.78 109.19 81.85 109.11 81.89 109.01 81.9 108.9 81.89 108.8 81.85 108.69 81.77 108.61"/>
        <polyline class="cls-2" points="81.4 108.67 81.53 108.69 81.63 108.73 81.68 108.8 81.69 108.92 81.68 109.02 81.61 109.11 81.52 109.18 81.4 109.19 81.18 109.19"/>
        <polyline class="cls-2" points="81.69 109.26 81.78 109.19 81.85 109.11 81.89 109.01 81.9 108.9 81.89 108.8 81.85 108.69 81.77 108.61"/>
        <polyline class="cls-2" points="81.4 108.67 81.53 108.69 81.63 108.73 81.68 108.8 81.69 108.92 81.68 109.02 81.61 109.11 81.52 109.18 81.4 109.19 81.18 109.19"/>
        <polyline class="cls-2" points="81.77 108.61 81.77 108.6 81.68 108.55 81.57 108.51 81.44 108.51"/>
        <polyline class="cls-2" points="81.18 109.19 81.18 108.67 81.4 108.67"/>
        <line class="cls-2" x1="81.57" y1="109.3" x2="81.69" y2="109.26"/>
        <polyline class="cls-2" points="81.44 108.51 80.98 108.51 80.98 109.98 81.18 109.98 81.18 109.36 81.31 109.36"/>
        <polyline class="cls-2" points="82.45 108.51 82.45 109.98 82.27 109.98 82.27 108.51 82.45 108.51 82.45 108.51"/>
        <polyline class="cls-2" points="83.65 109.27 83.71 109.18 83.75 109.07 83.77 108.96 83.77 108.93 83.74 108.81 83.7 108.71 83.64 108.61"/>
        <polyline class="cls-2" points="83.23 108.67 83.32 108.68 83.43 108.71 83.5 108.77 83.54 108.85 83.56 108.96 83.56 108.98 83.53 109.1 83.48 109.18 83.44 109.21 83.33 109.24 83.2 109.26 83.03 109.26"/>
        <polyline class="cls-2" points="83.65 109.27 83.71 109.18 83.75 109.07 83.77 108.96 83.77 108.93 83.74 108.81 83.7 108.71 83.64 108.61"/>
        <polyline class="cls-2" points="83.23 108.67 83.32 108.68 83.43 108.71 83.5 108.77 83.54 108.85 83.56 108.96 83.56 108.98 83.53 109.1 83.48 109.18 83.44 109.21 83.33 109.24 83.2 109.26 83.03 109.26"/>
        <polyline class="cls-2" points="83.64 108.61 83.6 108.59 83.5 108.55 83.39 108.51 83.25 108.51"/>
        <polyline class="cls-2" points="83.03 109.26 83.03 108.67 83.23 108.67"/>
        <polyline class="cls-2" points="83.25 108.51 82.83 108.51 82.83 109.98 83.03 109.98 83.03 109.43 83.22 109.43 83.29 109.43 83.41 109.42 83.52 109.36 83.61 109.3 83.65 109.27"/>
        <polyline class="cls-2" points="80.08 76.92 80.05 76.93 80.01 76.93 80.01 78.02 79.41 78.02 79.41 75.33 80.3 75.33 80.43 75.35 80.55 75.35 80.66 75.37 80.76 75.39 80.85 75.42 80.93 75.46 81 75.5 81.02 75.53 81.1 75.6 81.15 75.67 81.21 75.77 81.23 75.87 81.26 75.99 81.26 76.12 81.25 76.24 81.23 76.34 81.18 76.45 81.15 76.5 81.1 76.58 81.02 76.65 80.93 76.71 80.84 76.76 80.93 76.82 81 76.88 81.06 76.97 81.11 77.08 81.13 77.11 81.51 78.02 80.83 78.02 80.52 77.25 80.47 77.13 80.41 77.04 80.35 77 80.27 76.96 80.17 76.93 80.08 76.92"/>
        <polyline class="cls-2" points="80.3 75.82 80.01 75.82 80.01 76.44 80.3 76.44 80.42 76.42 80.51 76.4 80.55 76.36 80.6 76.28 80.63 76.16 80.63 76.12 80.62 76 80.58 75.91 80.55 75.9 80.47 75.85 80.37 75.82 80.3 75.82"/>
        <polyline class="cls-2" points="83.32 75.33 83.32 75.83 82.31 75.83 82.31 76.38 83.27 76.38 83.27 76.88 82.31 76.88 82.31 77.53 83.35 77.53 83.35 78.02 81.71 78.02 81.71 75.33 83.32 75.33"/>
        <polyline class="cls-2" points="88.4 77.51 88.33 77.6 88.26 77.68 88.18 77.76 88.1 77.83 88.01 77.88 87.91 77.92 87.81 77.96 87.74 77.97 87.68 78 87.59 78.01 87.48 78.01 87.36 78.02 87.24 78.02 86.29 78.02 86.29 75.33 87.19 75.33 87.32 75.33 87.44 75.35 87.55 75.36 87.64 75.37 87.73 75.39 87.8 75.4 87.89 75.44 87.99 75.48 88.08 75.53 88.16 75.6 88.19 75.62 88.27 75.69 88.35 75.78 88.41 75.86 88.48 75.95 88.53 76.06 88.54 76.08 88.58 76.19 88.61 76.29 88.64 76.4 88.65 76.51 88.66 76.63 88.66 76.69 88.65 76.8 88.64 76.92 88.62 77.03 88.6 77.13 88.56 77.24 88.52 77.33 88.47 77.42 88.4 77.51"/>
        <polyline class="cls-2" points="84.44 77.04 85.16 77.04 84.82 76.02 84.44 77.04"/>
        <polyline class="cls-2" points="89.24 75.33 89.77 76.21 90.32 75.33 91.03 75.33 90.07 76.8 90.07 78.02 89.46 78.02 89.46 76.8 88.52 75.33 89.24 75.33"/>
        <polyline class="cls-2" points="85.18 75.33 86.12 78.02 85.47 78.02 85.3 77.5 84.27 77.5 84.07 78.02 83.43 78.02 84.48 75.33 85.18 75.33"/>
        <polyline class="cls-2" points="87.34 75.88 86.89 75.88 86.89 77.49 87.34 77.49 87.45 77.47 87.55 77.45 87.64 77.42 87.73 77.35 87.81 77.29 87.85 77.25 87.9 77.17 87.95 77.08 87.99 76.97 88.02 76.87 88.03 76.75 88.03 76.69 88.03 76.55 88.01 76.44 87.98 76.33 87.94 76.24 87.87 76.15 87.85 76.11 87.77 76.03 87.69 75.98 87.6 75.92 87.49 75.9 87.39 75.88 87.34 75.88"/>
        <line class="cls-3" x1="100.21" y1="77.17" x2="99.9" y2="77.17"/>
        <polyline class="cls-3" points="99.89 77.16 99.89 77.17 99.9 77.17"/>
        <line class="cls-3" x1="99.89" y1="77.16" x2="99.89" y2="75.62"/>
        <polyline class="cls-3" points="99.9 75.61 99.89 75.61 99.89 75.62"/>
        <line class="cls-3" x1="99.9" y1="75.61" x2="100.31" y2="75.61"/>
        <polyline class="cls-3" points="100.31 75.61 100.32 75.61 100.32 75.6"/>
        <line class="cls-3" x1="100.32" y1="75.6" x2="100.32" y2="75.49"/>
        <polyline class="cls-3" points="100.32 75.49 100.32 75.48 100.31 75.48"/>
        <line class="cls-3" x1="100.31" y1="75.48" x2="99.68" y2="75.48"/>
        <polyline class="cls-3" points="99.66 75.46 99.66 75.46 99.68 75.48"/>
        <line class="cls-3" x1="99.66" y1="75.46" x2="99.66" y2="75.39"/>
        <polyline class="cls-3" points="99.68 75.37 99.66 75.37 99.66 75.39"/>
        <line class="cls-3" x1="99.68" y1="75.37" x2="100.31" y2="75.37"/>
        <polyline class="cls-3" points="100.31 75.37 100.32 75.36 100.32 75.36"/>
        <line class="cls-3" x1="100.32" y1="75.36" x2="100.32" y2="74.95"/>
        <polyline class="cls-3" points="100.38 74.9 100.34 74.91 100.32 74.95"/>
        <line class="cls-3" x1="100.38" y1="74.9" x2="100.8" y2="74.9"/>
        <polyline class="cls-3" points="100.87 74.95 100.84 74.91 100.8 74.9"/>
        <line class="cls-3" x1="100.87" y1="74.95" x2="100.87" y2="75.36"/>
        <polyline class="cls-3" points="100.87 75.36 100.87 75.36 100.88 75.37"/>
        <line class="cls-3" x1="100.88" y1="75.37" x2="101.5" y2="75.37"/>
        <polyline class="cls-3" points="101.51 75.39 101.51 75.37 101.5 75.37"/>
        <line class="cls-3" x1="101.51" y1="75.39" x2="101.51" y2="75.46"/>
        <polyline class="cls-3" points="101.5 75.48 101.51 75.46 101.51 75.46"/>
        <line class="cls-3" x1="101.5" y1="75.48" x2="100.88" y2="75.48"/>
        <polyline class="cls-3" points="100.88 75.48 100.87 75.48 100.87 75.49"/>
        <line class="cls-3" x1="100.87" y1="75.49" x2="100.87" y2="75.6"/>
        <polyline class="cls-3" points="100.87 75.6 100.87 75.61 100.88 75.61"/>
        <line class="cls-3" x1="100.88" y1="75.61" x2="101.29" y2="75.61"/>
        <polyline class="cls-3" points="101.3 75.62 101.3 75.61 101.29 75.61"/>
        <line class="cls-3" x1="101.3" y1="75.62" x2="101.3" y2="77.16"/>
        <polyline class="cls-3" points="101.29 77.17 101.3 77.17 101.3 77.16"/>
        <line class="cls-3" x1="101.29" y1="77.17" x2="100.97" y2="77.17"/>
        <line class="cls-3" x1="100.25" y1="75.91" x2="100.94" y2="75.91"/>
        <polyline class="cls-3" points="100.99 75.96 100.97 75.92 100.94 75.91"/>
        <line class="cls-3" x1="100.99" y1="75.96" x2="100.99" y2="76.3"/>
        <polyline class="cls-3" points="100.94 76.36 100.97 76.34 100.99 76.3"/>
        <line class="cls-3" x1="100.94" y1="76.36" x2="100.25" y2="76.36"/>
        <polyline class="cls-3" points="100.2 76.3 100.21 76.34 100.25 76.36"/>
        <line class="cls-3" x1="100.2" y1="76.3" x2="100.2" y2="75.96"/>
        <polyline class="cls-3" points="100.25 75.91 100.21 75.92 100.2 75.96"/>
        <polyline class="cls-3" points="100.97 77.17 100.87 76.79 100.59 76.63 100.32 76.79 100.21 77.17"/>
        <polyline class="cls-3" points="100.59 77.64 100.65 77.63 100.71 77.62 100.76 77.56 100.82 77.51 100.86 77.45 100.88 77.35 100.91 77.26 100.91 77.17 100.91 77.08 100.88 76.99 100.86 76.9 100.82 76.83 100.76 76.76 100.71 76.72 100.65 76.7 100.59 76.7 100.53 76.7 100.48 76.72 100.42 76.76 100.37 76.83 100.33 76.9 100.29 76.99 100.28 77.08 100.27 77.17 100.28 77.26 100.29 77.35 100.33 77.45 100.37 77.51 100.42 77.56 100.48 77.62 100.53 77.63 100.59 77.64"/>
        <polyline class="cls-3" points="100.59 77.71 100.41 77.72 100.25 77.75 100.12 77.77 100 77.8 99.91 77.83 99.83 77.85 99.78 77.88 99.73 77.91 99.68 77.96 99.65 78 99.65 78.05 99.66 78.08 99.69 78.12 99.73 78.14 99.79 78.17 99.87 78.2 99.99 78.22 100.11 78.23 100.41 78.27 100.69 78.3 100.8 78.31 100.9 78.31 100.97 78.33 101.01 78.34 101.04 78.35 101.05 78.37 101.04 78.38 101.03 78.39 101 78.41 100.96 78.43 100.88 78.44 100.79 78.47 100.66 78.48 100.5 78.51"/>
        <polyline class="cls-3" points="100.59 77.71 100.49 77.75 100.41 77.79 100.33 77.83 100.28 77.87 100.24 77.89 100.21 77.92 100.17 77.97 100.17 78.01 100.2 78.04 100.24 78.06 100.29 78.08 100.36 78.09 100.45 78.1 100.55 78.1 100.67 78.12 100.92 78.14 101.05 78.16 101.16 78.17 101.25 78.18 101.33 78.21 101.39 78.22 101.43 78.25 101.47 78.26 101.5 78.29 101.51 78.3 101.5 78.33 101.49 78.35 101.46 78.38 101.42 78.41 101.36 78.43 101.3 78.44 101.25 78.46 101.17 78.47 101.08 78.48 100.97 78.5 100.84 78.5 100.69 78.51 100.5 78.51"/>
        <polyline class="cls-2" points="62.79 75.82 62.8 75.67 62.84 75.53 62.92 75.41 63.01 75.31 63.13 75.23 63.26 75.16 63.41 75.15 63.42 75.15 63.42 75.15 63.43 75.15 63.49 75.15 63.56 75.15 63.67 75.15 63.79 75.15 63.92 75.15 64.21 75.15 64.48 75.15 64.6 75.15 64.69 75.15 64.77 75.15 64.8 75.15 64.81 75.15 64.85 75.15 64.92 75.16 65.06 75.2 65.18 75.27 65.28 75.37 65.36 75.49 65.42 75.62 65.44 75.77 65.44 75.81 65.44 75.82 65.44 75.82 65.44 75.83 65.44 75.86 65.44 75.91 65.44 76.03 65.44 76.08 65.44 76.11 65.46 76.11 65.47 76.08 65.53 76.02 65.59 75.95 65.61 75.94 65.61 75.94 65.63 75.95 65.65 75.98 65.72 76.04 65.74 76.08 65.77 76.09 65.77 76.11 65.76 76.12 65.73 76.15 65.67 76.21 65.57 76.3 65.48 76.41 65.4 76.49 65.38 76.53 65.35 76.54 65.34 76.55 65.34 76.55 65.32 76.55 65.3 76.53 65.23 76.45 65.06 76.27 64.97 76.19 64.94 76.15 64.92 76.12 64.9 76.11 64.9 76.11 64.9 76.09 64.93 76.07 64.97 76.03 65.02 75.96 65.05 75.94 65.06 75.94 65.06 75.95 65.09 75.96 65.15 76.04 65.19 76.07 65.21 76.09 65.22 76.11 65.22 76.09 65.22 76.06 65.22 76 65.22 75.88 65.22 75.85 65.22 75.82 65.22 75.82 65.22 75.79 65.22 75.74 65.19 75.65 65.14 75.57 65.09 75.5 65.01 75.44 64.93 75.4 64.84 75.39 64.81 75.39 64.8 75.39 64.77 75.39 64.71 75.39 64.62 75.39 64.5 75.39 64.37 75.39 63.8 75.39 63.68 75.39 63.58 75.39 63.49 75.39 63.45 75.39 63.42 75.39 63.37 75.39 63.28 75.41 63.2 75.45 63.13 75.52 63.08 75.58 63.04 75.67 63.01 75.77 63.01 75.82 63.01 75.83 63.01 75.87 63.01 75.92 63.01 76 63.01 76.08 63.01 76.48 63.01 76.55 63.01 76.63 63.01 76.7 63.01 76.75 63.01 76.76 63.01 76.76 62.99 76.76 62.91 76.76 62.82 76.76 62.79 76.76 62.79 76.76 62.79 76.75 62.79 76.71 62.79 76.65 62.79 76.57 62.79 76.38 62.79 76.19 62.79 76 62.79 75.94 62.79 75.87 62.79 75.83 62.79 75.82"/>
        <polyline class="cls-2" points="64.79 76.72 64.79 76.74 64.77 76.75 64.75 76.78 64.72 76.82 64.63 76.91 64.52 77.03 64.3 77.28 64.2 77.41 64.09 77.51 64.01 77.59 63.99 77.62 63.97 77.64 63.96 77.66 63.96 77.66 63.96 77.66 63.95 77.67 63.92 77.67 63.89 77.67 63.87 77.64 63.87 77.62 63.87 77.6 63.87 77.59 63.87 77.56 63.88 77.51 63.91 77.37 63.93 77.21 63.95 77.14 63.96 77.09 63.97 77.05 63.97 77.04 63.96 77.03 63.93 77.01 63.89 77 63.84 76.99 63.72 76.93 63.62 76.9 63.58 76.88 63.55 76.87 63.54 76.87 63.53 76.86 63.51 76.83 63.51 76.78 63.53 76.78 63.53 76.76 63.53 76.76 63.53 76.76 63.55 76.74 63.58 76.71 63.66 76.62 63.75 76.51 63.85 76.4 64.09 76.13 64.2 76.02 64.27 75.92 64.3 75.9 64.33 75.87 64.34 75.85 64.35 75.85 64.38 75.83 64.41 75.82 64.43 75.83 64.44 75.86 64.46 75.88 64.46 75.9 64.44 75.9 64.44 75.92 64.43 75.96 64.43 76.03 64.39 76.19 64.37 76.33 64.35 76.4 64.35 76.44 64.34 76.46 64.35 76.46 64.37 76.48 64.41 76.49 64.51 76.53 64.63 76.58 64.68 76.59 64.73 76.62 64.76 76.62 64.77 76.63 64.8 76.66 64.8 76.7 64.8 76.72 64.79 76.72 64.79 76.72"/>
        <polyline class="cls-2" points="64.81 78.43 64.96 78.42 65.09 78.37 65.21 78.29 65.3 78.2 65.38 78.06 65.43 77.93 65.44 77.77 65.44 77.72 65.44 77.67 65.44 77.59 65.44 77.42 65.44 77.22 65.44 77.03 65.44 76.95 65.44 76.88 65.44 76.84 65.44 76.82 65.44 76.82 65.42 76.82 65.32 76.82 65.25 76.82 65.22 76.82 65.22 76.82 65.22 76.84 65.22 76.88 65.22 76.95 65.22 77.03 65.22 77.12 65.22 77.5 65.22 77.59 65.22 77.66 65.22 77.71 65.22 77.75 65.22 77.76 65.22 77.81 65.19 77.91 65.15 78 65.1 78.08 65.04 78.13 64.94 78.17 64.86 78.2 64.81 78.2 64.79 78.2 64.75 78.2 64.65 78.2 64.55 78.2 64.43 78.2 63.87 78.2 63.74 78.2 63.62 78.2 63.53 78.2 63.46 78.2 63.43 78.2 63.42 78.2 63.39 78.2 63.3 78.18 63.22 78.14 63.14 78.09 63.08 78.01 63.04 77.93 63.01 77.84 63.01 77.79 63.01 77.76 63.01 77.76 63.01 77.74 63.01 77.7 63.01 77.58 63.01 77.53 63.01 77.49 63.01 77.47 63.01 77.49 63.04 77.51 63.08 77.55 63.14 77.62 63.17 77.64 63.17 77.64 63.18 77.64 63.21 77.62 63.26 77.55 63.3 77.51 63.32 77.49 63.33 77.49 63.33 77.47 63.32 77.46 63.29 77.43 63.25 77.41 63.17 77.32 63 77.13 62.93 77.05 62.91 77.04 62.9 77.03 62.9 77.03 62.88 77.04 62.86 77.07 62.83 77.09 62.75 77.18 62.66 77.28 62.57 77.37 62.5 77.43 62.48 77.46 62.46 77.47 62.46 77.49 62.49 77.5 62.51 77.54 62.58 77.6 62.61 77.63 62.62 77.64 62.62 77.64 62.65 77.63 62.7 77.56 62.76 77.5 62.78 77.47 62.79 77.47 62.79 77.5 62.79 77.55 62.79 77.67 62.79 77.72 62.79 77.75 62.79 77.76 62.79 77.76 62.79 77.77 62.79 77.81 62.82 77.96 62.87 78.09 62.95 78.21 63.05 78.31 63.17 78.38 63.32 78.43 63.38 78.43 63.42 78.43 63.42 78.43 63.46 78.43 63.51 78.43 63.6 78.43 63.72 78.43 63.84 78.43 63.99 78.43 64.27 78.43 64.42 78.43 64.54 78.43 64.65 78.43 64.73 78.43 64.79 78.43 64.81 78.43"/>
        <polyline class="cls-2" points="53.63 79.13 50.81 76.75 53.63 74.39 53.63 75.7 55.75 75.7 55.75 77.81 53.63 77.81 53.63 79.13"/>
        <polyline class="cls-2" points="116.49 79.04 119.33 76.67 116.49 74.3 116.49 75.61 114.38 75.61 114.38 77.72 116.49 77.72 116.49 79.04"/>
        <polyline class="cls-2" points="82.9 113.63 82.89 113.63 82.86 113.62 82.82 113.59 82.77 113.56 82.65 113.49 82.51 113.41 82.37 113.33 82.32 113.3 82.27 113.28 82.24 113.26 82.23 113.25 82.22 113.25 82.19 113.25 82.16 113.26 82.15 113.29 82.16 113.3 82.16 113.35 82.18 113.47 82.19 113.6 82.22 113.75 82.24 113.89 82.27 114.06 82.32 114.23 82.37 114.42 82.43 114.6 82.49 114.8 82.57 115.01 82.66 115.22 82.77 115.43 82.89 115.65 83.02 115.87 83.15 116.08 83.28 116.28 83.43 116.48 83.56 116.65 83.69 116.81 83.83 116.96 83.96 117.1 84.09 117.23 84.21 117.35 84.33 117.45 84.45 117.54 84.55 117.62 84.66 117.7 84.7 117.73 84.72 117.74 84.74 117.75 84.74 117.75 84.75 117.75 84.76 117.77 84.79 117.75 84.8 117.74 84.82 117.7 84.82 117.67 84.82 117.63 84.82 117.5 84.82 117.19 84.82 117.04 84.82 116.99 84.82 116.96 84.82 116.93 84.82 116.89 84.82 116.82 84.82 116.73 84.8 116.61 84.8 116.47 84.79 116.31 84.76 116.14 84.74 115.97 84.66 115.6 84.61 115.42 84.54 115.23 84.46 115.06 84.41 114.98 84.38 114.93 84.28 114.77 84.16 114.63 84.03 114.48 83.9 114.35 83.61 114.12 83.48 114.01 83.35 113.91 83.23 113.83 83.12 113.76 83.03 113.71 82.97 113.67 82.91 113.64 82.9 113.63"/>
        <polyline class="cls-2" points="87.64 112.82 87.66 112.79 87.66 112.76 87.65 112.74 87.64 112.74 87.64 112.74 87.61 112.72 87.51 112.67 87.38 112.62 87.22 112.55 87.06 112.5 86.88 112.45 86.68 112.38 86.48 112.34 86.26 112.29 86.02 112.25 85.77 112.22 85.51 112.2 85.24 112.19 84.95 112.19 84.67 112.2 84.4 112.21 84.15 112.25 83.91 112.29 83.69 112.33 83.48 112.38 83.28 112.44 83.1 112.49 82.93 112.54 82.78 112.61 82.65 112.66 82.52 112.71 82.49 112.72 82.48 112.74 82.48 112.74 82.48 112.74 82.47 112.74 82.45 112.78 82.45 112.8 82.48 112.83 82.52 112.84 82.56 112.87 82.62 112.91 82.69 112.95 82.99 113.12 83.06 113.16 83.11 113.18 83.14 113.2 83.15 113.21 83.15 113.21 83.16 113.22 83.22 113.25 83.31 113.3 83.41 113.35 83.56 113.42 83.71 113.5 83.88 113.56 84.07 113.64 84.27 113.71 84.48 113.76 84.69 113.81 84.9 113.84 85.11 113.84 85.32 113.83 85.53 113.79 85.74 113.75 85.93 113.68 86.13 113.62 86.31 113.54 86.48 113.47 86.63 113.39 86.76 113.33 86.85 113.28 86.93 113.24 86.97 113.21 86.97 113.21 87 113.2 87.03 113.17 87.09 113.14 87.15 113.1 87.31 113.01 87.45 112.93 87.52 112.89 87.59 112.86 87.63 112.83 87.64 112.83 87.64 112.83 87.64 112.82 87.64 112.82"/>
        <polyline class="cls-2" points="87.89 113.25 87.87 113.25 87.85 113.26 87.81 113.29 87.76 113.33 87.63 113.39 87.49 113.47 87.36 113.55 87.31 113.58 87.26 113.6 87.23 113.63 87.22 113.63 87.21 113.64 87.17 113.66 87.11 113.7 87.02 113.75 86.92 113.81 86.8 113.89 86.68 113.98 86.54 114.09 86.26 114.33 85.98 114.6 85.87 114.75 85.75 114.9 85.66 115.06 85.58 115.23 85.51 115.42 85.46 115.6 85.38 115.97 85.35 116.14 85.34 116.31 85.33 116.47 85.32 116.61 85.3 116.73 85.3 116.82 85.3 116.89 85.3 116.93 85.3 116.96 85.3 116.99 85.3 117.04 85.3 117.19 85.3 117.5 85.3 117.63 85.3 117.67 85.3 117.7 85.32 117.74 85.33 117.75 85.35 117.77 85.38 117.75 85.38 117.75 85.38 117.75 85.39 117.74 85.42 117.73 85.46 117.7 85.56 117.62 85.67 117.54 85.79 117.45 85.91 117.35 86.02 117.23 86.16 117.1 86.29 116.96 86.43 116.81 86.56 116.65 86.71 116.48 86.84 116.28 86.97 116.08 87.11 115.87 87.23 115.65 87.35 115.43 87.45 115.21 87.55 115 87.63 114.8 87.69 114.6 87.76 114.4 87.81 114.23 87.85 114.06 87.87 113.89 87.91 113.75 87.93 113.6 87.94 113.47 87.95 113.35 87.97 113.3 87.97 113.29 87.97 113.28 87.94 113.25 87.91 113.24 87.89 113.25"/>
        <path class="cls-4" d="M66.75,109.51v.11s.04.13.04.13l.08.12.05.04.12.07.14.03h.09s.13-.07.13-.07l.11-.08.07-.09.04-.12.03-.16v-.12s-.05-.13-.05-.13l-.07-.11-.05-.05-.12-.05-.14-.03h-.11s-.13.05-.13.05l-.11.08-.07.11-.04.13v.14ZM66.93,109.49l.03.16.05.09.11.08h.09s.13-.01.13-.01l.07-.07.05-.12v-.14s0-.14,0-.14l-.05-.11-.11-.07h-.09s-.13.01-.13.01l-.07.07-.05.11-.03.14ZM65.91,109.97l1.22-1.92h.2l-1.23,1.92h-.18ZM65.61,108.52v.12s.05.12.05.12l.07.12.05.05.12.05.14.03h.11s.12-.05.12-.05l.11-.09.07-.09.05-.12v-.16s0-.12,0-.12l-.04-.13-.07-.11-.05-.05-.12-.05-.14-.03h-.11s-.12.07-.12.07l-.11.08-.07.09-.05.13v.14ZM65.8,108.51v.16s.07.09.07.09l.11.08h.09s.13-.01.13-.01l.07-.07.05-.11v-.14s0-.16,0-.16l-.05-.11-.11-.07h-.08s-.14.01-.14.01l-.07.07-.05.11v.14Z"/>
        <polyline class="cls-2" points="67.2 109.84 67.11 109.82 67 109.74 66.95 109.65 66.93 109.49 66.95 109.35 67 109.24 67.07 109.18 67.2 109.15"/>
        <polyline class="cls-2" points="66.87 109.13 66.81 109.23 66.77 109.36 66.75 109.51 66.77 109.61 66.79 109.74 66.87 109.86 66.93 109.9 67.04 109.97 67.19 109.99 67.28 109.98 67.41 109.93 67.52 109.85"/>
        <polyline class="cls-2" points="67.52 109.85 67.58 109.76 67.62 109.64 67.65 109.48 67.63 109.36 67.59 109.23 67.53 109.13 67.48 109.07 67.36 109.02 67.21 109"/>
        <polyline class="cls-2" points="67.2 109.15 67.29 109.17 67.4 109.23 67.45 109.34 67.46 109.48 67.45 109.63 67.4 109.74 67.33 109.81 67.2 109.84"/>
        <polyline class="cls-2" points="67.21 109 67.11 109.01 66.98 109.05 66.87 109.13"/>
        <polyline class="cls-2" points="66.06 108.85 65.97 108.84 65.86 108.76 65.81 108.67 65.8 108.51 65.81 108.37 65.86 108.26 65.93 108.19 66.07 108.17"/>
        <polyline class="cls-2" points="65.74 108.16 65.68 108.25 65.63 108.38 65.61 108.52 65.63 108.64 65.67 108.76 65.73 108.88 65.78 108.93 65.9 108.98 66.05 109.01 66.15 109 66.27 108.96 66.37 108.86"/>
        <polyline class="cls-2" points="67.33 108.05 67.14 108.05 65.91 109.97 66.1 109.97 67.33 108.05"/>
        <polyline class="cls-2" points="66.37 108.86 66.44 108.77 66.49 108.65 66.51 108.5 66.49 108.38 66.45 108.25 66.39 108.14 66.33 108.09 66.22 108.04 66.07 108.01"/>
        <polyline class="cls-2" points="66.07 108.17 66.15 108.18 66.26 108.25 66.31 108.35 66.32 108.51 66.31 108.65 66.26 108.76 66.19 108.82 66.06 108.85"/>
        <polyline class="cls-2" points="66.07 108.01 65.97 108.02 65.85 108.08 65.74 108.16"/>
        <line class="cls-2" x1="56.57" y1="109.55" x2="55.73" y2="110.07"/>
        <line class="cls-2" x1="55.73" y1="107.52" x2="55.73" y2="110.07"/>
        <line class="cls-2" x1="56.57" y1="107.83" x2="56.57" y2="109.55"/>
        <line class="cls-2" x1="56.57" y1="107.83" x2="55.73" y2="107.52"/>
        <line class="cls-2" x1="56.57" y1="106.55" x2="55.73" y2="106.86"/>
        <line class="cls-2" x1="55.73" y1="104.94" x2="55.73" y2="106.86"/>
        <line class="cls-2" x1="56.57" y1="105.48" x2="56.57" y2="106.55"/>
        <line class="cls-2" x1="56.57" y1="105.48" x2="55.73" y2="104.94"/>
        <line class="cls-2" x1="59.15" y1="110.4" x2="58.62" y2="110.06"/>
        <line class="cls-2" x1="56.8" y1="110.06" x2="56.24" y2="110.41"/>
        <line class="cls-2" x1="58.59" y1="104.96" x2="59.15" y2="104.61"/>
        <line class="cls-2" x1="56.82" y1="104.96" x2="56.27" y2="104.61"/>
        <line class="cls-2" x1="56.46" y1="107.18" x2="57.07" y2="107.41"/>
        <line class="cls-2" x1="57.07" y1="106.97" x2="56.46" y2="107.18"/>
        <line class="cls-2" x1="58.96" y1="107.18" x2="58.35" y2="106.97"/>
        <line class="cls-2" x1="58.35" y1="107.41" x2="58.96" y2="107.18"/>
        <line class="cls-2" x1="56.27" y1="104.61" x2="59.15" y2="104.61"/>
        <line class="cls-2" x1="56.82" y1="104.96" x2="58.59" y2="104.96"/>
        <line class="cls-2" x1="56.24" y1="110.41" x2="59.15" y2="110.41"/>
        <line class="cls-2" x1="56.8" y1="110.06" x2="58.62" y2="110.06"/>
        <line class="cls-2" x1="57.07" y1="107.41" x2="58.35" y2="107.41"/>
        <line class="cls-2" x1="57.07" y1="106.97" x2="58.35" y2="106.97"/>
        <line class="cls-2" x1="61.32" y1="109.55" x2="60.47" y2="110.07"/>
        <line class="cls-2" x1="60.47" y1="107.52" x2="60.47" y2="110.07"/>
        <line class="cls-2" x1="61.32" y1="107.83" x2="61.32" y2="109.55"/>
        <line class="cls-2" x1="61.32" y1="107.83" x2="60.47" y2="107.52"/>
        <line class="cls-2" x1="61.32" y1="106.55" x2="60.47" y2="106.86"/>
        <line class="cls-2" x1="60.47" y1="104.95" x2="60.47" y2="106.86"/>
        <line class="cls-2" x1="61.32" y1="105.48" x2="61.32" y2="106.55"/>
        <line class="cls-2" x1="61.32" y1="105.48" x2="60.47" y2="104.95"/>
        <line class="cls-2" x1="64.44" y1="104.94" x2="63.59" y2="105.48"/>
        <line class="cls-2" x1="64.44" y1="106.86" x2="64.44" y2="104.94"/>
        <line class="cls-2" x1="63.59" y1="106.55" x2="63.59" y2="105.48"/>
        <line class="cls-2" x1="64.44" y1="106.86" x2="63.59" y2="106.55"/>
        <line class="cls-2" x1="64.44" y1="107.52" x2="63.59" y2="107.83"/>
        <line class="cls-2" x1="64.44" y1="110.07" x2="64.44" y2="107.52"/>
        <line class="cls-2" x1="63.59" y1="109.55" x2="63.59" y2="107.83"/>
        <line class="cls-2" x1="64.44" y1="110.07" x2="63.59" y2="109.55"/>
        <line class="cls-2" x1="63.91" y1="110.4" x2="63.37" y2="110.06"/>
        <line class="cls-2" x1="61.56" y1="110.06" x2="60.99" y2="110.41"/>
        <line class="cls-2" x1="63.34" y1="104.96" x2="63.91" y2="104.61"/>
        <line class="cls-2" x1="61.57" y1="104.96" x2="61.01" y2="104.61"/>
        <line class="cls-2" x1="61.22" y1="107.2" x2="61.81" y2="107.41"/>
        <line class="cls-2" x1="61.81" y1="106.97" x2="61.22" y2="107.2"/>
        <line class="cls-2" x1="63.7" y1="107.18" x2="63.11" y2="106.97"/>
        <line class="cls-2" x1="63.11" y1="107.41" x2="63.7" y2="107.18"/>
        <line class="cls-2" x1="61.01" y1="104.61" x2="63.91" y2="104.61"/>
        <line class="cls-2" x1="61.57" y1="104.96" x2="63.34" y2="104.96"/>
        <line class="cls-2" x1="60.99" y1="110.41" x2="63.91" y2="110.41"/>
        <line class="cls-2" x1="61.56" y1="110.06" x2="63.37" y2="110.06"/>
        <line class="cls-2" x1="61.81" y1="107.41" x2="63.11" y2="107.41"/>
        <line class="cls-2" x1="61.81" y1="106.97" x2="63.11" y2="106.97"/>
        <line class="cls-2" x1="59.69" y1="104.94" x2="58.85" y2="105.48"/>
        <line class="cls-2" x1="59.69" y1="106.86" x2="59.69" y2="104.94"/>
        <line class="cls-2" x1="58.85" y1="106.55" x2="58.85" y2="105.48"/>
        <line class="cls-2" x1="59.69" y1="106.86" x2="58.85" y2="106.55"/>
        <line class="cls-2" x1="59.69" y1="107.52" x2="58.85" y2="107.83"/>
        <line class="cls-2" x1="59.69" y1="110.07" x2="59.69" y2="107.52"/>
        <line class="cls-2" x1="58.85" y1="109.55" x2="58.85" y2="107.83"/>
        <line class="cls-2" x1="59.69" y1="110.07" x2="58.85" y2="109.55"/>
        <line class="cls-2" x1="54.94" y1="104.94" x2="54.1" y2="105.48"/>
        <line class="cls-2" x1="54.94" y1="106.86" x2="54.94" y2="104.94"/>
        <line class="cls-2" x1="54.1" y1="106.55" x2="54.1" y2="105.48"/>
        <line class="cls-2" x1="54.94" y1="106.86" x2="54.1" y2="106.55"/>
        <line class="cls-2" x1="54.94" y1="107.52" x2="54.1" y2="107.83"/>
        <line class="cls-2" x1="54.95" y1="110.07" x2="54.94" y2="107.52"/>
        <line class="cls-2" x1="54.1" y1="109.55" x2="54.1" y2="107.83"/>
        <line class="cls-2" x1="54.95" y1="110.07" x2="54.1" y2="109.55"/>
        <line class="cls-2" x1="57.37" y1="77.17" x2="57.58" y2="77.17"/>
        <line class="cls-2" x1="57.58" y1="77.17" x2="57.58" y2="77.6"/>
        <line class="cls-2" x1="57.58" y1="77.6" x2="61.52" y2="77.6"/>
        <line class="cls-2" x1="61.52" y1="77.6" x2="61.52" y2="76.03"/>
        <line class="cls-2" x1="61.52" y1="76.03" x2="57.58" y2="76.03"/>
        <line class="cls-2" x1="57.58" y1="76.03" x2="57.58" y2="76.46"/>
        <line class="cls-2" x1="57.58" y1="76.46" x2="57.37" y2="76.46"/>
        <line class="cls-2" x1="57.33" y1="76.48" x2="57.37" y2="76.46"/>
        <line class="cls-2" x1="57.29" y1="76.53" x2="57.33" y2="76.48"/>
        <line class="cls-2" x1="57.28" y1="76.57" x2="57.29" y2="76.53"/>
        <line class="cls-2" x1="57.28" y1="76.62" x2="57.28" y2="76.57"/>
        <line class="cls-2" x1="57.28" y1="76.62" x2="57.28" y2="77.01"/>
        <line class="cls-2" x1="57.28" y1="77.08" x2="57.28" y2="77.01"/>
        <line class="cls-2" x1="57.28" y1="77.12" x2="57.3" y2="77.08"/>
        <line class="cls-2" x1="57.3" y1="77.16" x2="57.34" y2="77.12"/>
        <line class="cls-2" x1="57.34" y1="77.17" x2="57.37" y2="77.16"/>
        <line class="cls-2" x1="57.67" y1="76.09" x2="57.67" y2="77.54"/>
        <line class="cls-2" x1="57.67" y1="77.54" x2="61.45" y2="77.54"/>
        <line class="cls-2" x1="61.45" y1="77.54" x2="61.45" y2="76.09"/>
        <line class="cls-2" x1="61.45" y1="76.09" x2="57.67" y2="76.09"/>
        <line class="cls-2" x1="57.33" y1="76.5" x2="57.33" y2="76.5"/>
        <line class="cls-2" x1="57.4" y1="77.08" x2="57.58" y2="77.08"/>
        <line class="cls-2" x1="57.58" y1="77.08" x2="57.58" y2="76.55"/>
        <line class="cls-2" x1="57.4" y1="76.55" x2="57.58" y2="76.55"/>
        <line class="cls-2" x1="57.36" y1="76.57" x2="57.4" y2="76.55"/>
        <line class="cls-2" x1="57.34" y1="76.61" x2="57.36" y2="76.57"/>
        <line class="cls-2" x1="57.34" y1="76.61" x2="57.34" y2="77.04"/>
        <line class="cls-2" x1="57.34" y1="77.07" x2="57.36" y2="77.04"/>
        <line class="cls-2" x1="57.36" y1="77.08" x2="57.4" y2="77.07"/>
        <line class="cls-2" x1="73.06" y1="75.58" x2="73.53" y2="75.58"/>
        <line class="cls-2" x1="73.53" y1="75.58" x2="73.53" y2="75.32"/>
        <line class="cls-2" x1="73.53" y1="75.32" x2="74.04" y2="75.32"/>
        <line class="cls-2" x1="74.04" y1="75.32" x2="74.04" y2="75.58"/>
        <line class="cls-2" x1="74.04" y1="75.58" x2="75.21" y2="75.58"/>
        <line class="cls-2" x1="75.21" y1="75.58" x2="75.21" y2="75.32"/>
        <line class="cls-2" x1="75.21" y1="75.32" x2="75.72" y2="75.32"/>
        <line class="cls-2" x1="75.72" y1="75.32" x2="75.72" y2="75.58"/>
        <line class="cls-2" x1="75.72" y1="75.58" x2="76.21" y2="75.58"/>
        <line class="cls-2" x1="76.21" y1="75.58" x2="76.21" y2="77.38"/>
        <line class="cls-2" x1="76.21" y1="77.38" x2="73.06" y2="77.38"/>
        <line class="cls-2" x1="73.06" y1="77.38" x2="73.06" y2="75.58"/>
        <line class="cls-2" x1="73.16" y1="75.71" x2="73.16" y2="77.26"/>
        <line class="cls-2" x1="73.16" y1="77.26" x2="76.07" y2="77.26"/>
        <line class="cls-2" x1="76.07" y1="77.26" x2="76.07" y2="75.69"/>
        <line class="cls-2" x1="76.07" y1="75.69" x2="73.16" y2="75.69"/>
        <line class="cls-2" x1="73.16" y1="75.71" x2="73.16" y2="75.69"/>
        <line class="cls-2" x1="73.48" y1="76.23" x2="74.09" y2="76.23"/>
        <line class="cls-2" x1="74.09" y1="76.37" x2="74.09" y2="76.23"/>
        <line class="cls-2" x1="74.09" y1="76.37" x2="73.48" y2="76.37"/>
        <line class="cls-2" x1="73.48" y1="76.37" x2="73.48" y2="76.23"/>
        <line class="cls-2" x1="75.4" y1="75.98" x2="75.54" y2="75.98"/>
        <line class="cls-2" x1="75.54" y1="75.98" x2="75.54" y2="76.23"/>
        <line class="cls-2" x1="75.54" y1="76.23" x2="75.77" y2="76.23"/>
        <line class="cls-2" x1="75.77" y1="76.37" x2="75.77" y2="76.23"/>
        <line class="cls-2" x1="75.77" y1="76.37" x2="75.54" y2="76.37"/>
        <line class="cls-2" x1="75.54" y1="76.37" x2="75.54" y2="76.61"/>
        <line class="cls-2" x1="75.4" y1="76.61" x2="75.54" y2="76.61"/>
        <line class="cls-2" x1="75.4" y1="76.61" x2="75.4" y2="76.37"/>
        <line class="cls-2" x1="75.4" y1="76.37" x2="75.16" y2="76.37"/>
        <line class="cls-2" x1="75.16" y1="76.37" x2="75.16" y2="76.23"/>
        <line class="cls-2" x1="75.16" y1="76.23" x2="75.4" y2="76.23"/>
        <line class="cls-2" x1="75.4" y1="76.23" x2="75.4" y2="75.98"/>
        <line class="cls-2" x1="73.48" y1="77.66" x2="73.48" y2="77.5"/>
        <line class="cls-2" x1="73.48" y1="77.66" x2="76.56" y2="77.66"/>
        <line class="cls-2" x1="76.56" y1="77.66" x2="76.56" y2="75.88"/>
        <line class="cls-2" x1="76.42" y1="75.88" x2="76.56" y2="75.88"/>
        <line class="cls-2" x1="76.42" y1="75.88" x2="76.42" y2="77.5"/>
        <line class="cls-2" x1="76.42" y1="77.5" x2="73.48" y2="77.5"/>
        <line class="cls-2" x1="73.92" y1="77.97" x2="73.92" y2="77.83"/>
        <line class="cls-2" x1="73.92" y1="77.97" x2="77.01" y2="77.97"/>
        <line class="cls-2" x1="77.01" y1="77.97" x2="77.01" y2="76.19"/>
        <line class="cls-2" x1="76.86" y1="76.19" x2="77.01" y2="76.19"/>
        <line class="cls-2" x1="76.86" y1="76.19" x2="76.86" y2="77.83"/>
        <line class="cls-2" x1="76.86" y1="77.83" x2="73.92" y2="77.83"/>
        <line class="cls-2" x1="69.5" y1="76.74" x2="68.82" y2="76.87"/>
        <line class="cls-2" x1="69.26" y1="77.17" x2="69.5" y2="76.74"/>
        <line class="cls-2" x1="68.92" y1="78.1" x2="70.6" y2="78.1"/>
        <line class="cls-2" x1="70.6" y1="78.1" x2="70.65" y2="78.09"/>
        <line class="cls-2" x1="70.65" y1="78.09" x2="70.69" y2="78.05"/>
        <line class="cls-2" x1="70.69" y1="78.05" x2="70.71" y2="78"/>
        <line class="cls-2" x1="70.69" y1="78" x2="70.71" y2="77.95"/>
        <line class="cls-2" x1="70.65" y1="77.95" x2="70.69" y2="77.91"/>
        <line class="cls-2" x1="70.6" y1="77.91" x2="70.65" y2="77.89"/>
        <line class="cls-2" x1="70.6" y1="77.89" x2="69.37" y2="77.89"/>
        <line class="cls-2" x1="69.33" y1="77.89" x2="69.37" y2="77.76"/>
        <line class="cls-2" x1="69.24" y1="77.76" x2="69.33" y2="77.66"/>
        <line class="cls-2" x1="69.24" y1="77.66" x2="70.18" y2="75.91"/>
        <line class="cls-2" x1="70.18" y1="75.91" x2="70.43" y2="75.91"/>
        <line class="cls-2" x1="70.43" y1="75.91" x2="70.47" y2="75.9"/>
        <line class="cls-2" x1="70.47" y1="75.9" x2="70.5" y2="75.86"/>
        <line class="cls-2" x1="70.5" y1="75.86" x2="70.64" y2="75.44"/>
        <line class="cls-2" x1="70.64" y1="75.44" x2="70.64" y2="75.4"/>
        <line class="cls-2" x1="70.61" y1="75.4" x2="70.64" y2="75.36"/>
        <line class="cls-2" x1="70.56" y1="75.36" x2="70.61" y2="75.35"/>
        <line class="cls-2" x1="70.56" y1="75.35" x2="69.6" y2="75.35"/>
        <line class="cls-2" x1="69.55" y1="75.36" x2="69.6" y2="75.35"/>
        <line class="cls-2" x1="69.52" y1="75.4" x2="69.55" y2="75.36"/>
        <line class="cls-2" x1="69.52" y1="75.44" x2="69.52" y2="75.4"/>
        <line class="cls-2" x1="69.52" y1="75.44" x2="69.67" y2="75.86"/>
        <line class="cls-2" x1="69.67" y1="75.9" x2="69.69" y2="75.86"/>
        <line class="cls-2" x1="69.69" y1="75.91" x2="69.73" y2="75.9"/>
        <line class="cls-2" x1="69.73" y1="75.91" x2="69.94" y2="75.91"/>
        <line class="cls-2" x1="69.94" y1="75.91" x2="69.62" y2="76.5"/>
        <line class="cls-2" x1="69.62" y1="76.5" x2="68.76" y2="76.67"/>
        <line class="cls-2" x1="68.66" y1="76.74" x2="68.76" y2="76.67"/>
        <line class="cls-2" x1="68.62" y1="76.84" x2="68.66" y2="76.74"/>
        <line class="cls-2" x1="68.62" y1="76.84" x2="68.62" y2="77.07"/>
        <line class="cls-2" x1="68.62" y1="77.17" x2="68.64" y2="77.07"/>
        <line class="cls-2" x1="68.64" y1="77.24" x2="68.74" y2="77.17"/>
        <line class="cls-2" x1="68.74" y1="77.24" x2="69.16" y2="77.35"/>
        <line class="cls-2" x1="69.05" y1="77.55" x2="69.16" y2="77.35"/>
        <line class="cls-2" x1="68.95" y1="77.55" x2="69.05" y2="77.54"/>
        <line class="cls-2" x1="68.75" y1="77.59" x2="68.95" y2="77.54"/>
        <line class="cls-2" x1="68.59" y1="77.71" x2="68.75" y2="77.59"/>
        <line class="cls-2" x1="68.51" y1="77.89" x2="68.59" y2="77.71"/>
        <line class="cls-2" x1="68.51" y1="77.89" x2="67.96" y2="77.89"/>
        <line class="cls-2" x1="67.91" y1="77.91" x2="67.96" y2="77.89"/>
        <line class="cls-2" x1="67.87" y1="77.95" x2="67.91" y2="77.91"/>
        <line class="cls-2" x1="67.86" y1="78" x2="67.87" y2="77.95"/>
        <line class="cls-2" x1="67.86" y1="78.05" x2="67.87" y2="78"/>
        <line class="cls-2" x1="67.87" y1="78.09" x2="67.91" y2="78.05"/>
        <line class="cls-2" x1="67.91" y1="78.1" x2="67.96" y2="78.09"/>
        <line class="cls-2" x1="67.96" y1="78.1" x2="68.92" y2="78.1"/>
        <line class="cls-2" x1="68.82" y1="77.05" x2="69.26" y2="77.17"/>
        <line class="cls-2" x1="68.82" y1="77.05" x2="68.82" y2="76.87"/>
        <path class="cls-2" d="M85.13,140.61c12.49-.03,24.92-.15,37.35-1.31,5.63-.6,10.97-1.83,16.25-3.59,3.56-1.2,6.65-2.03,10.01-3.7,5.99-2.99,7.5-10.2,9.39-16.03,3.39-11.16,8.62-28.38,11.92-39.26l-.27-.18c-1.56-1.46-3.69-2.11-5.45-3.27-5.98-3.95-11.95-7.97-18.11-11.73-4.65-2.7-9.13-6.02-14.38-7.51-6.13-1.46-11.85-1.75-18.16-2.41-9.53-.89-19.05-1.26-28.63-1.37-9.58.11-19.1.48-28.63,1.37-6.31.66-12.03.94-18.16,2.41-5.25,1.49-9.73,4.81-14.38,7.51-6.15,3.76-12.13,7.78-18.11,11.73-1.75,1.16-3.89,1.8-5.45,3.27l-.27.18c3.3,10.88,8.53,28.1,11.92,39.26,1.89,5.83,3.4,13.04,9.39,16.03,3.36,1.68,6.45,2.51,10.01,3.7,5.28,1.76,10.62,2.99,16.25,3.59,12.42,1.16,24.85,1.29,37.35,1.31h.14Z"/>
      </g>
      <g>
        <line class="cls-1" x1="91.03" y1="28.68" x2="98.81" y2="69.62"/>
        <polygon class="cls-5" points="97.2 68.92 99.64 73.97 100.06 68.38 97.2 68.92"/>
      </g>
    </g>
  </g>
</svg>