<?xml version="1.0" encoding="UTF-8"?>
<svg id="_图层_2" data-name="图层 2" xmlns="http://www.w3.org/2000/svg" viewBox="0 0 170.12 146.16">
  <defs>
    <style>
      .cls-1 {
        fill: #fff;
      }

      .cls-2 {
        stroke-width: .5px;
      }

      .cls-2, .cls-3, .cls-4, .cls-5, .cls-6 {
        fill: none;
        stroke-linecap: square;
        stroke-miterlimit: 10;
      }

      .cls-2, .cls-4 {
        stroke: #e60012;
      }

      .cls-7 {
        fill: #e60012;
      }

      .cls-3, .cls-4, .cls-6 {
        stroke-width: .12px;
      }

      .cls-3, .cls-6 {
        stroke: #070001;
      }

      .cls-5 {
        stroke: #595957;
        stroke-width: .15px;
      }

      .cls-6 {
        fill-rule: evenodd;
      }
    </style>
  </defs>
  <g id="_图层_1-2" data-name="图层 1">
    <g>
      <g>
        <line class="cls-3" x1="115.14" y1="92.48" x2="107.63" y2="92.48"/>
        <polyline class="cls-3" points="117.25 94.58 117.23 94.28 117.16 93.99 117.05 93.7 116.91 93.44 116.74 93.2 116.52 92.99 116.28 92.81 116.02 92.67 115.73 92.56 115.44 92.5 115.14 92.48"/>
        <line class="cls-3" x1="117.25" y1="102.88" x2="117.25" y2="94.58"/>
        <polyline class="cls-3" points="115.14 104.99 115.44 104.97 115.74 104.9 116.02 104.8 116.28 104.65 116.53 104.48 116.74 104.26 116.92 104.02 117.07 103.76 117.17 103.47 117.23 103.18 117.25 102.88"/>
        <line class="cls-3" x1="107.64" y1="104.99" x2="115.14" y2="104.99"/>
        <polyline class="cls-3" points="105.53 102.88 105.54 103.18 105.61 103.48 105.71 103.76 105.86 104.02 106.04 104.27 106.25 104.48 106.5 104.67 106.76 104.81 107.04 104.92 107.34 104.97 107.64 104.99"/>
        <line class="cls-3" x1="105.53" y1="94.6" x2="105.53" y2="102.88"/>
        <polyline class="cls-3" points="107.63 92.48 107.33 92.5 107.04 92.56 106.76 92.67 106.49 92.81 106.25 92.99 106.04 93.2 105.86 93.45 105.71 93.72 105.61 93.99 105.54 94.29 105.53 94.6"/>
        <line class="cls-3" x1="85.81" y1="95.04" x2="85.8" y2="85.94"/>
        <line class="cls-3" x1="85.8" y1="85.94" x2="89.16" y2="87.94"/>
        <line class="cls-3" x1="89.16" y1="87.94" x2="89.16" y2="93.93"/>
        <line class="cls-3" x1="89.16" y1="93.93" x2="85.81" y2="95.04"/>
        <line class="cls-3" x1="101.46" y1="85.94" x2="101.46" y2="95.03"/>
        <line class="cls-3" x1="101.46" y1="95.03" x2="98.1" y2="93.91"/>
        <line class="cls-3" x1="98.1" y1="93.91" x2="98.1" y2="87.94"/>
        <line class="cls-3" x1="98.1" y1="87.94" x2="101.46" y2="85.94"/>
        <line class="cls-3" x1="89.45" y1="87.14" x2="86.58" y2="85.47"/>
        <line class="cls-3" x1="100.66" y1="85.47" x2="86.58" y2="85.47"/>
        <line class="cls-3" x1="100.66" y1="85.47" x2="97.81" y2="87.14"/>
        <line class="cls-3" x1="97.81" y1="87.14" x2="89.45" y2="87.14"/>
        <line class="cls-3" x1="89.04" y1="96.62" x2="86.33" y2="95.71"/>
        <line class="cls-3" x1="86.33" y1="95.71" x2="89.04" y2="94.81"/>
        <line class="cls-3" x1="89.04" y1="94.81" x2="98.23" y2="94.81"/>
        <line class="cls-3" x1="98.23" y1="94.81" x2="100.94" y2="95.71"/>
        <line class="cls-3" x1="100.94" y1="95.71" x2="98.23" y2="96.62"/>
        <line class="cls-3" x1="98.23" y1="96.62" x2="89.04" y2="96.62"/>
        <line class="cls-3" x1="97.82" y1="106.86" x2="100.69" y2="108.53"/>
        <line class="cls-3" x1="100.69" y1="108.53" x2="86.59" y2="108.54"/>
        <line class="cls-3" x1="86.59" y1="108.54" x2="89.46" y2="106.86"/>
        <line class="cls-3" x1="89.46" y1="106.86" x2="97.82" y2="106.86"/>
        <line class="cls-3" x1="85.81" y1="108.08" x2="85.81" y2="96.4"/>
        <line class="cls-3" x1="85.81" y1="96.4" x2="89.17" y2="97.5"/>
        <line class="cls-3" x1="89.17" y1="97.5" x2="89.17" y2="106.08"/>
        <line class="cls-3" x1="89.17" y1="106.08" x2="85.81" y2="108.08"/>
        <line class="cls-3" x1="101.46" y1="96.38" x2="101.46" y2="108.07"/>
        <line class="cls-3" x1="101.46" y1="108.07" x2="98.11" y2="106.08"/>
        <line class="cls-3" x1="98.11" y1="106.08" x2="98.1" y2="97.5"/>
        <line class="cls-3" x1="98.1" y1="97.5" x2="101.46" y2="96.38"/>
        <line class="cls-3" x1="68.74" y1="95.04" x2="68.74" y2="85.96"/>
        <line class="cls-3" x1="68.74" y1="85.96" x2="72.1" y2="87.95"/>
        <line class="cls-3" x1="72.1" y1="87.95" x2="72.1" y2="93.93"/>
        <line class="cls-3" x1="72.1" y1="93.93" x2="68.74" y2="95.04"/>
        <line class="cls-3" x1="72.37" y1="87.15" x2="69.5" y2="85.47"/>
        <line class="cls-3" x1="83.6" y1="85.49" x2="69.5" y2="85.47"/>
        <line class="cls-3" x1="83.6" y1="85.49" x2="80.75" y2="87.15"/>
        <line class="cls-3" x1="80.75" y1="87.15" x2="72.37" y2="87.15"/>
        <line class="cls-3" x1="71.97" y1="96.62" x2="69.26" y2="95.73"/>
        <line class="cls-3" x1="69.26" y1="95.73" x2="71.97" y2="94.81"/>
        <line class="cls-3" x1="71.97" y1="94.81" x2="81.15" y2="94.81"/>
        <line class="cls-3" x1="81.15" y1="94.81" x2="83.87" y2="95.71"/>
        <line class="cls-3" x1="83.87" y1="95.71" x2="81.15" y2="96.62"/>
        <line class="cls-3" x1="81.15" y1="96.62" x2="71.97" y2="96.62"/>
        <line class="cls-3" x1="80.75" y1="106.86" x2="83.62" y2="108.54"/>
        <line class="cls-3" x1="83.62" y1="108.54" x2="69.51" y2="108.54"/>
        <line class="cls-3" x1="69.51" y1="108.54" x2="72.39" y2="106.87"/>
        <line class="cls-3" x1="72.39" y1="106.87" x2="80.75" y2="106.86"/>
        <line class="cls-3" x1="68.74" y1="108.08" x2="68.74" y2="96.4"/>
        <line class="cls-3" x1="68.74" y1="96.4" x2="72.1" y2="97.5"/>
        <line class="cls-3" x1="72.1" y1="97.5" x2="72.1" y2="106.1"/>
        <line class="cls-3" x1="72.1" y1="106.1" x2="68.74" y2="108.08"/>
        <line class="cls-3" x1="84.38" y1="85.94" x2="84.38" y2="95.04"/>
        <line class="cls-3" x1="84.38" y1="95.04" x2="81.04" y2="93.93"/>
        <line class="cls-3" x1="81.04" y1="93.93" x2="81.02" y2="87.95"/>
        <line class="cls-3" x1="81.02" y1="87.95" x2="84.38" y2="85.94"/>
        <line class="cls-3" x1="84.38" y1="96.4" x2="84.4" y2="108.08"/>
        <line class="cls-3" x1="84.4" y1="108.08" x2="81.04" y2="106.08"/>
        <line class="cls-3" x1="81.04" y1="106.08" x2="81.04" y2="97.5"/>
        <line class="cls-3" x1="81.04" y1="97.5" x2="84.38" y2="96.4"/>
        <line class="cls-3" x1="63.72" y1="103.71" x2="55.2" y2="103.71"/>
        <line class="cls-3" x1="63.72" y1="105.22" x2="63.72" y2="103.71"/>
        <polyline class="cls-3" points="62.67 106.27 62.87 106.25 63.07 106.19 63.25 106.1 63.41 105.97 63.54 105.8 63.64 105.62 63.7 105.43 63.72 105.22"/>
        <line class="cls-3" x1="56.25" y1="106.27" x2="62.67" y2="106.27"/>
        <polyline class="cls-3" points="55.2 105.22 55.22 105.43 55.28 105.62 55.37 105.81 55.51 105.97 55.68 106.1 55.85 106.19 56.04 106.25 56.25 106.27"/>
        <line class="cls-3" x1="55.2" y1="103.71" x2="55.2" y2="105.22"/>
        <line class="cls-3" x1="55.2" y1="100.83" x2="55.2" y2="103.03"/>
        <line class="cls-3" x1="63.72" y1="100.83" x2="55.2" y2="100.83"/>
        <line class="cls-3" x1="63.72" y1="103.03" x2="63.72" y2="100.83"/>
        <line class="cls-3" x1="55.2" y1="103.03" x2="63.72" y2="103.03"/>
        <line class="cls-3" x1="55.2" y1="97.96" x2="55.2" y2="100.15"/>
        <line class="cls-3" x1="63.72" y1="97.96" x2="55.2" y2="97.96"/>
        <line class="cls-3" x1="63.72" y1="100.14" x2="63.72" y2="97.96"/>
        <line class="cls-3" x1="55.2" y1="100.15" x2="63.72" y2="100.14"/>
        <line class="cls-3" x1="55.2" y1="95.08" x2="55.2" y2="97.27"/>
        <line class="cls-3" x1="63.71" y1="95.08" x2="55.2" y2="95.08"/>
        <line class="cls-3" x1="63.72" y1="97.26" x2="63.71" y2="95.08"/>
        <line class="cls-3" x1="55.2" y1="97.27" x2="63.72" y2="97.26"/>
        <line class="cls-3" x1="55.2" y1="92.88" x2="55.2" y2="94.39"/>
        <polyline class="cls-3" points="56.25 91.83 56.04 91.85 55.85 91.91 55.66 92.01 55.51 92.14 55.37 92.3 55.28 92.48 55.22 92.68 55.2 92.88"/>
        <line class="cls-3" x1="62.66" y1="91.83" x2="56.25" y2="91.83"/>
        <polyline class="cls-3" points="63.71 92.88 63.7 92.67 63.63 92.47 63.54 92.3 63.41 92.13 63.25 92.01 63.07 91.91 62.87 91.85 62.66 91.83"/>
        <line class="cls-3" x1="63.71" y1="94.39" x2="63.71" y2="92.88"/>
        <line class="cls-3" x1="55.2" y1="94.39" x2="63.71" y2="94.39"/>
        <polyline class="cls-3" points="63.05 106.87 63.3 106.85 63.55 106.78 63.77 106.65 63.97 106.49 64.13 106.29 64.26 106.07 64.33 105.82 64.35 105.57"/>
        <line class="cls-3" x1="64.35" y1="92.52" x2="64.35" y2="105.57"/>
        <polyline class="cls-3" points="64.35 92.52 64.33 92.27 64.25 92.02 64.13 91.8 63.97 91.6 63.77 91.45 63.54 91.33 63.3 91.25 63.04 91.22"/>
        <polyline class="cls-3" points="55.93 91.22 55.68 91.25 55.43 91.33 55.2 91.45 55.01 91.6 54.85 91.8 54.72 92.04 54.65 92.27 54.63 92.54"/>
        <line class="cls-3" x1="54.63" y1="105.57" x2="54.63" y2="92.54"/>
        <polyline class="cls-3" points="54.63 105.57 54.65 105.82 54.73 106.07 54.85 106.29 55.01 106.49 55.2 106.66 55.44 106.78 55.68 106.85 55.94 106.87"/>
        <line class="cls-3" x1="63.05" y1="106.87" x2="55.94" y2="106.87"/>
        <polyline class="cls-3" points="64.92 92.42 64.89 92.14 64.83 91.88 64.72 91.62 64.58 91.38 64.41 91.17 64.2 91 63.96 90.85 63.7 90.75 63.43 90.68 63.16 90.66"/>
        <line class="cls-3" x1="64.92" y1="92.42" x2="64.96" y2="105.68"/>
        <polyline class="cls-3" points="63.2 107.44 63.47 107.42 63.74 107.36 64 107.24 64.23 107.1 64.44 106.92 64.62 106.71 64.76 106.48 64.88 106.22 64.93 105.95 64.96 105.68"/>
        <line class="cls-3" x1="63.2" y1="107.44" x2="55.85" y2="107.44"/>
        <polyline class="cls-3" points="54.09 105.68 54.1 105.95 54.17 106.23 54.27 106.48 54.42 106.71 54.6 106.92 54.81 107.11 55.05 107.25 55.3 107.36 55.57 107.42 55.85 107.44"/>
        <line class="cls-3" x1="54.09" y1="105.68" x2="54.05" y2="92.43"/>
        <polyline class="cls-3" points="55.81 90.66 55.53 90.68 55.26 90.75 55.01 90.85 54.77 91 54.56 91.18 54.38 91.39 54.23 91.63 54.13 91.88 54.06 92.15 54.05 92.43"/>
        <line class="cls-3" x1="86.8" y1="115.16" x2="85.95" y2="115.68"/>
        <line class="cls-3" x1="85.95" y1="113.13" x2="85.95" y2="115.68"/>
        <line class="cls-3" x1="86.8" y1="113.44" x2="86.8" y2="115.16"/>
        <line class="cls-3" x1="86.8" y1="113.44" x2="85.95" y2="113.13"/>
        <line class="cls-3" x1="86.8" y1="112.16" x2="85.95" y2="112.46"/>
        <line class="cls-3" x1="85.95" y1="110.55" x2="85.95" y2="112.46"/>
        <line class="cls-3" x1="86.8" y1="111.09" x2="86.8" y2="112.16"/>
        <line class="cls-3" x1="86.8" y1="111.09" x2="85.95" y2="110.55"/>
        <line class="cls-3" x1="89.91" y1="110.55" x2="89.07" y2="111.09"/>
        <line class="cls-3" x1="89.91" y1="112.46" x2="89.91" y2="110.55"/>
        <line class="cls-3" x1="89.07" y1="112.16" x2="89.07" y2="111.09"/>
        <line class="cls-3" x1="89.91" y1="112.46" x2="89.07" y2="112.16"/>
        <line class="cls-3" x1="89.92" y1="113.13" x2="89.07" y2="113.44"/>
        <line class="cls-3" x1="89.92" y1="115.68" x2="89.92" y2="113.13"/>
        <line class="cls-3" x1="89.07" y1="115.16" x2="89.07" y2="113.44"/>
        <line class="cls-3" x1="89.92" y1="115.68" x2="89.07" y2="115.16"/>
        <line class="cls-3" x1="89.38" y1="116.01" x2="88.83" y2="115.67"/>
        <line class="cls-3" x1="87.03" y1="115.67" x2="86.47" y2="116.02"/>
        <line class="cls-3" x1="88.82" y1="110.57" x2="89.38" y2="110.22"/>
        <line class="cls-3" x1="87.05" y1="110.57" x2="86.48" y2="110.22"/>
        <line class="cls-3" x1="86.69" y1="112.81" x2="87.28" y2="113.02"/>
        <line class="cls-3" x1="87.28" y1="112.58" x2="86.69" y2="112.81"/>
        <line class="cls-3" x1="89.17" y1="112.79" x2="88.58" y2="112.58"/>
        <line class="cls-3" x1="88.58" y1="113.02" x2="89.17" y2="112.79"/>
        <line class="cls-3" x1="86.48" y1="110.22" x2="89.38" y2="110.22"/>
        <line class="cls-3" x1="87.05" y1="110.57" x2="88.82" y2="110.57"/>
        <line class="cls-3" x1="86.47" y1="116.02" x2="89.38" y2="116.02"/>
        <line class="cls-3" x1="87.03" y1="115.67" x2="88.83" y2="115.67"/>
        <line class="cls-3" x1="87.28" y1="113.02" x2="88.58" y2="113.02"/>
        <line class="cls-3" x1="87.28" y1="112.58" x2="88.58" y2="112.58"/>
        <line class="cls-3" x1="91.54" y1="115.16" x2="90.7" y2="115.68"/>
        <line class="cls-3" x1="90.7" y1="113.13" x2="90.7" y2="115.68"/>
        <line class="cls-3" x1="91.54" y1="113.44" x2="91.54" y2="115.16"/>
        <line class="cls-3" x1="91.54" y1="113.44" x2="90.7" y2="113.13"/>
        <line class="cls-3" x1="91.54" y1="112.16" x2="90.7" y2="112.46"/>
        <line class="cls-3" x1="90.7" y1="110.56" x2="90.7" y2="112.46"/>
        <line class="cls-3" x1="91.54" y1="111.09" x2="91.54" y2="112.16"/>
        <line class="cls-3" x1="91.54" y1="111.09" x2="90.7" y2="110.56"/>
        <line class="cls-3" x1="94.66" y1="110.55" x2="93.82" y2="111.09"/>
        <line class="cls-3" x1="94.66" y1="112.46" x2="94.66" y2="110.55"/>
        <line class="cls-3" x1="93.82" y1="112.16" x2="93.82" y2="111.09"/>
        <line class="cls-3" x1="94.66" y1="112.46" x2="93.82" y2="112.16"/>
        <line class="cls-3" x1="94.66" y1="113.13" x2="93.82" y2="113.44"/>
        <line class="cls-3" x1="94.66" y1="115.68" x2="94.66" y2="113.13"/>
        <line class="cls-3" x1="93.82" y1="115.16" x2="93.82" y2="113.44"/>
        <line class="cls-3" x1="94.66" y1="115.68" x2="93.82" y2="115.16"/>
        <line class="cls-3" x1="94.12" y1="116.01" x2="93.58" y2="115.67"/>
        <line class="cls-3" x1="91.77" y1="115.67" x2="91.21" y2="116.02"/>
        <line class="cls-3" x1="93.56" y1="110.57" x2="94.12" y2="110.22"/>
        <line class="cls-3" x1="91.8" y1="110.57" x2="91.24" y2="110.22"/>
        <line class="cls-3" x1="91.43" y1="112.81" x2="92.04" y2="113.02"/>
        <line class="cls-3" x1="92.04" y1="112.58" x2="91.43" y2="112.81"/>
        <line class="cls-3" x1="93.93" y1="112.81" x2="93.32" y2="112.58"/>
        <line class="cls-3" x1="93.32" y1="113.02" x2="93.93" y2="112.81"/>
        <line class="cls-3" x1="91.24" y1="110.22" x2="94.12" y2="110.22"/>
        <line class="cls-3" x1="91.8" y1="110.57" x2="93.56" y2="110.57"/>
        <line class="cls-3" x1="91.21" y1="116.02" x2="94.12" y2="116.02"/>
        <line class="cls-3" x1="91.77" y1="115.67" x2="93.58" y2="115.67"/>
        <line class="cls-3" x1="92.04" y1="113.02" x2="93.32" y2="113.02"/>
        <line class="cls-3" x1="92.04" y1="112.58" x2="93.32" y2="112.58"/>
        <line class="cls-3" x1="96.29" y1="115.16" x2="95.44" y2="115.68"/>
        <line class="cls-3" x1="95.44" y1="113.13" x2="95.44" y2="115.68"/>
        <line class="cls-3" x1="96.29" y1="113.44" x2="96.29" y2="115.16"/>
        <line class="cls-3" x1="96.29" y1="113.44" x2="95.44" y2="113.13"/>
        <line class="cls-3" x1="96.29" y1="112.16" x2="95.44" y2="112.46"/>
        <line class="cls-3" x1="95.44" y1="110.55" x2="95.44" y2="112.46"/>
        <line class="cls-3" x1="96.29" y1="111.09" x2="96.29" y2="112.16"/>
        <line class="cls-3" x1="96.29" y1="111.09" x2="95.44" y2="110.55"/>
        <line class="cls-3" x1="99.4" y1="110.55" x2="98.56" y2="111.09"/>
        <line class="cls-3" x1="99.4" y1="112.46" x2="99.4" y2="110.55"/>
        <line class="cls-3" x1="98.56" y1="112.16" x2="98.56" y2="111.09"/>
        <line class="cls-3" x1="99.4" y1="112.46" x2="98.56" y2="112.16"/>
        <line class="cls-3" x1="99.4" y1="113.13" x2="98.56" y2="113.44"/>
        <line class="cls-3" x1="99.4" y1="115.68" x2="99.4" y2="113.13"/>
        <line class="cls-3" x1="98.56" y1="115.16" x2="98.56" y2="113.44"/>
        <line class="cls-3" x1="99.4" y1="115.68" x2="98.56" y2="115.16"/>
        <line class="cls-3" x1="98.87" y1="116.01" x2="98.32" y2="115.67"/>
        <line class="cls-3" x1="96.51" y1="115.67" x2="95.96" y2="116.02"/>
        <line class="cls-3" x1="98.31" y1="110.57" x2="98.87" y2="110.22"/>
        <line class="cls-3" x1="96.54" y1="110.57" x2="95.97" y2="110.22"/>
        <line class="cls-3" x1="96.17" y1="112.79" x2="96.77" y2="113.02"/>
        <line class="cls-3" x1="96.77" y1="112.58" x2="96.17" y2="112.79"/>
        <line class="cls-3" x1="98.66" y1="112.79" x2="98.07" y2="112.58"/>
        <line class="cls-3" x1="98.07" y1="113.02" x2="98.66" y2="112.79"/>
        <line class="cls-3" x1="95.97" y1="110.22" x2="98.87" y2="110.22"/>
        <line class="cls-3" x1="96.54" y1="110.57" x2="98.31" y2="110.57"/>
        <line class="cls-3" x1="95.96" y1="116.02" x2="98.87" y2="116.02"/>
        <line class="cls-3" x1="96.51" y1="115.67" x2="98.32" y2="115.67"/>
        <line class="cls-3" x1="96.77" y1="113.02" x2="98.07" y2="113.02"/>
        <line class="cls-3" x1="96.77" y1="112.58" x2="98.07" y2="112.58"/>
        <line class="cls-3" x1="101.03" y1="115.16" x2="100.19" y2="115.68"/>
        <line class="cls-3" x1="100.17" y1="113.13" x2="100.19" y2="115.68"/>
        <line class="cls-3" x1="101.03" y1="113.44" x2="101.03" y2="115.16"/>
        <line class="cls-3" x1="101.03" y1="113.44" x2="100.17" y2="113.13"/>
        <line class="cls-3" x1="101.03" y1="112.16" x2="100.17" y2="112.46"/>
        <line class="cls-3" x1="100.17" y1="110.55" x2="100.17" y2="112.46"/>
        <line class="cls-3" x1="101.03" y1="111.09" x2="101.03" y2="112.16"/>
        <line class="cls-3" x1="101.03" y1="111.09" x2="100.17" y2="110.55"/>
        <line class="cls-3" x1="104.15" y1="110.55" x2="103.3" y2="111.09"/>
        <line class="cls-3" x1="104.15" y1="112.46" x2="104.15" y2="110.55"/>
        <line class="cls-3" x1="103.3" y1="112.16" x2="103.3" y2="111.09"/>
        <line class="cls-3" x1="104.15" y1="112.46" x2="103.3" y2="112.16"/>
        <line class="cls-3" x1="104.15" y1="113.13" x2="103.3" y2="113.44"/>
        <line class="cls-3" x1="104.15" y1="115.68" x2="104.15" y2="113.13"/>
        <line class="cls-3" x1="103.3" y1="115.16" x2="103.3" y2="113.44"/>
        <line class="cls-3" x1="104.15" y1="115.68" x2="103.3" y2="115.16"/>
        <line class="cls-3" x1="103.61" y1="116.01" x2="103.08" y2="115.67"/>
        <line class="cls-3" x1="101.26" y1="115.67" x2="100.7" y2="116.02"/>
        <line class="cls-3" x1="103.05" y1="110.57" x2="103.61" y2="110.22"/>
        <line class="cls-3" x1="101.28" y1="110.57" x2="100.71" y2="110.22"/>
        <line class="cls-3" x1="100.92" y1="112.79" x2="101.51" y2="113"/>
        <line class="cls-3" x1="101.51" y1="112.58" x2="100.92" y2="112.79"/>
        <line class="cls-3" x1="103.4" y1="112.79" x2="102.81" y2="112.58"/>
        <line class="cls-3" x1="102.81" y1="113" x2="103.4" y2="112.79"/>
        <line class="cls-3" x1="100.71" y1="110.22" x2="103.61" y2="110.22"/>
        <line class="cls-3" x1="101.28" y1="110.57" x2="103.05" y2="110.57"/>
        <line class="cls-3" x1="100.7" y1="116.02" x2="103.61" y2="116.02"/>
        <line class="cls-3" x1="101.26" y1="115.67" x2="103.08" y2="115.67"/>
        <line class="cls-3" x1="101.51" y1="113" x2="102.81" y2="113"/>
        <line class="cls-3" x1="101.51" y1="112.58" x2="102.81" y2="112.58"/>
        <line class="cls-3" x1="105.77" y1="115.14" x2="104.93" y2="115.68"/>
        <line class="cls-3" x1="104.93" y1="113.13" x2="104.93" y2="115.68"/>
        <line class="cls-3" x1="105.77" y1="113.44" x2="105.77" y2="115.14"/>
        <line class="cls-3" x1="105.77" y1="113.44" x2="104.93" y2="113.13"/>
        <line class="cls-3" x1="105.77" y1="112.16" x2="104.93" y2="112.46"/>
        <line class="cls-3" x1="104.93" y1="110.55" x2="104.93" y2="112.46"/>
        <line class="cls-3" x1="105.77" y1="111.07" x2="105.77" y2="112.16"/>
        <line class="cls-3" x1="105.77" y1="111.07" x2="104.93" y2="110.55"/>
        <line class="cls-3" x1="108.89" y1="110.55" x2="108.04" y2="111.07"/>
        <line class="cls-3" x1="108.89" y1="112.45" x2="108.89" y2="110.55"/>
        <line class="cls-3" x1="108.04" y1="112.16" x2="108.04" y2="111.07"/>
        <line class="cls-3" x1="108.89" y1="112.45" x2="108.04" y2="112.16"/>
        <line class="cls-3" x1="108.89" y1="113.13" x2="108.05" y2="113.44"/>
        <line class="cls-3" x1="108.89" y1="115.68" x2="108.89" y2="113.13"/>
        <line class="cls-3" x1="108.05" y1="115.14" x2="108.05" y2="113.44"/>
        <line class="cls-3" x1="108.89" y1="115.68" x2="108.05" y2="115.14"/>
        <line class="cls-3" x1="108.35" y1="116.01" x2="107.81" y2="115.67"/>
        <line class="cls-3" x1="106" y1="115.67" x2="105.44" y2="116.02"/>
        <line class="cls-3" x1="107.79" y1="110.57" x2="108.35" y2="110.22"/>
        <line class="cls-3" x1="106.02" y1="110.57" x2="105.45" y2="110.22"/>
        <line class="cls-3" x1="105.66" y1="112.79" x2="106.25" y2="113"/>
        <line class="cls-3" x1="106.25" y1="112.58" x2="105.66" y2="112.79"/>
        <line class="cls-3" x1="108.15" y1="112.79" x2="107.55" y2="112.58"/>
        <line class="cls-3" x1="107.55" y1="113" x2="108.15" y2="112.79"/>
        <line class="cls-3" x1="105.45" y1="110.22" x2="108.35" y2="110.22"/>
        <line class="cls-3" x1="106.02" y1="110.57" x2="107.79" y2="110.57"/>
        <line class="cls-3" x1="105.44" y1="116.02" x2="108.35" y2="116.02"/>
        <line class="cls-3" x1="106" y1="115.67" x2="107.81" y2="115.67"/>
        <line class="cls-3" x1="106.25" y1="113" x2="107.55" y2="113"/>
        <line class="cls-3" x1="106.25" y1="112.58" x2="107.55" y2="112.58"/>
        <line class="cls-3" x1="110.26" y1="100.77" x2="109.4" y2="101.29"/>
        <line class="cls-3" x1="109.4" y1="98.76" x2="109.4" y2="101.29"/>
        <line class="cls-3" x1="110.26" y1="99.05" x2="110.26" y2="100.77"/>
        <line class="cls-3" x1="110.26" y1="99.05" x2="109.4" y2="98.76"/>
        <line class="cls-3" x1="110.26" y1="97.79" x2="109.4" y2="98.08"/>
        <line class="cls-3" x1="109.4" y1="96.17" x2="109.4" y2="98.08"/>
        <line class="cls-3" x1="110.26" y1="96.7" x2="110.26" y2="97.79"/>
        <line class="cls-3" x1="110.26" y1="96.7" x2="109.4" y2="96.17"/>
        <line class="cls-3" x1="113.37" y1="96.17" x2="112.53" y2="96.7"/>
        <line class="cls-3" x1="113.37" y1="98.08" x2="113.37" y2="96.17"/>
        <line class="cls-3" x1="112.53" y1="97.77" x2="112.53" y2="96.7"/>
        <line class="cls-3" x1="113.37" y1="98.08" x2="112.53" y2="97.77"/>
        <line class="cls-3" x1="113.37" y1="98.76" x2="112.53" y2="99.05"/>
        <line class="cls-3" x1="113.37" y1="101.29" x2="113.37" y2="98.76"/>
        <line class="cls-3" x1="112.53" y1="100.77" x2="112.53" y2="99.05"/>
        <line class="cls-3" x1="113.37" y1="101.29" x2="112.53" y2="100.77"/>
        <line class="cls-3" x1="112.84" y1="101.63" x2="112.29" y2="101.29"/>
        <line class="cls-3" x1="110.49" y1="101.29" x2="109.93" y2="101.65"/>
        <line class="cls-3" x1="112.28" y1="96.2" x2="112.84" y2="95.84"/>
        <line class="cls-3" x1="110.5" y1="96.2" x2="109.94" y2="95.84"/>
        <line class="cls-3" x1="110.14" y1="98.42" x2="110.74" y2="98.63"/>
        <line class="cls-3" x1="110.74" y1="98.21" x2="110.14" y2="98.42"/>
        <line class="cls-3" x1="112.63" y1="98.42" x2="112.04" y2="98.21"/>
        <line class="cls-3" x1="112.04" y1="98.63" x2="112.63" y2="98.42"/>
        <line class="cls-3" x1="109.94" y1="95.84" x2="112.84" y2="95.84"/>
        <line class="cls-3" x1="110.5" y1="96.2" x2="112.28" y2="96.2"/>
        <line class="cls-3" x1="109.93" y1="101.65" x2="112.84" y2="101.65"/>
        <line class="cls-3" x1="110.49" y1="101.29" x2="112.29" y2="101.29"/>
        <line class="cls-3" x1="110.74" y1="98.63" x2="112.04" y2="98.63"/>
        <line class="cls-3" x1="110.74" y1="98.21" x2="112.04" y2="98.21"/>
        <line class="cls-3" x1="55.81" y1="90.66" x2="57.03" y2="90.66"/>
        <polyline class="cls-3" points="57.03 90.66 57.13 90.64 57.22 90.58 57.28 90.49 57.3 90.38"/>
        <line class="cls-3" x1="57.3" y1="90.38" x2="57.3" y2="90.32"/>
        <polyline class="cls-3" points="57.59 90.04 57.47 90.07 57.38 90.12 57.33 90.21 57.3 90.32"/>
        <line class="cls-3" x1="57.59" y1="90.04" x2="61.37" y2="90.04"/>
        <polyline class="cls-3" points="61.65 90.32 61.62 90.21 61.57 90.12 61.48 90.07 61.37 90.04"/>
        <line class="cls-3" x1="61.65" y1="90.32" x2="61.65" y2="90.38"/>
        <polyline class="cls-3" points="61.65 90.38 61.67 90.49 61.73 90.58 61.82 90.64 61.92 90.66"/>
        <line class="cls-3" x1="61.92" y1="90.66" x2="63.16" y2="90.66"/>
        <line class="cls-3" x1="55.93" y1="91.22" x2="57.46" y2="91.22"/>
        <polyline class="cls-3" points="57.46 91.22 57.57 91.2 57.66 91.14 57.72 91.05 57.74 90.95"/>
        <line class="cls-3" x1="57.74" y1="90.95" x2="57.74" y2="90.95"/>
        <polyline class="cls-3" points="58.03 90.66 57.92 90.68 57.83 90.74 57.76 90.83 57.74 90.95"/>
        <line class="cls-3" x1="58.03" y1="90.66" x2="60.95" y2="90.66"/>
        <polyline class="cls-3" points="61.24 90.95 61.22 90.83 61.15 90.74 61.06 90.68 60.95 90.66"/>
        <line class="cls-3" x1="61.24" y1="90.95" x2="61.24" y2="90.95"/>
        <polyline class="cls-3" points="61.24 90.95 61.25 91.05 61.32 91.14 61.41 91.2 61.52 91.22"/>
        <line class="cls-3" x1="61.52" y1="91.22" x2="63.04" y2="91.22"/>
        <line class="cls-3" x1="107.75" y1="104.68" x2="115.02" y2="104.68"/>
        <polyline class="cls-3" points="115.02 104.68 115.32 104.65 115.61 104.57 115.89 104.47 116.15 104.31 116.37 104.11 116.57 103.89 116.73 103.63 116.83 103.35 116.91 103.06 116.92 102.78"/>
        <line class="cls-3" x1="116.92" y1="102.78" x2="116.92" y2="94.7"/>
        <polyline class="cls-3" points="116.92 94.7 116.91 94.4 116.83 94.11 116.73 93.84 116.57 93.59 116.37 93.35 116.15 93.17 115.89 93.01 115.61 92.89 115.32 92.82 115.02 92.8"/>
        <line class="cls-3" x1="115.02" y1="92.8" x2="107.75" y2="92.8"/>
        <polyline class="cls-3" points="107.75 92.8 107.46 92.82 107.16 92.89 106.88 93.01 106.63 93.17 106.41 93.35 106.21 93.59 106.05 93.84 105.94 94.11 105.87 94.4 105.84 94.7"/>
        <line class="cls-3" x1="105.84" y1="94.7" x2="105.84" y2="102.78"/>
        <polyline class="cls-3" points="105.84 102.78 105.87 103.06 105.94 103.35 106.05 103.63 106.21 103.89 106.41 104.11 106.63 104.31 106.88 104.47 107.16 104.57 107.46 104.65 107.75 104.68"/>
        <polyline class="cls-3" points="110.85 115.14 110.85 115.18 111.24 114.79 111.24 114.78 111.25 114.76 111.27 114.76 111.28 114.75 111.29 114.75 111.32 114.75 111.36 114.75 111.41 114.75 111.42 114.75 111.44 114.75 111.45 114.76 111.46 114.76 111.46 114.78 111.46 114.78 111.46 114.79 111.45 114.8 111.45 114.83 111.44 114.84 111.06 115.21 111.48 115.76 111.49 115.77 111.5 115.79 111.5 115.8 111.5 115.81 111.5 115.81 111.5 115.83 111.49 115.83 111.49 115.84"/>
        <polyline class="cls-3" points="111.41 115.85 111.45 115.84 111.49 115.84"/>
        <polyline class="cls-3" points="111.41 115.85 111.36 115.84 111.33 115.84 111.32 115.84 111.31 115.84 111.29 115.83 111.29 115.81 111.28 115.81 110.85 115.3 110.85 115.81 110.85 115.81 110.85 115.83 110.83 115.83 110.83 115.84"/>
        <polyline class="cls-3" points="110.68 115.84 110.75 115.85 110.83 115.84"/>
        <polyline class="cls-3" points="110.68 115.84 110.68 115.83 110.66 115.83 110.66 115.81 110.66 115.81 110.66 114.29 110.66 114.28 110.66 114.26 110.68 114.26 110.68 114.25"/>
        <polyline class="cls-3" points="110.81 114.25 110.74 114.25 110.68 114.25"/>
        <polyline class="cls-3" points="110.81 114.25 110.82 114.25 110.83 114.25 110.83 114.26 110.85 114.26 110.85 114.28 110.85 114.29 110.85 115.14"/>
        <polyline class="cls-3" points="113.25 115.81 113.25 115.83 113.23 115.83 113.23 115.84"/>
        <polyline class="cls-3" points="113.08 115.84 113.16 115.85 113.23 115.84"/>
        <polyline class="cls-3" points="113.08 115.84 113.06 115.83 113.06 115.83 113.06 115.81 113.06 115.81 113.06 115.18"/>
        <polyline class="cls-3" points="113.06 115.18 113.05 115.13 113.05 115.06"/>
        <polyline class="cls-3" points="113.05 115.06 113.04 115.02 113.01 114.97"/>
        <polyline class="cls-3" points="113.01 114.97 112.95 114.91 112.85 114.89"/>
        <polyline class="cls-3" points="112.85 114.89 112.79 114.91 112.72 114.95"/>
        <polyline class="cls-3" points="112.72 114.95 112.64 115.01 112.58 115.09"/>
        <polyline class="cls-3" points="112.58 115.09 112.58 115.81 112.58 115.81 112.58 115.83 112.57 115.83 112.57 115.84"/>
        <polyline class="cls-3" points="112.43 115.84 112.5 115.85 112.57 115.84"/>
        <polyline class="cls-3" points="112.43 115.84 112.42 115.84 112.41 115.84 112.41 115.83 112.39 115.83 112.39 115.81 112.39 115.81 112.39 115.18"/>
        <polyline class="cls-3" points="112.39 115.18 112.39 115.13 112.38 115.06"/>
        <polyline class="cls-3" points="112.38 115.06 112.37 115.02 112.34 114.97"/>
        <polyline class="cls-3" points="112.34 114.97 112.32 114.95 112.28 114.92"/>
        <polyline class="cls-3" points="112.28 114.92 112.24 114.89 112.18 114.89"/>
        <polyline class="cls-3" points="112.18 114.89 112.12 114.91 112.05 114.95"/>
        <polyline class="cls-3" points="112.05 114.95 111.97 115.01 111.91 115.09"/>
        <polyline class="cls-3" points="111.91 115.09 111.91 115.81 111.91 115.81 111.91 115.83 111.9 115.83 111.9 115.84"/>
        <polyline class="cls-3" points="111.74 115.84 111.82 115.85 111.9 115.84"/>
        <polyline class="cls-3" points="111.74 115.84 111.74 115.83 111.73 115.83 111.73 115.81 111.73 115.81 111.73 114.78 111.73 114.78 111.73 114.76 111.74 114.76 111.74 114.75 111.75 114.75 111.76 114.75 111.8 114.75 111.86 114.75 111.87 114.75 111.88 114.75 111.88 114.76 111.9 114.76 111.9 114.78 111.9 114.78 111.9 114.92"/>
        <polyline class="cls-3" points="112.07 114.78 111.97 114.84 111.9 114.92"/>
        <polyline class="cls-3" points="112.22 114.74 112.15 114.74 112.07 114.78"/>
        <polyline class="cls-3" points="112.34 114.75 112.29 114.74 112.22 114.74"/>
        <polyline class="cls-3" points="112.43 114.79 112.39 114.76 112.34 114.75"/>
        <polyline class="cls-3" points="112.5 114.85 112.47 114.81 112.43 114.79"/>
        <polyline class="cls-3" points="112.54 114.93 112.53 114.89 112.5 114.85"/>
        <polyline class="cls-3" points="112.54 114.93 112.59 114.88 112.64 114.84"/>
        <polyline class="cls-3" points="112.74 114.78 112.68 114.8 112.64 114.84"/>
        <polyline class="cls-3" points="112.81 114.74 112.78 114.76 112.74 114.78"/>
        <polyline class="cls-3" points="112.89 114.74 112.85 114.74 112.81 114.74"/>
        <polyline class="cls-3" points="113.06 114.76 112.99 114.74 112.89 114.74"/>
        <polyline class="cls-3" points="113.17 114.85 113.12 114.8 113.06 114.76"/>
        <polyline class="cls-3" points="113.23 115 113.21 114.92 113.17 114.85"/>
        <polyline class="cls-3" points="113.25 115.16 113.25 115.08 113.23 115"/>
        <polyline class="cls-3" points="113.25 115.16 113.25 115.81 113.25 115.81"/>
        <polyline class="cls-3" points="81.22 110.78 81.21 110.81 81.19 110.85"/>
        <line class="cls-3" x1="81.19" y1="110.85" x2="81.19" y2="112.12"/>
        <polyline class="cls-3" points="81.19 112.12 81.21 112.15 81.22 112.18"/>
        <polyline class="cls-3" points="81.22 112.18 81.25 112.19 81.27 112.19"/>
        <polyline class="cls-3" points="81.27 112.19 81.57 112.19 81.64 112.19"/>
        <polyline class="cls-3" points="81.64 112.19 81.81 112.18 81.97 112.11 82.11 112.02"/>
        <polyline class="cls-3" points="82.11 112.02 82.19 111.91 82.24 111.78"/>
        <polyline class="cls-3" points="82.24 111.78 82.28 111.62 82.3 111.47"/>
        <polyline class="cls-3" points="82.3 111.47 82.28 111.31 82.24 111.18"/>
        <polyline class="cls-3" points="82.24 111.18 82.19 111.06 82.11 110.96"/>
        <polyline class="cls-3" points="82.11 110.96 82.02 110.88 81.9 110.82"/>
        <polyline class="cls-3" points="81.9 110.82 81.74 110.78 81.59 110.77"/>
        <line class="cls-3" x1="81.59" y1="110.77" x2="81.27" y2="110.77"/>
        <polyline class="cls-3" points="81.27 110.77 81.25 110.77 81.22 110.78"/>
        <polyline class="cls-3" points="82.94 110.96 82.86 111.01 82.79 111.09"/>
        <polyline class="cls-3" points="82.79 111.09 82.76 111.17 82.73 111.26"/>
        <polyline class="cls-3" points="82.73 111.26 82.7 111.36 82.7 111.48"/>
        <polyline class="cls-3" points="82.7 111.48 82.7 111.6 82.73 111.7"/>
        <polyline class="cls-3" points="82.73 111.7 82.76 111.81 82.79 111.89"/>
        <polyline class="cls-3" points="82.79 111.89 82.85 111.95 82.93 112.01"/>
        <polyline class="cls-3" points="82.93 112.01 83.07 112.04 83.2 112.04 83.35 112.01"/>
        <polyline class="cls-3" points="83.35 112.01 83.43 111.95 83.48 111.87"/>
        <polyline class="cls-3" points="83.48 111.87 83.53 111.8 83.56 111.7"/>
        <polyline class="cls-3" points="83.56 111.7 83.57 111.59 83.57 111.48"/>
        <polyline class="cls-3" points="83.57 111.48 83.57 111.36 83.56 111.26"/>
        <polyline class="cls-3" points="83.56 111.26 83.53 111.17 83.48 111.07"/>
        <polyline class="cls-3" points="83.48 111.07 83.43 111.01 83.35 110.96"/>
        <polyline class="cls-3" points="83.35 110.96 83.22 110.92 83.07 110.92 82.94 110.96"/>
        <polyline class="cls-3" points="79.97 112.16 80.09 112.2 80.22 112.22"/>
        <polyline class="cls-3" points="80.22 112.22 80.45 112.19 80.64 112.1"/>
        <polyline class="cls-3" points="80.64 112.1 80.69 112.06 80.73 112.02"/>
        <polyline class="cls-3" points="80.73 112.02 80.83 111.86 80.88 111.68"/>
        <polyline class="cls-3" points="80.88 111.68 80.89 111.57 80.89 111.47"/>
        <polyline class="cls-3" points="80.89 111.47 80.89 111.31 80.87 111.17"/>
        <polyline class="cls-3" points="80.87 111.17 80.81 111.05 80.75 110.93"/>
        <polyline class="cls-3" points="80.75 110.93 80.69 110.89 80.66 110.85"/>
        <polyline class="cls-3" points="80.66 110.85 80.47 110.77 80.29 110.74"/>
        <polyline class="cls-3" points="80.29 110.74 80.05 110.78 79.85 110.89"/>
        <polyline class="cls-3" points="79.85 110.89 79.71 111.07 79.64 111.28"/>
        <polyline class="cls-3" points="79.64 111.28 79.63 111.39 79.63 111.49"/>
        <polyline class="cls-3" points="79.63 111.49 79.63 111.56 79.63 111.64"/>
        <polyline class="cls-3" points="79.63 111.64 79.67 111.85 79.78 112.03"/>
        <polyline class="cls-3" points="79.78 112.03 79.87 112.11 79.97 112.16"/>
        <polyline class="cls-3" points="82.85 112.16 82.98 112.2 83.1 112.22"/>
        <polyline class="cls-3" points="83.1 112.22 83.32 112.19 83.52 112.1"/>
        <polyline class="cls-3" points="83.52 112.1 83.57 112.06 83.61 112.02"/>
        <polyline class="cls-3" points="83.61 112.02 83.7 111.86 83.75 111.68"/>
        <polyline class="cls-3" points="83.75 111.68 83.77 111.57 83.78 111.47"/>
        <polyline class="cls-3" points="83.78 111.47 83.77 111.31 83.74 111.17"/>
        <polyline class="cls-3" points="83.74 111.17 83.69 111.05 83.62 110.93"/>
        <polyline class="cls-3" points="83.62 110.93 83.58 110.89 83.53 110.85"/>
        <polyline class="cls-3" points="83.53 110.85 83.35 110.77 83.16 110.74"/>
        <polyline class="cls-3" points="83.16 110.74 82.94 110.78 82.73 110.89"/>
        <polyline class="cls-3" points="82.73 110.89 82.58 111.07 82.52 111.28"/>
        <polyline class="cls-3" points="82.52 111.28 82.51 111.39 82.51 111.49"/>
        <polyline class="cls-3" points="82.51 111.49 82.51 111.56 82.51 111.64"/>
        <polyline class="cls-3" points="82.51 111.64 82.56 111.85 82.65 112.03"/>
        <polyline class="cls-3" points="82.65 112.03 82.74 112.11 82.85 112.16"/>
        <polyline class="cls-3" points="81.97 111.09 81.9 111.02 81.82 110.97"/>
        <polyline class="cls-3" points="82.06 111.26 82.03 111.17 81.97 111.09"/>
        <polyline class="cls-3" points="82.1 111.47 82.09 111.36 82.06 111.26"/>
        <polyline class="cls-3" points="82.06 111.72 82.09 111.6 82.1 111.47"/>
        <polyline class="cls-3" points="81.73 112.02 81.88 111.97 81.99 111.86 82.06 111.72"/>
        <polyline class="cls-3" points="81.59 112.03 81.65 112.03 81.73 112.02"/>
        <polyline class="cls-3" points="81.59 112.03 81.39 112.03 81.39 110.93 81.57 110.93"/>
        <polyline class="cls-3" points="81.82 110.97 81.71 110.94 81.57 110.93"/>
        <polyline class="cls-3" points="80.6 111.07 80.55 111.01 80.47 110.96"/>
        <polyline class="cls-3" points="80.47 110.96 80.34 110.92 80.2 110.92 80.06 110.96"/>
        <polyline class="cls-3" points="80.06 110.96 79.92 111.09 79.85 111.26"/>
        <polyline class="cls-3" points="79.85 111.26 79.83 111.36 79.83 111.48"/>
        <polyline class="cls-3" points="79.83 111.48 79.83 111.6 79.84 111.7"/>
        <polyline class="cls-3" points="79.84 111.7 79.87 111.81 79.92 111.89"/>
        <polyline class="cls-3" points="79.92 111.89 79.97 111.95 80.05 112.01"/>
        <polyline class="cls-3" points="80.05 112.01 80.18 112.04 80.33 112.04 80.47 112.01"/>
        <polyline class="cls-3" points="80.47 112.01 80.54 111.95 80.6 111.87"/>
        <polyline class="cls-3" points="80.6 111.87 80.64 111.8 80.68 111.7"/>
        <polyline class="cls-3" points="80.68 111.7 80.69 111.59 80.69 111.48"/>
        <polyline class="cls-3" points="80.69 111.48 80.69 111.36 80.68 111.26"/>
        <polyline class="cls-3" points="80.68 111.26 80.66 111.17 80.6 111.07"/>
        <polyline class="cls-3" points="104.81 107.69 105.24 108.34 105.61 108.34 105.02 107.49"/>
        <polyline class="cls-3" points="104.81 107.69 105.24 108.34 105.61 108.34 105.02 107.49"/>
        <line class="cls-3" x1="105.02" y1="107.49" x2="105.6" y2="106.94"/>
        <polyline class="cls-3" points="105.6 106.94 105.16 106.94 104.65 107.46"/>
        <line class="cls-3" x1="104.65" y1="107.46" x2="104.65" y2="106.45"/>
        <polyline class="cls-3" points="104.65 106.45 104.35 106.45 104.35 108.34 104.65 108.34 104.65 107.84 104.81 107.69"/>
        <polyline class="cls-3" points="106.4 107.19 106.5 107.21 106.57 107.32 106.59 107.49 106.59 108.34 106.89 108.34 106.89 107.49 106.89 107.45 106.95 107.31 107.04 107.23 107.18 107.19 107.2 107.19"/>
        <polyline class="cls-3" points="106.4 107.19 106.5 107.21 106.57 107.32 106.59 107.49 106.59 108.34 106.89 108.34 106.89 107.49 106.89 107.45 106.95 107.31 107.04 107.23 107.18 107.19 107.2 107.19"/>
        <polyline class="cls-3" points="107.2 107.19 107.31 107.21 107.38 107.32 107.41 107.49 107.41 108.34 107.7 108.34 107.7 107.46 107.7 107.46 107.68 107.29 107.64 107.16"/>
        <polyline class="cls-3" points="107.2 107.19 107.31 107.21 107.38 107.32 107.41 107.49 107.41 108.34 107.7 108.34 107.7 107.46 107.7 107.46 107.68 107.29 107.64 107.16"/>
        <line class="cls-3" x1="106.08" y1="107.11" x2="106.08" y2="106.96"/>
        <polyline class="cls-3" points="106.08 106.96 105.78 106.96 105.78 108.34 106.08 108.34 106.08 107.49 106.08 107.45 106.15 107.32 106.24 107.23 106.37 107.19 106.4 107.19"/>
        <polyline class="cls-3" points="106.84 107.15 106.8 107.1 106.7 106.99 106.57 106.94 106.4 106.92"/>
        <polyline class="cls-3" points="106.4 106.92 106.32 106.94 106.19 106.99 106.08 107.11"/>
        <polyline class="cls-3" points="107.64 107.16 107.58 107.06 107.49 106.98 107.35 106.94 107.2 106.92"/>
        <polyline class="cls-3" points="107.2 106.92 107.07 106.95 106.95 107.02 106.84 107.15"/>
        <polyline class="cls-3" points="108.35 106.43 108.6 106.43 108.1 108.37 107.87 108.37 108.35 106.43 108.35 106.43"/>
        <polyline class="cls-3" points="109.39 107.17 109.43 107.17 109.55 107.23 109.63 107.32 109.64 107.49 109.64 108.34 109.94 108.34 109.94 107.46 109.94 107.44 109.93 107.28 109.89 107.15"/>
        <polyline class="cls-3" points="109.39 107.17 109.43 107.17 109.55 107.23 109.63 107.32 109.64 107.49 109.64 108.34 109.94 108.34 109.94 107.46 109.94 107.44 109.93 107.28 109.89 107.15"/>
        <polyline class="cls-3" points="109.89 107.15 109.82 107.04 109.72 106.98 109.59 106.94 109.44 106.92"/>
        <polyline class="cls-3" points="109.44 106.92 109.44 106.92 109.27 106.94 109.14 107 109.05 107.11"/>
        <line class="cls-3" x1="109.05" y1="107.11" x2="109.05" y2="106.45"/>
        <polyline class="cls-3" points="109.05 106.45 108.76 106.45 108.76 108.34 109.05 108.34 109.05 107.49 109.07 107.41 109.13 107.29 109.23 107.21 109.39 107.17"/>
        <line class="cls-3" x1="104.18" y1="83.11" x2="105.67" y2="83.11"/>
        <polyline class="cls-3" points="105.67 83.11 105.73 83.24 105.78 83.38"/>
        <polyline class="cls-3" points="105.78 83.38 104.18 83.38 104.18 83.11"/>
        <line class="cls-3" x1="104.18" y1="82.56" x2="105.56" y2="82.56"/>
        <polyline class="cls-3" points="105.56 82.56 105.58 82.7 105.61 82.83"/>
        <polyline class="cls-3" points="105.61 82.83 104.18 82.83 104.18 82.56"/>
        <line class="cls-3" x1="104.18" y1="82.02" x2="105.54" y2="82.02"/>
        <polyline class="cls-3" points="105.54 82.02 105.54 82.15 105.54 82.29"/>
        <polyline class="cls-3" points="105.54 82.29 104.18 82.29 104.18 82.02"/>
        <line class="cls-3" x1="104.18" y1="81.48" x2="105.62" y2="81.48"/>
        <polyline class="cls-3" points="105.62 81.48 105.6 81.61 105.57 81.76"/>
        <polyline class="cls-3" points="105.57 81.76 104.18 81.76 104.18 81.48"/>
        <polyline class="cls-3" points="105.81 80.93 105.74 81.07 105.7 81.21"/>
        <polyline class="cls-3" points="105.7 81.21 104.18 81.21 104.18 80.93 105.81 80.93"/>
        <polyline class="cls-3" points="107.37 83.25 107.67 83.15 107.94 82.99"/>
        <polyline class="cls-3" points="107.94 82.99 108.1 82.81 108.23 82.6 108.31 82.36"/>
        <polyline class="cls-3" points="108.31 82.36 108.34 82.11 108.3 81.86 108.21 81.63"/>
        <polyline class="cls-3" points="108.21 81.63 108.09 81.47 107.96 81.32"/>
        <polyline class="cls-3" points="107.96 81.32 107.73 81.18 107.5 81.09"/>
        <polyline class="cls-3" points="107.5 81.09 107.04 81 106.57 80.96 106.09 80.97"/>
        <polyline class="cls-3" points="106.09 80.97 105.96 81.28 105.87 81.63 105.83 81.98 105.82 82.32 105.86 82.68 105.95 83.02 106.07 83.35"/>
        <polyline class="cls-3" points="106.07 83.35 106.5 83.36 106.93 83.33 107.37 83.25"/>
        <polyline class="cls-3" points="107.31 83.02 107.55 82.93 107.79 82.79"/>
        <polyline class="cls-3" points="107.79 82.79 107.96 82.57 108.06 82.31"/>
        <polyline class="cls-3" points="108.06 82.31 108.09 82.12 108.06 81.93 108 81.74"/>
        <polyline class="cls-3" points="108 81.74 107.91 81.63 107.79 81.51"/>
        <polyline class="cls-3" points="107.79 81.51 107.63 81.4 107.43 81.32"/>
        <polyline class="cls-3" points="107.43 81.32 107.05 81.24 106.66 81.21 106.26 81.21"/>
        <polyline class="cls-3" points="106.26 81.21 106.16 81.51 106.09 81.84 106.07 82.15 106.08 82.48 106.15 82.79 106.24 83.11"/>
        <polyline class="cls-3" points="106.24 83.11 106.78 83.1 107.31 83.02"/>
        <polyline class="cls-3" points="80.76 114 79.72 114 79.72 114.16 80.14 114.16 80.14 115.47 80.33 115.47 80.33 114.16 80.76 114.16 80.76 114"/>
        <polyline class="cls-3" points="81.31 114.85 81.35 114.85 81.46 114.89 81.52 114.95 81.6 115.06 81.84 115.47 82.07 115.47 81.78 115.02 81.73 114.95 81.68 114.87 81.67 114.87 81.57 114.79"/>
        <polyline class="cls-3" points="81.31 114.85 81.35 114.85 81.46 114.89 81.52 114.95 81.6 115.06 81.84 115.47 82.07 115.47 81.78 115.02 81.73 114.95 81.68 114.87 81.67 114.87 81.57 114.79"/>
        <polyline class="cls-3" points="81.69 114.75 81.78 114.68 81.85 114.6 81.89 114.5 81.9 114.39 81.89 114.29 81.85 114.18 81.77 114.11"/>
        <polyline class="cls-3" points="81.4 114.16 81.53 114.18 81.63 114.22 81.68 114.29 81.69 114.41 81.68 114.51 81.61 114.6 81.52 114.67 81.4 114.68 81.18 114.68"/>
        <polyline class="cls-3" points="81.69 114.75 81.78 114.68 81.85 114.6 81.89 114.5 81.9 114.39 81.89 114.29 81.85 114.18 81.77 114.11"/>
        <polyline class="cls-3" points="81.4 114.16 81.53 114.18 81.63 114.22 81.68 114.29 81.69 114.41 81.68 114.51 81.61 114.6 81.52 114.67 81.4 114.68 81.18 114.68"/>
        <polyline class="cls-3" points="81.77 114.11 81.77 114.09 81.68 114.04 81.57 114 81.44 114"/>
        <polyline class="cls-3" points="81.18 114.68 81.18 114.16 81.4 114.16"/>
        <line class="cls-3" x1="81.57" y1="114.79" x2="81.69" y2="114.75"/>
        <polyline class="cls-3" points="81.44 114 80.98 114 80.98 115.47 81.18 115.47 81.18 114.85 81.31 114.85"/>
        <polyline class="cls-3" points="82.45 114 82.45 115.47 82.27 115.47 82.27 114 82.45 114 82.45 114"/>
        <polyline class="cls-3" points="83.65 114.76 83.71 114.67 83.75 114.57 83.77 114.45 83.77 114.42 83.74 114.3 83.7 114.2 83.64 114.11"/>
        <polyline class="cls-3" points="83.23 114.16 83.32 114.17 83.43 114.2 83.5 114.26 83.54 114.34 83.56 114.45 83.56 114.47 83.53 114.59 83.48 114.67 83.44 114.7 83.33 114.74 83.2 114.75 83.03 114.75"/>
        <polyline class="cls-3" points="83.65 114.76 83.71 114.67 83.75 114.57 83.77 114.45 83.77 114.42 83.74 114.3 83.7 114.2 83.64 114.11"/>
        <polyline class="cls-3" points="83.23 114.16 83.32 114.17 83.43 114.2 83.5 114.26 83.54 114.34 83.56 114.45 83.56 114.47 83.53 114.59 83.48 114.67 83.44 114.7 83.33 114.74 83.2 114.75 83.03 114.75"/>
        <polyline class="cls-3" points="83.64 114.11 83.6 114.08 83.5 114.04 83.39 114 83.25 114"/>
        <polyline class="cls-3" points="83.03 114.75 83.03 114.16 83.23 114.16"/>
        <polyline class="cls-3" points="83.25 114 82.83 114 82.83 115.47 83.03 115.47 83.03 114.92 83.22 114.92 83.29 114.92 83.41 114.91 83.52 114.85 83.61 114.79 83.65 114.76"/>
        <polyline class="cls-3" points="80.08 82.41 80.05 82.43 80.01 82.43 80.01 83.52 79.41 83.52 79.41 80.82 80.3 80.82 80.43 80.84 80.55 80.84 80.66 80.86 80.76 80.88 80.85 80.92 80.93 80.96 81 81 81.02 81.02 81.1 81.09 81.15 81.17 81.21 81.26 81.23 81.36 81.26 81.48 81.26 81.61 81.25 81.73 81.23 81.84 81.18 81.94 81.15 81.99 81.1 82.07 81.02 82.14 80.93 82.2 80.84 82.26 80.93 82.31 81 82.37 81.06 82.47 81.11 82.57 81.13 82.6 81.51 83.52 80.83 83.52 80.52 82.74 80.47 82.62 80.41 82.53 80.35 82.49 80.27 82.45 80.17 82.43 80.08 82.41"/>
        <polyline class="cls-3" points="80.3 81.31 80.01 81.31 80.01 81.93 80.3 81.93 80.42 81.91 80.51 81.89 80.55 81.85 80.6 81.77 80.63 81.65 80.63 81.61 80.62 81.49 80.58 81.4 80.55 81.39 80.47 81.34 80.37 81.31 80.3 81.31"/>
        <polyline class="cls-3" points="83.32 80.82 83.32 81.32 82.31 81.32 82.31 81.87 83.27 81.87 83.27 82.37 82.31 82.37 82.31 83.02 83.35 83.02 83.35 83.52 81.71 83.52 81.71 80.82 83.32 80.82"/>
        <polyline class="cls-3" points="88.4 83 88.33 83.1 88.26 83.17 88.18 83.25 88.1 83.32 88.01 83.37 87.91 83.41 87.81 83.45 87.74 83.46 87.68 83.49 87.59 83.5 87.48 83.5 87.36 83.52 87.24 83.52 86.29 83.52 86.29 80.82 87.19 80.82 87.32 80.82 87.44 80.84 87.55 80.85 87.64 80.86 87.73 80.88 87.8 80.89 87.89 80.93 87.99 80.97 88.08 81.02 88.16 81.09 88.19 81.11 88.27 81.18 88.35 81.27 88.41 81.35 88.48 81.44 88.53 81.55 88.54 81.57 88.58 81.68 88.61 81.78 88.64 81.89 88.65 82.01 88.66 82.12 88.66 82.18 88.65 82.29 88.64 82.41 88.62 82.52 88.6 82.62 88.56 82.73 88.52 82.82 88.47 82.91 88.4 83"/>
        <polyline class="cls-3" points="84.44 82.53 85.16 82.53 84.82 81.51 84.44 82.53"/>
        <polyline class="cls-3" points="89.24 80.82 89.77 81.7 90.32 80.82 91.03 80.82 90.07 82.29 90.07 83.52 89.46 83.52 89.46 82.29 88.52 80.82 89.24 80.82"/>
        <polyline class="cls-3" points="85.18 80.82 86.12 83.52 85.47 83.52 85.3 82.99 84.27 82.99 84.07 83.52 83.43 83.52 84.48 80.82 85.18 80.82"/>
        <polyline class="cls-3" points="87.34 81.38 86.89 81.38 86.89 82.98 87.34 82.98 87.45 82.96 87.55 82.94 87.64 82.91 87.73 82.85 87.81 82.78 87.85 82.74 87.9 82.66 87.95 82.57 87.99 82.47 88.02 82.36 88.03 82.24 88.03 82.18 88.03 82.05 88.01 81.93 87.98 81.82 87.94 81.73 87.87 81.64 87.85 81.6 87.77 81.52 87.69 81.47 87.6 81.42 87.49 81.39 87.39 81.38 87.34 81.38"/>
        <line class="cls-3" x1="100.21" y1="82.66" x2="99.9" y2="82.66"/>
        <polyline class="cls-3" points="99.89 82.65 99.89 82.66 99.9 82.66"/>
        <line class="cls-3" x1="99.89" y1="82.65" x2="99.89" y2="81.11"/>
        <polyline class="cls-3" points="99.9 81.1 99.89 81.1 99.89 81.11"/>
        <line class="cls-3" x1="99.9" y1="81.1" x2="100.31" y2="81.1"/>
        <polyline class="cls-3" points="100.31 81.1 100.32 81.1 100.32 81.09"/>
        <line class="cls-3" x1="100.32" y1="81.09" x2="100.32" y2="80.98"/>
        <polyline class="cls-3" points="100.32 80.98 100.32 80.97 100.31 80.97"/>
        <line class="cls-3" x1="100.31" y1="80.97" x2="99.68" y2="80.97"/>
        <polyline class="cls-3" points="99.66 80.96 99.66 80.96 99.68 80.97"/>
        <line class="cls-3" x1="99.66" y1="80.96" x2="99.66" y2="80.88"/>
        <polyline class="cls-3" points="99.68 80.86 99.66 80.86 99.66 80.88"/>
        <line class="cls-3" x1="99.68" y1="80.86" x2="100.31" y2="80.86"/>
        <polyline class="cls-3" points="100.31 80.86 100.32 80.85 100.32 80.85"/>
        <line class="cls-3" x1="100.32" y1="80.85" x2="100.32" y2="80.44"/>
        <polyline class="cls-3" points="100.38 80.39 100.34 80.4 100.32 80.44"/>
        <line class="cls-3" x1="100.38" y1="80.39" x2="100.8" y2="80.39"/>
        <polyline class="cls-3" points="100.87 80.44 100.84 80.4 100.8 80.39"/>
        <line class="cls-3" x1="100.87" y1="80.44" x2="100.87" y2="80.85"/>
        <polyline class="cls-3" points="100.87 80.85 100.87 80.85 100.88 80.86"/>
        <line class="cls-3" x1="100.88" y1="80.86" x2="101.5" y2="80.86"/>
        <polyline class="cls-3" points="101.51 80.88 101.51 80.86 101.5 80.86"/>
        <line class="cls-3" x1="101.51" y1="80.88" x2="101.51" y2="80.96"/>
        <polyline class="cls-3" points="101.5 80.97 101.51 80.96 101.51 80.96"/>
        <line class="cls-3" x1="101.5" y1="80.97" x2="100.88" y2="80.97"/>
        <polyline class="cls-3" points="100.88 80.97 100.87 80.97 100.87 80.98"/>
        <line class="cls-3" x1="100.87" y1="80.98" x2="100.87" y2="81.09"/>
        <polyline class="cls-3" points="100.87 81.09 100.87 81.1 100.88 81.1"/>
        <line class="cls-3" x1="100.88" y1="81.1" x2="101.29" y2="81.1"/>
        <polyline class="cls-3" points="101.3 81.11 101.3 81.1 101.29 81.1"/>
        <line class="cls-3" x1="101.3" y1="81.11" x2="101.3" y2="82.65"/>
        <polyline class="cls-3" points="101.29 82.66 101.3 82.66 101.3 82.65"/>
        <line class="cls-3" x1="101.29" y1="82.66" x2="100.97" y2="82.66"/>
        <line class="cls-3" x1="100.25" y1="81.4" x2="100.94" y2="81.4"/>
        <polyline class="cls-3" points="100.99 81.45 100.97 81.42 100.94 81.4"/>
        <line class="cls-3" x1="100.99" y1="81.45" x2="100.99" y2="81.8"/>
        <polyline class="cls-3" points="100.94 81.85 100.97 81.84 100.99 81.8"/>
        <line class="cls-3" x1="100.94" y1="81.85" x2="100.25" y2="81.85"/>
        <polyline class="cls-3" points="100.2 81.8 100.21 81.84 100.25 81.85"/>
        <line class="cls-3" x1="100.2" y1="81.8" x2="100.2" y2="81.45"/>
        <polyline class="cls-3" points="100.25 81.4 100.21 81.42 100.2 81.45"/>
        <polyline class="cls-3" points="100.97 82.66 100.87 82.28 100.59 82.12 100.32 82.28 100.21 82.66"/>
        <polyline class="cls-3" points="100.59 83.14 100.65 83.12 100.71 83.11 100.76 83.06 100.82 83 100.86 82.94 100.88 82.85 100.91 82.75 100.91 82.66 100.91 82.57 100.88 82.48 100.86 82.39 100.82 82.32 100.76 82.26 100.71 82.22 100.65 82.19 100.59 82.19 100.53 82.19 100.48 82.22 100.42 82.26 100.37 82.32 100.33 82.39 100.29 82.48 100.28 82.57 100.27 82.66 100.28 82.75 100.29 82.85 100.33 82.94 100.37 83 100.42 83.06 100.48 83.11 100.53 83.12 100.59 83.14"/>
        <polyline class="cls-3" points="100.59 83.2 100.41 83.21 100.25 83.24 100.12 83.27 100 83.29 99.91 83.32 99.83 83.35 99.78 83.37 99.73 83.4 99.68 83.45 99.65 83.49 99.65 83.54 99.66 83.57 99.69 83.61 99.73 83.63 99.79 83.66 99.87 83.69 99.99 83.71 100.11 83.73 100.41 83.77 100.69 83.79 100.8 83.8 100.9 83.8 100.97 83.82 101.01 83.83 101.04 83.84 101.05 83.86 101.04 83.87 101.03 83.88 101 83.9 100.96 83.92 100.88 83.94 100.79 83.96 100.66 83.98 100.5 84"/>
        <polyline class="cls-3" points="100.59 83.2 100.49 83.24 100.41 83.28 100.33 83.32 100.28 83.36 100.24 83.38 100.21 83.41 100.17 83.46 100.17 83.5 100.2 83.53 100.24 83.56 100.29 83.57 100.36 83.58 100.45 83.59 100.55 83.59 100.67 83.61 100.92 83.63 101.05 83.65 101.16 83.66 101.25 83.67 101.33 83.7 101.39 83.71 101.43 83.74 101.47 83.75 101.5 83.78 101.51 83.79 101.5 83.82 101.49 83.84 101.46 83.87 101.42 83.9 101.36 83.92 101.3 83.94 101.25 83.95 101.17 83.96 101.08 83.98 100.97 83.99 100.84 83.99 100.69 84 100.5 84"/>
        <polyline class="cls-3" points="62.79 81.31 62.8 81.17 62.84 81.02 62.92 80.9 63.01 80.8 63.13 80.72 63.26 80.65 63.41 80.64 63.42 80.64 63.42 80.64 63.43 80.64 63.49 80.64 63.56 80.64 63.67 80.64 63.79 80.64 63.92 80.64 64.21 80.64 64.48 80.64 64.6 80.64 64.69 80.64 64.77 80.64 64.8 80.64 64.81 80.64 64.85 80.64 64.92 80.65 65.06 80.69 65.18 80.76 65.28 80.86 65.36 80.98 65.42 81.11 65.44 81.26 65.44 81.3 65.44 81.31 65.44 81.31 65.44 81.32 65.44 81.35 65.44 81.4 65.44 81.52 65.44 81.57 65.44 81.6 65.46 81.6 65.47 81.57 65.53 81.51 65.59 81.44 65.61 81.43 65.61 81.43 65.63 81.44 65.65 81.47 65.72 81.53 65.74 81.57 65.77 81.59 65.77 81.6 65.76 81.61 65.73 81.64 65.67 81.7 65.57 81.8 65.48 81.9 65.4 81.98 65.38 82.02 65.35 82.03 65.34 82.05 65.34 82.05 65.32 82.05 65.3 82.02 65.23 81.94 65.06 81.76 64.97 81.68 64.94 81.64 64.92 81.61 64.9 81.6 64.9 81.6 64.9 81.59 64.93 81.56 64.97 81.52 65.02 81.45 65.05 81.43 65.06 81.43 65.06 81.44 65.09 81.45 65.15 81.53 65.19 81.56 65.21 81.59 65.22 81.6 65.22 81.59 65.22 81.55 65.22 81.49 65.22 81.38 65.22 81.34 65.22 81.31 65.22 81.31 65.22 81.28 65.22 81.23 65.19 81.14 65.14 81.06 65.09 81 65.01 80.93 64.93 80.89 64.84 80.88 64.81 80.88 64.8 80.88 64.77 80.88 64.71 80.88 64.62 80.88 64.5 80.88 64.37 80.88 63.8 80.88 63.68 80.88 63.58 80.88 63.49 80.88 63.45 80.88 63.42 80.88 63.37 80.88 63.28 80.9 63.2 80.94 63.13 81.01 63.08 81.07 63.04 81.17 63.01 81.26 63.01 81.31 63.01 81.32 63.01 81.36 63.01 81.42 63.01 81.49 63.01 81.57 63.01 81.97 63.01 82.05 63.01 82.12 63.01 82.19 63.01 82.24 63.01 82.26 63.01 82.26 62.99 82.26 62.91 82.26 62.82 82.26 62.79 82.26 62.79 82.26 62.79 82.24 62.79 82.2 62.79 82.14 62.79 82.06 62.79 81.87 62.79 81.68 62.79 81.49 62.79 81.43 62.79 81.36 62.79 81.32 62.79 81.31"/>
        <polyline class="cls-3" points="64.79 82.22 64.79 82.23 64.77 82.24 64.75 82.27 64.72 82.31 64.63 82.4 64.52 82.52 64.3 82.77 64.2 82.9 64.09 83 64.01 83.08 63.99 83.11 63.97 83.14 63.96 83.15 63.96 83.15 63.96 83.15 63.95 83.16 63.92 83.16 63.89 83.16 63.87 83.14 63.87 83.11 63.87 83.1 63.87 83.08 63.87 83.06 63.88 83 63.91 82.86 63.93 82.7 63.95 82.64 63.96 82.58 63.97 82.54 63.97 82.53 63.96 82.52 63.93 82.5 63.89 82.49 63.84 82.48 63.72 82.43 63.62 82.39 63.58 82.37 63.55 82.36 63.54 82.36 63.53 82.35 63.51 82.32 63.51 82.27 63.53 82.27 63.53 82.26 63.53 82.26 63.53 82.26 63.55 82.23 63.58 82.2 63.66 82.11 63.75 82.01 63.85 81.89 64.09 81.63 64.2 81.51 64.27 81.42 64.3 81.39 64.33 81.36 64.34 81.34 64.35 81.34 64.38 81.32 64.41 81.31 64.43 81.32 64.44 81.35 64.46 81.38 64.46 81.39 64.44 81.39 64.44 81.42 64.43 81.45 64.43 81.52 64.39 81.68 64.37 81.82 64.35 81.89 64.35 81.93 64.34 81.95 64.35 81.95 64.37 81.97 64.41 81.98 64.51 82.02 64.63 82.07 64.68 82.08 64.73 82.11 64.76 82.11 64.77 82.12 64.8 82.15 64.8 82.19 64.8 82.22 64.79 82.22 64.79 82.22"/>
        <polyline class="cls-3" points="64.81 83.92 64.96 83.91 65.09 83.86 65.21 83.78 65.3 83.69 65.38 83.56 65.43 83.42 65.44 83.27 65.44 83.21 65.44 83.16 65.44 83.08 65.44 82.91 65.44 82.71 65.44 82.52 65.44 82.44 65.44 82.37 65.44 82.33 65.44 82.31 65.44 82.31 65.42 82.31 65.32 82.31 65.25 82.31 65.22 82.31 65.22 82.31 65.22 82.33 65.22 82.37 65.22 82.44 65.22 82.52 65.22 82.61 65.22 82.99 65.22 83.08 65.22 83.15 65.22 83.2 65.22 83.24 65.22 83.25 65.22 83.31 65.19 83.4 65.15 83.49 65.1 83.57 65.04 83.62 64.94 83.66 64.86 83.69 64.81 83.69 64.79 83.69 64.75 83.69 64.65 83.69 64.55 83.69 64.43 83.69 63.87 83.69 63.74 83.69 63.62 83.69 63.53 83.69 63.46 83.69 63.43 83.69 63.42 83.69 63.39 83.69 63.3 83.67 63.22 83.63 63.14 83.58 63.08 83.5 63.04 83.42 63.01 83.33 63.01 83.28 63.01 83.25 63.01 83.25 63.01 83.23 63.01 83.19 63.01 83.07 63.01 83.02 63.01 82.98 63.01 82.96 63.01 82.98 63.04 83 63.08 83.04 63.14 83.11 63.17 83.14 63.17 83.14 63.18 83.14 63.21 83.11 63.26 83.04 63.3 83 63.32 82.98 63.33 82.98 63.33 82.96 63.32 82.95 63.29 82.93 63.25 82.9 63.17 82.81 63 82.62 62.93 82.54 62.91 82.53 62.9 82.52 62.9 82.52 62.88 82.53 62.86 82.56 62.83 82.58 62.75 82.68 62.66 82.77 62.57 82.86 62.5 82.93 62.48 82.95 62.46 82.96 62.46 82.98 62.49 82.99 62.51 83.03 62.58 83.1 62.61 83.12 62.62 83.14 62.62 83.14 62.65 83.12 62.7 83.06 62.76 82.99 62.78 82.96 62.79 82.96 62.79 82.99 62.79 83.04 62.79 83.16 62.79 83.21 62.79 83.24 62.79 83.25 62.79 83.25 62.79 83.27 62.79 83.31 62.82 83.45 62.87 83.58 62.95 83.7 63.05 83.8 63.17 83.87 63.32 83.92 63.38 83.92 63.42 83.92 63.42 83.92 63.46 83.92 63.51 83.92 63.6 83.92 63.72 83.92 63.84 83.92 63.99 83.92 64.27 83.92 64.42 83.92 64.54 83.92 64.65 83.92 64.73 83.92 64.79 83.92 64.81 83.92"/>
        <polyline class="cls-3" points="53.63 84.62 50.81 82.24 53.63 79.88 53.63 81.19 55.75 81.19 55.75 83.31 53.63 83.31 53.63 84.62"/>
        <polyline class="cls-3" points="116.49 84.53 119.33 82.16 116.49 79.79 116.49 81.1 114.38 81.1 114.38 83.21 116.49 83.21 116.49 84.53"/>
        <polyline class="cls-3" points="82.9 119.12 82.89 119.12 82.86 119.11 82.82 119.08 82.77 119.06 82.65 118.98 82.51 118.9 82.37 118.82 82.32 118.79 82.27 118.77 82.24 118.75 82.23 118.74 82.22 118.74 82.19 118.74 82.16 118.75 82.15 118.78 82.16 118.79 82.16 118.85 82.18 118.96 82.19 119.09 82.22 119.24 82.24 119.38 82.27 119.55 82.32 119.73 82.37 119.91 82.43 120.09 82.49 120.29 82.57 120.5 82.66 120.71 82.77 120.92 82.89 121.14 83.02 121.37 83.15 121.58 83.28 121.77 83.43 121.97 83.56 122.14 83.69 122.3 83.83 122.46 83.96 122.59 84.09 122.72 84.21 122.84 84.33 122.94 84.45 123.03 84.55 123.11 84.66 123.19 84.7 123.22 84.72 123.23 84.74 123.24 84.74 123.24 84.75 123.24 84.76 123.26 84.79 123.24 84.8 123.23 84.82 123.19 84.82 123.16 84.82 123.13 84.82 122.99 84.82 122.68 84.82 122.53 84.82 122.48 84.82 122.46 84.82 122.42 84.82 122.38 84.82 122.31 84.82 122.22 84.8 122.1 84.8 121.96 84.79 121.8 84.76 121.63 84.74 121.46 84.66 121.09 84.61 120.91 84.54 120.72 84.46 120.55 84.41 120.47 84.38 120.42 84.28 120.26 84.16 120.12 84.03 119.97 83.9 119.84 83.61 119.61 83.48 119.5 83.35 119.4 83.23 119.32 83.12 119.25 83.03 119.2 82.97 119.16 82.91 119.13 82.9 119.12"/>
        <polyline class="cls-3" points="87.64 118.31 87.66 118.28 87.66 118.25 87.65 118.23 87.64 118.23 87.64 118.23 87.61 118.22 87.51 118.16 87.38 118.11 87.22 118.04 87.06 117.99 86.88 117.94 86.68 117.87 86.48 117.83 86.26 117.78 86.02 117.74 85.77 117.72 85.51 117.69 85.24 117.68 84.95 117.68 84.67 117.69 84.4 117.7 84.15 117.74 83.91 117.78 83.69 117.82 83.48 117.87 83.28 117.93 83.1 117.98 82.93 118.03 82.78 118.1 82.65 118.15 82.52 118.2 82.49 118.22 82.48 118.23 82.48 118.23 82.48 118.23 82.47 118.23 82.45 118.27 82.45 118.29 82.48 118.32 82.52 118.33 82.56 118.36 82.62 118.4 82.69 118.44 82.99 118.61 83.06 118.65 83.11 118.67 83.14 118.69 83.15 118.7 83.15 118.7 83.16 118.71 83.22 118.74 83.31 118.79 83.41 118.85 83.56 118.91 83.71 118.99 83.88 119.06 84.07 119.13 84.27 119.2 84.48 119.25 84.69 119.3 84.9 119.33 85.11 119.33 85.32 119.32 85.53 119.28 85.74 119.24 85.93 119.17 86.13 119.11 86.31 119.03 86.48 118.96 86.63 118.88 86.76 118.82 86.85 118.77 86.93 118.73 86.97 118.7 86.97 118.7 87 118.69 87.03 118.66 87.09 118.64 87.15 118.6 87.31 118.5 87.45 118.43 87.52 118.39 87.59 118.35 87.63 118.32 87.64 118.32 87.64 118.32 87.64 118.31 87.64 118.31"/>
        <polyline class="cls-3" points="87.89 118.74 87.87 118.74 87.85 118.75 87.81 118.78 87.76 118.82 87.63 118.88 87.49 118.96 87.36 119.04 87.31 119.07 87.26 119.09 87.23 119.12 87.22 119.12 87.21 119.13 87.17 119.15 87.11 119.19 87.02 119.24 86.92 119.3 86.8 119.38 86.68 119.48 86.54 119.58 86.26 119.82 85.98 120.09 85.87 120.24 85.75 120.39 85.66 120.55 85.58 120.72 85.51 120.91 85.46 121.09 85.38 121.46 85.35 121.63 85.34 121.8 85.33 121.96 85.32 122.1 85.3 122.22 85.3 122.31 85.3 122.38 85.3 122.42 85.3 122.46 85.3 122.48 85.3 122.53 85.3 122.68 85.3 122.99 85.3 123.13 85.3 123.16 85.3 123.19 85.32 123.23 85.33 123.24 85.35 123.26 85.38 123.24 85.38 123.24 85.38 123.24 85.39 123.23 85.42 123.22 85.46 123.19 85.56 123.11 85.67 123.03 85.79 122.94 85.91 122.84 86.02 122.72 86.16 122.59 86.29 122.46 86.43 122.3 86.56 122.14 86.71 121.97 86.84 121.77 86.97 121.58 87.11 121.37 87.23 121.14 87.35 120.92 87.45 120.7 87.55 120.49 87.63 120.29 87.69 120.09 87.76 119.9 87.81 119.73 87.85 119.55 87.87 119.38 87.91 119.24 87.93 119.09 87.94 118.96 87.95 118.85 87.97 118.79 87.97 118.78 87.97 118.77 87.94 118.74 87.91 118.73 87.89 118.74"/>
        <path class="cls-6" d="M66.75,115v.11s.04.13.04.13l.08.12.05.04.12.07.14.03h.09s.13-.07.13-.07l.11-.08.07-.09.04-.12.03-.16v-.12s-.05-.13-.05-.13l-.07-.11-.05-.05-.12-.05-.14-.03h-.11s-.13.05-.13.05l-.11.08-.07.11-.04.13v.14ZM66.93,114.99l.03.16.05.09.11.08h.09s.13-.01.13-.01l.07-.07.05-.12v-.14s0-.14,0-.14l-.05-.11-.11-.07h-.09s-.13.01-.13.01l-.07.07-.05.11-.03.14ZM65.91,115.46l1.22-1.92h.2l-1.23,1.92h-.18ZM65.61,114.01v.12s.05.12.05.12l.07.12.05.05.12.05.14.03h.11s.12-.05.12-.05l.11-.09.07-.09.05-.12v-.16s0-.12,0-.12l-.04-.13-.07-.11-.05-.05-.12-.05-.14-.03h-.11s-.12.07-.12.07l-.11.08-.07.09-.05.13v.14ZM65.8,114v.16s.07.09.07.09l.11.08h.09s.13-.01.13-.01l.07-.07.05-.11v-.14s0-.16,0-.16l-.05-.11-.11-.07h-.08s-.14.01-.14.01l-.07.07-.05.11v.14Z"/>
        <polyline class="cls-3" points="67.2 115.33 67.11 115.31 67 115.24 66.95 115.14 66.93 114.99 66.95 114.84 67 114.74 67.07 114.67 67.2 114.64"/>
        <polyline class="cls-3" points="66.87 114.62 66.81 114.72 66.77 114.85 66.75 115 66.77 115.1 66.79 115.24 66.87 115.35 66.93 115.39 67.04 115.46 67.19 115.48 67.28 115.47 67.41 115.42 67.52 115.34"/>
        <polyline class="cls-3" points="67.52 115.34 67.58 115.25 67.62 115.13 67.65 114.97 67.63 114.85 67.59 114.72 67.53 114.62 67.48 114.57 67.36 114.51 67.21 114.49"/>
        <polyline class="cls-3" points="67.2 114.64 67.29 114.66 67.4 114.72 67.45 114.83 67.46 114.97 67.45 115.12 67.4 115.24 67.33 115.3 67.2 115.33"/>
        <polyline class="cls-3" points="67.21 114.49 67.11 114.5 66.98 114.54 66.87 114.62"/>
        <polyline class="cls-3" points="66.06 114.34 65.97 114.33 65.86 114.25 65.81 114.16 65.8 114 65.81 113.86 65.86 113.75 65.93 113.69 66.07 113.66"/>
        <polyline class="cls-3" points="65.74 113.65 65.68 113.74 65.63 113.87 65.61 114.01 65.63 114.13 65.67 114.25 65.73 114.37 65.78 114.42 65.9 114.47 66.05 114.5 66.15 114.49 66.27 114.45 66.37 114.36"/>
        <polyline class="cls-3" points="67.33 113.54 67.14 113.54 65.91 115.46 66.1 115.46 67.33 113.54"/>
        <polyline class="cls-3" points="66.37 114.36 66.44 114.26 66.49 114.15 66.51 113.99 66.49 113.87 66.45 113.74 66.39 113.63 66.33 113.58 66.22 113.53 66.07 113.5"/>
        <polyline class="cls-3" points="66.07 113.66 66.15 113.67 66.26 113.74 66.31 113.84 66.32 114 66.31 114.15 66.26 114.25 66.19 114.32 66.06 114.34"/>
        <polyline class="cls-3" points="66.07 113.5 65.97 113.52 65.85 113.57 65.74 113.65"/>
        <line class="cls-3" x1="56.57" y1="115.04" x2="55.73" y2="115.56"/>
        <line class="cls-3" x1="55.73" y1="113.02" x2="55.73" y2="115.56"/>
        <line class="cls-3" x1="56.57" y1="113.32" x2="56.57" y2="115.04"/>
        <line class="cls-3" x1="56.57" y1="113.32" x2="55.73" y2="113.02"/>
        <line class="cls-3" x1="56.57" y1="112.04" x2="55.73" y2="112.35"/>
        <line class="cls-3" x1="55.73" y1="110.43" x2="55.73" y2="112.35"/>
        <line class="cls-3" x1="56.57" y1="110.97" x2="56.57" y2="112.04"/>
        <line class="cls-3" x1="56.57" y1="110.97" x2="55.73" y2="110.43"/>
        <line class="cls-3" x1="59.15" y1="115.89" x2="58.62" y2="115.55"/>
        <line class="cls-3" x1="56.8" y1="115.55" x2="56.24" y2="115.9"/>
        <line class="cls-3" x1="58.59" y1="110.46" x2="59.15" y2="110.1"/>
        <line class="cls-3" x1="56.82" y1="110.46" x2="56.27" y2="110.1"/>
        <line class="cls-3" x1="56.46" y1="112.67" x2="57.07" y2="112.9"/>
        <line class="cls-3" x1="57.07" y1="112.46" x2="56.46" y2="112.67"/>
        <line class="cls-3" x1="58.96" y1="112.67" x2="58.35" y2="112.46"/>
        <line class="cls-3" x1="58.35" y1="112.9" x2="58.96" y2="112.67"/>
        <line class="cls-3" x1="56.27" y1="110.1" x2="59.15" y2="110.1"/>
        <line class="cls-3" x1="56.82" y1="110.46" x2="58.59" y2="110.46"/>
        <line class="cls-3" x1="56.24" y1="115.9" x2="59.15" y2="115.9"/>
        <line class="cls-3" x1="56.8" y1="115.55" x2="58.62" y2="115.55"/>
        <line class="cls-3" x1="57.07" y1="112.9" x2="58.35" y2="112.9"/>
        <line class="cls-3" x1="57.07" y1="112.46" x2="58.35" y2="112.46"/>
        <line class="cls-3" x1="61.32" y1="115.04" x2="60.47" y2="115.56"/>
        <line class="cls-3" x1="60.47" y1="113.02" x2="60.47" y2="115.56"/>
        <line class="cls-3" x1="61.32" y1="113.32" x2="61.32" y2="115.04"/>
        <line class="cls-3" x1="61.32" y1="113.32" x2="60.47" y2="113.02"/>
        <line class="cls-3" x1="61.32" y1="112.04" x2="60.47" y2="112.35"/>
        <line class="cls-3" x1="60.47" y1="110.44" x2="60.47" y2="112.35"/>
        <line class="cls-3" x1="61.32" y1="110.97" x2="61.32" y2="112.04"/>
        <line class="cls-3" x1="61.32" y1="110.97" x2="60.47" y2="110.44"/>
        <line class="cls-3" x1="64.44" y1="110.43" x2="63.59" y2="110.97"/>
        <line class="cls-3" x1="64.44" y1="112.35" x2="64.44" y2="110.43"/>
        <line class="cls-3" x1="63.59" y1="112.04" x2="63.59" y2="110.97"/>
        <line class="cls-3" x1="64.44" y1="112.35" x2="63.59" y2="112.04"/>
        <line class="cls-3" x1="64.44" y1="113.02" x2="63.59" y2="113.32"/>
        <line class="cls-3" x1="64.44" y1="115.56" x2="64.44" y2="113.02"/>
        <line class="cls-3" x1="63.59" y1="115.04" x2="63.59" y2="113.32"/>
        <line class="cls-3" x1="64.44" y1="115.56" x2="63.59" y2="115.04"/>
        <line class="cls-3" x1="63.91" y1="115.89" x2="63.37" y2="115.55"/>
        <line class="cls-3" x1="61.56" y1="115.55" x2="60.99" y2="115.9"/>
        <line class="cls-3" x1="63.34" y1="110.46" x2="63.91" y2="110.1"/>
        <line class="cls-3" x1="61.57" y1="110.46" x2="61.01" y2="110.1"/>
        <line class="cls-3" x1="61.22" y1="112.69" x2="61.81" y2="112.9"/>
        <line class="cls-3" x1="61.81" y1="112.46" x2="61.22" y2="112.69"/>
        <line class="cls-3" x1="63.7" y1="112.67" x2="63.11" y2="112.46"/>
        <line class="cls-3" x1="63.11" y1="112.9" x2="63.7" y2="112.67"/>
        <line class="cls-3" x1="61.01" y1="110.1" x2="63.91" y2="110.1"/>
        <line class="cls-3" x1="61.57" y1="110.46" x2="63.34" y2="110.46"/>
        <line class="cls-3" x1="60.99" y1="115.9" x2="63.91" y2="115.9"/>
        <line class="cls-3" x1="61.56" y1="115.55" x2="63.37" y2="115.55"/>
        <line class="cls-3" x1="61.81" y1="112.9" x2="63.11" y2="112.9"/>
        <line class="cls-3" x1="61.81" y1="112.46" x2="63.11" y2="112.46"/>
        <line class="cls-3" x1="59.69" y1="110.43" x2="58.85" y2="110.97"/>
        <line class="cls-3" x1="59.69" y1="112.35" x2="59.69" y2="110.43"/>
        <line class="cls-3" x1="58.85" y1="112.04" x2="58.85" y2="110.97"/>
        <line class="cls-3" x1="59.69" y1="112.35" x2="58.85" y2="112.04"/>
        <line class="cls-3" x1="59.69" y1="113.02" x2="58.85" y2="113.32"/>
        <line class="cls-3" x1="59.69" y1="115.56" x2="59.69" y2="113.02"/>
        <line class="cls-3" x1="58.85" y1="115.04" x2="58.85" y2="113.32"/>
        <line class="cls-3" x1="59.69" y1="115.56" x2="58.85" y2="115.04"/>
        <line class="cls-3" x1="54.94" y1="110.43" x2="54.1" y2="110.97"/>
        <line class="cls-3" x1="54.94" y1="112.35" x2="54.94" y2="110.43"/>
        <line class="cls-3" x1="54.1" y1="112.04" x2="54.1" y2="110.97"/>
        <line class="cls-3" x1="54.94" y1="112.35" x2="54.1" y2="112.04"/>
        <line class="cls-3" x1="54.94" y1="113.02" x2="54.1" y2="113.32"/>
        <line class="cls-3" x1="54.95" y1="115.56" x2="54.94" y2="113.02"/>
        <line class="cls-3" x1="54.1" y1="115.04" x2="54.1" y2="113.32"/>
        <line class="cls-3" x1="54.95" y1="115.56" x2="54.1" y2="115.04"/>
        <line class="cls-3" x1="57.37" y1="82.66" x2="57.58" y2="82.66"/>
        <line class="cls-3" x1="57.58" y1="82.66" x2="57.58" y2="83.1"/>
        <line class="cls-3" x1="57.58" y1="83.1" x2="61.52" y2="83.1"/>
        <line class="cls-3" x1="61.52" y1="83.1" x2="61.52" y2="81.52"/>
        <line class="cls-3" x1="61.52" y1="81.52" x2="57.58" y2="81.52"/>
        <line class="cls-3" x1="57.58" y1="81.52" x2="57.58" y2="81.95"/>
        <line class="cls-3" x1="57.58" y1="81.95" x2="57.37" y2="81.95"/>
        <line class="cls-3" x1="57.33" y1="81.97" x2="57.37" y2="81.95"/>
        <line class="cls-3" x1="57.29" y1="82.02" x2="57.33" y2="81.97"/>
        <line class="cls-3" x1="57.28" y1="82.06" x2="57.29" y2="82.02"/>
        <line class="cls-3" x1="57.28" y1="82.11" x2="57.28" y2="82.06"/>
        <line class="cls-3" x1="57.28" y1="82.11" x2="57.28" y2="82.5"/>
        <line class="cls-3" x1="57.28" y1="82.57" x2="57.28" y2="82.5"/>
        <line class="cls-3" x1="57.28" y1="82.61" x2="57.3" y2="82.57"/>
        <line class="cls-3" x1="57.3" y1="82.65" x2="57.34" y2="82.61"/>
        <line class="cls-3" x1="57.34" y1="82.66" x2="57.37" y2="82.65"/>
        <line class="cls-3" x1="57.67" y1="81.59" x2="57.67" y2="83.03"/>
        <line class="cls-3" x1="57.67" y1="83.03" x2="61.45" y2="83.03"/>
        <line class="cls-3" x1="61.45" y1="83.03" x2="61.45" y2="81.59"/>
        <line class="cls-3" x1="61.45" y1="81.59" x2="57.67" y2="81.59"/>
        <line class="cls-3" x1="57.33" y1="81.99" x2="57.33" y2="81.99"/>
        <line class="cls-3" x1="57.4" y1="82.57" x2="57.58" y2="82.57"/>
        <line class="cls-3" x1="57.58" y1="82.57" x2="57.58" y2="82.05"/>
        <line class="cls-3" x1="57.4" y1="82.05" x2="57.58" y2="82.05"/>
        <line class="cls-3" x1="57.36" y1="82.06" x2="57.4" y2="82.05"/>
        <line class="cls-3" x1="57.34" y1="82.1" x2="57.36" y2="82.06"/>
        <line class="cls-3" x1="57.34" y1="82.1" x2="57.34" y2="82.53"/>
        <line class="cls-3" x1="57.34" y1="82.56" x2="57.36" y2="82.53"/>
        <line class="cls-3" x1="57.36" y1="82.57" x2="57.4" y2="82.56"/>
        <line class="cls-3" x1="73.06" y1="81.07" x2="73.53" y2="81.07"/>
        <line class="cls-3" x1="73.53" y1="81.07" x2="73.53" y2="80.81"/>
        <line class="cls-3" x1="73.53" y1="80.81" x2="74.04" y2="80.81"/>
        <line class="cls-3" x1="74.04" y1="80.81" x2="74.04" y2="81.07"/>
        <line class="cls-3" x1="74.04" y1="81.07" x2="75.21" y2="81.07"/>
        <line class="cls-3" x1="75.21" y1="81.07" x2="75.21" y2="80.81"/>
        <line class="cls-3" x1="75.21" y1="80.81" x2="75.72" y2="80.81"/>
        <line class="cls-3" x1="75.72" y1="80.81" x2="75.72" y2="81.07"/>
        <line class="cls-3" x1="75.72" y1="81.07" x2="76.21" y2="81.07"/>
        <line class="cls-3" x1="76.21" y1="81.07" x2="76.21" y2="82.87"/>
        <line class="cls-3" x1="76.21" y1="82.87" x2="73.06" y2="82.87"/>
        <line class="cls-3" x1="73.06" y1="82.87" x2="73.06" y2="81.07"/>
        <line class="cls-3" x1="73.16" y1="81.21" x2="73.16" y2="82.75"/>
        <line class="cls-3" x1="73.16" y1="82.75" x2="76.07" y2="82.75"/>
        <line class="cls-3" x1="76.07" y1="82.75" x2="76.07" y2="81.18"/>
        <line class="cls-3" x1="76.07" y1="81.18" x2="73.16" y2="81.18"/>
        <line class="cls-3" x1="73.16" y1="81.21" x2="73.16" y2="81.18"/>
        <line class="cls-3" x1="73.48" y1="81.72" x2="74.09" y2="81.72"/>
        <line class="cls-3" x1="74.09" y1="81.86" x2="74.09" y2="81.72"/>
        <line class="cls-3" x1="74.09" y1="81.86" x2="73.48" y2="81.86"/>
        <line class="cls-3" x1="73.48" y1="81.86" x2="73.48" y2="81.72"/>
        <line class="cls-3" x1="75.4" y1="81.47" x2="75.54" y2="81.47"/>
        <line class="cls-3" x1="75.54" y1="81.47" x2="75.54" y2="81.72"/>
        <line class="cls-3" x1="75.54" y1="81.72" x2="75.77" y2="81.72"/>
        <line class="cls-3" x1="75.77" y1="81.86" x2="75.77" y2="81.72"/>
        <line class="cls-3" x1="75.77" y1="81.86" x2="75.54" y2="81.86"/>
        <line class="cls-3" x1="75.54" y1="81.86" x2="75.54" y2="82.1"/>
        <line class="cls-3" x1="75.4" y1="82.1" x2="75.54" y2="82.1"/>
        <line class="cls-3" x1="75.4" y1="82.1" x2="75.4" y2="81.86"/>
        <line class="cls-3" x1="75.4" y1="81.86" x2="75.16" y2="81.86"/>
        <line class="cls-3" x1="75.16" y1="81.86" x2="75.16" y2="81.72"/>
        <line class="cls-3" x1="75.16" y1="81.72" x2="75.4" y2="81.72"/>
        <line class="cls-3" x1="75.4" y1="81.72" x2="75.4" y2="81.47"/>
        <line class="cls-3" x1="73.48" y1="83.15" x2="73.48" y2="82.99"/>
        <line class="cls-3" x1="73.48" y1="83.15" x2="76.56" y2="83.15"/>
        <line class="cls-3" x1="76.56" y1="83.15" x2="76.56" y2="81.38"/>
        <line class="cls-3" x1="76.42" y1="81.38" x2="76.56" y2="81.38"/>
        <line class="cls-3" x1="76.42" y1="81.38" x2="76.42" y2="82.99"/>
        <line class="cls-3" x1="76.42" y1="82.99" x2="73.48" y2="82.99"/>
        <line class="cls-3" x1="73.92" y1="83.46" x2="73.92" y2="83.32"/>
        <line class="cls-3" x1="73.92" y1="83.46" x2="77.01" y2="83.46"/>
        <line class="cls-3" x1="77.01" y1="83.46" x2="77.01" y2="81.68"/>
        <line class="cls-3" x1="76.86" y1="81.68" x2="77.01" y2="81.68"/>
        <line class="cls-3" x1="76.86" y1="81.68" x2="76.86" y2="83.32"/>
        <line class="cls-3" x1="76.86" y1="83.32" x2="73.92" y2="83.32"/>
        <line class="cls-4" x1="69.5" y1="82.23" x2="68.82" y2="82.36"/>
        <line class="cls-4" x1="69.26" y1="82.66" x2="69.5" y2="82.23"/>
        <line class="cls-4" x1="68.92" y1="83.59" x2="70.6" y2="83.59"/>
        <line class="cls-4" x1="70.6" y1="83.59" x2="70.65" y2="83.58"/>
        <line class="cls-4" x1="70.65" y1="83.58" x2="70.69" y2="83.54"/>
        <line class="cls-4" x1="70.69" y1="83.54" x2="70.71" y2="83.49"/>
        <line class="cls-4" x1="70.69" y1="83.49" x2="70.71" y2="83.44"/>
        <line class="cls-4" x1="70.65" y1="83.44" x2="70.69" y2="83.4"/>
        <line class="cls-4" x1="70.6" y1="83.4" x2="70.65" y2="83.38"/>
        <line class="cls-4" x1="70.6" y1="83.38" x2="69.37" y2="83.38"/>
        <line class="cls-4" x1="69.33" y1="83.38" x2="69.37" y2="83.25"/>
        <line class="cls-4" x1="69.24" y1="83.25" x2="69.33" y2="83.15"/>
        <line class="cls-4" x1="69.24" y1="83.15" x2="70.18" y2="81.4"/>
        <line class="cls-4" x1="70.18" y1="81.4" x2="70.43" y2="81.4"/>
        <line class="cls-4" x1="70.43" y1="81.4" x2="70.47" y2="81.39"/>
        <line class="cls-4" x1="70.47" y1="81.39" x2="70.5" y2="81.35"/>
        <line class="cls-4" x1="70.5" y1="81.35" x2="70.64" y2="80.93"/>
        <line class="cls-4" x1="70.64" y1="80.93" x2="70.64" y2="80.89"/>
        <line class="cls-4" x1="70.61" y1="80.89" x2="70.64" y2="80.85"/>
        <line class="cls-4" x1="70.56" y1="80.85" x2="70.61" y2="80.84"/>
        <line class="cls-4" x1="70.56" y1="80.84" x2="69.6" y2="80.84"/>
        <line class="cls-4" x1="69.55" y1="80.85" x2="69.6" y2="80.84"/>
        <line class="cls-4" x1="69.52" y1="80.89" x2="69.55" y2="80.85"/>
        <line class="cls-4" x1="69.52" y1="80.93" x2="69.52" y2="80.89"/>
        <line class="cls-4" x1="69.52" y1="80.93" x2="69.67" y2="81.35"/>
        <line class="cls-4" x1="69.67" y1="81.39" x2="69.69" y2="81.35"/>
        <line class="cls-4" x1="69.69" y1="81.4" x2="69.73" y2="81.39"/>
        <line class="cls-4" x1="69.73" y1="81.4" x2="69.94" y2="81.4"/>
        <line class="cls-4" x1="69.94" y1="81.4" x2="69.62" y2="81.99"/>
        <line class="cls-4" x1="69.62" y1="81.99" x2="68.76" y2="82.16"/>
        <line class="cls-4" x1="68.66" y1="82.23" x2="68.76" y2="82.16"/>
        <line class="cls-4" x1="68.62" y1="82.33" x2="68.66" y2="82.23"/>
        <line class="cls-4" x1="68.62" y1="82.33" x2="68.62" y2="82.56"/>
        <line class="cls-4" x1="68.62" y1="82.66" x2="68.64" y2="82.56"/>
        <line class="cls-4" x1="68.64" y1="82.73" x2="68.74" y2="82.66"/>
        <line class="cls-4" x1="68.74" y1="82.73" x2="69.16" y2="82.85"/>
        <line class="cls-4" x1="69.05" y1="83.04" x2="69.16" y2="82.85"/>
        <line class="cls-4" x1="68.95" y1="83.04" x2="69.05" y2="83.03"/>
        <line class="cls-4" x1="68.75" y1="83.08" x2="68.95" y2="83.03"/>
        <line class="cls-4" x1="68.59" y1="83.2" x2="68.75" y2="83.08"/>
        <line class="cls-4" x1="68.51" y1="83.38" x2="68.59" y2="83.2"/>
        <line class="cls-4" x1="68.51" y1="83.38" x2="67.96" y2="83.38"/>
        <line class="cls-4" x1="67.91" y1="83.4" x2="67.96" y2="83.38"/>
        <line class="cls-4" x1="67.87" y1="83.44" x2="67.91" y2="83.4"/>
        <line class="cls-4" x1="67.86" y1="83.49" x2="67.87" y2="83.44"/>
        <line class="cls-4" x1="67.86" y1="83.54" x2="67.87" y2="83.49"/>
        <line class="cls-4" x1="67.87" y1="83.58" x2="67.91" y2="83.54"/>
        <line class="cls-4" x1="67.91" y1="83.59" x2="67.96" y2="83.58"/>
        <line class="cls-4" x1="67.96" y1="83.59" x2="68.92" y2="83.59"/>
        <line class="cls-4" x1="68.82" y1="82.54" x2="69.26" y2="82.66"/>
        <line class="cls-4" x1="68.82" y1="82.54" x2="68.82" y2="82.36"/>
        <path class="cls-3" d="M85.13,146.1c12.49-.03,24.92-.15,37.35-1.31,5.63-.6,10.97-1.83,16.25-3.59,3.56-1.2,6.65-2.03,10.01-3.7,5.99-2.99,7.5-10.2,9.39-16.03,3.39-11.16,8.62-28.38,11.92-39.26l-.27-.18c-1.56-1.46-3.69-2.11-5.45-3.27-5.98-3.95-11.95-7.97-18.11-11.73-4.65-2.7-9.13-6.02-14.38-7.51-6.13-1.46-11.85-1.75-18.16-2.41-9.53-.89-19.05-1.26-28.63-1.37-9.58.11-19.1.48-28.63,1.37-6.31.66-12.03.94-18.16,2.41-5.25,1.49-9.73,4.81-14.38,7.51-6.15,3.76-12.13,7.78-18.11,11.73-1.75,1.16-3.89,1.8-5.45,3.27l-.27.18c3.3,10.88,8.53,28.1,11.92,39.26,1.89,5.83,3.4,13.04,9.39,16.03,3.36,1.68,6.45,2.51,10.01,3.7,5.28,1.76,10.62,2.99,16.25,3.59,12.42,1.16,24.85,1.29,37.35,1.31h.14Z"/>
      </g>
      <g>
        <line class="cls-2" x1="83.45" y1="26.41" x2="71.32" y2="76.34"/>
        <polygon class="cls-7" points="70.14 75.04 70.28 80.65 72.97 75.72 70.14 75.04"/>
      </g>
      <polygon class="cls-1" points="122.75 88.96 122.57 89.62 124.22 89.62 124.4 88.96 122.75 88.96"/>
      <polygon class="cls-1" points="137.55 90.42 137.37 91.08 139.02 91.08 139.2 90.42 137.55 90.42"/>
      <g>
        <line class="cls-5" x1="82.25" y1="18.24" x2="83.05" y2="18.15"/>
        <polyline class="cls-5" points="83.05 18.24 83.09 18.19 83.22 17.98 83.51 17.48 83.8 16.94 83.89 16.77 83.93 16.69"/>
        <polyline class="cls-5" points="83.93 16.69 83.63 16.6 83.3 16.48 82.54 16.27 81.83 16.01 81.5 15.93 81.2 15.85"/>
        <polyline class="cls-5" points="81.2 15.85 80.78 15.72 80.45 15.6 80.16 15.47 79.9 15.3"/>
        <polyline class="cls-5" points="79.9 15.3 79.74 15.09 79.61 14.8 79.57 14.55 79.53 14.25 79.48 13.88 79.48 13.37"/>
        <polyline class="cls-5" points="79.48 13.37 79.48 13 79.48 12.58 79.53 12.16 79.65 11.78"/>
        <polyline class="cls-5" points="79.65 11.78 79.78 11.53 79.95 11.36 80.32 11.11 80.62 10.98 80.7 10.94 80.74 10.94"/>
        <polyline class="cls-5" points="80.74 10.94 80.83 10.94 81.04 10.9 81.37 10.82 81.83 10.73 82.38 10.65 82.96 10.52 84.22 10.27 85.52 10.02 86.11 9.89 86.65 9.81 87.11 9.73 87.45 9.64 87.66 9.6 87.74 9.6"/>
        <polyline class="cls-5" points="87.74 9.6 87.78 9.52 87.87 9.39 87.99 9.14 88.16 8.85 88.37 8.47 88.58 8.05 89.08 7.17 89.54 6.29 89.75 5.87 89.96 5.49 90.13 5.2 90.26 4.95 90.34 4.78 90.38 4.74"/>
        <polyline class="cls-5" points="90.38 4.74 90.3 4.74 90.13 4.74 89.54 4.74 88.96 4.74 88.75 4.74 88.66 4.74"/>
        <line class="cls-5" x1="88.04" y1="4.74" x2="88.66" y2="3.94"/>
        <polyline class="cls-5" points="88.04 3.94 88.04 3.9 87.99 3.82 87.95 3.69 87.91 3.52 87.74 3.06 87.57 2.6 87.41 2.1 87.24 1.64 87.2 1.47 87.15 1.34 87.11 1.26 87.11 1.22"/>
        <polyline class="cls-5" points="87.11 1.22 87.03 .8 87.03 .59 87.07 .42 87.15 .3 87.32 .17 87.49 .13 87.74 .09"/>
        <polyline class="cls-5" points="87.74 .09 87.78 .09 87.83 .09 88.08 .09 88.5 .09 89 .09 89.59 .09 90.26 .09 91.72 .09 93.19 .09 93.86 .09 94.45 .09 94.95 .09 95.33 .09 95.58 .09 95.66 .09 95.66 .09"/>
        <polyline class="cls-5" points="95.66 .09 95.71 .09 95.79 .13 96 .21 96.08 .34 96.17 .55 96.17 .76 96.12 1.09"/>
        <polyline class="cls-5" points="96.12 1.09 96 1.51 95.83 2.01 95.5 3.06 95.33 3.52 95.16 3.94 95.08 4.19 95.08 4.28 95.03 4.32"/>
        <line class="cls-5" x1="94.36" y1="4.74" x2="95.03" y2="4.32"/>
        <polyline class="cls-5" points="94.36 4.74 94.28 4.74 94.03 4.74 93.74 4.74 93.4 4.74 93.02 4.74 92.73 4.74 92.52 4.74 92.44 4.74"/>
        <polyline class="cls-5" points="92.44 4.74 92.44 4.78 92.35 4.91 92.27 5.07 92.1 5.37 91.93 5.66 91.72 6.08 91.47 6.5 91.22 6.96 90.63 8.05 89.96 9.27 89.29 10.57 88.54 11.91 87.83 13.25 87.11 14.55 86.48 15.76 85.9 16.85 85.65 17.31 85.39 17.78 85.19 18.15 85.02 18.49 84.85 18.74 84.77 18.95 84.68 19.03 84.68 19.07"/>
        <polyline class="cls-5" points="84.68 19.07 85.06 19.49 85.39 19.95 85.6 20.46 85.77 21.04"/>
        <polyline class="cls-5" points="85.77 21.04 85.81 21.04 85.9 21.04 86.02 21.04 86.23 21.04 86.69 21.04 87.36 21.04 88.12 21.04 88.96 21.04 90.8 21.04 92.69 21.04 93.53 21.04 94.28 21.04 94.95 21.04 95.41 21.04 95.62 21.04 95.75 21.04 95.83 21.04 95.87 21.04"/>
        <polyline class="cls-5" points="95.87 21.04 96.21 21.09 96.5 21.3 96.67 21.55 96.75 21.88 96.67 22.26 96.5 22.51 96.21 22.72 95.87 22.76"/>
        <polyline class="cls-5" points="95.87 22.76 95.79 22.76 95.62 22.76 95.33 22.76 94.95 22.76 94.45 22.76 93.86 22.76 93.23 22.76 92.48 22.76 91.68 22.76 90.84 22.76 89.04 22.76 87.07 22.76 85.06 22.76 83.05 22.76 81.08 22.76 79.28 22.76 78.44 22.76 77.64 22.76 76.93 22.76 76.26 22.76 75.67 22.76 75.21 22.76 74.79 22.76 74.5 22.76 74.33 22.76 74.25 22.76"/>
        <polyline class="cls-5" points="74.25 22.76 73.91 22.72 73.66 22.51 73.45 22.26 73.37 21.88 73.45 21.55 73.66 21.3 73.91 21.09 74.25 21.04"/>
        <polyline class="cls-5" points="74.25 21.04 74.33 21.04 74.46 21.04 74.66 21.04 74.96 21.04 75.67 21.04 76.51 21.04 77.31 21.04 78.02 21.04 78.31 21.04 78.52 21.04 78.69 21.04 78.73 21.04"/>
        <polyline class="cls-5" points="78.73 21.04 78.9 20.42 79.15 19.87 79.53 19.41 79.95 18.99 80.45 18.61 80.99 18.36 81.62 18.19 82.25 18.15"/>
        <line class="cls-5" x1="82.25" y1="18.15" x2="82.25" y2="18.15"/>
        <polyline class="cls-5" points="84.77 15.64 84.81 15.6 84.89 15.43 85.02 15.22 85.19 14.88 85.35 14.55 85.56 14.13 86.07 13.25 86.53 12.41 86.74 11.99 86.95 11.61 87.11 11.32 87.24 11.11 87.32 10.94 87.32 10.9"/>
        <polyline class="cls-5" points="87.32 10.9 87.28 10.9 87.07 10.94 86.74 11.03 86.32 11.11 85.86 11.19 85.31 11.32 84.14 11.57 82.96 11.82 82.42 11.95 81.92 12.03 81.54 12.12 81.2 12.2 80.99 12.24 80.91 12.24"/>
        <line class="cls-5" x1="80.91" y1="12.24" x2="80.91" y2="12.24"/>
        <line class="cls-5" x1="80.83" y1="12.28" x2="80.91" y2="12.24"/>
        <polyline class="cls-5" points="80.83 12.28 80.78 12.54 80.78 12.83 80.78 13.12 80.78 13.37"/>
        <polyline class="cls-5" points="80.78 13.37 80.78 13.58 80.78 13.88 80.83 14.17 80.83 14.38"/>
        <line class="cls-5" x1="80.83" y1="14.59" x2="81.62" y2="14.38"/>
        <line class="cls-5" x1="81.62" y1="14.59" x2="84.3" y2="15.47"/>
        <line class="cls-5" x1="84.3" y1="15.64" x2="84.77" y2="15.47"/>
      </g>
    </g>
  </g>
</svg>