<?xml version="1.0" encoding="UTF-8"?>
<svg id="_图层_2" data-name="图层 2" xmlns="http://www.w3.org/2000/svg" viewBox="0 0 323.2 182.44">
  <defs>
    <style>
      .cls-1 {
        stroke: #fff;
      }

      .cls-1, .cls-2, .cls-3, .cls-4 {
        fill: none;
        stroke-miterlimit: 10;
      }

      .cls-1, .cls-4 {
        stroke-width: .5px;
      }

      .cls-2, .cls-3 {
        stroke: #070001;
        stroke-linecap: square;
        stroke-width: .12px;
      }

      .cls-5 {
        fill: #54565a;
      }

      .cls-6 {
        fill: #fff;
        font-family: HYQiHei-DES, 'HYQiHei DES';
        font-size: 8.06px;
      }

      .cls-3 {
        fill-rule: evenodd;
      }

      .cls-4 {
        stroke: #54565a;
      }
    </style>
  </defs>
  <g id="_图层_1-2" data-name="图层 1">
    <g>
      <g>
        <g>
          <path class="cls-5" d="M115.63,18.67c0,3.16-2.56,5.71-5.72,5.71s-5.71-2.56-5.71-5.71,2.56-5.71,5.71-5.71,5.72,2.56,5.72,5.71"/>
          <text class="cls-6" transform="translate(107.9 20.86)"><tspan x="0" y="0">1</tspan></text>
        </g>
        <line class="cls-1" x1="109.89" y1="63.81" x2="109.93" y2="24.62"/>
        <line class="cls-4" x1="109.91" y1="69.77" x2="109.95" y2="23.77"/>
      </g>
      <g>
        <g>
          <path class="cls-5" d="M11.43,105.65c0,3.16-2.56,5.71-5.72,5.71s-5.71-2.56-5.71-5.71,2.56-5.71,5.71-5.71,5.72,2.56,5.72,5.71"/>
          <text class="cls-6" transform="translate(1.68 107.84)"><tspan x="0" y="0">14</tspan></text>
        </g>
        <line class="cls-1" x1="57.47" y1="105.67" x2="12.28" y2="105.63"/>
        <line class="cls-4" x1="109.95" y1="105.67" x2="11.43" y2="105.63"/>
      </g>
      <g>
        <g>
          <path class="cls-5" d="M11.43,126.05c0,3.16-2.56,5.71-5.72,5.71s-5.71-2.56-5.71-5.71,2.56-5.71,5.71-5.71,5.72,2.56,5.72,5.71"/>
          <text class="cls-6" transform="translate(1.68 128.24)"><tspan x="0" y="0">13</tspan></text>
        </g>
        <line class="cls-1" x1="57.47" y1="126.07" x2="12.28" y2="126.03"/>
        <line class="cls-4" x1="109.95" y1="126.08" x2="11.43" y2="126.03"/>
      </g>
      <g>
        <g>
          <path class="cls-5" d="M126.1,5.71c0,3.16-2.56,5.71-5.72,5.71s-5.71-2.56-5.71-5.71,2.56-5.71,5.71-5.71,5.72,2.56,5.72,5.71"/>
          <text class="cls-6" transform="translate(118.37 7.9)"><tspan x="0" y="0">2</tspan></text>
        </g>
        <line class="cls-1" x1="120.36" y1="50.86" x2="120.4" y2="11.66"/>
        <line class="cls-4" x1="120.38" y1="70.82" x2="120.42" y2="10.81"/>
      </g>
      <g>
        <g>
          <path class="cls-5" d="M134.5,18.67c0,3.16-2.56,5.71-5.72,5.71s-5.71-2.56-5.71-5.71,2.56-5.71,5.71-5.71,5.72,2.56,5.72,5.71"/>
          <text class="cls-6" transform="translate(126.77 20.86)"><tspan x="0" y="0">3</tspan></text>
        </g>
        <line class="cls-1" x1="128.76" y1="63.81" x2="128.8" y2="24.62"/>
        <line class="cls-4" x1="128.78" y1="69.77" x2="128.82" y2="23.77"/>
      </g>
      <g>
        <g>
          <path class="cls-5" d="M144.96,5.71c0,3.16-2.56,5.71-5.72,5.71s-5.71-2.56-5.71-5.71,2.56-5.71,5.71-5.71,5.72,2.56,5.72,5.71"/>
          <text class="cls-6" transform="translate(137.23 7.9)"><tspan x="0" y="0">4</tspan></text>
        </g>
        <line class="cls-1" x1="139.23" y1="50.86" x2="139.27" y2="11.66"/>
        <line class="cls-4" x1="139.25" y1="70.82" x2="139.29" y2="10.81"/>
      </g>
      <g>
        <g>
          <path class="cls-5" d="M182.28,5.71c0,3.16-2.56,5.71-5.72,5.71s-5.71-2.56-5.71-5.71,2.56-5.71,5.71-5.71,5.72,2.56,5.72,5.71"/>
          <text class="cls-6" transform="translate(174.55 7.9)"><tspan x="0" y="0">7</tspan></text>
        </g>
        <line class="cls-1" x1="176.54" y1="50.86" x2="176.58" y2="11.66"/>
        <line class="cls-4" x1="176.56" y1="78.47" x2="176.6" y2="10.81"/>
      </g>
      <g>
        <g>
          <path class="cls-5" d="M153.6,18.67c0,3.16-2.56,5.71-5.72,5.71s-5.71-2.56-5.71-5.71,2.56-5.71,5.71-5.71,5.72,2.56,5.72,5.71"/>
          <text class="cls-6" transform="translate(145.87 20.86)"><tspan x="0" y="0">5</tspan></text>
        </g>
        <line class="cls-1" x1="147.86" y1="63.81" x2="147.9" y2="24.62"/>
        <line class="cls-4" x1="147.88" y1="69.77" x2="147.92" y2="23.77"/>
      </g>
      <g>
        <g>
          <path class="cls-5" d="M167.4,18.67c0,3.16-2.56,5.71-5.72,5.71s-5.71-2.56-5.71-5.71,2.56-5.71,5.71-5.71,5.72,2.56,5.72,5.71"/>
          <text class="cls-6" transform="translate(159.67 20.86)"><tspan x="0" y="0">6</tspan></text>
        </g>
        <line class="cls-1" x1="161.66" y1="63.81" x2="161.7" y2="24.62"/>
        <line class="cls-4" x1="161.68" y1="69.77" x2="161.73" y2="23.77"/>
      </g>
      <g>
        <g>
          <path class="cls-5" d="M208.48,18.67c0,3.16-2.56,5.71-5.72,5.71s-5.71-2.56-5.71-5.71,2.56-5.71,5.71-5.71,5.72,2.56,5.72,5.71"/>
          <text class="cls-6" transform="translate(200.75 20.86)"><tspan x="0" y="0">9</tspan></text>
        </g>
        <line class="cls-1" x1="202.74" y1="63.81" x2="202.79" y2="24.62"/>
        <line class="cls-4" x1="202.76" y1="69.77" x2="202.81" y2="23.77"/>
      </g>
      <g>
        <g>
          <path class="cls-5" d="M223.31,18.67c0,3.16-2.56,5.71-5.72,5.71s-5.71-2.56-5.71-5.71,2.56-5.71,5.71-5.71,5.72,2.56,5.72,5.71"/>
          <text class="cls-6" transform="translate(213.57 20.86)"><tspan x="0" y="0">10</tspan></text>
        </g>
        <line class="cls-1" x1="217.58" y1="63.81" x2="217.62" y2="24.62"/>
        <line class="cls-4" x1="217.6" y1="69.77" x2="217.64" y2="23.77"/>
      </g>
      <g>
        <path class="cls-5" d="M323.2,102.29c0,3.16-2.56,5.71-5.72,5.71s-5.71-2.56-5.71-5.71,2.56-5.71,5.71-5.71,5.72,2.56,5.72,5.71"/>
        <text class="cls-6" transform="translate(313.45 104.48)"><tspan x="0" y="0">11</tspan></text>
      </g>
      <line class="cls-4" x1="224.64" y1="102.27" x2="310.92" y2="102.31"/>
      <line class="cls-4" x1="218.68" y1="102.27" x2="311.77" y2="102.31"/>
      <g>
        <path class="cls-5" d="M323.2,125.48c0,3.16-2.56,5.71-5.72,5.71s-5.71-2.56-5.71-5.71,2.56-5.71,5.71-5.71,5.72,2.56,5.72,5.71"/>
        <text class="cls-6" transform="translate(313.45 127.66)"><tspan x="0" y="0">12</tspan></text>
      </g>
      <line class="cls-4" x1="211.3" y1="125.46" x2="310.92" y2="125.5"/>
      <line class="cls-4" x1="205.34" y1="125.45" x2="311.77" y2="125.5"/>
      <g>
        <g>
          <path class="cls-5" d="M193.68,18.67c0,3.16-2.56,5.71-5.72,5.71s-5.71-2.56-5.71-5.71,2.56-5.71,5.71-5.71,5.72,2.56,5.72,5.71"/>
          <text class="cls-6" transform="translate(185.95 20.86)"><tspan x="0" y="0">8</tspan></text>
        </g>
        <line class="cls-1" x1="187.94" y1="63.81" x2="187.98" y2="24.62"/>
        <line class="cls-4" x1="187.96" y1="69.77" x2="188.01" y2="23.77"/>
      </g>
      <g>
        <line class="cls-2" x1="214.58" y1="91.67" x2="201.88" y2="91.67"/>
        <polyline class="cls-2" points="218.15 95.23 218.11 94.72 218 94.23 217.82 93.74 217.58 93.29 217.29 92.89 216.91 92.54 216.51 92.23 216.07 91.98 215.58 91.81 215.09 91.7 214.58 91.67"/>
        <line class="cls-2" x1="218.15" y1="109.26" x2="218.15" y2="95.23"/>
        <polyline class="cls-2" points="214.58 112.84 215.09 112.79 215.6 112.68 216.07 112.51 216.51 112.26 216.93 111.97 217.29 111.6 217.6 111.2 217.84 110.75 218.02 110.26 218.11 109.77 218.15 109.26"/>
        <line class="cls-2" x1="201.9" y1="112.84" x2="214.58" y2="112.84"/>
        <polyline class="cls-2" points="198.32 109.26 198.35 109.77 198.46 110.28 198.63 110.75 198.88 111.2 199.19 111.62 199.54 111.97 199.97 112.28 200.41 112.53 200.88 112.71 201.39 112.79 201.9 112.84"/>
        <line class="cls-2" x1="198.32" y1="95.25" x2="198.32" y2="109.26"/>
        <polyline class="cls-2" points="201.88 91.67 201.37 91.7 200.88 91.81 200.41 91.98 199.94 92.23 199.54 92.54 199.19 92.89 198.88 93.32 198.63 93.76 198.46 94.23 198.35 94.74 198.32 95.25"/>
        <line class="cls-2" x1="164.97" y1="96" x2="164.95" y2="80.61"/>
        <line class="cls-2" x1="164.95" y1="80.61" x2="170.63" y2="83.99"/>
        <line class="cls-2" x1="170.63" y1="83.99" x2="170.63" y2="94.12"/>
        <line class="cls-2" x1="170.63" y1="94.12" x2="164.97" y2="96"/>
        <line class="cls-2" x1="191.44" y1="80.61" x2="191.44" y2="95.98"/>
        <line class="cls-2" x1="191.44" y1="95.98" x2="185.75" y2="94.09"/>
        <line class="cls-2" x1="185.75" y1="94.09" x2="185.75" y2="83.99"/>
        <line class="cls-2" x1="185.75" y1="83.99" x2="191.44" y2="80.61"/>
        <line class="cls-2" x1="171.12" y1="82.63" x2="166.26" y2="79.81"/>
        <line class="cls-2" x1="190.08" y1="79.81" x2="166.26" y2="79.81"/>
        <line class="cls-2" x1="190.08" y1="79.81" x2="185.27" y2="82.63"/>
        <line class="cls-2" x1="185.27" y1="82.63" x2="171.12" y2="82.63"/>
        <line class="cls-2" x1="170.43" y1="98.67" x2="165.84" y2="97.14"/>
        <line class="cls-2" x1="165.84" y1="97.14" x2="170.43" y2="95.6"/>
        <line class="cls-2" x1="170.43" y1="95.6" x2="185.98" y2="95.6"/>
        <line class="cls-2" x1="185.98" y1="95.6" x2="190.55" y2="97.14"/>
        <line class="cls-2" x1="190.55" y1="97.14" x2="185.98" y2="98.67"/>
        <line class="cls-2" x1="185.98" y1="98.67" x2="170.43" y2="98.67"/>
        <line class="cls-2" x1="185.29" y1="115.99" x2="190.13" y2="118.81"/>
        <line class="cls-2" x1="190.13" y1="118.81" x2="166.28" y2="118.84"/>
        <line class="cls-2" x1="166.28" y1="118.84" x2="171.14" y2="115.99"/>
        <line class="cls-2" x1="171.14" y1="115.99" x2="185.29" y2="115.99"/>
        <line class="cls-2" x1="164.97" y1="118.06" x2="164.97" y2="98.29"/>
        <line class="cls-2" x1="164.97" y1="98.29" x2="170.65" y2="100.16"/>
        <line class="cls-2" x1="170.65" y1="100.16" x2="170.65" y2="114.68"/>
        <line class="cls-2" x1="170.65" y1="114.68" x2="164.97" y2="118.06"/>
        <line class="cls-2" x1="191.44" y1="98.27" x2="191.44" y2="118.04"/>
        <line class="cls-2" x1="191.44" y1="118.04" x2="185.78" y2="114.68"/>
        <line class="cls-2" x1="185.78" y1="114.68" x2="185.75" y2="100.16"/>
        <line class="cls-2" x1="185.75" y1="100.16" x2="191.44" y2="98.27"/>
        <line class="cls-2" x1="136.08" y1="96" x2="136.08" y2="80.63"/>
        <line class="cls-2" x1="136.08" y1="80.63" x2="141.77" y2="84.01"/>
        <line class="cls-2" x1="141.77" y1="84.01" x2="141.77" y2="94.12"/>
        <line class="cls-2" x1="141.77" y1="94.12" x2="136.08" y2="96"/>
        <line class="cls-2" x1="142.23" y1="82.66" x2="137.37" y2="79.81"/>
        <line class="cls-2" x1="161.22" y1="79.84" x2="137.37" y2="79.81"/>
        <line class="cls-2" x1="161.22" y1="79.84" x2="156.4" y2="82.66"/>
        <line class="cls-2" x1="156.4" y1="82.66" x2="142.23" y2="82.66"/>
        <line class="cls-2" x1="141.54" y1="98.67" x2="136.97" y2="97.16"/>
        <line class="cls-2" x1="136.97" y1="97.16" x2="141.54" y2="95.6"/>
        <line class="cls-2" x1="141.54" y1="95.6" x2="157.09" y2="95.6"/>
        <line class="cls-2" x1="157.09" y1="95.6" x2="161.68" y2="97.14"/>
        <line class="cls-2" x1="161.68" y1="97.14" x2="157.09" y2="98.67"/>
        <line class="cls-2" x1="157.09" y1="98.67" x2="141.54" y2="98.67"/>
        <line class="cls-2" x1="156.4" y1="115.99" x2="161.26" y2="118.84"/>
        <line class="cls-2" x1="161.26" y1="118.84" x2="137.39" y2="118.84"/>
        <line class="cls-2" x1="137.39" y1="118.84" x2="142.25" y2="116.02"/>
        <line class="cls-2" x1="142.25" y1="116.02" x2="156.4" y2="115.99"/>
        <line class="cls-2" x1="136.08" y1="118.06" x2="136.08" y2="98.29"/>
        <line class="cls-2" x1="136.08" y1="98.29" x2="141.77" y2="100.16"/>
        <line class="cls-2" x1="141.77" y1="100.16" x2="141.77" y2="114.7"/>
        <line class="cls-2" x1="141.77" y1="114.7" x2="136.08" y2="118.06"/>
        <line class="cls-2" x1="162.55" y1="80.61" x2="162.55" y2="96"/>
        <line class="cls-2" x1="162.55" y1="96" x2="156.89" y2="94.12"/>
        <line class="cls-2" x1="156.89" y1="94.12" x2="156.86" y2="84.01"/>
        <line class="cls-2" x1="156.86" y1="84.01" x2="162.55" y2="80.61"/>
        <line class="cls-2" x1="162.55" y1="98.29" x2="162.57" y2="118.06"/>
        <line class="cls-2" x1="162.57" y1="118.06" x2="156.89" y2="114.68"/>
        <line class="cls-2" x1="156.89" y1="114.68" x2="156.89" y2="100.16"/>
        <line class="cls-2" x1="156.89" y1="100.16" x2="162.55" y2="98.29"/>
        <line class="cls-2" x1="127.6" y1="110.66" x2="113.19" y2="110.66"/>
        <line class="cls-2" x1="127.6" y1="113.22" x2="127.6" y2="110.66"/>
        <polyline class="cls-2" points="125.82 114.99 126.15 114.97 126.49 114.86 126.8 114.7 127.06 114.48 127.29 114.19 127.46 113.91 127.55 113.57 127.6 113.22"/>
        <line class="cls-2" x1="114.96" y1="114.99" x2="125.82" y2="114.99"/>
        <polyline class="cls-2" points="113.19 113.22 113.21 113.57 113.32 113.91 113.47 114.22 113.7 114.48 113.99 114.7 114.27 114.86 114.61 114.97 114.96 114.99"/>
        <line class="cls-2" x1="113.19" y1="110.66" x2="113.19" y2="113.22"/>
        <line class="cls-2" x1="113.19" y1="105.8" x2="113.19" y2="109.51"/>
        <line class="cls-2" x1="127.6" y1="105.8" x2="113.19" y2="105.8"/>
        <line class="cls-2" x1="127.6" y1="109.51" x2="127.6" y2="105.8"/>
        <line class="cls-2" x1="113.19" y1="109.51" x2="127.6" y2="109.51"/>
        <line class="cls-2" x1="113.19" y1="100.93" x2="113.19" y2="104.64"/>
        <line class="cls-2" x1="127.6" y1="100.93" x2="113.19" y2="100.93"/>
        <line class="cls-2" x1="127.6" y1="104.62" x2="127.6" y2="100.93"/>
        <line class="cls-2" x1="113.19" y1="104.64" x2="127.6" y2="104.62"/>
        <line class="cls-2" x1="113.19" y1="96.07" x2="113.19" y2="99.78"/>
        <line class="cls-2" x1="127.58" y1="96.07" x2="113.19" y2="96.07"/>
        <line class="cls-2" x1="127.6" y1="99.76" x2="127.58" y2="96.07"/>
        <line class="cls-2" x1="113.19" y1="99.78" x2="127.6" y2="99.76"/>
        <line class="cls-2" x1="113.19" y1="92.34" x2="113.19" y2="94.89"/>
        <polyline class="cls-2" points="114.96 90.56 114.61 90.61 114.27 90.7 113.96 90.87 113.7 91.1 113.47 91.36 113.32 91.67 113.21 92.01 113.19 92.34"/>
        <line class="cls-2" x1="125.8" y1="90.56" x2="114.96" y2="90.56"/>
        <polyline class="cls-2" points="127.58 92.34 127.55 91.98 127.44 91.65 127.29 91.36 127.06 91.07 126.8 90.87 126.49 90.7 126.15 90.61 125.8 90.56"/>
        <line class="cls-2" x1="127.58" y1="94.89" x2="127.58" y2="92.34"/>
        <line class="cls-2" x1="113.19" y1="94.89" x2="127.58" y2="94.89"/>
        <polyline class="cls-2" points="126.47 116.02 126.89 115.97 127.31 115.86 127.69 115.64 128.02 115.37 128.29 115.04 128.51 114.66 128.62 114.24 128.66 113.82"/>
        <line class="cls-2" x1="128.66" y1="91.74" x2="128.66" y2="113.82"/>
        <polyline class="cls-2" points="128.66 91.74 128.62 91.32 128.49 90.9 128.29 90.52 128.02 90.18 127.69 89.92 127.29 89.72 126.89 89.59 126.44 89.54"/>
        <polyline class="cls-2" points="114.41 89.54 113.99 89.59 113.56 89.72 113.19 89.92 112.85 90.18 112.59 90.52 112.36 90.92 112.25 91.32 112.21 91.76"/>
        <line class="cls-2" x1="112.21" y1="113.82" x2="112.21" y2="91.76"/>
        <polyline class="cls-2" points="112.21 113.82 112.25 114.24 112.39 114.66 112.59 115.04 112.85 115.37 113.19 115.66 113.59 115.86 113.99 115.97 114.43 116.02"/>
        <line class="cls-2" x1="126.47" y1="116.02" x2="114.43" y2="116.02"/>
        <polyline class="cls-2" points="129.62 91.56 129.57 91.1 129.46 90.65 129.29 90.21 129.04 89.81 128.75 89.45 128.4 89.16 128 88.92 127.55 88.74 127.11 88.63 126.64 88.59"/>
        <line class="cls-2" x1="129.62" y1="91.56" x2="129.69" y2="113.99"/>
        <polyline class="cls-2" points="126.71 116.97 127.18 116.95 127.62 116.84 128.06 116.64 128.46 116.39 128.82 116.1 129.11 115.75 129.35 115.35 129.55 114.9 129.64 114.46 129.69 113.99"/>
        <line class="cls-2" x1="126.71" y1="116.97" x2="114.27" y2="116.97"/>
        <polyline class="cls-2" points="111.3 113.99 111.32 114.46 111.43 114.93 111.61 115.35 111.85 115.75 112.16 116.1 112.52 116.41 112.92 116.66 113.34 116.84 113.81 116.95 114.27 116.97"/>
        <line class="cls-2" x1="111.3" y1="113.99" x2="111.23" y2="91.58"/>
        <polyline class="cls-2" points="114.21 88.59 113.74 88.63 113.28 88.74 112.85 88.92 112.45 89.16 112.1 89.47 111.79 89.83 111.54 90.23 111.37 90.65 111.25 91.12 111.23 91.58"/>
        <line class="cls-2" x1="166.64" y1="130.03" x2="165.19" y2="130.92"/>
        <line class="cls-2" x1="165.19" y1="126.61" x2="165.19" y2="130.92"/>
        <line class="cls-2" x1="166.64" y1="127.12" x2="166.64" y2="130.03"/>
        <line class="cls-2" x1="166.64" y1="127.12" x2="165.19" y2="126.61"/>
        <line class="cls-2" x1="166.64" y1="124.97" x2="165.19" y2="125.48"/>
        <line class="cls-2" x1="165.19" y1="122.23" x2="165.19" y2="125.48"/>
        <line class="cls-2" x1="166.64" y1="123.14" x2="166.64" y2="124.97"/>
        <line class="cls-2" x1="166.64" y1="123.14" x2="165.19" y2="122.23"/>
        <line class="cls-2" x1="171.9" y1="122.23" x2="170.48" y2="123.14"/>
        <line class="cls-2" x1="171.9" y1="125.48" x2="171.9" y2="122.23"/>
        <line class="cls-2" x1="170.48" y1="124.97" x2="170.48" y2="123.14"/>
        <line class="cls-2" x1="171.9" y1="125.48" x2="170.48" y2="124.97"/>
        <line class="cls-2" x1="171.92" y1="126.61" x2="170.48" y2="127.12"/>
        <line class="cls-2" x1="171.92" y1="130.92" x2="171.92" y2="126.61"/>
        <line class="cls-2" x1="170.48" y1="130.03" x2="170.48" y2="127.12"/>
        <line class="cls-2" x1="171.92" y1="130.92" x2="170.48" y2="130.03"/>
        <line class="cls-2" x1="171.01" y1="131.47" x2="170.08" y2="130.9"/>
        <line class="cls-2" x1="167.04" y1="130.9" x2="166.08" y2="131.5"/>
        <line class="cls-2" x1="170.06" y1="122.28" x2="171.01" y2="121.68"/>
        <line class="cls-2" x1="167.06" y1="122.28" x2="166.1" y2="121.68"/>
        <line class="cls-2" x1="166.46" y1="126.05" x2="167.46" y2="126.41"/>
        <line class="cls-2" x1="167.46" y1="125.68" x2="166.46" y2="126.05"/>
        <line class="cls-2" x1="170.65" y1="126.03" x2="169.66" y2="125.68"/>
        <line class="cls-2" x1="169.66" y1="126.41" x2="170.65" y2="126.03"/>
        <line class="cls-2" x1="166.1" y1="121.68" x2="171.01" y2="121.68"/>
        <line class="cls-2" x1="167.06" y1="122.28" x2="170.06" y2="122.28"/>
        <line class="cls-2" x1="166.08" y1="131.5" x2="171.01" y2="131.5"/>
        <line class="cls-2" x1="167.04" y1="130.9" x2="170.08" y2="130.9"/>
        <line class="cls-2" x1="167.46" y1="126.41" x2="169.66" y2="126.41"/>
        <line class="cls-2" x1="167.46" y1="125.68" x2="169.66" y2="125.68"/>
        <line class="cls-2" x1="174.65" y1="130.03" x2="173.23" y2="130.92"/>
        <line class="cls-2" x1="173.23" y1="126.61" x2="173.23" y2="130.92"/>
        <line class="cls-2" x1="174.65" y1="127.12" x2="174.65" y2="130.03"/>
        <line class="cls-2" x1="174.65" y1="127.12" x2="173.23" y2="126.61"/>
        <line class="cls-2" x1="174.65" y1="124.97" x2="173.23" y2="125.48"/>
        <line class="cls-2" x1="173.23" y1="122.26" x2="173.23" y2="125.48"/>
        <line class="cls-2" x1="174.65" y1="123.14" x2="174.65" y2="124.97"/>
        <line class="cls-2" x1="174.65" y1="123.14" x2="173.23" y2="122.26"/>
        <line class="cls-2" x1="179.94" y1="122.23" x2="178.52" y2="123.14"/>
        <line class="cls-2" x1="179.94" y1="125.48" x2="179.94" y2="122.23"/>
        <line class="cls-2" x1="178.52" y1="124.97" x2="178.52" y2="123.14"/>
        <line class="cls-2" x1="179.94" y1="125.48" x2="178.52" y2="124.97"/>
        <line class="cls-2" x1="179.94" y1="126.61" x2="178.52" y2="127.12"/>
        <line class="cls-2" x1="179.94" y1="130.92" x2="179.94" y2="126.61"/>
        <line class="cls-2" x1="178.52" y1="130.03" x2="178.52" y2="127.12"/>
        <line class="cls-2" x1="179.94" y1="130.92" x2="178.52" y2="130.03"/>
        <line class="cls-2" x1="179.03" y1="131.47" x2="178.12" y2="130.9"/>
        <line class="cls-2" x1="175.05" y1="130.9" x2="174.1" y2="131.5"/>
        <line class="cls-2" x1="178.07" y1="122.28" x2="179.03" y2="121.68"/>
        <line class="cls-2" x1="175.1" y1="122.28" x2="174.14" y2="121.68"/>
        <line class="cls-2" x1="174.47" y1="126.05" x2="175.5" y2="126.41"/>
        <line class="cls-2" x1="175.5" y1="125.68" x2="174.47" y2="126.05"/>
        <line class="cls-2" x1="178.69" y1="126.05" x2="177.67" y2="125.68"/>
        <line class="cls-2" x1="177.67" y1="126.41" x2="178.69" y2="126.05"/>
        <line class="cls-2" x1="174.14" y1="121.68" x2="179.03" y2="121.68"/>
        <line class="cls-2" x1="175.1" y1="122.28" x2="178.07" y2="122.28"/>
        <line class="cls-2" x1="174.1" y1="131.5" x2="179.03" y2="131.5"/>
        <line class="cls-2" x1="175.05" y1="130.9" x2="178.12" y2="130.9"/>
        <line class="cls-2" x1="175.5" y1="126.41" x2="177.67" y2="126.41"/>
        <line class="cls-2" x1="175.5" y1="125.68" x2="177.67" y2="125.68"/>
        <line class="cls-2" x1="182.69" y1="130.03" x2="181.25" y2="130.92"/>
        <line class="cls-2" x1="181.25" y1="126.61" x2="181.25" y2="130.92"/>
        <line class="cls-2" x1="182.69" y1="127.12" x2="182.69" y2="130.03"/>
        <line class="cls-2" x1="182.69" y1="127.12" x2="181.25" y2="126.61"/>
        <line class="cls-2" x1="182.69" y1="124.97" x2="181.25" y2="125.48"/>
        <line class="cls-2" x1="181.25" y1="122.23" x2="181.25" y2="125.48"/>
        <line class="cls-2" x1="182.69" y1="123.14" x2="182.69" y2="124.97"/>
        <line class="cls-2" x1="182.69" y1="123.14" x2="181.25" y2="122.23"/>
        <line class="cls-2" x1="187.95" y1="122.23" x2="186.53" y2="123.14"/>
        <line class="cls-2" x1="187.95" y1="125.48" x2="187.95" y2="122.23"/>
        <line class="cls-2" x1="186.53" y1="124.97" x2="186.53" y2="123.14"/>
        <line class="cls-2" x1="187.95" y1="125.48" x2="186.53" y2="124.97"/>
        <line class="cls-2" x1="187.95" y1="126.61" x2="186.53" y2="127.12"/>
        <line class="cls-2" x1="187.95" y1="130.92" x2="187.95" y2="126.61"/>
        <line class="cls-2" x1="186.53" y1="130.03" x2="186.53" y2="127.12"/>
        <line class="cls-2" x1="187.95" y1="130.92" x2="186.53" y2="130.03"/>
        <line class="cls-2" x1="187.06" y1="131.47" x2="186.13" y2="130.9"/>
        <line class="cls-2" x1="183.07" y1="130.9" x2="182.14" y2="131.5"/>
        <line class="cls-2" x1="186.11" y1="122.28" x2="187.06" y2="121.68"/>
        <line class="cls-2" x1="183.11" y1="122.28" x2="182.16" y2="121.68"/>
        <line class="cls-2" x1="182.49" y1="126.03" x2="183.51" y2="126.41"/>
        <line class="cls-2" x1="183.51" y1="125.68" x2="182.49" y2="126.03"/>
        <line class="cls-2" x1="186.71" y1="126.03" x2="185.71" y2="125.68"/>
        <line class="cls-2" x1="185.71" y1="126.41" x2="186.71" y2="126.03"/>
        <line class="cls-2" x1="182.16" y1="121.68" x2="187.06" y2="121.68"/>
        <line class="cls-2" x1="183.11" y1="122.28" x2="186.11" y2="122.28"/>
        <line class="cls-2" x1="182.14" y1="131.5" x2="187.06" y2="131.5"/>
        <line class="cls-2" x1="183.07" y1="130.9" x2="186.13" y2="130.9"/>
        <line class="cls-2" x1="183.51" y1="126.41" x2="185.71" y2="126.41"/>
        <line class="cls-2" x1="183.51" y1="125.68" x2="185.71" y2="125.68"/>
        <line class="cls-2" x1="190.71" y1="130.03" x2="189.29" y2="130.92"/>
        <line class="cls-2" x1="189.26" y1="126.61" x2="189.29" y2="130.92"/>
        <line class="cls-2" x1="190.71" y1="127.12" x2="190.71" y2="130.03"/>
        <line class="cls-2" x1="190.71" y1="127.12" x2="189.26" y2="126.61"/>
        <line class="cls-2" x1="190.71" y1="124.97" x2="189.26" y2="125.48"/>
        <line class="cls-2" x1="189.26" y1="122.23" x2="189.26" y2="125.48"/>
        <line class="cls-2" x1="190.71" y1="123.14" x2="190.71" y2="124.97"/>
        <line class="cls-2" x1="190.71" y1="123.14" x2="189.26" y2="122.23"/>
        <line class="cls-2" x1="195.99" y1="122.23" x2="194.55" y2="123.14"/>
        <line class="cls-2" x1="195.99" y1="125.48" x2="195.99" y2="122.23"/>
        <line class="cls-2" x1="194.55" y1="124.97" x2="194.55" y2="123.14"/>
        <line class="cls-2" x1="195.99" y1="125.48" x2="194.55" y2="124.97"/>
        <line class="cls-2" x1="195.99" y1="126.61" x2="194.55" y2="127.12"/>
        <line class="cls-2" x1="195.99" y1="130.92" x2="195.99" y2="126.61"/>
        <line class="cls-2" x1="194.55" y1="130.03" x2="194.55" y2="127.12"/>
        <line class="cls-2" x1="195.99" y1="130.92" x2="194.55" y2="130.03"/>
        <line class="cls-2" x1="195.08" y1="131.47" x2="194.17" y2="130.9"/>
        <line class="cls-2" x1="191.11" y1="130.9" x2="190.15" y2="131.5"/>
        <line class="cls-2" x1="194.13" y1="122.28" x2="195.08" y2="121.68"/>
        <line class="cls-2" x1="191.13" y1="122.28" x2="190.17" y2="121.68"/>
        <line class="cls-2" x1="190.53" y1="126.03" x2="191.53" y2="126.39"/>
        <line class="cls-2" x1="191.53" y1="125.68" x2="190.53" y2="126.03"/>
        <line class="cls-2" x1="194.73" y1="126.03" x2="193.73" y2="125.68"/>
        <line class="cls-2" x1="193.73" y1="126.39" x2="194.73" y2="126.03"/>
        <line class="cls-2" x1="190.17" y1="121.68" x2="195.08" y2="121.68"/>
        <line class="cls-2" x1="191.13" y1="122.28" x2="194.13" y2="122.28"/>
        <line class="cls-2" x1="190.15" y1="131.5" x2="195.08" y2="131.5"/>
        <line class="cls-2" x1="191.11" y1="130.9" x2="194.17" y2="130.9"/>
        <line class="cls-2" x1="191.53" y1="126.39" x2="193.73" y2="126.39"/>
        <line class="cls-2" x1="191.53" y1="125.68" x2="193.73" y2="125.68"/>
        <line class="cls-2" x1="198.72" y1="130.01" x2="197.3" y2="130.92"/>
        <line class="cls-2" x1="197.3" y1="126.61" x2="197.3" y2="130.92"/>
        <line class="cls-2" x1="198.72" y1="127.12" x2="198.72" y2="130.01"/>
        <line class="cls-2" x1="198.72" y1="127.12" x2="197.3" y2="126.61"/>
        <line class="cls-2" x1="198.72" y1="124.97" x2="197.3" y2="125.48"/>
        <line class="cls-2" x1="197.3" y1="122.23" x2="197.3" y2="125.48"/>
        <line class="cls-2" x1="198.72" y1="123.12" x2="198.72" y2="124.97"/>
        <line class="cls-2" x1="198.72" y1="123.12" x2="197.3" y2="122.23"/>
        <line class="cls-2" x1="204.01" y1="122.23" x2="202.56" y2="123.12"/>
        <line class="cls-2" x1="204.01" y1="125.45" x2="204.01" y2="122.23"/>
        <line class="cls-2" x1="202.56" y1="124.97" x2="202.56" y2="123.12"/>
        <line class="cls-2" x1="204.01" y1="125.45" x2="202.56" y2="124.97"/>
        <line class="cls-2" x1="204.01" y1="126.61" x2="202.59" y2="127.12"/>
        <line class="cls-2" x1="204.01" y1="130.92" x2="204.01" y2="126.61"/>
        <line class="cls-2" x1="202.59" y1="130.01" x2="202.59" y2="127.12"/>
        <line class="cls-2" x1="204.01" y1="130.92" x2="202.59" y2="130.01"/>
        <line class="cls-2" x1="203.1" y1="131.47" x2="202.19" y2="130.9"/>
        <line class="cls-2" x1="199.12" y1="130.9" x2="198.17" y2="131.5"/>
        <line class="cls-2" x1="202.14" y1="122.28" x2="203.1" y2="121.68"/>
        <line class="cls-2" x1="199.14" y1="122.28" x2="198.19" y2="121.68"/>
        <line class="cls-2" x1="198.55" y1="126.03" x2="199.54" y2="126.39"/>
        <line class="cls-2" x1="199.54" y1="125.68" x2="198.55" y2="126.03"/>
        <line class="cls-2" x1="202.76" y1="126.03" x2="201.74" y2="125.68"/>
        <line class="cls-2" x1="201.74" y1="126.39" x2="202.76" y2="126.03"/>
        <line class="cls-2" x1="198.19" y1="121.68" x2="203.1" y2="121.68"/>
        <line class="cls-2" x1="199.14" y1="122.28" x2="202.14" y2="122.28"/>
        <line class="cls-2" x1="198.17" y1="131.5" x2="203.1" y2="131.5"/>
        <line class="cls-2" x1="199.12" y1="130.9" x2="202.19" y2="130.9"/>
        <line class="cls-2" x1="199.54" y1="126.39" x2="201.74" y2="126.39"/>
        <line class="cls-2" x1="199.54" y1="125.68" x2="201.74" y2="125.68"/>
        <line class="cls-2" x1="206.32" y1="105.69" x2="204.87" y2="106.58"/>
        <line class="cls-2" x1="204.87" y1="102.29" x2="204.87" y2="106.58"/>
        <line class="cls-2" x1="206.32" y1="102.78" x2="206.32" y2="105.69"/>
        <line class="cls-2" x1="206.32" y1="102.78" x2="204.87" y2="102.29"/>
        <line class="cls-2" x1="206.32" y1="100.65" x2="204.87" y2="101.13"/>
        <line class="cls-2" x1="204.87" y1="97.91" x2="204.87" y2="101.13"/>
        <line class="cls-2" x1="206.32" y1="98.8" x2="206.32" y2="100.65"/>
        <line class="cls-2" x1="206.32" y1="98.8" x2="204.87" y2="97.91"/>
        <line class="cls-2" x1="211.58" y1="97.91" x2="210.16" y2="98.8"/>
        <line class="cls-2" x1="211.58" y1="101.13" x2="211.58" y2="97.91"/>
        <line class="cls-2" x1="210.16" y1="100.62" x2="210.16" y2="98.8"/>
        <line class="cls-2" x1="211.58" y1="101.13" x2="210.16" y2="100.62"/>
        <line class="cls-2" x1="211.58" y1="102.29" x2="210.16" y2="102.78"/>
        <line class="cls-2" x1="211.58" y1="106.58" x2="211.58" y2="102.29"/>
        <line class="cls-2" x1="210.16" y1="105.69" x2="210.16" y2="102.78"/>
        <line class="cls-2" x1="211.58" y1="106.58" x2="210.16" y2="105.69"/>
        <line class="cls-2" x1="210.69" y1="107.15" x2="209.76" y2="106.58"/>
        <line class="cls-2" x1="206.72" y1="106.58" x2="205.76" y2="107.18"/>
        <line class="cls-2" x1="209.74" y1="97.96" x2="210.69" y2="97.36"/>
        <line class="cls-2" x1="206.74" y1="97.96" x2="205.78" y2="97.36"/>
        <line class="cls-2" x1="206.12" y1="101.71" x2="207.14" y2="102.07"/>
        <line class="cls-2" x1="207.14" y1="101.36" x2="206.12" y2="101.71"/>
        <line class="cls-2" x1="210.34" y1="101.71" x2="209.34" y2="101.36"/>
        <line class="cls-2" x1="209.34" y1="102.07" x2="210.34" y2="101.71"/>
        <line class="cls-2" x1="205.78" y1="97.36" x2="210.69" y2="97.36"/>
        <line class="cls-2" x1="206.74" y1="97.96" x2="209.74" y2="97.96"/>
        <line class="cls-2" x1="205.76" y1="107.18" x2="210.69" y2="107.18"/>
        <line class="cls-2" x1="206.72" y1="106.58" x2="209.76" y2="106.58"/>
        <line class="cls-2" x1="207.14" y1="102.07" x2="209.34" y2="102.07"/>
        <line class="cls-2" x1="207.14" y1="101.36" x2="209.34" y2="101.36"/>
        <line class="cls-2" x1="114.21" y1="88.59" x2="116.27" y2="88.59"/>
        <polyline class="cls-2" points="116.27 88.59 116.45 88.56 116.61 88.45 116.69 88.3 116.74 88.12"/>
        <line class="cls-2" x1="116.74" y1="88.12" x2="116.74" y2="88.01"/>
        <polyline class="cls-2" points="117.23 87.54 117.03 87.59 116.87 87.68 116.78 87.83 116.74 88.01"/>
        <line class="cls-2" x1="117.23" y1="87.54" x2="123.62" y2="87.54"/>
        <polyline class="cls-2" points="124.09 88.01 124.04 87.83 123.96 87.68 123.8 87.59 123.62 87.54"/>
        <line class="cls-2" x1="124.09" y1="88.01" x2="124.09" y2="88.12"/>
        <polyline class="cls-2" points="124.09 88.12 124.13 88.3 124.22 88.45 124.38 88.56 124.56 88.59"/>
        <line class="cls-2" x1="124.56" y1="88.59" x2="126.64" y2="88.59"/>
        <line class="cls-2" x1="114.41" y1="89.54" x2="117.01" y2="89.54"/>
        <polyline class="cls-2" points="117.01 89.54 117.18 89.5 117.34 89.41 117.45 89.25 117.47 89.07"/>
        <line class="cls-2" x1="117.47" y1="89.07" x2="117.47" y2="89.07"/>
        <polyline class="cls-2" points="117.96 88.59 117.78 88.63 117.63 88.72 117.52 88.87 117.47 89.07"/>
        <line class="cls-2" x1="117.96" y1="88.59" x2="122.91" y2="88.59"/>
        <polyline class="cls-2" points="123.4 89.07 123.36 88.87 123.25 88.72 123.09 88.63 122.91 88.59"/>
        <line class="cls-2" x1="123.4" y1="89.07" x2="123.4" y2="89.07"/>
        <polyline class="cls-2" points="123.4 89.07 123.42 89.25 123.53 89.41 123.69 89.5 123.87 89.54"/>
        <line class="cls-2" x1="123.87" y1="89.54" x2="126.44" y2="89.54"/>
        <line class="cls-2" x1="202.08" y1="112.31" x2="214.38" y2="112.31"/>
        <polyline class="cls-2" points="214.38 112.31 214.89 112.26 215.38 112.13 215.84 111.95 216.29 111.68 216.67 111.35 217 110.97 217.26 110.53 217.44 110.06 217.58 109.57 217.6 109.09"/>
        <line class="cls-2" x1="217.6" y1="109.09" x2="217.6" y2="95.43"/>
        <polyline class="cls-2" points="217.6 95.43 217.58 94.92 217.44 94.43 217.26 93.96 217 93.54 216.67 93.14 216.29 92.83 215.84 92.56 215.38 92.36 214.89 92.25 214.38 92.21"/>
        <line class="cls-2" x1="214.38" y1="92.21" x2="202.08" y2="92.21"/>
        <polyline class="cls-2" points="202.08 92.21 201.59 92.25 201.08 92.36 200.61 92.56 200.19 92.83 199.81 93.14 199.48 93.54 199.21 93.96 199.01 94.43 198.9 94.92 198.86 95.43"/>
        <line class="cls-2" x1="198.86" y1="95.43" x2="198.86" y2="109.09"/>
        <polyline class="cls-2" points="198.86 109.09 198.9 109.57 199.01 110.06 199.21 110.53 199.48 110.97 199.81 111.35 200.19 111.68 200.61 111.95 201.08 112.13 201.59 112.26 202.08 112.31"/>
        <polyline class="cls-2" points="207.32 130.01 207.32 130.07 207.98 129.41 207.98 129.39 208 129.36 208.03 129.36 208.05 129.34 208.07 129.34 208.12 129.34 208.18 129.34 208.27 129.34 208.29 129.34 208.32 129.34 208.34 129.36 208.36 129.36 208.36 129.39 208.36 129.39 208.36 129.41 208.34 129.43 208.34 129.47 208.32 129.5 207.67 130.12 208.38 131.05 208.4 131.07 208.43 131.1 208.43 131.12 208.43 131.14 208.43 131.14 208.43 131.16 208.4 131.16 208.4 131.18"/>
        <polyline class="cls-2" points="208.27 131.21 208.34 131.18 208.4 131.18"/>
        <polyline class="cls-2" points="208.27 131.21 208.18 131.18 208.14 131.18 208.12 131.18 208.09 131.18 208.07 131.16 208.07 131.14 208.05 131.14 207.32 130.27 207.32 131.14 207.32 131.14 207.32 131.16 207.29 131.16 207.29 131.18"/>
        <polyline class="cls-2" points="207.03 131.18 207.16 131.21 207.29 131.18"/>
        <polyline class="cls-2" points="207.03 131.18 207.03 131.16 207.01 131.16 207.01 131.14 207.01 131.14 207.01 128.56 207.01 128.54 207.01 128.52 207.03 128.52 207.03 128.5"/>
        <polyline class="cls-2" points="207.25 128.5 207.14 128.5 207.03 128.5"/>
        <polyline class="cls-2" points="207.25 128.5 207.27 128.5 207.29 128.5 207.29 128.52 207.32 128.52 207.32 128.54 207.32 128.56 207.32 130.01"/>
        <polyline class="cls-2" points="211.38 131.14 211.38 131.16 211.36 131.16 211.36 131.18"/>
        <polyline class="cls-2" points="211.09 131.18 211.22 131.21 211.36 131.18"/>
        <polyline class="cls-2" points="211.09 131.18 211.07 131.16 211.07 131.16 211.07 131.14 211.07 131.14 211.07 130.07"/>
        <polyline class="cls-2" points="211.07 130.07 211.05 129.99 211.05 129.87"/>
        <polyline class="cls-2" points="211.05 129.87 211.02 129.81 210.98 129.72"/>
        <polyline class="cls-2" points="210.98 129.72 210.87 129.61 210.71 129.59"/>
        <polyline class="cls-2" points="210.71 129.59 210.6 129.61 210.49 129.67"/>
        <polyline class="cls-2" points="210.49 129.67 210.36 129.79 210.25 129.92"/>
        <polyline class="cls-2" points="210.25 129.92 210.25 131.14 210.25 131.14 210.25 131.16 210.23 131.16 210.23 131.18"/>
        <polyline class="cls-2" points="210 131.18 210.11 131.21 210.23 131.18"/>
        <polyline class="cls-2" points="210 131.18 209.98 131.18 209.96 131.18 209.96 131.16 209.94 131.16 209.94 131.14 209.94 131.14 209.94 130.07"/>
        <polyline class="cls-2" points="209.94 130.07 209.94 129.99 209.91 129.87"/>
        <polyline class="cls-2" points="209.91 129.87 209.89 129.81 209.85 129.72"/>
        <polyline class="cls-2" points="209.85 129.72 209.8 129.67 209.74 129.63"/>
        <polyline class="cls-2" points="209.74 129.63 209.67 129.59 209.58 129.59"/>
        <polyline class="cls-2" points="209.58 129.59 209.47 129.61 209.36 129.67"/>
        <polyline class="cls-2" points="209.36 129.67 209.23 129.79 209.12 129.92"/>
        <polyline class="cls-2" points="209.12 129.92 209.12 131.14 209.12 131.14 209.12 131.16 209.09 131.16 209.09 131.18"/>
        <polyline class="cls-2" points="208.83 131.18 208.96 131.21 209.09 131.18"/>
        <polyline class="cls-2" points="208.83 131.18 208.83 131.16 208.8 131.16 208.8 131.14 208.8 131.14 208.8 129.39 208.8 129.39 208.8 129.36 208.83 129.36 208.83 129.34 208.85 129.34 208.87 129.34 208.94 129.34 209.03 129.34 209.05 129.34 209.07 129.34 209.07 129.36 209.09 129.36 209.09 129.39 209.09 129.39 209.09 129.63"/>
        <polyline class="cls-2" points="209.38 129.39 209.23 129.5 209.09 129.63"/>
        <polyline class="cls-2" points="209.65 129.32 209.51 129.32 209.38 129.39"/>
        <polyline class="cls-2" points="209.85 129.34 209.76 129.32 209.65 129.32"/>
        <polyline class="cls-2" points="210 129.41 209.94 129.36 209.85 129.34"/>
        <polyline class="cls-2" points="210.11 129.52 210.07 129.45 210 129.41"/>
        <polyline class="cls-2" points="210.18 129.65 210.16 129.59 210.11 129.52"/>
        <polyline class="cls-2" points="210.18 129.65 210.27 129.56 210.36 129.5"/>
        <polyline class="cls-2" points="210.51 129.39 210.43 129.43 210.36 129.5"/>
        <polyline class="cls-2" points="210.65 129.32 210.58 129.36 210.51 129.39"/>
        <polyline class="cls-2" points="210.78 129.32 210.71 129.32 210.65 129.32"/>
        <polyline class="cls-2" points="211.07 129.36 210.94 129.32 210.78 129.32"/>
        <polyline class="cls-2" points="211.25 129.52 211.16 129.43 211.07 129.36"/>
        <polyline class="cls-2" points="211.36 129.76 211.31 129.63 211.25 129.52"/>
        <polyline class="cls-2" points="211.38 130.03 211.38 129.9 211.36 129.76"/>
        <polyline class="cls-2" points="211.38 130.03 211.38 131.14 211.38 131.14"/>
        <polyline class="cls-2" points="157.2 122.63 157.18 122.68 157.15 122.74"/>
        <line class="cls-2" x1="157.15" y1="122.74" x2="157.15" y2="124.9"/>
        <polyline class="cls-2" points="157.15 124.9 157.18 124.94 157.2 124.99"/>
        <polyline class="cls-2" points="157.2 124.99 157.24 125.01 157.29 125.01"/>
        <polyline class="cls-2" points="157.29 125.01 157.8 125.01 157.91 125.01"/>
        <polyline class="cls-2" points="157.91 125.01 158.2 124.99 158.46 124.88 158.71 124.72"/>
        <polyline class="cls-2" points="158.71 124.72 158.84 124.54 158.93 124.32"/>
        <polyline class="cls-2" points="158.93 124.32 159 124.06 159.02 123.79"/>
        <polyline class="cls-2" points="159.02 123.79 159 123.52 158.93 123.3"/>
        <polyline class="cls-2" points="158.93 123.3 158.84 123.1 158.71 122.92"/>
        <polyline class="cls-2" points="158.71 122.92 158.55 122.79 158.35 122.7"/>
        <polyline class="cls-2" points="158.35 122.7 158.09 122.63 157.82 122.61"/>
        <line class="cls-2" x1="157.82" y1="122.61" x2="157.29" y2="122.61"/>
        <polyline class="cls-2" points="157.29 122.61 157.24 122.61 157.2 122.63"/>
        <polyline class="cls-2" points="160.11 122.92 159.97 123.01 159.86 123.14"/>
        <polyline class="cls-2" points="159.86 123.14 159.8 123.28 159.75 123.43"/>
        <polyline class="cls-2" points="159.75 123.43 159.71 123.61 159.71 123.81"/>
        <polyline class="cls-2" points="159.71 123.81 159.71 124.01 159.75 124.19"/>
        <polyline class="cls-2" points="159.75 124.19 159.8 124.37 159.86 124.5"/>
        <polyline class="cls-2" points="159.86 124.5 159.95 124.61 160.08 124.7"/>
        <polyline class="cls-2" points="160.08 124.7 160.33 124.77 160.55 124.77 160.8 124.7"/>
        <polyline class="cls-2" points="160.8 124.7 160.93 124.61 161.02 124.48"/>
        <polyline class="cls-2" points="161.02 124.48 161.11 124.34 161.15 124.19"/>
        <polyline class="cls-2" points="161.15 124.19 161.17 123.99 161.17 123.81"/>
        <polyline class="cls-2" points="161.17 123.81 161.17 123.61 161.15 123.43"/>
        <polyline class="cls-2" points="161.15 123.43 161.11 123.28 161.02 123.12"/>
        <polyline class="cls-2" points="161.02 123.12 160.93 123.01 160.8 122.92"/>
        <polyline class="cls-2" points="160.8 122.92 160.57 122.86 160.33 122.86 160.11 122.92"/>
        <polyline class="cls-2" points="155.09 124.97 155.29 125.03 155.51 125.05"/>
        <polyline class="cls-2" points="155.51 125.05 155.89 125.01 156.22 124.85"/>
        <polyline class="cls-2" points="156.22 124.85 156.31 124.79 156.38 124.72"/>
        <polyline class="cls-2" points="156.38 124.72 156.53 124.45 156.62 124.14"/>
        <polyline class="cls-2" points="156.62 124.14 156.64 123.97 156.64 123.79"/>
        <polyline class="cls-2" points="156.64 123.79 156.64 123.52 156.6 123.28"/>
        <polyline class="cls-2" points="156.6 123.28 156.51 123.08 156.4 122.88"/>
        <polyline class="cls-2" points="156.4 122.88 156.31 122.81 156.24 122.74"/>
        <polyline class="cls-2" points="156.24 122.74 155.93 122.61 155.62 122.57"/>
        <polyline class="cls-2" points="155.62 122.57 155.22 122.63 154.89 122.81"/>
        <polyline class="cls-2" points="154.89 122.81 154.64 123.12 154.53 123.48"/>
        <polyline class="cls-2" points="154.53 123.48 154.51 123.66 154.51 123.83"/>
        <polyline class="cls-2" points="154.51 123.83 154.51 123.94 154.51 124.08"/>
        <polyline class="cls-2" points="154.51 124.08 154.58 124.43 154.76 124.74"/>
        <polyline class="cls-2" points="154.76 124.74 154.91 124.88 155.09 124.97"/>
        <polyline class="cls-2" points="159.95 124.97 160.17 125.03 160.37 125.05"/>
        <polyline class="cls-2" points="160.37 125.05 160.75 125.01 161.08 124.85"/>
        <polyline class="cls-2" points="161.08 124.85 161.17 124.79 161.24 124.72"/>
        <polyline class="cls-2" points="161.24 124.72 161.39 124.45 161.48 124.14"/>
        <polyline class="cls-2" points="161.48 124.14 161.51 123.97 161.53 123.79"/>
        <polyline class="cls-2" points="161.53 123.79 161.51 123.52 161.46 123.28"/>
        <polyline class="cls-2" points="161.46 123.28 161.37 123.08 161.26 122.88"/>
        <polyline class="cls-2" points="161.26 122.88 161.2 122.81 161.11 122.74"/>
        <polyline class="cls-2" points="161.11 122.74 160.8 122.61 160.48 122.57"/>
        <polyline class="cls-2" points="160.48 122.57 160.11 122.63 159.75 122.81"/>
        <polyline class="cls-2" points="159.75 122.81 159.51 123.12 159.4 123.48"/>
        <polyline class="cls-2" points="159.4 123.48 159.37 123.66 159.37 123.83"/>
        <polyline class="cls-2" points="159.37 123.83 159.37 123.94 159.37 124.08"/>
        <polyline class="cls-2" points="159.37 124.08 159.46 124.43 159.62 124.74"/>
        <polyline class="cls-2" points="159.62 124.74 159.77 124.88 159.95 124.97"/>
        <polyline class="cls-2" points="158.46 123.14 158.35 123.03 158.22 122.94"/>
        <polyline class="cls-2" points="158.62 123.43 158.57 123.28 158.46 123.14"/>
        <polyline class="cls-2" points="158.69 123.79 158.66 123.61 158.62 123.43"/>
        <polyline class="cls-2" points="158.62 124.21 158.66 124.01 158.69 123.79"/>
        <polyline class="cls-2" points="158.06 124.72 158.31 124.63 158.51 124.45 158.62 124.21"/>
        <polyline class="cls-2" points="157.82 124.74 157.93 124.74 158.06 124.72"/>
        <polyline class="cls-2" points="157.82 124.74 157.49 124.74 157.49 122.88 157.8 122.88"/>
        <polyline class="cls-2" points="158.22 122.94 158.02 122.9 157.8 122.88"/>
        <polyline class="cls-2" points="156.15 123.12 156.07 123.01 155.93 122.92"/>
        <polyline class="cls-2" points="155.93 122.92 155.71 122.86 155.47 122.86 155.24 122.92"/>
        <polyline class="cls-2" points="155.24 122.92 155 123.14 154.89 123.43"/>
        <polyline class="cls-2" points="154.89 123.43 154.84 123.61 154.84 123.81"/>
        <polyline class="cls-2" points="154.84 123.81 154.84 124.01 154.87 124.19"/>
        <polyline class="cls-2" points="154.87 124.19 154.91 124.37 155 124.5"/>
        <polyline class="cls-2" points="155 124.5 155.09 124.61 155.22 124.7"/>
        <polyline class="cls-2" points="155.22 124.7 155.44 124.77 155.69 124.77 155.93 124.7"/>
        <polyline class="cls-2" points="155.93 124.7 156.04 124.61 156.15 124.48"/>
        <polyline class="cls-2" points="156.15 124.48 156.22 124.34 156.29 124.19"/>
        <polyline class="cls-2" points="156.29 124.19 156.31 123.99 156.31 123.81"/>
        <polyline class="cls-2" points="156.31 123.81 156.31 123.61 156.29 123.43"/>
        <polyline class="cls-2" points="156.29 123.43 156.24 123.28 156.15 123.12"/>
        <polyline class="cls-2" points="197.1 117.39 197.83 118.5 198.46 118.5 197.46 117.06"/>
        <polyline class="cls-2" points="197.1 117.39 197.83 118.5 198.46 118.5 197.46 117.06"/>
        <line class="cls-2" x1="197.46" y1="117.06" x2="198.43" y2="116.13"/>
        <polyline class="cls-2" points="198.43 116.13 197.7 116.13 196.84 117.01"/>
        <line class="cls-2" x1="196.84" y1="117.01" x2="196.84" y2="115.3"/>
        <polyline class="cls-2" points="196.84 115.3 196.32 115.3 196.32 118.5 196.84 118.5 196.84 117.66 197.1 117.39"/>
        <polyline class="cls-2" points="199.79 116.55 199.97 116.59 200.08 116.77 200.12 117.06 200.12 118.5 200.63 118.5 200.63 117.06 200.63 116.99 200.72 116.75 200.88 116.61 201.12 116.55 201.14 116.55"/>
        <polyline class="cls-2" points="199.79 116.55 199.97 116.59 200.08 116.77 200.12 117.06 200.12 118.5 200.63 118.5 200.63 117.06 200.63 116.99 200.72 116.75 200.88 116.61 201.12 116.55 201.14 116.55"/>
        <polyline class="cls-2" points="201.14 116.55 201.34 116.59 201.45 116.77 201.5 117.06 201.5 118.5 201.99 118.5 201.99 117.01 201.99 117.01 201.96 116.73 201.9 116.5"/>
        <polyline class="cls-2" points="201.14 116.55 201.34 116.59 201.45 116.77 201.5 117.06 201.5 118.5 201.99 118.5 201.99 117.01 201.99 117.01 201.96 116.73 201.9 116.5"/>
        <line class="cls-2" x1="199.26" y1="116.41" x2="199.26" y2="116.17"/>
        <polyline class="cls-2" points="199.26 116.17 198.75 116.17 198.75 118.5 199.26 118.5 199.26 117.06 199.26 116.99 199.37 116.77 199.52 116.61 199.74 116.55 199.79 116.55"/>
        <polyline class="cls-2" points="200.54 116.48 200.48 116.39 200.3 116.22 200.08 116.13 199.79 116.1"/>
        <polyline class="cls-2" points="199.79 116.1 199.66 116.13 199.43 116.22 199.26 116.41"/>
        <polyline class="cls-2" points="201.9 116.5 201.79 116.33 201.63 116.19 201.41 116.13 201.14 116.1"/>
        <polyline class="cls-2" points="201.14 116.1 200.92 116.15 200.72 116.26 200.54 116.48"/>
        <polyline class="cls-2" points="203.1 115.26 203.52 115.26 202.68 118.55 202.28 118.55 203.1 115.26 203.1 115.26"/>
        <polyline class="cls-2" points="204.85 116.53 204.92 116.53 205.12 116.61 205.25 116.77 205.27 117.06 205.27 118.5 205.78 118.5 205.78 117.01 205.78 116.97 205.76 116.7 205.7 116.48"/>
        <polyline class="cls-2" points="204.85 116.53 204.92 116.53 205.12 116.61 205.25 116.77 205.27 117.06 205.27 118.5 205.78 118.5 205.78 117.01 205.78 116.97 205.76 116.7 205.7 116.48"/>
        <polyline class="cls-2" points="205.7 116.48 205.58 116.3 205.41 116.19 205.18 116.13 204.94 116.1"/>
        <polyline class="cls-2" points="204.94 116.1 204.94 116.1 204.65 116.13 204.43 116.24 204.27 116.41"/>
        <line class="cls-2" x1="204.27" y1="116.41" x2="204.27" y2="115.3"/>
        <polyline class="cls-2" points="204.27 115.3 203.79 115.3 203.79 118.5 204.27 118.5 204.27 117.06 204.32 116.93 204.41 116.73 204.59 116.59 204.85 116.53"/>
        <line class="cls-2" x1="196.04" y1="75.81" x2="198.57" y2="75.81"/>
        <polyline class="cls-2" points="198.57 75.81 198.66 76.04 198.75 76.28"/>
        <polyline class="cls-2" points="198.75 76.28 196.04 76.28 196.04 75.81"/>
        <line class="cls-2" x1="196.04" y1="74.88" x2="198.37" y2="74.88"/>
        <polyline class="cls-2" points="198.37 74.88 198.41 75.13 198.46 75.35"/>
        <polyline class="cls-2" points="198.46 75.35 196.04 75.35 196.04 74.88"/>
        <line class="cls-2" x1="196.04" y1="73.97" x2="198.35" y2="73.97"/>
        <polyline class="cls-2" points="198.35 73.97 198.35 74.19 198.35 74.44"/>
        <polyline class="cls-2" points="198.35 74.44 196.04 74.44 196.04 73.97"/>
        <line class="cls-2" x1="196.04" y1="73.06" x2="198.48" y2="73.06"/>
        <polyline class="cls-2" points="198.48 73.06 198.43 73.28 198.39 73.53"/>
        <polyline class="cls-2" points="198.39 73.53 196.04 73.53 196.04 73.06"/>
        <polyline class="cls-2" points="198.79 72.13 198.68 72.37 198.61 72.59"/>
        <polyline class="cls-2" points="198.61 72.59 196.04 72.59 196.04 72.13 198.79 72.13"/>
        <polyline class="cls-2" points="201.43 76.06 201.94 75.88 202.41 75.62"/>
        <polyline class="cls-2" points="202.41 75.62 202.68 75.3 202.9 74.95 203.03 74.55"/>
        <polyline class="cls-2" points="203.03 74.55 203.08 74.13 203.01 73.71 202.85 73.31"/>
        <polyline class="cls-2" points="202.85 73.31 202.65 73.04 202.43 72.79"/>
        <polyline class="cls-2" points="202.43 72.79 202.05 72.55 201.65 72.39"/>
        <polyline class="cls-2" points="201.65 72.39 200.88 72.24 200.08 72.17 199.28 72.19"/>
        <polyline class="cls-2" points="199.28 72.19 199.06 72.73 198.9 73.31 198.83 73.9 198.81 74.48 198.88 75.08 199.03 75.66 199.23 76.21"/>
        <polyline class="cls-2" points="199.23 76.21 199.97 76.24 200.7 76.19 201.43 76.06"/>
        <polyline class="cls-2" points="201.34 75.66 201.74 75.5 202.14 75.28"/>
        <polyline class="cls-2" points="202.14 75.28 202.43 74.9 202.61 74.46"/>
        <polyline class="cls-2" points="202.61 74.46 202.65 74.15 202.61 73.82 202.5 73.51"/>
        <polyline class="cls-2" points="202.5 73.51 202.34 73.31 202.14 73.11"/>
        <polyline class="cls-2" points="202.14 73.11 201.88 72.93 201.54 72.79"/>
        <polyline class="cls-2" points="201.54 72.79 200.9 72.66 200.23 72.59 199.57 72.59"/>
        <polyline class="cls-2" points="199.57 72.59 199.39 73.11 199.28 73.66 199.23 74.19 199.26 74.75 199.37 75.28 199.52 75.81"/>
        <polyline class="cls-2" points="199.52 75.81 200.43 75.79 201.34 75.66"/>
        <polyline class="cls-2" points="156.42 128.08 154.67 128.08 154.67 128.34 155.38 128.34 155.38 130.56 155.69 130.56 155.69 128.34 156.42 128.34 156.42 128.08"/>
        <polyline class="cls-2" points="157.35 129.52 157.42 129.52 157.6 129.59 157.71 129.67 157.84 129.87 158.24 130.56 158.64 130.56 158.15 129.81 158.06 129.67 157.98 129.54 157.95 129.54 157.8 129.41"/>
        <polyline class="cls-2" points="157.35 129.52 157.42 129.52 157.6 129.59 157.71 129.67 157.84 129.87 158.24 130.56 158.64 130.56 158.15 129.81 158.06 129.67 157.98 129.54 157.95 129.54 157.8 129.41"/>
        <polyline class="cls-2" points="158 129.34 158.15 129.23 158.26 129.1 158.33 128.92 158.35 128.74 158.33 128.56 158.26 128.39 158.13 128.25"/>
        <polyline class="cls-2" points="157.51 128.34 157.73 128.39 157.89 128.45 157.98 128.56 158 128.76 157.98 128.94 157.86 129.1 157.71 129.21 157.51 129.23 157.13 129.23"/>
        <polyline class="cls-2" points="158 129.34 158.15 129.23 158.26 129.1 158.33 128.92 158.35 128.74 158.33 128.56 158.26 128.39 158.13 128.25"/>
        <polyline class="cls-2" points="157.51 128.34 157.73 128.39 157.89 128.45 157.98 128.56 158 128.76 157.98 128.94 157.86 129.1 157.71 129.21 157.51 129.23 157.13 129.23"/>
        <polyline class="cls-2" points="158.13 128.25 158.13 128.23 157.98 128.14 157.8 128.08 157.58 128.08"/>
        <polyline class="cls-2" points="157.13 129.23 157.13 128.34 157.51 128.34"/>
        <line class="cls-2" x1="157.8" y1="129.41" x2="158" y2="129.34"/>
        <polyline class="cls-2" points="157.58 128.08 156.8 128.08 156.8 130.56 157.13 130.56 157.13 129.52 157.35 129.52"/>
        <polyline class="cls-2" points="159.29 128.08 159.29 130.56 158.97 130.56 158.97 128.08 159.29 128.08 159.29 128.08"/>
        <polyline class="cls-2" points="161.31 129.36 161.42 129.21 161.48 129.03 161.51 128.83 161.51 128.79 161.46 128.59 161.39 128.41 161.28 128.25"/>
        <polyline class="cls-2" points="160.6 128.34 160.75 128.36 160.93 128.41 161.06 128.52 161.13 128.65 161.15 128.83 161.15 128.87 161.11 129.07 161.02 129.21 160.95 129.25 160.77 129.32 160.55 129.34 160.26 129.34"/>
        <polyline class="cls-2" points="161.31 129.36 161.42 129.21 161.48 129.03 161.51 128.83 161.51 128.79 161.46 128.59 161.39 128.41 161.28 128.25"/>
        <polyline class="cls-2" points="160.6 128.34 160.75 128.36 160.93 128.41 161.06 128.52 161.13 128.65 161.15 128.83 161.15 128.87 161.11 129.07 161.02 129.21 160.95 129.25 160.77 129.32 160.55 129.34 160.26 129.34"/>
        <polyline class="cls-2" points="161.28 128.25 161.22 128.21 161.06 128.14 160.86 128.08 160.64 128.08"/>
        <polyline class="cls-2" points="160.26 129.34 160.26 128.34 160.6 128.34"/>
        <polyline class="cls-2" points="160.64 128.08 159.93 128.08 159.93 130.56 160.26 130.56 160.26 129.63 160.57 129.63 160.71 129.63 160.91 129.61 161.08 129.52 161.24 129.41 161.31 129.36"/>
        <polyline class="cls-2" points="155.27 74.64 155.22 74.66 155.16 74.66 155.16 76.5 154.13 76.5 154.13 71.95 155.64 71.95 155.87 71.97 156.07 71.97 156.24 72.02 156.42 72.04 156.58 72.11 156.71 72.17 156.82 72.24 156.86 72.28 157 72.39 157.09 72.53 157.18 72.68 157.22 72.86 157.26 73.06 157.26 73.28 157.24 73.48 157.22 73.66 157.13 73.84 157.09 73.93 157 74.06 156.86 74.17 156.71 74.28 156.55 74.37 156.71 74.46 156.82 74.57 156.93 74.73 157.02 74.9 157.04 74.95 157.69 76.5 156.53 76.5 156.02 75.19 155.93 74.99 155.82 74.84 155.73 74.77 155.6 74.7 155.42 74.66 155.27 74.64"/>
        <polyline class="cls-2" points="155.64 72.77 155.16 72.77 155.16 73.82 155.64 73.82 155.84 73.79 156 73.75 156.07 73.68 156.15 73.55 156.2 73.35 156.2 73.28 156.18 73.08 156.11 72.93 156.07 72.91 155.93 72.82 155.75 72.77 155.64 72.77"/>
        <polyline class="cls-2" points="160.75 71.95 160.75 72.79 159.04 72.79 159.04 73.73 160.66 73.73 160.66 74.57 159.04 74.57 159.04 75.66 160.8 75.66 160.8 76.5 158.02 76.5 158.02 71.95 160.75 71.95"/>
        <polyline class="cls-2" points="169.34 75.64 169.23 75.79 169.1 75.93 168.97 76.06 168.83 76.17 168.68 76.26 168.52 76.33 168.35 76.39 168.23 76.41 168.12 76.46 167.97 76.48 167.79 76.48 167.59 76.5 167.39 76.5 165.77 76.5 165.77 71.95 167.3 71.95 167.52 71.95 167.72 71.97 167.9 71.99 168.06 72.02 168.21 72.04 168.32 72.06 168.48 72.13 168.66 72.19 168.81 72.28 168.94 72.39 168.99 72.44 169.12 72.55 169.26 72.71 169.37 72.84 169.48 72.99 169.57 73.17 169.59 73.22 169.66 73.39 169.7 73.57 169.74 73.75 169.77 73.95 169.79 74.15 169.79 74.24 169.77 74.44 169.74 74.64 169.72 74.82 169.68 74.99 169.61 75.17 169.54 75.33 169.46 75.48 169.34 75.64"/>
        <polyline class="cls-2" points="162.64 74.84 163.86 74.84 163.28 73.11 162.64 74.84"/>
        <polyline class="cls-2" points="170.77 71.95 171.65 73.44 172.59 71.95 173.79 71.95 172.16 74.44 172.16 76.5 171.14 76.5 171.14 74.44 169.54 71.95 170.77 71.95"/>
        <polyline class="cls-2" points="163.9 71.95 165.48 76.5 164.39 76.5 164.1 75.62 162.35 75.62 162.02 76.5 160.93 76.5 162.71 71.95 163.9 71.95"/>
        <polyline class="cls-2" points="167.55 72.88 166.79 72.88 166.79 75.59 167.55 75.59 167.75 75.57 167.9 75.53 168.06 75.48 168.21 75.37 168.35 75.26 168.41 75.19 168.5 75.06 168.59 74.9 168.66 74.73 168.7 74.55 168.72 74.35 168.72 74.24 168.72 74.02 168.68 73.82 168.63 73.64 168.57 73.48 168.46 73.33 168.41 73.26 168.28 73.13 168.15 73.04 167.99 72.95 167.81 72.91 167.63 72.88 167.55 72.88"/>
        <line class="cls-2" x1="189.33" y1="75.06" x2="188.8" y2="75.06"/>
        <polyline class="cls-2" points="188.77 75.04 188.77 75.06 188.8 75.06"/>
        <line class="cls-2" x1="188.77" y1="75.04" x2="188.77" y2="72.44"/>
        <polyline class="cls-2" points="188.8 72.42 188.77 72.42 188.77 72.44"/>
        <line class="cls-2" x1="188.8" y1="72.42" x2="189.49" y2="72.42"/>
        <polyline class="cls-2" points="189.49 72.42 189.51 72.42 189.51 72.39"/>
        <line class="cls-2" x1="189.51" y1="72.39" x2="189.51" y2="72.22"/>
        <polyline class="cls-2" points="189.51 72.22 189.51 72.19 189.49 72.19"/>
        <line class="cls-2" x1="189.49" y1="72.19" x2="188.42" y2="72.19"/>
        <polyline class="cls-2" points="188.4 72.17 188.4 72.17 188.42 72.19"/>
        <line class="cls-2" x1="188.4" y1="72.17" x2="188.4" y2="72.04"/>
        <polyline class="cls-2" points="188.42 72.02 188.4 72.02 188.4 72.04"/>
        <line class="cls-2" x1="188.42" y1="72.02" x2="189.49" y2="72.02"/>
        <polyline class="cls-2" points="189.49 72.02 189.51 71.99 189.51 71.99"/>
        <line class="cls-2" x1="189.51" y1="71.99" x2="189.51" y2="71.31"/>
        <polyline class="cls-2" points="189.62 71.22 189.55 71.24 189.51 71.31"/>
        <line class="cls-2" x1="189.62" y1="71.22" x2="190.33" y2="71.22"/>
        <polyline class="cls-2" points="190.44 71.31 190.4 71.24 190.33 71.22"/>
        <line class="cls-2" x1="190.44" y1="71.31" x2="190.44" y2="71.99"/>
        <polyline class="cls-2" points="190.44 71.99 190.44 71.99 190.46 72.02"/>
        <line class="cls-2" x1="190.46" y1="72.02" x2="191.51" y2="72.02"/>
        <polyline class="cls-2" points="191.53 72.04 191.53 72.02 191.51 72.02"/>
        <line class="cls-2" x1="191.53" y1="72.04" x2="191.53" y2="72.17"/>
        <polyline class="cls-2" points="191.51 72.19 191.53 72.17 191.53 72.17"/>
        <line class="cls-2" x1="191.51" y1="72.19" x2="190.46" y2="72.19"/>
        <polyline class="cls-2" points="190.46 72.19 190.44 72.19 190.44 72.22"/>
        <line class="cls-2" x1="190.44" y1="72.22" x2="190.44" y2="72.39"/>
        <polyline class="cls-2" points="190.44 72.39 190.44 72.42 190.46 72.42"/>
        <line class="cls-2" x1="190.46" y1="72.42" x2="191.15" y2="72.42"/>
        <polyline class="cls-2" points="191.17 72.44 191.17 72.42 191.15 72.42"/>
        <line class="cls-2" x1="191.17" y1="72.44" x2="191.17" y2="75.04"/>
        <polyline class="cls-2" points="191.15 75.06 191.17 75.06 191.17 75.04"/>
        <line class="cls-2" x1="191.15" y1="75.06" x2="190.62" y2="75.06"/>
        <line class="cls-2" x1="189.4" y1="72.93" x2="190.55" y2="72.93"/>
        <polyline class="cls-2" points="190.64 73.02 190.62 72.95 190.55 72.93"/>
        <line class="cls-2" x1="190.64" y1="73.02" x2="190.64" y2="73.59"/>
        <polyline class="cls-2" points="190.55 73.68 190.62 73.66 190.64 73.59"/>
        <line class="cls-2" x1="190.55" y1="73.68" x2="189.4" y2="73.68"/>
        <polyline class="cls-2" points="189.31 73.59 189.33 73.66 189.4 73.68"/>
        <line class="cls-2" x1="189.31" y1="73.59" x2="189.31" y2="73.02"/>
        <polyline class="cls-2" points="189.4 72.93 189.33 72.95 189.31 73.02"/>
        <polyline class="cls-2" points="190.62 75.06 190.44 74.42 189.97 74.15 189.51 74.42 189.33 75.06"/>
        <polyline class="cls-2" points="189.97 75.86 190.06 75.84 190.17 75.81 190.26 75.73 190.35 75.64 190.42 75.53 190.46 75.37 190.51 75.22 190.51 75.06 190.51 74.9 190.46 74.75 190.42 74.59 190.35 74.48 190.26 74.37 190.17 74.3 190.06 74.26 189.97 74.26 189.86 74.26 189.77 74.3 189.69 74.37 189.6 74.48 189.53 74.59 189.46 74.75 189.44 74.9 189.42 75.06 189.44 75.22 189.46 75.37 189.53 75.53 189.6 75.64 189.69 75.73 189.77 75.81 189.86 75.84 189.97 75.86"/>
        <polyline class="cls-2" points="189.97 75.97 189.66 75.99 189.4 76.04 189.17 76.08 188.97 76.13 188.82 76.17 188.69 76.21 188.6 76.26 188.51 76.3 188.42 76.39 188.37 76.46 188.37 76.55 188.4 76.59 188.44 76.66 188.51 76.7 188.62 76.75 188.75 76.79 188.95 76.84 189.15 76.86 189.66 76.93 190.13 76.97 190.33 76.99 190.48 76.99 190.62 77.01 190.68 77.04 190.73 77.06 190.75 77.08 190.73 77.1 190.71 77.13 190.66 77.15 190.6 77.19 190.46 77.21 190.31 77.26 190.08 77.28 189.82 77.33"/>
        <polyline class="cls-2" points="189.97 75.97 189.8 76.04 189.66 76.1 189.53 76.17 189.44 76.24 189.37 76.28 189.33 76.33 189.26 76.41 189.26 76.48 189.31 76.53 189.37 76.57 189.46 76.59 189.57 76.61 189.73 76.64 189.91 76.64 190.11 76.66 190.53 76.7 190.75 76.73 190.93 76.75 191.08 76.77 191.22 76.81 191.33 76.84 191.39 76.88 191.46 76.9 191.51 76.95 191.53 76.97 191.51 77.01 191.48 77.06 191.44 77.1 191.37 77.15 191.26 77.19 191.17 77.21 191.08 77.24 190.95 77.26 190.8 77.28 190.62 77.3 190.4 77.3 190.13 77.33 189.82 77.33"/>
        <polyline class="cls-2" points="126.02 72.77 126.04 72.53 126.11 72.28 126.24 72.08 126.4 71.91 126.6 71.77 126.82 71.66 127.06 71.64 127.09 71.64 127.09 71.64 127.11 71.64 127.2 71.64 127.33 71.64 127.51 71.64 127.71 71.64 127.93 71.64 128.42 71.64 128.89 71.64 129.09 71.64 129.24 71.64 129.37 71.64 129.42 71.64 129.44 71.64 129.51 71.64 129.62 71.66 129.86 71.73 130.06 71.84 130.24 72.02 130.37 72.22 130.46 72.44 130.51 72.68 130.51 72.75 130.51 72.77 130.51 72.77 130.51 72.79 130.51 72.84 130.51 72.93 130.51 73.13 130.51 73.22 130.51 73.26 130.53 73.26 130.55 73.22 130.66 73.11 130.75 72.99 130.8 72.97 130.8 72.97 130.82 72.99 130.86 73.04 130.97 73.15 131.02 73.22 131.06 73.24 131.06 73.26 131.04 73.28 131 73.33 130.88 73.44 130.73 73.59 130.57 73.77 130.44 73.9 130.4 73.97 130.35 73.99 130.33 74.02 130.33 74.02 130.31 74.02 130.26 73.97 130.15 73.84 129.86 73.53 129.71 73.39 129.66 73.33 129.62 73.28 129.6 73.26 129.6 73.26 129.6 73.24 129.64 73.19 129.71 73.13 129.8 73.02 129.84 72.97 129.86 72.97 129.86 72.99 129.91 73.02 130.02 73.15 130.08 73.19 130.11 73.24 130.13 73.26 130.13 73.24 130.13 73.17 130.13 73.08 130.13 72.88 130.13 72.82 130.13 72.77 130.13 72.77 130.13 72.73 130.13 72.64 130.08 72.48 130 72.35 129.91 72.24 129.77 72.13 129.64 72.06 129.49 72.04 129.44 72.04 129.42 72.04 129.37 72.04 129.26 72.04 129.11 72.04 128.91 72.04 128.69 72.04 127.73 72.04 127.53 72.04 127.35 72.04 127.2 72.04 127.13 72.04 127.09 72.04 127 72.04 126.84 72.08 126.71 72.15 126.6 72.26 126.51 72.37 126.44 72.53 126.4 72.68 126.4 72.77 126.4 72.79 126.4 72.86 126.4 72.95 126.4 73.08 126.4 73.22 126.4 73.88 126.4 74.02 126.4 74.15 126.4 74.26 126.4 74.35 126.4 74.37 126.4 74.37 126.35 74.37 126.22 74.37 126.07 74.37 126.02 74.37 126.02 74.37 126.02 74.35 126.02 74.28 126.02 74.17 126.02 74.04 126.02 73.73 126.02 73.39 126.02 73.08 126.02 72.97 126.02 72.86 126.02 72.79 126.02 72.77"/>
        <polyline class="cls-2" points="129.4 74.3 129.4 74.33 129.37 74.35 129.33 74.39 129.29 74.46 129.13 74.62 128.95 74.82 128.57 75.24 128.4 75.46 128.22 75.64 128.09 75.77 128.04 75.81 128.02 75.86 128 75.88 128 75.88 128 75.88 127.98 75.9 127.93 75.9 127.89 75.9 127.84 75.86 127.84 75.81 127.84 75.79 127.84 75.77 127.84 75.73 127.86 75.64 127.91 75.39 127.95 75.13 127.98 75.02 128 74.93 128.02 74.86 128.02 74.84 128 74.82 127.95 74.79 127.89 74.77 127.8 74.75 127.6 74.66 127.42 74.59 127.35 74.57 127.31 74.55 127.29 74.55 127.26 74.53 127.24 74.48 127.24 74.39 127.26 74.39 127.26 74.37 127.26 74.37 127.26 74.37 127.31 74.33 127.35 74.28 127.49 74.13 127.64 73.95 127.82 73.75 128.22 73.31 128.4 73.11 128.53 72.95 128.57 72.91 128.62 72.86 128.64 72.82 128.66 72.82 128.71 72.79 128.75 72.77 128.8 72.79 128.82 72.84 128.84 72.88 128.84 72.91 128.82 72.91 128.82 72.95 128.8 73.02 128.8 73.13 128.73 73.39 128.69 73.64 128.66 73.75 128.66 73.82 128.64 73.86 128.66 73.86 128.69 73.88 128.75 73.9 128.93 73.97 129.13 74.06 129.22 74.08 129.31 74.13 129.35 74.13 129.37 74.15 129.42 74.19 129.42 74.26 129.42 74.3 129.4 74.3 129.4 74.3"/>
        <polyline class="cls-2" points="129.44 77.19 129.69 77.17 129.91 77.08 130.11 76.95 130.26 76.79 130.4 76.57 130.48 76.35 130.51 76.08 130.51 75.99 130.51 75.9 130.51 75.77 130.51 75.48 130.51 75.15 130.51 74.82 130.51 74.68 130.51 74.57 130.51 74.5 130.51 74.46 130.51 74.46 130.46 74.46 130.31 74.46 130.17 74.46 130.13 74.46 130.13 74.46 130.13 74.5 130.13 74.57 130.13 74.68 130.13 74.82 130.13 74.97 130.13 75.62 130.13 75.77 130.13 75.88 130.13 75.97 130.13 76.04 130.13 76.06 130.13 76.15 130.08 76.3 130.02 76.46 129.93 76.59 129.82 76.68 129.66 76.75 129.53 76.79 129.44 76.79 129.4 76.79 129.33 76.79 129.17 76.79 129 76.79 128.8 76.79 127.84 76.79 127.62 76.79 127.42 76.79 127.26 76.79 127.15 76.79 127.11 76.79 127.09 76.79 127.04 76.79 126.89 76.77 126.75 76.7 126.62 76.61 126.51 76.48 126.44 76.35 126.4 76.19 126.4 76.1 126.4 76.06 126.4 76.06 126.4 76.01 126.4 75.95 126.4 75.75 126.4 75.66 126.4 75.59 126.4 75.57 126.4 75.59 126.44 75.64 126.51 75.7 126.62 75.81 126.67 75.86 126.67 75.86 126.69 75.86 126.73 75.81 126.82 75.7 126.89 75.64 126.91 75.59 126.93 75.59 126.93 75.57 126.91 75.55 126.87 75.5 126.8 75.46 126.67 75.3 126.38 74.99 126.27 74.86 126.22 74.84 126.2 74.82 126.2 74.82 126.18 74.84 126.13 74.88 126.09 74.93 125.95 75.08 125.8 75.24 125.64 75.39 125.53 75.5 125.49 75.55 125.47 75.57 125.47 75.59 125.51 75.62 125.55 75.68 125.67 75.79 125.71 75.84 125.73 75.86 125.73 75.86 125.78 75.84 125.87 75.73 125.98 75.62 126 75.57 126.02 75.57 126.02 75.62 126.02 75.7 126.02 75.9 126.02 75.99 126.02 76.04 126.02 76.06 126.02 76.06 126.02 76.08 126.02 76.15 126.07 76.39 126.15 76.61 126.29 76.81 126.47 76.99 126.67 77.1 126.91 77.19 127.02 77.19 127.09 77.19 127.09 77.19 127.15 77.19 127.24 77.19 127.4 77.19 127.6 77.19 127.8 77.19 128.04 77.19 128.53 77.19 128.77 77.19 128.97 77.19 129.17 77.19 129.31 77.19 129.4 77.19 129.44 77.19"/>
        <polyline class="cls-2" points="110.52 78.37 105.75 74.35 110.52 70.35 110.52 72.57 114.12 72.57 114.12 76.15 110.52 76.15 110.52 78.37"/>
        <polyline class="cls-2" points="216.86 78.21 221.66 74.22 216.86 70.2 216.86 72.42 213.29 72.42 213.29 75.99 216.86 75.99 216.86 78.21"/>
        <polyline class="cls-2" points="160.04 136.74 160.02 136.74 159.97 136.71 159.91 136.67 159.82 136.63 159.62 136.49 159.37 136.36 159.15 136.23 159.06 136.18 158.97 136.14 158.93 136.12 158.91 136.09 158.89 136.09 158.84 136.09 158.8 136.12 158.77 136.16 158.8 136.18 158.8 136.27 158.82 136.47 158.84 136.69 158.89 136.94 158.93 137.18 158.97 137.47 159.06 137.76 159.15 138.07 159.24 138.38 159.35 138.71 159.49 139.07 159.64 139.42 159.82 139.78 160.02 140.16 160.24 140.54 160.46 140.89 160.68 141.22 160.93 141.56 161.15 141.85 161.37 142.11 161.62 142.38 161.84 142.6 162.06 142.82 162.26 143.02 162.46 143.2 162.66 143.36 162.84 143.49 163.02 143.62 163.08 143.67 163.13 143.69 163.15 143.71 163.15 143.71 163.17 143.71 163.19 143.73 163.24 143.71 163.26 143.69 163.28 143.62 163.28 143.58 163.28 143.51 163.28 143.29 163.28 142.76 163.28 142.51 163.28 142.42 163.28 142.38 163.28 142.31 163.28 142.25 163.28 142.13 163.28 141.98 163.26 141.78 163.26 141.53 163.24 141.27 163.19 140.98 163.15 140.69 163.02 140.07 162.93 139.76 162.82 139.45 162.68 139.16 162.59 139.02 162.55 138.94 162.37 138.67 162.17 138.43 161.95 138.18 161.73 137.96 161.24 137.56 161.02 137.38 160.8 137.2 160.6 137.07 160.42 136.96 160.26 136.87 160.15 136.8 160.06 136.76 160.04 136.74"/>
        <polyline class="cls-2" points="168.06 135.36 168.1 135.32 168.1 135.27 168.08 135.23 168.06 135.23 168.06 135.23 168.01 135.2 167.83 135.12 167.61 135.03 167.35 134.92 167.08 134.83 166.77 134.74 166.44 134.63 166.1 134.56 165.73 134.47 165.33 134.41 164.9 134.36 164.46 134.32 163.99 134.29 163.5 134.29 163.04 134.32 162.57 134.34 162.15 134.41 161.75 134.47 161.37 134.54 161.02 134.63 160.68 134.72 160.37 134.8 160.08 134.89 159.84 135 159.62 135.09 159.4 135.18 159.35 135.2 159.33 135.23 159.33 135.23 159.33 135.23 159.31 135.23 159.29 135.29 159.29 135.34 159.33 135.38 159.4 135.4 159.46 135.45 159.57 135.52 159.69 135.58 160.2 135.87 160.31 135.94 160.4 135.98 160.44 136 160.46 136.03 160.46 136.03 160.48 136.05 160.57 136.09 160.73 136.18 160.91 136.27 161.15 136.38 161.42 136.52 161.71 136.63 162.02 136.76 162.35 136.87 162.71 136.96 163.06 137.05 163.42 137.09 163.77 137.09 164.13 137.07 164.48 137 164.84 136.94 165.17 136.83 165.5 136.71 165.81 136.58 166.1 136.47 166.35 136.34 166.57 136.23 166.72 136.14 166.86 136.07 166.92 136.03 166.92 136.03 166.97 136 167.04 135.96 167.12 135.92 167.24 135.85 167.5 135.69 167.75 135.56 167.86 135.49 167.97 135.43 168.03 135.38 168.06 135.38 168.06 135.38 168.06 135.36 168.06 135.36"/>
        <polyline class="cls-2" points="168.48 136.09 168.46 136.09 168.41 136.12 168.35 136.16 168.26 136.23 168.03 136.34 167.81 136.47 167.59 136.6 167.5 136.65 167.41 136.69 167.37 136.74 167.35 136.74 167.32 136.76 167.26 136.78 167.17 136.85 167.01 136.94 166.84 137.05 166.64 137.18 166.44 137.34 166.19 137.51 165.73 137.91 165.26 138.38 165.06 138.62 164.86 138.89 164.7 139.16 164.57 139.45 164.46 139.76 164.37 140.07 164.24 140.69 164.19 140.98 164.17 141.27 164.15 141.53 164.13 141.78 164.1 141.98 164.1 142.13 164.1 142.25 164.1 142.31 164.1 142.38 164.1 142.42 164.1 142.51 164.1 142.76 164.1 143.29 164.1 143.51 164.1 143.58 164.1 143.62 164.13 143.69 164.15 143.71 164.19 143.73 164.24 143.71 164.24 143.71 164.24 143.71 164.26 143.69 164.3 143.67 164.37 143.62 164.55 143.49 164.73 143.36 164.93 143.2 165.13 143.02 165.33 142.82 165.55 142.6 165.77 142.38 166.01 142.11 166.24 141.85 166.48 141.56 166.7 141.22 166.92 140.89 167.17 140.54 167.37 140.16 167.57 139.78 167.75 139.4 167.9 139.05 168.03 138.71 168.15 138.38 168.26 138.05 168.35 137.76 168.41 137.47 168.46 137.18 168.52 136.94 168.55 136.69 168.57 136.47 168.59 136.27 168.61 136.18 168.61 136.16 168.61 136.14 168.57 136.09 168.52 136.07 168.48 136.09"/>
        <path class="cls-3" d="M132.73,129.76l.02.18.04.22.13.2.09.07.2.11.24.04.16-.02.22-.09.18-.13.11-.16.07-.2.04-.27-.02-.2-.07-.22-.11-.18-.09-.09-.2-.09-.24-.04-.18.02-.22.07-.18.13-.11.18-.07.22-.02.24ZM133.02,129.74l.04.27.09.16.18.13.16.02.22-.04.11-.11.09-.2.02-.24-.02-.24-.09-.18-.18-.11-.16-.02-.22.04-.11.11-.09.18-.04.24ZM131.31,130.54l2.07-3.24h.33l-2.09,3.24h-.31ZM130.8,128.1l.02.2.07.2.11.2.09.09.2.09.24.04.18-.02.2-.07.18-.16.11-.16.09-.2.02-.27-.02-.2-.07-.22-.11-.18-.09-.09-.2-.09-.24-.04-.18.02-.2.09-.18.13-.11.16-.09.22-.02.24ZM131.11,128.08l.02.27.09.16.18.13.16.02.22-.04.11-.11.09-.18.02-.24-.02-.27-.09-.18-.18-.11-.13-.02-.24.04-.11.11-.09.18-.02.24Z"/>
        <polyline class="cls-2" points="133.48 130.32 133.33 130.3 133.15 130.16 133.06 130.01 133.02 129.74 133.06 129.5 133.15 129.32 133.26 129.21 133.48 129.16"/>
        <polyline class="cls-2" points="132.93 129.12 132.82 129.3 132.75 129.52 132.73 129.76 132.75 129.94 132.79 130.16 132.93 130.36 133.02 130.43 133.22 130.54 133.46 130.58 133.62 130.56 133.84 130.47 134.02 130.34"/>
        <polyline class="cls-2" points="134.02 130.34 134.13 130.19 134.19 129.99 134.24 129.72 134.22 129.52 134.15 129.3 134.04 129.12 133.95 129.03 133.75 128.94 133.5 128.9"/>
        <polyline class="cls-2" points="133.48 129.16 133.64 129.19 133.82 129.3 133.9 129.47 133.93 129.72 133.9 129.96 133.82 130.16 133.7 130.27 133.48 130.32"/>
        <polyline class="cls-2" points="133.5 128.9 133.33 128.92 133.1 128.99 132.93 129.12"/>
        <polyline class="cls-2" points="131.55 128.65 131.39 128.63 131.22 128.5 131.13 128.34 131.11 128.08 131.13 127.83 131.22 127.65 131.33 127.54 131.57 127.5"/>
        <polyline class="cls-2" points="131.02 127.48 130.91 127.63 130.82 127.85 130.8 128.1 130.82 128.3 130.88 128.5 131 128.7 131.08 128.79 131.28 128.87 131.53 128.92 131.71 128.9 131.91 128.83 132.08 128.67"/>
        <polyline class="cls-2" points="133.7 127.3 133.37 127.3 131.31 130.54 131.62 130.54 133.7 127.3"/>
        <polyline class="cls-2" points="132.08 128.67 132.19 128.52 132.28 128.32 132.31 128.05 132.28 127.85 132.22 127.63 132.11 127.45 132.02 127.36 131.82 127.28 131.57 127.23"/>
        <polyline class="cls-2" points="131.57 127.5 131.71 127.52 131.88 127.63 131.97 127.81 131.99 128.08 131.97 128.32 131.88 128.5 131.77 128.61 131.55 128.65"/>
        <polyline class="cls-2" points="131.57 127.23 131.39 127.25 131.2 127.34 131.02 127.48"/>
        <line class="cls-2" x1="115.5" y1="129.83" x2="114.07" y2="130.72"/>
        <line class="cls-2" x1="114.07" y1="126.41" x2="114.07" y2="130.72"/>
        <line class="cls-2" x1="115.5" y1="126.92" x2="115.5" y2="129.83"/>
        <line class="cls-2" x1="115.5" y1="126.92" x2="114.07" y2="126.41"/>
        <line class="cls-2" x1="115.5" y1="124.77" x2="114.07" y2="125.28"/>
        <line class="cls-2" x1="114.07" y1="122.03" x2="114.07" y2="125.28"/>
        <line class="cls-2" x1="115.5" y1="122.94" x2="115.5" y2="124.77"/>
        <line class="cls-2" x1="115.5" y1="122.94" x2="114.07" y2="122.03"/>
        <line class="cls-2" x1="119.87" y1="131.27" x2="118.96" y2="130.7"/>
        <line class="cls-2" x1="115.9" y1="130.7" x2="114.94" y2="131.3"/>
        <line class="cls-2" x1="118.92" y1="122.08" x2="119.87" y2="121.48"/>
        <line class="cls-2" x1="115.92" y1="122.08" x2="114.98" y2="121.48"/>
        <line class="cls-2" x1="115.32" y1="125.83" x2="116.34" y2="126.21"/>
        <line class="cls-2" x1="116.34" y1="125.48" x2="115.32" y2="125.83"/>
        <line class="cls-2" x1="119.54" y1="125.83" x2="118.52" y2="125.48"/>
        <line class="cls-2" x1="118.52" y1="126.21" x2="119.54" y2="125.83"/>
        <line class="cls-2" x1="114.98" y1="121.48" x2="119.87" y2="121.48"/>
        <line class="cls-2" x1="115.92" y1="122.08" x2="118.92" y2="122.08"/>
        <line class="cls-2" x1="114.94" y1="131.3" x2="119.87" y2="131.3"/>
        <line class="cls-2" x1="115.9" y1="130.7" x2="118.96" y2="130.7"/>
        <line class="cls-2" x1="116.34" y1="126.21" x2="118.52" y2="126.21"/>
        <line class="cls-2" x1="116.34" y1="125.48" x2="118.52" y2="125.48"/>
        <line class="cls-2" x1="123.53" y1="129.83" x2="122.09" y2="130.72"/>
        <line class="cls-2" x1="122.09" y1="126.41" x2="122.09" y2="130.72"/>
        <line class="cls-2" x1="123.53" y1="126.92" x2="123.53" y2="129.83"/>
        <line class="cls-2" x1="123.53" y1="126.92" x2="122.09" y2="126.41"/>
        <line class="cls-2" x1="123.53" y1="124.77" x2="122.09" y2="125.28"/>
        <line class="cls-2" x1="122.09" y1="122.06" x2="122.09" y2="125.28"/>
        <line class="cls-2" x1="123.53" y1="122.94" x2="123.53" y2="124.77"/>
        <line class="cls-2" x1="123.53" y1="122.94" x2="122.09" y2="122.06"/>
        <line class="cls-2" x1="128.82" y1="122.03" x2="127.38" y2="122.94"/>
        <line class="cls-2" x1="128.82" y1="125.28" x2="128.82" y2="122.03"/>
        <line class="cls-2" x1="127.38" y1="124.77" x2="127.38" y2="122.94"/>
        <line class="cls-2" x1="128.82" y1="125.28" x2="127.38" y2="124.77"/>
        <line class="cls-2" x1="128.82" y1="126.41" x2="127.38" y2="126.92"/>
        <line class="cls-2" x1="128.82" y1="130.72" x2="128.82" y2="126.41"/>
        <line class="cls-2" x1="127.38" y1="129.83" x2="127.38" y2="126.92"/>
        <line class="cls-2" x1="128.82" y1="130.72" x2="127.38" y2="129.83"/>
        <line class="cls-2" x1="127.91" y1="131.27" x2="127" y2="130.7"/>
        <line class="cls-2" x1="123.93" y1="130.7" x2="122.98" y2="131.3"/>
        <line class="cls-2" x1="126.95" y1="122.08" x2="127.91" y2="121.48"/>
        <line class="cls-2" x1="123.96" y1="122.08" x2="123" y2="121.48"/>
        <line class="cls-2" x1="123.36" y1="125.85" x2="124.36" y2="126.21"/>
        <line class="cls-2" x1="124.36" y1="125.48" x2="123.36" y2="125.85"/>
        <line class="cls-2" x1="127.55" y1="125.83" x2="126.55" y2="125.48"/>
        <line class="cls-2" x1="126.55" y1="126.21" x2="127.55" y2="125.83"/>
        <line class="cls-2" x1="123" y1="121.48" x2="127.91" y2="121.48"/>
        <line class="cls-2" x1="123.96" y1="122.08" x2="126.95" y2="122.08"/>
        <line class="cls-2" x1="122.98" y1="131.3" x2="127.91" y2="131.3"/>
        <line class="cls-2" x1="123.93" y1="130.7" x2="127" y2="130.7"/>
        <line class="cls-2" x1="124.36" y1="126.21" x2="126.55" y2="126.21"/>
        <line class="cls-2" x1="124.36" y1="125.48" x2="126.55" y2="125.48"/>
        <line class="cls-2" x1="120.78" y1="122.03" x2="119.36" y2="122.94"/>
        <line class="cls-2" x1="120.78" y1="125.28" x2="120.78" y2="122.03"/>
        <line class="cls-2" x1="119.36" y1="124.77" x2="119.36" y2="122.94"/>
        <line class="cls-2" x1="120.78" y1="125.28" x2="119.36" y2="124.77"/>
        <line class="cls-2" x1="120.78" y1="126.41" x2="119.36" y2="126.92"/>
        <line class="cls-2" x1="120.78" y1="130.72" x2="120.78" y2="126.41"/>
        <line class="cls-2" x1="119.36" y1="129.83" x2="119.36" y2="126.92"/>
        <line class="cls-2" x1="120.78" y1="130.72" x2="119.36" y2="129.83"/>
        <line class="cls-2" x1="112.74" y1="122.03" x2="111.32" y2="122.94"/>
        <line class="cls-2" x1="112.74" y1="125.28" x2="112.74" y2="122.03"/>
        <line class="cls-2" x1="111.32" y1="124.77" x2="111.32" y2="122.94"/>
        <line class="cls-2" x1="112.74" y1="125.28" x2="111.32" y2="124.77"/>
        <line class="cls-2" x1="112.74" y1="126.41" x2="111.32" y2="126.92"/>
        <line class="cls-2" x1="112.76" y1="130.72" x2="112.74" y2="126.41"/>
        <line class="cls-2" x1="111.32" y1="129.83" x2="111.32" y2="126.92"/>
        <line class="cls-2" x1="112.76" y1="130.72" x2="111.32" y2="129.83"/>
        <line class="cls-2" x1="116.85" y1="75.06" x2="117.21" y2="75.06"/>
        <line class="cls-2" x1="117.21" y1="75.06" x2="117.21" y2="75.79"/>
        <line class="cls-2" x1="117.21" y1="75.79" x2="123.87" y2="75.79"/>
        <line class="cls-2" x1="123.87" y1="75.79" x2="123.87" y2="73.13"/>
        <line class="cls-2" x1="123.87" y1="73.13" x2="117.21" y2="73.13"/>
        <line class="cls-2" x1="117.21" y1="73.13" x2="117.21" y2="73.86"/>
        <line class="cls-2" x1="117.21" y1="73.86" x2="116.85" y2="73.86"/>
        <line class="cls-2" x1="116.78" y1="73.88" x2="116.85" y2="73.86"/>
        <line class="cls-2" x1="116.72" y1="73.97" x2="116.78" y2="73.88"/>
        <line class="cls-2" x1="116.69" y1="74.04" x2="116.72" y2="73.97"/>
        <line class="cls-2" x1="116.69" y1="74.13" x2="116.69" y2="74.04"/>
        <line class="cls-2" x1="116.69" y1="74.13" x2="116.69" y2="74.79"/>
        <line class="cls-2" x1="116.69" y1="74.9" x2="116.69" y2="74.79"/>
        <line class="cls-2" x1="116.69" y1="74.97" x2="116.74" y2="74.9"/>
        <line class="cls-2" x1="116.74" y1="75.04" x2="116.81" y2="74.97"/>
        <line class="cls-2" x1="116.81" y1="75.06" x2="116.85" y2="75.04"/>
        <line class="cls-2" x1="117.36" y1="73.24" x2="117.36" y2="75.68"/>
        <line class="cls-2" x1="117.36" y1="75.68" x2="123.76" y2="75.68"/>
        <line class="cls-2" x1="123.76" y1="75.68" x2="123.76" y2="73.24"/>
        <line class="cls-2" x1="123.76" y1="73.24" x2="117.36" y2="73.24"/>
        <line class="cls-2" x1="116.78" y1="73.93" x2="116.78" y2="73.93"/>
        <line class="cls-2" x1="116.89" y1="74.9" x2="117.21" y2="74.9"/>
        <line class="cls-2" x1="117.21" y1="74.9" x2="117.21" y2="74.02"/>
        <line class="cls-2" x1="116.89" y1="74.02" x2="117.21" y2="74.02"/>
        <line class="cls-2" x1="116.83" y1="74.04" x2="116.89" y2="74.02"/>
        <line class="cls-2" x1="116.81" y1="74.1" x2="116.83" y2="74.04"/>
        <line class="cls-2" x1="116.81" y1="74.1" x2="116.81" y2="74.84"/>
        <line class="cls-2" x1="116.81" y1="74.88" x2="116.83" y2="74.84"/>
        <line class="cls-2" x1="116.83" y1="74.9" x2="116.89" y2="74.88"/>
        <line class="cls-2" x1="143.39" y1="72.37" x2="144.19" y2="72.37"/>
        <line class="cls-2" x1="144.19" y1="72.37" x2="144.19" y2="71.93"/>
        <line class="cls-2" x1="144.19" y1="71.93" x2="145.05" y2="71.93"/>
        <line class="cls-2" x1="145.05" y1="71.93" x2="145.05" y2="72.37"/>
        <line class="cls-2" x1="145.05" y1="72.37" x2="147.03" y2="72.37"/>
        <line class="cls-2" x1="147.03" y1="72.37" x2="147.03" y2="71.93"/>
        <line class="cls-2" x1="147.03" y1="71.93" x2="147.89" y2="71.93"/>
        <line class="cls-2" x1="147.89" y1="71.93" x2="147.89" y2="72.37"/>
        <line class="cls-2" x1="147.89" y1="72.37" x2="148.72" y2="72.37"/>
        <line class="cls-2" x1="148.72" y1="72.37" x2="148.72" y2="75.42"/>
        <line class="cls-2" x1="148.72" y1="75.42" x2="143.39" y2="75.42"/>
        <line class="cls-2" x1="143.39" y1="75.42" x2="143.39" y2="72.37"/>
        <line class="cls-2" x1="143.56" y1="72.59" x2="143.56" y2="75.22"/>
        <line class="cls-2" x1="143.56" y1="75.22" x2="148.49" y2="75.22"/>
        <line class="cls-2" x1="148.49" y1="75.22" x2="148.49" y2="72.55"/>
        <line class="cls-2" x1="148.49" y1="72.55" x2="143.56" y2="72.55"/>
        <line class="cls-2" x1="143.56" y1="72.59" x2="143.56" y2="72.55"/>
        <line class="cls-2" x1="144.1" y1="73.46" x2="145.14" y2="73.46"/>
        <line class="cls-2" x1="145.14" y1="73.71" x2="145.14" y2="73.46"/>
        <line class="cls-2" x1="145.14" y1="73.71" x2="144.1" y2="73.71"/>
        <line class="cls-2" x1="144.1" y1="73.71" x2="144.1" y2="73.46"/>
        <line class="cls-2" x1="147.36" y1="73.04" x2="147.58" y2="73.04"/>
        <line class="cls-2" x1="147.58" y1="73.04" x2="147.58" y2="73.46"/>
        <line class="cls-2" x1="147.58" y1="73.46" x2="147.98" y2="73.46"/>
        <line class="cls-2" x1="147.98" y1="73.71" x2="147.98" y2="73.46"/>
        <line class="cls-2" x1="147.98" y1="73.71" x2="147.58" y2="73.71"/>
        <line class="cls-2" x1="147.58" y1="73.71" x2="147.58" y2="74.1"/>
        <line class="cls-2" x1="147.36" y1="74.1" x2="147.58" y2="74.1"/>
        <line class="cls-2" x1="147.36" y1="74.1" x2="147.36" y2="73.71"/>
        <line class="cls-2" x1="147.36" y1="73.71" x2="146.94" y2="73.71"/>
        <line class="cls-2" x1="146.94" y1="73.71" x2="146.94" y2="73.46"/>
        <line class="cls-2" x1="146.94" y1="73.46" x2="147.36" y2="73.46"/>
        <line class="cls-2" x1="147.36" y1="73.46" x2="147.36" y2="73.04"/>
        <line class="cls-2" x1="144.1" y1="75.88" x2="144.1" y2="75.62"/>
        <line class="cls-2" x1="144.1" y1="75.88" x2="149.32" y2="75.88"/>
        <line class="cls-2" x1="149.32" y1="75.88" x2="149.32" y2="72.88"/>
        <line class="cls-2" x1="149.07" y1="72.88" x2="149.32" y2="72.88"/>
        <line class="cls-2" x1="149.07" y1="72.88" x2="149.07" y2="75.62"/>
        <line class="cls-2" x1="149.07" y1="75.62" x2="144.1" y2="75.62"/>
        <line class="cls-2" x1="144.85" y1="76.41" x2="144.85" y2="76.17"/>
        <line class="cls-2" x1="144.85" y1="76.41" x2="150.07" y2="76.41"/>
        <line class="cls-2" x1="150.07" y1="76.41" x2="150.07" y2="73.39"/>
        <line class="cls-2" x1="149.83" y1="73.39" x2="150.07" y2="73.39"/>
        <line class="cls-2" x1="149.83" y1="73.39" x2="149.83" y2="76.17"/>
        <line class="cls-2" x1="149.83" y1="76.17" x2="144.85" y2="76.17"/>
        <line class="cls-2" x1="137.37" y1="74.33" x2="136.21" y2="74.55"/>
        <line class="cls-2" x1="136.97" y1="75.06" x2="137.37" y2="74.33"/>
        <line class="cls-2" x1="136.39" y1="76.64" x2="139.23" y2="76.64"/>
        <line class="cls-2" x1="139.23" y1="76.64" x2="139.32" y2="76.61"/>
        <line class="cls-2" x1="139.32" y1="76.61" x2="139.39" y2="76.55"/>
        <line class="cls-2" x1="139.39" y1="76.55" x2="139.41" y2="76.46"/>
        <line class="cls-2" x1="139.39" y1="76.46" x2="139.41" y2="76.37"/>
        <line class="cls-2" x1="139.32" y1="76.37" x2="139.39" y2="76.3"/>
        <line class="cls-2" x1="139.23" y1="76.3" x2="139.32" y2="76.28"/>
        <line class="cls-2" x1="139.23" y1="76.28" x2="137.15" y2="76.28"/>
        <line class="cls-2" x1="137.08" y1="76.28" x2="137.15" y2="76.06"/>
        <line class="cls-2" x1="136.92" y1="76.06" x2="137.08" y2="75.88"/>
        <line class="cls-2" x1="136.92" y1="75.88" x2="138.52" y2="72.93"/>
        <line class="cls-2" x1="138.52" y1="72.93" x2="138.94" y2="72.93"/>
        <line class="cls-2" x1="138.94" y1="72.93" x2="139.01" y2="72.91"/>
        <line class="cls-2" x1="139.01" y1="72.91" x2="139.06" y2="72.84"/>
        <line class="cls-2" x1="139.06" y1="72.84" x2="139.3" y2="72.13"/>
        <line class="cls-2" x1="139.3" y1="72.13" x2="139.3" y2="72.06"/>
        <line class="cls-2" x1="139.26" y1="72.06" x2="139.3" y2="71.99"/>
        <line class="cls-2" x1="139.17" y1="71.99" x2="139.26" y2="71.97"/>
        <line class="cls-2" x1="139.17" y1="71.97" x2="137.55" y2="71.97"/>
        <line class="cls-2" x1="137.46" y1="71.99" x2="137.55" y2="71.97"/>
        <line class="cls-2" x1="137.41" y1="72.06" x2="137.46" y2="71.99"/>
        <line class="cls-2" x1="137.41" y1="72.13" x2="137.41" y2="72.06"/>
        <line class="cls-2" x1="137.41" y1="72.13" x2="137.66" y2="72.84"/>
        <line class="cls-2" x1="137.66" y1="72.91" x2="137.7" y2="72.84"/>
        <line class="cls-2" x1="137.7" y1="72.93" x2="137.77" y2="72.91"/>
        <line class="cls-2" x1="137.77" y1="72.93" x2="138.12" y2="72.93"/>
        <line class="cls-2" x1="138.12" y1="72.93" x2="137.57" y2="73.93"/>
        <line class="cls-2" x1="137.57" y1="73.93" x2="136.12" y2="74.22"/>
        <line class="cls-2" x1="135.95" y1="74.33" x2="136.12" y2="74.22"/>
        <line class="cls-2" x1="135.88" y1="74.5" x2="135.95" y2="74.33"/>
        <line class="cls-2" x1="135.88" y1="74.5" x2="135.88" y2="74.88"/>
        <line class="cls-2" x1="135.88" y1="75.06" x2="135.92" y2="74.88"/>
        <line class="cls-2" x1="135.92" y1="75.17" x2="136.08" y2="75.06"/>
        <line class="cls-2" x1="136.08" y1="75.17" x2="136.79" y2="75.37"/>
        <line class="cls-2" x1="136.61" y1="75.7" x2="136.79" y2="75.37"/>
        <line class="cls-2" x1="136.44" y1="75.7" x2="136.61" y2="75.68"/>
        <line class="cls-2" x1="136.1" y1="75.77" x2="136.44" y2="75.68"/>
        <line class="cls-2" x1="135.84" y1="75.97" x2="136.1" y2="75.77"/>
        <line class="cls-2" x1="135.7" y1="76.28" x2="135.84" y2="75.97"/>
        <line class="cls-2" x1="135.7" y1="76.28" x2="134.77" y2="76.28"/>
        <line class="cls-2" x1="134.68" y1="76.3" x2="134.77" y2="76.28"/>
        <line class="cls-2" x1="134.61" y1="76.37" x2="134.68" y2="76.3"/>
        <line class="cls-2" x1="134.59" y1="76.46" x2="134.61" y2="76.37"/>
        <line class="cls-2" x1="134.59" y1="76.55" x2="134.61" y2="76.46"/>
        <line class="cls-2" x1="134.61" y1="76.61" x2="134.68" y2="76.55"/>
        <line class="cls-2" x1="134.68" y1="76.64" x2="134.77" y2="76.61"/>
        <line class="cls-2" x1="134.77" y1="76.64" x2="136.39" y2="76.64"/>
        <line class="cls-2" x1="136.21" y1="74.86" x2="136.97" y2="75.06"/>
        <line class="cls-2" x1="136.21" y1="74.86" x2="136.21" y2="74.55"/>
      </g>
      <path class="cls-2" d="M163.82,182.38c21.14-.05,42.16-.25,63.18-2.22,9.52-1.02,18.56-3.09,27.48-6.07,6.02-2.02,11.24-3.43,16.93-6.26,10.14-5.06,12.7-17.25,15.89-27.12,5.73-18.88,14.58-48.02,20.17-66.42l-.46-.31c-2.63-2.47-6.25-3.57-9.21-5.53-10.12-6.69-20.22-13.48-30.63-19.85-7.86-4.57-15.44-10.19-24.32-12.71-10.37-2.47-20.04-2.96-30.72-4.07-16.12-1.5-32.23-2.14-48.43-2.32-16.2.18-32.31.81-48.43,2.32-10.67,1.11-20.35,1.6-30.72,4.07-8.88,2.52-16.46,8.13-24.32,12.71-10.41,6.36-20.51,13.16-30.63,19.85-2.97,1.96-6.58,3.05-9.21,5.53l-.46.31c5.59,18.41,14.44,47.54,20.17,66.42,3.19,9.86,5.75,22.06,15.89,27.12,5.68,2.83,10.91,4.24,16.93,6.26,8.92,2.98,17.96,5.05,27.48,6.07,21.02,1.97,42.05,2.18,63.18,2.22h.24Z"/>
    </g>
  </g>
</svg>