<?xml version="1.0" encoding="UTF-8"?>
<svg id="_图层_2" data-name="图层 2" xmlns="http://www.w3.org/2000/svg" viewBox="0 0 9.78 9.47">
  <defs>
    <style>
      .cls-1 {
        fill: none;
        stroke: #070001;
        stroke-linecap: square;
        stroke-miterlimit: 10;
        stroke-width: .12px;
      }
    </style>
  </defs>
  <g id="_图层_1-2" data-name="图层 1">
    <g>
      <line class="cls-1" x1="5.62" y1="4.78" x2="3.31" y2="5.22"/>
      <line class="cls-1" x1="4.82" y1="6.24" x2="5.62" y2="4.78"/>
      <line class="cls-1" x1="3.67" y1="9.4" x2="9.35" y2="9.4"/>
      <line class="cls-1" x1="9.35" y1="9.4" x2="9.53" y2="9.35"/>
      <line class="cls-1" x1="9.53" y1="9.35" x2="9.66" y2="9.22"/>
      <line class="cls-1" x1="9.66" y1="9.22" x2="9.7" y2="9.04"/>
      <line class="cls-1" x1="9.66" y1="9.04" x2="9.7" y2="8.86"/>
      <line class="cls-1" x1="9.53" y1="8.86" x2="9.66" y2="8.73"/>
      <line class="cls-1" x1="9.35" y1="8.73" x2="9.53" y2="8.69"/>
      <line class="cls-1" x1="9.35" y1="8.69" x2="5.18" y2="8.69"/>
      <line class="cls-1" x1="5.05" y1="8.69" x2="5.18" y2="8.24"/>
      <line class="cls-1" x1="4.73" y1="8.24" x2="5.05" y2="7.89"/>
      <line class="cls-1" x1="4.73" y1="7.89" x2="7.93" y2="1.98"/>
      <line class="cls-1" x1="7.93" y1="1.98" x2="8.77" y2="1.98"/>
      <line class="cls-1" x1="8.77" y1="1.98" x2="8.91" y2="1.94"/>
      <line class="cls-1" x1="8.91" y1="1.94" x2="8.99" y2="1.81"/>
      <line class="cls-1" x1="8.99" y1="1.81" x2="9.48" y2=".39"/>
      <line class="cls-1" x1="9.48" y1=".39" x2="9.48" y2=".25"/>
      <line class="cls-1" x1="9.39" y1=".25" x2="9.48" y2=".12"/>
      <line class="cls-1" x1="9.22" y1=".12" x2="9.39" y2=".08"/>
      <line class="cls-1" x1="9.22" y1=".08" x2="5.98" y2=".08"/>
      <line class="cls-1" x1="5.8" y1=".12" x2="5.98" y2=".08"/>
      <line class="cls-1" x1="5.71" y1=".25" x2="5.8" y2=".12"/>
      <line class="cls-1" x1="5.71" y1=".39" x2="5.71" y2=".25"/>
      <line class="cls-1" x1="5.71" y1=".39" x2="6.2" y2="1.81"/>
      <line class="cls-1" x1="6.2" y1="1.94" x2="6.29" y2="1.81"/>
      <line class="cls-1" x1="6.29" y1="1.98" x2="6.42" y2="1.94"/>
      <line class="cls-1" x1="6.42" y1="1.98" x2="7.13" y2="1.98"/>
      <line class="cls-1" x1="7.13" y1="1.98" x2="6.02" y2="3.98"/>
      <line class="cls-1" x1="6.02" y1="3.98" x2="3.14" y2="4.56"/>
      <line class="cls-1" x1="2.78" y1="4.78" x2="3.14" y2="4.56"/>
      <line class="cls-1" x1="2.65" y1="5.14" x2="2.78" y2="4.78"/>
      <line class="cls-1" x1="2.65" y1="5.14" x2="2.65" y2="5.89"/>
      <line class="cls-1" x1="2.65" y1="6.24" x2="2.74" y2="5.89"/>
      <line class="cls-1" x1="2.74" y1="6.47" x2="3.05" y2="6.24"/>
      <line class="cls-1" x1="3.05" y1="6.47" x2="4.47" y2="6.87"/>
      <line class="cls-1" x1="4.11" y1="7.53" x2="4.47" y2="6.87"/>
      <line class="cls-1" x1="3.76" y1="7.53" x2="4.11" y2="7.49"/>
      <line class="cls-1" x1="3.09" y1="7.66" x2="3.76" y2="7.49"/>
      <line class="cls-1" x1="2.56" y1="8.06" x2="3.09" y2="7.66"/>
      <line class="cls-1" x1="2.29" y1="8.69" x2="2.56" y2="8.06"/>
      <line class="cls-1" x1="2.29" y1="8.69" x2=".43" y2="8.69"/>
      <line class="cls-1" x1=".25" y1="8.73" x2=".43" y2="8.69"/>
      <line class="cls-1" x1=".12" y1="8.86" x2=".25" y2="8.73"/>
      <line class="cls-1" x1=".08" y1="9.04" x2=".12" y2="8.86"/>
      <line class="cls-1" x1=".08" y1="9.22" x2=".12" y2="9.04"/>
      <line class="cls-1" x1=".12" y1="9.35" x2=".25" y2="9.22"/>
      <line class="cls-1" x1=".25" y1="9.4" x2=".43" y2="9.35"/>
      <line class="cls-1" x1=".43" y1="9.4" x2="3.67" y2="9.4"/>
      <line class="cls-1" x1="3.31" y1="5.85" x2="4.82" y2="6.24"/>
      <line class="cls-1" x1="3.31" y1="5.85" x2="3.31" y2="5.22"/>
    </g>
  </g>
</svg>