<?xml version="1.0" encoding="UTF-8"?>
<svg id="_图层_2" data-name="图层 2" xmlns="http://www.w3.org/2000/svg" viewBox="0 0 147.32 104.95">
  <defs>
    <style>
      .cls-1 {
        fill: #595757;
        font-family: TimesNewRomanPSMT, 'Times New Roman';
        font-size: 8px;
      }

      .cls-2 {
        stroke: #000;
        stroke-dasharray: .7;
        stroke-width: .17px;
      }

      .cls-2, .cls-3, .cls-4, .cls-5 {
        fill: none;
        stroke-miterlimit: 10;
      }

      .cls-3 {
        stroke-width: .28px;
      }

      .cls-3, .cls-4 {
        stroke: #595757;
      }

      .cls-6 {
        letter-spacing: -.04em;
      }

      .cls-4 {
        stroke-width: .25px;
      }

      .cls-4, .cls-5 {
        stroke-linecap: square;
      }

      .cls-5 {
        stroke: #040000;
        stroke-width: .03px;
      }
    </style>
  </defs>
  <g id="_图层_1-2" data-name="图层 1">
    <g>
      <line class="cls-3" x1="31.69" y1="14.67" x2="83.56" y2="14.67"/>
      <text class="cls-1" transform="translate(85.39 16.59)"><tspan x="0" y="0">High Beam Switch</tspan></text>
      <line class="cls-3" x1="50.63" y1="87.63" x2="83.56" y2="87.63"/>
      <text class="cls-1" transform="translate(85.39 89.49)"><tspan class="cls-6" x="0" y="0">T</tspan><tspan x="4.61" y="0">urn Signal Switch</tspan></text>
      <line class="cls-3" x1="55.98" y1="52.34" x2="83.56" y2="52.34"/>
      <text class="cls-1" transform="translate(85.39 54.98)"><tspan x="0" y="0">Horn Button</tspan></text>
      <g>
        <polyline class="cls-4" points="26.5 9.9 26.42 9.43 26.11 8.99 25.59 8.62 24.91 8.34 24.11 8.19 23.26 8.17 22.42 8.28"/>
        <polyline class="cls-4" points="24.67 11.4 25.39 11.15 25.96 10.8 26.35 10.37 26.5 9.9"/>
        <line class="cls-4" x1="24.67" y1="11.4" x2="24.63" y2="11.85"/>
        <polyline class="cls-4" points="24.63 11.85 25.35 11.59 25.93 11.23 26.3 10.81 26.46 10.35"/>
        <polyline class="cls-4" points="22.05 8.65 22.1 9.06 22.29 9.54 22.62 10.07 23.04 10.57 23.51 11 23.97 11.3 24.37 11.44 24.67 11.4"/>
        <polyline class="cls-4" points="22.42 8.28 22.16 8.38 22.05 8.65"/>
        <polyline class="cls-4" points="22.01 9.1 22.06 9.49 22.26 9.99 22.58 10.51 23 11.02 23.46 11.44 23.93 11.74 24.33 11.88 24.63 11.85"/>
        <polyline class="cls-4" points="22.76 8.95 22.81 9.27 23 9.68 23.28 10.09 23.64 10.47 24.02 10.75 24.35 10.89 24.6 10.87"/>
        <polyline class="cls-4" points="23.02 8.69 22.84 8.75 22.76 8.95"/>
        <line class="cls-4" x1="23.02" y1="8.69" x2="22.98" y2="9.12"/>
        <polyline class="cls-4" points="22.98 9.12 22.88 9.15 22.79 9.21"/>
        <polyline class="cls-4" points="25.88 9.83 25.8 9.44 25.5 9.09 25.01 8.82 24.39 8.65 23.71 8.6 23.02 8.69"/>
        <polyline class="cls-4" points="24.6 10.87 25.11 10.7 25.5 10.45 25.77 10.14 25.88 9.83"/>
        <polyline class="cls-4" points="25.82 10.04 25.64 9.71 25.3 9.42 24.81 9.2 24.23 9.07 23.6 9.05 22.98 9.12"/>
        <line class="cls-4" x1="18.87" y1="9.49" x2="18.82" y2="9.94"/>
        <line class="cls-4" x1="21.24" y1="8.93" x2="18.87" y2="9.49"/>
        <line class="cls-4" x1="21.41" y1="9.16" x2="21.24" y2="8.93"/>
        <line class="cls-4" x1="21.41" y1="9.16" x2="21.37" y2="9.57"/>
        <line class="cls-4" x1="19.02" y1="9.72" x2="21.41" y2="9.16"/>
        <line class="cls-4" x1="19.02" y1="9.72" x2="18.99" y2="10.15"/>
        <line class="cls-4" x1="18.99" y1="10.15" x2="19.28" y2="10.09"/>
        <line class="cls-4" x1="18.87" y1="9.49" x2="19.02" y2="9.72"/>
        <line class="cls-4" x1="18.82" y1="9.94" x2="18.99" y2="10.15"/>
        <line class="cls-4" x1="19.28" y1="10.06" x2="19.24" y2="10.51"/>
        <line class="cls-4" x1="21.66" y1="9.5" x2="19.28" y2="10.06"/>
        <line class="cls-4" x1="21.82" y1="9.73" x2="21.66" y2="9.5"/>
        <line class="cls-4" x1="21.82" y1="9.73" x2="21.78" y2="10.14"/>
        <line class="cls-4" x1="19.44" y1="10.29" x2="21.82" y2="9.73"/>
        <line class="cls-4" x1="19.44" y1="10.29" x2="19.4" y2="10.73"/>
        <line class="cls-4" x1="19.4" y1="10.73" x2="19.69" y2="10.66"/>
        <line class="cls-4" x1="19.28" y1="10.06" x2="19.44" y2="10.29"/>
        <line class="cls-4" x1="19.24" y1="10.51" x2="19.4" y2="10.73"/>
        <line class="cls-4" x1="19.69" y1="10.64" x2="19.65" y2="11.07"/>
        <line class="cls-4" x1="22.07" y1="10.08" x2="19.69" y2="10.64"/>
        <line class="cls-4" x1="22.23" y1="10.3" x2="22.07" y2="10.08"/>
        <line class="cls-4" x1="22.23" y1="10.3" x2="22.19" y2="10.71"/>
        <line class="cls-4" x1="19.85" y1="10.86" x2="22.23" y2="10.3"/>
        <line class="cls-4" x1="19.85" y1="10.86" x2="19.81" y2="11.3"/>
        <line class="cls-4" x1="19.81" y1="11.3" x2="20.1" y2="11.23"/>
        <line class="cls-4" x1="19.69" y1="10.64" x2="19.85" y2="10.86"/>
        <line class="cls-4" x1="19.65" y1="11.07" x2="19.81" y2="11.3"/>
        <line class="cls-4" x1="20.11" y1="11.21" x2="20.06" y2="11.64"/>
        <line class="cls-4" x1="22.48" y1="10.65" x2="20.11" y2="11.21"/>
        <line class="cls-4" x1="22.64" y1="10.87" x2="22.48" y2="10.65"/>
        <line class="cls-4" x1="22.64" y1="10.87" x2="22.61" y2="11.28"/>
        <line class="cls-4" x1="20.26" y1="11.44" x2="22.64" y2="10.87"/>
        <line class="cls-4" x1="20.26" y1="11.44" x2="20.22" y2="11.87"/>
        <line class="cls-4" x1="20.22" y1="11.87" x2="20.51" y2="11.8"/>
        <line class="cls-4" x1="20.11" y1="11.21" x2="20.26" y2="11.44"/>
        <line class="cls-4" x1="20.06" y1="11.64" x2="20.22" y2="11.87"/>
        <line class="cls-4" x1="20.52" y1="11.78" x2="20.47" y2="12.22"/>
        <line class="cls-4" x1="22.89" y1="11.22" x2="20.52" y2="11.78"/>
        <line class="cls-4" x1="23.05" y1="11.44" x2="22.89" y2="11.22"/>
        <line class="cls-4" x1="23.05" y1="11.44" x2="23.02" y2="11.88"/>
        <line class="cls-4" x1="20.68" y1="12" x2="23.05" y2="11.44"/>
        <line class="cls-4" x1="20.68" y1="12" x2="20.63" y2="12.44"/>
        <line class="cls-4" x1="20.63" y1="12.44" x2="23.02" y2="11.88"/>
        <line class="cls-4" x1="20.52" y1="11.78" x2="20.68" y2="12"/>
        <line class="cls-4" x1="20.47" y1="12.22" x2="20.63" y2="12.44"/>
        <line class="cls-4" x1="26.5" y1="9.9" x2="26.46" y2="10.35"/>
        <line class="cls-4" x1="22.05" y1="8.65" x2="22.01" y2="9.1"/>
        <polyline class="cls-4" points="33.98 96.27 34.04 96.39 34.14 96.5"/>
        <polyline class="cls-4" points="33.89 96.01 33.93 96.15 33.98 96.27"/>
        <line class="cls-4" x1="45.15" y1="96.57" x2="44" y2="96.58"/>
        <line class="cls-4" x1="46.53" y1="96.54" x2="45.15" y2="96.57"/>
        <line class="cls-4" x1="38.38" y1="96.18" x2="37.03" y2="96.59"/>
        <line class="cls-4" x1="36.98" y1="96.62" x2="37.03" y2="96.59"/>
        <line class="cls-4" x1="36.98" y1="96.62" x2="36.99" y2="96.62"/>
        <line class="cls-4" x1="36.98" y1="96.63" x2="36.99" y2="96.62"/>
        <polyline class="cls-4" points="36.99 96.63 37.02 96.63 37.13 96.65 37.53 96.66"/>
        <line class="cls-4" x1="37.53" y1="96.66" x2="39.61" y2="96.61"/>
        <line class="cls-4" x1="39.61" y1="96.61" x2="40.1" y2="96.6"/>
        <line class="cls-4" x1="40.1" y1="96.6" x2="42.66" y2="96.54"/>
        <line class="cls-4" x1="42.66" y1="96.54" x2="43.9" y2="96.51"/>
        <line class="cls-4" x1="43.9" y1="96.51" x2="44.67" y2="96.5"/>
        <line class="cls-4" x1="44.67" y1="96.5" x2="45.66" y2="96.48"/>
        <line class="cls-4" x1="45.66" y1="96.48" x2="46.99" y2="96.45"/>
        <line class="cls-4" x1="46.99" y1="96.45" x2="48.26" y2="96.42"/>
        <polyline class="cls-4" points="48.26 96.42 48.68 96.4 48.81 96.37 48.84 96.36 48.85 96.36 48.85 96.35"/>
        <line class="cls-4" x1="48.85" y1="96.35" x2="48.85" y2="96.35"/>
        <line class="cls-4" x1="48.79" y1="96.35" x2="48.85" y2="96.32"/>
        <line class="cls-4" x1="48.79" y1="96.32" x2="47.53" y2="96.06"/>
        <polyline class="cls-4" points="47.53 96.06 47.3 96.03 46.65 96.01"/>
        <line class="cls-4" x1="46.65" y1="96.01" x2="42.92" y2="96.06"/>
        <line class="cls-4" x1="42.81" y1="96.06" x2="42.92" y2="96.06"/>
        <line class="cls-4" x1="42.81" y1="96.06" x2="41.85" y2="96.08"/>
        <line class="cls-4" x1="41.85" y1="96.08" x2="41.58" y2="96.09"/>
        <line class="cls-4" x1="41.58" y1="96.09" x2="40.37" y2="96.11"/>
        <line class="cls-4" x1="40.37" y1="96.11" x2="38.96" y2="96.13"/>
        <polyline class="cls-4" points="38.96 96.13 38.52 96.16 38.38 96.18"/>
        <line class="cls-4" x1="51.53" y1="82.05" x2="51.53" y2="82.03"/>
        <line class="cls-4" x1="51.34" y1="81.66" x2="51.41" y2="81.56"/>
        <line class="cls-4" x1="51.27" y1="81.56" x2="51.34" y2="81.48"/>
        <line class="cls-4" x1="51.79" y1="95.45" x2="51.58" y2="82.37"/>
        <line class="cls-4" x1="51.46" y1="82.05" x2="51.51" y2="81.95"/>
        <line class="cls-4" x1="51.57" y1="82.37" x2="51.58" y2="82.26"/>
        <polyline class="cls-4" points="51.57 82.26 51.54 82.15 51.51 82.05"/>
        <polyline class="cls-4" points="51.77 95.66 51.79 95.56 51.79 95.45"/>
        <line class="cls-4" x1="37.6" y1="81.34" x2="37.62" y2="81.32"/>
        <line class="cls-4" x1="37.62" y1="81.35" x2="37.66" y2="81.33"/>
        <line class="cls-4" x1="50.63" y1="81.19" x2="50.63" y2="81.18"/>
        <polyline class="cls-4" points="50.91 96.39 51.06 96.37 51.21 96.32"/>
        <polyline class="cls-4" points="51.21 96.32 51.34 96.26 51.47 96.17"/>
        <polyline class="cls-4" points="51.47 96.17 51.59 96.04 51.69 95.88 51.76 95.71"/>
        <line class="cls-4" x1="51.76" y1="95.71" x2="51.77" y2="95.66"/>
        <polyline class="cls-4" points="35.9 84.73 36.1 84.33 36.28 83.91"/>
        <polyline class="cls-4" points="51.53 82.05 51.4 81.65 51.18 81.38 50.86 81.2 50.64 81.17"/>
        <polyline class="cls-4" points="33.85 95.96 33.78 94.04 33.87 92.13 34.09 90.34 34.44 88.69 34.96 86.96 35.49 85.61 35.9 84.73"/>
        <polyline class="cls-4" points="37.6 81.32 37.13 82.16 36.68 83.02"/>
        <polyline class="cls-4" points="36.68 83.02 36.47 83.46 36.28 83.91"/>
        <line class="cls-4" x1="33.85" y1="96.06" x2="33.86" y2="95.96"/>
        <line class="cls-4" x1="38.09" y1="81.04" x2="50.63" y2="81.18"/>
        <line class="cls-4" x1="50.63" y1="81.18" x2="50.64" y2="81.17"/>
        <line class="cls-4" x1="51.53" y1="82.03" x2="51.57" y2="82.26"/>
        <line class="cls-4" x1="51.74" y1="95.8" x2="51.76" y2="95.71"/>
        <polyline class="cls-4" points="50.88 96.47 42.87 96.63 34.87 96.8"/>
        <polyline class="cls-4" points="34.87 96.8 34.46 96.74 34.16 96.58 33.98 96.37 33.86 96.06"/>
        <polyline class="cls-4" points="38.09 81.04 37.94 81.06 37.81 81.11 37.68 81.2 37.6 81.32"/>
        <line class="cls-4" x1="61.52" y1="81.3" x2="61.32" y2="81.29"/>
        <line class="cls-4" x1="60.34" y1="88.56" x2="60.36" y2="89.79"/>
        <line class="cls-4" x1="60.36" y1="89.79" x2="58" y2="89.82"/>
        <line class="cls-4" x1="58" y1="89.82" x2="58.04" y2="91.88"/>
        <line class="cls-4" x1="60.39" y1="91.84" x2="60.41" y2="93.1"/>
        <line class="cls-4" x1="29.68" y1="89.4" x2="27.5" y2="91.17"/>
        <line class="cls-4" x1="27.5" y1="91.17" x2="27.24" y2="91.38"/>
        <line class="cls-4" x1="27.24" y1="91.38" x2="27.51" y2="91.59"/>
        <line class="cls-4" x1="27.51" y1="91.59" x2="29.75" y2="93.28"/>
        <line class="cls-4" x1="29.75" y1="93.28" x2="30.18" y2="93.61"/>
        <line class="cls-4" x1="32.48" y1="90.28" x2="30.12" y2="90.33"/>
        <line class="cls-4" x1="30.11" y1="89.06" x2="29.68" y2="89.4"/>
        <polyline class="cls-4" points="44.15 96.63 44.73 96.62 45.23 96.61 45.55 96.61 45.67 96.6"/>
        <polyline class="cls-4" points="42.51 96.65 42.66 96.65 43.02 96.65 43.54 96.64 44.15 96.63"/>
        <line class="cls-4" x1="29.62" y1="91.86" x2="31.97" y2="91.82"/>
        <line class="cls-4" x1="29.63" y1="92.53" x2="29.62" y2="91.86"/>
        <line class="cls-4" x1="29.6" y1="90.86" x2="29.59" y2="90.16"/>
        <line class="cls-4" x1="31.97" y1="91.82" x2="31.95" y2="90.83"/>
        <line class="cls-4" x1="58.56" y1="91.34" x2="60.91" y2="91.31"/>
        <line class="cls-4" x1="62.42" y1="90.79" x2="60.88" y2="89.64"/>
        <line class="cls-4" x1="60.93" y1="92.01" x2="62.42" y2="90.79"/>
        <line class="cls-4" x1="29.6" y1="90.86" x2="29.6" y2="90.86"/>
        <line class="cls-4" x1="29.6" y1="90.86" x2="29.6" y2="90.16"/>
        <line class="cls-4" x1="29.6" y1="90.16" x2="28.11" y2="91.37"/>
        <line class="cls-4" x1="28.11" y1="91.37" x2="29.64" y2="92.53"/>
        <line class="cls-4" x1="29.62" y1="91.86" x2="29.62" y2="91.86"/>
        <line class="cls-4" x1="29.64" y1="92.53" x2="29.62" y2="91.86"/>
        <line class="cls-4" x1="31.97" y1="91.82" x2="31.98" y2="91.82"/>
        <line class="cls-4" x1="29.62" y1="91.86" x2="31.98" y2="91.82"/>
        <line class="cls-4" x1="31.98" y1="91.82" x2="31.96" y2="90.83"/>
        <line class="cls-4" x1="31.96" y1="90.83" x2="29.6" y2="90.86"/>
        <line class="cls-4" x1="60.89" y1="89.64" x2="60.9" y2="90.31"/>
        <line class="cls-4" x1="60.9" y1="90.31" x2="58.55" y2="90.35"/>
        <line class="cls-4" x1="58.55" y1="90.35" x2="58.56" y2="91.34"/>
        <line class="cls-4" x1="60.91" y1="91.31" x2="60.92" y2="91.31"/>
        <line class="cls-4" x1="58.56" y1="91.34" x2="60.92" y2="91.31"/>
        <line class="cls-4" x1="60.92" y1="91.31" x2="60.93" y2="92.01"/>
        <line class="cls-4" x1="62.42" y1="90.79" x2="62.42" y2="90.79"/>
        <line class="cls-4" x1="60.93" y1="92.01" x2="62.42" y2="90.79"/>
        <line class="cls-4" x1="62.42" y1="90.79" x2="60.89" y2="89.64"/>
        <polyline class="cls-4" points="37.12 100.2 37.32 100.12 37.46 99.91 37.51 99.63"/>
        <polyline class="cls-4" points="51.18 99.4 51.23 99.68 51.38 99.89 51.56 99.95"/>
        <line class="cls-4" x1="51.74" y1="99.95" x2="51.56" y2="99.95"/>
        <line class="cls-4" x1="37.12" y1="100.2" x2="36.93" y2="100.2"/>
        <line class="cls-4" x1="29.75" y1="93.28" x2="30.18" y2="93.61"/>
        <line class="cls-4" x1="27.51" y1="91.59" x2="29.75" y2="93.28"/>
        <line class="cls-4" x1="27.24" y1="91.38" x2="27.51" y2="91.59"/>
        <line class="cls-4" x1="27.51" y1="91.17" x2="27.24" y2="91.38"/>
        <line class="cls-4" x1="29.69" y1="89.4" x2="27.51" y2="91.17"/>
        <line class="cls-4" x1="30.11" y1="89.06" x2="29.69" y2="89.4"/>
        <line class="cls-4" x1="30.12" y1="90.33" x2="30.11" y2="89.06"/>
        <line class="cls-4" x1="32.48" y1="90.28" x2="30.12" y2="90.33"/>
        <line class="cls-4" x1="32.51" y1="92.34" x2="32.48" y2="90.28"/>
        <line class="cls-4" x1="30.17" y1="92.38" x2="32.51" y2="92.34"/>
        <line class="cls-4" x1="30.18" y1="93.61" x2="30.17" y2="92.38"/>
        <line class="cls-4" x1="60.4" y1="91.84" x2="60.41" y2="93.1"/>
        <line class="cls-4" x1="58.04" y1="91.88" x2="60.4" y2="91.84"/>
        <line class="cls-4" x1="58.01" y1="89.82" x2="58.04" y2="91.88"/>
        <line class="cls-4" x1="60.36" y1="89.79" x2="58.01" y2="89.82"/>
        <line class="cls-4" x1="60.34" y1="88.56" x2="60.36" y2="89.79"/>
        <line class="cls-4" x1="60.77" y1="88.88" x2="60.34" y2="88.56"/>
        <line class="cls-4" x1="63.01" y1="90.58" x2="60.77" y2="88.88"/>
        <line class="cls-4" x1="63.28" y1="90.78" x2="63.01" y2="90.58"/>
        <line class="cls-4" x1="63.02" y1="91" x2="63.28" y2="90.78"/>
        <line class="cls-4" x1="60.83" y1="92.76" x2="63.02" y2="91"/>
        <line class="cls-4" x1="60.41" y1="93.1" x2="60.83" y2="92.76"/>
        <line class="cls-4" x1="38.32" y1="96.73" x2="38.35" y2="96.73"/>
        <line class="cls-4" x1="51.13" y1="96.53" x2="51.18" y2="99.4"/>
        <line class="cls-4" x1="37.47" y1="96.75" x2="37.51" y2="99.63"/>
        <line class="cls-4" x1="37.47" y1="96.75" x2="37.26" y2="96.76"/>
        <line class="cls-4" x1="30.11" y1="89.06" x2="30.11" y2="89.06"/>
        <line class="cls-4" x1="32.48" y1="90.28" x2="32.48" y2="90.28"/>
        <line class="cls-4" x1="30.18" y1="93.61" x2="30.18" y2="93.61"/>
        <line class="cls-4" x1="27.24" y1="91.38" x2="27.24" y2="91.38"/>
        <line class="cls-4" x1="60.34" y1="88.56" x2="60.34" y2="88.56"/>
        <line class="cls-4" x1="60.41" y1="93.1" x2="60.41" y2="93.1"/>
        <line class="cls-4" x1="58.04" y1="91.88" x2="58.04" y2="91.88"/>
        <line class="cls-4" x1="58" y1="89.82" x2="58.01" y2="89.82"/>
        <line class="cls-4" x1="60.36" y1="89.79" x2="60.36" y2="89.79"/>
        <line class="cls-4" x1="51.33" y1="96.46" x2="48.57" y2="96.51"/>
        <line class="cls-4" x1="42.51" y1="96.65" x2="42.51" y2="96.63"/>
        <line class="cls-4" x1="45.67" y1="96.6" x2="45.67" y2="96.57"/>
        <line class="cls-4" x1="61.52" y1="81.3" x2="61.58" y2="81.3"/>
        <line class="cls-4" x1="54.01" y1="39.71" x2="54.09" y2="39.7"/>
        <polyline class="cls-4" points="53.93 39.45 52.48 39.74 51.04 40.06 49.6 40.4 48.17 40.78 46.74 41.17 45.33 41.6 43.91 42.06 42.51 42.54 41.13 43.05 39.75 43.58 38.38 44.15 37.03 44.74 35.68 45.36 34.35 46"/>
        <line class="cls-4" x1="53.54" y1="39.72" x2="53.39" y2="39.75"/>
        <polyline class="cls-4" points="34.35 46 33.54 46.42 32.75 46.88 31.98 47.36"/>
        <polyline class="cls-4" points="31.98 47.36 31.37 47.79 30.77 48.24 30.18 48.71 29.6 49.2 29.06 49.71"/>
        <polyline class="cls-4" points="29.05 55.51 29.39 55.82 29.75 56.1"/>
        <polyline class="cls-4" points="28.81 55.23 28.93 55.37 29.05 55.51"/>
        <polyline class="cls-4" points="28.5 54.78 28.65 55.01 28.81 55.23"/>
        <polyline class="cls-4" points="28.1 53.91 28.27 54.36 28.5 54.78"/>
        <polyline class="cls-4" points="27.95 53.33 28.01 53.62 28.1 53.91"/>
        <polyline class="cls-4" points="27.9 52.99 27.92 53.16 27.95 53.33"/>
        <polyline class="cls-4" points="28.11 51.21 28 51.55 27.93 51.91 27.89 52.27 27.88 52.63 27.9 52.99"/>
        <polyline class="cls-4" points="28.24 50.86 28.17 51.03 28.11 51.21"/>
        <polyline class="cls-4" points="29.05 49.71 28.81 49.97 28.59 50.24 28.41 50.55 28.25 50.86"/>
        <path class="cls-4" d="M29.75,56.1c.73.47,1.46.9,2.22,1.31"/>
        <path class="cls-4" d="M31.97,57.41c1.79.91,3.72,1.54,5.63,2.12"/>
        <line class="cls-4" x1="55.98" y1="40.58" x2="55.86" y2="40.37"/>
        <polyline class="cls-4" points="59.48 55.89 59.52 55.04 59.53 54.17 59.51 53.32 59.47 52.46 59.4 51.6 59.31 50.75"/>
        <line class="cls-4" x1="59.45" y1="56.29" x2="59.48" y2="55.89"/>
        <polyline class="cls-4" points="58.64 61.28 58.87 60.3 59.07 59.3 59.23 58.3 59.36 57.31 59.45 56.3"/>
        <polyline class="cls-4" points="53.98 38.11 52.61 38.39 51.24 38.69 49.88 39.02 48.52 39.37 47.17 39.75 45.83 40.15 44.5 40.57 43.17 41.02 41.85 41.5 40.54 42 39.24 42.52 37.95 43.06 36.67 43.63 35.4 44.23 34.14 44.84"/>
        <line class="cls-4" x1="53.98" y1="38.11" x2="53.93" y2="39.45"/>
        <polyline class="cls-4" points="34.14 44.84 33.47 45.19 32.82 45.57 32.18 45.96 31.55 46.37 30.94 46.82 30.33 47.27 29.76 47.75 29.19 48.25 28.63 48.76"/>
        <polyline class="cls-4" points="28.63 48.76 28.33 49.09 28.05 49.44 27.62 50.23 27.33 51.09 27.19 51.99 27.21 52.92"/>
        <polyline class="cls-4" points="27.81 54.89 27.89 55.02 27.96 55.14"/>
        <polyline class="cls-4" points="27.21 52.92 27.27 53.33 27.36 53.74 27.49 54.13 27.64 54.52 27.81 54.89"/>
        <polyline class="cls-4" points="34.71 59.48 36.17 59.99 37.66 60.44"/>
        <polyline class="cls-4" points="33.94 59.18 34.32 59.33 34.71 59.48"/>
        <polyline class="cls-4" points="58.05 62.2 58.24 62.01 58.41 61.78"/>
        <polyline class="cls-4" points="58.41 61.78 58.55 61.54 58.64 61.28"/>
        <polyline class="cls-4" points="57.21 63.6 57.68 63.57 58.13 63.45 58.55 63.24 59.04 62.86 59.44 62.4 59.73 61.86 59.84 61.51"/>
        <polyline class="cls-4" points="56.93 62.6 57.02 62.6 57.12 62.59"/>
        <polyline class="cls-4" points="57.12 62.59 57.37 62.55 57.61 62.47"/>
        <polyline class="cls-4" points="57.61 62.47 57.75 62.4 57.89 62.32"/>
        <polyline class="cls-4" points="57.89 62.32 57.97 62.26 58.05 62.2"/>
        <line class="cls-4" x1="55.86" y1="40.37" x2="56.99" y2="39.61"/>
        <polyline class="cls-4" points="60.5 50.24 60 47.5 59.25 44.8 58.24 42.17 56.99 39.61"/>
        <polyline class="cls-4" points="60.72 52.83 60.67 51.96 60.6 51.1 60.5 50.24"/>
        <line class="cls-4" x1="60.72" y1="52.83" x2="60.73" y2="53.04"/>
        <polyline class="cls-4" points="60.7 55.84 60.74 54.91 60.75 53.98 60.73 53.04"/>
        <polyline class="cls-4" points="59.84 61.51 60.05 60.58 60.24 59.65 60.4 58.71 60.52 57.77 60.62 56.82 60.7 55.87"/>
        <polyline class="cls-4" points="54.11 39.43 54.02 39.44 53.93 39.45"/>
        <polyline class="cls-4" points="56.99 39.61 56.65 39.12 56.21 38.7 55.69 38.37 55.35 38.22 54.99 38.12 54.64 38.07 54.31 38.06 53.98 38.11"/>
        <polyline class="cls-4" points="55.86 40.37 55.71 40.16 55.53 39.96"/>
        <polyline class="cls-4" points="55.53 39.96 55.43 39.88 55.33 39.8"/>
        <polyline class="cls-4" points="55.33 39.8 55.22 39.73 55.1 39.66"/>
        <polyline class="cls-4" points="55.1 39.66 54.87 39.55 54.62 39.48"/>
        <polyline class="cls-4" points="54.62 39.48 54.37 39.44 54.11 39.43"/>
        <polyline class="cls-4" points="57.21 63.6 55.3 63.51 53.36 63.37 51.46 63.19 49.55 62.96 46.61 62.51 43.64 61.95 40.66 61.25 37.66 60.44"/>
        <polyline class="cls-4" points="59.31 68.9 55.84 68.72 52.39 68.35 48.97 67.82 45.58 67.12 42.23 66.25 38.92 65.22 35.66 64.04 32.45 62.72 29.3 61.24 26.21 59.63"/>
        <polyline class="cls-4" points="57.36 35.33 53.1 35.68 48.9 36.28 44.77 37.12 40.7 38.21 36.72 39.55 32.83 41.13 29.04 42.94 25.38 44.97"/>
        <line class="cls-4" x1="45.51" y1="50.68" x2="45.6" y2="50.66"/>
        <line class="cls-4" x1="45.49" y1="50.66" x2="45.5" y2="50.66"/>
        <polyline class="cls-4" points="44.31 49.98 44.52 50.17 44.74 50.34 44.98 50.47 45.23 50.58 45.49 50.66"/>
        <polyline class="cls-4" points="43.86 49.37 44.06 49.69 44.31 49.98"/>
        <polyline class="cls-4" points="43.65 48.88 43.74 49.13 43.87 49.36"/>
        <polyline class="cls-4" points="43.6 48.7 43.63 48.79 43.65 48.87"/>
        <polyline class="cls-4" points="44.33 54.5 44.36 53.93 44.43 53.65 44.56 53.4 44.77 53.11 45.04 52.87"/>
        <polyline class="cls-4" points="45.22 52.77 45.14 52.82 45.04 52.87"/>
        <polyline class="cls-4" points="45.15 52.82 45.08 52.85 45.01 52.89"/>
        <polyline class="cls-4" points="43.89 54.52 43.69 52.6 43.44 50.67 43.17 48.74"/>
        <polyline class="cls-4" points="43.21 48.58 43.17 48.66 43.17 48.74"/>
        <line class="cls-4" x1="43.25" y1="48.53" x2="43.35" y2="48.5"/>
        <line class="cls-4" x1="43.21" y1="48.58" x2="43.25" y2="48.53"/>
        <polyline class="cls-4" points="43.6 48.7 43.57 48.62 43.51 48.56 43.43 48.52 43.35 48.5"/>
        <polyline class="cls-4" points="45.6 50.68 46.22 50.79 46.86 50.87 47.51 50.92 48.14 50.96 48.79 50.96 49.42 50.94"/>
        <line class="cls-4" x1="49.42" y1="50.94" x2="49.55" y2="50.93"/>
        <polyline class="cls-4" points="49.55 50.93 50.45 50.85 51.35 50.7"/>
        <line class="cls-4" x1="51.61" y1="50.37" x2="51.35" y2="50.7"/>
        <line class="cls-4" x1="51.64" y1="50.35" x2="51.67" y2="50.34"/>
        <line class="cls-4" x1="51.61" y1="50.37" x2="51.64" y2="50.35"/>
        <line class="cls-4" x1="51.67" y1="50.42" x2="51.76" y2="50.34"/>
        <line class="cls-4" x1="51.79" y1="50.6" x2="51.76" y2="50.42"/>
        <polyline class="cls-4" points="51.95 51.9 51.87 51.25 51.79 50.6"/>
        <line class="cls-4" x1="51.88" y1="51.99" x2="51.91" y2="51.98"/>
        <line class="cls-4" x1="51.91" y1="51.98" x2="51.95" y2="51.9"/>
        <line class="cls-4" x1="51.82" y1="51.99" x2="51.88" y2="51.97"/>
        <line class="cls-4" x1="51.59" y1="51.76" x2="51.82" y2="51.97"/>
        <polyline class="cls-4" points="51.59 51.76 51.2 51.68 50.81 51.64"/>
        <line class="cls-4" x1="50.79" y1="51.64" x2="50.81" y2="51.64"/>
        <polyline class="cls-4" points="50.69 51.68 50.63 51.73 50.6 51.82 50.6 51.9"/>
        <line class="cls-4" x1="50.69" y1="51.68" x2="50.79" y2="51.64"/>
        <line class="cls-4" x1="50.6" y1="52.01" x2="50.65" y2="51.9"/>
        <line class="cls-4" x1="50.65" y1="52.11" x2="50.71" y2="52.01"/>
        <polyline class="cls-4" points="50.84 52.88 50.86 52.68 50.84 52.49 50.79 52.29 50.71 52.11"/>
        <polyline class="cls-4" points="50.84 52.88 50.76 53.17 50.61 53.41 50.44 53.57"/>
        <line class="cls-4" x1="50.4" y1="53.59" x2="50.44" y2="53.57"/>
        <line class="cls-4" x1="50.28" y1="53.66" x2="50.4" y2="53.59"/>
        <polyline class="cls-4" points="48.49 54.21 48.86 54.16 49.23 54.08 49.59 53.97 49.94 53.83 50.28 53.66"/>
        <line class="cls-4" x1="48.36" y1="54.22" x2="48.49" y2="54.21"/>
        <line class="cls-4" x1="48.24" y1="54.22" x2="48.36" y2="54.22"/>
        <polyline class="cls-4" points="46.36 53.89 46.73 54.01 47.1 54.11 47.47 54.18 47.86 54.22 48.24 54.22"/>
        <line class="cls-4" x1="46.21" y1="53.82" x2="46.36" y2="53.89"/>
        <line class="cls-4" x1="46.09" y1="53.82" x2="46.21" y2="53.76"/>
        <polyline class="cls-4" points="45.55 52.96 45.6 53.15 45.68 53.34 45.79 53.49 45.93 53.64 46.09 53.76"/>
        <polyline class="cls-4" points="45.55 52.96 45.51 52.87 45.45 52.81"/>
        <polyline class="cls-4" points="45.45 52.81 45.39 52.77 45.3 52.75"/>
        <line class="cls-4" x1="45.22" y1="52.77" x2="45.3" y2="52.75"/>
        <line class="cls-4" x1="44.13" y1="54.75" x2="44.23" y2="54.72"/>
        <polyline class="cls-4" points="44.23 54.72 44.29 54.66 44.32 54.58 44.33 54.5"/>
        <polyline class="cls-4" points="43.89 54.52 43.95 54.67 44.06 54.74 44.13 54.75"/>
        <polyline class="cls-4" points="49.57 51.79 49.2 51.7 48.82 51.63 48.44 51.61 48.07 51.61"/>
        <polyline class="cls-4" points="48.07 51.61 47.72 51.64 47.38 51.71 47.05 51.8 46.72 51.92"/>
        <line class="cls-4" x1="46.63" y1="51.95" x2="46.72" y2="51.92"/>
        <line class="cls-4" x1="46.52" y1="52.02" x2="46.63" y2="51.95"/>
        <polyline class="cls-4" points="46.16 52.84 46.17 52.56 46.26 52.3 46.37 52.15 46.51 52.02"/>
        <polyline class="cls-4" points="46.83 53.67 46.58 53.55 46.37 53.36 46.23 53.12 46.16 52.84"/>
        <polyline class="cls-4" points="46.83 53.67 47.17 53.76 47.51 53.82 47.87 53.85 48.23 53.85"/>
        <line class="cls-4" x1="48.23" y1="53.85" x2="48.32" y2="53.85"/>
        <line class="cls-4" x1="48.32" y1="53.85" x2="48.41" y2="53.85"/>
        <polyline class="cls-4" points="48.41 53.85 48.74 53.81 49.06 53.75 49.37 53.66 49.68 53.54"/>
        <line class="cls-4" x1="49.68" y1="53.54" x2="49.76" y2="53.51"/>
        <line class="cls-4" x1="49.76" y1="53.51" x2="49.87" y2="53.45"/>
        <polyline class="cls-4" points="49.87 53.45 50.02 53.33 50.13 53.18"/>
        <polyline class="cls-4" points="50.13 53.18 50.2 53 50.24 52.81 50.24 52.62"/>
        <polyline class="cls-4" points="50.24 52.62 50.21 52.49 50.17 52.35"/>
        <polyline class="cls-4" points="50.17 52.35 50.1 52.22 50.02 52.1"/>
        <polyline class="cls-4" points="50.02 52.1 49.89 51.97 49.73 51.86 49.57 51.79"/>
        <line class="cls-4" x1="46.48" y1="52.04" x2="46.56" y2="52"/>
        <polyline class="cls-4" points="26.14 59.59 25.17 58.95 24.29 58.19 23.51 57.31 22.85 56.33 22.33 55.27 21.96 54.16 21.73 53 21.66 51.84"/>
        <line class="cls-4" x1="46.56" y1="52" x2="46.69" y2="51.94"/>
        <polyline class="cls-4" points="48 51.66 47.66 51.69 47.33 51.75 47.01 51.84 46.69 51.94"/>
        <polyline class="cls-4" points="49.5 51.84 49.13 51.74 48.75 51.68 48.38 51.65 48 51.66"/>
        <polyline class="cls-4" points="49.78 51.98 49.64 51.89 49.5 51.84"/>
        <polyline class="cls-4" points="49.95 52.15 49.87 52.05 49.78 51.98"/>
        <polyline class="cls-4" points="50.17 52.66 50.13 52.48 50.05 52.3 49.95 52.15"/>
        <polyline class="cls-4" points="49.84 53.47 50.02 53.28 50.14 53.03 50.17 52.66"/>
        <polyline class="cls-4" points="43.82 54.57 43.62 52.64 43.38 50.71 43.1 48.79"/>
        <polyline class="cls-4" points="45.48 53 45.59 53.33 45.78 53.61 45.95 53.76 46.14 53.87"/>
        <line class="cls-4" x1="50.34" y1="53.64" x2="50.37" y2="53.61"/>
        <line class="cls-4" x1="51.53" y1="51.81" x2="51.59" y2="51.76"/>
        <polyline class="cls-4" points="51.53 51.81 51.18 51.73 50.84 51.69"/>
        <line class="cls-4" x1="50.74" y1="51.69" x2="50.84" y2="51.68"/>
        <line class="cls-4" x1="51.53" y1="51.81" x2="51.75" y2="52.01"/>
        <line class="cls-4" x1="51.75" y1="52.04" x2="51.81" y2="52.01"/>
        <line class="cls-4" x1="51.81" y1="52.04" x2="51.84" y2="52.02"/>
        <line class="cls-4" x1="51.54" y1="50.41" x2="51.56" y2="50.39"/>
        <line class="cls-4" x1="51.54" y1="50.41" x2="51.31" y2="50.71"/>
        <line class="cls-4" x1="39.63" y1="43.75" x2="39.38" y2="43.85"/>
        <line class="cls-4" x1="39.3" y1="43.88" x2="39.33" y2="43.88"/>
        <polyline class="cls-4" points="43.82 54.57 43.88 54.71 44 54.79 44.06 54.8"/>
        <line class="cls-4" x1="44.06" y1="54.8" x2="44.16" y2="54.77"/>
        <line class="cls-4" x1="45.15" y1="52.82" x2="45.23" y2="52.8"/>
        <polyline class="cls-4" points="45.23 52.8 45.36 52.83 45.47 52.97 45.48 53"/>
        <polyline class="cls-4" points="46.14 53.87 46.48 54.01 46.84 54.11 47.2 54.2"/>
        <polyline class="cls-4" points="47.2 54.2 47.67 54.26 48.15 54.27"/>
        <line class="cls-4" x1="48.15" y1="54.27" x2="48.29" y2="54.27"/>
        <line class="cls-4" x1="48.29" y1="54.27" x2="48.43" y2="54.26"/>
        <polyline class="cls-4" points="48.43 54.26 48.8 54.21 49.16 54.13 49.53 54.01 49.88 53.87 50.22 53.7"/>
        <line class="cls-4" x1="50.22" y1="53.7" x2="50.34" y2="53.64"/>
        <line class="cls-4" x1="50.66" y1="51.7" x2="50.72" y2="51.68"/>
        <line class="cls-4" x1="50.72" y1="51.68" x2="50.74" y2="51.68"/>
        <polyline class="cls-4" points="43.18 48.58 43.13 48.63 43.1 48.71 43.1 48.79"/>
        <polyline class="cls-4" points="62.78 67.77 61.99 68.27 61.13 68.64 60.23 68.85 59.31 68.9"/>
        <polyline class="cls-4" points="63.12 67.49 63.3 67.32 63.48 67.14"/>
        <polyline class="cls-4" points="62.78 67.77 62.95 67.63 63.12 67.49"/>
        <line class="cls-4" x1="25.2" y1="45.09" x2="25.38" y2="44.97"/>
        <polyline class="cls-4" points="21.66 51.73 21.74 50.65 21.96 49.57 22.31 48.53 22.47 48.18"/>
        <polyline class="cls-4" points="22.64 47.86 22.55 48.01 22.47 48.18"/>
        <polyline class="cls-4" points="23.31 46.82 22.95 47.32 22.64 47.86"/>
        <polyline class="cls-4" points="23.73 46.32 23.51 46.57 23.31 46.82"/>
        <polyline class="cls-4" points="25.2 45.09 24.8 45.37 24.42 45.66 24.07 45.98 23.73 46.32"/>
        <polyline class="cls-4" points="37.6 59.53 39.17 59.96 40.76 60.36 42.35 60.73 43.95 61.08 45.56 61.38 47.17 61.65"/>
        <line class="cls-4" x1="47.82" y1="61.76" x2="47.18" y2="61.65"/>
        <polyline class="cls-4" points="47.82 61.76 49.33 61.97 50.85 62.16 52.36 62.31 53.89 62.43 55.4 62.53 56.93 62.6"/>
        <line class="cls-4" x1="54.01" y1="39.7" x2="53.54" y2="39.72"/>
        <line class="cls-4" x1="54.01" y1="39.7" x2="53.39" y2="39.75"/>
        <polyline class="cls-4" points="51.22 40.28 51.05 40.27 50.89 40.27"/>
        <line class="cls-4" x1="56.51" y1="61.87" x2="56.7" y2="61.88"/>
        <line class="cls-4" x1="56.7" y1="61.88" x2="56.73" y2="61.88"/>
        <line class="cls-4" x1="50.37" y1="53.61" x2="50.44" y2="53.57"/>
        <line class="cls-4" x1="51.84" y1="52.02" x2="51.91" y2="51.98"/>
        <line class="cls-4" x1="51.56" y1="50.39" x2="51.64" y2="50.35"/>
        <polyline class="cls-4" points="53.97 39.73 50.27 40.49 46.64 41.41 43.09 42.5 39.63 43.76"/>
        <polyline class="cls-4" points="39.3 43.88 38.12 44.36 36.97 44.86"/>
        <line class="cls-4" x1="36.82" y1="44.92" x2="36.83" y2="44.91"/>
        <line class="cls-4" x1="36.83" y1="44.91" x2="36.97" y2="44.86"/>
        <path class="cls-4" d="M30.08,49.74c-.78,1.46-.52,3.29.58,4.52"/>
        <polyline class="cls-4" points="30.66 54.27 30.91 54.52 31.18 54.76 31.47 54.97 31.56 55.03 32.39 55.54 33.22 56.03 34.07 56.5 34.93 56.95 35.07 57.01 35.85 57.39 36.67 57.73 37.48 58.06 38.31 58.35"/>
        <polyline class="cls-4" points="38.31 58.35 38.45 58.4 38.48 58.41 38.62 58.45"/>
        <polyline class="cls-4" points="38.62 58.45 39.95 58.87 41.28 59.26 42.63 59.63"/>
        <polyline class="cls-4" points="42.63 59.63 46.06 60.43 49.36 61.04 53.01 61.55 56.51 61.87"/>
        <polyline class="cls-4" points="33.68 46.62 32.93 47.13 32.2 47.67 31.5 48.24 30.82 48.84"/>
        <line class="cls-4" x1="33.68" y1="46.62" x2="33.77" y2="46.56"/>
        <line class="cls-4" x1="30.74" y1="48.9" x2="30.82" y2="48.84"/>
        <polyline class="cls-4" points="30.74 48.9 30.49 49.16 30.27 49.44 30.08 49.74"/>
        <polyline class="cls-4" points="36.68 44.98 35.94 45.33 35.21 45.71 34.5 46.11 33.8 46.54"/>
        <line class="cls-4" x1="36.68" y1="44.98" x2="36.82" y2="44.92"/>
        <line class="cls-4" x1="33.77" y1="46.56" x2="33.8" y2="46.54"/>
        <polyline class="cls-4" points="57.93 61.5 58.1 61.36 58.26 61.19 58.4 61.01 58.5 60.82 58.6 60.61 58.66 60.39"/>
        <polyline class="cls-4" points="56.73 61.88 56.98 61.88 57.22 61.84 57.46 61.77 57.68 61.67 57.89 61.54"/>
        <line class="cls-4" x1="39.33" y1="43.88" x2="39.38" y2="43.85"/>
        <polyline class="cls-4" points="56.1 40.78 55.79 40.36 55.4 40.03 54.93 39.8 54.41 39.7 53.97 39.73"/>
        <polyline class="cls-4" points="58.66 60.39 59.09 58.31 59.37 56.21 59.48 54.09 59.42 51.97 59.25 50.29"/>
        <line class="cls-4" x1="57.89" y1="61.54" x2="57.93" y2="61.5"/>
        <polyline class="cls-4" points="59.25 50.29 58.89 48.22 58.37 46.17 57.69 44.19 56.95 42.44 56.1 40.78"/>
        <path class="cls-4" d="M57.36,35.33c2.51-.04,4.83,1.45,5.92,3.69"/>
        <path class="cls-4" d="M63.28,39.02l.9,2.25.76,2.31.61,2.36.45,2.4.29,2.42.13,2.45-.04,2.46-.2,2.47-.28,2.03-.53,2.61-.5,1.91s-.36,1.19-.8,1.71l-.28.38-.3.36"/>
        <polyline class="cls-4" points="25.38 44.97 25.23 45.07 25.07 45.17"/>
        <line class="cls-4" x1="43.18" y1="48.58" x2="43.25" y2="48.53"/>
        <line class="cls-4" x1="44.16" y1="54.77" x2="44.23" y2="54.72"/>
        <polyline class="cls-4" points="41.89 23.74 42.01 23.5 42.1 23.24"/>
        <polyline class="cls-4" points="42.1 23.25 42.15 23 42.18 22.75"/>
        <polyline class="cls-4" points="5.25 14.51 5.3 14.63 5.51 14.72"/>
        <polyline class="cls-4" points="5.51 14.72 6.43 15.07 6.99 15.36 7.75 15.82 8.55 16.41"/>
        <polyline class="cls-4" points="8.55 16.41 9.43 17.19 10.26 18.04 11.29 19.25 11.51 19.54"/>
        <line class="cls-4" x1="11.51" y1="19.54" x2="11.64" y2="19.7"/>
        <polyline class="cls-4" points="13.08 21.8 12.38 20.73 11.64 19.7"/>
        <line class="cls-4" x1="13.08" y1="21.8" x2="13.19" y2="21.97"/>
        <polyline class="cls-4" points="14.7 24.64 14.22 23.74 13.71 22.85 13.19 21.97"/>
        <polyline class="cls-4" points="16.14 27.61 15.44 26.11 14.7 24.64"/>
        <polyline class="cls-4" points="17.53 30.93 17.09 29.81 16.63 28.7 16.14 27.61"/>
        <polyline class="cls-4" points="17.53 30.93 17.94 31.81 18.51 32.66 19.18 33.43 19.98 34.11 20.42 34.4 20.89 34.67"/>
        <polyline class="cls-4" points="20.89 34.67 21.65 34.98 22.43 35.18 23.22 35.25 24.01 35.19 24.34 35.12"/>
        <polyline class="cls-4" points="24.34 35.12 24.74 35 25.12 34.84 25.49 34.65 25.84 34.43"/>
        <polyline class="cls-4" points="20.3 25.61 19.99 24.93 19.67 24.25"/>
        <polyline class="cls-4" points="19.67 24.26 19.14 23.18 18.59 22.12 18.02 21.06"/>
        <line class="cls-4" x1="17.99" y1="21.06" x2="18.02" y2="21"/>
        <polyline class="cls-4" points="17.99 21 17.48 20.11 16.5 18.56 15.52 17.17"/>
        <polyline class="cls-4" points="15.52 17.17 14.55 15.94 13.55 14.87 12.57 13.96 11.57 13.19 10.56 12.6"/>
        <line class="cls-4" x1="37.05" y1="18.51" x2="36.72" y2="17.87"/>
        <polyline class="cls-4" points="21.55 26.9 22.11 27.13 22.7 27.24 23.3 27.23 23.49 27.19"/>
        <polyline class="cls-4" points="20.3 25.61 20.56 26.06 20.93 26.47 21.38 26.8 21.55 26.9"/>
        <polyline class="cls-4" points="25.61 32.5 27.55 31.13 29.51 29.8 31.48 28.48 33.47 27.19 38.24 24.37 40.62 22.96 41.44 22.33 41.77 21.95 41.93 21.66 42.05 21.39 42.1 21.21 42.13 21.02 42.13 20.92"/>
        <polyline class="cls-4" points="25.61 32.49 25.23 32.73 24.61 32.99 23.95 33.15 23.33 33.19 22.71 33.15 22.09 33.02 21.24 32.7 21.19 32.67"/>
        <polyline class="cls-4" points="14.74 22.12 15.37 23.27 15.97 24.45 16.55 25.63 17.09 26.83 18.16 29.39 18.33 29.78 18.52 30.14 18.74 30.5 18.97 30.84 19.23 31.16 19.52 31.47 19.82 31.75 20.14 32.01 20.47 32.26 20.83 32.48 21.19 32.67"/>
        <polyline class="cls-4" points="10.81 11.97 10.49 12.17 10.37 12.37"/>
        <polyline class="cls-4" points="10.37 12.37 10.42 12.49 10.56 12.6"/>
        <polyline class="cls-4" points="23.49 27.19 23.8 27.11 24.09 26.98"/>
        <polyline class="cls-4" points="30.17 23.72 27.12 25.33 24.09 26.98"/>
        <line class="cls-4" x1="30.17" y1="23.72" x2="30.74" y2="23.42"/>
        <polyline class="cls-4" points="36.26 20.65 33.49 22.02 30.74 23.42"/>
        <polyline class="cls-4" points="36.26 20.65 36.34 20.61 36.41 20.57"/>
        <polyline class="cls-4" points="36.41 20.57 36.66 20.39 36.86 20.19 37.03 19.96 37.14 19.72"/>
        <polyline class="cls-4" points="37.14 19.72 37.2 19.49 37.23 19.27"/>
        <polyline class="cls-4" points="37.23 19.27 37.21 19.01 37.15 18.76 37.05 18.51"/>
        <line class="cls-4" x1="35.57" y1="16.86" x2="35.66" y2="16.82"/>
        <polyline class="cls-4" points="23.9 22.41 29.74 19.65 35.57 16.86"/>
        <line class="cls-4" x1="23.81" y1="22.45" x2="23.9" y2="22.41"/>
        <line class="cls-4" x1="35.67" y1="16.96" x2="35.66" y2="16.82"/>
        <line class="cls-4" x1="23.81" y1="22.53" x2="35.67" y2="16.96"/>
        <line class="cls-4" x1="23.81" y1="22.53" x2="23.81" y2="22.45"/>
        <line class="cls-4" x1="12.3" y1="8.48" x2="12.32" y2="8.47"/>
        <line class="cls-4" x1="42.22" y1="21.61" x2="42.22" y2="21.57"/>
        <polyline class="cls-4" points="42.22 21.57 42.21 21.47 42.21 21.37"/>
        <g>
          <polyline class="cls-4" points="31.39 30.57 29.52 31.84 27.67 33.12 25.84 34.43"/>
          <line class="cls-4" x1="31.39" y1="30.57" x2="31.7" y2="30.36"/>
          <polyline class="cls-4" points="37.61 26.6 35.63 27.83 33.66 29.09 31.7 30.36"/>
          <polyline class="cls-4" points="41.11 24.51 39.36 25.54 37.62 26.6"/>
        </g>
        <g>
          <polyline class="cls-4" points="31.53 30.65 29.66 31.92 27.81 33.2 25.98 34.51"/>
          <line class="cls-4" x1="31.53" y1="30.65" x2="31.84" y2="30.45"/>
          <polyline class="cls-4" points="37.76 26.68 35.77 27.92 33.8 29.17 31.84 30.45"/>
          <polyline class="cls-4" points="40.68 24.92 39.51 25.63 37.76 26.68"/>
        </g>
        <polyline class="cls-4" points="41.11 24.51 41.34 24.35 41.55 24.17 41.73 23.97 41.89 23.74"/>
        <polyline class="cls-4" points="36.53 15.94 36.48 15.69 36.39 15.45 36.26 15.23"/>
        <polyline class="cls-4" points="36.26 15.23 34.42 12.66 32.6 10.25 31.55 8.99 30.93 8.23 30.4 7.37 29.97 6.4 29.71 5.61"/>
        <polyline class="cls-4" points="29.71 5.61 29.47 5.03 29.07 4.51 28.57 4.1 28.06 3.89 27.95 3.85 27.9 3.84 27.55 3.79 27.2 3.74 26.85 3.74 26.5 3.76 26.15 3.8 25.8 3.87 25.47 3.97"/>
        <polyline class="cls-4" points="36.83 20.22 36.73 18.06 36.53 15.94"/>
        <polyline class="cls-4" points="25.47 3.97 19.23 6.06 13.01 8.18"/>
        <polyline class="cls-4" points="12.32 8.47 12.1 8.59 11.9 8.73 11.73 8.89 11.57 9.07 11.44 9.28 11.34 9.5 11.27 9.73"/>
        <polyline class="cls-4" points="13.01 8.18 12.65 8.32 12.3 8.48"/>
        <polyline class="cls-4" points="10.73 12.68 10.91 11.29 11.27 9.73"/>
        <polyline class="cls-4" points="5.3 13.31 5.39 13.01 5.62 12.74 6.02 12.51 6.73 12.24 7 12.16"/>
        <polyline class="cls-4" points="10.96 11.03 8.97 11.59 7 12.16"/>
        <polyline class="cls-4" points="42 20.53 40.79 17.96 39.55 15.6 38.26 13.46 37.17 11.88 36.26 10.72 35.36 9.72 34.5 8.9 33.7 8.26 32.73 7.62 31.72 7.13 30.87 6.84 30.07 6.67"/>
        <polyline class="cls-4" points="42.21 21.37 42.2 21.3 42.16 21.04 42.09 20.78 42 20.53"/>
        <line class="cls-4" x1="42.22" y1="21.61" x2="42.18" y2="22.75"/>
        <line class="cls-4" x1="5.3" y1="13.31" x2="5.25" y2="14.51"/>
        <line class="cls-4" x1="61.55" y1="81.08" x2="50.99" y2="81.26"/>
        <line class="cls-4" x1="37.5" y1="81.48" x2="28.67" y2="81.63"/>
        <polyline class="cls-4" points="28.67 81.63 28.41 81.65 28.13 81.69 27.87 81.76 27.61 81.85 27.37 81.97 27.13 82.11 26.92 82.28 26.71 82.47 26.53 82.67 26.37 82.89 26.24 83.13 26.12 83.37 26.03 83.63 25.96 83.9 25.92 84.17 25.91 84.44"/>
        <line class="cls-4" x1="25.91" y1="84.49" x2="25.91" y2="84.44"/>
        <line class="cls-4" x1="25.91" y1="84.49" x2="26.13" y2="97.78"/>
        <polyline class="cls-4" points="26.13 97.78 26.15 98.05 26.2 98.32 26.26 98.59 26.35 98.84 26.48 99.09 26.62 99.32 26.79 99.54 26.97 99.73 27.18 99.92 27.4 100.08 27.64 100.22 27.88 100.34 28.14 100.42 28.41 100.49 28.67 100.53 28.95 100.54"/>
        <line class="cls-4" x1="28.95" y1="100.54" x2="28.99" y2="100.54"/>
        <line class="cls-4" x1="28.99" y1="100.54" x2="61.86" y2="99.99"/>
        <polyline class="cls-4" points="61.86 99.99 62.13 99.98 62.41 99.93 62.68 99.85 62.93 99.76 63.18 99.63 63.41 99.49 63.63 99.32 63.83 99.13 64.02 98.92 64.18 98.7 64.32 98.46 64.43 98.21 64.52 97.94 64.58 97.67 64.62 97.4 64.63 97.12"/>
        <line class="cls-4" x1="64.63" y1="97.12" x2="64.4" y2="83.86"/>
        <polyline class="cls-4" points="64.4 83.86 64.38 83.58 64.34 83.31 64.28 83.04 64.18 82.79 64.06 82.54 63.92 82.32 63.75 82.09 63.56 81.89 63.36 81.71 63.15 81.54 62.91 81.41 62.66 81.29 62.4 81.2 62.14 81.13 61.86 81.09 61.6 81.08"/>
        <line class="cls-4" x1="61.55" y1="81.08" x2="61.6" y2="81.08"/>
        <polyline class="cls-4" points="17.32 30.99 16.04 27.98 15.55 26.86 14.76 25.22"/>
        <polyline class="cls-4" points="14.76 25.22 14.26 24.25 13.73 23.3 13.18 22.36 12.59 21.44 11.98 20.53"/>
        <polyline class="cls-4" points="11.98 20.53 11.13 19.39 10.27 18.35 9.14 17.18 8.01 16.22 7.44 15.83 6.86 15.47 6.3 15.18"/>
        <polyline class="cls-4" points="6.3 15.18 6.07 15.07 5.83 14.96"/>
        <line class="cls-4" x1="5.83" y1="14.96" x2="5.3" y2="14.75"/>
        <polyline class="cls-4" points="5.3 14.75 5.08 14.64 5 14.59 4.99 14.56 4.98 14.51 5 14.45 5.17 14.32"/>
        <line class="cls-4" x1="5.17" y1="14.32" x2="5.25" y2="14.27"/>
        <polyline class="cls-4" points="40.68 24.92 41.31 24.51 41.59 24.3 41.94 23.94 42.19 23.57 42.36 23.06 42.4 22.59 42.37 22.31 42.21 21.75"/>
        <path class="cls-4" d="M57.25,35.16c2.63-.04,5.05,1.49,6.21,3.85"/>
        <polyline class="cls-4" points="57.25 35.16 53.74 35.42 50.27 35.85 46.84 36.45 43.46 37.22 40.13 38.16"/>
        <path class="cls-4" d="M62.02,68.55s.92-.53,1.2-.75c.08-.06.29-.28.29-.28l.28-.3.25-.32.23-.34"/>
        <polyline class="cls-4" points="64.28 66.56 64.48 66.23 64.66 65.88 64.82 65.52 64.96 65.14 65.07 64.76"/>
        <polyline class="cls-4" points="66.57 51.58 66.4 49.62 66.11 47.69 65.72 45.78 65.23 43.89 64.85 42.65 64.43 41.42 63.45 39.01"/>
        <polyline class="cls-4" points="65.07 64.76 65.74 62.1 66.23 59.43 66.53 56.79 66.65 54.17 66.57 51.59"/>
        <polyline class="cls-4" points="25.98 34.51 25.31 34.89 24.86 35.08 24.08 35.28 23.26 35.36 22.38 35.28 21.5 35.05 20.86 34.79"/>
        <polyline class="cls-4" points="19.03 33.5 19.36 33.81 19.71 34.08 20.08 34.34 20.47 34.58 20.86 34.79"/>
        <polyline class="cls-4" points="18.19 32.52 18.59 33.03 19.03 33.5"/>
        <polyline class="cls-4" points="17.32 30.99 17.5 31.39 17.71 31.79 17.94 32.16 18.19 32.52"/>
        <line class="cls-4" x1="63.45" y1="39.01" x2="63.31" y2="39.1"/>
        <polyline class="cls-4" points="40.13 38.16 38.84 38.57 37.55 39.02 36.28 39.48 35.02 39.96 33.77 40.47 32.53 41.02 31.3 41.58 30.08 42.17 28.87 42.78 27.68 43.41 26.5 44.07 25.32 44.75 24.98 44.97 24.71 45.15"/>
        <line class="cls-4" x1="24.71" y1="45.15" x2="24.55" y2="45.25"/>
        <polyline class="cls-4" points="25.78 60.05 24.81 59.45 23.98 58.76 23.2 57.99 22.54 57.12 22.02 56.24 21.59 55.31 21.27 54.35 21.05 53.36 20.96 52.35 20.98 51.35 21.11 50.37 21.4 49.3 21.81 48.29 22.37 47.35 23.05 46.51 23.76 45.83 24.55 45.25"/>
        <polyline class="cls-4" points="25.78 60.05 29.27 61.81 32.84 63.41 36.48 64.82 40.18 66.05 43.92 67.08 47.69 67.93 51.48 68.58 55.28 69.03 59.07 69.28"/>
        <polyline class="cls-4" points="62.02 68.55 61.35 68.89 60.66 69.13 59.87 69.26 59.07 69.28"/>
        <polyline class="cls-4" points="30.64 15.63 30.57 15.16 30.26 14.72 29.74 14.35 29.05 14.07 28.26 13.92 27.4 13.9 26.56 14.01"/>
        <polyline class="cls-4" points="28.82 17.13 29.54 16.88 30.11 16.53 30.49 16.1 30.64 15.63"/>
        <line class="cls-4" x1="28.82" y1="17.13" x2="28.78" y2="17.58"/>
        <polyline class="cls-4" points="28.78 17.58 29.5 17.32 30.07 16.96 30.45 16.54 30.61 16.08"/>
        <polyline class="cls-4" points="26.2 14.38 26.25 14.79 26.44 15.27 26.76 15.8 27.18 16.3 27.65 16.73 28.11 17.03 28.52 17.17 28.82 17.13"/>
        <polyline class="cls-4" points="26.56 14.01 26.3 14.11 26.2 14.38"/>
        <polyline class="cls-4" points="26.15 14.83 26.2 15.22 26.4 15.72 26.73 16.24 27.15 16.75 27.61 17.17 28.07 17.47 28.47 17.61 28.78 17.58"/>
        <polyline class="cls-4" points="26.91 14.68 26.96 15 27.14 15.41 27.43 15.82 27.79 16.2 28.16 16.48 28.5 16.62 28.74 16.6"/>
        <polyline class="cls-4" points="27.17 14.42 26.98 14.48 26.91 14.68"/>
        <line class="cls-4" x1="27.17" y1="14.42" x2="27.13" y2="14.85"/>
        <polyline class="cls-4" points="27.13 14.85 27.02 14.88 26.93 14.94"/>
        <polyline class="cls-4" points="30.02 15.56 29.95 15.17 29.65 14.82 29.16 14.55 28.54 14.38 27.85 14.33 27.17 14.42"/>
        <polyline class="cls-4" points="28.74 16.6 29.25 16.43 29.65 16.18 29.91 15.88 30.02 15.56"/>
        <polyline class="cls-4" points="29.96 15.77 29.79 15.44 29.45 15.15 28.96 14.93 28.37 14.8 27.75 14.78 27.13 14.85"/>
        <g>
          <line class="cls-4" x1="23.29" y1="15.93" x2="23.3" y2="16.45"/>
          <line class="cls-4" x1="25.24" y1="14.92" x2="23.29" y2="15.93"/>
          <line class="cls-4" x1="25.4" y1="15.16" x2="25.24" y2="14.92"/>
          <line class="cls-4" x1="25.4" y1="15.16" x2="25.41" y2="15.64"/>
          <line class="cls-4" x1="23.45" y1="16.17" x2="25.4" y2="15.16"/>
          <line class="cls-4" x1="23.45" y1="16.17" x2="23.46" y2="16.68"/>
          <line class="cls-4" x1="23.46" y1="16.68" x2="23.7" y2="16.56"/>
          <line class="cls-4" x1="23.29" y1="15.93" x2="23.45" y2="16.17"/>
          <line class="cls-4" x1="23.3" y1="16.45" x2="23.46" y2="16.68"/>
          <line class="cls-4" x1="23.7" y1="16.53" x2="23.71" y2="17.05"/>
          <line class="cls-4" x1="25.64" y1="15.52" x2="23.7" y2="16.53"/>
          <line class="cls-4" x1="25.81" y1="15.76" x2="25.64" y2="15.52"/>
          <line class="cls-4" x1="25.81" y1="15.76" x2="25.82" y2="16.26"/>
          <line class="cls-4" x1="23.85" y1="16.77" x2="25.81" y2="15.76"/>
          <line class="cls-4" x1="23.85" y1="16.77" x2="23.87" y2="17.3"/>
          <line class="cls-4" x1="23.87" y1="17.3" x2="24.1" y2="17.18"/>
          <line class="cls-4" x1="23.7" y1="16.53" x2="23.85" y2="16.77"/>
          <line class="cls-4" x1="23.71" y1="17.05" x2="23.87" y2="17.3"/>
          <line class="cls-4" x1="24.1" y1="17.15" x2="24.12" y2="17.66"/>
          <line class="cls-4" x1="26.06" y1="16.14" x2="24.1" y2="17.15"/>
          <line class="cls-4" x1="26.21" y1="16.37" x2="26.06" y2="16.14"/>
          <line class="cls-4" x1="26.21" y1="16.37" x2="26.22" y2="16.86"/>
          <line class="cls-4" x1="24.26" y1="17.38" x2="26.21" y2="16.37"/>
          <line class="cls-4" x1="24.26" y1="17.38" x2="24.27" y2="17.9"/>
          <line class="cls-4" x1="24.27" y1="17.9" x2="24.51" y2="17.78"/>
          <line class="cls-4" x1="24.1" y1="17.15" x2="24.26" y2="17.38"/>
          <line class="cls-4" x1="24.12" y1="17.66" x2="24.27" y2="17.9"/>
          <line class="cls-4" x1="24.51" y1="17.75" x2="24.52" y2="18.26"/>
          <line class="cls-4" x1="26.46" y1="16.74" x2="24.51" y2="17.75"/>
          <line class="cls-4" x1="26.62" y1="16.97" x2="26.46" y2="16.74"/>
          <line class="cls-4" x1="26.62" y1="16.97" x2="26.63" y2="17.47"/>
          <line class="cls-4" x1="24.67" y1="17.99" x2="26.62" y2="16.97"/>
          <line class="cls-4" x1="24.67" y1="17.99" x2="24.68" y2="18.51"/>
          <line class="cls-4" x1="24.68" y1="18.51" x2="24.91" y2="18.38"/>
          <line class="cls-4" x1="24.51" y1="17.75" x2="24.67" y2="17.99"/>
          <line class="cls-4" x1="24.52" y1="18.26" x2="24.68" y2="18.51"/>
          <line class="cls-4" x1="24.92" y1="18.35" x2="24.92" y2="18.88"/>
          <line class="cls-4" x1="26.86" y1="17.35" x2="24.92" y2="18.35"/>
          <line class="cls-4" x1="27.02" y1="17.59" x2="26.86" y2="17.35"/>
          <line class="cls-4" x1="27.02" y1="17.59" x2="27.04" y2="18.1"/>
          <line class="cls-4" x1="25.07" y1="18.59" x2="27.02" y2="17.59"/>
          <line class="cls-4" x1="25.07" y1="18.59" x2="25.08" y2="19.11"/>
          <line class="cls-4" x1="25.08" y1="19.11" x2="27.04" y2="18.1"/>
          <line class="cls-4" x1="24.92" y1="18.35" x2="25.07" y2="18.59"/>
          <line class="cls-4" x1="24.92" y1="18.88" x2="25.08" y2="19.11"/>
        </g>
        <line class="cls-4" x1="30.64" y1="15.63" x2="30.61" y2="16.08"/>
        <line class="cls-4" x1="26.2" y1="14.38" x2="26.15" y2="14.83"/>
        <polyline class="cls-4" points="5.67 12.73 6.79 13.24 7.35 13.56 8.24 14.08 9.32 14.85 10.37 15.77 11.27 16.79 11.93 17.75 12.2 18.15 13.04 19.35 13.9 20.67 14.74 22.12"/>
        <line class="cls-5" x1="70.85" y1="30.57" x2="70.54" y2="30.36"/>
        <line class="cls-5" x1="70.71" y1="30.65" x2="70.4" y2="30.45"/>
        <ellipse class="cls-4" cx="34.66" cy="51.52" rx="2.35" ry="2.57" transform="translate(-22.65 27.62) rotate(-33.43)"/>
        <path class="cls-4" d="M27.95,55.13c1.51,1.96,3.74,3.11,5.99,4.06"/>
        <rect class="cls-2" x=".09" y=".09" width="74.32" height="104.77"/>
      </g>
    </g>
  </g>
</svg>