<?xml version="1.0" encoding="UTF-8"?>
<svg id="_图层_2" data-name="图层 2" xmlns="http://www.w3.org/2000/svg" viewBox="0 0 5.12 5.12">
  <defs>
    <style>
      .cls-1 {
        fill: none;
        stroke: #595757;
        stroke-linecap: square;
        stroke-miterlimit: 10;
        stroke-width: .28px;
      }
    </style>
  </defs>
  <g id="_图层_1-2" data-name="图层 1">
    <polygon class="cls-1" points="4.97 2.55 4.93 2.14 4.82 1.73 4.64 1.35 4.4 1 4.1 .7 3.75 .46 3.37 .28 2.98 .17 2.55 .14 2.14 .17 1.73 .28 1.35 .46 1 .7 .7 1 .46 1.35 .28 1.73 .17 2.14 .14 2.55 .17 2.98 .28 3.39 .46 3.77 .7 4.11 1 4.41 1.35 4.65 1.73 4.84 2.14 4.95 2.55 4.98 2.98 4.95 3.37 4.84 3.75 4.65 4.1 4.41 4.4 4.11 4.64 3.77 4.82 3.39 4.93 2.98 4.97 2.55 4.97 2.55"/>
  </g>
</svg>