<?xml version="1.0" encoding="UTF-8"?>
<svg id="_图层_2" data-name="图层 2" xmlns="http://www.w3.org/2000/svg" viewBox="0 0 10.37 5.54">
  <defs>
    <style>
      .cls-1 {
        fill: none;
        stroke: #595757;
        stroke-linecap: square;
        stroke-miterlimit: 10;
        stroke-width: .28px;
      }
    </style>
  </defs>
  <g id="_图层_1-2" data-name="图层 1">
    <g>
      <line class="cls-1" x1=".14" y1="2.73" x2="1.71" y2="2.73"/>
      <line class="cls-1" x1=".88" y1="5.35" x2="2.3" y2="4.7"/>
      <line class="cls-1" x1=".6" y1=".17" x2="2.11" y2=".59"/>
      <polyline class="cls-1" points="3.04 4.38 3.37 4.33 3.7 4.21 3.99 4.04 4.24 3.81 4.44 3.53 4.59 3.22 4.67 2.89 4.68 2.55 4.62 2.21 4.51 1.88 4.33 1.59 4.1 1.35 3.82 1.14 3.51 .99 3.19 .91 2.85 .9"/>
      <polyline class="cls-1" points="2.85 .9 2.7 1.47 2.62 2.07 2.6 2.65 2.68 3.26 2.82 3.83 3.04 4.38"/>
      <line class="cls-1" x1="10.22" y1="2.73" x2="8.67" y2="2.73"/>
      <line class="cls-1" x1="9.5" y1="5.35" x2="8.07" y2="4.7"/>
      <line class="cls-1" x1="9.78" y1=".17" x2="8.25" y2=".59"/>
      <polyline class="cls-1" points="7.53 .9 7.19 .91 6.85 .99 6.54 1.14 6.27 1.35 6.04 1.59 5.87 1.88 5.74 2.21 5.7 2.55 5.71 2.89 5.79 3.22 5.93 3.53 6.13 3.81 6.39 4.04 6.68 4.21 7.01 4.33 7.33 4.38"/>
      <polyline class="cls-1" points="7.33 4.38 7.55 3.83 7.7 3.26 7.76 2.65 7.76 2.07 7.68 1.47 7.53 .9"/>
    </g>
  </g>
</svg>