<?xml version="1.0" encoding="UTF-8"?>
<svg id="_图层_2" data-name="图层 2" xmlns="http://www.w3.org/2000/svg" viewBox="0 0 10.14 9.56">
  <defs>
    <style>
      .cls-1 {
        fill: none;
        stroke: #595757;
        stroke-linecap: square;
        stroke-miterlimit: 10;
        stroke-width: .28px;
      }
    </style>
  </defs>
  <g id="_图层_1-2" data-name="图层 1">
    <g>
      <polygon class="cls-1" points="7.37 4.47 7.32 4.03 7.19 3.59 6.97 3.2 6.69 2.84 6.33 2.56 5.94 2.34 5.5 2.23 5.06 2.19 4.62 2.23 4.18 2.34 3.79 2.56 3.44 2.84 3.15 3.2 2.95 3.59 2.82 4.03 2.78 4.47 2.82 4.91 2.95 5.35 3.15 5.75 3.44 6.1 3.79 6.38 4.18 6.6 4.62 6.71 5.06 6.76 5.5 6.71 5.94 6.6 6.33 6.38 6.69 6.1 6.97 5.75 7.19 5.35 7.32 4.91 7.37 4.47 7.37 4.47"/>
      <line class="cls-1" x1="4.03" y1=".14" x2="4.03" y2="2.43"/>
      <line class="cls-1" x1="4.03" y1=".14" x2="6.11" y2=".14"/>
      <line class="cls-1" x1="6.11" y1=".14" x2="6.11" y2="2.43"/>
      <line class="cls-1" x1="5.06" y1="7.81" x2="5.06" y2="9.42"/>
      <line class="cls-1" x1="2.53" y1="6.65" x2="1.37" y2="7.72"/>
      <line class="cls-1" x1=".14" y1="4.47" x2="1.72" y2="4.47"/>
      <line class="cls-1" x1="1.46" y1="1.11" x2="2.53" y2="2.3"/>
      <line class="cls-1" x1="7.61" y1="6.65" x2="8.77" y2="7.72"/>
      <line class="cls-1" x1="10" y1="4.47" x2="8.4" y2="4.47"/>
      <line class="cls-1" x1="8.66" y1="1.11" x2="7.59" y2="2.3"/>
    </g>
  </g>
</svg>