<?xml version="1.0" encoding="UTF-8"?>
<svg id="_图层_2" data-name="图层 2" xmlns="http://www.w3.org/2000/svg" viewBox="0 0 13.68 12.72">
  <defs>
    <style>
      .cls-1 {
        fill: none;
        stroke: #565757;
        stroke-linecap: square;
        stroke-miterlimit: 10;
        stroke-width: .23px;
      }
    </style>
  </defs>
  <g id="_图层_1-2" data-name="图层 1">
    <g>
      <line class="cls-1" x1="1.96" y1="5.25" x2="2.06" y2="5.1"/>
      <line class="cls-1" x1="5.16" y1="2.11" x2="5.31" y2="1.91"/>
      <line class="cls-1" x1="2.31" y1="5.34" x2="2.12" y2="5.55"/>
      <line class="cls-1" x1="4.55" y1="4.95" x2="4.71" y2="4.78"/>
      <line class="cls-1" x1="5.64" y1="2.06" x2="5.51" y2="2.19"/>
      <line class="cls-1" x1="4.94" y1="5.04" x2="4.73" y2="5.24"/>
      <line class="cls-1" x1="5.31" y1="1.91" x2="5.49" y2="1.76"/>
      <line class="cls-1" x1="6.83" y1="3.7" x2="7" y2="3.55"/>
      <line class="cls-1" x1="7.2" y1="3.83" x2="6.98" y2="4"/>
      <line class="cls-1" x1=".16" y1="5.17" x2="1.23" y2="4.37"/>
      <line class="cls-1" x1="1.44" y1="4.56" x2=".6" y2="5.2"/>
      <line class="cls-1" x1="1.11" y1="5.88" x2="1.96" y2="5.25"/>
      <line class="cls-1" x1="2.12" y1="5.55" x2="1.31" y2="6.15"/>
      <line class="cls-1" x1="2.03" y1="7.11" x2="1.76" y2="7.31"/>
      <line class="cls-1" x1="2.38" y1="3.55" x2="2.66" y2="3.37"/>
      <line class="cls-1" x1="3.8" y1="2.67" x2="4.09" y2="2.49"/>
      <line class="cls-1" x1="4.36" y1="5.07" x2="4.55" y2="4.95"/>
      <line class="cls-1" x1="4.73" y1="5.24" x2="4.54" y2="5.36"/>
      <line class="cls-1" x1="5.49" y1="1.76" x2="5.73" y2="1.63"/>
      <line class="cls-1" x1="5.94" y1="1.91" x2="5.64" y2="2.06"/>
      <line class="cls-1" x1="6.66" y1="1.87" x2="6.36" y2="2.02"/>
      <line class="cls-1" x1="5.99" y1="2.78" x2="6.29" y2="2.63"/>
      <line class="cls-1" x1="6.44" y1="2.93" x2="6.15" y2="3.08"/>
      <line class="cls-1" x1="5.55" y1="3.89" x2="5.85" y2="3.74"/>
      <line class="cls-1" x1="6.43" y1="3.9" x2="6.83" y2="3.7"/>
      <line class="cls-1" x1="6.98" y1="4" x2="6.58" y2="4.2"/>
      <line class="cls-1" x1="1.23" y1="4.37" x2="1.49" y2="4.25"/>
      <line class="cls-1" x1="7.17" y1=".95" x2="7.48" y2=".83"/>
      <polyline class="cls-1" points="8.94 .27 9.25 .15 10.21 2.65 9.9 2.77"/>
      <line class="cls-1" x1="7.87" y1="1.84" x2="9.33" y2="1.28"/>
      <line class="cls-1" x1="9.45" y1="1.6" x2="7.99" y2="2.16"/>
      <line class="cls-1" x1="8.45" y1="3.33" x2="8.13" y2="3.45"/>
      <line class="cls-1" x1="4.54" y1="5.36" x2="4.27" y2="5.45"/>
      <line class="cls-1" x1="1.61" y1="4.51" x2="1.44" y2="4.56"/>
      <line class="cls-1" x1="4.14" y1="5.13" x2="4.36" y2="5.07"/>
      <line class="cls-1" x1="5.51" y1="2.19" x2="5.41" y2="2.37"/>
      <line class="cls-1" x1=".91" y1="10.83" x2="2.25" y2="8.45"/>
      <line class="cls-1" x1="5.07" y1="4.83" x2="4.94" y2="5.04"/>
      <line class="cls-1" x1="7.35" y1="3.63" x2="7.2" y2="3.83"/>
      <line class="cls-1" x1="13.53" y1="3.82" x2="11.32" y2="5.23"/>
      <line class="cls-1" x1="3.27" y1="9.7" x2=".91" y2="10.83"/>
      <line class="cls-1" x1="2.38" y1="5.07" x2="2.31" y2="5.34"/>
      <line class="cls-1" x1="5.06" y1="2.41" x2="5.16" y2="2.11"/>
      <line class="cls-1" x1="4.71" y1="4.78" x2="4.79" y2="4.6"/>
      <line class="cls-1" x1="7" y1="3.55" x2="7.1" y2="3.37"/>
      <line class="cls-1" x1="2.06" y1="5.1" x2="2.08" y2="4.94"/>
      <line class="cls-1" x1="5.14" y1="4.52" x2="5.07" y2="4.83"/>
      <line class="cls-1" x1="7.45" y1="3.32" x2="7.35" y2="3.63"/>
      <line class="cls-1" x1="2.38" y1="4.79" x2="2.38" y2="5.07"/>
      <line class="cls-1" x1="4.79" y1="4.6" x2="4.8" y2="4.39"/>
      <line class="cls-1" x1="7.1" y1="3.37" x2="7.12" y2="3.17"/>
      <line class="cls-1" x1="5.11" y1="4.27" x2="5.14" y2="4.52"/>
      <line class="cls-1" x1="7.45" y1="3.07" x2="7.45" y2="3.32"/>
      <line class="cls-1" x1="11.32" y1="5.23" x2="11.43" y2="4.73"/>
      <line class="cls-1" x1="2.25" y1="8.45" x2="2.35" y2="9.02"/>
      <line class="cls-1" x1="2.08" y1="4.94" x2="2.02" y2="4.77"/>
      <line class="cls-1" x1="2.32" y1="4.62" x2="2.38" y2="4.79"/>
      <line class="cls-1" x1="5.12" y1="2.64" x2="5.06" y2="2.41"/>
      <line class="cls-1" x1="5.41" y1="2.37" x2="5.44" y2="2.54"/>
      <line class="cls-1" x1="5.01" y1="3.99" x2="5.11" y2="4.27"/>
      <line class="cls-1" x1="4.8" y1="4.39" x2="4.73" y2="4.17"/>
      <line class="cls-1" x1="1.76" y1="7.31" x2=".16" y2="5.17"/>
      <line class="cls-1" x1=".6" y1="5.2" x2="1.11" y2="5.88"/>
      <line class="cls-1" x1="1.31" y1="6.16" x2="2.03" y2="7.11"/>
      <line class="cls-1" x1="3.31" y1="5.05" x2="2.38" y2="3.55"/>
      <line class="cls-1" x1="2.66" y1="3.37" x2="3.59" y2="4.87"/>
      <line class="cls-1" x1="5.22" y1="2.85" x2="5.12" y2="2.64"/>
      <line class="cls-1" x1="5.44" y1="2.54" x2="5.49" y2="2.65"/>
      <line class="cls-1" x1="8.13" y1="3.45" x2="7.17" y2=".95"/>
      <line class="cls-1" x1="7.48" y1=".83" x2="7.87" y2="1.84"/>
      <line class="cls-1" x1="8" y1="2.16" x2="8.45" y2="3.33"/>
      <line class="cls-1" x1="2.02" y1="4.77" x2="1.92" y2="4.63"/>
      <line class="cls-1" x1="2.18" y1="4.43" x2="2.32" y2="4.62"/>
      <line class="cls-1" x1="4.73" y1="4.17" x2="3.8" y2="2.67"/>
      <line class="cls-1" x1="4.09" y1="2.49" x2="5.01" y2="3.99"/>
      <line class="cls-1" x1="7.12" y1="3.17" x2="7.05" y2="3.02"/>
      <line class="cls-1" x1="7.32" y1="2.82" x2="7.45" y2="3.07"/>
      <line class="cls-1" x1="9.9" y1="2.77" x2="9.45" y2="1.6"/>
      <line class="cls-1" x1="9.33" y1="1.28" x2="8.94" y2=".27"/>
      <line class="cls-1" x1="3.59" y1="4.87" x2="3.76" y2="5.04"/>
      <line class="cls-1" x1="3.5" y1="5.26" x2="3.31" y2="5.05"/>
      <line class="cls-1" x1="5.7" y1="4.07" x2="5.55" y2="3.89"/>
      <line class="cls-1" x1="5.37" y1="3.02" x2="5.22" y2="2.85"/>
      <line class="cls-1" x1="1.92" y1="4.64" x2="1.77" y2="4.53"/>
      <line class="cls-1" x1="2.04" y1="4.33" x2="2.18" y2="4.43"/>
      <line class="cls-1" x1="5.85" y1="3.74" x2="5.98" y2="3.87"/>
      <line class="cls-1" x1="5.49" y1="2.65" x2="5.62" y2="2.77"/>
      <line class="cls-1" x1="6.54" y1="1.74" x2="6.66" y2="1.87"/>
      <line class="cls-1" x1="2.79" y1="9.53" x2="3.27" y2="9.7"/>
      <line class="cls-1" x1="3.72" y1="5.4" x2="3.5" y2="5.26"/>
      <line class="cls-1" x1="5.98" y1="4.25" x2="5.7" y2="4.07"/>
      <line class="cls-1" x1="7.12" y1="2.66" x2="7.32" y2="2.82"/>
      <line class="cls-1" x1="6.36" y1="2.02" x2="6.26" y2="1.94"/>
      <line class="cls-1" x1="11.23" y1="4.1" x2="10.8" y2="3.71"/>
      <line class="cls-1" x1="3.76" y1="5.04" x2="3.94" y2="5.12"/>
      <line class="cls-1" x1="7.05" y1="3.02" x2="6.87" y2="2.91"/>
      <line class="cls-1" x1="4.03" y1="5.47" x2="3.72" y2="5.4"/>
      <line class="cls-1" x1="1.77" y1="4.25" x2="2.04" y2="4.33"/>
      <line class="cls-1" x1="5.98" y1="3.87" x2="6.2" y2="3.95"/>
      <line class="cls-1" x1="5.67" y1="3.13" x2="5.37" y2="3.02"/>
      <line class="cls-1" x1="6.82" y1="2.56" x2="7.12" y2="2.66"/>
      <line class="cls-1" x1="6.29" y1="1.61" x2="6.54" y2="1.74"/>
      <line class="cls-1" x1="1.49" y1="4.25" x2="1.77" y2="4.25"/>
      <line class="cls-1" x1="3.94" y1="5.12" x2="4.14" y2="5.13"/>
      <line class="cls-1" x1="6.3" y1="4.28" x2="5.98" y2="4.25"/>
      <line class="cls-1" x1="5.62" y1="2.77" x2="5.82" y2="2.8"/>
      <line class="cls-1" x1="6.87" y1="2.91" x2="6.67" y2="2.89"/>
      <text/>
      <line class="cls-1" x1="6.01" y1="1.56" x2="6.28" y2="1.61"/>
      <line class="cls-1" x1="6.26" y1="1.94" x2="6.11" y2="1.89"/>
      <line class="cls-1" x1="6.58" y1="4.2" x2="6.3" y2="4.28"/>
      <line class="cls-1" x1="6.2" y1="3.95" x2="6.43" y2="3.9"/>
      <line class="cls-1" x1="6.15" y1="3.08" x2="5.92" y2="3.13"/>
      <line class="cls-1" x1="5.82" y1="2.8" x2="5.99" y2="2.78"/>
      <line class="cls-1" x1="4.27" y1="5.45" x2="4.03" y2="5.47"/>
      <line class="cls-1" x1="5.92" y1="3.13" x2="5.67" y2="3.13"/>
      <line class="cls-1" x1="6.57" y1="2.55" x2="6.82" y2="2.56"/>
      <line class="cls-1" x1="10.8" y1="3.71" x2="13.53" y2="3.82"/>
      <line class="cls-1" x1="6.29" y1="2.63" x2="6.57" y2="2.56"/>
      <line class="cls-1" x1="5.74" y1="1.63" x2="6.01" y2="1.56"/>
      <line class="cls-1" x1="6.67" y1="2.89" x2="6.44" y2="2.93"/>
      <line class="cls-1" x1="6.11" y1="1.89" x2="5.94" y2="1.91"/>
      <path class="cls-1" d="M11.23,4.1c-3.26,1.04-6.27,2.71-8.87,4.93"/>
      <path class="cls-1" d="M11.43,4.73c-3.17,1.01-6.11,2.64-8.64,4.8"/>
    </g>
  </g>
</svg>