<?xml version="1.0" encoding="UTF-8"?>
<svg id="_图层_2" data-name="图层 2" xmlns="http://www.w3.org/2000/svg" viewBox="0 0 13.1 4.95">
  <defs>
    <style>
      .cls-1 {
        fill: none;
        stroke: #070001;
        stroke-linecap: square;
        stroke-miterlimit: 10;
        stroke-width: .12px;
      }
    </style>
  </defs>
  <g id="_图层_1-2" data-name="图层 1">
    <g>
      <line class="cls-1" x1=".37" y1="3.56" x2="1.03" y2="3.56"/>
      <line class="cls-1" x1="1.03" y1="3.56" x2="1.03" y2="4.89"/>
      <line class="cls-1" x1="1.03" y1="4.89" x2="13.04" y2="4.89"/>
      <line class="cls-1" x1="13.04" y1="4.89" x2="13.04" y2=".06"/>
      <line class="cls-1" x1="13.04" y1=".06" x2="1.03" y2=".06"/>
      <line class="cls-1" x1="1.03" y1=".06" x2="1.03" y2="1.4"/>
      <line class="cls-1" x1="1.03" y1="1.4" x2=".37" y2="1.4"/>
      <line class="cls-1" x1=".28" y1="1.44" x2=".37" y2="1.4"/>
      <line class="cls-1" x1=".17" y1="1.6" x2=".28" y2="1.44"/>
      <line class="cls-1" x1=".12" y1="1.71" x2=".17" y2="1.6"/>
      <line class="cls-1" x1=".08" y1="1.87" x2=".12" y2="1.71"/>
      <line class="cls-1" x1=".08" y1="1.87" x2=".08" y2="3.09"/>
      <line class="cls-1" x1=".08" y1="3.27" x2=".12" y2="3.09"/>
      <line class="cls-1" x1=".12" y1="3.4" x2=".19" y2="3.27"/>
      <line class="cls-1" x1=".19" y1="3.53" x2=".28" y2="3.4"/>
      <line class="cls-1" x1=".28" y1="3.56" x2=".37" y2="3.53"/>
      <line class="cls-1" x1="1.32" y1=".26" x2="1.32" y2="4.71"/>
      <line class="cls-1" x1="1.32" y1="4.71" x2="12.86" y2="4.71"/>
      <line class="cls-1" x1="12.86" y1="4.71" x2="12.86" y2=".26"/>
      <line class="cls-1" x1="12.86" y1=".26" x2="1.32" y2=".26"/>
      <line class="cls-1" x1=".26" y1="1.51" x2=".26" y2="1.51"/>
      <line class="cls-1" x1=".48" y1="3.29" x2="1.03" y2="3.29"/>
      <line class="cls-1" x1="1.03" y1="3.29" x2="1.03" y2="1.69"/>
      <line class="cls-1" x1="1.03" y1="1.69" x2=".48" y2="1.69"/>
      <line class="cls-1" x1=".37" y1="1.73" x2=".48" y2="1.69"/>
      <line class="cls-1" x1=".3" y1="1.87" x2=".37" y2="1.73"/>
      <line class="cls-1" x1=".3" y1="1.87" x2=".3" y2="3.16"/>
      <line class="cls-1" x1=".3" y1="3.27" x2=".37" y2="3.16"/>
      <line class="cls-1" x1=".37" y1="3.29" x2=".48" y2="3.27"/>
    </g>
  </g>
</svg>