<?xml version="1.0" encoding="UTF-8"?>
<svg id="_图层_2" data-name="图层 2" xmlns="http://www.w3.org/2000/svg" viewBox="0 0 43.05 32.72">
  <defs>
    <style>
      .cls-1 {
        fill: none;
        stroke: #54565a;
        stroke-linecap: round;
        stroke-linejoin: round;
        stroke-width: .1px;
      }
    </style>
  </defs>
  <g id="_图层_1-2" data-name="图层 1">
    <g>
      <path class="cls-1" d="M26.55,3.95L.76,13.39s-.89.24-.68,1.08c.21.83.46,1.77.6,2.13.14.35.44.38.64.33.2-.05,18.18-6.59,18.18-6.59l8.21-2.95"/>
      <path class="cls-1" d="M.68,16.56s.1.85.81.68c.7-.17,10.49-3.55,10.49-3.55l16.07-5.38"/>
      <path class="cls-1" d="M28.79,8.6c-2.49,3.22-15.67,20.27-16.13,20.95-.51.74-.35,1.07.03,1.44.38.37,1.3,1.1,1.68,1.33.38.24.67.16.9-.16.22-.29,15.3-20.07,17.16-22.52"/>
      <path class="cls-1" d="M14.11,32.14c.22.17.42.31.56.4.38.23.67.16.9-.16.21-.28,14.24-18.68,16.91-22.19"/>
      <path class="cls-1" d="M34.66,3.2c-.41-1.1-.85-2.22-1.02-2.57-.34-.69-.77-.64-1.35-.48-.57.16-4.45,1.62-4.85,1.76-.4.14-.57.38-.47.73"/>
      <path class="cls-1" d="M28.68,8.33c.11.34.36.84.86.68.73-.25,4.2-1.51,5.08-1.94.87-.43,1.11-.85.91-1.47-.06-.18-.21-.6-.4-1.13"/>
      <path class="cls-1" d="M34.59,4.3c.11.31.2.56.25.7.22.69-.35.86-.8,1.04-.44.18-4.23,1.58-4.51,1.7s-.42-.13-.47-.35c-.05-.22-1.92-5.22-1.92-5.22"/>
      <path class="cls-1" d="M33.24.71s.47,1.24.91,2.41"/>
      <path class="cls-1" d="M29.21,8.09s-.65.34-.89.39c-.24.05-.3-.22-.38-.43-.08-.21-1.38-4.07-1.38-4.07l-.18-.91.63-.34"/>
      <path class="cls-1" d="M38.04,5.56c-.06.13-.15.27-.25.41-.5.7-2.83,3.76-3.19,4.13-.37.38-.74.09-.8.07,0,0-.18.25-.43.4-.25.16-.37,0-.55-.12-.18-.12-.31-.23-.31-.23"/>
      <path class="cls-1" d="M33.93,1.33s2.99,2.2,3.79,2.81"/>
      <path class="cls-1" d="M32.22,8.06s1.34,1.04,1.54,1.17c.19.13.3.09.5-.17.15-.21,2.03-2.66,2.92-3.84"/>
      <path class="cls-1" d="M30.83,8.55s2.13,1.46,2.19,1.5c.07.04.59-.56.59-.56"/>
      <path class="cls-1" d="M33.26,4.04c0,.95-.78,1.71-1.73,1.71s-1.73-.77-1.73-1.71.78-1.71,1.73-1.71c.59,0,1.11.29,1.42.73"/>
      <path class="cls-1" d="M32.76,4.04s0,.08,0,.12c0,.68-.55,1.22-1.24,1.22s-1.24-.55-1.24-1.22.55-1.22,1.24-1.22c.32,0,.61.12.83.31"/>
      <path class="cls-1" d="M42.59,7.69c.68-.34,0-1.33-2.23-2.37-2.23-1.04-4.74-2.11-6.65-2.25-1.92-.14-2.03.96-2.03.96,0,0-.12.68.55,1.1"/>
      <path class="cls-1" d="M32.51,4.75s-.46-.34-.22-.66c.23-.33,2.14.05,4.72.99s4.54,2.11,5.15,2.67c.61.56.16.64.16.64,0,0-.35.31-2.53-.14-1.97-.48-2.82-1.06-2.82-1.06"/>
      <path class="cls-1" d="M32.16,4.31s-.29-.72.69-.78c.98-.07,3.39.34,6.25,1.67,2.86,1.33,3.97,2.54,3.39,3.07"/>
      <path class="cls-1" d="M42.25,7.87s-2.11.29-4.92-1.21"/>
      <path class="cls-1" d="M36.67,7.58s.87.52,2.82,1.03c1.75.46,3.1.51,2.83-.22"/>
      <path class="cls-1" d="M42.49,8.27c.11.05.19.08.22.1.39.2.36.49.03.56"/>
      <path class="cls-1" d="M37.51,6.37s2.46.92,4,1.52"/>
      <path class="cls-1" d="M42.33,8.78s.61.14.51.5c-.1.35-1.15-.13-1.6-.33"/>
      <path class="cls-1" d="M39.29,8.57s2.15,1.04,2.84,1.23c.73.2.33-.34.33-.34"/>
    </g>
  </g>
</svg>