<?xml version="1.0" encoding="UTF-8"?>
<svg id="_图层_2" data-name="图层 2" xmlns="http://www.w3.org/2000/svg" viewBox="0 0 30.63 5.45">
  <defs>
    <style>
      .cls-1 {
        fill: none;
        stroke: #070001;
        stroke-linecap: square;
        stroke-miterlimit: 10;
        stroke-width: .12px;
      }
    </style>
  </defs>
  <g id="_图层_1-2" data-name="图层 1">
    <g>
      <line class="cls-1" x1="6.5" y1="4.58" x2="5.72" y2="5.05"/>
      <line class="cls-1" x1="5.72" y1="2.74" x2="5.72" y2="5.05"/>
      <line class="cls-1" x1="6.5" y1="3.01" x2="6.5" y2="4.58"/>
      <line class="cls-1" x1="6.5" y1="3.01" x2="5.72" y2="2.74"/>
      <line class="cls-1" x1="6.5" y1="1.85" x2="5.72" y2="2.13"/>
      <line class="cls-1" x1="5.72" y1=".38" x2="5.72" y2="2.13"/>
      <line class="cls-1" x1="6.5" y1=".87" x2="6.5" y2="1.85"/>
      <line class="cls-1" x1="6.5" y1=".87" x2="5.72" y2=".38"/>
      <line class="cls-1" x1="9.33" y1=".38" x2="8.56" y2=".87"/>
      <line class="cls-1" x1="9.33" y1="2.13" x2="9.33" y2=".38"/>
      <line class="cls-1" x1="8.56" y1="1.85" x2="8.56" y2=".87"/>
      <line class="cls-1" x1="9.33" y1="2.13" x2="8.56" y2="1.85"/>
      <line class="cls-1" x1="9.34" y1="2.74" x2="8.56" y2="3.01"/>
      <line class="cls-1" x1="9.34" y1="5.05" x2="9.34" y2="2.74"/>
      <line class="cls-1" x1="8.56" y1="4.58" x2="8.56" y2="3.01"/>
      <line class="cls-1" x1="9.34" y1="5.05" x2="8.56" y2="4.58"/>
      <line class="cls-1" x1="8.85" y1="5.35" x2="8.35" y2="5.04"/>
      <line class="cls-1" x1="6.71" y1="5.04" x2="6.2" y2="5.37"/>
      <line class="cls-1" x1="8.34" y1=".41" x2="8.85" y2=".09"/>
      <line class="cls-1" x1="6.73" y1=".41" x2="6.21" y2=".09"/>
      <line class="cls-1" x1="6.4" y1="2.44" x2="6.94" y2="2.63"/>
      <line class="cls-1" x1="6.94" y1="2.24" x2="6.4" y2="2.44"/>
      <line class="cls-1" x1="8.66" y1="2.43" x2="8.12" y2="2.24"/>
      <line class="cls-1" x1="8.12" y1="2.63" x2="8.66" y2="2.43"/>
      <line class="cls-1" x1="6.21" y1=".09" x2="8.85" y2=".09"/>
      <line class="cls-1" x1="6.73" y1=".41" x2="8.34" y2=".41"/>
      <line class="cls-1" x1="6.2" y1="5.37" x2="8.85" y2="5.37"/>
      <line class="cls-1" x1="6.71" y1="5.04" x2="8.35" y2="5.04"/>
      <line class="cls-1" x1="6.94" y1="2.63" x2="8.12" y2="2.63"/>
      <line class="cls-1" x1="6.94" y1="2.24" x2="8.12" y2="2.24"/>
      <line class="cls-1" x1="10.81" y1="4.58" x2="10.05" y2="5.05"/>
      <line class="cls-1" x1="10.05" y1="2.74" x2="10.05" y2="5.05"/>
      <line class="cls-1" x1="10.81" y1="3.01" x2="10.81" y2="4.58"/>
      <line class="cls-1" x1="10.81" y1="3.01" x2="10.05" y2="2.74"/>
      <line class="cls-1" x1="10.81" y1="1.85" x2="10.05" y2="2.13"/>
      <line class="cls-1" x1="10.05" y1=".4" x2="10.05" y2="2.13"/>
      <line class="cls-1" x1="10.81" y1=".87" x2="10.81" y2="1.85"/>
      <line class="cls-1" x1="10.81" y1=".87" x2="10.05" y2=".4"/>
      <line class="cls-1" x1="13.65" y1=".38" x2="12.89" y2=".87"/>
      <line class="cls-1" x1="13.65" y1="2.13" x2="13.65" y2=".38"/>
      <line class="cls-1" x1="12.89" y1="1.85" x2="12.89" y2=".87"/>
      <line class="cls-1" x1="13.65" y1="2.13" x2="12.89" y2="1.85"/>
      <line class="cls-1" x1="13.65" y1="2.74" x2="12.89" y2="3.01"/>
      <line class="cls-1" x1="13.65" y1="5.05" x2="13.65" y2="2.74"/>
      <line class="cls-1" x1="12.89" y1="4.58" x2="12.89" y2="3.01"/>
      <line class="cls-1" x1="13.65" y1="5.05" x2="12.89" y2="4.58"/>
      <line class="cls-1" x1="13.16" y1="5.35" x2="12.67" y2="5.04"/>
      <line class="cls-1" x1="11.02" y1="5.04" x2="10.51" y2="5.37"/>
      <line class="cls-1" x1="12.65" y1=".41" x2="13.16" y2=".09"/>
      <line class="cls-1" x1="11.05" y1=".41" x2="10.53" y2=".09"/>
      <line class="cls-1" x1="10.71" y1="2.44" x2="11.26" y2="2.63"/>
      <line class="cls-1" x1="11.26" y1="2.24" x2="10.71" y2="2.44"/>
      <line class="cls-1" x1="12.98" y1="2.44" x2="12.43" y2="2.24"/>
      <line class="cls-1" x1="12.43" y1="2.63" x2="12.98" y2="2.44"/>
      <line class="cls-1" x1="10.53" y1=".09" x2="13.16" y2=".09"/>
      <line class="cls-1" x1="11.05" y1=".41" x2="12.65" y2=".41"/>
      <line class="cls-1" x1="10.51" y1="5.37" x2="13.16" y2="5.37"/>
      <line class="cls-1" x1="11.02" y1="5.04" x2="12.67" y2="5.04"/>
      <line class="cls-1" x1="11.26" y1="2.63" x2="12.43" y2="2.63"/>
      <line class="cls-1" x1="11.26" y1="2.24" x2="12.43" y2="2.24"/>
      <line class="cls-1" x1="15.13" y1="4.58" x2="14.36" y2="5.05"/>
      <line class="cls-1" x1="14.36" y1="2.74" x2="14.36" y2="5.05"/>
      <line class="cls-1" x1="15.13" y1="3.01" x2="15.13" y2="4.58"/>
      <line class="cls-1" x1="15.13" y1="3.01" x2="14.36" y2="2.74"/>
      <line class="cls-1" x1="15.13" y1="1.85" x2="14.36" y2="2.13"/>
      <line class="cls-1" x1="14.36" y1=".38" x2="14.36" y2="2.13"/>
      <line class="cls-1" x1="15.13" y1=".87" x2="15.13" y2="1.85"/>
      <line class="cls-1" x1="15.13" y1=".87" x2="14.36" y2=".38"/>
      <line class="cls-1" x1="17.96" y1=".38" x2="17.2" y2=".87"/>
      <line class="cls-1" x1="17.96" y1="2.13" x2="17.96" y2=".38"/>
      <line class="cls-1" x1="17.2" y1="1.85" x2="17.2" y2=".87"/>
      <line class="cls-1" x1="17.96" y1="2.13" x2="17.2" y2="1.85"/>
      <line class="cls-1" x1="17.96" y1="2.74" x2="17.2" y2="3.01"/>
      <line class="cls-1" x1="17.96" y1="5.05" x2="17.96" y2="2.74"/>
      <line class="cls-1" x1="17.2" y1="4.58" x2="17.2" y2="3.01"/>
      <line class="cls-1" x1="17.96" y1="5.05" x2="17.2" y2="4.58"/>
      <line class="cls-1" x1="17.48" y1="5.35" x2="16.98" y2="5.04"/>
      <line class="cls-1" x1="15.34" y1="5.04" x2="14.83" y2="5.37"/>
      <line class="cls-1" x1="16.97" y1=".41" x2="17.48" y2=".09"/>
      <line class="cls-1" x1="15.36" y1=".41" x2="14.85" y2=".09"/>
      <line class="cls-1" x1="15.02" y1="2.43" x2="15.57" y2="2.63"/>
      <line class="cls-1" x1="15.57" y1="2.24" x2="15.02" y2="2.43"/>
      <line class="cls-1" x1="17.29" y1="2.43" x2="16.76" y2="2.24"/>
      <line class="cls-1" x1="16.76" y1="2.63" x2="17.29" y2="2.43"/>
      <line class="cls-1" x1="14.85" y1=".09" x2="17.48" y2=".09"/>
      <line class="cls-1" x1="15.36" y1=".41" x2="16.97" y2=".41"/>
      <line class="cls-1" x1="14.83" y1="5.37" x2="17.48" y2="5.37"/>
      <line class="cls-1" x1="15.34" y1="5.04" x2="16.98" y2="5.04"/>
      <line class="cls-1" x1="15.57" y1="2.63" x2="16.76" y2="2.63"/>
      <line class="cls-1" x1="15.57" y1="2.24" x2="16.76" y2="2.24"/>
      <line class="cls-1" x1="19.44" y1="4.58" x2="18.68" y2="5.05"/>
      <line class="cls-1" x1="18.67" y1="2.74" x2="18.68" y2="5.05"/>
      <line class="cls-1" x1="19.44" y1="3.01" x2="19.44" y2="4.58"/>
      <line class="cls-1" x1="19.44" y1="3.01" x2="18.67" y2="2.74"/>
      <line class="cls-1" x1="19.44" y1="1.85" x2="18.67" y2="2.13"/>
      <line class="cls-1" x1="18.67" y1=".38" x2="18.67" y2="2.13"/>
      <line class="cls-1" x1="19.44" y1=".87" x2="19.44" y2="1.85"/>
      <line class="cls-1" x1="19.44" y1=".87" x2="18.67" y2=".38"/>
      <line class="cls-1" x1="22.28" y1=".38" x2="21.51" y2=".87"/>
      <line class="cls-1" x1="22.28" y1="2.13" x2="22.28" y2=".38"/>
      <line class="cls-1" x1="21.51" y1="1.85" x2="21.51" y2=".87"/>
      <line class="cls-1" x1="22.28" y1="2.13" x2="21.51" y2="1.85"/>
      <line class="cls-1" x1="22.28" y1="2.74" x2="21.51" y2="3.01"/>
      <line class="cls-1" x1="22.28" y1="5.05" x2="22.28" y2="2.74"/>
      <line class="cls-1" x1="21.51" y1="4.58" x2="21.51" y2="3.01"/>
      <line class="cls-1" x1="22.28" y1="5.05" x2="21.51" y2="4.58"/>
      <line class="cls-1" x1="21.8" y1="5.35" x2="21.31" y2="5.04"/>
      <line class="cls-1" x1="19.66" y1="5.04" x2="19.14" y2="5.37"/>
      <line class="cls-1" x1="21.28" y1=".41" x2="21.8" y2=".09"/>
      <line class="cls-1" x1="19.67" y1=".41" x2="19.16" y2=".09"/>
      <line class="cls-1" x1="19.35" y1="2.43" x2="19.88" y2="2.62"/>
      <line class="cls-1" x1="19.88" y1="2.24" x2="19.35" y2="2.43"/>
      <line class="cls-1" x1="21.6" y1="2.43" x2="21.07" y2="2.24"/>
      <line class="cls-1" x1="21.07" y1="2.62" x2="21.6" y2="2.43"/>
      <line class="cls-1" x1="19.16" y1=".09" x2="21.8" y2=".09"/>
      <line class="cls-1" x1="19.67" y1=".41" x2="21.28" y2=".41"/>
      <line class="cls-1" x1="19.14" y1="5.37" x2="21.8" y2="5.37"/>
      <line class="cls-1" x1="19.66" y1="5.04" x2="21.31" y2="5.04"/>
      <line class="cls-1" x1="19.88" y1="2.62" x2="21.07" y2="2.62"/>
      <line class="cls-1" x1="19.88" y1="2.24" x2="21.07" y2="2.24"/>
      <line class="cls-1" x1="23.75" y1="4.56" x2="22.99" y2="5.05"/>
      <line class="cls-1" x1="22.99" y1="2.74" x2="22.99" y2="5.05"/>
      <line class="cls-1" x1="23.75" y1="3.01" x2="23.75" y2="4.56"/>
      <line class="cls-1" x1="23.75" y1="3.01" x2="22.99" y2="2.74"/>
      <line class="cls-1" x1="23.75" y1="1.85" x2="22.99" y2="2.13"/>
      <line class="cls-1" x1="22.99" y1=".38" x2="22.99" y2="2.13"/>
      <line class="cls-1" x1="23.75" y1=".86" x2="23.75" y2="1.85"/>
      <line class="cls-1" x1="23.75" y1=".86" x2="22.99" y2=".38"/>
      <line class="cls-1" x1="26.6" y1=".38" x2="25.82" y2=".86"/>
      <line class="cls-1" x1="26.6" y1="2.12" x2="26.6" y2=".38"/>
      <line class="cls-1" x1="25.82" y1="1.85" x2="25.82" y2=".86"/>
      <line class="cls-1" x1="26.6" y1="2.12" x2="25.82" y2="1.85"/>
      <line class="cls-1" x1="26.6" y1="2.74" x2="25.83" y2="3.01"/>
      <line class="cls-1" x1="26.6" y1="5.05" x2="26.6" y2="2.74"/>
      <line class="cls-1" x1="25.83" y1="4.56" x2="25.83" y2="3.01"/>
      <line class="cls-1" x1="26.6" y1="5.05" x2="25.83" y2="4.56"/>
      <line class="cls-1" x1="26.11" y1="5.35" x2="25.62" y2="5.04"/>
      <line class="cls-1" x1="23.97" y1="5.04" x2="23.45" y2="5.37"/>
      <line class="cls-1" x1="25.59" y1=".41" x2="26.11" y2=".09"/>
      <line class="cls-1" x1="23.98" y1=".41" x2="23.47" y2=".09"/>
      <line class="cls-1" x1="23.66" y1="2.43" x2="24.2" y2="2.62"/>
      <line class="cls-1" x1="24.2" y1="2.24" x2="23.66" y2="2.43"/>
      <line class="cls-1" x1="25.93" y1="2.43" x2="25.38" y2="2.24"/>
      <line class="cls-1" x1="25.38" y1="2.62" x2="25.93" y2="2.43"/>
      <line class="cls-1" x1="23.47" y1=".09" x2="26.11" y2=".09"/>
      <line class="cls-1" x1="23.98" y1=".41" x2="25.59" y2=".41"/>
      <line class="cls-1" x1="23.45" y1="5.37" x2="26.11" y2="5.37"/>
      <line class="cls-1" x1="23.97" y1="5.04" x2="25.62" y2="5.04"/>
      <line class="cls-1" x1="24.2" y1="2.62" x2="25.38" y2="2.62"/>
      <line class="cls-1" x1="24.2" y1="2.24" x2="25.38" y2="2.24"/>
      <polyline class="cls-1" points="28.37 4.56 28.37 4.6 28.73 4.24 28.73 4.23 28.74 4.22 28.76 4.22 28.77 4.21 28.78 4.21 28.8 4.21 28.84 4.21 28.89 4.21 28.9 4.21 28.91 4.21 28.92 4.22 28.94 4.22 28.94 4.23 28.94 4.23 28.94 4.24 28.92 4.25 28.92 4.28 28.91 4.29 28.57 4.62 28.95 5.13 28.96 5.14 28.97 5.15 28.97 5.16 28.97 5.17 28.97 5.17 28.97 5.19 28.96 5.19 28.96 5.2"/>
      <polyline class="cls-1" points="28.89 5.21 28.92 5.2 28.96 5.2"/>
      <polyline class="cls-1" points="28.89 5.21 28.84 5.2 28.82 5.2 28.8 5.2 28.79 5.2 28.78 5.19 28.78 5.17 28.77 5.17 28.37 4.71 28.37 5.17 28.37 5.17 28.37 5.19 28.36 5.19 28.36 5.2"/>
      <polyline class="cls-1" points="28.22 5.2 28.29 5.21 28.36 5.2"/>
      <polyline class="cls-1" points="28.22 5.2 28.22 5.19 28.21 5.19 28.21 5.17 28.21 5.17 28.21 3.79 28.21 3.78 28.21 3.76 28.22 3.76 28.22 3.75"/>
      <polyline class="cls-1" points="28.34 3.75 28.28 3.75 28.22 3.75"/>
      <polyline class="cls-1" points="28.34 3.75 28.35 3.75 28.36 3.75 28.36 3.76 28.37 3.76 28.37 3.78 28.37 3.79 28.37 4.56"/>
      <polyline class="cls-1" points="30.56 5.17 30.56 5.19 30.55 5.19 30.55 5.2"/>
      <polyline class="cls-1" points="30.4 5.2 30.48 5.21 30.55 5.2"/>
      <polyline class="cls-1" points="30.4 5.2 30.39 5.19 30.39 5.19 30.39 5.17 30.39 5.17 30.39 4.6"/>
      <polyline class="cls-1" points="30.39 4.6 30.38 4.55 30.38 4.49"/>
      <polyline class="cls-1" points="30.38 4.49 30.37 4.46 30.34 4.41"/>
      <polyline class="cls-1" points="30.34 4.41 30.29 4.35 30.2 4.34"/>
      <polyline class="cls-1" points="30.2 4.34 30.14 4.35 30.08 4.39"/>
      <polyline class="cls-1" points="30.08 4.39 30.01 4.45 29.95 4.52"/>
      <polyline class="cls-1" points="29.95 4.52 29.95 5.17 29.95 5.17 29.95 5.19 29.94 5.19 29.94 5.2"/>
      <polyline class="cls-1" points="29.82 5.2 29.88 5.21 29.94 5.2"/>
      <polyline class="cls-1" points="29.82 5.2 29.81 5.2 29.8 5.2 29.8 5.19 29.78 5.19 29.78 5.17 29.78 5.17 29.78 4.6"/>
      <polyline class="cls-1" points="29.78 4.6 29.78 4.55 29.77 4.49"/>
      <polyline class="cls-1" points="29.77 4.49 29.76 4.46 29.74 4.41"/>
      <polyline class="cls-1" points="29.74 4.41 29.71 4.39 29.68 4.36"/>
      <polyline class="cls-1" points="29.68 4.36 29.64 4.34 29.59 4.34"/>
      <polyline class="cls-1" points="29.59 4.34 29.53 4.35 29.47 4.39"/>
      <polyline class="cls-1" points="29.47 4.39 29.4 4.45 29.34 4.52"/>
      <polyline class="cls-1" points="29.34 4.52 29.34 5.17 29.34 5.17 29.34 5.19 29.33 5.19 29.33 5.2"/>
      <polyline class="cls-1" points="29.19 5.2 29.26 5.21 29.33 5.2"/>
      <polyline class="cls-1" points="29.19 5.2 29.19 5.19 29.17 5.19 29.17 5.17 29.17 5.17 29.17 4.23 29.17 4.23 29.17 4.22 29.19 4.22 29.19 4.21 29.2 4.21 29.21 4.21 29.25 4.21 29.29 4.21 29.31 4.21 29.32 4.21 29.32 4.22 29.33 4.22 29.33 4.23 29.33 4.23 29.33 4.36"/>
      <polyline class="cls-1" points="29.49 4.23 29.4 4.29 29.33 4.36"/>
      <polyline class="cls-1" points="29.63 4.19 29.56 4.19 29.49 4.23"/>
      <polyline class="cls-1" points="29.74 4.21 29.69 4.19 29.63 4.19"/>
      <polyline class="cls-1" points="29.82 4.24 29.78 4.22 29.74 4.21"/>
      <polyline class="cls-1" points="29.88 4.3 29.86 4.27 29.82 4.24"/>
      <polyline class="cls-1" points="29.91 4.37 29.9 4.34 29.88 4.3"/>
      <polyline class="cls-1" points="29.91 4.37 29.96 4.33 30.01 4.29"/>
      <polyline class="cls-1" points="30.09 4.23 30.05 4.25 30.01 4.29"/>
      <polyline class="cls-1" points="30.17 4.19 30.13 4.22 30.09 4.23"/>
      <polyline class="cls-1" points="30.24 4.19 30.2 4.19 30.17 4.19"/>
      <polyline class="cls-1" points="30.39 4.22 30.32 4.19 30.24 4.19"/>
      <polyline class="cls-1" points="30.49 4.3 30.44 4.25 30.39 4.22"/>
      <polyline class="cls-1" points="30.55 4.43 30.52 4.36 30.49 4.3"/>
      <polyline class="cls-1" points="30.56 4.58 30.56 4.51 30.55 4.43"/>
      <polyline class="cls-1" points="30.56 4.58 30.56 5.17 30.56 5.17"/>
      <polyline class="cls-1" points="1.42 .6 1.41 .62 1.4 .66"/>
      <line class="cls-1" x1="1.4" y1=".66" x2="1.4" y2="1.82"/>
      <polyline class="cls-1" points="1.4 1.82 1.41 1.84 1.42 1.87"/>
      <polyline class="cls-1" points="1.42 1.87 1.45 1.88 1.47 1.88"/>
      <polyline class="cls-1" points="1.47 1.88 1.75 1.88 1.81 1.88"/>
      <polyline class="cls-1" points="1.81 1.88 1.96 1.87 2.1 1.81 2.24 1.72"/>
      <polyline class="cls-1" points="2.24 1.72 2.31 1.63 2.36 1.51"/>
      <polyline class="cls-1" points="2.36 1.51 2.39 1.36 2.4 1.22"/>
      <polyline class="cls-1" points="2.4 1.22 2.39 1.08 2.36 .96"/>
      <polyline class="cls-1" points="2.36 .96 2.31 .85 2.24 .76"/>
      <polyline class="cls-1" points="2.24 .76 2.15 .68 2.04 .64"/>
      <polyline class="cls-1" points="2.04 .64 1.9 .6 1.76 .59"/>
      <line class="cls-1" x1="1.76" y1=".59" x2="1.47" y2=".59"/>
      <polyline class="cls-1" points="1.47 .59 1.45 .59 1.42 .6"/>
      <polyline class="cls-1" points="2.99 .76 2.92 .8 2.86 .87"/>
      <polyline class="cls-1" points="2.86 .87 2.82 .95 2.8 1.03"/>
      <polyline class="cls-1" points="2.8 1.03 2.77 1.13 2.77 1.23"/>
      <polyline class="cls-1" points="2.77 1.23 2.77 1.34 2.8 1.44"/>
      <polyline class="cls-1" points="2.8 1.44 2.82 1.53 2.86 1.6"/>
      <polyline class="cls-1" points="2.86 1.6 2.9 1.66 2.98 1.71"/>
      <polyline class="cls-1" points="2.98 1.71 3.11 1.75 3.23 1.75 3.36 1.71"/>
      <polyline class="cls-1" points="3.36 1.71 3.43 1.66 3.48 1.59"/>
      <polyline class="cls-1" points="3.48 1.59 3.53 1.52 3.55 1.44"/>
      <polyline class="cls-1" points="3.55 1.44 3.56 1.33 3.56 1.23"/>
      <polyline class="cls-1" points="3.56 1.23 3.56 1.13 3.55 1.03"/>
      <polyline class="cls-1" points="3.55 1.03 3.53 .95 3.48 .86"/>
      <polyline class="cls-1" points="3.48 .86 3.43 .8 3.36 .76"/>
      <polyline class="cls-1" points="3.36 .76 3.24 .72 3.11 .72 2.99 .76"/>
      <polyline class="cls-1" points=".29 1.85 .4 1.89 .52 1.9"/>
      <polyline class="cls-1" points=".52 1.9 .72 1.88 .9 1.79"/>
      <polyline class="cls-1" points=".9 1.79 .95 1.76 .98 1.72"/>
      <polyline class="cls-1" points=".98 1.72 1.07 1.58 1.11 1.41"/>
      <polyline class="cls-1" points="1.11 1.41 1.13 1.32 1.13 1.22"/>
      <polyline class="cls-1" points="1.13 1.22 1.13 1.08 1.1 .95"/>
      <polyline class="cls-1" points="1.1 .95 1.05 .84 .99 .73"/>
      <polyline class="cls-1" points=".99 .73 .95 .7 .91 .66"/>
      <polyline class="cls-1" points=".91 .66 .74 .59 .58 .56"/>
      <polyline class="cls-1" points=".58 .56 .36 .6 .18 .7"/>
      <polyline class="cls-1" points="2.9 1.85 3.02 1.89 3.13 1.9"/>
      <polyline class="cls-1" points="3.13 1.9 3.33 1.88 3.51 1.79"/>
      <polyline class="cls-1" points="3.51 1.79 3.56 1.76 3.6 1.72"/>
      <polyline class="cls-1" points="3.6 1.72 3.68 1.58 3.73 1.41"/>
      <polyline class="cls-1" points="3.73 1.41 3.74 1.32 3.75 1.22"/>
      <polyline class="cls-1" points="3.75 1.22 3.74 1.08 3.72 .95"/>
      <polyline class="cls-1" points="3.72 .95 3.67 .84 3.61 .73"/>
      <polyline class="cls-1" points="3.61 .73 3.57 .7 3.53 .66"/>
      <polyline class="cls-1" points="3.53 .66 3.36 .59 3.19 .56"/>
      <polyline class="cls-1" points="3.19 .56 2.99 .6 2.8 .7"/>
      <polyline class="cls-1" points="2.8 .7 2.67 .86 2.61 1.05"/>
      <polyline class="cls-1" points="2.61 1.05 2.59 1.15 2.59 1.24"/>
      <polyline class="cls-1" points="2.59 1.24 2.59 1.3 2.59 1.38"/>
      <polyline class="cls-1" points="2.59 1.38 2.64 1.57 2.73 1.73"/>
      <polyline class="cls-1" points="2.73 1.73 2.81 1.81 2.9 1.85"/>
      <polyline class="cls-1" points="2.1 .87 2.04 .81 1.97 .77"/>
      <polyline class="cls-1" points="2.19 1.03 2.16 .95 2.1 .87"/>
      <polyline class="cls-1" points="2.22 1.22 2.21 1.13 2.19 1.03"/>
      <polyline class="cls-1" points="2.19 1.45 2.21 1.34 2.22 1.22"/>
      <polyline class="cls-1" points="1.89 1.72 2.02 1.67 2.13 1.58 2.19 1.45"/>
      <polyline class="cls-1" points="1.76 1.73 1.82 1.73 1.89 1.72"/>
      <polyline class="cls-1" points="1.76 1.73 1.58 1.73 1.58 .73 1.75 .73"/>
      <polyline class="cls-1" points="1.97 .77 1.87 .74 1.75 .73"/>
      <polyline class="cls-1" points=".86 .86 .81 .8 .74 .76"/>
      <polyline class="cls-1" points=".74 .76 .62 .72 .49 .72 .37 .76"/>
      <polyline class="cls-1" points=".36 1.71 .48 1.75 .61 1.75 .74 1.71"/>
      <polyline class="cls-1" points=".74 1.71 .8 1.66 .86 1.59"/>
      <polyline class="cls-1" points=".86 1.59 .9 1.52 .93 1.44"/>
      <polyline class="cls-1" points=".93 1.44 .95 1.33 .95 1.23"/>
      <polyline class="cls-1" points=".95 1.23 .95 1.13 .93 1.03"/>
      <polyline class="cls-1" points=".93 1.03 .91 .95 .86 .86"/>
      <polyline class="cls-1" points="1.01 3.53 .06 3.53 .06 3.67 .44 3.67 .44 4.86 .61 4.86 .61 3.67 1.01 3.67 1.01 3.53"/>
      <polyline class="cls-1" points="1.51 4.3 1.54 4.3 1.64 4.34 1.7 4.39 1.77 4.49 1.98 4.86 2.2 4.86 1.94 4.46 1.89 4.39 1.84 4.31 1.83 4.31 1.75 4.24"/>
      <polyline class="cls-1" points="1.51 4.3 1.54 4.3 1.64 4.34 1.7 4.39 1.77 4.49 1.98 4.86 2.2 4.86 1.94 4.46 1.89 4.39 1.84 4.31 1.83 4.31 1.75 4.24"/>
      <polyline class="cls-1" points="1.85 4.21 1.94 4.15 2 4.08 2.03 3.98 2.04 3.88 2.03 3.79 2 3.69 1.93 3.62"/>
      <polyline class="cls-1" points="1.59 3.67 1.71 3.69 1.79 3.73 1.84 3.79 1.85 3.9 1.84 3.99 1.78 4.08 1.7 4.13 1.59 4.15 1.39 4.15"/>
      <polyline class="cls-1" points="1.85 4.21 1.94 4.15 2 4.08 2.03 3.98 2.04 3.88 2.03 3.79 2 3.69 1.93 3.62"/>
      <polyline class="cls-1" points="1.59 3.67 1.71 3.69 1.79 3.73 1.84 3.79 1.85 3.9 1.84 3.99 1.78 4.08 1.7 4.13 1.59 4.15 1.39 4.15"/>
      <polyline class="cls-1" points="1.93 3.62 1.93 3.61 1.84 3.56 1.75 3.53 1.63 3.53"/>
      <polyline class="cls-1" points="1.39 4.15 1.39 3.67 1.59 3.67"/>
      <line class="cls-1" x1="1.75" y1="4.24" x2="1.85" y2="4.21"/>
      <polyline class="cls-1" points="1.63 3.53 1.21 3.53 1.21 4.86 1.39 4.86 1.39 4.3 1.51 4.3"/>
      <polyline class="cls-1" points="2.55 3.53 2.55 4.86 2.38 4.86 2.38 3.53 2.55 3.53 2.55 3.53"/>
      <polyline class="cls-1" points="3.63 4.22 3.69 4.13 3.73 4.04 3.74 3.93 3.74 3.91 3.72 3.8 3.68 3.7 3.62 3.62"/>
      <polyline class="cls-1" points="3.25 3.67 3.33 3.68 3.43 3.7 3.5 3.76 3.54 3.84 3.55 3.93 3.55 3.96 3.53 4.06 3.48 4.13 3.44 4.16 3.35 4.19 3.23 4.21 3.07 4.21"/>
      <polyline class="cls-1" points="3.63 4.22 3.69 4.13 3.73 4.04 3.74 3.93 3.74 3.91 3.72 3.8 3.68 3.7 3.62 3.62"/>
      <polyline class="cls-1" points="3.25 3.67 3.33 3.68 3.43 3.7 3.5 3.76 3.54 3.84 3.55 3.93 3.55 3.96 3.53 4.06 3.48 4.13 3.44 4.16 3.35 4.19 3.23 4.21 3.07 4.21"/>
      <polyline class="cls-1" points="3.62 3.62 3.59 3.6 3.5 3.56 3.39 3.53 3.27 3.53"/>
      <polyline class="cls-1" points="3.07 4.21 3.07 3.67 3.25 3.67"/>
      <polyline class="cls-1" points="3.27 3.53 2.89 3.53 2.89 4.86 3.07 4.86 3.07 4.36 3.24 4.36 3.31 4.36 3.42 4.35 3.51 4.3 3.6 4.24 3.63 4.22"/>
    </g>
  </g>
</svg>