<?xml version="1.0" encoding="UTF-8"?>
<svg id="_图层_2" data-name="图层 2" xmlns="http://www.w3.org/2000/svg" viewBox="0 0 8.23 8.78">
  <defs>
    <style>
      .cls-1 {
        fill: none;
        stroke: #070001;
        stroke-linecap: square;
        stroke-miterlimit: 10;
        stroke-width: .12px;
      }
    </style>
  </defs>
  <g id="_图层_1-2" data-name="图层 1">
    <g>
      <line class="cls-1" x1="6.7" y1=".07" x2="1.52" y2=".07"/>
      <polyline class="cls-1" points="8.16 1.52 8.14 1.31 8.1 1.11 8.03 .91 7.93 .73 7.81 .56 7.65 .42 7.49 .29 7.31 .19 7.11 .12 6.91 .07 6.7 .07"/>
      <line class="cls-1" x1="8.16" y1="7.25" x2="8.16" y2="1.52"/>
      <polyline class="cls-1" points="6.7 8.71 6.91 8.69 7.12 8.64 7.31 8.57 7.49 8.47 7.66 8.35 7.81 8.2 7.94 8.04 8.04 7.86 8.11 7.66 8.14 7.46 8.16 7.25"/>
      <line class="cls-1" x1="1.52" y1="8.71" x2="6.7" y2="8.71"/>
      <polyline class="cls-1" points=".07 7.25 .07 7.46 .12 7.66 .19 7.86 .29 8.04 .42 8.21 .56 8.35 .74 8.48 .92 8.58 1.11 8.65 1.32 8.69 1.52 8.71"/>
      <line class="cls-1" x1=".07" y1="1.53" x2=".07" y2="7.25"/>
      <polyline class="cls-1" points="1.52 .07 1.31 .07 1.11 .12 .92 .19 .73 .29 .56 .42 .42 .56 .29 .74 .19 .92 .12 1.11 .07 1.32 .07 1.53"/>
      <line class="cls-1" x1="3.33" y1="5.79" x2="2.74" y2="6.15"/>
      <line class="cls-1" x1="2.74" y1="4.4" x2="2.74" y2="6.15"/>
      <line class="cls-1" x1="3.33" y1="4.6" x2="3.33" y2="5.79"/>
      <line class="cls-1" x1="3.33" y1="4.6" x2="2.74" y2="4.4"/>
      <line class="cls-1" x1="3.33" y1="3.73" x2="2.74" y2="3.93"/>
      <line class="cls-1" x1="2.74" y1="2.61" x2="2.74" y2="3.93"/>
      <line class="cls-1" x1="3.33" y1="2.98" x2="3.33" y2="3.73"/>
      <line class="cls-1" x1="3.33" y1="2.98" x2="2.74" y2="2.61"/>
      <line class="cls-1" x1="5.48" y1="2.61" x2="4.9" y2="2.98"/>
      <line class="cls-1" x1="5.48" y1="3.93" x2="5.48" y2="2.61"/>
      <line class="cls-1" x1="4.9" y1="3.72" x2="4.9" y2="2.98"/>
      <line class="cls-1" x1="5.48" y1="3.93" x2="4.9" y2="3.72"/>
      <line class="cls-1" x1="5.48" y1="4.4" x2="4.9" y2="4.6"/>
      <line class="cls-1" x1="5.48" y1="6.15" x2="5.48" y2="4.4"/>
      <line class="cls-1" x1="4.9" y1="5.79" x2="4.9" y2="4.6"/>
      <line class="cls-1" x1="5.48" y1="6.15" x2="4.9" y2="5.79"/>
      <line class="cls-1" x1="5.12" y1="6.39" x2="4.73" y2="6.15"/>
      <line class="cls-1" x1="3.49" y1="6.15" x2="3.1" y2="6.4"/>
      <line class="cls-1" x1="4.73" y1="2.63" x2="5.12" y2="2.39"/>
      <line class="cls-1" x1="3.5" y1="2.63" x2="3.11" y2="2.39"/>
      <line class="cls-1" x1="3.25" y1="4.16" x2="3.66" y2="4.31"/>
      <line class="cls-1" x1="3.66" y1="4.02" x2="3.25" y2="4.16"/>
      <line class="cls-1" x1="4.97" y1="4.16" x2="4.56" y2="4.02"/>
      <line class="cls-1" x1="4.56" y1="4.31" x2="4.97" y2="4.16"/>
      <line class="cls-1" x1="3.11" y1="2.39" x2="5.12" y2="2.39"/>
      <line class="cls-1" x1="3.5" y1="2.63" x2="4.73" y2="2.63"/>
      <line class="cls-1" x1="3.1" y1="6.4" x2="5.12" y2="6.4"/>
      <line class="cls-1" x1="3.49" y1="6.15" x2="4.73" y2="6.15"/>
      <line class="cls-1" x1="3.66" y1="4.31" x2="4.56" y2="4.31"/>
      <line class="cls-1" x1="3.66" y1="4.02" x2="4.56" y2="4.02"/>
      <line class="cls-1" x1="1.6" y1="8.49" x2="6.62" y2="8.49"/>
      <polyline class="cls-1" points="6.62 8.49 6.83 8.47 7.03 8.42 7.22 8.35 7.4 8.24 7.55 8.1 7.69 7.95 7.8 7.76 7.87 7.57 7.93 7.37 7.94 7.18"/>
      <line class="cls-1" x1="7.94" y1="7.18" x2="7.94" y2="1.6"/>
      <polyline class="cls-1" points="7.94 1.6 7.93 1.39 7.87 1.19 7.8 1 7.69 .83 7.55 .66 7.4 .54 7.22 .43 7.03 .35 6.83 .3 6.62 .28"/>
      <line class="cls-1" x1="6.62" y1=".28" x2="1.6" y2=".28"/>
      <polyline class="cls-1" points="1.6 .28 1.4 .3 1.19 .35 1 .43 .83 .54 .67 .66 .54 .83 .43 1 .35 1.19 .3 1.39 .28 1.6"/>
      <line class="cls-1" x1=".28" y1="1.6" x2=".28" y2="7.18"/>
      <polyline class="cls-1" points=".28 7.18 .3 7.37 .35 7.57 .43 7.76 .54 7.95 .67 8.1 .83 8.24 1 8.35 1.19 8.42 1.4 8.47 1.6 8.49"/>
    </g>
  </g>
</svg>