<?xml version="1.0" encoding="UTF-8"?>
<svg id="_图层_2" data-name="图层 2" xmlns="http://www.w3.org/2000/svg" viewBox="0 0 136.66 91.89">
  <defs>
    <style>
      .cls-1 {
        stroke: #595857;
        stroke-linecap: square;
        stroke-width: .45px;
      }

      .cls-1, .cls-2 {
        fill: none;
        stroke-miterlimit: 10;
      }

      .cls-3 {
        font-size: 1.57px;
      }

      .cls-3, .cls-4, .cls-5, .cls-6 {
        fill: #595857;
      }

      .cls-3, .cls-5, .cls-6 {
        font-family: HYQiHei-DES, 'HYQiHei DES';
      }

      .cls-5 {
        font-size: 1.57px;
      }

      .cls-6 {
        font-size: 1.62px;
      }

      .cls-7 {
        fill: #54565a;
        font-family: TimesNewRomanPS-ItalicMT, 'Times New Roman';
        font-size: 6px;
        font-style: italic;
      }

      .cls-2 {
        stroke: #040000;
        stroke-dasharray: 1;
        stroke-width: .25px;
      }
    </style>
  </defs>
  <g id="_图层_1-2" data-name="图层 1">
    <g>
      <rect class="cls-2" x=".12" y=".12" width="136.41" height="91.64"/>
      <text class="cls-7" transform="translate(80.2 60.44)"><tspan x="0" y="0">Motor Code Position:</tspan><tspan x="0" y="6.53">Motor Cover and Rim</tspan></text>
      <polygon class="cls-1" points="46.62 40.85 46.42 40.25 46.16 39.67 45.85 39.12 45.47 38.61 45.05 38.14 44.58 37.71 44.06 37.34 43.51 37.03 42.93 36.77 42.33 36.57 41.71 36.44 41.08 36.37 40.45 36.37 39.81 36.44 39.19 36.57 38.59 36.77 38.01 37.03 37.46 37.34 36.95 37.72 36.48 38.14 36.05 38.61 35.68 39.12 35.36 39.68 35.1 40.25 34.91 40.86 34.77 41.48 34.71 42.11 34.71 42.74 34.77 43.37 34.91 43.99 35.1 44.6 35.36 45.18 35.68 45.72 36.05 46.24 36.48 46.71 36.95 47.13 37.46 47.51 38.01 47.83 38.59 48.08 39.19 48.28 39.81 48.41 40.45 48.48 41.08 48.48 41.71 48.41 42.33 48.28 42.93 48.08 43.51 47.82 44.06 47.51 44.58 47.14 45.05 46.71 45.47 46.24 45.84 45.73 46.16 45.18 46.42 44.6 46.62 43.99 46.75 43.37 46.82 42.74 46.81 42.11 46.75 41.48 46.62 40.85 46.62 40.85"/>
      <polygon class="cls-1" points="22.73 60.76 22.66 60.61 22.53 60.5 22.37 60.45 22.2 60.45 22.04 60.53 21.93 60.66 21.87 60.82 21.88 60.99 21.96 61.15 22.09 61.26 22.25 61.32 22.42 61.3 22.58 61.23 22.69 61.1 22.75 60.94 22.73 60.76 22.73 60.76"/>
      <polygon class="cls-1" points="34.43 67.52 34.35 67.37 34.23 67.26 34.06 67.2 33.89 67.21 33.74 67.29 33.63 67.42 33.57 67.58 33.58 67.75 33.66 67.9 33.79 68.02 33.95 68.07 34.12 68.06 34.27 67.98 34.39 67.86 34.44 67.69 34.43 67.52 34.43 67.52"/>
      <polygon class="cls-1" points="22.73 23.86 22.65 23.7 22.53 23.59 22.36 23.53 22.19 23.54 22.04 23.62 21.93 23.75 21.87 23.91 21.88 24.08 21.96 24.24 22.09 24.35 22.25 24.4 22.42 24.39 22.57 24.32 22.69 24.19 22.74 24.03 22.73 23.86 22.73 23.86"/>
      <polygon class="cls-1" points="15.98 35.55 15.9 35.4 15.77 35.29 15.61 35.23 15.44 35.24 15.28 35.32 15.17 35.45 15.12 35.61 15.13 35.78 15.2 35.94 15.33 36.05 15.5 36.11 15.67 36.09 15.82 36.02 15.93 35.89 15.99 35.73 15.98 35.55 15.98 35.55"/>
      <polygon class="cls-1" points="15.98 49.06 15.9 48.91 15.77 48.8 15.61 48.74 15.44 48.75 15.28 48.83 15.17 48.96 15.12 49.12 15.13 49.29 15.2 49.45 15.34 49.56 15.5 49.62 15.67 49.6 15.82 49.53 15.94 49.4 15.99 49.24 15.98 49.06 15.98 49.06"/>
      <polygon class="cls-1" points="47.94 67.52 47.87 67.37 47.74 67.26 47.58 67.2 47.4 67.21 47.25 67.29 47.14 67.42 47.08 67.58 47.09 67.75 47.17 67.91 47.3 68.02 47.46 68.07 47.63 68.06 47.79 67.99 47.9 67.86 47.95 67.69 47.94 67.52 47.94 67.52"/>
      <polygon class="cls-1" points="59.64 60.77 59.57 60.61 59.44 60.5 59.27 60.44 59.1 60.46 58.95 60.53 58.84 60.66 58.78 60.82 58.79 61 58.87 61.15 58.99 61.26 59.16 61.32 59.33 61.31 59.48 61.23 59.6 61.1 59.65 60.94 59.64 60.77 59.64 60.77"/>
      <polygon class="cls-1" points="66.4 49.07 66.32 48.91 66.19 48.8 66.03 48.75 65.86 48.75 65.7 48.83 65.59 48.96 65.53 49.12 65.55 49.29 65.62 49.45 65.75 49.56 65.91 49.62 66.08 49.61 66.24 49.53 66.35 49.4 66.41 49.24 66.4 49.07 66.4 49.07"/>
      <polygon class="cls-1" points="67.74 42.42 67.71 41.06 67.6 39.7 67.43 38.34 67.19 36.99 66.88 35.66 66.5 34.35 66.06 33.05 65.55 31.79 64.98 30.54 64.35 29.33 63.66 28.15 62.91 27.01 62.1 25.91 61.23 24.85 60.32 23.83 59.35 22.87 58.33 21.95 57.27 21.09 56.17 20.28 55.03 19.53 53.85 18.83 52.64 18.2 51.4 17.63 50.13 17.12 48.84 16.68 47.52 16.3 46.19 15.99 44.85 15.76 43.49 15.58 42.13 15.48 40.76 15.44 39.39 15.48 38.03 15.58 36.68 15.76 35.33 15.99 34 16.3 32.68 16.68 31.39 17.12 30.12 17.63 28.88 18.2 27.67 18.83 26.49 19.53 25.35 20.28 24.25 21.09 23.19 21.95 22.18 22.87 21.21 23.83 20.29 24.85 19.43 25.91 18.62 27.01 17.87 28.15 17.17 29.33 16.54 30.54 15.97 31.79 15.47 33.05 15.02 34.35 14.65 35.66 14.34 36.99 14.09 38.34 13.92 39.7 13.82 41.06 13.78 42.42 13.82 43.79 13.92 45.15 14.09 46.51 14.34 47.85 14.65 49.19 15.02 50.5 15.47 51.79 15.97 53.07 16.54 54.31 17.17 55.52 17.87 56.7 18.62 57.84 19.43 58.94 20.29 60 21.21 61.01 22.18 61.98 23.19 62.9 24.25 63.76 25.35 64.57 26.49 65.32 27.67 66.01 28.88 66.65 30.12 67.22 31.39 67.72 32.68 68.17 34 68.54 35.33 68.85 36.68 69.1 38.03 69.27 39.39 69.37 40.76 69.4 42.13 69.37 43.49 69.27 44.85 69.1 46.19 68.85 47.52 68.54 48.84 68.17 50.13 67.72 51.4 67.22 52.64 66.65 53.85 66.01 55.03 65.32 56.17 64.57 57.27 63.76 58.33 62.9 59.35 61.98 60.32 61.01 61.23 60 62.1 58.94 62.91 57.84 63.66 56.7 64.35 55.52 64.98 54.31 65.55 53.07 66.06 51.79 66.5 50.5 66.88 49.19 67.19 47.85 67.43 46.51 67.6 45.15 67.71 43.79 67.74 42.42 67.74 42.42"/>
      <polygon class="cls-1" points="65.85 42.42 65.82 41.11 65.71 39.8 65.54 38.5 65.31 37.21 65 35.93 64.63 34.67 64.19 33.43 63.68 32.22 63.12 31.03 62.49 29.88 61.8 28.76 61.06 27.67 60.26 26.63 59.41 25.63 58.51 24.68 57.55 23.78 56.55 22.92 55.51 22.12 54.43 21.38 53.31 20.69 52.15 20.06 50.97 19.5 49.75 19 48.51 18.56 47.26 18.18 45.98 17.88 44.69 17.64 43.38 17.47 42.07 17.36 40.76 17.33 39.45 17.36 38.14 17.47 36.84 17.64 35.55 17.88 34.27 18.18 33.01 18.56 31.77 19 30.56 19.5 29.37 20.06 28.22 20.69 27.1 21.38 26.01 22.12 24.97 22.92 23.97 23.78 23.02 24.68 22.11 25.63 21.26 26.63 20.46 27.67 19.72 28.76 19.03 29.88 18.4 31.03 17.84 32.22 17.34 33.43 16.9 34.67 16.53 35.93 16.22 37.21 15.98 38.5 15.81 39.8 15.7 41.11 15.67 42.42 15.7 43.74 15.81 45.05 15.98 46.35 16.22 47.64 16.53 48.92 16.9 50.18 17.34 51.42 17.84 52.63 18.4 53.82 19.03 54.97 19.72 56.09 20.46 57.18 21.26 58.22 22.11 59.22 23.02 60.17 23.97 61.08 24.97 61.93 26.01 62.73 27.1 63.47 28.22 64.16 29.37 64.79 30.56 65.35 31.77 65.85 33.01 66.29 34.27 66.66 35.55 66.97 36.84 67.21 38.14 67.38 39.45 67.49 40.76 67.52 42.07 67.49 43.38 67.38 44.69 67.21 45.98 66.97 47.26 66.66 48.51 66.29 49.75 65.85 50.97 65.35 52.15 64.79 53.31 64.16 54.43 63.47 55.51 62.73 56.55 61.93 57.55 61.08 58.51 60.17 59.41 59.22 60.26 58.22 61.06 57.18 61.8 56.09 62.49 54.97 63.12 53.82 63.68 52.63 64.19 51.42 64.63 50.18 65 48.92 65.31 47.64 65.54 46.35 65.71 45.05 65.82 43.74 65.85 42.42 65.85 42.42"/>
      <polygon class="cls-1" points="59.64 23.85 59.56 23.7 59.44 23.59 59.27 23.53 59.1 23.54 58.95 23.62 58.84 23.75 58.78 23.91 58.79 24.08 58.87 24.24 59 24.35 59.16 24.41 59.33 24.39 59.48 24.32 59.6 24.19 59.65 24.03 59.64 23.85 59.64 23.85"/>
      <polygon class="cls-1" points="47.94 18.38 47.87 18.23 47.74 18.11 47.57 18.06 47.4 18.07 47.25 18.14 47.13 18.27 47.08 18.44 47.09 18.61 47.17 18.76 47.29 18.88 47.46 18.93 47.63 18.92 47.78 18.84 47.9 18.71 47.95 18.55 47.94 18.38 47.94 18.38"/>
      <polygon class="cls-1" points="34.43 18.38 34.36 18.23 34.23 18.11 34.07 18.06 33.89 18.07 33.74 18.15 33.63 18.27 33.57 18.44 33.58 18.61 33.66 18.76 33.79 18.87 33.95 18.93 34.12 18.92 34.28 18.84 34.38 18.71 34.44 18.55 34.43 18.38 34.43 18.38"/>
      <polygon class="cls-1" points="66.4 35.55 66.32 35.4 66.19 35.29 66.03 35.23 65.86 35.24 65.7 35.32 65.59 35.45 65.53 35.61 65.55 35.78 65.62 35.94 65.75 36.05 65.91 36.11 66.08 36.09 66.24 36.02 66.35 35.89 66.41 35.73 66.4 35.55 66.4 35.55"/>
      <polygon class="cls-1" points="44.06 41.54 43.91 41.08 43.69 40.64 43.4 40.25 43.07 39.89 42.68 39.59 42.26 39.35 41.8 39.17 41.33 39.05 40.84 39 40.36 39.03 39.88 39.12 39.41 39.28 38.98 39.5 38.58 39.78 38.23 40.12 37.93 40.51 37.69 40.93 37.5 41.38 37.39 41.86 37.34 42.34 37.37 42.83 37.46 43.31 37.62 43.77 37.84 44.21 38.13 44.6 38.46 44.96 38.84 45.26 39.27 45.5 39.72 45.68 40.2 45.8 40.68 45.84 41.17 45.82 41.65 45.73 42.11 45.57 42.54 45.35 42.94 45.06 43.29 44.73 43.6 44.34 43.84 43.92 44.02 43.47 44.14 42.99 44.18 42.51 44.16 42.02 44.06 41.54 44.06 41.54"/>
      <polygon class="cls-1" points="45.11 41.26 44.93 40.75 44.7 40.26 44.41 39.79 44.07 39.38 43.68 39 43.24 38.67 42.77 38.4 42.27 38.19 41.75 38.04 41.21 37.95 40.67 37.93 40.13 37.97 39.6 38.08 39.09 38.25 38.59 38.48 38.13 38.78 37.71 39.12 37.34 39.51 37.01 39.94 36.74 40.41 36.53 40.92 36.37 41.44 36.29 41.97 36.27 42.52 36.31 43.06 36.42 43.59 36.59 44.1 36.82 44.6 37.11 45.05 37.45 45.47 37.85 45.85 38.28 46.18 38.75 46.45 39.25 46.66 39.77 46.81 40.31 46.9 40.85 46.92 41.39 46.88 41.92 46.77 42.44 46.6 42.93 46.36 43.39 46.07 43.81 45.73 44.18 45.34 44.52 44.91 44.78 44.43 45 43.93 45.15 43.41 45.24 42.88 45.26 42.33 45.21 41.79 45.11 41.26 45.11 41.26"/>
      <polygon class="cls-1" points="70.67 42.42 70.64 40.96 70.53 39.49 70.35 38.03 70.1 36.59 69.77 35.15 69.38 33.74 68.92 32.35 68.39 30.98 67.8 29.63 67.14 28.32 66.42 27.05 65.63 25.81 64.78 24.61 63.88 23.45 62.92 22.34 61.91 21.27 60.85 20.26 59.74 19.3 58.58 18.4 57.38 17.55 56.14 16.77 54.86 16.04 53.55 15.38 52.21 14.79 50.84 14.26 49.44 13.8 48.03 13.41 46.6 13.09 45.15 12.84 43.69 12.66 42.23 12.55 40.76 12.51 39.3 12.55 37.83 12.66 36.37 12.84 34.93 13.09 33.49 13.41 32.08 13.8 30.68 14.26 29.32 14.79 27.97 15.38 26.66 16.04 25.38 16.77 24.14 17.55 22.94 18.4 21.79 19.3 20.67 20.26 19.61 21.27 18.6 22.34 17.64 23.45 16.74 24.61 15.89 25.81 15.11 27.05 14.38 28.32 13.73 29.63 13.13 30.98 12.6 32.35 12.14 33.74 11.75 35.15 11.42 36.59 11.18 38.03 11 39.49 10.89 40.96 10.85 42.42 10.89 43.89 11 45.36 11.18 46.81 11.42 48.26 11.75 49.69 12.14 51.11 12.6 52.5 13.13 53.87 13.73 55.21 14.38 56.52 15.11 57.81 15.89 59.04 16.74 60.24 17.64 61.4 18.6 62.51 19.61 63.58 20.67 64.59 21.79 65.55 22.94 66.45 24.14 67.3 25.38 68.08 26.66 68.81 27.97 69.47 29.32 70.06 30.68 70.59 32.08 71.05 33.49 71.44 34.93 71.76 36.37 72.02 37.83 72.19 39.3 72.3 40.76 72.34 42.23 72.3 43.69 72.19 45.15 72.02 46.6 71.76 48.03 71.44 49.44 71.05 50.84 70.59 52.21 70.06 53.55 69.47 54.86 68.81 56.14 68.08 57.38 67.3 58.58 66.45 59.74 65.55 60.85 64.59 61.91 63.58 62.92 62.51 63.88 61.4 64.78 60.24 65.63 59.04 66.42 57.81 67.14 56.52 67.8 55.21 68.39 53.87 68.92 52.5 69.38 51.11 69.77 49.69 70.1 48.26 70.35 46.81 70.53 45.36 70.64 43.89 70.67 42.42 70.67 42.42"/>
      <polygon class="cls-1" points="72.59 42.42 72.55 40.86 72.43 39.31 72.24 37.75 71.97 36.21 71.63 34.69 71.21 33.18 70.73 31.7 70.16 30.24 69.53 28.81 68.83 27.42 68.06 26.06 67.22 24.74 66.32 23.47 65.36 22.23 64.34 21.05 63.27 19.92 62.13 18.84 60.95 17.82 59.72 16.86 58.44 15.96 57.12 15.12 55.76 14.36 54.37 13.65 52.94 13.02 51.48 12.46 50 11.97 48.49 11.55 46.97 11.21 45.43 10.94 43.88 10.75 42.32 10.64 40.76 10.6 39.2 10.64 37.64 10.75 36.09 10.94 34.55 11.21 33.03 11.55 31.52 11.97 30.04 12.46 28.58 13.02 27.16 13.65 25.76 14.36 24.4 15.12 23.08 15.96 21.8 16.86 20.57 17.82 19.39 18.84 18.26 19.92 17.18 21.05 16.16 22.23 15.2 23.47 14.3 24.74 13.46 26.06 12.69 27.42 12 28.81 11.36 30.24 10.8 31.7 10.31 33.18 9.89 34.69 9.55 36.21 9.28 37.75 9.09 39.31 8.98 40.86 8.94 42.42 8.98 43.99 9.09 45.54 9.28 47.09 9.55 48.63 9.89 50.16 10.31 51.66 10.8 53.15 11.36 54.6 12 56.03 12.69 57.43 13.46 58.79 14.3 60.11 15.2 61.39 16.16 62.61 17.18 63.8 18.26 64.93 19.39 66.01 20.57 67.03 21.8 67.99 23.08 68.89 24.4 69.73 25.76 70.5 27.16 71.2 28.58 71.83 30.04 72.39 31.52 72.88 33.03 73.3 34.55 73.64 36.09 73.91 37.64 74.1 39.2 74.21 40.76 74.25 42.32 74.21 43.88 74.1 45.43 73.91 46.97 73.64 48.49 73.3 50 72.88 51.48 72.39 52.94 71.83 54.37 71.2 55.76 70.5 57.12 69.73 58.44 68.89 59.72 67.99 60.95 67.03 62.13 66.01 63.27 64.93 64.34 63.8 65.36 62.61 66.32 61.39 67.22 60.11 68.06 58.79 68.83 57.43 69.53 56.03 70.16 54.6 70.73 53.15 71.21 51.66 71.63 50.16 71.97 48.63 72.24 47.09 72.43 45.54 72.55 43.99 72.59 42.42 72.59 42.42"/>
      <polyline class="cls-1" points="40.76 27.36 40.58 27.36 40.4 27.32 40.21 27.27 40.02 27.2 39.81 27.11 39.6 26.99 39.37 26.85 39.13 26.69"/>
      <polyline class="cls-1" points="39.13 26.69 39.52 26.5 39.93 26.38 40.35 26.31 40.76 26.29"/>
      <polyline class="cls-1" points="38.94 26.99 39.22 27.12 39.47 27.25 39.69 27.39 39.88 27.53 40.04 27.67 40.18 27.82 40.3 27.98 40.39 28.14 40.46 28.31 40.52 28.5 40.56 28.69 40.59 28.89 40.6 29.32 40.58 29.82"/>
      <polyline class="cls-1" points="40.58 29.82 40.46 29.75 40.33 29.67 40.2 29.57 40.06 29.44 39.79 29.15 39.53 28.79 39.3 28.38 39.12 27.94 39.04 27.71 38.99 27.47 38.95 27.23 38.94 26.99"/>
      <polyline class="cls-1" points="40.76 26.29 41.27 26.32 41.51 26.36 41.73 26.4 41.93 26.47 42.11 26.53 42.28 26.61 42.41 26.69"/>
      <polyline class="cls-1" points="42.41 26.69 42.18 26.84 41.96 26.97 41.75 27.09 41.55 27.19 41.35 27.26 41.16 27.32 40.96 27.35 40.76 27.36"/>
      <polyline class="cls-1" points="42.58 26.99 42.57 27.23 42.54 27.47 42.48 27.71 42.41 27.94 42.22 28.38 41.99 28.79 41.73 29.15 41.46 29.44 41.32 29.57 41.19 29.67 41.06 29.75 40.94 29.82"/>
      <polyline class="cls-1" points="40.94 29.82 40.92 29.32 40.93 28.89 40.96 28.69 41 28.5 41.06 28.31 41.13 28.14 41.23 27.98 41.34 27.82 41.48 27.67 41.65 27.53 41.84 27.39 42.06 27.25 42.3 27.12 42.58 26.99"/>
      <polygon class="cls-1" points="64.58 42.42 64.55 41.13 64.44 39.85 64.27 38.57 64.02 37.3 63.71 36.05 63.33 34.82 62.89 33.61 62.38 32.42 61.8 31.26 61.17 30.14 60.48 29.05 59.72 28.01 58.91 27 58.06 26.04 57.14 25.13 56.18 24.27 55.17 23.46 54.13 22.71 53.04 22.01 51.92 21.38 50.76 20.81 49.58 20.29 48.37 19.85 47.13 19.47 45.88 19.16 44.62 18.91 43.34 18.74 42.05 18.64 40.76 18.6 39.47 18.64 38.18 18.74 36.91 18.91 35.64 19.16 34.39 19.47 33.16 19.85 31.95 20.29 30.76 20.81 29.61 21.38 28.48 22.01 27.39 22.71 26.35 23.46 25.34 24.27 24.38 25.13 23.47 26.04 22.61 27 21.8 28.01 21.05 29.05 20.35 30.14 19.72 31.26 19.15 32.42 18.63 33.61 18.19 34.82 17.81 36.05 17.5 37.3 17.26 38.57 17.08 39.85 16.98 41.13 16.94 42.42 16.98 43.71 17.08 45 17.26 46.28 17.5 47.54 17.81 48.8 18.19 50.03 18.63 51.24 19.15 52.43 19.72 53.58 20.35 54.71 21.05 55.79 21.8 56.84 22.61 57.85 23.47 58.81 24.38 59.72 25.34 60.58 26.35 61.39 27.39 62.14 28.48 62.84 29.61 63.47 30.76 64.04 31.95 64.55 33.16 65 34.39 65.38 35.64 65.69 36.91 65.93 38.18 66.11 39.47 66.21 40.76 66.25 42.05 66.21 43.34 66.11 44.62 65.93 45.88 65.69 47.13 65.38 48.37 65 49.58 64.55 50.76 64.04 51.92 63.47 53.04 62.84 54.13 62.14 55.17 61.39 56.18 60.58 57.14 59.72 58.06 58.81 58.91 57.85 59.72 56.84 60.48 55.79 61.17 54.71 61.8 53.58 62.38 52.43 62.89 51.24 63.33 50.03 63.71 48.8 64.02 47.54 64.27 46.28 64.44 45 64.55 43.71 64.58 42.42 64.58 42.42"/>
      <polygon class="cls-1" points="63.79 42.42 63.76 41.13 63.65 39.84 63.46 38.57 63.21 37.3 62.89 36.05 62.5 34.82 62.04 33.61 61.51 32.43 60.92 31.28 60.26 30.17 59.54 29.1 58.77 28.07 57.93 27.08 57.04 26.14 56.11 25.25 55.12 24.42 54.09 23.64 53.01 22.92 51.9 22.27 50.75 21.67 49.57 21.15 48.37 20.68 47.14 20.29 45.88 19.97 44.62 19.72 43.34 19.54 42.06 19.43 40.76 19.4 39.47 19.43 38.18 19.54 36.9 19.72 35.64 19.97 34.39 20.29 33.16 20.68 31.95 21.15 30.77 21.67 29.62 22.27 28.51 22.92 27.43 23.64 26.4 24.42 25.42 25.25 24.48 26.14 23.59 27.08 22.75 28.07 21.98 29.1 21.26 30.17 20.61 31.28 20.01 32.43 19.49 33.61 19.02 34.82 18.63 36.05 18.31 37.3 18.06 38.57 17.88 39.84 17.77 41.13 17.73 42.42 17.77 43.72 17.88 45 18.06 46.28 18.31 47.55 18.63 48.8 19.02 50.03 19.49 51.24 20.01 52.42 20.61 53.56 21.26 54.68 21.98 55.75 22.75 56.79 23.59 57.77 24.48 58.71 25.42 59.6 26.4 60.43 27.43 61.21 28.51 61.93 29.62 62.58 30.77 63.17 31.95 63.7 33.16 64.16 34.39 64.56 35.64 64.88 36.9 65.13 38.18 65.31 39.47 65.42 40.76 65.46 42.06 65.42 43.34 65.31 44.62 65.13 45.88 64.88 47.14 64.56 48.37 64.16 49.57 63.7 50.75 63.17 51.9 62.58 53.01 61.93 54.09 61.21 55.12 60.43 56.11 59.6 57.04 58.71 57.93 57.77 58.77 56.79 59.54 55.75 60.26 54.68 60.92 53.56 61.51 52.42 62.04 51.24 62.5 50.03 62.89 48.8 63.21 47.55 63.46 46.28 63.65 45 63.76 43.72 63.79 42.42 63.79 42.42"/>
      <g>
        <line class="cls-1" x1="49.76" y1="53.7" x2="74.73" y2="53.7"/>
        <polygon class="cls-4" points="51.01 55.35 50.31 53.7 51.01 52.05 47.09 53.7 51.01 55.35"/>
      </g>
      <g>
        <line class="cls-1" x1="53.99" y1="69.53" x2="74.73" y2="69.53"/>
        <polygon class="cls-4" points="55.24 71.18 54.54 69.53 55.24 67.88 51.32 69.53 55.24 71.18"/>
      </g>
      <text class="cls-5" transform="translate(35.68 53.09)"><tspan x="0" y="0">xxxxxxxxxxxxx</tspan><tspan x="-.39" y="1.57">☆xxxxxxxxxx☆</tspan></text>
      <text class="cls-3" transform="translate(50.38 68.38) rotate(157.8)"><tspan x="0" y="0">☆</tspan></text>
      <text class="cls-6" transform="translate(48.92 68.97) rotate(160.61)"><tspan x="0" y="0">x</tspan></text>
      <text class="cls-6" transform="translate(48.16 69.24) rotate(162.51)"><tspan x="0" y="0">x</tspan></text>
      <text class="cls-6" transform="translate(47.4 69.48) rotate(164.4)"><tspan x="0" y="0">x</tspan></text>
      <text class="cls-6" transform="translate(46.64 69.69) rotate(166.29)"><tspan x="0" y="0">x</tspan></text>
      <text class="cls-6" transform="translate(45.85 69.88) rotate(168.22)"><tspan x="0" y="0">x</tspan></text>
      <text class="cls-6" transform="translate(45.06 70.05) rotate(170.15)"><tspan x="0" y="0">x</tspan></text>
      <text class="cls-6" transform="translate(44.26 70.19) rotate(172.11)"><tspan x="0" y="0">x</tspan></text>
      <text class="cls-6" transform="translate(43.48 70.29) rotate(173.98)"><tspan x="0" y="0">x</tspan></text>
      <text class="cls-6" transform="translate(42.67 70.38) rotate(175.92)"><tspan x="0" y="0">x</tspan></text>
      <text class="cls-6" transform="translate(41.87 70.44) rotate(177.86)"><tspan x="0" y="0">x</tspan></text>
      <text class="cls-3" transform="translate(41.07 70.48) rotate(-179.34)"><tspan x="0" y="0">☆</tspan></text>
      <text class="cls-6" transform="translate(39.52 70.45) rotate(-176.54)"><tspan x="0" y="0">x</tspan></text>
      <text class="cls-6" transform="translate(38.72 70.4) rotate(-174.63)"><tspan x="0" y="0">x</tspan></text>
      <text class="cls-6" transform="translate(37.9 70.32) rotate(-172.69)"><tspan x="0" y="0">x</tspan></text>
      <text class="cls-6" transform="translate(37.09 70.22) rotate(-170.74)"><tspan x="0" y="0">x</tspan></text>
      <text class="cls-6" transform="translate(36.3 70.09) rotate(-168.85)"><tspan x="0" y="0">x</tspan></text>
      <text class="cls-6" transform="translate(35.52 69.94) rotate(-166.96)"><tspan x="0" y="0">x</tspan></text>
      <text class="cls-6" transform="translate(34.74 69.76) rotate(-165.08)"><tspan x="0" y="0">x</tspan></text>
      <text class="cls-6" transform="translate(33.95 69.55) rotate(-163.15)"><tspan x="0" y="0">x</tspan></text>
      <text class="cls-6" transform="translate(33.17 69.31) rotate(-161.23)"><tspan x="0" y="0">x</tspan></text>
      <text class="cls-6" transform="translate(32.42 69.06) rotate(-159.36)"><tspan x="0" y="0">x</tspan></text>
      <text class="cls-6" transform="translate(31.67 68.78) rotate(-157.48)"><tspan x="0" y="0">x</tspan></text>
      <text class="cls-6" transform="translate(30.92 68.46) rotate(-155.56)"><tspan x="0" y="0">x</tspan></text>
      <text class="cls-6" transform="translate(30.18 68.13) rotate(-153.63)"><tspan x="0" y="0">x</tspan></text>
      <line class="cls-1" x1="131.93" y1="69.53" x2="74.73" y2="69.53"/>
      <line class="cls-1" x1="74.73" y1="53.7" x2="74.73" y2="69.4"/>
    </g>
  </g>
</svg>