<?xml version="1.0" encoding="UTF-8"?>
<svg id="_图层_2" data-name="图层 2" xmlns="http://www.w3.org/2000/svg" xmlns:xlink="http://www.w3.org/1999/xlink" viewBox="0 0 146.5 104.39">
  <defs>
    <style>
      .cls-1, .cls-2 {
        stroke-width: .25px;
      }

      .cls-1, .cls-2, .cls-3, .cls-4, .cls-5 {
        fill: none;
      }

      .cls-1, .cls-2, .cls-3, .cls-5 {
        stroke-miterlimit: 10;
      }

      .cls-1, .cls-3, .cls-5 {
        stroke: #595857;
        stroke-linecap: square;
      }

      .cls-2 {
        stroke: #040000;
        stroke-dasharray: 1;
      }

      .cls-3 {
        stroke-width: .28px;
      }

      .cls-6 {
        fill: #de5c1f;
      }

      .cls-5 {
        stroke-width: .45px;
      }

      .cls-7, .cls-8 {
        fill: #595857;
      }

      .cls-8 {
        font-family: TimesNewRomanPSMT, 'Times New Roman';
        font-size: 6px;
      }

      .cls-9 {
        clip-path: url(#clippath);
      }
    </style>
    <clipPath id="clippath">
      <polygon class="cls-4" points="100.63 52.23 100.59 50.27 100.46 48.3 100.25 46.34 99.96 44.39 99.58 42.46 99.13 40.54 98.6 38.64 97.98 36.77 97.29 34.93 96.51 33.11 95.67 31.34 94.74 29.59 93.74 27.9 92.68 26.24 91.54 24.63 90.34 23.07 89.07 21.57 87.74 20.11 86.35 18.73 84.9 17.39 83.39 16.12 81.84 14.92 80.23 13.78 78.58 12.71 76.88 11.71 75.15 10.79 73.37 9.94 71.56 9.16 69.72 8.47 67.85 7.85 65.96 7.31 64.04 6.86 62.11 6.49 60.17 6.2 58.21 5.98 56.25 5.86 54.28 5.81 52.31 5.86 50.35 5.98 48.39 6.2 46.44 6.49 44.51 6.86 42.6 7.31 40.71 7.85 38.84 8.47 37 9.16 35.19 9.94 33.41 10.79 31.68 11.71 29.98 12.71 28.32 13.78 26.72 14.92 25.17 16.12 23.66 17.39 22.21 18.73 20.82 20.11 19.49 21.57 18.22 23.07 17.01 24.63 15.88 26.24 14.82 27.9 13.82 29.59 12.89 31.34 12.04 33.11 11.28 34.93 10.58 36.77 9.97 38.64 9.43 40.54 8.97 42.46 8.6 44.39 8.31 46.34 8.1 48.3 7.98 50.27 7.93 52.23 7.98 54.2 8.1 56.17 8.31 58.13 8.6 60.08 8.97 62.01 9.43 63.93 9.97 65.83 10.58 67.69 11.28 69.54 12.04 71.36 12.89 73.13 13.82 74.87 14.82 76.57 15.88 78.22 17.01 79.83 18.22 81.39 19.49 82.9 20.82 84.35 22.21 85.74 23.66 87.08 25.17 88.35 26.72 89.55 28.32 90.69 29.98 91.76 31.68 92.75 33.41 93.68 35.19 94.53 37 95.3 38.84 96 40.71 96.61 42.6 97.15 44.51 97.61 46.44 97.98 48.39 98.27 50.35 98.49 52.31 98.6 54.28 98.65 56.25 98.6 58.21 98.49 60.17 98.27 62.11 97.98 64.04 97.61 65.96 97.15 67.85 96.61 69.72 96 71.56 95.3 73.37 94.53 75.15 93.68 76.88 92.75 78.58 91.76 80.23 90.69 81.84 89.55 83.39 88.35 84.9 87.08 86.35 85.74 87.74 84.35 89.07 82.9 90.34 81.39 91.54 79.83 92.68 78.22 93.74 76.57 94.74 74.87 95.67 73.13 96.51 71.36 97.29 69.54 97.98 67.69 98.6 65.83 99.13 63.93 99.58 62.01 99.96 60.08 100.25 58.13 100.46 56.17 100.59 54.2 100.63 52.23 100.63 52.23"/>
    </clipPath>
  </defs>
  <g id="_图层_1-2" data-name="图层 1">
    <g>
      <rect class="cls-2" x=".12" y=".12" width="146.25" height="104.14"/>
      <rect class="cls-4" x="1.65" y="3.54" width="143" height="97"/>
      <text class="cls-8" transform="translate(94.57 90.5)"><tspan x="0" y="0">Nameplate Position</tspan></text>
      <g>
        <polygon class="cls-3" points="100.63 52.23 100.59 50.27 100.46 48.3 100.25 46.34 99.96 44.39 99.58 42.46 99.13 40.54 98.6 38.64 97.98 36.77 97.29 34.93 96.51 33.11 95.67 31.34 94.74 29.59 93.74 27.9 92.68 26.24 91.54 24.63 90.34 23.07 89.07 21.57 87.74 20.11 86.35 18.73 84.9 17.39 83.39 16.12 81.84 14.92 80.23 13.78 78.58 12.71 76.88 11.71 75.15 10.79 73.37 9.94 71.56 9.16 69.72 8.47 67.85 7.85 65.96 7.31 64.04 6.86 62.11 6.49 60.17 6.2 58.21 5.98 56.25 5.86 54.28 5.81 52.31 5.86 50.35 5.98 48.39 6.2 46.44 6.49 44.51 6.86 42.6 7.31 40.71 7.85 38.84 8.47 37 9.16 35.19 9.94 33.41 10.79 31.68 11.71 29.98 12.71 28.32 13.78 26.72 14.92 25.17 16.12 23.66 17.39 22.21 18.73 20.82 20.11 19.49 21.57 18.22 23.07 17.01 24.63 15.88 26.24 14.82 27.9 13.82 29.59 12.89 31.34 12.04 33.11 11.28 34.93 10.58 36.77 9.97 38.64 9.43 40.54 8.97 42.46 8.6 44.39 8.31 46.34 8.1 48.3 7.98 50.27 7.93 52.23 7.98 54.2 8.1 56.17 8.31 58.13 8.6 60.08 8.97 62.01 9.43 63.93 9.97 65.83 10.58 67.69 11.28 69.54 12.04 71.36 12.89 73.13 13.82 74.87 14.82 76.57 15.88 78.22 17.01 79.83 18.22 81.39 19.49 82.9 20.82 84.35 22.21 85.74 23.66 87.08 25.17 88.35 26.72 89.55 28.32 90.69 29.98 91.76 31.68 92.75 33.41 93.68 35.19 94.53 37 95.3 38.84 96 40.71 96.61 42.6 97.15 44.51 97.61 46.44 97.98 48.39 98.27 50.35 98.49 52.31 98.6 54.28 98.65 56.25 98.6 58.21 98.49 60.17 98.27 62.11 97.98 64.04 97.61 65.96 97.15 67.85 96.61 69.72 96 71.56 95.3 73.37 94.53 75.15 93.68 76.88 92.75 78.58 91.76 80.23 90.69 81.84 89.55 83.39 88.35 84.9 87.08 86.35 85.74 87.74 84.35 89.07 82.9 90.34 81.39 91.54 79.83 92.68 78.22 93.74 76.57 94.74 74.87 95.67 73.13 96.51 71.36 97.29 69.54 97.98 67.69 98.6 65.83 99.13 63.93 99.58 62.01 99.96 60.08 100.25 58.13 100.46 56.17 100.59 54.2 100.63 52.23 100.63 52.23"/>
        <g class="cls-9">
          <g>
            <path class="cls-1" d="M25.11,8.95l27.36,33.97s7.67,10.65,19.06,11.26c11.39.62,30.95.99,30.95.99"/>
            <rect class="cls-1" x="39.67" y="10.8" width="3.32" height="3.88" transform="translate(24.99 -27.31) rotate(50.67)"/>
            <polygon class="cls-1" points="39.3 15.54 38.18 14.17 38.78 12.68 40.88 15.25 39.3 15.54"/>
            <polyline class="cls-1" points="53.51 31.1 50.36 28.19 50.36 26.02 51.04 25.16 58.03 20.08 58.03 19.28 63.79 13.83 71.46 14.11 71.46 15.01 60.32 25.28 53.51 31.1"/>
            <line class="cls-1" x1="42.5" y1="17.48" x2="58.03" y2="19.28"/>
            <path class="cls-1" d="M91.7,46.57c5.95.17,10.77.31,10.77.31"/>
            <path class="cls-1" d="M53.69,31.03l7.22,8.79s3.56,6.13,11.11,6.25c2.19.04,5.68.12,9.53.22"/>
            <line class="cls-1" x1="40.75" y1="15.27" x2="50.29" y2="26.89"/>
            <line class="cls-1" x1="35.76" y1="9.2" x2="38.67" y2="12.73"/>
            <path class="cls-1" d="M102.14,45.64h-9.9s-.74.45-.7,1.24,0,1.03,0,1.03l-9.36-.25s-.59-.02-.62-.94,0-4.18,0-4.18h20.59"/>
            <path class="cls-1" d="M42.5,31.1s-2.14,5.88-6.73,8.48l.48,1.36-.48,1.36-5.21,2.23-.68-1.98s-3.09,2.48-11.2,1.98c0,0-.62,1.92-.87,1.77s-1.49-1.58-2.29-3-4.95-.74-4.95-.74h-.62v3.03s.93.56.93,1.79-.43,2.23-.43,2.23c0,0-1.92,1.11-1.92,4.08s.19,4.02,3.22,6.44l.31,7.37s.19.62,1.18.93"/>
            <path class="cls-1" d="M45.03,34.25s-4.02,6.99-6.81,9.1c-2.79,2.1-7.67,4.54-13.74,4.56,0,0-4.15,1.32-3.59,4.48.56,3.16.43,4.15,2.17,5.38,0,0,1.36,2.97,2.44,3.4s1.15.93,1.15.93l1.42,5.08"/>
            <path class="cls-1" d="M21.33,67.18s1.18-.74,2.23,0l.56,2.66.43,1.18h1.79l2.04-4.58s-.06-.87,3.53-.87,35.96.8,35.96.8c0,0,1.38,2,3.94.8,2.56-1.2,2.39-1.61,5.36-2.43s7.1-5.94,7.1-5.94l2.15-3.63"/>
            <polyline class="cls-1" points="91.29 55.17 91.29 60.87 92.53 61.78 102.44 61.8"/>
            <line class="cls-1" x1="83.07" y1="60.19" x2="91.29" y2="60.19"/>
            <line class="cls-1" x1="79.9" y1="63.18" x2="102.47" y2="63.18"/>
            <line class="cls-1" x1="74.95" y1="65.65" x2="97.19" y2="65.65"/>
            <line class="cls-1" x1="74.95" y1="65.65" x2="102.47" y2="65.65"/>
            <path class="cls-1" d="M45.87,36.69s-4.01,6.19-10.78,10.19c-6.77,4-7.97,2-10.88,2.57-1.29.25-3.23,1.93-1.99,4.98,0,0,1.3-.02,2.29,1.55s2.28,3.88,2.28,3.88"/>
            <path class="cls-1" d="M45.87,36.36s7.91,9.92,10.92,12.87c2.28,2.24,6.99,5.69,11.33,5.94,4.33.25,5.63,1.05,9.41.62,0,0-4.89,3.67-8.6,3.92"/>
            <path class="cls-1" d="M30.37,57.71c-3.96.12-3.97-3.36-3.16-4.34.72-.87,2.79-1.42,4.27-1.42s4.21-1.24,4.21-1.24l1.49-.84,4.58-3s3.03-2.79,4.39-4.33c1.36-1.55,2.85,0,2.85,0l2.23,2.68s2.21,2.64-.94,4.65c-3.15,2.01-9.09,5.06-12.24,5.74"/>
            <path class="cls-1" d="M36.12,51.89l1.92,1.92v4.46h-7.67v-4.77l2.57-1.49,3.18-.12c1.92-.31,2.91-1.18,4.63-2.11,2.76-1.49,6.64-6.31,6.64-6.31,0,0,3.12,3.14,2.9,3.59-1.05,2.17-3.95,3.4-3.95,3.4,0,0-7.88,3.61-8.25,3.42"/>
            <path class="cls-1" d="M82.38,54.64s-3.64,6.39-13.7,7.96h-2.06l-39.96-.5"/>
            <path class="cls-1" d="M85.26,55.17s-2.72,5.86-8.83,8.33c0,0-4.13.92-4.97,2.48s-3.24-.33-3.24-.33l-35.28-1.2s-3.24-1.32-5.29,1.2"/>
            <path class="cls-1" d="M17.27,83.19h-.91l-3.05-10.48,1.16-.41-1.31-3.88c-.05-.19-.1-.38-.13-.58-.43-2.54,1.04-4.91,3.29-5.29s4.42,1.37,4.85,3.91c.05.28.07.57.07.84l2.26,13.81.21.47-1.03.37,1.36,8.86"/>
            <line class="cls-1" x1="18.71" y1="90.81" x2="17.27" y2="83.19"/>
            <path class="cls-1" d="M17.27,83.19c-.12-1.36,1.02-2.77,2.54-2.91,1.26-.11,2.45.67,2.87,1.67"/>
            <line class="cls-1" x1="14.46" y1="72.3" x2="14.46" y2="72.3"/>
            <rect class="cls-1" x="15.66" y="64.99" width="2.64" height="2.64" transform="translate(-45.4 38.14) rotate(-51.34)"/>
            <path class="cls-1" d="M64.9,56.62l-9.31-6.1c-.52-.34-1.17-.37-1.72-.09l-9.93,5.04c-1.57.8-1.07,3.15.68,3.25l19.24,1.06c1.76.1,2.51-2.19,1.04-3.16Z"/>
            <path class="cls-1" d="M62,56.18l-6.76-4.43c-.37-.24-.85-.27-1.25-.07l-7.2,3.66c-1.14.58-.78,2.29.5,2.36l13.96.77c1.27.07,1.82-1.59.75-2.29Z"/>
            <circle class="cls-1" cx="14.42" cy="54.43" r="1.47"/>
            <circle class="cls-1" cx="14.42" cy="54.43" r="3.56"/>
            <circle class="cls-1" cx="14.42" cy="54.43" r="4.55"/>
            <line class="cls-1" x1="38.67" y1="37.25" x2="38.67" y2="25.79"/>
            <line class="cls-1" x1="8.52" y1="41.86" x2="35.53" y2="42.48"/>
            <line class="cls-1" x1="37.9" y1="38.01" x2="37.9" y2="24.74"/>
            <line class="cls-1" x1="8.52" y1="40.81" x2="36.18" y2="41.46"/>
            <polyline class="cls-1" points="31.71 17.15 31.71 21.59 16.98 21.59 16.98 8.95 31.71 8.95"/>
            <polyline class="cls-1" points="30.37 15.54 30.37 21.08 18.32 21.08 18.32 9.2"/>
            <polyline class="cls-1" points="30.37 15.54 30.37 21.08 18.32 21.08 18.32 9.2"/>
            <polyline class="cls-1" points="30.37 20.52 20.34 20.52 20.34 9.2"/>
            <line class="cls-1" x1="24.22" y1="59.85" x2="46.77" y2="60.19"/>
            <rect class="cls-6" x="48.75" y="55.01" width="19.93" height="7.59"/>
          </g>
        </g>
      </g>
      <g>
        <polyline class="cls-5" points="68.21 62.27 85.65 92.81 143.28 92.81"/>
        <polygon class="cls-7" points="66.65 59.54 67.28 64.29 68.33 62.48 70.43 62.49 66.65 59.54"/>
      </g>
    </g>
  </g>
</svg>