<?xml version="1.0" encoding="UTF-8"?>
<svg id="_图层_2" data-name="图层 2" xmlns="http://www.w3.org/2000/svg" viewBox="0 0 16.51 6.34">
  <defs>
    <style>
      .cls-1 {
        fill: none;
        stroke: #565757;
        stroke-linecap: square;
        stroke-miterlimit: 10;
        stroke-width: .23px;
      }
    </style>
  </defs>
  <g id="_图层_1-2" data-name="图层 1">
    <g>
      <line class="cls-1" x1="5.65" y1=".19" x2="6.31" y2=".13"/>
      <line class="cls-1" x1="6.35" y1=".65" x2="5.68" y2=".7"/>
      <line class="cls-1" x1="10.25" y1=".13" x2="11.01" y2=".18"/>
      <line class="cls-1" x1="10.97" y1=".69" x2="10.22" y2=".64"/>
      <line class="cls-1" x1="6.31" y1=".13" x2="6.74" y2=".19"/>
      <line class="cls-1" x1="13.4" y1=".45" x2="13.9" y2=".56"/>
      <line class="cls-1" x1="15.69" y1=".95" x2="16.35" y2="1.09"/>
      <line class="cls-1" x1="11.01" y1=".18" x2="11.42" y2=".3"/>
      <line class="cls-1" x1="5.24" y1=".3" x2="5.65" y2=".19"/>
      <line class="cls-1" x1=".14" y1="1.14" x2=".63" y2="1.03"/>
      <line class="cls-1" x1="9.83" y1=".18" x2="10.25" y2=".13"/>
      <line class="cls-1" x1="5.91" y1="3.68" x2="6.58" y2="3.62"/>
      <line class="cls-1" x1="12.1" y1="1.29" x2="11.6" y2="1.25"/>
      <line class="cls-1" x1="11.46" y1="3.21" x2="11.96" y2="3.25"/>
      <line class="cls-1" x1="10" y1="3.62" x2="10.75" y2="3.67"/>
      <line class="cls-1" x1="6.69" y1=".7" x2="6.35" y2=".65"/>
      <line class="cls-1" x1="11.3" y1=".8" x2="10.97" y2=".69"/>
      <line class="cls-1" x1="6.74" y1=".19" x2="7.08" y2=".33"/>
      <line class="cls-1" x1="11.42" y1=".3" x2="11.74" y2=".49"/>
      <line class="cls-1" x1="4.91" y1=".5" x2="5.24" y2=".3"/>
      <line class="cls-1" x1="9.48" y1=".33" x2="9.83" y2=".18"/>
      <line class="cls-1" x1="5.69" y1=".7" x2="5.36" y2=".81"/>
      <line class="cls-1" x1="1.39" y1="4.45" x2="3.84" y2="3.9"/>
      <line class="cls-1" x1="10.22" y1=".64" x2="9.88" y2=".7"/>
      <line class="cls-1" x1="6.62" y1="4.13" x2="5.95" y2="4.19"/>
      <line class="cls-1" x1="10.72" y1="4.18" x2="9.97" y2="4.13"/>
      <line class="cls-1" x1="5.95" y1="4.19" x2="5.53" y2="4.13"/>
      <line class="cls-1" x1="5.57" y1="3.62" x2="5.91" y2="3.68"/>
      <line class="cls-1" x1="15.49" y1="5.01" x2="14.84" y2="4.87"/>
      <line class="cls-1" x1="13.04" y1="4.48" x2="12.55" y2="4.37"/>
      <line class="cls-1" x1="9.97" y1="4.13" x2="9.55" y2="4.01"/>
      <line class="cls-1" x1="9.67" y1="3.51" x2="10" y2="3.62"/>
      <line class="cls-1" x1="5.53" y1="4.13" x2="5.18" y2="3.99"/>
      <line class="cls-1" x1="6.96" y1=".86" x2="6.69" y2=".71"/>
      <line class="cls-1" x1="9.55" y1="4.01" x2="9.23" y2="3.82"/>
      <line class="cls-1" x1="11.53" y1=".99" x2="11.3" y2=".8"/>
      <line class="cls-1" x1="5.36" y1=".81" x2="5.12" y2="1"/>
      <line class="cls-1" x1="7.35" y1="3.82" x2="7.03" y2="4.02"/>
      <line class="cls-1" x1="9.88" y1=".7" x2="9.61" y2=".85"/>
      <line class="cls-1" x1="11.49" y1="3.98" x2="11.14" y2="4.13"/>
      <line class="cls-1" x1="6.58" y1="3.62" x2="6.91" y2="3.51"/>
      <line class="cls-1" x1="7.03" y1="4.02" x2="6.62" y2="4.14"/>
      <line class="cls-1" x1="3.95" y1="4.4" x2="1.01" y2="5.06"/>
      <line class="cls-1" x1="10.75" y1="3.67" x2="11.09" y2="3.61"/>
      <line class="cls-1" x1="11.14" y1="4.13" x2="10.72" y2="4.18"/>
      <line class="cls-1" x1="5.31" y1="3.46" x2="5.57" y2="3.62"/>
      <line class="cls-1" x1="9.44" y1="3.32" x2="9.68" y2="3.51"/>
      <line class="cls-1" x1="7.08" y1=".33" x2="7.44" y2=".65"/>
      <line class="cls-1" x1="11.74" y1=".49" x2="12.05" y2=".86"/>
      <line class="cls-1" x1="4.61" y1=".86" x2="4.91" y2=".5"/>
      <line class="cls-1" x1="9.13" y1=".65" x2="9.48" y2=".33"/>
      <line class="cls-1" x1="6.91" y1="3.51" x2="7.15" y2="3.32"/>
      <line class="cls-1" x1="13.48" y1="2.48" x2="15.69" y2=".95"/>
      <line class="cls-1" x1="14.03" y1="2.68" x2="13.33" y2="3.14"/>
      <line class="cls-1" x1="11.09" y1="3.61" x2="11.36" y2="3.46"/>
      <line class="cls-1" x1="5.18" y1="3.99" x2="4.82" y2="3.67"/>
      <line class="cls-1" x1="9.23" y1="3.82" x2="8.92" y2="3.46"/>
      <line class="cls-1" x1="7.14" y1="1.1" x2="6.96" y2=".86"/>
      <line class="cls-1" x1="5.12" y1="1" x2="4.97" y2="1.26"/>
      <line class="cls-1" x1="9.61" y1=".85" x2="9.43" y2="1.1"/>
      <line class="cls-1" x1="7.66" y1="3.46" x2="7.35" y2="3.82"/>
      <line class="cls-1" x1="11.84" y1="3.67" x2="11.49" y2="3.98"/>
      <line class="cls-1" x1="16.35" y1="1.09" x2="14.53" y2="2.36"/>
      <line class="cls-1" x1="5.12" y1="3.22" x2="5.31" y2="3.46"/>
      <line class="cls-1" x1="7.44" y1=".65" x2="7.64" y2=".98"/>
      <line class="cls-1" x1="9.29" y1="3.05" x2="9.44" y2="3.32"/>
      <line class="cls-1" x1="14.84" y1="4.87" x2="14.03" y2="2.68"/>
      <line class="cls-1" x1="14.53" y1="2.36" x2="15.49" y2="5.01"/>
      <line class="cls-1" x1="4.47" y1="1.22" x2="4.61" y2=".86"/>
      <line class="cls-1" x1="7.15" y1="3.32" x2="7.29" y2="3.06"/>
      <line class="cls-1" x1="8.93" y1=".97" x2="9.13" y2=".65"/>
      <line class="cls-1" x1="4.82" y1="3.67" x2="4.63" y2="3.35"/>
      <line class="cls-1" x1="8.92" y1="3.46" x2="8.78" y2="3.1"/>
      <line class="cls-1" x1="7.8" y1="3.1" x2="7.66" y2="3.46"/>
      <line class="cls-1" x1="7.25" y1="1.43" x2="7.14" y2="1.1"/>
      <line class="cls-1" x1="4.42" y1="1.65" x2="4.47" y2="1.22"/>
      <line class="cls-1" x1="4.97" y1="1.26" x2="4.92" y2="1.61"/>
      <line class="cls-1" x1="8.82" y1="1.39" x2="8.93" y2=".97"/>
      <line class="cls-1" x1="9.43" y1="1.1" x2="9.32" y2="1.43"/>
      <line class="cls-1" x1="11.36" y1="3.46" x2="11.46" y2="3.21"/>
      <line class="cls-1" x1="5.01" y1="2.89" x2="5.12" y2="3.22"/>
      <line class="cls-1" x1="7.85" y1="2.67" x2="7.8" y2="3.1"/>
      <line class="cls-1" x1="7.29" y1="3.06" x2="7.35" y2="2.71"/>
      <line class="cls-1" x1="11.96" y1="3.25" x2="11.84" y2="3.67"/>
      <line class="cls-1" x1="1.01" y1="5.06" x2=".14" y2="1.14"/>
      <line class="cls-1" x1=".63" y1="1.03" x2="1.39" y2="4.45"/>
      <line class="cls-1" x1="4.51" y1="2.93" x2="4.42" y2="1.65"/>
      <line class="cls-1" x1="4.92" y1="1.61" x2="5.01" y2="2.89"/>
      <line class="cls-1" x1="8.73" y1="2.67" x2="8.82" y2="1.39"/>
      <line class="cls-1" x1="9.32" y1="1.43" x2="9.23" y2="2.71"/>
      <line class="cls-1" x1="12.55" y1="4.37" x2="13.4" y2=".45"/>
      <line class="cls-1" x1="13.89" y1=".56" x2="13.48" y2="2.48"/>
      <line class="cls-1" x1="13.33" y1="3.14" x2="13.04" y2="4.48"/>
      <line class="cls-1" x1="4.63" y1="3.35" x2="4.51" y2="2.93"/>
      <line class="cls-1" x1="3.84" y1="3.9" x2="3.95" y2="4.4"/>
      <line class="cls-1" x1="8.78" y1="3.1" x2="8.73" y2="2.67"/>
      <line class="cls-1" x1="7.35" y1="2.71" x2="7.25" y2="1.43"/>
      <line class="cls-1" x1="7.75" y1="1.39" x2="7.85" y2="2.67"/>
      <line class="cls-1" x1="9.23" y1="2.71" x2="9.29" y2="3.05"/>
      <line class="cls-1" x1="7.64" y1=".97" x2="7.75" y2="1.39"/>
      <line class="cls-1" x1="11.6" y1="1.25" x2="11.53" y2=".99"/>
      <line class="cls-1" x1="12.05" y1=".86" x2="12.1" y2="1.29"/>
      <path class="cls-1" d="M8.29,6.22c.44,0,.8-.36.8-.8s-.36-.8-.8-.8-.8.36-.8.8.36.8.8.8Z"/>
    </g>
  </g>
</svg>