<?xml version="1.0" encoding="UTF-8"?>
<svg id="_图层_2" data-name="图层 2" xmlns="http://www.w3.org/2000/svg" xmlns:xlink="http://www.w3.org/1999/xlink" viewBox="0 0 195.65 188.21">
  <defs>
    <style>
      .cls-1 {
        stroke: #fff;
        stroke-width: .8px;
      }

      .cls-1, .cls-2, .cls-3, .cls-4, .cls-5 {
        fill: none;
      }

      .cls-1, .cls-3, .cls-5 {
        stroke-miterlimit: 10;
      }

      .cls-6 {
        fill: #595757;
      }

      .cls-3 {
        stroke-dasharray: 1.98 1.98;
        stroke-width: .5px;
      }

      .cls-3, .cls-4 {
        stroke: #54565a;
      }

      .cls-4 {
        stroke-linecap: round;
        stroke-linejoin: round;
        stroke-width: .24px;
      }

      .cls-7 {
        fill: #fff;
        font-family: HYQiHei-DES, 'HYQiHei DES';
        font-size: 8.58px;
      }

      .cls-8 {
        clip-path: url(#clippath);
      }

      .cls-5 {
        stroke: #040000;
        stroke-linecap: square;
        stroke-width: .12px;
      }
    </style>
    <clipPath id="clippath">
      <rect class="cls-2" x="9.64" y="39.22" width="177.13" height="144.74"/>
    </clipPath>
  </defs>
  <g id="_图层_1-2" data-name="图层 1">
    <g>
      <g>
        <path class="cls-6" d="M37.05,16.24c0,3.36-2.72,6.08-6.08,6.08s-6.08-2.72-6.08-6.08,2.72-6.08,6.08-6.08,6.08,2.72,6.08,6.08Z"/>
        <text class="cls-7" transform="translate(28.4 18.82)"><tspan x="0" y="0">1</tspan></text>
      </g>
      <g>
        <path class="cls-6" d="M51.06,16.24c0,3.36-2.72,6.08-6.08,6.08s-6.08-2.72-6.08-6.08,2.72-6.08,6.08-6.08,6.08,2.72,6.08,6.08Z"/>
        <text class="cls-7" transform="translate(42.42 18.82)"><tspan x="0" y="0">2</tspan></text>
      </g>
      <g>
        <path class="cls-6" d="M70.93,16.24c0,3.36-2.72,6.08-6.08,6.08s-6.08-2.72-6.08-6.08,2.72-6.08,6.08-6.08,6.08,2.72,6.08,6.08Z"/>
        <text class="cls-7" transform="translate(62.28 18.82)"><tspan x="0" y="0">3</tspan></text>
      </g>
      <g>
        <path class="cls-6" d="M104.69,16.24c0,3.36-2.72,6.08-6.08,6.08s-6.08-2.72-6.08-6.08,2.72-6.08,6.08-6.08,6.08,2.72,6.08,6.08Z"/>
        <text class="cls-7" transform="translate(96.04 18.82)"><tspan x="0" y="0">4</tspan></text>
      </g>
      <g>
        <path class="cls-6" d="M122.83,16.24c0,3.36-2.72,6.08-6.08,6.08s-6.08-2.72-6.08-6.08,2.72-6.08,6.08-6.08,6.08,2.72,6.08,6.08Z"/>
        <text class="cls-7" transform="translate(114.19 18.82)"><tspan x="0" y="0">5</tspan></text>
      </g>
      <g>
        <path class="cls-6" d="M138.85,16.24c0,3.36-2.72,6.08-6.08,6.08s-6.08-2.72-6.08-6.08,2.72-6.08,6.08-6.08,6.08,2.72,6.08,6.08Z"/>
        <text class="cls-7" transform="translate(130.2 18.82)"><tspan x="0" y="0">6</tspan></text>
      </g>
      <g>
        <path class="cls-6" d="M158.71,16.24c0,3.36-2.72,6.08-6.08,6.08s-6.08-2.72-6.08-6.08,2.72-6.08,6.08-6.08,6.08,2.72,6.08,6.08Z"/>
        <text class="cls-7" transform="translate(150.06 18.82)"><tspan x="0" y="0">7</tspan></text>
      </g>
      <g>
        <path class="cls-6" d="M172.33,16.24c0,3.36-2.72,6.08-6.08,6.08s-6.08-2.72-6.08-6.08,2.72-6.08,6.08-6.08,6.08,2.72,6.08,6.08Z"/>
        <text class="cls-7" transform="translate(163.68 18.82)"><tspan x="0" y="0">8</tspan></text>
      </g>
      <line class="cls-1" x1="98.61" y1="22.64" x2="98.61" y2="51.72"/>
      <line class="cls-4" x1="98.61" y1="22.64" x2="98.61" y2="87.93"/>
      <line class="cls-1" x1="30.97" y1="22.64" x2="30.97" y2="51.72"/>
      <line class="cls-4" x1="30.97" y1="22.64" x2="30.97" y2="99.15"/>
      <line class="cls-1" x1="44.95" y1="22.64" x2="44.95" y2="51.72"/>
      <line class="cls-4" x1="44.95" y1="22.64" x2="44.95" y2="100.94"/>
      <line class="cls-1" x1="64.85" y1="22.64" x2="64.85" y2="51.72"/>
      <line class="cls-4" x1="64.85" y1="22.64" x2="64.85" y2="96.36"/>
      <line class="cls-1" x1="116.75" y1="22.64" x2="116.75" y2="51.72"/>
      <line class="cls-4" x1="116.75" y1="22.64" x2="116.75" y2="122.26"/>
      <line class="cls-1" x1="132.76" y1="22.64" x2="132.76" y2="51.72"/>
      <line class="cls-4" x1="132.76" y1="22.64" x2="132.76" y2="96.54"/>
      <line class="cls-1" x1="152.62" y1="22.64" x2="152.62" y2="51.72"/>
      <line class="cls-4" x1="152.62" y1="22.32" x2="152.62" y2="102.84"/>
      <line class="cls-1" x1="166.24" y1="22.64" x2="166.24" y2="51.72"/>
      <line class="cls-4" x1="166.24" y1="22.64" x2="166.24" y2="99.15"/>
      <rect class="cls-3" x=".25" y=".25" width="195.15" height="187.71"/>
      <rect class="cls-5" x="114.68" y="122.26" width=".48" height="1.45"/>
      <g class="cls-8">
        <g>
          <g>
            <polyline class="cls-5" points="184.36 49.48 184.45 49.3 184.51 49.09"/>
            <polyline class="cls-5" points="184.51 49.09 184.56 48.9 184.57 48.69 184.54 48.5 184.5 48.29 184.44 48.09 184.33 47.91 184.21 47.73 184.08 47.59"/>
            <line class="cls-5" x1="183.94" y1="47.59" x2="184.08" y2="47.47"/>
            <line class="cls-5" x1="150.79" y1="66.11" x2="154" y2="63.62"/>
            <line class="cls-5" x1="151.85" y1="61.4" x2="149.25" y2="64.53"/>
            <line class="cls-5" x1="48.61" y1="64.53" x2="46.11" y2="61.49"/>
            <line class="cls-5" x1="43.95" y1="63.71" x2="47.07" y2="66.12"/>
            <polyline class="cls-5" points="154.84 63.56 155.24 63.43 155.63 63.22 155.97 62.95"/>
            <polyline class="cls-5" points="152.57 59.46 152.3 59.78 152.07 60.14 151.93 60.55 151.85 60.98 151.85 61.4"/>
            <line class="cls-5" x1="154" y1="63.64" x2="154.27" y2="63.62"/>
            <polyline class="cls-5" points="41.9 62.95 42.23 63.22 42.62 63.43 43.04 63.58"/>
            <line class="cls-5" x1="43.59" y1="63.64" x2="43.86" y2="63.62"/>
            <polyline class="cls-5" points="46.02 61.4 46.01 60.96 45.93 60.55 45.78 60.14 45.56 59.78 45.29 59.46"/>
            <line class="cls-5" x1="133.46" y1="83.49" x2="133.66" y2="83.32"/>
            <line class="cls-5" x1="136.97" y1="83.49" x2="137.16" y2="83.32"/>
            <line class="cls-5" x1="150.78" y1="66.11" x2="150.79" y2="66.11"/>
            <polyline class="cls-5" points="149.25 64.53 149.39 64.85 149.88 65.41 150.45 65.94 150.78 66.12"/>
            <polyline class="cls-5" points="151.73 61.53 151.93 61.89 152.37 62.46 152.97 63.05 153.51 63.53 153.87 63.73"/>
            <line class="cls-5" x1="64.2" y1="83.49" x2="64.4" y2="83.32"/>
            <line class="cls-5" x1="60.7" y1="83.49" x2="60.89" y2="83.32"/>
            <polyline class="cls-5" points="47.2 66.11 47.49 65.95 47.98 65.5 48.43 64.99 48.6 64.68"/>
            <line class="cls-5" x1="47.07" y1="66.11" x2="47.08" y2="66.11"/>
            <polyline class="cls-5" points="47.08 66.11 47.41 65.94 47.98 65.41 48.47 64.85 48.6 64.53"/>
            <polyline class="cls-5" points="43.96 63.73 44.29 63.58 44.89 63.07 45.54 62.38 46.01 61.78 46.11 61.49"/>
            <line class="cls-5" x1="45.99" y1="61.49" x2="46.1" y2="61.47"/>
            <line class="cls-5" x1="43.95" y1="63.71" x2="43.95" y2="63.59"/>
            <line class="cls-5" x1="43.95" y1="63.73" x2="43.96" y2="63.71"/>
            <line class="cls-5" x1="136.25" y1="83.32" x2="136.25" y2="82.7"/>
            <line class="cls-5" x1="134.31" y1="82.69" x2="134.31" y2="83.32"/>
            <polyline class="cls-5" points="136.25 82.7 136.27 82.17 136.33 81.63 136.42 81.09 136.57 80.57 136.75 80.06 136.97 79.57 137.12 79.34 137.27 79.13 137.43 78.93 137.61 78.72"/>
            <polyline class="cls-5" points="136.24 77.34 135.98 77.61 135.76 77.9 135.55 78.18 135.34 78.49 135.18 78.81 135.01 79.14 134.87 79.46 134.75 79.81 134.64 80.17 134.55 80.51 134.43 81.23 134.34 81.96 134.31 82.69"/>
            <polyline class="cls-5" points="136.97 83.32 136.94 83.32 136.84 83.32 136.69 83.32 136.48 83.32 136.22 83.32 135.94 83.32 135.31 83.32 134.67 83.32 134.39 83.32 134.15 83.32 133.94 83.32 133.79 83.32 133.69 83.32 133.66 83.32"/>
            <line class="cls-5" x1="133.46" y1="83.48" x2="133.13" y2="87.29"/>
            <line class="cls-5" x1="137.51" y1="87.29" x2="137.16" y2="83.48"/>
            <line class="cls-5" x1="137.61" y1="78.72" x2="142.93" y2="73.57"/>
            <line class="cls-5" x1="141.46" y1="72.27" x2="136.24" y2="77.34"/>
            <line class="cls-5" x1="150.66" y1="66.06" x2="142.88" y2="73.61"/>
            <line class="cls-5" x1="149.31" y1="64.68" x2="141.46" y2="72.3"/>
            <polyline class="cls-5" points="150.63 66.09 150.6 66.09 150.54 66.06 150.46 66.01 150.36 65.95 150.25 65.86 150.15 65.76 149.9 65.53 149.67 65.28 149.46 65.04 149.39 64.94 149.33 64.85 149.3 64.77 149.27 64.71"/>
            <line class="cls-5" x1="156.76" y1="63.17" x2="156.81" y2="63.14"/>
            <polyline class="cls-5" points="154 63.62 153.93 63.59 153.81 63.53 153.67 63.44 153.52 63.32 153.36 63.19 153.16 63.02 152.78 62.64 152.42 62.25 152.25 62.05 152.12 61.87 152 61.73 151.93 61.59 151.87 61.47 151.85 61.4"/>
            <polyline class="cls-5" points="154.25 63.64 154.54 63.62 154.84 63.56"/>
            <polyline class="cls-5" points="154.84 63.56 155.14 63.47 155.42 63.34 155.69 63.17 155.94 62.96"/>
            <polyline class="cls-5" points="156.43 63.16 156.37 63.17 156.3 63.14 156.21 63.11 156.09 63.05 155.97 62.96 155.82 62.87 155.67 62.76 155.51 62.62 155.13 62.32 154.75 61.96 154.34 61.58 153.94 61.16 153.55 60.74 153.21 60.34 152.91 59.96 152.78 59.78 152.67 59.62 152.57 59.47 152.49 59.34 152.43 59.23 152.39 59.13 152.37 59.05 152.37 58.98 152.39 58.95 152.42 58.92"/>
            <line class="cls-5" x1="156.43" y1="63.23" x2="156.76" y2="63.16"/>
            <polyline class="cls-5" points="156.76 63.17 156.7 63.19 156.63 63.16 156.54 63.13 156.43 63.07 156.3 62.99 156.17 62.9 156.02 62.8 155.85 62.68 155.69 62.55 155.49 62.38 155.12 62.05 154.72 61.67 154.3 61.26 153.91 60.84 153.54 60.43 153.2 60.02 152.9 59.65 152.78 59.49 152.67 59.32 152.57 59.17 152.49 59.04 152.43 58.92 152.39 58.83 152.37 58.74 152.36 58.68"/>
            <line class="cls-5" x1="156.76" y1="63.17" x2="159.11" y2="61.08"/>
            <line class="cls-5" x1="152.36" y1="58.68" x2="152.61" y2="58.41"/>
            <line class="cls-5" x1="154.4" y1="51.71" x2="154.4" y2="51.71"/>
            <polyline class="cls-5" points="154.4 51.71 154.03 52.23 153.69 52.77 153.36 53.32 153.06 53.89 152.79 54.47 152.54 55.07 152.33 55.66 152.12 56.28"/>
            <line class="cls-5" x1="152.06" y1="56.5" x2="152.12" y2="56.28"/>
            <line class="cls-5" x1="151.88" y1="57.22" x2="152.06" y2="56.5"/>
            <line class="cls-5" x1="151.88" y1="57.22" x2="151.88" y2="57.22"/>
            <polyline class="cls-5" points="151.88 57.22 151.85 57.35 151.85 57.47 151.87 57.6 151.91 57.72 151.96 57.84 152.03 57.96 152.12 58.05 152.22 58.14"/>
            <polyline class="cls-5" points="155.69 50.59 155.33 50.81 154.99 51.06 154.67 51.36 154.4 51.71"/>
            <line class="cls-5" x1="156.72" y1="60.49" x2="156.84" y2="60.46"/>
            <polyline class="cls-5" points="172.33 43.6 171.94 43.55 171.55 43.55"/>
            <polyline class="cls-5" points="171.41 43.57 171.03 43.64 170.69 43.76"/>
            <line class="cls-5" x1="160.42" y1="61.31" x2="160.43" y2="61.26"/>
            <polyline class="cls-5" points="160.43 61.31 161.33 61.4 162.21 61.43"/>
            <polyline class="cls-5" points="170.69 43.76 168.76 44.52 166.87 45.32 164.97 46.14 163.09 46.97 161.23 47.84 159.37 48.73 157.52 49.65 155.7 50.59"/>
            <line class="cls-5" x1="155.69" y1="50.59" x2="155.7" y2="50.59"/>
            <line class="cls-5" x1="170.67" y1="43.76" x2="170.69" y2="43.76"/>
            <polyline class="cls-5" points="152.22 58.14 152.67 58.46 153.15 58.75 153.61 59.05 154.11 59.32 154.6 59.57 155.09 59.81 155.6 60.02 156.12 60.23 156.64 60.43 157.17 60.59 157.7 60.75 158.24 60.89 158.78 61.01 159.31 61.11 159.87 61.2 160.42 61.26"/>
            <line class="cls-5" x1="152.22" y1="58.14" x2="152.22" y2="58.14"/>
            <polyline class="cls-5" points="170.67 43.76 168.76 44.52 166.87 45.32 164.97 46.14 163.09 46.97 161.23 47.84 159.36 48.73 157.52 49.65 155.69 50.59"/>
            <polyline class="cls-5" points="172.32 43.6 171.9 43.55 171.49 43.57"/>
            <polyline class="cls-5" points="171.49 43.57 171.08 43.63 170.67 43.76"/>
            <line class="cls-5" x1="172.32" y1="43.6" x2="172.33" y2="43.6"/>
            <polyline class="cls-5" points="183.94 47.47 182.48 46.79 181.03 46.18 179.58 45.63 178.12 45.12 176.67 44.66 175.23 44.26 173.78 43.9 172.32 43.6"/>
            <polyline class="cls-5" points="162.23 61.43 168.41 61.46 174.58 61.43"/>
            <polyline class="cls-5" points="176.81 60.4 177.88 59.13 178.91 57.83 179.91 56.5 180.88 55.14 181.81 53.77 182.7 52.36 183.56 50.93 184.36 49.48"/>
            <polyline class="cls-5" points="174.58 61.43 174.84 61.41 175.08 61.38"/>
            <polyline class="cls-5" points="176.29 60.87 176.02 61.05 175.72 61.2 175.4 61.31 175.08 61.38"/>
            <polyline class="cls-5" points="176.29 60.87 176.55 60.65 176.81 60.4"/>
            <line class="cls-5" x1="63.55" y1="83.32" x2="63.55" y2="82.69"/>
            <line class="cls-5" x1="61.61" y1="82.7" x2="61.61" y2="83.32"/>
            <polyline class="cls-5" points="63.55 82.69 63.52 81.96 63.43 81.23 63.31 80.51 63.22 80.17 63.11 79.81 62.99 79.46 62.84 79.13 62.7 78.81 62.52 78.49 62.31 78.18 62.1 77.9 61.87 77.61 61.62 77.34"/>
            <polyline class="cls-5" points="60.25 78.72 60.43 78.93 60.59 79.13 60.74 79.34 60.89 79.57 61.11 80.06 61.31 80.57 61.44 81.09 61.53 81.63 61.59 82.17 61.61 82.7"/>
            <polyline class="cls-5" points="60.89 83.32 60.92 83.32 61.02 83.32 61.17 83.32 61.38 83.32 61.62 83.32 61.92 83.32 62.55 83.32 63.17 83.32 63.47 83.32 63.71 83.32 63.92 83.32 64.07 83.32 64.17 83.32 64.2 83.32"/>
            <line class="cls-5" x1="60.63" y1="84.21" x2="60.37" y2="87.29"/>
            <line class="cls-5" x1="60.7" y1="83.48" x2="60.63" y2="84.21"/>
            <line class="cls-5" x1="64.73" y1="87.29" x2="64.4" y2="83.48"/>
            <line class="cls-5" x1="61.62" y1="77.34" x2="56.4" y2="72.27"/>
            <line class="cls-5" x1="54.93" y1="73.57" x2="60.25" y2="78.72"/>
            <line class="cls-5" x1="47.23" y1="66.1" x2="54.98" y2="73.61"/>
            <line class="cls-5" x1="56.38" y1="72.3" x2="56.4" y2="72.27"/>
            <line class="cls-5" x1="56.38" y1="72.27" x2="48.6" y2="64.71"/>
            <line class="cls-5" x1="41.05" y1="63.17" x2="41.1" y2="63.14"/>
            <polyline class="cls-5" points="43.86 63.62 43.93 63.59 44.05 63.53 44.19 63.44 44.34 63.32 44.52 63.19 44.69 63.02 45.08 62.64 45.44 62.25 45.6 62.05 45.74 61.87 45.86 61.73 45.93 61.59 45.99 61.47 46.02 61.4"/>
            <polyline class="cls-5" points="43.6 63.64 43.32 63.62 43.04 63.58"/>
            <polyline class="cls-5" points="43.04 63.58 42.74 63.47 42.44 63.34 42.17 63.17 41.92 62.96"/>
            <polyline class="cls-5" points="41.43 63.16 41.49 63.17 41.56 63.14 41.65 63.11 41.77 63.05 41.89 62.96 42.04 62.87 42.19 62.76 42.35 62.62 42.72 62.32 43.11 61.96 43.52 61.58 43.92 61.16 44.31 60.74 44.65 60.34 44.95 59.96 45.08 59.78 45.19 59.62 45.29 59.47 45.37 59.34 45.43 59.23 45.47 59.13 45.49 59.05 45.49 58.98 45.47 58.95 45.44 58.92"/>
            <polyline class="cls-5" points="45.44 58.59 45.49 58.66 45.5 58.75 45.49 58.84 45.44 58.92"/>
            <line class="cls-5" x1="41.1" y1="63.23" x2="41.43" y2="63.16"/>
            <line class="cls-5" x1="45.25" y1="58.59" x2="45.44" y2="58.4"/>
            <line class="cls-5" x1="41.1" y1="63.17" x2="38.77" y2="61.1"/>
            <line class="cls-5" x1="45.23" y1="58.68" x2="45.5" y2="58.4"/>
            <line class="cls-5" x1="43.46" y1="51.71" x2="43.46" y2="51.71"/>
            <line class="cls-5" x1="45.98" y1="57.22" x2="45.99" y2="57.22"/>
            <polyline class="cls-5" points="43.46 51.71 43.89 52.33 44.31 52.98 44.66 53.65 45.01 54.33 45.31 55.04 45.58 55.75 45.8 56.48 45.99 57.22"/>
            <polyline class="cls-5" points="45.99 57.22 46.01 57.35 46.01 57.47 45.98 57.6 45.95 57.72 45.89 57.84 45.83 57.96 45.74 58.05 45.64 58.14"/>
            <polyline class="cls-5" points="42.17 50.59 42.53 50.81 42.87 51.08 43.19 51.36 43.46 51.71"/>
            <line class="cls-5" x1="41.02" y1="60.49" x2="41.14" y2="60.46"/>
            <polyline class="cls-5" points="25.53 43.6 25.92 43.55 26.3 43.55"/>
            <polyline class="cls-5" points="26.45 43.57 26.83 43.64 27.17 43.76"/>
            <polyline class="cls-5" points="37.43 61.31 36.53 61.4 35.65 61.43"/>
            <polyline class="cls-5" points="27.17 43.76 29.1 44.52 30.99 45.32 32.89 46.14 34.77 46.97 36.63 47.84 38.48 48.73 40.34 49.65 42.16 50.59"/>
            <line class="cls-5" x1="27.17" y1="43.76" x2="27.19" y2="43.76"/>
            <line class="cls-5" x1="42.16" y1="50.59" x2="42.17" y2="50.59"/>
            <polyline class="cls-5" points="45.63 58.14 45.19 58.46 44.72 58.75 44.25 59.04 43.75 59.32 43.26 59.57 42.77 59.81 42.26 60.02 41.74 60.23 41.22 60.43 40.69 60.59 40.17 60.75 39.63 60.89 38.54 61.11 37.42 61.31"/>
            <line class="cls-5" x1="45.63" y1="58.14" x2="45.63" y2="58.14"/>
            <polyline class="cls-5" points="27.19 43.76 29.1 44.52 30.99 45.32 32.89 46.14 34.77 46.97 36.63 47.84 38.5 48.73 40.34 49.65 42.17 50.59"/>
            <polyline class="cls-5" points="25.54 43.6 25.95 43.55 26.36 43.57"/>
            <polyline class="cls-5" points="26.36 43.57 26.78 43.63 27.19 43.76"/>
            <polyline class="cls-5" points="13.35 49.09 13.3 48.9 13.3 48.69 13.32 48.48 13.36 48.29 13.42 48.09 13.53 47.91 13.65 47.73 13.78 47.59"/>
            <line class="cls-5" x1="14.35" y1="47.17" x2="13.78" y2="47.59"/>
            <polyline class="cls-5" points="14.35 47.17 15.71 46.57 17.07 46.02 18.44 45.51 19.84 45.05 21.24 44.61 22.66 44.24 24.1 43.9 25.53 43.6"/>
            <line class="cls-5" x1="25.53" y1="43.6" x2="25.54" y2="43.6"/>
            <line class="cls-5" x1="14.35" y1="47.17" x2="14.36" y2="47.17"/>
            <polyline class="cls-5" points="14.36 47.17 15.71 46.57 17.07 46.02 18.45 45.51 19.84 45.05 21.24 44.61 22.68 44.24 24.1 43.9 25.54 43.6"/>
            <polyline class="cls-5" points="35.63 61.43 29.47 61.46 23.28 61.43"/>
            <polyline class="cls-5" points="21.05 60.4 19.99 59.13 18.95 57.83 17.95 56.5 16.98 55.14 16.05 53.77 15.15 52.36 14.3 50.93 13.5 49.48"/>
            <polyline class="cls-5" points="23.27 61.43 23.02 61.41 22.78 61.38"/>
            <polyline class="cls-5" points="21.57 60.87 21.3 60.65 21.05 60.4"/>
            <polyline class="cls-5" points="21.57 60.86 21.84 61.04 22.14 61.19 22.45 61.31 22.78 61.38"/>
            <line class="cls-5" x1="48.55" y1="64.68" x2="48.61" y2="64.65"/>
            <line class="cls-5" x1="47.17" y1="66.11" x2="47.2" y2="66.07"/>
          </g>
          <g>
            <g>
              <path class="cls-5" d="M42.01,99.6c-2.77.32-5.53.67-8.31.78-.56.03-1.14.11-1.71.17-1.1.18-2.03-.01-2.37-1.18-.2-.6.03-1.26.48-1.69.38-.34.93-.48,1.44-.42.32.05.67.21.92.4.12.09.37.3.46.31,1.41-.26,14.7-3.12,15.79-3.34.66-.17,1.79-.51,2.42-.69.79-.22,1.55-.59,2.23-1.05"/>
              <line class="cls-5" x1="52.01" y1="96.24" x2="34.61" y2="102.26"/>
              <path class="cls-5" d="M52.19,96.25c.52-.22,1.03-.56,1.2-1.13.14-.46.37-1.18.97-1.07.28.09.44.38.6.61.19.29.35.57.52.87.43.75.8,1.57,1.04,2.41"/>
              <path class="cls-5" d="M33.28,106.06c-.27-.82-.94-2.53-.3-3.26.27-.25.7-.26,1.05-.32.2-.03.36-.09.55-.14"/>
              <line class="cls-5" x1="54.09" y1="102.23" x2="36.65" y2="108.11"/>
              <path class="cls-5" d="M54.22,102.11c.54-.15,1.16-.18,1.64.16.39.27,1.02.71,1.42.25.17-.24.12-.57.1-.85-.03-.35-.07-.67-.12-1.01-.12-.86-.33-1.74-.65-2.54"/>
              <path class="cls-5" d="M33.26,105.92c.29.82.8,2.57,1.76,2.76.37.03.71-.22,1.03-.39.18-.09.34-.15.52-.22"/>
              <path class="cls-5" d="M63.57,82.77c2.93-1.39,3.05-1.37,4.73-2.16,1.35-.58,3.74-1.56,4.56-1.94.21-.1.47-.22.69-.26.41-.06.97-.03,1.4-.02.25.02.81.06,1.09.07.3.02.6-.07.83-.21,1.18-.75,2.97-1.91,4.25-2.67.81-.48,1.64-.94,2.42-1.41.31-.19.61-.31.96-.48.31-.14.59-.31.91-.37.41-.08,1.04-.25,1.43-.3.92-.1,2.28-.25,3.14-.35,1.01-.12,2.38-.16,3.55-.24.52-.02,2.38-.12,3.24-.15.54,0,1.72-.01,2.22-.01"/>
              <path class="cls-5" d="M53.93,94.04c-.18-.32-.43-.62-.52-.97-.11-.39-.2-.69-.26-1.09-.14-.88-.45-2.09-.49-2.57.03-.37.09-.82.13-1.2,0-.03,0-.05,0-.08.03-.22.03-.18.08-.21.02,0,.03-.01.05-.02.74-.35,4.18-1.98,7.74-3.67"/>
              <path class="cls-5" d="M64.4,83.48c4.85-2.2,8.28-3.7,9.06-4.06.2-.07.52-.26.78-.21.37.07.96.23,1.31.32.09.02.18.04.24.1.06.05.09.12.12.2.08.2.21.59.29.81.18.5.37,1.02.56,1.53.89,2.38,1.65,4.44,2.38,6.68.2.64.5,1.27.77,1.9.12.31.27.49.48.78.21.28.41.61.64.85.44.31,1.08.68,1.56.97.41.2,1.06.47,1.48.66.58.26,1.36.61,1.91.85.25.11.28.12.57.17.68.1,1.43.25,2.09.28.94.05,2.14.17,2.96.2,2.75.05,5.13.11,7.4.09"/>
              <path class="cls-5" d="M52.71,88.98c1.36-.64,3.23-1.57,4.76-2.32.77-.35,1.84-.84,3.07-1.4"/>
              <path class="cls-5" d="M75.79,79.63c1.22-.61,2.38-1.3,3.52-2.05.87-.55,1.77-1.04,2.67-1.55,1.25-.74,2.49-1.47,3.9-1.87,1.9-.53,3.88-.48,5.83-.64,1.12-.07,2.21-.18,3.33-.17,1.34,0,2.67,0,3.96,0"/>
              <path class="cls-5" d="M74.09,79.21c1.4,2.53,2.33,5.3,3.38,7.99.5,1.26.92,2.52,1.6,3.68.65,1.19,1.66,2.02,2.81,2.73.99.6,2.09,1.13,3.16,1.54,1,.38,2.01.68,3.04.86,1.4.26,2.73.25,4.22.31,2.17.08,4.57.17,6.68.24"/>
              <path class="cls-5" d="M52.68,89.2c.18.23.41.49.55.7.22.36.42.77.63,1.14.41.77.86,1.67,1.23,2.38.3.57.7,1.28.95,1.82.27.66.64,1.42.86,2.06.19.59.48,1.49.65,2.02.22.75.44,1.78.63,2.51.11.43.16.83.23,1.29.01.14.07.27.23.26,1.1-.05,2.32-.25,3.64-.38.89-.1,2.19-.26,3.36-.4.57-.08,1.09-.06,1.67-.06"/>
              <path class="cls-5" d="M58.43,103.38c-1.02-.64-.61.1-.47.72.17.78.44,1.65.65,2.38"/>
              <path class="cls-5" d="M64.28,106.39c.78-.02,1.49-.03,2.03-.05.44,0,.77-.03,1.23-.12,2.98-.5,5.93-.85,8.94-1.29,1.15-.16,2.77-.43,4.02-.58,1.15-.14,2.26-.29,3.45-.28,2.81.01,2.95,1.02,3.23,3.52.07.83.29,1.61.48,2.45.15.65.27,1.13.42,1.76.27,1.05.5,2.17,1.06,3.11.34.58.89.97,1.51,1.19.68.27,1.28.31,1.99.33.59.03,1.06.06,1.65.08,1.54.07,3.14.1,4.68.08"/>
              <path class="cls-5" d="M55.41,102.06c.09.47.11.87.41,1.22.64.72,2.05,2.46,2.72,3.18.08.06.14.06.23.06.4,0,1.41-.03,2.61-.06"/>
              <path class="cls-5" d="M67.29,102.62c.29.64.34,1.35.34,2.05,0,.73-.15,1.32-.84,1.66"/>
              <polyline class="cls-5" points="61.48 106.46 61.28 106.26 61.36 105.1 61.92 103.99 64.23 103.99 64.23 106.42 63.92 106.63 61.82 106.78 61.78 106.75 61.48 106.46"/>
              <polyline class="cls-5" points="61.82 106.49 62.8 105.03 63.74 104.99 64.23 103.99"/>
              <line class="cls-5" x1="61.95" y1="104.02" x2="62.79" y2="105.03"/>
              <line class="cls-5" x1="61.83" y1="106.47" x2="61.82" y2="106.78"/>
              <line class="cls-5" x1="63.74" y1="105.03" x2="63.92" y2="106.63"/>
              <line class="cls-5" x1="61.36" y1="105.1" x2="62.06" y2="106.13"/>
              <path class="cls-5" d="M61.3,106.16c-1.29,0-1.39,0-1.37-1.3,0-.31-.02-.64.02-.94.08-.52.98-.48,1.39-.51,1.35-.03,3.96-.1,4.69-.11.09,0,.17,0,.21.07.05.06.07.25.08.36.04.42.12,1.23.16,1.69.04.38,0,.52-.41.55-.52.05-1.19.11-1.73.16"/>
              <path class="cls-5" d="M58.78,99.42c.53-.87,1.42-1.39,2.29-1.91.53-.33,1-.55,1.56-.82.83-.41,1.67-.69,2.56-.81.65-.07,1.21.29,1.47.88.35.75.6,1.57.62,2.39.04.71.02,1.41-.29,2.05-.6,1.23-1.98,1.27-3.24,1.21-.55-.02-1.02-.03-1.5-.06-.96-.07-2.48-.35-3.17-1.05-.46-.46-.61-1.27-.31-1.86h0Z"/>
              <path class="cls-5" d="M59.32,100.77c-.89-1.47,1.44-2.53,2.56-3.09,1.06-.46,3.01-1.73,4.02-.99,1.16.8,1.36,4.49-.08,5.09-.39.18-.86.23-1.3.25-.67.02-1.34-.02-1.98-.08-1.01-.14-2.59-.27-3.22-1.16h0Z"/>
              <path class="cls-5" d="M60.29,99.96c.12-1.14,2.04-1.86,2.95-2.34.59-.27,1.37-.69,1.94-.18.54.5.7,1.58.72,2.31.04,1.74-1.85,1.59-3.12,1.53-.92-.05-2.42-.15-2.49-1.3h0Z"/>
              <path class="cls-5" d="M55.24,91.42c.07.7.49,1.4.73,2.04.39.91.79,1.78,1.22,2.69.94,2.09,2.31,1.87,3.96.67.68-.47,1.56-1.02,2.2-1.49.97-.64.86-1.73.58-2.69-.18-.57-.46-1.11-.7-1.66-.4-.87-.74-1.73-1.51-2.25-.38-.25-.83-.19-1.26-.13-.36.05-.66.07-.97.12-.47.05-1.02.3-1.47.53-.5.25-.98.5-1.47.74-.57.28-1.35.7-1.32,1.4h0Z"/>
              <polyline class="cls-5" points="55.23 91.25 56.05 92.72 56.67 93.94 57.14 95.14 57.53 96.18 57.67 96.64 57.67 96.98"/>
              <path class="cls-5" d="M58.46,96.38c-.18-.42-.35-1.1-.54-1.57-.32-.72-.65-1.44-.98-2.16-.13-.27-.26-.46-.4-.71-.09-.17-.21-.39-.17-.59.1-.46,1.75-1.16,2.22-1.42.33-.16.72-.32,1.07-.49.13-.06.26-.11.39-.14.58-.09.82.49,1.1.93.15.25.3.48.42.74.22.48.43.98.64,1.46.21.49.45.93.45,1.46.04.48-.44.79-.75,1.08-.31.28-.62.56-.95.83-.32.26-.72.61-1.05.89-.51.37-1.19.3-1.46-.32h0Z"/>
              <path class="cls-5" d="M57.45,91.2c-.07.22.04.35.15.66.06.14.12.28.17.43.32.77.68,1.68.99,2.43.28.7.62.95,1.3.47.52-.34.99-.7,1.46-1.11.33-.3.39-.63.15-1-.32-.55-1.17-2.02-1.5-2.59-.14-.24-.32-.43-.62-.34-.42.12-1.16.52-1.57.69-.21.1-.5.24-.54.36h0Z"/>
              <path class="cls-5" d="M58.72,94.51c.56.6.69.64,1.36.12.57-.43,1.17-.89,1.69-1.4"/>
              <line class="cls-5" x1="59.41" y1="94.99" x2="59.62" y2="95.44"/>
              <line class="cls-5" x1="76.23" y1="79.4" x2="86.73" y2="95.05"/>
              <path class="cls-5" d="M61.82,106.87c-.91.92-2.01,1.77-2.56,2.97-.4.83-.55,1.62-.77,2.53-.35,1.47-.67,3.06-.99,4.56-.33,1.62-.57,3.34-.85,4.98-.16,1.11-.39,2.25-.48,3.37-.09,1.05-.24,2.23-.28,3.28-.02.69-.06,1.45-.07,2.14,0,.71-.03,1.51.07,2.23.1.77.25,1.67.25,2.39,0,.44.02.91-.12,1.34-.25.79-.67,1.4-1.1,2.16-.32.54-.63,1.06-.96,1.59-.39.63-.79,1.23-1.16,1.8-.44.7-.85,1.41-1.03,2.23-.1.44-.1.83-.07,1.27.05.85.17,2.84.23,3.88.07,1.18.11,2.43.16,3.64.11,2.7.28,5.35.5,8.05.2,2.97.44,5.84.72,8.8.25,2.68.61,5.24.92,7.95.16,1.29.27,2.56.41,3.86.18,1.56.47,3.73.65,5.19.36,2.69.79,5.88,1.16,8.5.36,2.32.93,6.09,1.24,8.65"/>
              <path class="cls-5" d="M63.7,106.7c-.81.88-1.67,1.73-2.4,2.67-1.42,1.9-1.96,4.22-2.67,6.45-.51,1.69-.96,3.46-1.34,5.18-.17.84-.27,1.67-.41,2.53-.44,2.46-.7,4.99-.64,7.5,0,1.17.06,1.93.16,3.04.07.92.19,1.87.01,2.77-.22.98-.8,1.85-1.31,2.71-.61,1-1.23,1.97-1.83,2.98-.4.67-.77,1.35-.93,2.12-.09.43-.13.85-.12,1.29.01.82.08,1.97.12,2.86.21,5.26.5,10.65.96,15.88.26,2.61.52,5.78.79,8.3.64,5,1.59,12.66,2.15,17.31.68,4.83,1.51,9.78,2.16,14.59"/>
              <path class="cls-5" d="M98.99,117.33c-3.29.03-6.62-.06-9.87-.47-1.24-.16-2.43-.44-3.63-.69-2.25-.49-4.47-.97-6.72-1.47-2.64-.57-5.22-1.09-7.82-1.7-.66-.15-1.43-.35-2.11-.48-.79-.15-1.69-.25-2.55-.34-.69-.07-1.4-.11-2.1-.11-.78.01-1.66.04-2.4.34-1.35.5-1.69,1.75-2.09,3.01-.23.71-.49,1.47-.72,2.18-.36,1.06-.57,2.04-.87,3.14-.3,1.15-.58,2.27-.83,3.51-.22,1.3.16,2.09.96,3.1.64.82,1.26,1.67,1.89,2.49.32.4.66.77,1.02,1.13.44.47,1.03.92,1.63,1.1.59.18,1.11.21,1.75.3,1.57.19,2.99.4,4.52.53,4.18.38,8.96.82,13.03,1.08,5.9.13,11.21.37,16.91.46"/>
              <path class="cls-5" d="M89.39,131.78c.55-.21.35-.93.39-1.59,0-1.1,0-2.09,0-3.35-.01-2.7.02-5.03-.01-6.73,0-.82-.55-1.49-1.22-1.93-.98-.67-2.04-.75-3.23-1.04-1.35-.3-3-.66-4.29-.95-1.52-.34-2.75-.63-4.27-.97-1.16-.25-2.28-.46-3.43-.74-1.33-.32-2.67-.68-4.05-.83-1.18-.11-2.39-.23-3.58-.24-.71.01-1.52.14-2.02.62-.39.38-.65,1.01-.85,1.58-.17.46-.33.95-.49,1.42-.49,1.37-.8,2.49-1.13,3.86-.3,1.24-.64,2.52-.26,3.78.37,1.17,1.01,2.29,1.65,3.34.63,1.03,1.51,1.85,2.71,2.12,1.52.38,2.76.43,4.37.56,1.67.13,3.49.28,5.09.4,2.53.19,5.18.34,7.73.5,1.49.1,3.16.23,4.68.23.67-.02,1.59.11,2.2-.04h0Z"/>
              <path class="cls-5" d="M89.77,131.15c0,.53-.04,1.47.4,1.78,1.33.1,7.54.11,8.82.16"/>
              <path class="cls-5" d="M60.75,123.14c-.52,1.68-.44,1.94.28,3.54.72,1.46,1.31,3.46,3.07,3.94.49.13.97.2,1.49.26.95.12,1.73.21,2.67.29,1.84.15,3.91.39,5.66.5,2.25.07,4.55.31,6.77.38,3.09.08,6.16.33,9.19.39"/>
              <line class="cls-5" x1="57.22" y1="124.78" x2="60.51" y2="124.03"/>
              <line class="cls-5" x1="57.43" y1="126.04" x2="60.46" y2="125.17"/>
              <path class="cls-5" d="M61.98,131.66c.01,2.81.05,7.01-.01,10.19,0,.74,0,1.52.02,2.26.05,1.02-.09,2.02.54,2.82.92.97,3.02.7,4.3.85,4.73.27,13.01.64,15.76.85,1.21.27,2.71.57,3.76,1.29,1.55,1.04,2.06,2.27,2.08,4.07.13,2.72.32,9.86.48,13.91.31,10.29,1.08,22.04.46,32.61"/>
              <path class="cls-5" d="M61.01,204.41c-.31-1.79-.75-3.55-.87-5.27.01-.2.14-.29.32-.4.21-.14.42-.29.56-.51.26-.35.27-.73.19-1.17-.11-.53-.14-1.06-.39-1.54-.14-.25-.44-.41-.72-.49-.38-.12-.73-.27-.78-.59-.88-6.28-1.62-11.59-2.45-18.32-.46-4.3-1.08-11.32-1.45-15.88-.07-1.07-.34-6.98-.38-7.87v-.15c.62-2.46,2.56-2.05,4.6-2.02.87.03,1.76.05,2.62.08.57,0,.76.06,1.24.13.65.09,1.28.2,2.18.33,2.49.38,5.89.89,6.93,1.05.33.05.52.11.86.24,1.41.56,2.16.73,2.95,2.12.16.27.23.53.29.84.13.69.37,2.01.61,3.29.2,1.07.43,2.34.61,3.3.27,1.91.77,6.75,1.16,10.02.3,2.7.64,5.62.87,8.35.34,5.97.7,12.27,1.02,17.68"/>
              <path class="cls-5" d="M57.81,151.37c.29,2.46,1.06,9.65,1.51,13.38.4,2.24,1.44,7.87,1.99,10.95.46,2.69,1.26,7.86,1.83,11.39.35,2.21.8,4.8,1.14,7.06.14,1.04.37,2.23.42,3.28.07,1.33-.16,2.48-.9,3.64-.25.42-.5.85-.8,1.24-.51.66-1.12,1.21-1.75,1.75"/>
              <path class="cls-5" d="M56.12,150.55c-.88,1.23.25.78,1.25.82,1.75.07,5.08.52,6.89.63.97.06,2,.09,3,.21.93.1,1.82.25,2.75.4,1.04.16,2.13.35,3.11.74,1.14.51,2.21,1.33,2.75,2.45.5.98.72,2.08.97,3.12.46,1.97,1.05,4.43,1.52,6.44"/>
            </g>
            <path class="cls-5" d="M155.98,99.6c2.77.32,5.53.67,8.31.78.56.03,1.14.11,1.71.17,1.1.18,2.03-.01,2.37-1.18.2-.6-.03-1.26-.48-1.69-.38-.34-.93-.48-1.44-.42-.32.05-.67.21-.92.4-.12.09-.37.3-.46.31-1.41-.26-14.7-3.12-15.79-3.34-.66-.17-1.79-.51-2.42-.69-.79-.22-1.55-.59-2.23-1.05"/>
            <line class="cls-5" x1="145.98" y1="96.24" x2="163.38" y2="102.26"/>
            <path class="cls-5" d="M145.8,96.25c-.52-.22-1.03-.56-1.2-1.13-.14-.46-.37-1.18-.97-1.07-.28.09-.44.38-.6.61-.19.29-.35.57-.52.87-.43.75-.8,1.57-1.04,2.41"/>
            <path class="cls-5" d="M164.71,106.06c.27-.82.94-2.53.3-3.26-.27-.25-.7-.26-1.05-.32-.2-.03-.36-.09-.55-.14"/>
            <line class="cls-5" x1="143.9" y1="102.23" x2="161.34" y2="108.11"/>
            <path class="cls-5" d="M143.77,102.11c-.54-.15-1.16-.18-1.64.16-.39.27-1.02.71-1.42.25-.17-.24-.12-.57-.1-.85.03-.35.07-.67.12-1.01.12-.86.33-1.74.65-2.54"/>
            <path class="cls-5" d="M164.73,105.92c-.29.82-.8,2.57-1.76,2.76-.37.03-.71-.22-1.03-.39-.18-.09-.34-.15-.52-.22"/>
            <path class="cls-5" d="M134.24,82.76c-2.9-1.38-2.89-1.37-4.54-2.15-1.35-.58-3.74-1.56-4.56-1.94-.21-.1-.47-.22-.69-.26-.41-.06-.97-.03-1.4-.02-.25.02-.81.06-1.09.07-.3.02-.6-.07-.83-.21-1.18-.75-2.97-1.91-4.25-2.67-.81-.48-1.64-.94-2.42-1.41-.31-.19-.61-.31-.96-.48-.31-.14-.59-.31-.91-.37-.41-.08-1.04-.25-1.43-.3-.92-.1-2.28-.25-3.14-.35-1.01-.12-2.38-.16-3.55-.24-.52-.02-2.38-.12-3.24-.15-.54,0-1.72-.01-2.22-.01"/>
            <path class="cls-5" d="M144.06,94.04c.18-.32.43-.62.52-.97.11-.39.2-.69.26-1.09.14-.88.45-2.09.49-2.57-.03-.37-.09-.82-.13-1.2,0-.03,0-.05,0-.08-.03-.22-.03-.18-.08-.21-.02,0-.03-.01-.05-.02-.75-.35-4.24-2.01-7.83-3.72"/>
            <path class="cls-5" d="M133.41,83.49c-4.85-2.2-8.11-3.72-8.88-4.07-.2-.07-.52-.26-.78-.21-.37.07-.96.23-1.31.32-.09.02-.18.04-.24.1-.06.05-.09.12-.12.2-.08.2-.21.59-.29.81-.18.5-.37,1.02-.56,1.53-.89,2.38-1.65,4.44-2.38,6.68-.2.64-.5,1.27-.77,1.9-.12.31-.27.49-.48.78-.21.28-.41.61-.64.85-.44.31-1.08.68-1.56.97-.41.2-1.06.47-1.48.66-.58.26-1.36.61-1.91.85-.25.11-.28.12-.57.17-.68.1-1.43.25-2.09.28-.94.05-2.14.17-2.96.2-2.75.05-5.13.11-7.4.09"/>
            <path class="cls-5" d="M145.28,88.98c-1.36-.64-3.23-1.57-4.76-2.32-.79-.36-1.91-.87-3.19-1.45"/>
            <path class="cls-5" d="M122.2,79.63c-1.22-.61-2.38-1.3-3.52-2.05-.87-.55-1.77-1.04-2.67-1.55-1.25-.74-2.49-1.47-3.9-1.87-1.9-.53-3.88-.48-5.83-.64-1.12-.07-2.21-.18-3.33-.17-1.34,0-2.67,0-3.96,0"/>
            <path class="cls-5" d="M123.9,79.21c-1.4,2.53-2.33,5.3-3.38,7.99-.5,1.26-.92,2.52-1.6,3.68-.65,1.19-1.66,2.02-2.81,2.73-.99.6-2.09,1.13-3.16,1.54-1,.38-2.01.68-3.04.86-1.4.26-2.73.25-4.22.31-2.17.08-4.57.17-6.68.24"/>
            <path class="cls-5" d="M145.31,89.2c-.18.23-.41.49-.55.7-.22.36-.42.77-.63,1.14-.41.77-.86,1.67-1.23,2.38-.3.57-.7,1.28-.95,1.82-.27.66-.64,1.42-.86,2.06-.19.59-.48,1.49-.65,2.02-.22.75-.44,1.78-.63,2.51-.11.43-.16.83-.23,1.29-.01.14-.07.27-.23.26-1.1-.05-2.32-.25-3.64-.38-.89-.1-2.19-.26-3.36-.4-.57-.08-1.09-.06-1.67-.06"/>
            <path class="cls-5" d="M139.56,103.38c1.02-.64.61.1.47.72-.17.78-.44,1.65-.65,2.38"/>
            <path class="cls-5" d="M131.67,106.34c-.44,0-.77-.03-1.23-.12-2.98-.5-5.93-.85-8.94-1.29-1.15-.16-2.77-.43-4.02-.58-1.15-.14-2.26-.29-3.45-.28-2.81.01-2.95,1.02-3.23,3.52-.07.83-.29,1.61-.48,2.45-.15.65-.27,1.13-.42,1.76-.27,1.05-.5,2.17-1.06,3.11-.34.58-.89.97-1.51,1.19-.68.27-1.28.31-1.99.33-.59.03-1.06.06-1.65.08-1.54.07-3.14.1-4.68.08"/>
            <path class="cls-5" d="M142.58,102.06c-.09.47-.11.87-.41,1.22-.64.72-2.05,2.46-2.72,3.18-.08.06-1.88.03-1.97.03"/>
            <path class="cls-5" d="M130.7,102.62c-.29.64-.34,1.35-.34,2.05,0,.73.15,1.32.84,1.66"/>
            <path class="cls-5" d="M139.2,99.42c-.53-.87-1.42-1.39-2.29-1.91-.53-.33-1-.55-1.56-.82-.83-.41-1.67-.69-2.56-.81-.65-.07-1.21.29-1.47.88-.35.75-.6,1.57-.62,2.39-.04.71-.02,1.41.29,2.05.6,1.23,1.98,1.27,3.24,1.21.55-.02,1.02-.03,1.5-.06.96-.07,2.48-.35,3.17-1.05.46-.46.61-1.27.31-1.86h0Z"/>
            <path class="cls-5" d="M138.67,100.77c.89-1.47-1.44-2.53-2.56-3.09-1.06-.46-3.01-1.73-4.02-.99-1.16.8-1.36,4.49.08,5.09.39.18.86.23,1.3.25.67.02,1.34-.02,1.98-.08,1.01-.14,2.59-.27,3.22-1.16h0Z"/>
            <path class="cls-5" d="M137.7,99.96c-.12-1.14-2.04-1.86-2.95-2.34-.59-.27-1.37-.69-1.94-.18-.54.5-.7,1.58-.72,2.31-.04,1.74,1.85,1.59,3.12,1.53.92-.05,2.42-.15,2.49-1.3h0Z"/>
            <line class="cls-5" x1="121.76" y1="79.4" x2="111.26" y2="95.05"/>
            <path class="cls-5" d="M135.74,106.53c.91.92,2.44,2.11,2.99,3.3.4.83.55,1.62.77,2.53.35,1.47.67,3.06.99,4.56.33,1.62.57,3.34.85,4.98.16,1.11.39,2.25.48,3.37.09,1.05.24,2.23.28,3.28.02.69.06,1.45.07,2.14,0,.71.03,1.51-.07,2.23-.1.77-.25,1.67-.25,2.39,0,.44-.02.91.12,1.34.25.79.67,1.4,1.1,2.16.32.54.63,1.06.96,1.59.39.63.79,1.23,1.16,1.8.44.7.85,1.41,1.03,2.23.1.44.1.83.07,1.27-.05.85-.17,2.84-.23,3.88-.07,1.18-.11,2.43-.16,3.64-.11,2.7-.28,5.35-.5,8.05-.2,2.97-.44,5.84-.72,8.8-.25,2.68-.61,5.24-.92,7.95-.16,1.29-.27,2.56-.41,3.86-.18,1.56-.47,3.73-.65,5.19-.36,2.69-.79,5.88-1.16,8.5-.36,2.32-.93,6.09-1.24,8.65"/>
            <path class="cls-5" d="M133.99,106.53c.81.88,1.97,1.9,2.7,2.84,1.42,1.9,1.96,4.22,2.67,6.45.51,1.69.96,3.46,1.34,5.18.17.84.27,1.67.41,2.53.44,2.46.7,4.99.64,7.5,0,1.17-.06,1.93-.16,3.04-.07.92-.19,1.87-.01,2.77.22.98.8,1.85,1.31,2.71.61,1,1.23,1.97,1.83,2.98.4.67.77,1.35.93,2.12.09.43.13.85.12,1.29-.01.82-.08,1.97-.12,2.86-.21,5.26-.5,10.65-.96,15.88-.26,2.61-.52,5.78-.79,8.3-.64,5-1.59,12.66-2.15,17.31-.68,4.83-1.51,9.78-2.16,14.59"/>
            <path class="cls-5" d="M98.99,117.33c3.29.03,6.62-.06,9.87-.47,1.24-.16,2.43-.44,3.63-.69,2.25-.49,4.47-.97,6.72-1.47,2.64-.57,5.22-1.09,7.82-1.7.66-.15,1.43-.35,2.11-.48.79-.15,1.69-.25,2.55-.34.69-.07,1.4-.11,2.1-.11.78.01,1.66.04,2.4.34,1.35.5,1.69,1.75,2.09,3.01.23.71.49,1.47.72,2.18.36,1.06.57,2.04.87,3.14.3,1.15.58,2.27.83,3.51.22,1.3-.16,2.09-.96,3.1-.64.82-1.26,1.67-1.89,2.49-.32.4-.66.77-1.02,1.13-.44.47-1.03.92-1.63,1.1-.59.18-1.11.21-1.75.3-1.57.19-2.99.4-4.52.53-4.18.38-8.96.82-13.03,1.08-5.9.13-11.21.37-16.91.46"/>
            <path class="cls-5" d="M108.6,131.78c-.55-.21-.35-.93-.39-1.59,0-1.1,0-2.09,0-3.35.01-2.7-.02-5.03.01-6.73,0-.82.55-1.49,1.22-1.93.98-.67,2.04-.75,3.23-1.04,1.35-.3,3-.66,4.29-.95,1.52-.34,2.75-.63,4.27-.97,1.16-.25,2.28-.46,3.43-.74,1.33-.32,2.67-.68,4.05-.83,1.18-.11,2.39-.23,3.58-.24.71.01,1.52.14,2.02.62.39.38.65,1.01.85,1.58.17.46.33.95.49,1.42.49,1.37.8,2.49,1.13,3.86.3,1.24.64,2.52.26,3.78-.37,1.17-1.01,2.29-1.65,3.34-.63,1.03-1.51,1.85-2.71,2.12-1.52.38-2.76.43-4.37.56-1.67.13-3.49.28-5.09.4-2.53.19-5.18.34-7.73.5-1.49.1-3.16.23-4.68.23-.67-.02-1.59.11-2.2-.04h0Z"/>
            <path class="cls-5" d="M108.21,131.15c0,.53.04,1.47-.4,1.78-1.33.1-7.54.11-8.82.16"/>
            <path class="cls-5" d="M137.23,123.14c.52,1.68.44,1.94-.28,3.54-.72,1.46-1.31,3.46-3.07,3.94-.49.13-.97.2-1.49.26-.95.12-1.73.21-2.67.29-1.84.15-3.91.39-5.66.5-2.25.07-4.55.31-6.77.38-3.09.08-6.16.33-9.19.39"/>
            <line class="cls-5" x1="140.77" y1="124.78" x2="137.48" y2="124.03"/>
            <line class="cls-5" x1="140.56" y1="126.04" x2="137.53" y2="125.17"/>
            <path class="cls-5" d="M136.01,131.66c-.01,2.81-.05,7.01.01,10.19,0,.74,0,1.52-.02,2.26-.05,1.02.09,2.02-.54,2.82-.92.97-3.02.7-4.3.85-4.73.27-13.01.64-15.76.85-1.21.27-2.71.57-3.76,1.29-1.55,1.04-2.06,2.27-2.08,4.07-.13,2.72-.32,9.86-.48,13.91-.31,10.29-1.08,22.04-.46,32.61"/>
            <path class="cls-5" d="M136.98,204.41c.31-1.79.75-3.55.87-5.27-.01-.2-.14-.29-.32-.4-.21-.14-.42-.29-.56-.51-.26-.35-.27-.73-.19-1.17.11-.53.14-1.06.39-1.54.14-.25.44-.41.72-.49.38-.12.73-.27.78-.59.88-6.28,1.62-11.59,2.45-18.32.46-4.3,1.08-11.32,1.45-15.88.07-1.07.34-6.98.38-7.87v-.15c-.62-2.46-2.56-2.05-4.6-2.02-.87.03-1.76.05-2.62.08-.57,0-.76.06-1.24.13-.65.09-1.28.2-2.18.33-2.49.38-5.89.89-6.93,1.05-.33.05-.52.11-.86.24-1.41.56-2.16.73-2.95,2.12-.16.27-.23.53-.29.84-.13.69-.37,2.01-.61,3.29-.2,1.07-.43,2.34-.61,3.3-.27,1.91-.77,6.75-1.16,10.02-.3,2.7-.64,5.62-.87,8.35-.34,5.97-.7,12.27-1.02,17.68"/>
            <path class="cls-5" d="M140.18,151.37c-.29,2.46-1.06,9.65-1.51,13.38-.4,2.24-1.44,7.87-1.99,10.95-.46,2.69-1.26,7.86-1.83,11.39-.35,2.21-.8,4.8-1.14,7.06-.14,1.04-.37,2.23-.42,3.28-.07,1.33.16,2.48.9,3.64.25.42.5.85.8,1.24.51.66,1.12,1.21,1.75,1.75"/>
            <path class="cls-5" d="M141.87,150.55c.88,1.23-.25.78-1.25.82-1.75.07-5.08.52-6.89.63-.97.06-2,.09-3,.21-.93.1-1.82.25-2.75.4-1.04.16-2.13.35-3.11.74-1.14.51-2.21,1.33-2.75,2.45-.5.98-.72,2.08-.97,3.12-.46,1.97-1.05,4.43-1.52,6.44"/>
            <g>
              <path class="cls-5" d="M102.05,125.95c0-.78-.63-1.42-1.42-1.42h-3.39c-.78,0-1.42.63-1.42,1.42v4.63c0,.54.19,1.03.51,1.41.41.49,1.02.8,1.71.8h1.8c.61,0,1.16-.25,1.56-.65.4-.4.65-.95.65-1.57v-4.63Z"/>
              <path class="cls-5" d="M100.72,124.08h-3.41c-1.1,0-2,.89-2,2v4.05c0,.79.41,1.48,1.03,1.87-.32-.38-.51-.87-.51-1.41v-4.63c0-.78.63-1.42,1.42-1.42h3.39c.78,0,1.42.63,1.42,1.42v4.63c0,.61-.25,1.17-.65,1.57.78-.34,1.32-1.12,1.32-2.02v-4.05c0-1.1-.89-2-2-2Z"/>
            </g>
            <rect class="cls-5" x="96.65" y="125.55" width="4.58" height="6.66" rx="1.07" ry="1.07"/>
            <rect class="cls-5" x="97.31" y="126.25" width="3.26" height="5.51" rx="1.11" ry="1.11"/>
            <rect class="cls-5" x="95.89" y="170.71" width="6.2" height="22.27" rx="2.71" ry="2.71"/>
            <rect class="cls-5" x="96.13" y="170.94" width="5.73" height="19.92" rx="2.51" ry="2.51"/>
            <g>
              <path class="cls-5" d="M73.84,92.12l1.37.63,2.77,1.28,3.4,1.76,4.58,2.66,2.1,1.17,1.84.8,1.1.22s3.21.19,3.25.18,4.75.1,4.75.1"/>
              <path class="cls-5" d="M75.07,92.69c1.17.79,2.34,1.52,3.46,2.37,1.04.8,2,1.65,2.94,2.56,1.99,1.89,4.17,4.31,5.46,6.76"/>
              <path class="cls-5" d="M67.39,105.81c4.08-.56,8.51-1.28,12.65-1.81.82-.1,1.61-.21,2.42-.31.69-.08,1.32-.17,1.98-.14.92.03,1.75.39,2.54.84"/>
              <path class="cls-5" d="M85.67,104.3c1.47.46,1.96,1.34,2.42,2.72.22.65.45,1.32.59,1.95.12.55.18,1.12.26,1.68.22,1.63.58,3.35.8,4.95"/>
            </g>
            <g>
              <path class="cls-5" d="M124.16,92.12l-1.37.63-2.77,1.28-3.4,1.76-4.58,2.66-2.1,1.17-1.84.8-1.1.22s-3.21.19-3.25.18-4.75.1-4.75.1"/>
              <path class="cls-5" d="M122.94,92.69c-1.17.79-2.34,1.52-3.46,2.37-1.04.8-2,1.65-2.94,2.56-1.99,1.89-4.17,4.31-5.46,6.76"/>
              <path class="cls-5" d="M130.61,105.81c-4.08-.56-8.51-1.28-12.65-1.81-.82-.1-1.61-.21-2.42-.31-.69-.08-1.32-.17-1.98-.14-.92.03-1.75.39-2.54.84"/>
              <path class="cls-5" d="M112.33,104.3c-1.47.46-1.96,1.34-2.42,2.72-.22.65-.45,1.32-.59,1.95-.12.55-.18,1.12-.26,1.68-.22,1.63-.58,3.35-.8,4.95"/>
            </g>
            <path class="cls-5" d="M64.28,94.3c3.19-.74,6.31-1.5,9.52-2.14"/>
            <path class="cls-5" d="M131.82,94.3c-2.57-.74-5.07-1.5-7.65-2.14"/>
            <path class="cls-5" d="M132.04,93.65c-.14.48.23.87.64,1.02.46.2,1.25.41,1.81.58.68.21,1.34.33,2.06.37.52,0,1.07.06,1.46-.3.26-.24.42-.58.61-.88.47-.8.78-1.9,1.11-2.79.2-.55.47-1.52-.31-1.7-.5-.12-.93-.17-1.53-.29-.51-.09-1.05-.19-1.46-.26-.61-.13-1.1-.21-1.63.27-.55.51-.91,1.15-1.39,1.75-.35.47-.61.83-.86,1.21-.19.3-.44.68-.52,1.01v.02Z"/>
            <path class="cls-5" d="M135.62,89.7c-.53.17-.8.67-1.16,1.12-.4.52-.81,1.04-1.19,1.56-.47.7-1.19,1.35.11,1.76.59.22,1.11.49,1.72.63.32.08.67.16.99.23.63.15,1.58.36,1.85-.46.36-.72,1.15-2.32,1.4-2.82.15-.34.3-.72.35-1.09,0-.17-.04-.34-.15-.46-.15-.16-.31-.15-.65-.19-.16-.02-.32-.04-.49-.06-.59-.07-1.33-.15-1.87-.21-.31-.02-.61-.13-.9-.02h-.01Z"/>
            <path class="cls-5" d="M136.02,90.06c-.22.06-.48.47-.67.73-.35.48-.78,1.01-1.09,1.49-.38.6-.08.86.49.98.49.1,1.09.23,1.57.31.69.13.87-.09,1.16-.64.09-.17.18-.37.27-.55.26-.59,1.01-1.72.36-2.09-.27-.13-.57-.15-.88-.18-.38-.03-.91-.14-1.2-.04h-.01Z"/>
            <path class="cls-5" d="M135.58,90.47c-.3.39-.9,1.01-1.22,1.43-.54.66-.91,1.32.04,1.65.52.16,1.17.44,1.74.48.29.01.62.03.86-.12.47-.34.59-.79.88-1.33.22-.44.47-.96.62-1.26.3-.52,0-1.03-.58-1.13"/>
            <path class="cls-5" d="M131.4,104.54v-1.09l7.08.16-.03,1.32"/>
            <path class="cls-5" d="M137.21,104.63h-4.58c-.34,0-.62.28-.62.62v.64c0,.34.28.62.62.62h4.58c.13,0,.25-.04.35-.11.16-.11.27-.3.27-.51v-.64c0-.34-.28-.62-.62-.62Z"/>
            <path class="cls-5" d="M132.21,106.42h-.18c-.35,0-.63-.28-.63-.63v-1.11c0-.35.28-.63.63-.63h5.44c.54,0,.97.43.97.97v.76c0,.35-.28.63-.63.63h-.21"/>
            <path class="cls-5" d="M68.95,130.63c1.2-.12,2.47-.26,3.6-.35,1.22-.07,2.48-.1,3.75-.16.65-.02,1.29-.05,1.93-.07.97-.04,1.75-.03,2.61-.33.77-.3,1.83-.77,2.26-1.5.13-.25.18-.53.21-.82.1-1.01.28-2.96.47-4.89.19-2.03.36-3.77.53-5.6"/>
            <polyline class="cls-5" points="64.3 113.66 63.68 117.53 63 122.28 62.61 125.95 62.6 128.01"/>
            <polyline class="cls-5" points="83.2 128.01 83.94 129.22 84.66 130.54 85.24 131.77"/>
            <path class="cls-5" d="M116.47,130.79c.18-.5.62-.78,1.05-1.07.49-.36.87-.72,1.36-1.05.51-.36.99-.64,1.36-1.16.17-.22.36-.46.53-.69.42-.55.65-1.29.92-1.93.13-.33.16-.53.17-.92.01-.38.03-.97.04-1.37.03-.61-.02-1.03-.09-1.6-.07-.87-.45-1.63-.88-2.37-.24-.43-.68-.82-1.09-1.15-.64-.55-1.36-1-2.05-1.48"/>
            <polyline class="cls-5" points="121.22 115.22 122.08 116.35 122.71 117.14 123.66 119.19 124.22 120 125.23 120 127.74 120 128.15 119.89"/>
            <path class="cls-5" d="M121.92,115.07c.46.63.93,1.23,1.33,1.92.61,1.02.72,1.85,2.13,1.79,1.11-.07,2.31-.15,3.42-.21,1.31-.06,2.7-.08,3.81.69,1.97,1.24,2.1,2.16,2.54,4.31.3,1.99-.43,3.32-2.14,4.33-.86.44-1.79.76-2.74.89-.72.08-1.61.12-2.3.17-1.71.12-3.89.28-5.57.4-1.03.07-2.03.2-3.07.31-.52.06-1.09.13-1.53.31-.44.17-.86.43-1.3.69"/>
            <ellipse class="cls-5" cx="115.21" cy="123.32" rx="3.72" ry="3.76"/>
            <ellipse class="cls-5" cx="114.91" cy="122.94" rx="1.45" ry="1.56"/>
            <ellipse class="cls-5" cx="115.38" cy="123.34" rx="5.46" ry="5.32" transform="translate(-39.1 191.62) rotate(-70.76)"/>
            <path class="cls-5" d="M115.21,116.59c.5-.03,1,0,1.51.12,3.31.72,5.34,4.29,4.54,7.96-.39,1.77-1.36,3.25-2.64,4.22"/>
            <ellipse class="cls-5" cx="129.96" cy="124.06" rx="3.4" ry="3.36"/>
            <circle class="cls-5" cx="129.88" cy="124.11" r="3.84"/>
            <ellipse class="cls-5" cx="129.67" cy="124.15" rx="4.42" ry="4.33" transform="translate(-2.24 2.38) rotate(-1.04)"/>
          </g>
          <ellipse class="cls-5" cx="62.55" cy="87.33" rx="2.18" ry=".91"/>
          <path class="cls-5" d="M137.49,87.33c0,.5-.98.91-2.18.91s-2.18-.41-2.18-.91"/>
        </g>
      </g>
    </g>
  </g>
</svg>