<?xml version="1.0" encoding="UTF-8"?>
<svg id="_图层_2" data-name="图层 2" xmlns="http://www.w3.org/2000/svg" viewBox="0 0 288.56 235.49">
  <defs>
    <style>
      .cls-1 {
        stroke-width: .28px;
      }

      .cls-1, .cls-2, .cls-3 {
        stroke: #595757;
      }

      .cls-1, .cls-2, .cls-3, .cls-4 {
        fill: none;
        stroke-linecap: square;
        stroke-miterlimit: 10;
      }

      .cls-5 {
        fill: #595757;
      }

      .cls-2, .cls-3 {
        stroke-width: .5px;
      }

      .cls-3 {
        stroke-dasharray: 2 2;
      }

      .cls-6 {
        fill: #fff;
        font-family: HYQiHei-DES, 'HYQiHei DES';
        font-size: 8.58px;
      }

      .cls-4 {
        stroke: #040000;
        stroke-width: .12px;
      }
    </style>
  </defs>
  <g id="_图层_1-2" data-name="图层 1">
    <g>
      <line class="cls-1" x1="19.6" y1="150.52" x2="19.6" y2="12.16"/>
      <line class="cls-1" x1="39.62" y1="107.29" x2="39.62" y2="12.16"/>
      <polyline class="cls-1" points="126.15 12.16 126.15 69.63 96.19 86.73"/>
      <line class="cls-1" x1="105.01" y1="27.61" x2="105.01" y2="12.16"/>
      <line class="cls-2" x1="124.36" y1="223.33" x2="124.36" y2="172.82"/>
      <line class="cls-2" x1="37.28" y1="223.33" x2="37.28" y2="169.57"/>
      <line class="cls-2" x1="57.85" y1="223.33" x2="57.85" y2="180.99"/>
      <line class="cls-1" x1="166.72" y1="102.49" x2="166.72" y2="12.16"/>
      <line class="cls-2" x1="266.61" y1="223.33" x2="266.61" y2="183.04"/>
      <line class="cls-2" x1="249.61" y1="223.33" x2="249.61" y2="190.31"/>
      <line class="cls-2" x1="232.36" y1="223.33" x2="232.36" y2="148.61"/>
      <g>
        <path class="cls-5" d="M25.71,6.08c0,3.36-2.72,6.08-6.08,6.08s-6.08-2.72-6.08-6.08S16.27,0,19.63,0s6.08,2.72,6.08,6.08Z"/>
        <text class="cls-6" transform="translate(17.06 8.66)"><tspan x="0" y="0">1</tspan></text>
      </g>
      <g>
        <path class="cls-5" d="M45.54,6.08c0,3.36-2.72,6.08-6.08,6.08s-6.08-2.72-6.08-6.08,2.72-6.08,6.08-6.08,6.08,2.72,6.08,6.08Z"/>
        <text class="cls-6" transform="translate(36.89 8.66)"><tspan x="0" y="0">2</tspan></text>
      </g>
      <g>
        <path class="cls-5" d="M110.97,6.08c0,3.36-2.72,6.08-6.08,6.08s-6.08-2.72-6.08-6.08,2.72-6.08,6.08-6.08,6.08,2.72,6.08,6.08Z"/>
        <text class="cls-6" transform="translate(102.32 8.66)"><tspan x="0" y="0">3</tspan></text>
      </g>
      <g>
        <path class="cls-5" d="M132.13,6.08c0,3.36-2.72,6.08-6.08,6.08s-6.08-2.72-6.08-6.08,2.72-6.08,6.08-6.08,6.08,2.72,6.08,6.08Z"/>
        <text class="cls-6" transform="translate(123.48 8.66)"><tspan x="0" y="0">4</tspan></text>
      </g>
      <g>
        <path class="cls-5" d="M172.4,6.08c0,3.36-2.72,6.08-6.08,6.08s-6.08-2.72-6.08-6.08,2.72-6.08,6.08-6.08,6.08,2.72,6.08,6.08Z"/>
        <text class="cls-6" transform="translate(163.76 8.66)"><tspan x="0" y="0">5</tspan></text>
      </g>
      <g>
        <path class="cls-5" d="M272.66,6.08c0,3.36-2.72,6.08-6.08,6.08s-6.08-2.72-6.08-6.08,2.72-6.08,6.08-6.08,6.08,2.72,6.08,6.08Z"/>
        <text class="cls-6" transform="translate(264.01 8.66)"><tspan x="0" y="0">7</tspan></text>
      </g>
      <g>
        <path class="cls-5" d="M288.56,6.08c0,3.36-2.72,6.08-6.08,6.08s-6.08-2.72-6.08-6.08,2.72-6.08,6.08-6.08,6.08,2.72,6.08,6.08Z"/>
        <text class="cls-6" transform="translate(279.91 8.66)"><tspan x="0" y="0">8</tspan></text>
      </g>
      <g>
        <path class="cls-5" d="M272.93,229.41c0,3.36-2.72,6.08-6.08,6.08s-6.08-2.72-6.08-6.08,2.72-6.08,6.08-6.08,6.08,2.72,6.08,6.08Z"/>
        <text class="cls-6" transform="translate(264.28 231.99)"><tspan x="0" y="0">9</tspan></text>
      </g>
      <g>
        <path class="cls-5" d="M255.14,229.41c0,3.36-2.72,6.08-6.08,6.08s-6.08-2.72-6.08-6.08,2.72-6.08,6.08-6.08,6.08,2.72,6.08,6.08Z"/>
        <text class="cls-6" transform="translate(244.57 231.99)"><tspan x="0" y="0">10</tspan></text>
      </g>
      <g>
        <path class="cls-5" d="M238.25,229.41c0,3.36-2.72,6.08-6.08,6.08s-6.08-2.72-6.08-6.08,2.72-6.08,6.08-6.08,6.08,2.72,6.08,6.08Z"/>
        <text class="cls-6" transform="translate(227.24 231.99)"><tspan x="0" y="0">11</tspan></text>
      </g>
      <g>
        <path class="cls-5" d="M194.42,229.41c0,3.36-2.72,6.08-6.08,6.08s-6.08-2.72-6.08-6.08,2.72-6.08,6.08-6.08,6.08,2.72,6.08,6.08Z"/>
        <text class="cls-6" transform="translate(183.41 231.99)"><tspan x="0" y="0">12</tspan></text>
      </g>
      <g>
        <path class="cls-5" d="M157.23,229.41c0,3.36-2.72,6.08-6.08,6.08s-6.08-2.72-6.08-6.08,2.72-6.08,6.08-6.08,6.08,2.72,6.08,6.08Z"/>
        <text class="cls-6" transform="translate(146.22 231.99)"><tspan x="0" y="0">13</tspan></text>
      </g>
      <g>
        <path class="cls-5" d="M130.44,229.41c0,3.36-2.72,6.08-6.08,6.08s-6.08-2.72-6.08-6.08,2.72-6.08,6.08-6.08,6.08,2.72,6.08,6.08Z"/>
        <text class="cls-6" transform="translate(119.43 231.99)"><tspan x="0" y="0">14</tspan></text>
      </g>
      <g>
        <path class="cls-5" d="M103.92,229.41c0,3.36-2.72,6.08-6.08,6.08s-6.08-2.72-6.08-6.08,2.72-6.08,6.08-6.08,6.08,2.72,6.08,6.08Z"/>
        <text class="cls-6" transform="translate(92.91 231.99)"><tspan x="0" y="0">15</tspan></text>
      </g>
      <g>
        <path class="cls-5" d="M64.15,229.41c0,3.36-2.72,6.08-6.08,6.08s-6.08-2.72-6.08-6.08,2.72-6.08,6.08-6.08,6.08,2.72,6.08,6.08Z"/>
        <text class="cls-6" transform="translate(53.14 231.99)"><tspan x="0" y="0">16</tspan></text>
      </g>
      <g>
        <path class="cls-5" d="M43.11,229.41c0,3.36-2.72,6.08-6.08,6.08s-6.08-2.72-6.08-6.08,2.72-6.08,6.08-6.08,6.08,2.72,6.08,6.08Z"/>
        <text class="cls-6" transform="translate(32.1 231.99)"><tspan x="0" y="0">17</tspan></text>
      </g>
      <g>
        <path class="cls-5" d="M25.68,229.41c0,3.36-2.72,6.08-6.08,6.08s-6.08-2.72-6.08-6.08,2.72-6.08,6.08-6.08,6.08,2.72,6.08,6.08Z"/>
        <text class="cls-6" transform="translate(14.68 231.99)"><tspan x="0" y="0">18</tspan></text>
      </g>
      <line class="cls-2" x1="19.12" y1="223.52" x2="19.12" y2="187.9"/>
      <line class="cls-2" x1="188.34" y1="223.33" x2="188.34" y2="195.28"/>
      <line class="cls-1" x1="266.71" y1="104.32" x2="266.71" y2="12.16"/>
      <g>
        <path class="cls-5" d="M244.97,6.08c0,3.36-2.72,6.08-6.08,6.08s-6.08-2.72-6.08-6.08,2.72-6.08,6.08-6.08,6.08,2.72,6.08,6.08Z"/>
        <text class="cls-6" transform="translate(236.32 8.66)"><tspan x="0" y="0">6</tspan></text>
      </g>
      <line class="cls-1" x1="239.02" y1="95.78" x2="239.02" y2="12.16"/>
      <polyline class="cls-1" points="282.26 12.16 282.26 134.21 251.74 134.21"/>
      <line class="cls-2" x1="97.98" y1="223.33" x2="97.98" y2="148.43"/>
      <g>
        <g>
          <polyline class="cls-4" points="103.27 41.55 103.26 41.55 103.24 41.55 103.23 41.57 103.22 41.57 103.21 41.57 103.2 41.58 103.18 41.59 103.17 41.6 103.17 41.62 103.16 41.62 103.16 41.63 103.15 41.64 103.15 41.65"/>
          <polyline class="cls-4" points="105.25 41.77 105.25 41.76 105.25 41.75 105.25 41.74 105.24 41.72 105.24 41.71 105.22 41.7 105.22 41.69 105.21 41.69 105.2 41.68 105.19 41.68 105.18 41.66 105.16 41.66 105.15 41.66"/>
          <polyline class="cls-4" points="104.84 31.43 104.84 31.45 104.84 31.47 104.85 31.49 104.85 31.51 104.86 31.54 104.86 31.55 104.87 31.57 104.89 31.6 104.9 31.61 104.91 31.63 104.93 31.66 104.95 31.67 104.96 31.69 104.98 31.71 105 31.72 105.02 31.74 105.04 31.76 105.07 31.77 105.09 31.79 105.12 31.8 105.14 31.82 105.16 31.83 105.19 31.84 105.21 31.85 105.24 31.85 105.27 31.86 105.3 31.88 105.32 31.88 105.36 31.89 105.38 31.89 105.42 31.89"/>
          <polyline class="cls-4" points="105.42 31.89 105.44 31.9 105.47 31.9 105.5 31.9 105.53 31.9 105.56 31.9 105.59 31.89 105.61 31.89 105.65 31.89 105.67 31.88 105.7 31.88 105.72 31.86 105.74 31.86 105.78 31.85 105.8 31.84 105.83 31.83 105.85 31.82 105.86 31.8 105.89 31.79 105.91 31.78 105.92 31.77 105.95 31.76 105.96 31.73 105.98 31.72 106 31.69 106.01 31.68 106.02 31.66 106.03 31.65 106.05 31.62 106.06 31.61 106.07 31.59 106.07 31.56"/>
          <polyline class="cls-4" points="106.17 29.24 106.18 29.24 106.19 29.25 106.2 29.25 106.21 29.27 106.23 29.27 106.24 29.27 106.26 29.27"/>
          <line class="cls-4" x1="103.91" y1="43.85" x2="103.91" y2="43.85"/>
          <line class="cls-4" x1="103.91" y1="43.85" x2="103.91" y2="43.85"/>
          <line class="cls-4" x1="108.56" y1="23.95" x2="108.58" y2="25.56"/>
          <line class="cls-4" x1="108.58" y1="26.08" x2="108.57" y2="27.03"/>
          <line class="cls-4" x1="108.57" y1="27.38" x2="108.54" y2="27.61"/>
          <line class="cls-4" x1="108.11" y1="29.33" x2="107.89" y2="29.34"/>
          <line class="cls-4" x1="103.91" y1="43.85" x2="103.91" y2="43.85"/>
          <line class="cls-4" x1="104.96" y1="28.34" x2="106.08" y2="29.18"/>
          <line class="cls-4" x1="104.87" y1="41.64" x2="104.91" y2="41.33"/>
          <line class="cls-4" x1="103.81" y1="41.2" x2="103.78" y2="41.59"/>
          <polyline class="cls-4" points="103.27 41.55 103.28 41.55 103.29 41.55 103.29 41.57 103.3 41.57 103.32 41.57 103.33 41.57 103.34 41.57 103.35 41.57 103.37 41.57 103.38 41.57 103.39 41.57 103.4 41.57 103.41 41.57 103.43 41.57 103.44 41.57 103.45 41.57 103.46 41.57 103.49 41.57 103.5 41.57 103.51 41.57 103.52 41.58 103.55 41.58 103.56 41.58 103.57 41.58 103.59 41.58 103.61 41.58 103.64 41.58 103.68 41.58 103.73 41.58 103.76 41.59 103.8 41.59 103.85 41.59 103.88 41.59 103.93 41.59 103.98 41.59 104.02 41.6 104.11 41.6 104.21 41.6 104.39 41.62 104.44 41.62 104.48 41.63 104.52 41.63 104.56 41.63 104.61 41.63 104.64 41.63 104.69 41.64 104.71 41.64 104.73 41.64 104.74 41.64 104.77 41.64 104.79 41.64 104.8 41.64 104.81 41.64 104.84 41.64 104.85 41.64 104.87 41.64 104.89 41.64 104.9 41.64 104.92 41.65 104.93 41.65 104.95 41.65 104.96 41.65 104.97 41.65 104.98 41.65 105 41.65 105.01 41.65 105.02 41.65 105.03 41.65 105.04 41.65 105.06 41.65 105.07 41.65 105.08 41.65 105.09 41.65 105.1 41.65 105.12 41.65 105.13 41.65 105.14 41.66 105.15 41.66"/>
          <line class="cls-4" x1="103.15" y1="41.64" x2="102.94" y2="43.14"/>
          <line class="cls-4" x1="105.23" y1="43.41" x2="105.25" y2="41.75"/>
          <polyline class="cls-4" points="104.91 41.33 104.92 41.14 104.95 40.96 104.97 40.78 104.98 40.6 105.01 40.43 105.02 40.25 105.03 40.17 105.04 40.08 105.06 40 105.06 39.91 105.07 39.83 105.08 39.74 105.09 39.66 105.09 39.57 105.1 39.49 105.12 39.4 105.12 39.37 105.13 39.33 105.13 39.3 105.13 39.25 105.14 39.21 105.14 39.17 105.14 39.14 105.15 39.1 105.15 39.07 105.15 39.03 105.16 38.99 105.16 38.96 105.16 38.92 105.18 38.88 105.18 38.86 105.18 38.82 105.19 38.75 105.19 38.69"/>
          <polyline class="cls-4" points="104.1 38.57 104.09 38.63 104.08 38.7 104.08 38.73 104.08 38.76 104.07 38.8 104.07 38.84 104.07 38.87 104.05 38.91 104.05 38.94 104.05 38.98 104.04 39.02 104.04 39.05 104.04 39.09 104.03 39.13 104.03 39.17 104.03 39.21 104.02 39.25 104.02 39.28 104 39.37 103.99 39.45 103.99 39.54 103.98 39.62 103.97 39.71 103.96 39.79 103.96 39.88 103.94 39.96 103.93 40.04 103.92 40.13 103.91 40.31 103.88 40.49 103.87 40.66 103.85 40.84 103.84 41.02 103.81 41.2"/>
          <polyline class="cls-4" points="105.19 38.69 105.36 37.27 105.51 35.84"/>
          <polyline class="cls-4" points="104.42 35.71 104.26 37.13 104.1 38.57"/>
          <line class="cls-4" x1="104.42" y1="35.71" x2="104.43" y2="35.67"/>
          <line class="cls-4" x1="105.53" y1="35.78" x2="105.51" y2="35.83"/>
          <line class="cls-4" x1="105.53" y1="35.79" x2="106.01" y2="31.72"/>
          <polyline class="cls-4" points="108.52 23.37 108.53 23.39 108.53 23.42 108.53 23.45 108.53 23.48 108.53 23.51 108.53 23.55 108.54 23.59 108.54 23.62 108.54 23.66 108.54 23.7 108.54 23.73 108.54 23.78 108.54 23.82 108.54 23.86 108.56 23.9 108.56 23.95"/>
          <polyline class="cls-4" points="105.65 30.27 105.68 30.27 105.73 30.27 105.77 30.28 105.82 30.28 105.85 30.28 105.9 30.28 105.94 30.28 105.97 30.27 106.02 30.27 106.06 30.27 106.09 30.27 106.14 30.26 106.18 30.26 106.21 30.24 106.26 30.24 106.3 30.23 106.34 30.23 106.37 30.22 106.42 30.21 106.46 30.2 106.49 30.2 106.53 30.18 106.56 30.17 106.6 30.16 106.64 30.14 106.67 30.12 106.71 30.11 106.75 30.1 106.78 30.09 106.79 30.08 106.81 30.06 106.83 30.06 106.84 30.05 106.85 30.04 106.88 30.03"/>
          <polyline class="cls-4" points="106.88 30.03 106.9 30.02 106.94 29.99 106.96 29.98 106.99 29.97 107.01 29.94 107.04 29.93 107.07 29.91 107.1 29.88 107.12 29.87 107.14 29.85 107.17 29.82 107.18 29.8 107.2 29.79 107.23 29.76 107.25 29.74 107.26 29.71 107.29 29.69 107.31 29.66 107.33 29.64 107.35 29.62 107.36 29.59 107.37 29.57 107.4 29.54 107.41 29.52 107.42 29.5 107.43 29.46 107.45 29.44 107.46 29.41 107.47 29.39 107.48 29.36 107.48 29.33 107.49 29.3"/>
          <polyline class="cls-4" points="103.96 28.78 103.96 28.82 103.96 28.86 103.96 28.89 103.96 28.93 103.96 28.96 103.97 29 103.97 29.04 103.98 29.07 103.99 29.11 103.99 29.15 104 29.18 104.02 29.22 104.03 29.24 104.05 29.28 104.07 29.31 104.08 29.35 104.1 29.39 104.11 29.41 104.14 29.45 104.16 29.48 104.19 29.51 104.2 29.54 104.22 29.57 104.26 29.6 104.28 29.63 104.31 29.66 104.33 29.69 104.37 29.73 104.38 29.74 104.39 29.75 104.4 29.76 104.43 29.77 104.44 29.79 104.46 29.8 104.48 29.81 104.49 29.82"/>
          <polyline class="cls-4" points="104.49 29.82 104.52 29.85 104.55 29.87 104.58 29.89 104.61 29.92 104.64 29.93 104.67 29.95 104.71 29.98 104.74 29.99 104.77 30.02 104.8 30.03 104.84 30.05 104.87 30.06 104.91 30.08 104.95 30.1 104.98 30.11 105.02 30.12 105.06 30.14 105.09 30.15 105.13 30.16 105.18 30.17 105.21 30.18 105.25 30.2 105.28 30.21 105.32 30.22 105.37 30.22 105.41 30.23 105.44 30.24 105.48 30.24 105.53 30.26 105.56 30.26 105.6 30.27 105.65 30.27"/>
          <line class="cls-4" x1="104" y1="27.79" x2="103.96" y2="28.78"/>
          <polyline class="cls-4" points="108.57 27.03 108.57 27.08 108.57 27.13 108.57 27.18 108.57 27.2 108.57 27.22 108.57 27.25 108.57 27.27 108.57 27.28 108.57 27.31 108.57 27.33 108.57 27.34 108.57 27.36 108.57 27.37 108.57 27.38"/>
          <line class="cls-4" x1="108.56" y1="23.96" x2="108.56" y2="23.95"/>
          <polyline class="cls-4" points="108.58 25.56 108.58 25.63 108.58 25.69 108.58 25.75 108.58 25.82 108.58 25.94 108.58 26.08"/>
          <polyline class="cls-4" points="108.54 27.61 108.53 27.66 108.53 27.72 108.53 27.77 108.53 27.82 108.52 27.85 108.52 27.9 108.52 27.95 108.52 27.99 108.51 28.03 108.51 28.07 108.51 28.11 108.51 28.15 108.5 28.17 108.5 28.19 108.5 28.2 108.5 28.21 108.5 28.24 108.5 28.25 108.5 28.28 108.48 28.29"/>
          <polyline class="cls-4" points="108.48 28.29 108.48 28.31 108.48 28.34 108.48 28.36 108.48 28.38 108.47 28.41 108.47 28.43 108.47 28.46 108.47 28.48 108.46 28.5 108.46 28.53 108.46 28.55 108.46 28.57 108.45 28.59 108.45 28.61 108.45 28.64 108.45 28.65 108.44 28.67 108.44 28.7 108.44 28.71 108.44 28.73 108.42 28.75 108.42 28.77 108.42 28.78 108.42 28.79 108.41 28.82 108.41 28.83 108.41 28.84 108.4 28.87 108.4 28.88 108.4 28.89 108.4 28.9 108.39 28.93 108.39 28.94 108.39 28.95 108.39 28.96 108.38 28.98 108.38 28.99 108.38 29 108.36 29.01 108.36 29.02 108.36 29.04 108.35 29.05 108.35 29.06 108.34 29.07 108.34 29.08 108.34 29.1 108.33 29.1 108.33 29.11 108.32 29.12 108.32 29.13 108.3 29.13 108.3 29.15 108.29 29.15 108.28 29.15"/>
          <polyline class="cls-4" points="101.52 25.76 101.57 25.81 101.6 25.86 101.65 25.89 101.7 25.94 101.74 25.99 101.78 26.03 101.83 26.08 101.87 26.12 101.92 26.16 101.96 26.21 102.01 26.25 102.05 26.29 102.1 26.34 102.15 26.38 102.19 26.41 102.24 26.46"/>
          <polyline class="cls-4" points="102.24 26.46 102.25 26.47 102.27 26.49 102.28 26.5 102.29 26.51 102.3 26.51 102.31 26.52 102.33 26.54 102.41 26.61 102.45 26.64 102.48 26.68 102.53 26.7 102.57 26.74 102.6 26.78 102.65 26.81 102.69 26.85 102.74 26.87 102.77 26.91 102.82 26.95 102.86 26.98 102.91 27.01"/>
          <polyline class="cls-4" points="102.91 27.01 102.94 27.04 102.98 27.07 103.03 27.1 103.06 27.13 103.1 27.16 103.14 27.19 103.17 27.21 103.21 27.24 103.24 27.27 103.28 27.3 103.32 27.32 103.35 27.34 103.39 27.37 103.43 27.39 103.45 27.42 103.49 27.44"/>
          <polyline class="cls-4" points="101.53 24.99 101.51 25.01 101.49 25.04 101.48 25.06 101.47 25.09 101.47 25.11 101.46 25.13 101.45 25.16 101.43 25.18 101.43 25.21 101.42 25.22 101.42 25.24 101.41 25.28 101.41 25.3 101.41 25.33 101.41 25.35 101.41 25.38 101.4 25.4 101.4 25.42 101.41 25.45 101.41 25.47 101.41 25.5 101.41 25.52 101.42 25.54 101.42 25.57 101.43 25.59 101.45 25.62 101.46 25.64 101.47 25.67 101.48 25.69 101.49 25.71 101.49 25.73 101.51 25.74 101.52 25.75 101.52 25.76"/>
          <polyline class="cls-4" points="107.96 19.45 107.99 19.56 108.01 19.67 108.04 19.78 108.06 19.9 108.09 20.01 108.1 20.12 108.12 20.24 108.15 20.35 108.17 20.47 108.18 20.58 108.21 20.7 108.23 20.82 108.24 20.94 108.27 21.06 108.28 21.18 108.3 21.3 108.32 21.42 108.34 21.54 108.35 21.67 108.36 21.8 108.39 21.92 108.4 22.05 108.41 22.17 108.42 22.31 108.44 22.44 108.46 22.57 108.47 22.69 108.48 22.83 108.5 22.96 108.51 23.09 108.52 23.24 108.52 23.37"/>
          <polyline class="cls-4" points="106.35 19.2 106.34 19.2 106.32 19.2 106.31 19.2 106.3 19.2 106.29 19.21 106.27 19.21 106.26 19.22 106.25 19.22 106.25 19.24 106.24 19.24"/>
          <polyline class="cls-4" points="106.24 19.24 106.17 19.31 106.09 19.38 106.01 19.45 105.94 19.54 105.85 19.61 105.78 19.68 105.7 19.77 105.62 19.85 105.54 19.93 105.45 20.01 105.38 20.09 105.3 20.17 105.22 20.25 105.14 20.34 105.06 20.42 104.98 20.51 104.9 20.59 104.83 20.67 104.74 20.76 104.66 20.84 104.58 20.93 104.51 21.03 104.43 21.11 104.36 21.19 104.27 21.28 104.2 21.38 104.13 21.46 104.04 21.54 103.97 21.64 103.9 21.73 103.81 21.81 103.74 21.91 103.67 21.99 103.59 22.09 103.52 22.17 103.44 22.27 103.37 22.37 103.29 22.45 103.22 22.55 103.15 22.64 103.08 22.73 103 22.83 102.93 22.92 102.86 23.02 102.8 23.12 102.73 23.21 102.65 23.31 102.58 23.41 102.52 23.5 102.45 23.6 102.38 23.7 102.31 23.79 102.24 23.89 102.18 23.99 102.11 24.08 102.05 24.18 101.98 24.28 101.92 24.38 101.84 24.48 101.78 24.58 101.72 24.69 101.65 24.78 101.59 24.89 101.53 24.99"/>
          <polyline class="cls-4" points="103.81 27.66 103.82 27.67 103.84 27.68 103.85 27.68 103.87 27.7 103.88 27.71 103.9 27.72 103.92 27.73 103.93 27.74"/>
          <line class="cls-4" x1="103.93" y1="27.74" x2="104" y2="27.79"/>
          <polyline class="cls-4" points="104 27.79 104.02 27.79 104.03 27.8 104.04 27.8 104.05 27.82 104.07 27.82 104.07 27.83 104.08 27.83 104.09 27.84 104.1 27.84 104.11 27.85 104.13 27.85 104.14 27.86 104.15 27.86 104.16 27.88 104.17 27.88 104.19 27.89 104.2 27.9 104.21 27.9 104.22 27.91 104.23 27.92 104.26 27.92 104.27 27.94 104.28 27.95 104.31 27.96 104.32 27.97 104.34 27.97 104.36 27.99 104.38 28 104.39 28.01 104.42 28.02 104.44 28.03 104.46 28.05 104.49 28.06 104.51 28.08 104.54 28.09 104.56 28.11 104.58 28.12 104.61 28.13 104.63 28.15 104.66 28.17 104.68 28.18 104.72 28.2 104.74 28.21 104.78 28.23 104.8 28.25 104.83 28.26 104.86 28.28 104.89 28.3 104.96 28.34"/>
          <polyline class="cls-4" points="103.49 27.44 103.51 27.45 103.52 27.47 103.55 27.48 103.56 27.49 103.57 27.5 103.59 27.51 103.61 27.53 103.62 27.53 103.63 27.54 103.64 27.55 103.65 27.55 103.67 27.56 103.68 27.57 103.69 27.57 103.7 27.59 103.72 27.6 103.73 27.6 103.74 27.61 103.75 27.62 103.76 27.63 103.78 27.63 103.79 27.65 103.81 27.66"/>
          <line class="cls-4" x1="107.76" y1="19.18" x2="106.35" y2="19.2"/>
          <polyline class="cls-4" points="107.94 19.38 107.95 19.39 107.95 19.41 107.96 19.42 107.96 19.43 107.96 19.44 107.96 19.45"/>
          <polyline class="cls-4" points="107.94 19.38 107.95 19.38 107.95 19.37 107.94 19.36 107.94 19.35 107.94 19.33 107.93 19.32 107.93 19.31 107.92 19.3 107.92 19.29 107.9 19.27 107.89 19.25 107.88 19.25 107.88 19.24 107.87 19.22 107.86 19.22 107.86 19.21 107.84 19.21 107.83 19.2 107.82 19.2 107.81 19.2 107.81 19.19 107.8 19.19 107.78 19.19 107.77 19.19 107.76 19.18"/>
          <polyline class="cls-4" points="106.5 29.3 106.48 29.3 106.44 29.3"/>
          <polyline class="cls-4" points="106.44 29.3 106.42 29.29 106.4 29.29 106.37 29.29 106.35 29.29 106.32 29.28 106.3 29.28 106.27 29.28 106.26 29.27"/>
          <line class="cls-4" x1="106.5" y1="29.3" x2="107.89" y2="29.34"/>
          <polyline class="cls-4" points="108.12 29.33 108.13 29.33 108.15 29.33 108.15 29.31 108.16 29.31 108.17 29.31 108.18 29.31 108.18 29.3 108.19 29.3 108.21 29.3 108.21 29.29 108.22 29.29 108.23 29.28 108.24 29.27 108.25 29.25 108.25 29.24 108.27 29.23 108.27 29.22 108.27 29.21 108.28 29.21 108.28 29.19 108.28 29.18 108.28 29.17 108.28 29.16"/>
          <line class="cls-4" x1="108.12" y1="29.33" x2="108.11" y2="29.33"/>
          <line class="cls-4" x1="108.28" y1="29.16" x2="108.28" y2="29.15"/>
          <polyline class="cls-4" points="106.17 29.24 106.15 29.24 106.15 29.23 106.14 29.23 106.13 29.22 106.12 29.22"/>
          <polyline class="cls-4" points="106.12 29.22 106.11 29.21 106.09 29.21 106.09 29.19 106.08 29.18"/>
          <line class="cls-4" x1="104.89" y1="31.59" x2="104.43" y2="35.67"/>
          <line class="cls-4" x1="104.43" y1="35.67" x2="104.42" y2="35.71"/>
          <line class="cls-4" x1="106.07" y1="31.56" x2="106.47" y2="30.2"/>
          <line class="cls-4" x1="104.8" y1="30.03" x2="104.84" y2="31.43"/>
          <line class="cls-4" x1="103.91" y1="43.85" x2="103.91" y2="43.85"/>
          <line class="cls-4" x1="103.91" y1="43.85" x2="103.91" y2="43.85"/>
        </g>
        <g>
          <path class="cls-4" d="M83.48,52.28c1.41-.29,5.23-1.07,5.89-1.2.17-.05.29.11.21.28-.05.11-.15.18-.24.26-.11.1-.3.27-.52.47-.36.32-.91.82-1.22,1.11-.15.13-.18.18-.3.24-.67.17-4.82,1.14-5.51,1.3-.06.01-.12.02-.18.02-.12,0-.38-.03-.26-.2"/>
          <path class="cls-4" d="M88.77,51.2c.14,0,.43-.07.51.05.04.08,0,.19-.06.25-.27.26-1.28,1.19-1.78,1.66-.12.11-.21.21-.36.24-.47.11-4.86,1.11-5.33,1.22-.07.01-.14.01-.22,0-.13,0-.27-.09-.2-.22.15-.17.53-.58.93-1.02.28-.3.49-.54.72-.79.09-.09.13-.18.26-.23.08-.03.16-.07.25-.09"/>
          <path class="cls-4" d="M96.2,40.49c-.22-.04-.52,0-.76-.01-.29,0-.62,0-.93.05-.16.03-.31.08-.45.15-.68.39-1.9,1.12-2.73,1.6-.72.42-1.53.91-2.26,1.37-1.24.83-2.62,1.73-3.88,2.59-.49.36-1.23.88-1.75,1.27-.34.27-.88.71-1.25,1.01-.29.24-.62.58-.93.86-.37.34-.79.73-1.18,1.08-.36.32-.71.69-1.07,1.04-.37.38-.81.78-1.17,1.18-.18.21-.37.4-.54.62-.5.62-.95,1.16-1.42,1.76-.16.21-.37.47-.52.67-.05.07-.1.14-.13.22,0,.01,0,.02-.01.03-.03.12.03.17.07.18.01,0,.03,0,.04,0,.57-.14,4.64-1.18,5.16-1.31.09-.03.22-.09.3-.14.17-.11.2-.18.33-.31.24-.26.58-.63.85-.93.53-.57.95-1.04,1.17-1.27.1-.1.26-.19.4-.23,1.79-.37,4.97-1.01,6.96-1.4.44-.06.86-.11,1.29-.05.12.01.24.02.38.04.13.02.27.04.39-.02.46-.26.85-.63,1.29-.93.28-.19.53-.38.83-.55.36-.2.69-.42,1.04-.58,1.41-.69,2.85-1.33,4.27-1.93.34-.13.72-.26,1.05-.39.33-.13.69-.28,1.02-.39.46-.16.97-.33,1.42-.48.26-.09.42-.15.65-.25.21-.09.17-.35.13-.53-.03-.14-.1-.18-.2-.24-.54-.29-1.3-.68-1.81-.95-.77-.39-1.69-.91-2.24-1.16-.55-.26-1.15-.55-1.71-.81-.37-.18-.81-.34-1.2-.51-.13-.05-.32-.14-.46-.2-.18-.07-.28-.14-.45-.18h0Z"/>
          <path class="cls-4" d="M101.85,55.06c.18.02.36.04.53.06.41.05.76.09,1.19.14.34.06.67-.03.6.46,0,2.66.38,1.81-2.35,2.49-1.18.26-2.41.5-3.59.77-.74.19-1.52.21-2.16.65-1.16.84-1.87,2.11-2.58,3.33-.74,1.26-1.35,2.55-2.04,3.84-.27.51-.5.99-.75,1.51-.1.18-.17.44-.31.57-.04.02-.1,0-.2-.05-1.95-.79-3.88-1.78-5.79-2.65"/>
          <path class="cls-4" d="M104.29,44.98c.08.69-.02,2.85,0,3.48-.04.12-.38.13-.51.18-.61.16-1.26.22-1.88.34-1.21.27-2.49.46-3.72.66-.76.11-1.52.15-2.23.45-.81.34-1.57,1.11-1.46,2.05.03.32.05.69.2.97.2.34.48.64.78.9.81.55,1.95.55,2.9.66.28.03.58.06.89.09"/>
          <path class="cls-4" d="M95.87,50.21c-.02.1-.04.2-.06.3-.02.09-.05.19-.04.28,0,.09.05.12.13.15.07.03.1.03.17.03.16,0,.38.02.54.03.12,0,.51-.01.69-.02.11-.02.46-.06.63-.09.31-.09.91-.26,1.21-.35.08-.03.16-.07.23-.1.1-.05.22-.05.33-.07.04,0,.05-.01.07-.04.06-.07.25-.28.34-.39.05-.06.15-.09.22-.12.06-.03.11,0,.16.02.05.02.09.04.13.06.04.02.09.04.13.03.04,0,.09-.05.13-.02.05.06.09.14.13.2.03.05.04.08.1.09.05,0,.13.01.17,0,0,0,0-.02,0-.05-.02-.07-.05-.21-.06-.27,0-.04-.03-.07-.05-.11-.02-.04-.08-.12-.08-.15,0-.05.07-.04.1-.03.13.03.25.07.37.14.05.02.06.03.08.07.04.08.13.24.17.33.03.1.06.25.09.35.01.1,0,.27,0,.41,0,.04,0,.06,0,.09-.06.19-.13.42-.2.62-.02.09-.11.17-.17.24-.03.02-.04.06-.04.1,0,.07.01.22.02.28,0,.01,0,.02.01.02.04-.01.08-.05.12-.08.05-.03.06-.07.09-.13.04-.08.07-.16.11-.24.03-.06.13-.29.18-.41.03-.06.03-.07.05-.14.02-.08.04-.17.05-.26.01-.09.02-.27.03-.39.01-.12-.02-.24-.02-.37,0-.06,0-.07-.02-.12-.03-.07-.07-.2-.1-.28-.03-.07-.09-.19-.12-.27-.03-.08-.1-.13-.15-.2-.08-.11-.2-.17-.31-.25"/>
          <path class="cls-4" d="M96.05,50.99c.05.06.09.12.14.17.09.11.23.2.36.26.22.13.44.18.68.23.22.05.43.06.65.09.26.02.59-.02.84-.03.22-.01.44-.06.67-.1.14-.02.26-.05.39-.03.3.06.9.02.69.5-.21.48-.65,1.35-.91,1.95-.11.28-.39.95-.52,1.33-.05.14-.08.31-.18.42-.11.1-.28.02-.4,0-.24-.05-.49-.05-.72.04-.21.08-.41.19-.58.35-.1.1-.18.23-.25.36-.09.2-.15.42-.16.64,0,.28.06.58.22.81.11.14.23.28.39.36.14.07.25.12.4.12.25-.01.51,0,.75-.06.18-.04.38-.08.54-.17.22-.12.43-.31.63-.47.14-.11.21-.23.33-.36.35-.43.75-.88,1.08-1.3.15-.21.4-.52.55-.74.09-.14.23-.31.24-.5.03-.29-.08-.59-.13-.88-.05-.31-.1-.6-.15-.91-.05-.3-.08-.55-.08-.84"/>
          <path class="cls-4" d="M96.05,51.03c.04.52.09,1.07.33,1.54.13.26.23.56.47.73.28.19.63.25.95.33.6.12,1.21.22,1.81.32"/>
          <polyline class="cls-4" points="99.99 50.46 100.09 50.33 100.29 50.18 100.54 50.07 100.67 50.07 100.85 50.07 100.94 50.11 100.97 50.21"/>
          <path class="cls-4" d="M98.89,50.65c.1,0,.22.01.32,0,.11,0,.22-.04.32-.06.18-.04.37-.06.54-.12.2-.08.39-.18.59-.23.15-.03.3-.04.44-.03.42.02.38.21.44.56.04.19.05.38.06.58,0,.09.02.18-.01.27-.02.07-.1.11-.18.06-.14-.1-.27-.25-.44-.29-.29-.05-.58-.09-.88-.08-.16,0-.34.04-.49.02-.3-.02-.18-.22-.31-.38-.04-.04-.12-.06-.16-.02-.07.05-.05.16-.01.24.05.1.14.15.25.16"/>
          <path class="cls-4" d="M101.39,50.32c-.24.23-.53.3-.84.37-.3.08-.61.15-.86.34-.09.07-.17.16-.25.25"/>
          <path class="cls-4" d="M103.16,51.16c.09.11.17.28.22.46.1.4.02.76-.17.81s-.43-.23-.54-.63c-.04-.18-.05-.35-.03-.48"/>
          <path class="cls-4" d="M101.99,51.46c.35-.09.71-.17,1.04-.27.37-.13.52-.21.86.07.35.29.48.41.96.44h.04c.1.41.02.77-.17.82"/>
          <line class="cls-4" x1="103.15" y1="52.44" x2="104.73" y2="52.53"/>
          <polyline class="cls-4" points="101.83 51.8 102.09 51.98 102.32 53.38 101.75 53.75"/>
          <polyline class="cls-4" points="101.58 52.25 101.68 52.25 101.8 52.91 101.62 53.03"/>
          <path class="cls-4" d="M102.15,51.41s.97,1.38.97,1.38l.05.06h.42v2.36"/>
          <line class="cls-4" x1="103.92" y1="52.49" x2="103.92" y2="55.27"/>
          <line class="cls-4" x1="102.35" y1="53.37" x2="103.57" y2="54.09"/>
          <line class="cls-4" x1="102.15" y1="48.94" x2="102.96" y2="50.61"/>
          <line class="cls-4" x1="103.02" y1="48.82" x2="103.98" y2="50.61"/>
          <path class="cls-4" d="M102.89,50.6s.21,0,.22,0,.32,0,.33,0,.63,0,.63,0l.24.04.23.16.23.1"/>
          <path class="cls-4" d="M109.32,54.19c-.32.1-.66.15-1.01.15-1.92,0-3.47-1.59-3.47-3.56s1.55-3.56,3.47-3.56c1.54,0,2.84,1.02,3.3,2.44"/>
          <ellipse class="cls-4" cx="114.57" cy="54.08" rx="2.58" ry="2.42" transform="translate(17.97 136.05) rotate(-65.59)"/>
          <path class="cls-4" d="M108.02,53.51c-1.22-.55-1.74-2.03-1.16-3.31s2.04-1.86,3.25-1.31"/>
          <line class="cls-4" x1="110.09" y1="48.88" x2="115.54" y2="51.69"/>
          <line class="cls-4" x1="108.02" y1="53.51" x2="112.99" y2="56.11"/>
          <line class="cls-4" x1="104.68" y1="52.55" x2="104.68" y2="54.08"/>
          <line class="cls-4" x1="105.15" y1="52.55" x2="105.15" y2="54.08"/>
          <line class="cls-4" x1="104.68" y1="54.07" x2="105.15" y2="54.07"/>
          <path class="cls-4" d="M96.03,40.42c-.21-.1-.44-.18-.67-.24-.19-.06-.33-.22-.49-.36-.15-.14-.28-.28-.43-.43-.33-.33-.71-.66-1.05-.97-.24-.23-.5-.48-.75-.71-.16-.15-.38-.32-.54-.51-.11-.12-.21-.26-.3-.39-.08-.11-.16-.24-.26-.33-.22-.18-.55-.09-.77.05-.1.07-.17.13-.31.26-.18.16-.36.32-.54.48-.74.68-1.54,1.34-2.43,2.09-.52.44-1.13,1.05-1.65,1.54-.57.54-1.28,1.25-1.88,1.83-.16.16-.27.26-.43.43-.35.38-.8.84-1.14,1.23-.43.49-.88,1-1.33,1.48-.45.5-.96,1.06-1.39,1.57-.58.71-1.18,1.49-1.75,2.22-.42.53-.91,1.16-1.35,1.71-.09.12-.14.17-.23.31-.28.43-.73,1.06-1.01,1.53-.13.23-.35.62-.5.89-.1.18-.16.29-.25.47-.13.29-.3.63-.41.92-.12.28-.2.56-.26.85-.09.32-.14.63-.15.95"/>
          <path class="cls-4" d="M73.78,57.32c.28.28.59.49.93.71.24.15.47.31.71.43.34.17.68.36,1.04.47.34.1.7.14,1.05.21.72.12,1.45.16,2.17.21.47.03.92.06,1.39.14.41.06.81.16,1.18.35.43.21.82.58.93,1.06.11.46.16.94.08,1.41-.05.26-.14.52-.22.77"/>
          <path class="cls-4" d="M87.76,53.95c.4.53.81,1.16,1.26,1.66.22.25.46.51.74.68.53.34,1.17.37,1.8.47.33.05.62.1.92.12,1.04.08,2.99.23,4.21.32"/>
          <polyline class="cls-4" points="99.99 57.49 102.62 57.57 104.13 57.53"/>
          <polyline class="cls-4" points="73.84 57.32 75.33 56.88 81.58 55.27 85.07 54.51 87.62 54.02 87.85 53.9 91.27 50.6"/>
          <line class="cls-4" x1="106.62" y1="53.9" x2="104.1" y2="55.38"/>
          <path class="cls-4" d="M110.96,55.05c-.02.06,0,1.76,0,1.76l-.13.08-3.75.5-1.22.05-1.68.08"/>
          <polyline class="cls-4" points="90.44 68.87 97.56 72.24 99.19 73 99.55 72.44 103.5 64.51 105.36 60.2 106.62 57.49"/>
          <polyline class="cls-4" points="95.54 40.21 95.86 40.21 96.47 40.38 97.53 40.77 99.03 41.33 101.07 42.17 102.39 42.68 103.46 43.13 103.81 43.23"/>
          <polygon class="cls-4" points="105.72 43.81 107.58 44.67 108.12 44.77 108.87 44.94 109.46 45.17 110.03 45.47 110.27 45.67 110.73 46.02 110.9 46.22 111.03 46.36 111.2 45.89 111.17 45.75 109.96 44.8 109.61 44.54 109.43 44.35 109.28 44.18 109.17 44.01 109.04 43.91 107.96 43.32 107.21 43.36 106.76 43.83 106.54 43.73 105.77 43.77 105.72 43.81"/>
          <polyline class="cls-4" points="107.22 43.38 108.22 44.07 109.18 44.03"/>
          <polyline class="cls-4" points="108.18 44.07 107.79 44.48 107.6 44.67"/>
          <path class="cls-4" d="M91.42,50.46c.39-.35.77-.74,1.18-1.07.19-.14.38-.25.59-.38.28-.17.57-.35.84-.53.35-.22.7-.4,1.07-.61.41-.23.76-.43,1.2-.63,1.43-.66,2.88-1.33,4.34-1.93.33-.14.76-.31,1.06-.43.21-.08.43-.16.67-.21.52-.1,1-.12,1.53-.12.41,0,.78.01,1.19.05.4.03.75.06,1.15.16.45.11.96.21,1.4.34.19.06.39.12.59.19.39.13.77.31,1.15.47.26.11.51.24.74.4.35.21.67.48.98.75.29.25.56.52.79.83.53.73.76,1.64.89,2.52"/>
          <path class="cls-4" d="M103.78,43.27c.38-.02.79-.03,1.16.03.11.02.23.05.29.1.07.06.05.15-.04.21-.11.07-.26.07-.38.07-.41,0-.82-.07-1.22-.18-.26-.06-.52-.19-.77-.27-.05-.02-.09-.03-.13-.04-.05-.01-.08-.02-.07-.03.02,0,.07,0,.1,0,.26.02.75.06,1.03.08"/>
          <polyline class="cls-4" points="105.31 43.5 105.72 43.6 106.26 43.66 106.84 43.75"/>
          <path class="cls-4" d="M103.38,43.44l.9-.02s.65.01.66,0,.24-.02.24-.02l.04-.02"/>
          <path class="cls-4" d="M98.75,74.2c-.85-.46-2.44-1.15-3.39-1.61-.28-.13-.55-.28-.86-.27-.48,0-1.03.4-1.55.61-.85.4-1.8.72-2.61,1.2-.46.3-.92.65-1.29,1.06-.55.65-1.06,1.49-1.57,2.18-.65.96-.83,1.41-1.47,2.48-2.68,4.74-5.62,9.66-7.23,12.6-.62,1.68.86,1.7,2.13,1.7,1.09.02,2.37.04,3.5.06,1.95.04,3.69.04,5.64.14.73.02.71-.31.49-.87-.05-.14-.06-.21,0-.33.49-1.12,3.35-7.62,5.58-12.68.92-2.07,1.99-4.53,2.67-6.07.03-.07.05-.14-.02-.19h0Z"/>
          <path class="cls-4" d="M92.47,88.3c.56-1.38,2.29-5.64,2.79-6.84.54-1.38,2.07-4.77,2.39-5.81.03-.17-.02-.44-.11-.62-.11-.21-.31-.28-.63-.43-.31-.13-.7-.31-1.04-.45-.6-.25-.96-.44-1.4-.59-.43-.12-.89.06-1.31.24-.8.38-1.9.74-2.66,1.25-.6.42-1.19.87-1.64,1.45-.41.53-.96,1.23-1.37,1.79-1.7,2.89-4.12,7.01-5.67,9.7-.49.88-1.14,1.85-1.51,2.73-.18.45-.15.98.2,1.32.4.33,1.06.31,1.54.41.92.15,2.63.4,3.27.5.3.04.49.05.82.07.76.01,1.62.11,2.34.08.22-.03.36-.22.42-.43.15-.48.42-1.41.55-1.84.49-1.43,4.72-10.96,6.38-14.89.04-.12.04-.22-.07-.33-.24-.22-.64-.35-.95-.48-.78-.3-1.39-.69-2.05-1.16"/>
          <path class="cls-4" d="M98.93,74.08c-2.53,6-5.39,12.75-7.91,18.76-.3.89.16,1.68-.23,2.59-.11.28-.23.54-.35.82-.73,1.64-1.26,2.87-1.97,4.57-1.07,2.56-2.18,5.12-2.74,6.46-.74,1.79-1.19,3.73-.96,5.69.3,2.88,1.58,9.93,2.27,14.41.17,1.02.32,2.25.47,3.33.43,3.12,1.85,10.9,2.78,16.47.38,2.1.46,2.91.76,4.76.18.91.31,1.93.8,2.74.48.75,1.18,1.37,1.92,1.83.91.57,2.14.59,3.19.72"/>
          <path class="cls-4" d="M83.3,63.23c.45,1.27.88,2.68,1.31,3.95.45,1.22.92,2.36,1.3,3.61.47,1.59,1.33,3.01.71,4.64-.23.58-.53,1.14-.86,1.81-1.23,2.46-4.44,7.76-6.62,11.63-1.6,2.74-3.79,6.75-5.68,10.05-.78,1.38-4.09,7.14-5.64,9.85-.58,1.07-1.25,2.26-1.67,3.44-.17.47-.35.94-.45,1.42-.15.92-.1,1.97-.01,2.91.06,1.05.5,2.06,1.01,2.95,2.88,4.72,8.02,13.11,13.27,21.72,3.82,6.29,7.5,12.01,10.72,17.53.46.75,1,1.63,1.68,2.19.48.41,1.08.51,1.68.53"/>
          <path class="cls-4" d="M67.93,155.6c.82,1.2,1.8,2.71,2.62,3.87.62.86,1.15,1.59,1.7,2.53.66,1.07,1.3,2.34,2.03,3.39.38.56.84,1.14,1.14,1.75.28.57.44,1.28.58,1.86.16.62.13,1.14.14,1.8.07,4.87-.16,9.22-.39,14.61.01.34-.1.83.15.88.54.11,1.28-.02,1.87-.02,1.15-.07,2.09-.09,3.15-.4.56-.18,1.1-.52,1.63-.82.73-.43,1.25-.73,2.06-1.05,1.92-.77,3.82-1.63,5.75-2.28,5.2-1.82,10.55-3.45,15.87-4.95,6.62-1.76,13.13-3.43,19.81-5.15,2.45-.58,5.77-1.23,8.39-1.86,5.23-1.24,10.94-2.67,16.27-3.68,1.25-.21,2.87-.25,4.06-.84.59-.27.91-.84,1.23-1.39.67-1.21,1.32-2.4,2.02-3.59.48-.81,1.3-2.2,1.77-3.01.21-.36.51-.84.16-1.19-.22-.23-.66-.49-.97-.66-.28-.15-.52-.33-.82-.29-2.47.24-13.72,1.29-18.11,1.71-6.3.7-32.06,3.6-41.94,4.6-1.09.1-2.9.04-4.04.05"/>
          <path class="cls-4" d="M44.33,117.39c-2.11.92-8.13,3.36-10.34,4.31-.86.35-1.71.71-2.05.85-.34.14-.75.19-.87.65-.14.65.17,1.32.68,1.72.46.3.98.44,1.48.58.85.2,2.08.49,2.95.7,1.4.33,3.02.79,4.49,1.11,1.97.39,4.11.83,6.07,1.41.73.21,1.42.49,2.11.81.42.25.92.63,1.34.91.41.26.67.61,1.01.98.36.4.63.69.95,1.14,1.79,2.25,3.34,4.64,5.14,7.25,3.28,4.71,7.4,10.9,10.65,15.79"/>
          <path class="cls-4" d="M31.16,124.12c4.44.14,9,.22,13.44.58,3.17.29,6.39.26,9.16,1.91,1.14.72,2.11,1.58,2.98,2.65.58.71,1.3,1.75,1.78,2.4,2.44,3.57,12.48,18.16,16.93,24.76.75,1.18,1.71,2.59,2.38,3.84.74,1.35,1.36,2.77,1.42,4.34.15,2.72-.24,5.48-.61,8.18-.39,2.59-.74,5.08-1.1,7.69-.25,2.06-.72,3.68-1.15,5.63"/>
          <line class="cls-4" x1="68.01" y1="155.53" x2="89.52" y2="156.83"/>
          <path class="cls-4" d="M78.69,93.44c-2.89,5.09-8.67,15.21-10.34,18.21-.6,1.09-1,2.29-.95,3.58.01,1.59.14,3.18,1.06,4.52,6.85,11.38,17.1,28.03,21.88,35.93.44.77.86,1.28,1.56,1.9.65.6,1.37.97,2.17,1.29"/>
          <polyline class="cls-4" points="59.37 91.57 68.02 85.51 78.65 78.11 85.08 73.53 86.56 72.66"/>
          <path class="cls-4" d="M33.41,105.7l4.95-5.63,5.77-6.64,3.51-3.6,20.84-17.79,5.3-4.08,5.76-4.1.84-.64,2.78-.04c-.21-.11-.41-.18-.65-.19-.89-.07-3.71-.31-4.5-.37-.14,0-.26-.03-.38.05-1.89,1.46-4.27,3.32-6.19,4.82-4.43,3.57-9.42,7.76-12.94,10.74-2.23,1.93-5.4,4.54-7.69,6.59-1.14,1.2-3.04,3.19-4.33,4.54-1.48,1.63-4.61,5.22-5.57,6.29-1.23,1.63-3.57,4.72-4.34,5.76-1.41,1.97-4.03,5.42-4.87,6.71-.3.5-.96,1.51-1.25,2.04-.03.07-.05.13-.06.18-.02.08,0,.15.02.19.13.1.3-.04.42-.13,1.52-1.4,3.13-2.76,4.7-4.1,1.17-.99,3.03-2.58,3.71-3.15,1.29-.91,3.18-2.26,4.25-2.98,1.67-1.08,4.6-3.02,5.69-3.7,2.7-1.54,5.25-2.97,7.79-4.28.51-.25,1.16-.58,1.65-.78.11-.04.25-.11.35-.05.01,0,.02.02.02.04.04.17-.19.67-.29.93-.69,1.28-3.49,5.34-4.69,7.29-.56,1.06-4.98,9.22-6.55,12.23-1.07,2.19-2.68,5.48-3.61,7.4-.25.51-.58,1.03-.87,1.56"/>
          <polyline class="cls-4" points="72.9 66.28 72.57 66.28 65.49 71.94 65.49 72.35"/>
          <path class="cls-4" d="M30.33,111.65l-.04.08-.33.71s.41.42.53.41,1.19,0,1.19,0l8.34-6.39,5.81-4.19,6.89-4.35,2.6-1.52.79-.42,1.19-1.93-1.24-.11-1.3.32-6.55,3.73-3.64,2.48-5.23,3.83-3.16,2.51-1.95,1.57-2.3,2.05-1.01.96-.6.26Z"/>
          <path class="cls-4" d="M30.02,112.5c.09-.05.68,0,.68,0l5.18-4.52,5-3.85,5.2-3.54,4.45-2.84,3.56-2.13,2.15.14"/>
          <line class="cls-4" x1="54.88" y1="94.23" x2="54.15" y2="95.63"/>
          <polyline class="cls-4" points="31.51 112.88 31.57 113.35 30.26 113.91 29.83 113.64 29.14 112.84 29.14 112.43 29.37 111.97 30.13 110.97 30.57 110.56"/>
          <polyline class="cls-4" points="30.03 113.91 29.41 114.07 32.52 121.43 31.57 122.68"/>
          <path class="cls-4" d="M31.7,113.11s5.42-2.95,5.49-2.82c0,0,0,.04-.01.11-.21,1.06-2.61,9.66-2.61,9.66l10.32-2.92"/>
          <polyline class="cls-4" points="37.27 110.4 39.4 110.56 35.9 119.23 45.67 115.53"/>
          <polyline class="cls-4" points="87.93 94.34 81.84 112.5 71.78 120.81 71.03 121.05 71.03 122.07 91.9 157.58"/>
          <polyline class="cls-4" points="87.07 127.59 87.52 128.64 87.99 129.1 88.66 129.55 89.02 129.72 91.88 148.93 91.19 149.5 91.02 149.86 90.87 150.8"/>
          <path class="cls-4" d="M96.58,79.64c0,.43-.01.85.07,1.28.05.32.22.79.21,1.06-.36,1.04-3.47,8.45-3.86,9.46-.09.16-.21.17-.46.28-.65.26-1.25.6-1.56,1.26"/>
          <path class="cls-4" d="M96.86,82.1c.31.33.79.61.59,1.04-.55,1.33-2.71,6.58-3.29,7.91-.21.28-.64.2-1.01.22"/>
          <path class="cls-4" d="M151.91,123.06c-.57-1.58-1.4-3.25-1.81-4.9-.31-1.39-.69-2.65-.85-4.08-.1-.72-.19-1.49-.29-2.2-.13-.85-.16-1.55,0-2.38.26-1.56.65-3.25,1.09-4.73.3-.98.76-2.03,1.12-3.01.34-.96.74-1.69,1.24-2.58.42-.74.81-1.51,1.28-2.21.63-.93,1.48-2.04,2.29-2.83.96-.93,2.26-1.42,3.58-1.59,1.65-.21,3.49.03,5.09.26,1.77.22,3.62.43,5.41.65,5.33.5,10.82.83,16.05,1.02,1.52.03,3.58.1,5.1.12,1.8-.02,4.58-.07,6.33-.1,2.09-.05,4.3-.08,6.37-.23,1.95-.13,3.82-.29,5.53-1.19,1.37-.72,2.9-1.56,4.23-2.43.85-.56,1.74-1.14,2.59-1.69,1.73-1.11,3.53-2.45,5.62-2.81,1.9-.3,3.78-.35,5.72-.47,5.77-.28,13.51-.73,18.67-1.05,3.65-.21,7.64-.46,11.27-.62,3.94-.21,5.9-.47,5.82,4.33"/>
          <path class="cls-4" d="M151.92,123.25c2.16-.42,4.41-.84,6.51-1.51,1.09-.41,1.98-.88,3.03-1.42,1.37-.72,2.74-1.54,4.08-2.28,3.32-1.77,6.71-3.59,10.1-5.2,2.65-1.23,5.56-2.38,8.24-3.55,2.45-1.03,4.95-1.85,7.48-2.66.64-.21.96-.3,1.59-.45,1.22-.3,2.46-.65,3.68-.88,4.09-.81,8.58-1.73,12.78-2.54,3.33-.6,6.74-1.22,10.08-1.87,1.86-.34,3.17-.64,4.61-.86.9-.12,2.11-.26,2.9-.39"/>
          <path class="cls-4" d="M238.79,97.79c2.22-.27,14.67-1.92,19.03-2.39,1.37-.16,2.81-.34,4.09-.48.53-.06.8-.08,1.25-.2.14-.04.23-.15.24-.29.03-.3,0-.72.01-1.04"/>
          <path class="cls-4" d="M159.62,121.23c-.02.58.06,1.23-.07,1.81-.19.66-.52,1.18.16,1.71,1.35,1.12,3.66,2.48,5.75,3.91,1.41.92,4.13,2.78,5.65,3.8,1.03.78,2.59,1.97,3.72,2.84,1.93,1.49,4.21,3.32,6.08,4.92,1.16.96,2.58,2.08,3.62,2.95.71.58,1.48,1.26,2.15,1.8.18.15.47.38.71.59.4.32.7.62,1.11.72,5.57-.25,13.5-.62,17.99-.77.92-.06,1.97.03,2.84-.25.62-.27,1.4-.56,1.93-.91,2.02-1.26,5.63-3.52,7.89-4.94,1.04-.68,3.85-2.62,5.29-3.58,4.87-3.18,11.62-7.41,18.12-11.34,2.37-1.42,6.42-3.96,9.72-5.88.74-.44,1.47-.83,2.11-1.22.65-.41,1.34-.93,2.03-1.42"/>
          <path class="cls-4" d="M159.35,123.71c3.32-2.01,6.67-4.09,10.15-5.83,1.4-.73,2.95-1.53,4.37-2.28,3.04-1.53,6.22-3,9.31-4.32,1.82-.81,3.88-1.53,5.77-2.22,1.03-.39,1.8-.59,2.82-.89,1.02-.29,1.87-.56,2.89-.79,3.49-.82,7.26-1.6,10.74-2.3,1.81-.33,3.69-.66,5.48-.99,3.35-.63,7.28-1.37,10.78-1.99,1.76-.31,3.54-.63,5.33-.79"/>
          <polyline class="cls-4" points="238.64 99.43 255.7 97.22 259.42 96.66 260.8 96.42 263.24 96.75 268.93 97.66 270.78 97.92 271.24 98.53 271.12 99.02 270.07 99.28 268.53 99.84 260.75 101.35 255.66 102.48 253.53 102.82 252.55 102.97 252.07 103.05 252.32 103.61 253.59 104.66 254.94 105.69 262.15 105.07 262.44 105.49 262.06 106.1 257.3 113.48 255.81 115.57 255.84 115.9 256.33 115.9"/>
          <path class="cls-4" d="M270.69,99.18l.27.34.51.16-.06.5-5.66,7.54-3.2,3.91-2.3,2.82-1.02,1.01s-1.2.08-1.29.16-1.27.28-1.27.28h-.25"/>
          <path class="cls-4" d="M269.46,99.66s.84.38.84.38l-1.21,1.67-2.16,2.83-3.74,4.84-2.03,2.66-1.2,1.52-.78.77-.91.57-1.05.59-.53.18-.25.13"/>
          <path class="cls-4" d="M176.93,136.94c1.5-2.11,3.05-4.33,4.56-6.41,1.41-1.91,3.02-3.87,4.52-5.79.9-1.14,1.74-2.19,2.7-3.27,1.3-1.5,2.78-3.11,4.43-4.3,1.52-1.19,3.48-2.06,5.34-2.75,2.74-1.16,5.89-1.79,8.81-2.55,7.96-1.89,27.83-6.42,39.63-9.02,4.92-1.02,10.16-2.11,15.11-3.11,2.86-.61,5.72-1.07,8.45-1.86"/>
          <path class="cls-4" d="M159.64,123.71c8.86-2.41,18.05-4.92,26.95-7.03,3.89-.85,8.09-1.62,12.03-2.33"/>
          <path class="cls-4" d="M275.84,77.29l-1.97,9.98v.11h.64l.11,4.01c-8.54,1.54-20.13,3.26-31.16,5.07-1.73.26-3.46.6-5.21.93-3.31.67-7.68,1.1-11.39,1.84-.57.09-1.02.15-1.61.18-.56.03-1.12-.08-1.36-.56-.47-.76.98-2.06,1.52-2.64.65-.65,1.28-1.31,1.92-1.96.63-.61,1.52-1.15,2.32-1.46.45-.2.62-.19,1.08-.25,4.03-.53,10.24-1.36,14.5-1.93,6.23-.78,13.48-1.34,18.38-2.24,1.16-.2,2.16-.54,3.3-.81.34-.09.67-.18.96-.25.58-.18,1.09-.18,1.42-.6.85-1.56,2.89-6.71,4.07-9.35"/>
          <path class="cls-4" d="M260.6,95.08c1.17.02,2.35.08,3.51-.06,1.38-.14,2.16-.96,2.49-2.26"/>
          <path class="cls-4" d="M260.5,95.1c-.27.58.13,1.04.56,1.35"/>
          <path class="cls-4" d="M264.46,96.94c.75.03,1.51.08,2.23-.17,1.02-.31,1.85-.98,2.44-1.85.73-.96,1.49-1.9,2.1-2.94"/>
          <path class="cls-4" d="M227.03,99.27c.37.03.92,0,1.23.12.16.08.18.24.17.42,0,.3-.1.67-.2.95-.2.44-.45.89-.33,1.42.18,1.04,1.75.02,2.36.52.1.07.15.13.28.14,1.04-.09,3-.34,3.81-.42.08-.01.16-.02.23-.06.14-.08.18-.25.28-.37.23-.26.56-.17.96-.24.36-.03.78-.07,1.13-.1.36-.03.77-.04.95-.35.23-.37.26-.77.4-1.2.36-.85.43-1.86.6-2.77"/>
          <path class="cls-4" d="M226.96,99.4c.28,3.86-.7,4.24,3.69,3.44"/>
          <path class="cls-4" d="M279.45,56c-.49-.25-2.05-.61-2.57-.71-.79-.13-1.62-.16-2.41-.02-1.85.31-3.54,2.17-4.39,3.77-.53.94-.82,2.07-1.05,3.13-.27,1.15-.4,2.32-.57,3.5-.19,1.36-.09,2.83-.11,4.26,0,1.07.09,2,.42,3.04.25.79.71,1.42,1.24,2.07.45.55.98,1.1,1.56,1.51.78.58,1.73.76,2.68.72.79,0,2.92-.19,3.65-.41"/>
          <path class="cls-4" d="M279.45,56c-2.13.06-4.54.16-6.22,1.64-2.2,2.01-2.93,5.09-3.21,7.94-.13,1.33-.2,2.76-.08,4.11.25,2,1.06,4.15,2.65,5.47,1.48,1.14,3.51,1.43,5.32,1.71"/>
          <path class="cls-4" d="M279.8,56.43c-1.61.22-3.34.34-4.84,1-2.3.98-3.36,3.44-3.85,5.76-.32,1.42-.45,2.78-.49,4.2-.03,2.11-.08,4.4,1.13,6.19.86,1.29,2.39,1.84,3.84,2.19.86.22,1.71.52,2.51.91"/>
          <path class="cls-4" d="M279.52,56.03c.11.28.21.51.2.8,0,.27-.06.55-.07.83-.02.47-.05,1.18-.07,1.63-.05,1.28-.19,2.67-.26,3.94-.28,3.65-.52,7.84-.81,10.51-.06.57-.13,1.17-.17,1.64-.04.52-.13,1.06-.36,1.53"/>
          <path class="cls-4" d="M227.73,99c-.42.02-1.15.06-1.62.09-.73.06-1.26.05-1.41-.66-.07-.42.13-.85.42-1.14.32-.32,1.29-1.28,1.91-1.89.62-.65,1.17-1.04,1.92-1.66.28-.23.39-.32.64-.43.17-.08.55-.23.7-.29,4.88-.58,37.46-4.52,41.74-4.96.18-.02.25-.05.47-.12.49-.15,1.37-.43,1.86-.58"/>
          <polyline class="cls-4" points="273.92 87.69 272.88 89.02 271.76 90.38 271.6 91 271.74 91.89"/>
          <path class="cls-4" d="M153.45,122.95c.03.59.14,1.89.14,1.89l2.13.21,2.05-.07.11-3.07"/>
          <path class="cls-4" d="M159.35,123.71c-.6.57-2.97,2.53-3.53,3.14-.23.27-.47.66-.71,1.08-.18.32-.44.71-.51,1.04-.05.23.05.54.16.8.18.44.45,1.07.63,1.5.96,2.27,1.47,4.63,2.04,7,.13.53.3,1.06.43,1.59.18.8.21,1.66.17,2.48-.28,1.73-1.21,3.33-2.18,4.78-.68,1.08-1.29,2.11-1.93,3.17-.41.64-.73,1.37-1.34,1.79-.41.24-.92.28-1.38.35-.96.12-2.03.17-3.01.25"/>
          <polyline class="cls-4" points="97.06 157.24 94.15 158.05 94.04 161.47"/>
          <polyline class="cls-4" points="97.18 157.24 119.5 155.33 138.05 153.74 148.1 152.72"/>
          <path class="cls-4" d="M94.27,158.86c1.9.12,3.07,0,5.09-.13,1-.07,2.05-.12,2.97-.2,10.07-1.02,25.67-2.57,40.14-4,1.11-.14,2.61-.36,4.38-.6,3.48-.5,9.49-1.06,14.37-1.6,4.38-.34,10.35-.81,15.54-1.31.9-.08,1.34-.11,2.25-.23.53-.06,1.24-.13,1.61-.42.48-.38.71-.98.93-1.54"/>
          <polyline class="cls-4" points="159.1 155.07 180.05 153.13 188.14 152.17 200.2 150.5 206.54 149.71 207.57 149.84 207.45 148.02 207.16 146.84 207.38 145.47"/>
          <polyline class="cls-4" points="181.67 148.91 185.55 148.64 186.57 149.73 191.2 149.34 202.2 147.89 206.27 147.44 207.18 147.87 207.44 147.96"/>
          <path class="cls-4" d="M155.18,148.37c.13,0,7.88-.69,7.88-.69l10.15-1.11,13.76-1.38"/>
          <line class="cls-4" x1="169.66" y1="131.78" x2="155.92" y2="152.02"/>
          <path class="cls-4" d="M152.51,152.13c.87-.03,6-.13,6.96-.18,2.28-.15,8.13-.52,8.69-.55,1.93-.19,6.73-.67,7.65-.77.63-.14.6-1.09.86-1.54.07-.09.16-.09.32-.09,1-.01,3.65-.06,4.38-.07"/>
          <path class="cls-4" d="M79.28,185.98c1.94-2.72,3.85-5.47,5.96-8.1,1.45-1.82,3-3.52,4.61-5.23,2.07-2.17,4.19-4.37,6.68-6.08,1.61-1.11,3.44-2.01,5.25-2.83,2.42-1.14,4.81-2.3,7.24-3.47"/>
          <path class="cls-4" d="M79.23,186.11c1.9-1.06,3.82-2.04,5.78-2.99,1.61-.77,3.79-1.54,5.36-2.2,2.1-.77,5.95-2.05,7.63-2.63,3.53-1.07,8.45-2.66,11.22-3.38,5.64-1.37,16.7-4.17,21.07-5.27,3.64-.86,7.71-1.75,11.44-2.54,3.41-.84,7.36-1.77,10.67-2.51,1.52-.27,2.19-1.69,2.93-2.91.86-1.42,2.22-3.72,2.86-4.77.32-.68,1.06-.64,1.75-.72"/>
          <path class="cls-4" d="M159.72,155.75c3.33-.26,12.34-.96,13.99-1.09.29-.02.55.05.75.33.3.48-.07.96-.29,1.39-.43.8-1.6,2.98-2.21,4.11-.69,1.27-1.47,2.79-2.17,4.02-.38.65-.68,1.21-1.3,1.72-.46.4-.94.88-1.47,1.14-1.42.71-3.95.17-5.77.06-1.79-.12-3.3-.45-5.22-.77-1.2-.19-2.34-.54-3.51-.83"/>
          <path class="cls-4" d="M171.62,154.83c1.03.27.57.61.21,1.27"/>
          <path class="cls-4" d="M161.91,156.67c2.04-.16,9.92-.5,11.22-.56.29.03.58.15.34.52-.13.2-.45.67-.58.86-.06.08-.11.14-.2.18-.33.13-1.22.52-1.58.66-.51,0-7.78-.2-9.39-.24-.14,0-.24,0-.28,0-.01,0-.02-.02-.02-.03-.04-.24.06-.43.18-.7.09-.2.22-.5.3-.67h0Z"/>
          <line class="cls-4" x1="172.82" y1="157.47" x2="161.43" y2="157.83"/>
          <path class="cls-4" d="M160.16,160.02c2.04-.16,9.92-.5,11.22-.56.29.03.58.15.34.52-.13.2-.45.67-.58.86-.06.08-.11.14-.2.18-.33.13-1.22.52-1.58.66-.51,0-7.78-.2-9.39-.24-.14,0-.24,0-.28,0-.01,0-.02-.02-.02-.03-.04-.24.06-.43.18-.7.09-.2.22-.5.3-.67h0Z"/>
          <line class="cls-4" x1="171.06" y1="160.82" x2="159.67" y2="161.18"/>
          <path class="cls-4" d="M158.4,163.37c2.04-.16,9.92-.5,11.22-.56.29.03.58.15.34.52-.13.2-.45.67-.58.86-.06.08-.11.14-.2.18-.33.13-1.22.52-1.58.66-.51,0-7.78-.2-9.39-.24-.14,0-.24,0-.28,0-.01,0-.02-.02-.02-.03-.04-.24.06-.43.18-.7.09-.2.22-.5.3-.67h0Z"/>
          <line class="cls-4" x1="169.3" y1="164.17" x2="157.91" y2="164.53"/>
          <path class="cls-4" d="M170.72,158.32c.26.58-.08.88-.5,1.19"/>
          <path class="cls-4" d="M169.21,161.62c.26.58-.08.88-.5,1.19"/>
          <path class="cls-4" d="M155.1,165.03c2.06.38,4.04.74,6.09,1.03,1.62.21,3.38.57,4.91.05.59-.21,1.01-.64,1.5-1.08"/>
          <path class="cls-4" d="M81.28,185.72c.06.09.12.18.3.2.06,0,.14,0,.22,0,3.11-.26,13.94-1.2,16.5-1.4,6.93-.54,16.29-1.14,23.37-1.84.77-.06,1.62-.02,2.39-.21.88-.25,1.51-.82,2.43-1.1.55-.18,1.14-.28,1.69-.38,1.38-.25,3.15-.44,4.45-.77,3.49-.93,7.06-2.27,10.47-3.51,1.26-.43,2.52-1.04,3.79-1.44.79-.19,1.43-.18,2.32-.29,1.22-.12,2.5-.26,3.72-.38,1.08-.1,1.62-.19,2.57-.36.79-.12,1.61-.29,2.41-.2.95.09,1.79.72,2.25,1.54.48.89.5,1.95.3,2.92-.05.36-.26.77-.25,1.05.02.12.16.13.42.12,8.54-.66,18.84-1.31,26.98-1.94,1.04-.1,2.15-.23,3-.9.63-.48,1.08-1,1.48-1.7,2.56-4.17,8.61-13.9,10.24-16.64,1.59-2.63,3.51-6.17,5.1-8.43"/>
          <path class="cls-4" d="M82.69,185.85c1.29-.61,2.51-1.12,3.88-1.6,1.55-.54,2.83-1,4.36-1.34,3.27-.75,7.8-1.8,11.28-2.57,2.17-.46,4.48-1.03,6.63-1.38,3.19-.51,6.35-1.02,9.55-1.55,2.3-.37,4.71-.85,6.98-1.26,4.41-.74,9.44-1.59,13.96-2.3,6.16-.94,12.23-1.83,18.52-2.74,2.97-.46,6.11-.74,9.1-1.51,1.6-.37,3.18-1.1,4.25-2.36,1.03-1.21,1.97-2.71,2.89-4.04,2.18-3.27,4.29-6.68,6.23-10.12"/>
          <path class="cls-4" d="M121.65,182.52c.07-1.57-.02-3.74,1.59-4.59.8-.37,1.48-.51,2.38-.65,1.04-.17,2.37-.38,3.24-.52,4.2-.65,14.99-2.28,18.93-2.8"/>
          <path class="cls-4" d="M123.89,182.52c.43-.8.87-1.49,1.78-1.75,1.4-.48,2.92-.59,4.42-.87.88-.14,1.62-.27,2.53-.46.72-.15,1.52-.46,2.26-.71,1.04-.36,2.12-.77,3.19-1.12.93-.3,1.83-.55,2.7-.9,1.37-.55,2.69-1.03,4.06-1.52.95-.36,1.82-.83,2.74-1.18"/>
          <path class="cls-4" d="M76.23,186.39c.28.17.56.35.86.47.5.21,1.05.17,1.61.17,4.27-.04,9.11-.12,13.24-.13,7.19-.06,16.55,0,23.95-.18,7.95-.21,16.33-.56,24.18-.88,5.05-.21,10.4-.51,15.31-.63,2.62-.07,4.93-.26,7.56-.32,3.91-.05,7.94-.42,11.84-.6,1.7-.08,3.5-.16,5.15-.23,1.17-.08,2.55.02,3.58-.63.93-.67,1.3-1.68,1.9-2.69.53-.98,1.09-1.95,1.58-2.86"/>
          <line class="cls-4" x1="122.64" y1="178.49" x2="124.64" y2="181.39"/>
          <path class="cls-4" d="M120.69,182.79c-.2,1.15-.11,1.95-.19,2.88,0,.19,0,.39.12.52.24.2.62.27.92.37"/>
          <path class="cls-4" d="M145.49,179.16c.59-.87,1.26-1.98,1.9-2.8.58-.83,1.52-.88,2.45-.74.68.13,1.46.33,1.91.89.19.27.22.68.22,1.02,0,.79,0,1.78,0,2.58"/>
          <path class="cls-4" d="M146.39,180.18c.34-.54.68-1.09,1.02-1.61.15-.24.31-.49.49-.75.18-.26.36-.54.68-.63.58-.17,1.33-.03,1.86.13.64.21.68.82.63,1.4-.02.43-.06.93-.09,1.33"/>
          <path class="cls-4" d="M145.49,179.15c-.48.68.39,1.34.91,1.01"/>
          <path class="cls-4" d="M150.98,180.02c.13.68.92.6.99.07"/>
          <path class="cls-4" d="M152.87,178.7c.4-.25.78-.5,1.16-.78.21-.15.42-.31.63-.43.06-.04.12-.07.18-.1.22-.11.44-.17.68-.17.47,0,.85.37,1.09.76.73,1.21.39,2.73-.13,3.95-1.07,2.18-2.66,2.72-4.51.96"/>
          <path class="cls-4" d="M154.86,177.42c1,.25,1.14.94.95,1.84-.14.75-.43,1.43-.82,2.07-.35.55-.68,1.16-1.12,1.64-.5.51-.99-.04-1.34-.44"/>
          <line class="cls-4" x1="145.54" y1="182.95" x2="152.04" y2="182.95"/>
          <line class="cls-4" x1="147.38" y1="178.64" x2="151.14" y2="178.64"/>
          <line class="cls-4" x1="151.97" y1="178.64" x2="152.96" y2="178.64"/>
          <path class="cls-4" d="M152.9,178.64c.08.83-.08,1.81-.03,2.66.21,1.08-.01,1.02-.8,1.6"/>
          <line class="cls-4" x1="137.05" y1="178.89" x2="145.2" y2="178.89"/>
          <polyline class="cls-4" points="145.03 182.52 134.47 182.52 124.79 182.52"/>
          <line class="cls-4" x1="145.57" y1="178.98" x2="145.57" y2="178.15"/>
          <path class="cls-4" d="M145.16,178.27v4.84s.32.36.41-.12v-2.92"/>
          <path class="cls-4" d="M145.16,178.28s.14-.53.41-.1"/>
          <path class="cls-4" d="M156.78,181.17c1.45-.06,3.05-.07,3.83-1.46"/>
          <path class="cls-4" d="M156.24,174.12c.75.14,1.49.23,2.15.59.87.48,1.73,1.68,1.13,2.64-.54.89-1.68,1.1-2.64,1.22"/>
          <path class="cls-4" d="M156.87,180.98c1.38-.18,2.36-.31,3.35-1.43"/>
          <path class="cls-4" d="M199.49,163.16c2.02-.42,4.46-.91,6.52-1.35.74-.15,1.6-.37,2.33-.49.53-.08,1.1-.09,1.65-.13,1.11-.11,2.24.03,3.35.1,1.04.07,2.42.1,3.48.14.47.01.75.03,1.17.14.89.22,3.53.89,4.86,1.23,1.44.35,2.98.85,4.45,1.27.64.2,1.36.33,1.96-.09.59-.36.9-1.9,1.66-1.82,1.92.28,7.89,1.22,10.41,1.59.39.06.81.2,1.09.48.25.28.31.57.51,1.07.39.98.79,2.24,1.24,3.2.45.78,1.45,1.08,2.21,1.45.95.41,2.1.69,3.05,1.02.88.29,1.72.87,2.06,1.75.16.52-.12,1.34-.24,1.92-.4,2.12-1.71,5.83-2.27,7.89-.2.7-.61,1.38-1.29,1.76-.76.43-1.61.7-2.49.78-.75.08-1.34.09-2.07-.04-.73-.11-1.93-.29-2.53-.38-2.04-.28-8.19-1.17-11.92-1.68-5.84-.84-12.45-1.92-18.54-2.81-1.5-.21-3.26-.39-4.76-.65-1.12-.19-2.1-.31-3.15-.62-.93-.3-2.05-.82-2.98-1.23-.98-.47-2.73-1.22-3.78-1.75-.91-.47-1.99-1.05-2.92-1.53"/>
          <polyline class="cls-4" points="251.36 172.86 248.2 172 237.36 168.8 222.47 164.4 220.83 164.17 204.58 166.95 201.37 173.4 201.02 174.45 201.44 175.46 248.25 183.91 244.86 184.06 239.91 183.47 227.53 181.7 211.27 179.34 201.11 178.02 195.45 175.89"/>
          <path class="cls-4" d="M205.6,173.53c-.06-.16,0-.35.07-.52.28-.66.86-1.99,1.12-2.6.16-.33.15-.46.43-.54,2.14-.6,9.49-2.83,12.81-3.74.65-.16,1.44-.46,2.06-.49.39-.01.99-.04,1.33.02,1.65.47,20.38,5.56,22.63,6.24.17.17.29.51.23.82-.06.23-.12.42-.19.68-.67,2.13-1.58,5.74-2.29,7.74-.16.29-.53.66-.87.6-1.1-.22-28.97-6.3-37.01-8.03-.11-.03-.23-.05-.31-.18h0Z"/>
          <path class="cls-4" d="M224.54,137.5l-2.01,1.24-1.21.69-.24.17-1.58,1.12-1.64,1.33-.62.69-2.16,3.51-5.95,10.4s-1.92,3.23-1.93,3.29-.93,1.74-.93,1.74"/>
          <polyline class="cls-4" points="217.48 142.46 221.06 142.38 221.06 139.69"/>
          <path class="cls-4" d="M259.03,115.57c-.27.41-.58.97-.87,1.32-.24.24-.55.55-.78.8-.26.3-.53.7-.8,1.02-.11.12-.19.24-.27.37-.1.2-.3.43-.33.67-.01.2,0,.43.08.6.05.09.12.12.21.18.42.28.96.65,1.36.91,2,1.07,7.61,4.08,8.2,4.39.5.27,1.21.62,1.77.91.92.5,1.54.75,1.9,1,.11.09.25.19.36.29.14.13.14.22.15.46,0,.44.06,1.01.04,1.42-.37.08-3.84.13-5.24.2-.25,0-.43,0-.51.02-.04,0-.06.07-.07.18-.02.14.01.3-.1.34-.49.05-3.95.21-4.39.28-.02.02.04.1.15.28.2.32.47.75.69,1.1.2.31.39.62.58.93.12.19.12.23.33.27.29.05.67.11.95.17.09.02.13.06.17.13.14.27.61,1.15,1,1.87.15.28.28.53.38.72.14.23.25.44.07.68-.13.22-.41.32-.42.47.22.49.84,1.44,1.18,2.05,1.09,1.95,2.21,4.13,3.25,6.16.17.34.26.51.41.89.16.36.52,1.14.73,1.58.2.44.46.84.77,1.21.29.3.64.59.91.9.29.35.65.66.85,1.07.1.19.25.49.34.66.23.44.48.96.65,1.41.99,1.68,3.56,5.8,4,6.47.93,1.03,1.94,2.2,2.92,3.25.48.4,1.45,1.05,1.99,1.54.3.28.9.94,1.28,1.21.43.31,1.43,1.09,1.98,1.49.4.3.98.7,1.37,1.07.16.13.29.29.3.51.02.17.03.35.06.52.08.43.17.94.24,1.36"/>
          <polyline class="cls-4" points="222.39 137.18 245.99 138.55 245.99 138.55"/>
          <polyline class="cls-4" points="252.77 141.27 254.23 142.59 261.71 150.95 269.17 159.19 271.93 162.25 274.28 164.41 277.24 166.48 282.88 169.31 285.76 170.65 286.88 171.06 286.88 170.95"/>
          <path class="cls-4" d="M237.34,127.64c3.56.55,10.07,1.63,13.51,2.16.93.19,1.72.33,2.62.92.92.69,1.55,1.75,2.29,2.62,2.44,3.06,5.18,7.25,7.74,10.83,2.59,3.74,5.32,7.64,8.04,11.31,1.36,1.83,2.68,3.97,4.07,5.82.73.85,1.74,1.59,2.59,2.32,1.07.87,2.24,1.58,3.39,2.37,1.63,1.06,3.02,2.21,4.9,2.76"/>
          <path class="cls-4" d="M238.52,126.92c1.82.1,7.04.33,9.06.44,2.95.16,5.22.26,6.54.35.5.04,1.07.18,1.55.41.99.45,1.31,1.14,1.86,2.06.58.97,1.3,2.2,1.85,3.11"/>
          <path class="cls-4" d="M261.24,133.48c-.67-.07-1.59-.17-2.33-.25-.57-.02-1.67-.38-1.84.35,0,.33.23.66.4.92.46.61,2.28,3.03,3.15,4.18.14.18.19.29.34.32.26.07.75-.11,1.04-.35.52-.38,1.11-.8,1.56-1.14"/>
          <line class="cls-4" x1="257.65" y1="130.41" x2="264.3" y2="130.13"/>
          <polyline class="cls-4" points="269.87 149.27 271.63 149.27 272.29 150.15 272.43 150.66 271.75 151.4"/>
          <path class="cls-4" d="M272.7,153.37c1.03.07,2.3.14,3.35.22.52.03.41.99.48,1.39.09,1.25.28,3.71.34,4.45.02.2-.02.38-.07.58"/>
          <path class="cls-4" d="M276.52,154.14c.28,0,.53-.02.77.06.12.05.11.13.12.24.04.78.32,4.17.33,4.88-.01.04-.05.06-.12.08-.16.04-.42.06-.67.1"/>
          <path class="cls-4" d="M277.45,154.31c.21.01.37-.03.39.16.06.65.35,3.69.42,4.34.03.22-.25.2-.5.27"/>
          <circle class="cls-4" cx="250.61" cy="136.78" r="4.39"/>
          <path class="cls-4" d="M245.94,138.59c-.22-.56-.34-1.17-.34-1.81,0-2.77,2.24-5.01,5.01-5.01s5.01,2.24,5.01,5.01c0,1.99-1.16,3.71-2.85,4.52"/>
          <path class="cls-4" d="M227.01,163.86c1.24-1.01,2.61-1.88,4.09-2.56"/>
          <path class="cls-4" d="M240.03,159.5c10.38.4,18.66,8.93,18.66,19.4s-8.69,19.42-19.42,19.42c-9.81,0-17.91-7.27-19.23-16.71"/>
          <path class="cls-4" d="M240.6,163.24c8.06.67,14.4,7.43,14.4,15.67,0,8.68-7.04,15.72-15.72,15.72-7.55,0-13.86-5.32-15.38-12.42"/>
          <path class="cls-4" d="M225.02,163.39c1.66-1.52,3.56-2.79,5.64-3.72"/>
          <path class="cls-4" d="M239.74,157.84c11.43.24,20.62,9.58,20.62,21.07s-9.44,21.08-21.08,21.08c-10.8,0-19.7-8.12-20.93-18.59"/>
          <path class="cls-4" d="M223.82,162.95c1.85-1.79,4-3.26,6.38-4.32"/>
          <path class="cls-4" d="M239.63,156.69c12.11.19,21.87,10.06,21.87,22.21s-9.95,22.22-22.22,22.22c-11.5,0-20.96-8.74-22.1-19.95"/>
          <path class="cls-4" d="M216.22,161.36c3.42-4.48,8.11-7.94,13.54-9.83"/>
          <path class="cls-4" d="M236.86,150.03c.8-.07,1.6-.1,2.42-.1,16.01,0,28.98,12.98,28.98,28.98s-12.98,28.98-28.98,28.98-28.27-12.28-28.95-27.68"/>
          <path class="cls-4" d="M212.61,161.29c3.71-5.6,9.13-9.97,15.53-12.35"/>
          <path class="cls-4" d="M236.91,147.03c.78-.06,1.57-.09,2.37-.09,17.65,0,31.96,14.31,31.96,31.96s-14.31,31.96-31.96,31.96-31.44-13.79-31.95-31"/>
          <circle class="cls-4" cx="250.61" cy="136.78" r="4.39"/>
          <circle class="cls-4" cx="246.81" cy="163.34" r=".52"/>
          <circle class="cls-4" cx="255.63" cy="173.14" r=".52"/>
          <circle class="cls-4" cx="254.86" cy="186.45" r=".52"/>
          <circle class="cls-4" cx="243.24" cy="195.82" r=".52"/>
          <circle class="cls-4" cx="229.75" cy="193.43" r=".52"/>
          <circle class="cls-4" cx="222.31" cy="183.33" r=".52"/>
          <path class="cls-4" d="M225.64,137.56c-.3.11-.63.22-.76.51-.09.19-.04.43.12.57.16.14.48.18.75.2.6.05,1.18-.05,1.76-.14"/>
          <path class="cls-4" d="M226.15,139.64c-.3.11-.63.22-.76.51-.09.19-.04.43.12.57.16.14.48.18.75.2.6.05,1.18-.05,1.76-.14"/>
          <path class="cls-4" d="M228.59,142.89c-.58.08-1.16.18-1.76.14-.27-.02-.59-.06-.75-.2-.16-.14-.21-.38-.12-.57.13-.29.46-.4.76-.51l1.33-.46"/>
          <line class="cls-4" x1="231.58" y1="153.94" x2="231.88" y2="155.03"/>
          <line class="cls-4" x1="231.05" y1="152.01" x2="231.34" y2="153.05"/>
          <line class="cls-4" x1="230.51" y1="150.06" x2="230.8" y2="151.09"/>
          <line class="cls-4" x1="230" y1="148.19" x2="230.26" y2="149.14"/>
          <line class="cls-4" x1="229.43" y1="146.14" x2="229.74" y2="147.25"/>
          <line class="cls-4" x1="228.86" y1="144.04" x2="229.17" y2="145.2"/>
          <line class="cls-4" x1="228.35" y1="142.2" x2="228.63" y2="143.23"/>
          <line class="cls-4" x1="227.7" y1="139.85" x2="228.08" y2="141.21"/>
          <line class="cls-4" x1="227.31" y1="138.44" x2="227.52" y2="139.18"/>
          <line class="cls-4" x1="235.88" y1="152.53" x2="236.1" y2="153.49"/>
          <line class="cls-4" x1="235.37" y1="150.62" x2="235.63" y2="151.6"/>
          <line class="cls-4" x1="234.84" y1="148.6" x2="235.14" y2="149.72"/>
          <line class="cls-4" x1="234.33" y1="146.67" x2="234.6" y2="147.69"/>
          <line class="cls-4" x1="233.79" y1="144.62" x2="234.11" y2="145.83"/>
          <line class="cls-4" x1="233.25" y1="142.57" x2="233.56" y2="143.75"/>
          <line class="cls-4" x1="232.73" y1="140.6" x2="233.01" y2="141.67"/>
          <line class="cls-4" x1="232.11" y1="138.28" x2="232.46" y2="139.61"/>
          <path class="cls-4" d="M226.11,139.65c1.89-.63,3.78-1.28,5.66-1.92"/>
          <path class="cls-4" d="M227.51,140.73c-2.39-.15.62-.99,1.19-1.2.93-.32,2.05-.73,2.94-1.01.57-.17,1.15-.4,1.66-.7"/>
          <polyline class="cls-4" points="228.02 141.3 229.38 140.8 232.01 139.87 233.15 139.37 233.86 138.98 233.91 138.86"/>
          <path class="cls-4" d="M232.36,138.86c.68-.08,2.1-.27,2.41.36.1.5-.59.83-1,1.01-1.23.49-2.51.79-3.74,1.28-1.06.42-1.75.67-2.95,1.25"/>
          <path class="cls-4" d="M231.63,156.75c-.49.04-.99.12-1.47,0-.46-.11-.74-.52-.39-.88.19-.18.42-.27.67-.37,1.31-.48,2.62-.91,3.94-1.35.65-.22,1.2-.42,1.84-.66.29-.11.65-.23.89-.4.16-.12.14-.22.14-.36"/>
          <path class="cls-4" d="M230.87,156.74c.06-.55.64-.73,1.12-.88.52-.17,1.02-.33,1.49-.47,1.33-.38,2.74-.92,3.98-1.36.34-.14.73-.31.93-.63.15-.25.07-.51-.19-.61-.58-.21-1.49-.01-2.15.1"/>
          <path class="cls-4" d="M236.95,150.77c0,.14.02.24-.14.36-.24.17-.6.29-.89.4-.64.24-1.19.44-1.84.66-1.33.44-2.63.87-3.94,1.35-.24.1-.48.19-.67.37-.35.35-.08.76.39.88.48.13.98.05,1.47,0l.48-.03"/>
          <path class="cls-4" d="M230.57,154.78c.06-.55.64-.73,1.12-.88.52-.17,1.02-.33,1.49-.47,1.33-.38,2.74-.92,3.98-1.36.34-.14.73-.31.93-.63.15-.25.07-.51-.19-.61-.58-.21-1.49-.01-2.15.1"/>
          <path class="cls-4" d="M236.35,148.88c0,.14.02.24-.14.36-.24.17-.6.29-.89.4-.64.24-1.19.44-1.84.66-1.33.44-2.63.87-3.94,1.35-.24.1-.48.19-.67.37-.35.35-.08.76.39.88.48.13.98.05,1.47,0l.48-.03"/>
          <path class="cls-4" d="M229.97,152.9c.06-.55.64-.73,1.12-.88.52-.17,1.02-.33,1.49-.47,1.33-.38,2.74-.92,3.98-1.36.34-.14.73-.31.93-.63.15-.25.07-.51-.19-.61-.58-.21-1.49-.01-2.15.1"/>
          <path class="cls-4" d="M235.81,146.89c0,.14.02.24-.14.36-.24.17-.6.29-.89.4-.64.24-1.19.44-1.84.66-1.33.44-2.63.87-3.94,1.35-.24.1-.48.19-.67.37-.35.35-.08.76.39.88.48.13.98.05,1.47,0l.48-.03"/>
          <path class="cls-4" d="M229.43,150.91c.06-.55.64-.73,1.12-.88.52-.17,1.02-.33,1.49-.47,1.33-.38,2.74-.92,3.98-1.36.34-.14.73-.31.93-.63.15-.25.07-.51-.19-.61-.58-.21-1.49-.01-2.15.1"/>
          <path class="cls-4" d="M235.37,144.95c0,.14.02.24-.14.36-.24.17-.6.29-.89.4-.64.24-1.19.44-1.84.66-1.33.44-2.63.87-3.94,1.35-.24.1-.48.19-.67.37-.35.35-.08.76.39.88.48.13.98.05,1.47,0l.48-.03"/>
          <path class="cls-4" d="M228.99,148.97c.06-.55.64-.73,1.12-.88.52-.17,1.02-.33,1.49-.47,1.33-.38,2.74-.92,3.98-1.36.34-.14.73-.31.93-.63.15-.25.07-.51-.19-.61-.58-.21-1.49-.01-2.15.1"/>
          <path class="cls-4" d="M234.77,142.92c0,.14.02.24-.14.36-.24.17-.6.29-.89.4-.64.24-1.19.44-1.84.66-1.33.44-2.63.87-3.94,1.35-.24.1-.48.19-.67.37-.35.35-.08.76.39.88.48.13.98.05,1.47,0l.48-.03"/>
          <path class="cls-4" d="M228.39,146.94c.06-.55.64-.73,1.12-.88.52-.17,1.02-.33,1.49-.47,1.33-.38,2.74-.92,3.98-1.36.34-.14.73-.31.93-.63.15-.25.07-.51-.19-.61-.58-.21-1.49-.01-2.15.1"/>
          <path class="cls-4" d="M234.17,140.86c0,.14.02.24-.14.36-.24.17-.6.29-.89.4-.64.24-1.19.44-1.84.66-1.33.44-2.63.87-3.94,1.35-.24.1-.48.19-.67.37-.35.35-.08.76.39.88.48.13.98.05,1.47,0l.48-.03"/>
          <path class="cls-4" d="M227.79,144.88c.06-.55.64-.73,1.12-.88.52-.17,1.02-.33,1.49-.47,1.33-.38,2.74-.92,3.98-1.36.34-.14.73-.31.93-.63.15-.25.07-.51-.19-.61-.58-.21-1.49-.01-2.15.1"/>
          <path class="cls-4" d="M230.02,157.73c1.16-.17,2.2-.68,3.36-.96.74-.2,1.71-.44,2.36-.62.54-.18,1.13-.41,1.68-.6.48-.17.68-.25,1.06-.43.18-.1.47-.2.54-.38-.03-.19-.71-.23-.96-.27l-.52.06"/>
          <line class="cls-4" x1="229.96" y1="157.83" x2="231.46" y2="162.27"/>
          <line class="cls-4" x1="238.99" y1="154.72" x2="240.43" y2="161.55"/>
          <line class="cls-4" x1="240.57" y1="163.24" x2="240.41" y2="161.48"/>
          <line class="cls-4" x1="237.17" y1="154.19" x2="237.29" y2="155.1"/>
          <line class="cls-4" x1="231.5" y1="156.09" x2="231.78" y2="157.23"/>
          <path class="cls-4" d="M231.82,157.06c1.23-.37,2.41-.89,3.67-1.26.62-.19,1.12-.34,1.75-.56.47-.17,1.24-.42.43-.75"/>
          <g>
            <circle class="cls-4" cx="31.99" cy="179.64" r="1.69"/>
            <path class="cls-4" d="M30.48,175.88c-1.49.6-2.54,2.06-2.54,3.76,0,.34.04.67.12.98l.22.59.17.42.09.12"/>
            <path class="cls-4" d="M31.92,183.69c-1.44-.03-2.7-.8-3.4-1.96"/>
            <path class="cls-4" d="M33.13,183.53c-.36.11-.74.16-1.14.16-.02,0-.05,0-.07,0"/>
            <path class="cls-4" d="M35.57,181.54c-.51.95-1.38,1.68-2.44,1.99"/>
            <path class="cls-4" d="M36.02,180.03c-.05.54-.21,1.05-.45,1.5"/>
            <path class="cls-4" d="M35.41,180.05c-.12.99-.65,1.84-1.42,2.39"/>
            <path class="cls-4" d="M28.55,179.58c.02-1.12.57-2.1,1.41-2.72"/>
            <path class="cls-4" d="M36.81,185.03c-1.28,1.15-2.97,1.84-4.82,1.84-3.99,0-7.23-3.24-7.23-7.23s3.24-7.23,7.23-7.23c.06,0,.12,0,.18,0"/>
            <path class="cls-4" d="M37.09,185.77c-1.38,1.15-3.16,1.85-5.1,1.85-4.4,0-7.97-3.57-7.97-7.97s3.57-7.97,7.97-7.97c.18,0,.36,0,.53.02"/>
            <path class="cls-4" d="M42.5,186.73c-2.28,3.37-6.14,5.59-10.51,5.59-7,0-12.68-5.67-12.68-12.68,0-6.18,4.43-11.33,10.28-12.45"/>
            <path class="cls-4" d="M48,185.64c-2.43,6.48-8.68,11.1-16.01,11.1-9.44,0-17.1-7.65-17.1-17.1,0-8.04,5.54-14.78,13.01-16.61"/>
            <path class="cls-4" d="M51.66,170.73c1.23,2.72,1.92,5.73,1.92,8.91,0,11.92-9.67,21.59-21.59,21.59s-21.59-9.67-21.59-21.59c0-9.92,6.69-18.28,15.81-20.81"/>
            <path class="cls-4" d="M44.08,161.75c2.63,1.78,4.85,4.13,6.47,6.86"/>
            <path class="cls-4" d="M59.51,170.15c1.02,2.97,1.58,6.16,1.58,9.49,0,16.07-13.03,29.1-29.1,29.1s-29.1-13.03-29.1-29.1c0-10.13,5.17-19.04,13.02-24.26"/>
            <path class="cls-4" d="M62.78,171.17c.74,2.7,1.14,5.54,1.14,8.47,0,17.63-14.29,31.93-31.93,31.93S.06,197.27.06,179.64c0-9.55,4.19-18.12,10.84-23.97"/>
            <circle class="cls-4" cx="31.99" cy="179.64" r="1.04"/>
            <path class="cls-4" d="M52.17,133.02l.07.27-1.52.57.39,1.59-1.5.61.39,1.61-1.54.6.37,1.57s-1.52.58-1.52.63.38,1.6.38,1.6l-1.46.57.41,1.67-1.62.57-1.37,2.82"/>
            <path class="cls-4" d="M56.71,139.19l.14.55-1.52.65.44,1.59-1.48.64s.44,1.56.4,1.59-1.51.65-1.51.65l.41,1.51-1.58.67.51,1.64-1.44,2.79"/>
            <path class="cls-4" d="M49.69,136.09c2.33,1.29,4.72,2.52,7.12,3.66"/>
            <path class="cls-4" d="M50.74,133.83c1.19.66,2.4,1.31,3.62,1.93"/>
            <path class="cls-4" d="M51.09,135.41c1.63.91,3.29,1.78,4.97,2.61"/>
            <path class="cls-4" d="M50.02,137.67c1.75.94,3.53,1.83,5.32,2.69"/>
            <path class="cls-4" d="M48.84,139.85c1.75.94,3.65,1.92,5.45,2.77"/>
            <path class="cls-4" d="M47.76,142.06c1.75.94,3.67,1.94,5.46,2.79"/>
            <path class="cls-4" d="M46.69,144.32c1.75.94,3.53,1.83,5.32,2.69"/>
            <path class="cls-4" d="M48.54,138.29c2.33,1.29,4.72,2.52,7.12,3.66"/>
            <path class="cls-4" d="M47.4,140.51c2.38,1.31,4.81,2.55,7.27,3.71"/>
            <path class="cls-4" d="M46.31,142.68c2.38,1.32,4.81,2.57,7.27,3.74"/>
            <path class="cls-4" d="M45.05,144.93c2.44,1.34,4.94,2.6,7.46,3.79"/>
            <path class="cls-4" d="M26.27,158.82c1.1,2.53,2.08,5.05,3.04,7.55.1.26.17.45.3.7.41.81.76,1.66,1.17,2.33.09.14.18.29.29.42.12.15.27.27.41.39.22.19.43.39.67.54.18.11.37.2.55.3h.11c1.9-3.77,4.39-8.5,6.05-11.88"/>
            <path class="cls-4" d="M38.87,159.17c.54-1.1,1-2.06,1.31-2.79.22-.52.4-1.11.6-1.64.14-.4.19-.86.28-1.28.15-.81.34-1.74.53-2.67.05-.23.07-.37.13-.57.14-.46.43-1.47.6-1.98.3-.8,2.4-6.59,3.18-8.69.23-.43.54-.92.75-1.34.14-.35-.02-.56-.41-.53h-.05c-1.05.04-2.13.18-3.16.26-1.7.14-3.67.23-5.25.4-1.55.22-3.62.48-5.08.7-1.32.26-3.42.7-4.63.95-1.7.36-3.9,1.04-5.5,1.46-1.15.36-2.51.87-3.68,1.27-.53.18-.92.46-1.41.78-.42.28-.87.57-1.29.84-.35.23-.57.39-.89.66-.81.68-1.95,1.64-2.69,2.27-1.59,1.46-3.57,3.53-5.08,4.99-.53.52-.89.89-1.37,1.42-.35.38-.86.95-1.23,1.35-.27.29-.5.62-.62.99l.06.1c5.9-.43,14.79-.95,19.8-1.15.21,0,.46.06.65.18.23.14.38.41.5.65.48,1.01.94,2.03,1.38,3.04"/>
            <path class="cls-4" d="M50.44,172.4c-.01.1-.03.18-.03.27,0,.13.04.41.14.53h-.01c.3.35,1.44,1.22,1.44,1.22l.5,3.15c-.11.18-.26.43-.38.63-.2.32-.42.69-.52.86-.1.16-.24.4-.22.56l.02.17.97,1.63-.56,3.22c-.16.14-.38.32-.57.48-.29.24-.62.52-.77.65-.15.11-.24.34-.28.5-.01.1.02.19.03.29.08.48.26,1.5.31,1.76.03.12-.02.18-.09.3-.32.57-1.04,1.93-1.41,2.57-.03.04-.09.05-.14.07-.27.1-1.11.42-1.54.59-.09.04-.17.06-.25.11-.11.07-.33.24-.39.38v-.02c-.16.44-.35,1.86-.35,1.86l-2.49,2c-.21,0-.5-.01-.74-.02-.38-.01-.81-.02-1.01-.03-.18-.01-.4.09-.54.19-.08.07-.11.15-.17.24-.26.42-.8,1.3-.94,1.52-.06.11-.14.12-.26.16-.62.22-2.05.76-2.75.99-.05,0-.1-.02-.15-.03-.27-.1-1.11-.42-1.54-.58-.09-.03-.17-.07-.26-.09-.18-.02-.27.01-.4.15l-1.32,1.17-3.19.06c-.17-.13-.39-.32-.58-.47-.29-.24-.63-.51-.78-.64-.14-.12-.38-.17-.54-.18-.1,0-.18.05-.28.09-.46.17-1.43.54-1.67.63-.12.05-.18,0-.31-.03-.62-.2-2.09-.65-2.79-.89-.04-.03-.07-.07-.1-.12-.15-.24-.63-1.01-.87-1.4-.05-.08-.09-.16-.15-.23-.09-.1-.3-.28-.45-.31h.02c-.47-.08-1.9,0-1.9,0l-2.43-2.06c-.04-.21-.08-.49-.12-.73-.06-.37-.13-.8-.16-1-.03-.18-.17-.38-.29-.49-.08-.06-.17-.08-.27-.12-.46-.17-1.43-.54-1.68-.63-.12-.04-.14-.11-.21-.22-.33-.56-1.13-1.87-1.5-2.52-.02-.05,0-.1,0-.15.05-.28.2-1.17.28-1.62.01-.1.04-.18.04-.27,0-.18-.09-.42-.25-.53l-1.2-1.25-.6-3.13c.11-.19.25-.43.37-.65.19-.33.4-.7.5-.88.1-.16.11-.4.08-.57-.02-.1-.08-.17-.13-.26-.25-.42-.77-1.32-.91-1.54-.07-.11-.04-.17-.02-.31.1-.65.3-2.17.42-2.9.02-.05.06-.08.1-.12.22-.19.89-.79,1.24-1.09.07-.07.14-.12.2-.19.08-.11.23-.34.23-.5v.02c0-.47-.32-1.87-.32-1.87l1.63-2.74c.2-.07.47-.16.7-.24.36-.12.77-.26.95-.33.18-.06.34-.23.44-.37.05-.09.05-.18.08-.28.09-.48.29-1.5.34-1.76.02-.13.09-.16.19-.25.5-.42,1.66-1.43,2.23-1.9.05-.02.1-.02.15-.02.29,0,1.19,0,1.65,0,.1,0,.18,0,.27,0,.17-.04.4-.15.48-.34.21-.39.67-1.26.84-1.58l2.92-1.09.37.12"/>
            <path class="cls-4" d="M43.47,162.98l.45-.05,2.46,2.03c.04.21.09.49.13.73.07.37.14.8.18.99.03.18.17.38.3.49.08.06.17.08.27.12.46.17,1.44.52,1.68.61.12.04.14.11.21.22.2.32.55.89.89,1.43"/>
            <circle class="cls-4" cx="15.44" cy="170.03" r="1.13"/>
            <circle class="cls-4" cx="15.44" cy="189.17" r="1.13"/>
            <circle class="cls-4" cx="32.01" cy="198.74" r="1.13"/>
            <circle class="cls-4" cx="48.65" cy="189.17" r="1.13"/>
            <path class="cls-4" d="M47.49,169.79c.1-.49.52-.87,1.04-.9.62-.04,1.16.44,1.19,1.06"/>
            <g>
              <path class="cls-4" d="M21.03,164.21h0c-.18-.21-.5-.23-.7-.05l-1.54,1.35c-.21.18-.23.5-.05.7.18.21.5.23.7.05l1.54-1.35c.21-.18.23-.5.05-.7Z"/>
              <path class="cls-4" d="M13.79,174.89h0c-.27-.05-.53.13-.58.4l-.37,2.01c-.05.27.13.53.4.58.27.05.53-.13.58-.4l.37-2.01c.05-.27-.13-.53-.4-.58Z"/>
              <path class="cls-4" d="M13.26,181.34h0c-.27.05-.45.31-.41.58l.35,2.02c.05.27.31.45.58.41.27-.05.45-.31.41-.58l-.35-2.02c-.05-.27-.31-.45-.58-.41Z"/>
              <path class="cls-4" d="M18.8,193.06h0c-.18.21-.15.53.06.7l1.57,1.31c.21.18.53.15.7-.06.18-.21.15-.53-.06-.7l-1.57-1.31c-.21-.18-.53-.15-.7.06Z"/>
              <path class="cls-4" d="M24.18,196.76h0c-.09.26.05.54.31.64l1.93.68c.26.09.54-.05.64-.31.09-.26-.05-.54-.31-.64l-1.93-.68c-.26-.09-.54.05-.64.31Z"/>
              <path class="cls-4" d="M27.04,161.42h0c-.1-.26-.38-.39-.64-.3l-1.92.71c-.26.1-.39.38-.3.64.1.26.38.39.64.3l1.92-.71c.26-.1.39-.38.3-.64Z"/>
            </g>
            <g>
              <path class="cls-4" d="M42.97,164.21h0c.18-.21.5-.23.7-.05l1.54,1.35c.21.18.23.5.05.7-.18.21-.5.23-.7.05l-1.54-1.35c-.21-.18-.23-.5-.05-.7Z"/>
              <path class="cls-4" d="M50.21,174.89h0c.27-.05.53.13.58.4l.37,2.01c.05.27-.13.53-.4.58-.27.05-.53-.13-.58-.4l-.37-2.01c-.05-.27.13-.53.4-.58Z"/>
              <path class="cls-4" d="M50.74,181.34h0c.27.05.45.31.41.58l-.35,2.02c-.05.27-.31.45-.58.41-.27-.05-.45-.31-.41-.58l.35-2.02c.05-.27.31-.45.58-.41Z"/>
              <path class="cls-4" d="M45.2,193.06h0c.18.21.15.53-.06.7l-1.57,1.31c-.21.18-.53.15-.7-.06-.18-.21-.15-.53.06-.7l1.57-1.31c.21-.18.53-.15.7.06Z"/>
              <path class="cls-4" d="M39.83,196.76h0c.09.26-.05.54-.31.64l-1.93.68c-.26.09-.54-.05-.64-.31-.09-.26.05-.54.31-.64l1.93-.68c.26-.09.54.05.64.31Z"/>
            </g>
            <circle class="cls-4" cx="28.24" cy="165.22" r=".47"/>
            <circle class="cls-4" cx="24.62" cy="166.64" r=".47"/>
            <circle class="cls-4" cx="22.34" cy="166.97" r=".47"/>
            <circle class="cls-4" cx="23.6" cy="168.61" r=".47"/>
            <circle class="cls-4" cx="21.49" cy="169.08" r=".47"/>
            <circle class="cls-4" cx="19.44" cy="170.12" r=".47"/>
            <circle class="cls-4" cx="21.16" cy="171.27" r=".47"/>
            <circle class="cls-4" cx="44.66" cy="189.29" r=".47"/>
            <circle class="cls-4" cx="42.94" cy="188.13" r=".47"/>
            <circle class="cls-4" cx="42.6" cy="190.27" r=".47"/>
            <circle class="cls-4" cx="41.69" cy="192.38" r=".47"/>
            <circle class="cls-4" cx="40.43" cy="190.73" r=".47"/>
            <circle class="cls-4" cx="19.11" cy="172.21" r=".47"/>
            <circle class="cls-4" cx="17.32" cy="173.66" r=".47"/>
            <circle class="cls-4" cx="19.25" cy="174.43" r=".47"/>
            <circle class="cls-4" cx="17.65" cy="175.82" r=".47"/>
            <circle class="cls-4" cx="18.26" cy="177.82" r=".47"/>
            <circle class="cls-4" cx="16.25" cy="177.53" r=".47"/>
            <circle class="cls-4" cx="17.18" cy="179.58" r=".47"/>
            <circle class="cls-4" cx="19.11" cy="187.02" r=".47"/>
            <circle class="cls-4" cx="24.46" cy="192.49" r=".47"/>
            <circle class="cls-4" cx="32.07" cy="194.56" r=".47"/>
            <circle class="cls-4" cx="39.56" cy="192.49" r=".47"/>
            <circle class="cls-4" cx="44.95" cy="187.02" r=".47"/>
            <g>
              <circle class="cls-4" cx="16.25" cy="181.73" r=".47"/>
              <circle class="cls-4" cx="17.65" cy="183.46" r=".47"/>
              <circle class="cls-4" cx="18.26" cy="181.49" r=".47"/>
              <circle class="cls-4" cx="19.16" cy="184.93" r=".47"/>
              <circle class="cls-4" cx="17.32" cy="185.7" r=".47"/>
            </g>
            <g>
              <circle class="cls-4" cx="19.43" cy="189.23" r=".47"/>
              <circle class="cls-4" cx="21.49" cy="190.08" r=".47"/>
              <circle class="cls-4" cx="21.08" cy="188.05" r=".47"/>
              <circle class="cls-4" cx="23.53" cy="190.65" r=".47"/>
              <circle class="cls-4" cx="22.28" cy="192.2" r=".47"/>
            </g>
            <g>
              <circle class="cls-4" cx="25.85" cy="194.27" r=".47"/>
              <circle class="cls-4" cx="28.05" cy="193.95" r=".47"/>
              <circle class="cls-4" cx="26.68" cy="192.42" r=".47"/>
              <circle class="cls-4" cx="30.09" cy="193.42" r=".47"/>
              <circle class="cls-4" cx="29.8" cy="195.39" r=".47"/>
            </g>
            <g>
              <circle class="cls-4" cx="34.2" cy="195.4" r=".47"/>
              <circle class="cls-4" cx="35.89" cy="193.95" r=".47"/>
              <circle class="cls-4" cx="33.91" cy="193.4" r=".47"/>
              <circle class="cls-4" cx="37.33" cy="192.41" r=".47"/>
              <circle class="cls-4" cx="38.14" cy="194.22" r=".47"/>
            </g>
            <circle class="cls-4" cx="25.99" cy="164.93" r=".47"/>
            <circle class="cls-4" cx="26.7" cy="166.79" r=".47"/>
            <g>
              <path class="cls-4" d="M22.81,170.81c.13.33.27.64.38.98.17.48.28,1.04.49,1.51.25.57.67,1.11,1.24,1.4.21.1.46.14.69.15"/>
              <path class="cls-4" d="M21.34,172.87c.32,1.14.64,2.47,1.03,3.62.41,1.25.67,2.62-.62,3.42-.72.41-1.61.37-2.41.39"/>
              <path class="cls-4" d="M19.58,181.9c.77,0,1.65,0,2.44,0,1.09-.02,1.76.12,2.58.88"/>
              <path class="cls-4" d="M19.44,180.92c.41-.04.84-.05,1.25-.11.13-.02.35-.05.49-.07.27-.03.5-.13.74-.23.39-.19.73-.48.96-.84.22-.34.4-.71.46-1.12.02-.26.07-.47-.02-.73-.35-1.21-1.08-3.81-1.58-5.61"/>
              <path class="cls-4" d="M22.47,171.27c.17.5.41,1.22.59,1.74.16.46.31.91.61,1.31.29.38.73.64,1.04,1.01.13.16.19.34.25.54"/>
              <path class="cls-4" d="M21.92,171.94c.29,1.04,1.21,4.32,1.52,5.37.12.35.41.56.76.64"/>
              <path class="cls-4" d="M19.46,181.39c.78,0,2.07,0,3,0,.23,0,.4-.01.66-.04.22-.02.47-.06.64-.18.13-.08.24-.2.34-.31"/>
            </g>
            <g>
              <path class="cls-4" d="M20.77,185.64c.35-.02.69-.05,1.05-.05.51-.01,1.07.06,1.59.01.62-.05,1.27-.28,1.72-.73.16-.17.27-.39.37-.61"/>
              <path class="cls-4" d="M22.26,187.69c1.19.05,2.54.17,3.76.17,1.31,0,2.7.2,3.04,1.67.16.81-.16,1.64-.39,2.41"/>
              <path class="cls-4" d="M30.27,192.22c.24-.73.52-1.57.77-2.31.33-1.03.67-1.63,1.65-2.17"/>
              <path class="cls-4" d="M29.3,192.04c.1-.4.22-.82.29-1.22.02-.13.06-.34.09-.49.05-.26.04-.51.02-.77-.06-.43-.23-.84-.5-1.18-.26-.32-.55-.61-.91-.79-.24-.11-.43-.22-.7-.22-1.25-.05-3.95-.19-5.82-.28"/>
              <path class="cls-4" d="M21.11,186.12c.53,0,1.29,0,1.84,0,.49,0,.97,0,1.44-.17.45-.15.84-.49,1.28-.67.19-.07.39-.07.59-.06"/>
              <path class="cls-4" d="M21.56,186.84c1.08.06,4.48.23,5.58.26.37,0,.66-.21.84-.52"/>
              <path class="cls-4" d="M29.75,192.17c.25-.74.66-1.96.95-2.84.07-.22.11-.38.18-.64.05-.21.09-.47.04-.67-.04-.15-.11-.29-.18-.42"/>
            </g>
            <g>
              <path class="cls-4" d="M31.2,170.07c-.85.46-1.76.64-2.62-.1-.61-.56-.83-1.42-1.1-2.19"/>
              <path class="cls-4" d="M26.03,168.5c.23.74.49,1.58.73,2.32.34,1.03.41,1.71-.07,2.73"/>
              <path class="cls-4" d="M26.92,168.07c.16.38.3.79.48,1.16.06.12.15.32.21.45.11.24.27.44.44.63.3.31.68.55,1.09.67.4.11.8.17,1.21.11.26-.05.47-.07.69-.24.16-.11.36-.24.58-.38"/>
              <path class="cls-4" d="M31.83,170.63c-.1.07-.19.13-.27.18-.29.22-.42.56-.38.91"/>
              <path class="cls-4" d="M26.48,168.24c.23.74.62,1.97.9,2.86.07.22.13.38.23.62.08.2.2.43.36.56.12.1.26.17.4.23"/>
            </g>
            <g>
              <path class="cls-4" d="M34.37,192.13c.08-.35.16-.68.25-1.02.14-.49.37-1.01.47-1.52.13-.61.1-1.29-.2-1.85-.11-.2-.29-.38-.48-.53"/>
              <path class="cls-4" d="M36.77,191.3c.35-.99.79-2.1,1.13-3.15"/>
              <path class="cls-4" d="M37.6,187.32c-.46,1.29-1.07,3-1.53,4.28"/>
              <path class="cls-4" d="M34.93,191.95c.15-.51.37-1.24.53-1.76.14-.47.27-.93.26-1.43-.02-.47-.23-.95-.26-1.42-.01-.2.05-.39.11-.59"/>
              <path class="cls-4" d="M35.76,191.72c.32-.9,1.26-3.51,1.72-4.82"/>
            </g>
            <circle class="cls-4" cx="42.58" cy="169.13" r=".47"/>
            <circle class="cls-4" cx="44.63" cy="169.88" r=".47"/>
            <path class="cls-4" d="M41.73,166.5c.24.02.43.22.43.47,0,.26-.21.47-.47.47-.15,0-.28-.07-.37-.18"/>
            <path class="cls-4" d="M40.83,168.13c.11.09.18.22.18.37,0,.26-.21.47-.47.47-.06,0-.12-.01-.17-.03"/>
            <path class="cls-4" d="M40.17,169.75c.55.54,1.14,1.06,1.66,1.64.35.41.6.88.86,1.35"/>
            <polyline class="cls-4" points="42.11 165.81 42.93 166.55 44.11 167.68 45.05 168.55 45.77 169.41 46.3 170.43 46.56 170.86"/>
            <path class="cls-4" d="M25.48,176.48c.18-.07.33-.14.48-.06.28.2.62.58.9.78.21.16.49.06.64-.14.13-.14.33-.5.5-.57.14-.03.24.14.34.22.12.12.31.3.42.42"/>
            <path class="cls-4" d="M30.62,172.54c-.28.61-.65,1.81-.81,2.27-.05.12-.15.16-.27.25-.11.07-.25.15-.34.24-.22.18-.07.38.11.55.14.13.3.3.42.42"/>
            <path class="cls-4" d="M29.54,176.39c-.22-.22-.73-.75-.91-.94-.03-.03-.07-.07-.12-.06-.11.07-.22.23-.31.33-.06.08-.12.12-.13.2,0,.05.04.08.07.11.19.19.62.6.84.82"/>
            <g>
              <path class="cls-4" d="M26.78,184.71c0-.19-.01-.36.12-.47.28-.19.76-.38,1.05-.57.23-.14.23-.44.1-.65-.09-.17-.35-.49-.36-.67.03-.14.21-.17.33-.24.16-.07.39-.18.54-.24"/>
              <path class="cls-4" d="M24.9,178.51c.48.47,1.46,1.24,1.84,1.56.1.09.1.2.14.34.03.13.05.28.11.4.1.27.33.2.55.09.17-.08.39-.17.54-.24"/>
              <path class="cls-4" d="M28.13,180.88c-.28.12-.96.42-1.2.53-.04.02-.09.04-.09.09.03.13.14.28.2.41.05.08.07.15.14.19.04.01.09-.01.13-.03.25-.11.78-.37,1.06-.5"/>
            </g>
            <g>
              <path class="cls-4" d="M35.38,185.96c-.19-.04-.35-.08-.42-.23-.12-.32-.17-.83-.28-1.16-.08-.26-.36-.33-.6-.26-.19.04-.56.21-.74.18-.13-.06-.11-.25-.15-.38-.03-.17-.07-.43-.1-.58"/>
              <path class="cls-4" d="M28.91,186.19c.58-.34,1.58-1.09,1.98-1.37.11-.07.22-.04.37-.04.13,0,.29.02.41,0,.28-.02.28-.27.23-.51-.03-.18-.07-.42-.1-.58"/>
              <path class="cls-4" d="M32.03,183.68c.05.31.16,1.03.2,1.29,0,.04.01.1.06.11.13,0,.31-.06.45-.09.09-.03.16-.03.22-.09.02-.04.01-.09,0-.13-.05-.27-.15-.85-.21-1.16"/>
            </g>
            <path class="cls-4" d="M37.85,161.2c.12.29.22.63.09.92-.27.54-1.18,2.35-1.43,2.85-.17.38-.47.6-.9.6"/>
            <polyline class="cls-4" points="34.34 168.5 29.09 178.39 28.37 180.1 28.13 180.64"/>
            <path class="cls-4" d="M28.4,181.39c.23.19.45.39.67.55.43.32.98.55,1.46.81.93.48,1.82.96,2.85.48.35-.14.52-.44.67-.78.09-.19.2-.42.31-.65.26-.55.52-1.12.75-1.61"/>
            <path class="cls-4" d="M47.96,152.73c-3.23,6.39-11.11,21.68-14.5,28.41-.31.63-.71.99-1.46.95-.7-.06-1.57-.44-2.01-1-.24-.32-.44-.9-.33-1.25,3.23-6.37,11.69-22.98,14.67-28.87"/>
            <path class="cls-4" d="M39,158.82c.3-.06.64-.23.84-.44.28-.54,1.67-3.47,2.51-5.19.25-.51.44-.9.51-1.06.05-.11.06-.2.08-.34.08-.5.04-1.12.13-1.63.06-.29.27-.63.4-.9l6.31,3.18h0c-.16.31-.32.62-.55.86-.54.5-1.18.89-1.55,1.54-.35.59-.95,1.38-.26,1.92.17.13.36.22.54.34.17.11.32.22.47.35"/>
            <path class="cls-4" d="M47.49,159.27c-.24-.12-.54-.27-.8-.4-.31-.15-.66-.26-.97-.11-.08.04-.09.09-.13.17-.09.18-.18.35-.27.53-1.18,2.32-4.69,9.09-5.13,10.01-.09.29,0,.72.18.99.28.44.7.86.97,1.32.29.51.35,1.21-.02,1.71-.26.38-.72.59-1.17.63-.28.04-.5.03-.66.16-.2.16-.31.39-.44.62-.22.39-.46.78-.66,1.17-.35.66-.36.99.01,1.65.47.84.15,1.74-.71,2.14-.91.43-1.56-.22-2.51.31"/>
            <line class="cls-4" x1="43.68" y1="147.71" x2="51.14" y2="151.47"/>
            <polyline class="cls-4" points="44.1 148 43.89 148.54 50.15 151.68 50.46 151.12"/>
            <line class="cls-4" x1="44" y1="148.67" x2="43.68" y2="149.37"/>
            <line class="cls-4" x1="50.07" y1="151.64" x2="49.69" y2="152.39"/>
            <path class="cls-4" d="M43.19,149.87c.15.31.38.56.67.77.36.26.62.43,1,.6.48.23,1.04.5,1.55.74.42.2.83.4,1.25.6.61.29,1.15.57,1.82.41"/>
            <path class="cls-4" d="M50.3,159.33s.84.9.86.94.9,1.14.9,1.14l.83.99"/>
            <path class="cls-4" d="M54.3,164.26c.64.9,1.51,2.12,2.11,3.08.22.35.49.71.73,1.06.1.15.19.27.3.4.17.18.34.44.55.59.3.2.59.37.93.49.42.16.95.38,1.34.53.59.19,1.8.54,2.53.78,1.17.38,2.58.87,3.83,1.24.28.08.72.19,1,.28.28.09.74.36.7-.18"/>
            <path class="cls-4" d="M59.92,153.99c.73,1.17,1.46,2.41,2.14,3.62,1.12,1.9,2.18,3.84,3.11,5.83.32.72.62,1.46.92,2.19.38.99.72,1.99,1.08,2.98.43,1.29.78,2.62,1.13,3.92"/>
            <path class="cls-4" d="M53.6,146.07c1.45,1.56,2.85,3.17,4.16,4.85"/>
            <path class="cls-4" d="M35.63,181.54c.62,1.89,1.61,4.83,2.15,6.32.07.16.15.36.25.52.28.5.93.67,1.46.52.48-.14.83-.54,1.18-.88.35-.35.69-.72,1.05-1.07.15-.13.31-.21.48-.25.6-.13,2.07-.4,3.01-.59.67-.13,1.41-.26,2.09-.41.25-.06.59-.13.78-.22.32-.17.55-.47.69-.8.05-.13.12-.24.12-.36.05-.66.33-3.53.42-4.75.02-.75.07-1.59,0-2.38,0-.16-.01-.33-.06-.48-.1-.31-.35-.63-.64-.79-.35-.18-.81-.36-1.16-.52"/>
            <path class="cls-4" d="M38.28,179.53c0,.92-.01,1.84,0,2.74.05.54.15,1.09.27,1.63.17.71.18,1.33,1.1,1.24.54-.06.43-.61.71-.94.13-.18.33-.34.49-.48.37-.33.73-.75,1.07-1.12.22-.22.34-.43.49-.7.13-.23.26-.45.36-.68.23-.53.38-.87.24-1.46-.07-.32-.21-.62-.35-.92-.16-.32-.3-.63-.49-.92-.23-.35-.42-.64-.68-.95-.21-.27-.5-.59-.68-.87-.17-.26-.1-.67-.39-.86-.23-.15-.57-.15-.81-.04-.3.16-.35.55-.44.85-.19.61-.39,1.26-.63,1.86"/>
            <path class="cls-4" d="M42.07,177.78c-.04.3-.05.68-.07,1.01-.01.15,0,.36-.05.47-.05.13-.15.25-.3.27-.31.03-.71-.05-1,.07-.15.07-.3.17-.34.34-.09.27-.05.58.12.8.41.53,1.26.21,1.36.6.03.18,0,.43,0,.65,0,.28-.02.58-.03.83"/>
            <circle class="cls-4" cx="41.98" cy="180.31" r=".58"/>
            <path class="cls-4" d="M48.36,171.86c.11.08.22.18.37.2.19,0,.35-.23.43-.39"/>
            <path class="cls-4" d="M47.85,172.85c.22.09.45.18.69.22.63.12,1.17-.3,1.47-.83"/>
            <path class="cls-4" d="M47.94,172.89c-.2-.14-.26-.44-.12-.69.14-.27.45-.39.69-.27"/>
            <path class="cls-4" d="M48.92,171.2l1.84-2.82.56.5.61.45.56.22-1.89,2.66c-.1.15-.54.05-.99-.23s-.74-.63-.64-.78"/>
            <polyline class="cls-4" points="50.84 168.38 51.09 167.36 51.93 165.02 53.25 161.65 54.01 159.99 54.91 157.95 56.5 154.81"/>
            <polyline class="cls-4" points="58.21 155.61 56.5 159.17 54.79 163.1 53.77 165.61 52.55 169.41"/>
            <g>
              <polygon class="cls-4" points="49.86 158.54 49.2 158.12 48.51 158.48 48.48 159.26 49.14 159.67 49.83 159.31 49.86 158.54"/>
              <circle class="cls-4" cx="49.17" cy="158.9" r="1.13"/>
            </g>
            <g>
              <polygon class="cls-4" points="40.86 172.3 40.2 171.88 39.51 172.24 39.48 173.02 40.14 173.44 40.82 173.08 40.86 172.3"/>
              <circle class="cls-4" cx="40.17" cy="172.66" r="1.13"/>
            </g>
            <g>
              <polygon class="cls-4" points="36.79 158.38 36.06 157.91 35.29 158.31 35.25 159.18 35.99 159.65 36.75 159.25 36.79 158.38"/>
              <circle class="cls-4" cx="36.02" cy="158.78" r="1.26"/>
            </g>
            <g>
              <polygon class="cls-4" points="33.34 165.12 32.61 164.65 31.84 165.05 31.8 165.92 32.53 166.38 33.3 165.98 33.34 165.12"/>
              <circle class="cls-4" cx="32.57" cy="165.52" r="1.26"/>
            </g>
            <g>
              <polygon class="cls-4" points="37.89 178.15 37.23 177.73 36.54 178.09 36.51 178.87 37.16 179.29 37.85 178.93 37.89 178.15"/>
              <circle class="cls-4" cx="37.2" cy="178.51" r="1.13"/>
            </g>
            <path class="cls-4" d="M40.17,169.5c-.16.36-.35.72-.47,1.1-.04.13-.08.26-.14.38-.1.25-.35.34-.55.49-.35.25-.51.71-.49,1.13,0,.2.08.43.1.62,0,.13-.13.3-.19.45-.49.92-1.34,2.76-1.69,3.27-.06.04-.17.07-.26.1-.29.09-.6.31-.79.55-.26.33-.23.82-.16,1.21.03.17.07.34,0,.52-.09.25-.28.56-.39.8"/>
            <polyline class="cls-4" points="41.59 172.28 42.01 172.89 42.76 172.73 43.45 172.62 44.37 172.28 45.35 172.02 46.05 172.28"/>
            <polyline class="cls-4" points="48.28 173.31 48.28 173.53 47.12 175.9 45.71 177.3"/>
            <path class="cls-4" d="M47.49,173.23s-1.6,3.88-1.62,3.91"/>
            <polyline class="cls-4" points="46.27 172.66 44.6 176.46 44.74 177.21 44.73 179.14 44.62 180.7 44.58 181.95 44.51 183.07 44.35 183.78 44.31 183.98"/>
            <path class="cls-4" d="M45.6,177.38c.49.02,1.1.05,1.6.07.28,0,.3.02.4.31.16.41.32.84.48,1.25.07.18.13.34.18.47.07.19.13.29.13.48,0,.35-.03,1.08-.05,1.47,0,.13-.01.2-.05.3-.3.54-.93,1.63-1.29,2.27-.04.06-.07.08-.13.09-.62,0-2.17-.07-2.95-.07-.39,0-.88.02-1.29.04"/>
            <line class="cls-4" x1="47.27" y1="169.81" x2="47.04" y2="170.39"/>
            <line class="cls-4" x1="47.69" y1="170.01" x2="47.47" y2="170.59"/>
            <line class="cls-4" x1="48.72" y1="170.38" x2="48.47" y2="171.01"/>
            <line class="cls-4" x1="49.15" y1="170.57" x2="48.92" y2="171.15"/>
            <path class="cls-4" d="M46.26,172.38c-.09-.15-.14-.32-.14-.51,0-.45.29-.82.68-.92"/>
            <line class="cls-4" x1="46.92" y1="170.35" x2="48.95" y2="171.25"/>
            <line class="cls-4" x1="46.65" y1="170.6" x2="49.05" y2="171.62"/>
            <line class="cls-4" x1="46.76" y1="170.97" x2="48.67" y2="171.75"/>
            <line class="cls-4" x1="46.02" y1="172.27" x2="48.28" y2="173.31"/>
            <line class="cls-4" x1="45.05" y1="172.1" x2="48.28" y2="173.51"/>
            <line class="cls-4" x1="46.83" y1="170.7" x2="46.74" y2="171.02"/>
            <line class="cls-4" x1="48.76" y1="171.54" x2="48.55" y2="171.97"/>
            <line class="cls-4" x1="46.99" y1="170.35" x2="46.75" y2="170.64"/>
            <line class="cls-4" x1="47.23" y1="169.74" x2="49.24" y2="170.67"/>
            <path class="cls-4" d="M49.6,160.63s.03-.06.04-.09c.05-.09.22-.38.46-.79.47-.81.96-2,1.48-2.9.98-1.7,1.91-3.31,2.08-3.59.13-.17.35-.35.58-.36.09,0,.17.02.24.06.35.19,2.59,1.4,3.45,1.86.54.29.96.52,1.08.58.06.04.08-.04.11-.08.19-.35.86-1.55,1.02-1.86.02-.04.01-.05-.02-.07-.08-.05-.31-.17-.62-.35-1.15-.65-3.32-1.87-3.73-2.1-.07-.04-.1-.04-.22-.08-.2-.06-.5-.16-.72-.21-.19-.04-.41-.06-.6-.07-.18,0-.36.03-.53.05-.19.02-.34.04-.52.11-.25.12-.56.2-.76.39-.21.2-.41.36-.58.6-.1.13-.24.32-.33.42-1.03,1.73-3.67,6.65-4.03,7.26-.03.05,0,.08-.01.16,0,.18-.15.45-.18.58,0,.06.03.09.09.12.37.18,1.47.76,1.82.91.05,0,.08-.02.1-.06.09-.13.27-.2.24-.38l.05-.08Z"/>
            <rect class="cls-4" x="57.65" y="151.55" width="2.99" height=".4" transform="translate(74.48 -10.39) rotate(26.7)"/>
            <rect class="cls-4" x="55.93" y="154.77" width="2.99" height=".4" transform="translate(75.75 -9.28) rotate(26.7)"/>
            <polyline class="cls-4" points="57.73 152.04 58.04 151.42 60.05 152.43 59.74 153.05"/>
            <path class="cls-4" d="M60.82,145.21s-.7,1.79-.7,1.79l-1.06,2.33-.77,1.76"/>
            <polyline class="cls-4" points="62.17 147 61.41 148.84 60.55 150.72 59.97 151.95"/>
            <path class="cls-4" d="M46.31,137.77c.23.31.21.67.16,1.04-.03.28.01.57.07.86.04.22.08.45.15.66.13.37.49.6.8.82"/>
            <circle class="cls-4" cx="36.01" cy="158.78" r="1.54"/>
            <circle class="cls-4" cx="32.57" cy="165.57" r="1.54"/>
            <path class="cls-4" d="M5.29,156c2.8-2.45,5.62-4.96,8.49-7.37,1.28-1.05,2.62-2.2,4.01-3.11,1.1-.73,2.26-1.28,3.49-1.79,1.17-.49,2.45-.84,3.69-1.17,1.73-.45,3.15-.74,5.01-1.07,2.69-.47,5.85-1.07,8.52-1.5,2.32-.34,4.84-.65,7.19-.82"/>
            <polyline class="cls-4" points="24.71 155.38 35.32 150.92 38.32 149.67 43.68 139.36"/>
            <path class="cls-4" d="M42.97,139.52c-1.48.64-9.7,4.06-11.21,4.72-.72.36-1.74.86-2.49,1.25-.45.24-.98.68-.99,1.22.03.47.83,1.05,1.18,1.3.94.5,2.94,1.4,4.48,2.15.37.17.72.36,1.04.48.24.08.6.06.9.05"/>
            <polyline class="cls-4" points="43.06 139.42 42.31 140.27 39.8 141.77 38.14 142.93 34.76 145.33 32.18 147.24 31.51 147.82"/>
            <path class="cls-4" d="M28.33,146.43c.81.38,1.59.75,2.42,1.11.74.3,1.43.66,2.1,1.11.72.46,1.51.96,2.24,1.39.49.3.83.26,1.34.09.64-.2,1.34-.43,1.99-.64"/>
          </g>
          <path class="cls-4" d="M84.8,66.43c.57.99,1.35,1.74,2.42,2.25,1.03.53,2.13.93,3.17,1.42,1.36.66,2.94,1.54,4.3,2.23"/>
          <path class="cls-4" d="M97.21,72.07c-.09.2-.4,1.19-.4,1.19"/>
          <path class="cls-4" d="M179.62,184.06c1.32.58,2.9.92,4.33,1.18,1.08.17,2.29.19,3.31.26"/>
          <path class="cls-4" d="M195.26,175.92c-.19,1.5-.36,2.8-.47,4.25-.1,1.02-.11,1.83-.48,2.73-.78,1.97-2.76,2.54-4.73,2.53"/>
          <path class="cls-4" d="M183.5,203.21c-.67,2.6-2.07,7.31-2.47,9.24.03.31.38.49.65.63.64.33,1.38.4,2.1.42.35,0,.76.05,1.05-.15.2-.18.24-.42.33-.72.07-.25.15-.55.24-.88.34-1.28.75-2.8,1.08-4.03"/>
          <path class="cls-4" d="M182.65,206.32c-1.06.46-2.26.76-3.33,1.19-.58.22-1.28.48-1.61.99-.62.99.16,1.96.97,2.61.73.62,1.5,1.12,2.36,1.5"/>
          <line class="cls-4" x1="183.56" y1="203.21" x2="184.85" y2="203.43"/>
          <path class="cls-4" d="M186.3,199.12c-.72,1.11-.9,2.37-1.32,3.62-.22.65-.4,1.57.38,1.89.39.19.86.24,1.28.29.6.08,1.11.08,1.77.07,1.07-.02,2.19-.05,3.26-.07,3.29-.1,13.14-.22,16.61-.28"/>
          <path class="cls-4" d="M184.69,203.8c-.59.37-1.2.84-1.4,1.53-.2.64.09,1.42.62,1.83.42.35.93.46,1.47.5.78.05,1.84.11,2.56.12,5.63-.12,17.98-.42,23.5-.46"/>
          <path class="cls-4" d="M206.3,203.82c.89.28,1.77.58,2.58,1.08.48.3.92.64,1.35,1,.99.82,1.67,1.95,2.14,3.14"/>
          <path class="cls-4" d="M212.35,208.98c.19-.19.42-.39.6-.6.11-.13.13-.28.05-.45-.64-1.63-1.82-2.89-3.29-3.81-.69-.44-1.46-.74-2.23-.99-.12-.04-.27-.09-.39-.06-.07.02-.14.06-.2.11-.21.19-.43.43-.62.63"/>
          <path class="cls-4" d="M188.55,180.25c.34-.91,1.21-1.55,2.24-1.55,1.32,0,2.38,1.07,2.38,2.38s-1.07,2.38-2.38,2.38c-.44,0-.85-.12-1.2-.33"/>
          <g>
            <ellipse class="cls-4" cx="188.63" cy="180.69" rx="1.08" ry=".19"/>
            <ellipse class="cls-4" cx="188.61" cy="181.07" rx="1.08" ry=".19"/>
            <ellipse class="cls-4" cx="188.6" cy="181.45" rx="1.08" ry=".19"/>
            <ellipse class="cls-4" cx="188.58" cy="181.83" rx="1.08" ry=".19"/>
            <ellipse class="cls-4" cx="188.56" cy="182.21" rx="1.08" ry=".19"/>
            <ellipse class="cls-4" cx="188.55" cy="182.6" rx="1.08" ry=".19"/>
            <ellipse class="cls-4" cx="188.53" cy="182.98" rx="1.08" ry=".19"/>
            <ellipse class="cls-4" cx="188.52" cy="183.36" rx="1.08" ry=".19"/>
            <ellipse class="cls-4" cx="188.5" cy="183.74" rx="1.08" ry=".19"/>
            <ellipse class="cls-4" cx="188.48" cy="184.12" rx="1.08" ry=".19"/>
            <ellipse class="cls-4" cx="188.47" cy="184.5" rx="1.08" ry=".19"/>
            <ellipse class="cls-4" cx="188.45" cy="184.89" rx="1.08" ry=".19"/>
            <ellipse class="cls-4" cx="188.44" cy="185.27" rx="1.08" ry=".19"/>
            <ellipse class="cls-4" cx="188.42" cy="185.65" rx="1.08" ry=".19"/>
            <ellipse class="cls-4" cx="188.4" cy="186.03" rx="1.08" ry=".19"/>
            <ellipse class="cls-4" cx="188.39" cy="186.41" rx="1.08" ry=".19"/>
            <ellipse class="cls-4" cx="188.37" cy="186.8" rx="1.08" ry=".19"/>
            <ellipse class="cls-4" cx="188.36" cy="187.18" rx="1.08" ry=".19"/>
            <ellipse class="cls-4" cx="188.34" cy="187.56" rx="1.08" ry=".19"/>
            <ellipse class="cls-4" cx="188.32" cy="187.94" rx="1.08" ry=".19"/>
            <ellipse class="cls-4" cx="188.31" cy="188.32" rx="1.08" ry=".19"/>
            <ellipse class="cls-4" cx="188.29" cy="188.71" rx="1.08" ry=".19"/>
          </g>
          <g>
            <path class="cls-4" d="M189.16,191.78c0,.56-.46,1.02-1.02,1.02s-1.02-.46-1.02-1.02"/>
            <line class="cls-4" x1="189.16" y1="191.78" x2="189.16" y2="188.82"/>
            <line class="cls-4" x1="187.12" y1="191.78" x2="187.12" y2="190.6"/>
          </g>
          <g>
            <path class="cls-4" d="M189.69,177.3c.03.1.05.2.05.3"/>
            <line class="cls-4" x1="187.7" y1="177.8" x2="187.7" y2="180.57"/>
            <line class="cls-4" x1="189.74" y1="177.6" x2="189.74" y2="178.78"/>
          </g>
          <path class="cls-4" d="M192.56,185.01l-.7.92-.61,1.29s-.97,4.64-.98,4.69-.23.89-.23.89l-1.35-.15"/>
          <path class="cls-4" d="M187.12,187.33c-.11.12-1.11,4.56-1.11,4.56l1.04.23"/>
          <line class="cls-4" x1="186.51" y1="192.12" x2="183.96" y2="203.21"/>
          <path class="cls-4" d="M189.67,192.8c-.14.36-1.53,7.27-1.53,7.27"/>
          <path class="cls-4" d="M187.82,199.82c.8.75,1.77,1,2.78,1.47.75.35,1.4.57,2.23.85.42.16.98.25,1.1.75.09.63-.04,1.37-.04,1.98"/>
          <path class="cls-4" d="M186.22,199.12l.29-.1s.44-2.13.47-2.17l.77.07-.29,2.63.44.36"/>
          <path class="cls-4" d="M192.64,185.14c.07.01,1.73.22,1.73.22l-.87,4.61h-2.83"/>
        </g>
      </g>
      <line class="cls-2" x1="151.52" y1="223.33" x2="151.12" y2="180.47"/>
      <rect class="cls-3" x="102.75" y="159.83" width="40.93" height="22.06"/>
      <line class="cls-2" x1="97.98" y1="148.43" x2="90.07" y2="139.92"/>
    </g>
  </g>
</svg>