<?xml version="1.0" encoding="UTF-8"?>
<svg id="_图层_2" data-name="图层 2" xmlns="http://www.w3.org/2000/svg" viewBox="0 0 5.89 6.72">
  <defs>
    <style>
      .cls-1 {
        fill: none;
        stroke: #565757;
        stroke-linecap: square;
        stroke-miterlimit: 10;
        stroke-width: .23px;
      }
    </style>
  </defs>
  <g id="_图层_1-2" data-name="图层 1">
    <g>
      <line class="cls-1" x1=".16" y1="3.76" x2=".8" y2="3.39"/>
      <line class="cls-1" x1="1.26" y1="3.12" x2="2.41" y2="2.46"/>
      <line class="cls-1" x1="2.94" y1="2.15" x2="4.36" y2="1.33"/>
      <line class="cls-1" x1="4.82" y1="1.06" x2="5.46" y2=".69"/>
      <line class="cls-1" x1="5.73" y1="1.16" x2="5.09" y2="1.53"/>
      <line class="cls-1" x1="4.62" y1="1.8" x2="3.48" y2="2.46"/>
      <line class="cls-1" x1="2.94" y1="2.77" x2="1.53" y2="3.58"/>
      <line class="cls-1" x1="1.06" y1="3.85" x2=".42" y2="4.22"/>
      <line class="cls-1" x1="3.75" y1="3.51" x2="2.54" y2="4.56"/>
      <line class="cls-1" x1="2.04" y1="4.02" x2="1.77" y2="4.49"/>
      <line class="cls-1" x1="3.75" y1="3.51" x2="3.85" y2="4.02"/>
      <line class="cls-1" x1="3.96" y1="4.57" x2="4.06" y2="5.08"/>
      <line class="cls-1" x1="4.06" y1="5.08" x2="2.54" y2="4.56"/>
      <line class="cls-1" x1="5.46" y1="4.22" x2="4.82" y2="3.85"/>
      <line class="cls-1" x1="4.36" y1="3.58" x2="2.94" y2="2.77"/>
      <line class="cls-1" x1="2.41" y1="2.46" x2="1.26" y2="1.8"/>
      <line class="cls-1" x1=".8" y1="1.53" x2=".16" y2="1.16"/>
      <line class="cls-1" x1=".42" y1=".69" x2="1.06" y2="1.06"/>
      <line class="cls-1" x1="1.53" y1="1.33" x2="2.94" y2="2.15"/>
      <line class="cls-1" x1="3.48" y1="2.46" x2="4.62" y2="3.12"/>
      <line class="cls-1" x1="5.09" y1="3.39" x2="5.73" y2="3.76"/>
      <g>
        <path class="cls-1" d="M5.73,1.16c-.08-.16-.17-.32-.27-.46"/>
        <path class="cls-1" d="M5.09,3.39c.26-.59.26-1.27,0-1.86"/>
        <path class="cls-1" d="M5.46,4.22c.1-.15.19-.3.27-.46"/>
        <path class="cls-1" d="M3.96,4.57c.34-.16.64-.41.86-.71"/>
      </g>
      <g>
        <path class="cls-1" d="M1.53,3.58c.14.18.31.33.51.44"/>
        <path class="cls-1" d="M1.06,3.85c.19.26.43.47.71.63"/>
        <path class="cls-1" d="M.16,3.76c.08.16.16.32.27.46"/>
      </g>
      <path class="cls-1" d="M.8,1.53c-.26.6-.26,1.27,0,1.86"/>
      <path class="cls-1" d="M.42.69c-.1.15-.19.3-.27.46"/>
      <path class="cls-1" d="M4.82,1.06C4.05.02,2.59-.2,1.55.58c-.18.14-.35.3-.49.49"/>
      <g>
        <path class="cls-1" d="M3.85,4.02c.19-.11.36-.26.5-.44"/>
        <path class="cls-1" d="M1.26,1.8c-.17.43-.17.9,0,1.32"/>
        <path class="cls-1" d="M4.62,3.12c.17-.42.17-.9,0-1.32"/>
        <path class="cls-1" d="M4.36,1.33c-.62-.78-1.76-.91-2.54-.29-.11.09-.2.18-.29.29"/>
      </g>
      <path class="cls-1" d="M3.75,5.8c0-.44-.36-.8-.8-.8s-.8.36-.8.8.36.8.8.8.8-.36.8-.8Z"/>
    </g>
  </g>
</svg>