<?xml version="1.0" encoding="UTF-8"?>
<svg id="_图层_2" data-name="图层 2" xmlns="http://www.w3.org/2000/svg" xmlns:xlink="http://www.w3.org/1999/xlink" viewBox="0 0 91.84 89.27">
  <defs>
    <style>
      .cls-1 {
        fill: #fff;
      }

      .cls-2, .cls-3, .cls-4, .cls-5, .cls-6 {
        fill: none;
      }

      .cls-3 {
        stroke-linecap: round;
        stroke-linejoin: round;
      }

      .cls-3, .cls-4, .cls-5, .cls-6 {
        stroke-width: .12px;
      }

      .cls-3, .cls-5 {
        stroke: #54565a;
      }

      .cls-4 {
        stroke: #231815;
      }

      .cls-4, .cls-5, .cls-6 {
        stroke-miterlimit: 10;
      }

      .cls-7 {
        fill: #221714;
      }

      .cls-5, .cls-6 {
        stroke-linecap: square;
      }

      .cls-8 {
        clip-path: url(#clippath);
      }

      .cls-9 {
        fill: #e5612f;
      }

      .cls-6 {
        stroke: #040000;
      }
    </style>
    <clipPath id="clippath">
      <rect class="cls-2" x="1.52" y="2.04" width="88.56" height="85.86"/>
    </clipPath>
  </defs>
  <g id="_图层_1-2" data-name="图层 1">
    <g>
      <path class="cls-7" d="M.53,89.27h.99v-.14h-.99v.14ZM2.5,89.27h.98v-.14h-.98v.14ZM4.47,89.27h.98v-.14h-.98v.14ZM6.44,89.27h.99v-.14h-.99v.14ZM8.41,89.27h.98v-.14h-.98v.14ZM10.38,89.27h.98v-.14h-.98v.14ZM12.34,89.27h.99v-.14h-.99v.14ZM14.31,89.27h.98v-.14h-.98v.14ZM16.28,89.27h.98v-.14h-.98v.14ZM18.25,89.27h.99v-.14h-.99v.14ZM20.21,89.27h.98v-.14h-.98v.14ZM22.18,89.27h.98v-.14h-.98v.14ZM24.15,89.27h.99v-.14h-.99v.14ZM26.12,89.27h.98v-.14h-.98v.14ZM28.09,89.27h.98v-.14h-.98v.14ZM30.05,89.27h.99v-.14h-.99v.14ZM32.02,89.27h.98v-.14h-.98v.14ZM33.99,89.27h.98v-.14h-.98v.14ZM35.96,89.27h.99v-.14h-.99v.14ZM37.93,89.27h.98v-.14h-.98v.14ZM39.9,89.27h.98v-.14h-.98v.14ZM41.86,89.27h.99v-.14h-.99v.14ZM43.83,89.27h.98v-.14h-.98v.14ZM45.8,89.27h.98v-.14h-.98v.14ZM47.77,89.27h.99v-.14h-.99v.14ZM49.73,89.27h.98v-.14h-.98v.14ZM51.7,89.27h.98v-.14h-.98v.14ZM53.67,89.27h.99v-.14h-.99v.14ZM55.64,89.27h.98v-.14h-.98v.14ZM57.61,89.27h.98v-.14h-.98v.14ZM59.57,89.27h.99v-.14h-.99v.14ZM61.54,89.27h.98v-.14h-.98v.14ZM63.51,89.27h.98v-.14h-.98v.14ZM65.48,89.27h.99v-.14h-.99v.14ZM67.45,89.27h.98v-.14h-.98v.14ZM69.42,89.27h.98v-.14h-.98v.14ZM71.38,89.27h.99v-.14h-.99v.14ZM73.35,89.27h.98v-.14h-.98v.14ZM75.32,89.27h.98v-.14h-.98v.14ZM77.29,89.27h.99v-.14h-.99v.14ZM79.25,89.27h.98v-.14h-.98v.14ZM81.22,89.27h.98v-.14h-.98v.14ZM83.19,89.27h.99v-.14h-.99v.14ZM85.16,89.27h.98v-.14h-.98v.14ZM87.13,89.27h.98v-.14h-.98v.14ZM89.09,89.27h.99v-.14h-.99v.14ZM91.06,89.27h.78v-.14h-.78v.14ZM0,89.02h.25v-.56h-.25v.56ZM91.6,88.6h.25v-.56h-.25v.56ZM0,87.9h.25v-.56h-.25v.56ZM91.6,87.48h.25v-.56h-.25v.56ZM0,86.79h.25v-.56h-.25v.56ZM91.6,86.37h.25v-.56h-.25v.56ZM0,85.67h.25v-.56h-.25v.56ZM91.6,85.25h.25v-.56h-.25v.56ZM0,84.56h.25v-.56h-.25v.56ZM91.6,84.14h.25v-.56h-.25v.56ZM0,83.44h.25v-.56h-.25v.56ZM91.6,83.02h.25v-.56h-.25v.56ZM0,82.33h.25v-.56h-.25v.56ZM91.6,81.91h.25v-.56h-.25v.56ZM0,81.21h.25v-.56h-.25v.56ZM91.6,80.79h.25v-.56h-.25v.56ZM0,80.1h.25v-.56h-.25v.56ZM91.6,79.68h.25v-.56h-.25v.56ZM0,78.98h.25v-.56h-.25v.56ZM91.6,78.56h.25v-.56h-.25v.56ZM0,77.87h.25v-.56h-.25v.56ZM91.6,77.45h.25v-.56h-.25v.56ZM0,76.75h.25v-.56h-.25v.56ZM91.6,76.33h.25v-.56h-.25v.56ZM0,75.64h.25v-.56h-.25v.56ZM91.6,75.22h.25v-.56h-.25v.56ZM0,74.52h.25v-.56h-.25v.56ZM91.6,74.1h.25v-.56h-.25v.56ZM0,73.41h.25v-.56h-.25v.56ZM91.6,72.99h.25v-.56h-.25v.56ZM0,72.29h.25v-.56h-.25v.56ZM91.6,71.87h.25v-.56h-.25v.56ZM0,71.18h.25v-.56h-.25v.56ZM91.6,70.76h.25v-.56h-.25v.56ZM0,70.06h.25v-.56h-.25v.56ZM91.6,69.64h.25v-.56h-.25v.56ZM0,68.95h.25v-.56h-.25v.56ZM91.6,68.53h.25v-.56h-.25v.56ZM0,67.83h.25v-.56h-.25v.56ZM91.6,67.41h.25v-.56h-.25v.56ZM0,66.72h.25v-.56h-.25v.56ZM91.6,66.3h.25v-.56h-.25v.56ZM0,65.6h.25v-.56h-.25v.56ZM91.6,65.18h.25v-.56h-.25v.56ZM0,64.49h.25v-.56h-.25v.56ZM91.6,64.07h.25v-.56h-.25v.56ZM0,63.37h.25v-.56h-.25v.56ZM91.6,62.95h.25v-.56h-.25v.56ZM0,62.26h.25v-.56h-.25v.56ZM91.6,61.84h.25v-.56h-.25v.56ZM0,61.14h.25v-.56h-.25v.56ZM91.6,60.72h.25v-.56h-.25v.56ZM0,60.03h.25v-.56h-.25v.56ZM91.6,59.61h.25v-.56h-.25v.56ZM0,58.91h.25v-.56h-.25v.56ZM91.6,58.49h.25v-.56h-.25v.56ZM0,57.79h.25v-.56h-.25v.56ZM91.6,57.38h.25v-.56h-.25v.56ZM0,56.68h.25v-.56h-.25v.56ZM91.6,56.26h.25v-.56h-.25v.56ZM0,55.56h.25v-.56h-.25v.56ZM91.6,55.15h.25v-.56h-.25v.56ZM0,54.45h.25v-.56h-.25v.56ZM91.6,54.03h.25v-.56h-.25v.56ZM0,53.33h.25v-.56h-.25v.56ZM91.6,52.92h.25v-.56h-.25v.56ZM0,52.22h.25v-.56h-.25v.56ZM91.6,51.8h.25v-.56h-.25v.56ZM0,51.1h.25v-.56h-.25v.56ZM91.6,50.69h.25v-.56h-.25v.56ZM0,49.99h.25v-.56h-.25v.56ZM91.6,49.57h.25v-.56h-.25v.56ZM0,48.87h.25v-.56h-.25v.56ZM91.6,48.46h.25v-.56h-.25v.56ZM0,47.76h.25v-.56h-.25v.56ZM91.6,47.34h.25v-.56h-.25v.56ZM0,46.64h.25v-.56h-.25v.56ZM91.6,46.23h.25v-.56h-.25v.56ZM0,45.53h.25v-.56h-.25v.56ZM91.6,45.11h.25v-.56h-.25v.56ZM0,44.41h.25v-.56h-.25v.56ZM91.6,44h.25v-.56h-.25v.56ZM0,43.3h.25v-.56h-.25v.56ZM91.6,42.88h.25v-.56h-.25v.56ZM0,42.18h.25v-.56h-.25v.56ZM91.6,41.77h.25v-.56h-.25v.56ZM0,41.07h.25v-.56h-.25v.56ZM91.6,40.65h.25v-.56h-.25v.56ZM0,39.95h.25v-.56h-.25v.56ZM91.6,39.54h.25v-.56h-.25v.56ZM0,38.84h.25v-.56h-.25v.56ZM91.6,38.42h.25v-.56h-.25v.56ZM0,37.72h.25v-.56h-.25v.56ZM91.6,37.31h.25v-.56h-.25v.56ZM0,36.61h.25v-.56h-.25v.56ZM91.6,36.19h.25v-.56h-.25v.56ZM0,35.49h.25v-.56h-.25v.56ZM91.6,35.08h.25v-.56h-.25v.56ZM0,34.38h.25v-.56h-.25v.56ZM91.6,33.96h.25v-.56h-.25v.56ZM0,33.26h.25v-.56h-.25v.56ZM91.6,32.85h.25v-.56h-.25v.56ZM0,32.15h.25v-.56h-.25v.56ZM91.6,31.73h.25v-.56h-.25v.56ZM0,31.03h.25v-.56h-.25v.56ZM91.6,30.62h.25v-.56h-.25v.56ZM0,29.92h.25v-.56h-.25v.56ZM91.6,29.5h.25v-.56h-.25v.56ZM0,28.8h.25v-.56h-.25v.56ZM91.6,28.39h.25v-.56h-.25v.56ZM0,27.69h.25v-.56h-.25v.56ZM91.6,27.27h.25v-.56h-.25v.56ZM0,26.57h.25v-.56h-.25v.56ZM91.6,26.16h.25v-.56h-.25v.56ZM0,25.46h.25v-.56h-.25v.56ZM91.6,25.04h.25v-.56h-.25v.56ZM0,24.34h.25v-.56h-.25v.56ZM91.6,23.93h.25v-.56h-.25v.56ZM0,23.23h.25v-.56h-.25v.56ZM91.6,22.81h.25v-.56h-.25v.56ZM0,22.11h.25v-.56h-.25v.56ZM91.6,21.7h.25v-.56h-.25v.56ZM0,21h.25v-.56h-.25v.56ZM91.6,20.58h.25v-.56h-.25v.56ZM0,19.88h.25v-.56h-.25v.56ZM91.6,19.47h.25v-.56h-.25v.56ZM0,18.77h.25v-.56h-.25v.56ZM91.6,18.35h.25v-.56h-.25v.56ZM0,17.65h.25v-.56h-.25v.56ZM91.6,17.24h.25v-.56h-.25v.56ZM0,16.54h.25v-.56h-.25v.56ZM91.6,16.12h.25v-.56h-.25v.56ZM0,15.42h.25v-.56h-.25v.56ZM91.6,15.01h.25v-.56h-.25v.56ZM0,14.31h.25v-.56h-.25v.56ZM91.6,13.89h.25v-.56h-.25v.56ZM0,13.19h.25v-.56h-.25v.56ZM91.6,12.78h.25v-.56h-.25v.56ZM0,12.08h.25v-.56h-.25v.56ZM91.6,11.66h.25v-.56h-.25v.56ZM0,10.96h.25v-.56h-.25v.56ZM91.6,10.55h.25v-.56h-.25v.56ZM0,9.85h.25v-.56h-.25v.56ZM91.6,9.43h.25v-.56h-.25v.56ZM0,8.73h.25v-.56h-.25v.56ZM91.6,8.32h.25v-.56h-.25v.56ZM0,7.62h.25v-.56h-.25v.56ZM91.6,7.2h.25v-.56h-.25v.56ZM0,6.5h.25v-.56h-.25v.56ZM91.6,6.09h.25v-.56h-.25v.56ZM0,5.39h.25v-.56h-.25v.56ZM91.6,4.97h.25v-.56h-.25v.56ZM0,4.27h.25v-.56h-.25v.56ZM91.6,3.86h.25v-.56h-.25v.56ZM0,3.16h.25v-.56h-.25v.56ZM91.6,2.74h.25v-.56h-.25v.56ZM0,2.04h.25v-.56h-.25v.56ZM91.6,1.62h.25v-.56h-.25v.56ZM0,.93h.25V.37h-.25v.56ZM.33.14h.98v-.14H.33v.14ZM2.3.14h.99v-.14h-.99v.14ZM4.27.14h.98v-.14h-.98v.14ZM6.24.14h.98v-.14h-.98v.14ZM8.2.14h.99v-.14h-.99v.14ZM10.17.14h.98v-.14h-.98v.14ZM12.14.14h.98v-.14h-.98v.14ZM14.11.14h.99v-.14h-.99v.14ZM16.08.14h.98v-.14h-.98v.14ZM18.04.14h.98v-.14h-.98v.14ZM20.01.14h.99v-.14h-.99v.14ZM21.98.14h.98v-.14h-.98v.14ZM23.95.14h.98v-.14h-.98v.14ZM25.92.14h.99v-.14h-.99v.14ZM27.88.14h.98v-.14h-.98v.14ZM29.85.14h.98v-.14h-.98v.14ZM31.82.14h.99v-.14h-.99v.14ZM33.79.14h.98v-.14h-.98v.14ZM35.76.14h.98v-.14h-.98v.14ZM37.72.14h.99v-.14h-.99v.14ZM39.69.14h.98v-.14h-.98v.14ZM41.66.14h.98v-.14h-.98v.14ZM43.63.14h.99v-.14h-.99v.14ZM45.6.14h.98v-.14h-.98v.14ZM47.56.14h.98v-.14h-.98v.14ZM49.53.14h.99v-.14h-.99v.14ZM51.5.14h.98v-.14h-.98v.14ZM53.47.14h.98v-.14h-.98v.14ZM55.43.14h.99v-.14h-.99v.14ZM57.4.14h.98v-.14h-.98v.14ZM59.37.14h.98v-.14h-.98v.14ZM61.34.14h.99v-.14h-.99v.14ZM63.31.14h.98v-.14h-.98v.14ZM65.28.14h.98v-.14h-.98v.14ZM67.24.14h.99v-.14h-.99v.14ZM69.21.14h.98v-.14h-.98v.14ZM71.18.14h.98v-.14h-.98v.14ZM73.15.14h.99v-.14h-.99v.14ZM75.12.14h.98v-.14h-.98v.14ZM77.08.14h.98v-.14h-.98v.14ZM79.05.14h.99v-.14h-.99v.14ZM81.02.14h.98v-.14h-.98v.14ZM82.99.14h.98v-.14h-.98v.14ZM84.96.14h.99v-.14h-.99v.14ZM86.92.14h.98v-.14h-.98v.14ZM88.89.14h.98v-.14h-.98v.14ZM90.86,0v.14h.74v.37h.25v-.51h-.98Z"/>
      <path class="cls-9" d="M37.89,27.64s5.11,2.76,7.76,7.89l3.24-.11s-4.02-7.83-9.43-9.29l-1.57,1.51Z"/>
      <g class="cls-8">
        <g>
          <g>
            <path class="cls-4" d="M34.51,37.88l-.49-.73c-1.95-2.91-6.26-3.47-9.57-1.24l-12.62,8.48c-3.31,2.22-4.42,6.42-2.46,9.33l.49.73c1.95,2.91,6.26,3.47,9.57,1.24l12.62-8.48c3.31-2.22,4.42-6.42,2.46-9.33ZM18.81,54.39c-2.71,1.82-6.21,1.37-7.81-1.01l-.11-.16-.11-.16c-1.6-2.38-.7-5.79,2.01-7.61l12.37-8.31c2.71-1.82,6.21-1.37,7.81,1.01l.21.32c1.6,2.38.7,5.79-2.01,7.61l-12.37,8.31Z"/>
            <path class="cls-4" d="M22.25,51.19c-2.29,1.54-5.25,1.16-6.6-.86l-.29-.43c-1.35-2.01-.59-4.89,1.7-6.43l8.62-5.79c2.29-1.54,5.25-1.16,6.6.86l.29.43c1.35,2.01.59,4.89-1.7,6.43l-8.62,5.79Z"/>
            <path class="cls-4" d="M12.86,53.47c.68-.46.91-1.31.5-1.91s-1.28-.71-1.96-.25-.91,1.31-.5,1.91,1.28.71,1.96.25ZM11.33,52.93c-.26-.39-.11-.95.33-1.25s1.02-.22,1.28.17.11.95-.33,1.25-1.02.22-1.28-.17Z"/>
            <g>
              <path class="cls-4" d="M30.21,38.66c.15-.1.34-.07.43.06l1.01,1.51c.09.13.04.32-.11.42h0c-.15.1-.34.07-.43-.06l-1.01-1.51c-.09-.13-.04-.32.11-.42h0ZM18.18,46.57c0,.28-.15.57-.43.76-.24.16-.51.21-.75.15.24.06.52.01.75-.15.28-.18.43-.48.43-.76ZM20.87,42.48l.76,1.13-.32.22-.76-1.13.32-.22ZM16.29,46.42c.04-.24.18-.48.42-.64.28-.18.6-.22.86-.11-.26-.11-.59-.07-.86.11-.24.16-.38.4-.42.64ZM16.52,45.5c.41-.27.89-.31,1.27-.14-.38-.17-.87-.13-1.27.14-.36.24-.58.62-.61,1,.03-.37.24-.75.61-1ZM16.11,47.32s-.07.01-.09-.01,0-.06.02-.08.07-.01.09.01l-.42-.62.73-.09c.05-.12.14-.23.25-.31.3-.2.68-.15.85.11s.08.63-.22.83c-.12.08-.25.12-.38.12l-.36.64-.46-.69s0,.06-.02.08ZM16.79,47.8c.36.11.79.06,1.15-.19.41-.27.63-.71.61-1.13.02.42-.2.85-.61,1.13-.36.24-.79.3-1.15.19ZM21.45,46.12c-.4-.6-.18-1.45.5-1.91.42-.28.92-.35,1.33-.21l.48-.32c.38-.26.88-.19,1.11.14s.1.82-.29,1.08l-.48.32c-.03.43-.28.87-.7,1.16-.68.46-1.56.34-1.96-.25ZM18.62,50.42l1.07-.44-.32-.47.17.02.98-.11.45.67-.88.03.33.49-1.8-.19ZM24.28,48.25l-.76-1.13.32-.22.76,1.13-.32.22Z"/>
              <path class="cls-4" d="M26.76,42.55c-.26-.39-.11-.95.33-1.25s1.02-.22,1.28.17.11.95-.33,1.25-1.02.22-1.28-.17Z"/>
              <path class="cls-4" d="M27.55,42.23l-.27.18-.19-.28.27-.18c.01-.09.06-.18.15-.24.15-.1.34-.07.43.06s.04.32-.11.42c-.09.06-.19.07-.28.05Z"/>
              <path class="cls-4" d="M27.94,41.76c-.09-.13-.28-.15-.43-.06-.09.06-.14.15-.15.24l-.27.18.19.28.27-.18c.09.02.19,0,.28-.05.15-.1.2-.29.11-.42Z"/>
              <path class="cls-4" d="M21.88,45.83c-.26-.39-.11-.95.33-1.25.3-.2.67-.21.95-.09,0-.03,0-.09.03-.11l.77-.52c.24-.16.56-.12.71.09s.06.52-.18.69l-.77.52s-.07.02-.1,0c0,.31-.16.63-.46.83-.44.3-1.02.22-1.28-.17Z"/>
              <path class="cls-4" d="M22.57,45.58l-.27.18-.19-.28.27-.18c.01-.09.06-.18.15-.24.15-.1.34-.07.43.06s.04.32-.11.42c-.09.06-.19.07-.28.05Z"/>
              <path class="cls-4" d="M22.95,45.11c-.09-.13-.28-.15-.43-.06-.09.06-.14.15-.15.24l-.27.18.19.28.27-.18c.09.02.19,0,.28-.05.15-.1.2-.29.11-.42Z"/>
              <ellipse class="cls-4" cx="17.58" cy="46.26" rx=".06" ry=".06" transform="translate(-22.82 17.67) rotate(-33.9)"/>
              <path class="cls-4" d="M28.8,41.19c-.09-.14-.21-.25-.34-.33l.72-.49s.26-.08.45.21-.13.5-.13.5l.19.28s.7-.47.49-1.01c-.16-.41-.67-.47-.95-.36-.06.03-.17.08-.17.08l-.96.65c-.4-.1-.86-.03-1.25.24-.68.46-.91,1.31-.5,1.91s1.28.71,1.96.25.91-1.31.5-1.91Z"/>
            </g>
          </g>
          <g>
            <path class="cls-1" d="M34.24,45.49s2.43.08,3.26.08c1.13,0,2.13-.82,1.97-2.17-.16-1.33-3-1.52-3.61-1.54"/>
            <path class="cls-3" d="M34.24,45.49s2.43.08,3.26.08c1.13,0,2.13-.82,1.97-2.17-.16-1.33-3-1.52-3.61-1.54"/>
            <line class="cls-5" x1="20.37" y1="43.43" x2="18.85" y2="44.32"/>
            <line class="cls-5" x1="19.42" y1="45.3" x2="20.94" y2="44.41"/>
            <line class="cls-5" x1="22.28" y1="40.21" x2="22.28" y2="40.21"/>
            <polyline class="cls-5" points="18.67 44.22 18.73 44.32 18.85 44.32"/>
            <polyline class="cls-5" points="19.42 45.3 19.36 45.4 19.42 45.51"/>
            <path class="cls-9" d="M33.2,34.15s1.97,1.57,2.74,3.05l1.63-.31s-2.18-3.46-3.47-3.72l-.91.98Z"/>
            <path class="cls-9" d="M35.01,31.18s3.9,1.99,5.32,5.16l2.22-.19s-2.61-5.51-5.85-6.49l-1.7,1.53Z"/>
            <line class="cls-3" x1="29.62" y1="48.52" x2="30.1" y2="48.21"/>
            <path class="cls-3" d="M-14.91,55.63l4.81-.23s18.34,1.6,26.09,1.82"/>
            <path class="cls-1" d="M-14.22,34.68l4.84,1.18c1.82.25,12.26-.72,15.99.02l6.57,2.1c1.79.64,3.48,1.45,5.02,2.39,1.74,1.07,3.86,2.1,4.37,2.59.76.72-.76,4.1-3.24,3.39-2.35-.68-5.66-2.39-6.23-2.44,0,0-3.66-.21-4.79.32-1.11.52-2.45.84-2.45.84-1.23.36-4.8.79-9.02-.07"/>
            <path class="cls-3" d="M-14.22,34.68l4.84,1.18c1.82.25,12.26-.72,15.99.02l6.57,2.1c1.79.64,3.48,1.45,5.02,2.39,1.74,1.07,3.86,2.1,4.37,2.59.76.72-.76,4.1-3.24,3.39-2.35-.68-5.66-2.39-6.23-2.44,0,0-3.66-.21-4.79.32-1.11.52-2.45.84-2.45.84-1.23.36-4.8.79-9.02-.07"/>
            <path class="cls-3" d="M18.43,40.52s-.76.67-.78,1.01c-.02.35,3.18,2,3.76,2.29.59.3,1.18-.15,1.17-.86"/>
            <path class="cls-1" d="M30.07,48.92s-.17-1.52,1.02-2.32c1.19-.81,2.39-.66,2.72-.34.33.32.58,1,.34,2.65-.24,1.66-.77,2.08-.77,2.08,0,0-.76.79-1.88.95-.64.09-1.25.02-1.25.02"/>
            <path class="cls-3" d="M30.07,48.92s-.17-1.52,1.02-2.32c1.19-.81,2.39-.66,2.72-.34.33.32.58,1,.34,2.65-.24,1.66-.77,2.08-.77,2.08,0,0-.76.79-1.88.95-.64.09-1.25.02-1.25.02"/>
            <line class="cls-1" x1="16" y1="57.22" x2="21.94" y2="57.17"/>
            <line class="cls-3" x1="16" y1="57.22" x2="21.94" y2="57.17"/>
            <path class="cls-1" d="M25.45,54.44s2.32.12,3.38-.4,1.27-1.19,1.38-1.84c.12-.65-.03-2.96-.03-2.96,0,0-.09-.96-1.65-.92-1.95.05-2.23,2.96-2.23,2.96,0,0-.18,1.71-.3,1.81"/>
            <path class="cls-3" d="M25.45,54.44s2.32.12,3.38-.4,1.27-1.19,1.38-1.84c.12-.65-.03-2.96-.03-2.96,0,0-.09-.96-1.65-.92-1.95.05-2.23,2.96-2.23,2.96,0,0-.18,1.71-.3,1.81"/>
            <path class="cls-1" d="M21.94,57.17c1.31-.02,2.36-.2,3.06-1.07.25-.31,1.05-4.08,1.05-4.08,0,0-.09-1.26-1.52-1.26-1.58,0-2.13,1.69-2.13,1.69,0,0-1.01,2.53-1.26,3.9"/>
            <path class="cls-3" d="M21.94,57.17c1.31-.02,2.36-.2,3.06-1.07.25-.31,1.05-4.08,1.05-4.08,0,0-.09-1.26-1.52-1.26-1.58,0-2.13,1.69-2.13,1.69,0,0-1.01,2.53-1.26,3.9"/>
          </g>
        </g>
        <g>
          <g>
            <polyline class="cls-6" points="76.74 15.05 76.74 15.05 76.73 15.05 76.73 15.06 76.72 15.06 76.72 15.06 76.71 15.06 76.71 15.07 76.7 15.07 76.7 15.08 76.7 15.08 76.7 15.08 76.69 15.09 76.69 15.09"/>
            <polyline class="cls-6" points="77.56 15.14 77.56 15.14 77.56 15.13 77.56 15.13 77.55 15.12 77.55 15.12 77.55 15.11 77.55 15.11 77.54 15.11 77.54 15.1 77.53 15.1 77.53 15.1 77.52 15.1 77.52 15.1"/>
            <polyline class="cls-6" points="77.39 10.9 77.39 10.91 77.39 10.91 77.39 10.92 77.39 10.93 77.4 10.94 77.4 10.95 77.4 10.96 77.41 10.97 77.41 10.97 77.42 10.98 77.43 10.99 77.43 11 77.44 11.01 77.45 11.01 77.45 11.02 77.46 11.03 77.47 11.03 77.48 11.03 77.49 11.04 77.5 11.05 77.51 11.05 77.52 11.06 77.53 11.06 77.54 11.07 77.55 11.07 77.57 11.07 77.58 11.08 77.59 11.08 77.6 11.08 77.61 11.08 77.63 11.08"/>
            <polyline class="cls-6" points="77.63 11.08 77.64 11.09 77.65 11.09 77.66 11.09 77.67 11.09 77.69 11.09 77.69 11.08 77.7 11.08 77.72 11.08 77.73 11.08 77.74 11.08 77.75 11.07 77.76 11.07 77.77 11.07 77.78 11.06 77.79 11.06 77.8 11.05 77.81 11.05 77.82 11.04 77.83 11.04 77.83 11.03 77.84 11.03 77.85 11.02 77.86 11.02 77.86 11.01 77.87 11 77.87 10.99 77.88 10.99 77.88 10.98 77.89 10.97 77.89 10.96 77.89 10.95"/>
            <polyline class="cls-6" points="77.93 10 77.94 10 77.94 10 77.95 10 77.95 10.01 77.96 10.01 77.96 10.01 77.97 10.01"/>
            <line class="cls-6" x1="77.01" y1="16" x2="77.01" y2="16"/>
            <line class="cls-6" x1="77.01" y1="16" x2="77.01" y2="16"/>
            <line class="cls-6" x1="78.91" y1="7.83" x2="78.92" y2="8.49"/>
            <line class="cls-6" x1="78.92" y1="8.7" x2="78.92" y2="9.09"/>
            <line class="cls-6" x1="78.92" y1="9.23" x2="78.91" y2="9.33"/>
            <line class="cls-6" x1="78.73" y1="10.03" x2="78.64" y2="10.04"/>
            <line class="cls-6" x1="77.01" y1="16" x2="77.01" y2="16"/>
            <line class="cls-6" x1="77.44" y1="9.63" x2="77.9" y2="9.97"/>
            <line class="cls-6" x1="77.4" y1="15.09" x2="77.42" y2="14.96"/>
            <line class="cls-6" x1="76.97" y1="14.91" x2="76.95" y2="15.07"/>
            <polyline class="cls-6" points="76.74 15.05 76.75 15.05 76.75 15.05 76.75 15.06 76.76 15.06 76.76 15.06 76.77 15.06 76.77 15.06 76.78 15.06 76.78 15.06 76.79 15.06 76.79 15.06 76.8 15.06 76.8 15.06 76.81 15.06 76.81 15.06 76.82 15.06 76.82 15.06 76.83 15.06 76.84 15.06 76.84 15.06 76.85 15.06 76.86 15.06 76.86 15.06 76.87 15.06 76.88 15.06 76.88 15.06 76.9 15.06 76.91 15.06 76.93 15.06 76.95 15.07 76.96 15.07 76.98 15.07 77 15.07 77.02 15.07 77.04 15.07 77.05 15.07 77.09 15.07 77.13 15.07 77.2 15.08 77.22 15.08 77.24 15.08 77.26 15.08 77.27 15.08 77.29 15.08 77.31 15.08 77.33 15.09 77.33 15.09 77.34 15.09 77.35 15.09 77.36 15.09 77.37 15.09 77.37 15.09 77.38 15.09 77.39 15.09 77.39 15.09 77.4 15.09 77.41 15.09 77.41 15.09 77.42 15.09 77.43 15.09 77.43 15.09 77.44 15.09 77.44 15.09 77.45 15.09 77.45 15.09 77.46 15.09 77.46 15.09 77.47 15.09 77.47 15.09 77.48 15.09 77.48 15.09 77.49 15.09 77.49 15.09 77.5 15.09 77.5 15.09 77.51 15.09 77.51 15.1 77.52 15.1"/>
            <line class="cls-6" x1="76.69" y1="15.09" x2="76.61" y2="15.7"/>
            <line class="cls-6" x1="77.55" y1="15.81" x2="77.56" y2="15.13"/>
            <polyline class="cls-6" points="77.42 14.96 77.42 14.88 77.43 14.81 77.44 14.74 77.45 14.66 77.46 14.59 77.46 14.52 77.47 14.48 77.47 14.45 77.48 14.41 77.48 14.38 77.48 14.34 77.49 14.31 77.49 14.27 77.49 14.24 77.5 14.2 77.5 14.17 77.5 14.16 77.51 14.14 77.51 14.13 77.51 14.11 77.51 14.09 77.51 14.08 77.51 14.06 77.52 14.05 77.52 14.03 77.52 14.02 77.52 14 77.52 13.99 77.52 13.97 77.53 13.96 77.53 13.95 77.53 13.93 77.53 13.9 77.53 13.88"/>
            <polyline class="cls-6" points="77.09 13.83 77.08 13.85 77.08 13.88 77.08 13.89 77.08 13.91 77.07 13.92 77.07 13.94 77.07 13.95 77.07 13.97 77.07 13.98 77.07 14 77.06 14.01 77.06 14.03 77.06 14.04 77.06 14.06 77.06 14.08 77.06 14.09 77.05 14.11 77.05 14.12 77.05 14.16 77.04 14.19 77.04 14.22 77.04 14.26 77.03 14.29 77.03 14.33 77.03 14.36 77.02 14.4 77.02 14.43 77.01 14.47 77.01 14.54 77 14.62 76.99 14.69 76.98 14.76 76.98 14.83 76.97 14.91"/>
            <polyline class="cls-6" points="77.53 13.88 77.6 13.29 77.67 12.71"/>
            <polyline class="cls-6" points="77.21 12.65 77.15 13.24 77.09 13.83"/>
            <line class="cls-6" x1="77.21" y1="12.65" x2="77.22" y2="12.64"/>
            <line class="cls-6" x1="77.67" y1="12.68" x2="77.67" y2="12.7"/>
            <line class="cls-6" x1="77.67" y1="12.69" x2="77.87" y2="11.02"/>
            <polyline class="cls-6" points="78.9 7.59 78.9 7.6 78.9 7.61 78.9 7.62 78.9 7.63 78.9 7.65 78.9 7.66 78.91 7.68 78.91 7.69 78.91 7.71 78.91 7.72 78.91 7.74 78.91 7.76 78.91 7.77 78.91 7.79 78.91 7.81 78.91 7.83"/>
            <polyline class="cls-6" points="77.72 10.42 77.73 10.42 77.75 10.42 77.77 10.42 77.79 10.42 77.8 10.42 77.82 10.42 77.84 10.42 77.85 10.42 77.87 10.42 77.89 10.42 77.9 10.42 77.92 10.41 77.94 10.41 77.95 10.41 77.97 10.41 77.99 10.41 78 10.41 78.02 10.4 78.04 10.4 78.05 10.39 78.07 10.39 78.08 10.39 78.1 10.38 78.11 10.38 78.13 10.37 78.14 10.36 78.16 10.36 78.17 10.35 78.19 10.35 78.19 10.34 78.2 10.34 78.21 10.34 78.21 10.33 78.22 10.33 78.23 10.32"/>
            <polyline class="cls-6" points="78.23 10.32 78.24 10.32 78.25 10.31 78.26 10.3 78.27 10.3 78.28 10.29 78.29 10.28 78.3 10.27 78.31 10.26 78.32 10.26 78.33 10.25 78.34 10.24 78.35 10.23 78.36 10.22 78.37 10.21 78.38 10.2 78.38 10.19 78.39 10.18 78.4 10.17 78.41 10.16 78.42 10.15 78.42 10.14 78.43 10.13 78.44 10.12 78.44 10.11 78.45 10.1 78.45 10.09 78.46 10.08 78.46 10.07 78.47 10.06 78.47 10.05 78.47 10.03 78.48 10.02"/>
            <polyline class="cls-6" points="77.03 9.81 77.03 9.82 77.03 9.84 77.03 9.85 77.03 9.87 77.03 9.88 77.03 9.9 77.03 9.91 77.04 9.93 77.04 9.94 77.04 9.96 77.05 9.97 77.05 9.99 77.06 10 77.07 10.01 77.07 10.03 77.08 10.04 77.09 10.06 77.09 10.07 77.1 10.08 77.11 10.1 77.12 10.11 77.13 10.12 77.13 10.13 77.15 10.15 77.16 10.16 77.17 10.17 77.18 10.18 77.19 10.2 77.2 10.2 77.2 10.21 77.21 10.21 77.22 10.22 77.22 10.22 77.23 10.23 77.24 10.23 77.24 10.24"/>
            <polyline class="cls-6" points="77.24 10.24 77.26 10.25 77.27 10.26 77.28 10.27 77.29 10.28 77.31 10.28 77.32 10.29 77.33 10.3 77.35 10.31 77.36 10.32 77.37 10.32 77.39 10.33 77.4 10.34 77.42 10.34 77.43 10.35 77.45 10.36 77.46 10.36 77.48 10.37 77.49 10.37 77.51 10.38 77.53 10.38 77.54 10.39 77.56 10.39 77.57 10.4 77.59 10.4 77.61 10.4 77.62 10.41 77.64 10.41 77.65 10.41 77.67 10.41 77.69 10.41 77.7 10.42 77.72 10.42"/>
            <line class="cls-6" x1="77.05" y1="9.4" x2="77.03" y2="9.81"/>
            <polyline class="cls-6" points="78.92 9.09 78.92 9.11 78.92 9.13 78.92 9.15 78.92 9.16 78.92 9.17 78.92 9.18 78.92 9.19 78.92 9.19 78.92 9.2 78.92 9.21 78.92 9.22 78.92 9.22 78.92 9.23 78.92 9.23"/>
            <line class="cls-6" x1="78.91" y1="7.83" x2="78.91" y2="7.83"/>
            <polyline class="cls-6" points="78.92 8.49 78.92 8.51 78.92 8.54 78.92 8.56 78.92 8.59 78.92 8.64 78.92 8.7"/>
            <polyline class="cls-6" points="78.91 9.33 78.9 9.35 78.9 9.37 78.9 9.39 78.9 9.41 78.9 9.43 78.9 9.45 78.9 9.47 78.9 9.48 78.89 9.5 78.89 9.52 78.89 9.53 78.89 9.55 78.89 9.56 78.89 9.57 78.89 9.57 78.89 9.58 78.89 9.59 78.89 9.59 78.89 9.6 78.88 9.61"/>
            <polyline class="cls-6" points="78.88 9.61 78.88 9.62 78.88 9.63 78.88 9.64 78.88 9.65 78.88 9.66 78.88 9.67 78.88 9.68 78.88 9.69 78.87 9.7 78.87 9.71 78.87 9.72 78.87 9.72 78.87 9.73 78.87 9.74 78.87 9.75 78.87 9.76 78.86 9.77 78.86 9.78 78.86 9.78 78.86 9.79 78.86 9.79 78.86 9.8 78.86 9.81 78.86 9.81 78.85 9.82 78.85 9.83 78.85 9.83 78.85 9.84 78.85 9.85 78.85 9.85 78.85 9.86 78.84 9.87 78.84 9.87 78.84 9.88 78.84 9.88 78.84 9.89 78.84 9.89 78.84 9.9 78.83 9.9 78.83 9.91 78.83 9.91 78.83 9.92 78.83 9.92 78.83 9.93 78.83 9.93 78.83 9.94 78.82 9.94 78.82 9.94 78.82 9.95 78.82 9.95 78.81 9.95 78.81 9.96 78.81 9.96 78.8 9.96"/>
            <polyline class="cls-6" points="76.02 8.57 76.04 8.59 76.06 8.61 76.08 8.62 76.1 8.64 76.11 8.66 76.13 8.68 76.15 8.7 76.17 8.72 76.19 8.73 76.21 8.75 76.23 8.77 76.24 8.79 76.26 8.81 76.28 8.82 76.3 8.84 76.32 8.86"/>
            <polyline class="cls-6" points="76.32 8.86 76.33 8.86 76.33 8.87 76.34 8.87 76.34 8.88 76.35 8.88 76.35 8.88 76.36 8.89 76.39 8.92 76.41 8.93 76.42 8.95 76.44 8.96 76.46 8.97 76.47 8.99 76.49 9 76.51 9.02 76.53 9.03 76.54 9.04 76.56 9.06 76.57 9.07 76.59 9.08"/>
            <polyline class="cls-6" points="76.59 9.08 76.61 9.1 76.62 9.11 76.64 9.12 76.66 9.13 76.67 9.15 76.69 9.15 76.7 9.16 76.72 9.17 76.73 9.19 76.75 9.2 76.76 9.21 76.78 9.22 76.79 9.23 76.81 9.24 76.82 9.25 76.83 9.26"/>
            <polyline class="cls-6" points="76.03 8.25 76.02 8.26 76.01 8.27 76.01 8.28 76 8.29 76 8.3 76 8.31 75.99 8.32 75.99 8.33 75.99 8.34 75.99 8.35 75.99 8.36 75.98 8.37 75.98 8.38 75.98 8.39 75.98 8.4 75.98 8.41 75.98 8.42 75.98 8.43 75.98 8.44 75.98 8.45 75.98 8.46 75.98 8.47 75.99 8.48 75.99 8.49 75.99 8.5 75.99 8.51 76 8.52 76 8.53 76.01 8.54 76.01 8.55 76.01 8.55 76.02 8.56 76.02 8.56 76.02 8.57"/>
            <polyline class="cls-6" points="78.67 5.98 78.68 6.02 78.69 6.07 78.7 6.11 78.71 6.16 78.72 6.21 78.73 6.25 78.74 6.3 78.75 6.35 78.76 6.4 78.76 6.44 78.77 6.49 78.78 6.54 78.79 6.59 78.8 6.64 78.8 6.69 78.81 6.74 78.82 6.79 78.83 6.84 78.83 6.89 78.83 6.94 78.84 6.99 78.85 7.05 78.85 7.1 78.86 7.15 78.86 7.21 78.87 7.26 78.88 7.31 78.88 7.36 78.89 7.42 78.89 7.47 78.9 7.53 78.9 7.59"/>
            <polyline class="cls-6" points="78.01 5.88 78 5.88 78 5.88 77.99 5.88 77.99 5.88 77.98 5.88 77.98 5.88 77.97 5.89 77.97 5.89 77.97 5.89 77.96 5.89"/>
            <polyline class="cls-6" points="77.96 5.89 77.93 5.92 77.9 5.95 77.87 5.98 77.84 6.01 77.8 6.04 77.77 6.07 77.74 6.11 77.71 6.14 77.68 6.17 77.64 6.21 77.61 6.24 77.58 6.27 77.55 6.31 77.51 6.34 77.48 6.38 77.45 6.41 77.41 6.45 77.38 6.48 77.35 6.52 77.31 6.55 77.28 6.59 77.25 6.63 77.22 6.66 77.19 6.69 77.15 6.73 77.13 6.77 77.1 6.8 77.06 6.84 77.03 6.88 77 6.91 76.97 6.95 76.94 6.99 76.91 7.02 76.88 7.06 76.85 7.1 76.81 7.14 76.78 7.18 76.75 7.21 76.72 7.25 76.69 7.29 76.66 7.32 76.63 7.36 76.6 7.4 76.57 7.44 76.55 7.48 76.52 7.52 76.49 7.56 76.46 7.6 76.44 7.64 76.41 7.68 76.38 7.72 76.35 7.76 76.32 7.8 76.3 7.84 76.27 7.88 76.24 7.92 76.21 7.96 76.19 8 76.16 8.04 76.13 8.08 76.11 8.13 76.08 8.17 76.05 8.21 76.03 8.25"/>
            <polyline class="cls-6" points="76.97 9.35 76.97 9.35 76.98 9.36 76.98 9.36 76.99 9.36 77 9.37 77 9.37 77.01 9.38 77.02 9.38"/>
            <line class="cls-6" x1="77.02" y1="9.38" x2="77.05" y2="9.4"/>
            <polyline class="cls-6" points="77.05 9.4 77.05 9.4 77.06 9.41 77.06 9.41 77.07 9.41 77.07 9.41 77.07 9.42 77.08 9.42 77.08 9.42 77.09 9.42 77.09 9.43 77.1 9.43 77.1 9.43 77.11 9.43 77.11 9.44 77.12 9.44 77.12 9.44 77.13 9.45 77.13 9.45 77.13 9.45 77.14 9.46 77.15 9.46 77.15 9.46 77.16 9.47 77.17 9.47 77.17 9.48 77.18 9.48 77.19 9.48 77.2 9.49 77.2 9.49 77.21 9.5 77.22 9.5 77.23 9.51 77.24 9.51 77.25 9.52 77.26 9.53 77.27 9.53 77.28 9.54 77.29 9.54 77.3 9.55 77.31 9.56 77.32 9.56 77.34 9.57 77.35 9.58 77.36 9.58 77.37 9.59 77.38 9.6 77.4 9.6 77.41 9.61 77.44 9.63"/>
            <polyline class="cls-6" points="76.83 9.26 76.84 9.26 76.85 9.27 76.86 9.27 76.86 9.28 76.87 9.28 76.88 9.29 76.88 9.29 76.89 9.29 76.89 9.3 76.9 9.3 76.9 9.3 76.91 9.31 76.91 9.31 76.92 9.31 76.92 9.32 76.93 9.32 76.93 9.32 76.94 9.33 76.94 9.33 76.95 9.34 76.95 9.34 76.96 9.34 76.97 9.35"/>
            <line class="cls-6" x1="78.59" y1="5.87" x2="78.01" y2="5.88"/>
            <polyline class="cls-6" points="78.66 5.95 78.67 5.96 78.67 5.96 78.67 5.97 78.67 5.97 78.67 5.98 78.67 5.98"/>
            <polyline class="cls-6" points="78.66 5.95 78.67 5.95 78.67 5.95 78.66 5.94 78.66 5.94 78.66 5.93 78.66 5.93 78.66 5.92 78.65 5.92 78.65 5.91 78.65 5.91 78.64 5.9 78.64 5.9 78.64 5.89 78.63 5.89 78.63 5.89 78.63 5.88 78.62 5.88 78.62 5.88 78.61 5.88 78.61 5.88 78.61 5.87 78.6 5.87 78.6 5.87 78.59 5.87 78.59 5.87"/>
            <polyline class="cls-6" points="78.07 10.02 78.06 10.02 78.05 10.02"/>
            <polyline class="cls-6" points="78.05 10.02 78.04 10.02 78.03 10.02 78.02 10.02 78.01 10.02 78 10.01 77.99 10.01 77.98 10.01 77.97 10.01"/>
            <line class="cls-6" x1="78.07" y1="10.02" x2="78.64" y2="10.04"/>
            <polyline class="cls-6" points="78.74 10.03 78.74 10.03 78.75 10.03 78.75 10.03 78.75 10.03 78.76 10.03 78.76 10.03 78.76 10.02 78.77 10.02 78.77 10.02 78.77 10.02 78.78 10.02 78.78 10.01 78.79 10.01 78.79 10 78.79 10 78.8 9.99 78.8 9.99 78.8 9.98 78.8 9.98 78.8 9.98 78.8 9.97 78.8 9.97 78.8 9.96"/>
            <line class="cls-6" x1="78.74" y1="10.03" x2="78.73" y2="10.03"/>
            <line class="cls-6" x1="78.8" y1="9.96" x2="78.8" y2="9.96"/>
            <polyline class="cls-6" points="77.93 10 77.93 10 77.93 9.99 77.92 9.99 77.92 9.99 77.91 9.99"/>
            <polyline class="cls-6" points="77.91 9.99 77.91 9.98 77.9 9.98 77.9 9.98 77.9 9.97"/>
            <line class="cls-6" x1="77.41" y1="10.96" x2="77.22" y2="12.64"/>
            <line class="cls-6" x1="77.22" y1="12.64" x2="77.21" y2="12.65"/>
            <line class="cls-6" x1="77.89" y1="10.95" x2="78.06" y2="10.39"/>
            <line class="cls-6" x1="77.37" y1="10.32" x2="77.39" y2="10.9"/>
            <line class="cls-6" x1="77.01" y1="16" x2="77.01" y2="16"/>
            <line class="cls-6" x1="77.01" y1="16" x2="77.01" y2="16"/>
          </g>
          <g>
            <path class="cls-6" d="M68.62,19.46c.58-.12,2.15-.44,2.42-.49.07-.02.12.04.09.12-.02.05-.06.07-.1.11-.04.04-.12.11-.21.19-.15.13-.37.34-.5.45-.06.05-.07.08-.12.1-.27.07-1.98.47-2.26.53-.02,0-.05,0-.08,0-.05,0-.16-.01-.11-.08"/>
            <path class="cls-6" d="M70.79,19.01c.06,0,.18-.03.21.02.02.03,0,.08-.03.1-.11.1-.53.49-.73.68-.05.04-.08.09-.15.1-.19.04-1.99.46-2.19.5-.03,0-.06,0-.09,0-.05,0-.11-.04-.08-.09.06-.07.22-.24.38-.42.11-.12.2-.22.3-.33.04-.04.05-.07.11-.1.03-.01.07-.03.1-.04"/>
            <path class="cls-6" d="M73.84,14.62c-.09-.02-.21,0-.31,0-.12,0-.26,0-.38.02-.06.01-.13.03-.18.06-.28.16-.78.46-1.12.66-.29.17-.63.37-.93.56-.51.34-1.07.71-1.59,1.06-.2.15-.51.36-.72.52-.14.11-.36.29-.51.41-.12.1-.26.24-.38.35-.15.14-.32.3-.48.44-.15.13-.29.28-.44.43-.15.15-.33.32-.48.49-.08.09-.15.16-.22.25-.21.25-.39.48-.58.72-.07.09-.15.19-.21.28-.02.03-.04.06-.05.09,0,0,0,0,0,.01-.01.05.01.07.03.07,0,0,.01,0,.02,0,.24-.06,1.9-.48,2.12-.54.04-.01.09-.04.13-.06.07-.04.08-.07.14-.13.1-.11.24-.26.35-.38.22-.23.39-.43.48-.52.04-.04.11-.08.16-.09.73-.15,2.04-.42,2.86-.57.18-.03.35-.04.53-.02.05,0,.1.01.15.02.05,0,.11.02.16,0,.19-.11.35-.26.53-.38.11-.08.22-.16.34-.23.15-.08.28-.17.43-.24.58-.28,1.17-.55,1.75-.79.14-.05.3-.11.43-.16.13-.05.28-.12.42-.16.19-.06.4-.13.58-.2.11-.04.17-.06.27-.1.08-.04.07-.14.05-.22-.01-.06-.04-.07-.08-.1-.22-.12-.53-.28-.74-.39-.32-.16-.7-.37-.92-.48-.23-.11-.47-.22-.7-.33-.15-.07-.33-.14-.49-.21-.05-.02-.13-.06-.19-.08-.08-.03-.12-.06-.18-.07h0Z"/>
            <path class="cls-6" d="M76.16,20.6c.07,0,.15.02.22.02.17.02.31.04.49.06.14.02.28-.01.25.19,0,1.09.16.74-.96,1.02-.48.11-.99.21-1.47.32-.3.08-.62.09-.89.27-.48.34-.77.87-1.06,1.37-.3.52-.55,1.05-.84,1.57-.11.21-.21.41-.31.62-.04.07-.07.18-.13.24-.02,0-.04,0-.08-.02-.8-.33-1.59-.73-2.38-1.09"/>
            <path class="cls-6" d="M77.16,16.46c.03.28,0,1.17,0,1.43-.02.05-.15.05-.21.07-.25.07-.52.09-.77.14-.5.11-1.02.19-1.53.27-.31.04-.62.06-.92.19-.33.14-.65.45-.6.84.01.13.02.28.08.4.08.14.2.26.32.37.33.23.8.23,1.19.27.12.01.24.02.36.04"/>
            <path class="cls-6" d="M73.71,18.61s-.02.08-.03.12c0,.04-.02.08-.02.11,0,.04.02.05.05.06.03.01.04.01.07.01.07,0,.16,0,.22.01.05,0,.21,0,.28,0,.05,0,.19-.03.26-.04.13-.04.37-.11.49-.14.03-.01.06-.03.1-.04.04-.02.09-.02.14-.03.02,0,.02,0,.03-.01.03-.03.1-.12.14-.16.02-.03.06-.04.09-.05.02-.01.04,0,.07,0,.02,0,.04.02.05.02.02,0,.04.02.06.01.02,0,.04-.02.05,0,.02.02.03.06.05.08.01.02.02.03.04.04.02,0,.05,0,.07,0,0,0,0,0,0-.02,0-.03-.02-.08-.02-.11,0-.02-.01-.03-.02-.05,0-.02-.03-.05-.03-.06,0-.02.03-.02.04-.01.05.01.1.03.15.06.02,0,.03.01.03.03.02.03.05.1.07.14.01.04.03.1.04.14,0,.04,0,.11,0,.17,0,.01,0,.02,0,.04-.02.08-.06.17-.08.26,0,.04-.04.07-.07.1-.01.01-.02.02-.02.04,0,.03,0,.09,0,.11,0,0,0,0,0,0,.02,0,.03-.02.05-.03.02-.01.02-.03.04-.05.01-.03.03-.07.04-.1.01-.02.05-.12.07-.17.01-.03.01-.03.02-.06,0-.03.02-.07.02-.11,0-.04,0-.11.01-.16,0-.05,0-.1,0-.15,0-.03,0-.03,0-.05-.01-.03-.03-.08-.04-.11-.01-.03-.04-.08-.05-.11-.01-.03-.04-.06-.06-.08-.03-.04-.08-.07-.13-.1"/>
            <path class="cls-6" d="M73.78,18.93s.04.05.06.07c.04.05.09.08.15.11.09.06.18.07.28.09.09.02.18.03.27.04.11,0,.24,0,.34-.01.09,0,.18-.03.27-.04.06,0,.1-.02.16-.01.12.03.37,0,.28.21-.09.2-.27.55-.37.8-.04.12-.16.39-.21.54-.02.06-.03.13-.07.17-.04.04-.11,0-.17,0-.1-.02-.2-.02-.3.01-.09.03-.17.08-.24.14-.04.04-.07.09-.1.15-.04.08-.06.17-.06.26,0,.12.02.24.09.33.05.06.1.12.16.15.06.03.1.05.16.05.1,0,.21,0,.31-.02.07-.02.16-.03.22-.07.09-.05.18-.13.26-.19.06-.05.09-.1.14-.15.14-.17.31-.36.44-.53.06-.09.17-.21.23-.3.03-.06.09-.13.1-.2.01-.12-.03-.24-.05-.36-.02-.13-.04-.25-.06-.37-.02-.12-.03-.22-.03-.34"/>
            <path class="cls-6" d="M73.78,18.94c.02.21.04.44.13.63.05.11.09.23.19.3.11.08.26.1.39.14.25.05.5.09.74.13"/>
            <polyline class="cls-6" points="75.4 18.71 75.44 18.66 75.52 18.59 75.62 18.55 75.68 18.55 75.75 18.55 75.79 18.57 75.8 18.61"/>
            <path class="cls-6" d="M74.94,18.79s.09,0,.13,0c.04,0,.09-.02.13-.02.07-.02.15-.02.22-.05.08-.03.16-.07.24-.1.06-.01.12-.02.18-.01.17,0,.16.09.18.23.02.08.02.16.02.24,0,.04,0,.07,0,.11,0,.03-.04.05-.07.03-.06-.04-.11-.1-.18-.12-.12-.02-.24-.04-.36-.03-.06,0-.14.02-.2,0-.12,0-.07-.09-.13-.16-.02-.02-.05-.02-.07,0-.03.02-.02.07,0,.1.02.04.06.06.1.07"/>
            <path class="cls-6" d="M75.97,18.65c-.1.09-.22.12-.35.15-.12.03-.25.06-.35.14-.04.03-.07.07-.1.1"/>
            <path class="cls-6" d="M76.7,19s.07.11.09.19c.04.16.01.31-.07.33s-.18-.1-.22-.26c-.02-.07-.02-.14-.01-.2"/>
            <path class="cls-6" d="M76.22,19.12c.14-.04.29-.07.43-.11.15-.05.21-.09.35.03.14.12.2.17.39.18h.01c.04.17.01.32-.07.34"/>
            <line class="cls-6" x1="76.69" y1="19.52" x2="77.34" y2="19.56"/>
            <polyline class="cls-6" points="76.15 19.26 76.26 19.33 76.35 19.91 76.12 20.06"/>
            <polyline class="cls-6" points="76.05 19.44 76.09 19.44 76.14 19.72 76.06 19.77"/>
            <path class="cls-6" d="M76.28,19.1s.4.57.4.57l.02.03h.17v.97"/>
            <line class="cls-6" x1="77.01" y1="19.54" x2="77.01" y2="20.69"/>
            <line class="cls-6" x1="76.36" y1="19.9" x2="76.87" y2="20.2"/>
            <line class="cls-6" x1="76.28" y1="18.08" x2="76.62" y2="18.77"/>
            <line class="cls-6" x1="76.64" y1="18.03" x2="77.03" y2="18.77"/>
            <polyline class="cls-6" points="76.59 18.77 76.68 18.77 76.81 18.77 77.07 18.77 77.17 18.79 77.27 18.85 77.36 18.89"/>
            <path class="cls-6" d="M79.23,20.24c-.13.04-.27.06-.42.06-.79,0-1.42-.65-1.42-1.46s.64-1.46,1.42-1.46c.63,0,1.16.42,1.35,1"/>
            <ellipse class="cls-6" cx="81.38" cy="20.19" rx="1.06" ry=".99" transform="translate(29.36 85.95) rotate(-65.59)"/>
            <path class="cls-6" d="M78.69,19.96c-.5-.23-.71-.84-.48-1.36s.84-.76,1.34-.54"/>
            <line class="cls-6" x1="79.54" y1="18.06" x2="81.78" y2="19.21"/>
            <line class="cls-6" x1="78.69" y1="19.96" x2="80.73" y2="21.03"/>
            <line class="cls-6" x1="77.32" y1="19.57" x2="77.32" y2="20.2"/>
            <line class="cls-6" x1="77.51" y1="19.57" x2="77.51" y2="20.2"/>
            <line class="cls-6" x1="77.32" y1="20.19" x2="77.52" y2="20.19"/>
            <path class="cls-6" d="M73.77,14.59c-.09-.04-.18-.07-.27-.1-.08-.03-.14-.09-.2-.15-.06-.06-.12-.12-.18-.18-.13-.13-.29-.27-.43-.4-.1-.09-.21-.2-.31-.29-.07-.06-.16-.13-.22-.21-.04-.05-.09-.11-.13-.16-.03-.05-.06-.1-.11-.14-.09-.08-.23-.04-.32.02-.04.03-.07.06-.13.11-.07.07-.15.13-.22.2-.31.28-.63.55-1,.86-.21.18-.46.43-.68.63-.23.22-.53.51-.77.75-.07.06-.11.11-.18.18-.15.16-.33.34-.47.51-.18.2-.36.41-.54.61-.18.21-.39.44-.57.64-.24.29-.49.61-.72.91-.17.22-.37.48-.55.7-.04.05-.06.07-.09.13-.11.18-.3.43-.41.63-.05.09-.14.25-.21.36-.04.07-.07.12-.1.19-.05.12-.12.26-.17.38-.05.11-.08.23-.11.35-.04.13-.06.26-.06.39"/>
            <path class="cls-6" d="M64.64,21.52c.11.12.24.2.38.29.1.06.19.13.29.18.14.07.28.15.43.19.14.04.29.06.43.08.29.05.6.07.89.09.19.01.38.03.57.06.17.02.33.06.48.14.18.09.34.24.38.44.05.19.07.39.03.58-.02.11-.06.21-.09.31"/>
            <path class="cls-6" d="M70.38,20.14c.16.22.33.48.52.68.09.1.19.21.3.28.22.14.48.15.74.19.14.02.26.04.38.05.43.03,1.23.09,1.73.13"/>
            <polyline class="cls-6" points="75.4 21.59 76.48 21.63 77.1 21.61"/>
            <polyline class="cls-6" points="64.66 21.52 65.28 21.34 67.84 20.68 69.27 20.37 70.32 20.17 70.42 20.12 71.82 18.77"/>
            <line class="cls-6" x1="78.12" y1="20.12" x2="77.08" y2="20.73"/>
            <path class="cls-6" d="M79.9,20.59s0,.72,0,.72l-.05.03-1.54.21-.5.02-.69.03"/>
            <polyline class="cls-6" points="71.48 26.27 74.4 27.65 75.07 27.96 75.22 27.73 76.84 24.48 77.6 22.71 78.12 21.59"/>
            <polyline class="cls-6" points="73.57 14.5 73.7 14.5 73.95 14.57 74.39 14.73 75 14.96 75.84 15.3 76.38 15.52 76.82 15.7 76.97 15.74"/>
            <polygon class="cls-6" points="77.75 15.98 78.51 16.33 78.74 16.37 79.04 16.44 79.28 16.54 79.52 16.66 79.62 16.74 79.81 16.89 79.88 16.97 79.93 17.03 80 16.83 79.99 16.78 79.49 16.38 79.34 16.28 79.27 16.2 79.21 16.13 79.17 16.06 79.11 16.02 78.67 15.78 78.36 15.79 78.18 15.99 78.09 15.95 77.77 15.96 77.75 15.98"/>
            <polyline class="cls-6" points="78.36 15.8 78.77 16.09 79.17 16.07"/>
            <polyline class="cls-6" points="78.76 16.09 78.6 16.25 78.52 16.33"/>
            <path class="cls-6" d="M71.88,18.71c.16-.14.32-.31.48-.44.08-.06.16-.1.24-.16.11-.07.23-.15.35-.22.14-.09.29-.16.44-.25.17-.09.31-.18.49-.26.59-.27,1.18-.55,1.78-.79.14-.06.31-.13.43-.18.09-.03.18-.07.27-.09.21-.04.41-.05.63-.05.17,0,.32,0,.49.02.16.01.31.02.47.07.19.04.4.08.58.14.08.02.16.05.24.08.16.05.32.13.47.19.11.05.21.1.3.16.14.09.27.2.4.31.12.1.23.21.32.34.22.3.31.67.37,1.03"/>
            <path class="cls-6" d="M76.95,15.76c.16,0,.32-.01.48.01.04,0,.09.02.12.04.03.03.02.06-.02.09-.04.03-.11.03-.16.03-.17,0-.34-.03-.5-.07-.11-.03-.21-.08-.32-.11-.02,0-.04-.01-.05-.02-.02,0-.03-.01-.03-.01,0,0,.03,0,.04,0,.11,0,.31.02.42.03"/>
            <polyline class="cls-6" points="77.58 15.85 77.75 15.89 77.97 15.92 78.21 15.95"/>
            <polyline class="cls-6" points="76.79 15.83 77.16 15.82 77.43 15.82 77.53 15.82 77.54 15.81"/>
            <path class="cls-6" d="M74.89,28.46c-.35-.19-1-.47-1.39-.66-.11-.05-.23-.11-.35-.11-.2,0-.42.17-.64.25-.35.16-.74.29-1.07.49-.19.12-.38.27-.53.43-.23.27-.44.61-.64.9-.27.4-.34.58-.6,1.02-1.1,1.95-2.31,3.97-2.97,5.17-.26.69.35.7.87.7.45,0,.97.02,1.44.02.8.01,1.51.02,2.31.06.3,0,.29-.13.2-.36-.02-.06-.02-.09,0-.13.2-.46,1.38-3.13,2.29-5.2.38-.85.82-1.86,1.1-2.49.01-.03.02-.06,0-.08h0Z"/>
            <path class="cls-6" d="M72.31,34.25c.23-.57.94-2.31,1.14-2.81.22-.57.85-1.96.98-2.38.01-.07,0-.18-.05-.25-.04-.09-.13-.12-.26-.18-.13-.05-.29-.13-.43-.19-.24-.1-.39-.18-.57-.24-.18-.05-.37.02-.54.1-.33.16-.78.3-1.09.51-.25.17-.49.36-.68.6-.17.22-.4.5-.56.73-.7,1.19-1.69,2.88-2.33,3.98-.2.36-.47.76-.62,1.12-.08.18-.06.4.08.54.17.14.44.13.63.17.38.06,1.08.16,1.34.2.12.02.2.02.34.03.31,0,.66.05.96.03.09-.01.15-.09.17-.18.06-.2.17-.58.23-.76.2-.59,1.94-4.5,2.62-6.11.02-.05.02-.09-.03-.13-.1-.09-.26-.15-.39-.2-.32-.12-.57-.28-.84-.48"/>
            <path class="cls-6" d="M74.96,28.41c-1.04,2.46-2.21,5.23-3.25,7.7-.12.37.06.69-.09,1.06-.04.12-.09.22-.14.34-.3.67-.52,1.18-.81,1.88-.44,1.05-.9,2.1-1.12,2.65-.3.73-.49,1.53-.4,2.34.12,1.18.65,4.08.93,5.92.07.42.13.92.19,1.37.18,1.28.76,4.48,1.14,6.76.16.86.19,1.19.31,1.95.07.37.13.79.33,1.12.2.31.49.56.79.75.37.23.88.24,1.31.3"/>
            <path class="cls-6" d="M68.55,23.95c.18.52.36,1.1.54,1.62.19.5.38.97.53,1.48.19.65.54,1.24.29,1.91-.09.24-.22.47-.35.74-.5,1.01-1.82,3.19-2.72,4.77-.66,1.13-1.56,2.77-2.33,4.13-.32.57-1.68,2.93-2.31,4.04-.24.44-.51.93-.69,1.41-.07.19-.14.39-.18.58-.06.38-.04.81,0,1.2.03.43.21.85.42,1.21,1.18,1.94,3.29,5.38,5.45,8.92,1.57,2.58,3.08,4.93,4.4,7.2.19.31.41.67.69.9.2.17.44.21.69.22"/>
            <path class="cls-6" d="M62.24,61.87c.34.49.74,1.11,1.08,1.59.25.35.47.65.7,1.04.27.44.54.96.83,1.39.16.23.34.47.47.72.11.23.18.53.24.76.07.25.05.47.06.74.03,2-.07,3.78-.16,6,0,.14-.04.34.06.36.22.05.53,0,.77,0,.47-.03.86-.04,1.29-.17.23-.07.45-.21.67-.33.3-.17.51-.3.85-.43.79-.32,1.57-.67,2.36-.94,2.14-.75,4.33-1.42,6.52-2.03,2.72-.72,5.39-1.41,8.13-2.12,1.01-.24,2.37-.51,3.44-.76,2.15-.51,4.49-1.1,6.68-1.51.51-.09,1.18-.1,1.67-.34.24-.11.37-.35.5-.57.27-.5.54-.99.83-1.48.2-.33.53-.91.73-1.24.09-.15.21-.35.06-.49-.09-.09-.27-.2-.4-.27-.12-.06-.21-.13-.34-.12-1.01.1-5.63.53-7.43.7-2.59.29-13.16,1.48-17.22,1.89-.45.04-1.19.01-1.66.02"/>
            <path class="cls-6" d="M52.55,46.19c-.87.38-3.34,1.38-4.25,1.77-.35.15-.7.29-.84.35-.14.06-.31.08-.36.27-.06.27.07.54.28.71.19.12.4.18.61.24.35.08.85.2,1.21.29.57.13,1.24.33,1.84.46.81.16,1.69.34,2.49.58.3.09.58.2.87.33.17.1.38.26.55.38.17.11.28.25.41.4.15.16.26.28.39.47.73.92,1.37,1.91,2.11,2.98,1.35,1.93,3.04,4.47,4.37,6.48"/>
            <path class="cls-6" d="M47.14,48.95c1.82.06,3.7.09,5.52.24,1.3.12,2.62.1,3.76.79.47.3.87.65,1.22,1.09.24.29.53.72.73.99,1,1.47,5.12,7.46,6.95,10.17.31.49.7,1.06.98,1.58.3.56.56,1.14.58,1.78.06,1.12-.1,2.25-.25,3.36-.16,1.06-.31,2.09-.45,3.16-.1.85-.29,1.51-.47,2.31"/>
            <line class="cls-6" x1="62.27" y1="61.84" x2="71.1" y2="62.38"/>
            <path class="cls-6" d="M66.65,36.35c-1.19,2.09-3.56,6.25-4.25,7.48-.25.45-.41.94-.39,1.47,0,.65.06,1.3.43,1.86,2.81,4.67,7.02,11.51,8.98,14.75.18.32.35.52.64.78.27.25.56.4.89.53"/>
            <polyline class="cls-6" points="58.72 35.59 62.27 33.1 66.64 30.06 69.28 28.18 69.88 27.82"/>
            <path class="cls-6" d="M48.07,41.39l2.03-2.31,2.37-2.72,1.44-1.48,8.55-7.3,2.18-1.67,2.36-1.68.34-.26,1.14-.02c-.09-.04-.17-.07-.27-.08-.37-.03-1.52-.13-1.85-.15-.06,0-.11-.01-.16.02-.77.6-1.75,1.36-2.54,1.98-1.82,1.47-3.87,3.18-5.31,4.41-.92.79-2.22,1.86-3.16,2.7-.47.49-1.25,1.31-1.78,1.86-.61.67-1.89,2.14-2.29,2.58-.51.67-1.46,1.94-1.78,2.36-.58.81-1.65,2.23-2,2.76-.12.21-.39.62-.51.84-.01.03-.02.05-.02.07,0,.03,0,.06.01.08.05.04.12-.02.17-.05.62-.57,1.28-1.13,1.93-1.68.48-.41,1.24-1.06,1.52-1.29.53-.37,1.31-.93,1.74-1.22.69-.44,1.89-1.24,2.34-1.52,1.11-.63,2.16-1.22,3.2-1.76.21-.1.48-.24.68-.32.05-.02.1-.05.15-.02,0,0,0,0,0,.02.02.07-.08.28-.12.38-.28.52-1.43,2.19-1.93,2.99-.23.44-2.05,3.79-2.69,5.02-.44.9-1.1,2.25-1.48,3.04-.1.21-.24.42-.36.64"/>
            <polyline class="cls-6" points="64.28 25.2 64.14 25.2 61.24 27.53 61.24 27.7"/>
            <path class="cls-6" d="M46.8,43.83l-.02.03-.14.29s.17.17.22.17.49,0,.49,0l3.42-2.62,2.39-1.72,2.83-1.79,1.07-.63.32-.17.49-.79-.51-.05-.53.13-2.69,1.53-1.49,1.02-2.15,1.57-1.3,1.03-.8.65-.94.84-.41.39-.25.11Z"/>
            <path class="cls-6" d="M46.67,44.18s.28,0,.28,0l2.13-1.86,2.05-1.58,2.13-1.45,1.83-1.17,1.46-.87.88.06"/>
            <line class="cls-6" x1="56.88" y1="36.68" x2="56.58" y2="37.25"/>
            <polyline class="cls-6" points="47.28 44.34 47.31 44.53 46.77 44.76 46.59 44.65 46.31 44.32 46.31 44.15 46.41 43.96 46.72 43.55 46.9 43.38"/>
            <polyline class="cls-6" points="46.68 44.76 46.42 44.82 47.7 47.84 47.31 48.36"/>
            <path class="cls-6" d="M47.36,44.43s2.23-1.21,2.25-1.16c0,0,0,.02,0,.04-.09.44-1.07,3.96-1.07,3.96l4.24-1.2"/>
            <polyline class="cls-6" points="49.65 43.32 50.52 43.38 49.09 46.94 53.1 45.42"/>
            <polyline class="cls-6" points="70.45 36.72 67.94 44.18 63.82 47.59 63.51 47.69 63.51 48.11 72.08 62.68"/>
            <polyline class="cls-6" points="70.09 50.37 70.28 50.81 70.47 50.99 70.75 51.18 70.89 51.25 72.07 59.13 71.79 59.37 71.72 59.52 71.66 59.9"/>
            <path class="cls-6" d="M74,30.69c0,.18,0,.35.03.52.02.13.09.32.09.44-.15.43-1.42,3.47-1.58,3.89-.04.07-.09.07-.19.12-.27.11-.51.25-.64.52"/>
            <path class="cls-6" d="M74.11,31.7c.13.13.33.25.24.43-.23.55-1.11,2.7-1.35,3.25-.09.12-.26.08-.41.09"/>
            <polyline class="cls-6" points="74.2 62.55 73 62.88 72.95 64.28"/>
            <polyline class="cls-6" points="74.24 62.55 83.41 61.76 91.02 61.11 95.15 60.69"/>
            <path class="cls-6" d="M73.05,63.21c.78.05,1.26,0,2.09-.05.41-.03.84-.05,1.22-.08,4.13-.42,10.54-1.05,16.48-1.64.45-.06,1.07-.15,1.8-.25,1.43-.21,3.89-.44,5.9-.66,1.8-.14,4.25-.33,6.38-.54.37-.03.55-.05.92-.1.22-.03.51-.05.66-.17.2-.16.29-.4.38-.63"/>
            <path class="cls-6" d="M66.89,74.34c.79-1.12,1.58-2.25,2.45-3.33.6-.75,1.23-1.45,1.89-2.15.85-.89,1.72-1.79,2.74-2.5.66-.46,1.41-.82,2.15-1.16.99-.47,1.98-.94,2.97-1.43"/>
            <path class="cls-6" d="M66.87,74.4c.78-.43,1.57-.84,2.37-1.23.66-.31,1.56-.63,2.2-.9.86-.31,2.44-.84,3.13-1.08,1.45-.44,3.47-1.09,4.61-1.39,2.31-.56,6.86-1.71,8.65-2.16,1.49-.35,3.17-.72,4.7-1.04,1.4-.35,3.02-.73,4.38-1.03.62-.11.9-.7,1.2-1.2.35-.58.91-1.53,1.17-1.96.13-.28.43-.26.72-.29"/>
            <path class="cls-6" d="M67.72,74.24s.05.07.12.08c.03,0,.06,0,.09,0,1.28-.11,5.72-.49,6.77-.57,2.84-.22,6.69-.47,9.59-.75.32-.03.66,0,.98-.09.36-.1.62-.34,1-.45.23-.07.47-.11.7-.16.57-.1,1.29-.18,1.83-.31,1.43-.38,2.9-.93,4.3-1.44.52-.18,1.03-.43,1.56-.59.33-.08.59-.08.95-.12.5-.05,1.03-.11,1.53-.16.44-.04.67-.08,1.06-.15.32-.05.66-.12.99-.08.39.04.74.3.92.63.2.36.2.8.12,1.2-.02.15-.11.32-.1.43,0,.05.06.06.17.05,3.51-.27,7.74-.54,11.08-.8.43-.04.88-.09,1.23-.37.26-.2.44-.41.61-.7,1.05-1.71,3.54-5.71,4.2-6.83.65-1.08,1.44-2.53,2.09-3.46"/>
            <path class="cls-6" d="M68.3,74.29c.53-.25,1.03-.46,1.59-.66.64-.22,1.16-.41,1.79-.55,1.34-.31,3.2-.74,4.63-1.05.89-.19,1.84-.42,2.72-.57,1.31-.21,2.61-.42,3.92-.63.94-.15,1.93-.35,2.86-.52,1.81-.31,3.87-.65,5.73-.94,2.53-.38,5.02-.75,7.6-1.13,1.22-.19,2.51-.31,3.74-.62.66-.15,1.3-.45,1.75-.97.42-.49.81-1.11,1.19-1.66.9-1.34,1.76-2.74,2.56-4.15"/>
            <path class="cls-6" d="M84.29,72.93c.03-.64,0-1.53.65-1.88.33-.15.61-.21.98-.27.43-.07.97-.16,1.33-.21,1.72-.27,6.16-.94,7.77-1.15"/>
            <path class="cls-6" d="M85.21,72.93c.17-.33.36-.61.73-.72.58-.2,1.2-.24,1.82-.36.36-.06.67-.11,1.04-.19.3-.06.63-.19.93-.29.43-.15.87-.31,1.31-.46.38-.12.75-.22,1.11-.37.56-.22,1.1-.42,1.67-.63.39-.15.75-.34,1.12-.48"/>
            <path class="cls-6" d="M65.64,74.51c.11.07.23.14.35.19.2.09.43.07.66.07,1.75-.02,3.74-.05,5.43-.05,2.95-.02,6.79,0,9.83-.07,3.26-.09,6.7-.23,9.93-.36,2.07-.09,4.27-.21,6.29-.26,1.08-.03,2.02-.11,3.1-.13,1.61-.02,3.26-.17,4.86-.25.7-.03,1.44-.06,2.11-.09.48-.03,1.05,0,1.47-.26.38-.27.53-.69.78-1.11.22-.4.45-.8.65-1.17"/>
            <line class="cls-6" x1="84.7" y1="71.27" x2="85.52" y2="72.46"/>
            <path class="cls-6" d="M83.9,73.03c-.08.47-.05.8-.08,1.18,0,.08,0,.16.05.21.1.08.26.11.38.15"/>
            <line class="cls-6" x1="90.61" y1="71.43" x2="93.96" y2="71.43"/>
            <polyline class="cls-6" points="93.89 72.93 89.55 72.93 85.58 72.93"/>
            <g>
              <circle class="cls-6" cx="47.48" cy="71.74" r=".7"/>
              <path class="cls-6" d="M46.86,70.2c-.61.25-1.04.84-1.04,1.54,0,.14.02.27.05.4l.09.24.07.17.04.05"/>
              <path class="cls-6" d="M47.45,73.4c-.59-.01-1.11-.33-1.39-.8"/>
              <path class="cls-6" d="M47.95,73.34c-.15.04-.3.07-.47.07-.01,0-.02,0-.03,0"/>
              <path class="cls-6" d="M48.95,72.52c-.21.39-.57.69-1,.82"/>
              <path class="cls-6" d="M49.14,71.9c-.02.22-.09.43-.19.62"/>
              <path class="cls-6" d="M48.88,71.91c-.05.4-.27.76-.58.98"/>
              <path class="cls-6" d="M46.07,71.72c0-.46.23-.86.58-1.12"/>
              <path class="cls-6" d="M49.46,73.95c-.53.47-1.22.76-1.98.76-1.64,0-2.97-1.33-2.97-2.97s1.33-2.97,2.97-2.97c.02,0,.05,0,.07,0"/>
              <path class="cls-6" d="M49.58,74.26c-.57.47-1.3.76-2.09.76-1.81,0-3.27-1.47-3.27-3.27s1.47-3.27,3.27-3.27c.07,0,.15,0,.22,0"/>
              <path class="cls-6" d="M51.8,74.65c-.94,1.38-2.52,2.29-4.31,2.29-2.87,0-5.2-2.33-5.2-5.2,0-2.54,1.82-4.65,4.22-5.11"/>
              <path class="cls-6" d="M54.06,74.2c-1,2.66-3.56,4.56-6.57,4.56-3.88,0-7.02-3.14-7.02-7.02,0-3.3,2.28-6.07,5.34-6.82"/>
              <path class="cls-6" d="M55.56,68.08c.51,1.12.79,2.35.79,3.66,0,4.89-3.97,8.86-8.86,8.86s-8.86-3.97-8.86-8.86c0-4.07,2.75-7.5,6.49-8.54"/>
              <path class="cls-6" d="M52.44,64.4c1.08.73,1.99,1.69,2.66,2.82"/>
              <path class="cls-6" d="M58.78,67.85c.42,1.22.65,2.53.65,3.89,0,6.6-5.35,11.95-11.95,11.95s-11.95-5.35-11.95-11.95c0-4.16,2.12-7.82,5.34-9.96"/>
              <path class="cls-6" d="M60.12,68.26c.3,1.11.47,2.27.47,3.48,0,7.24-5.87,13.11-13.11,13.11s-13.11-5.87-13.11-13.11c0-3.92,1.72-7.44,4.45-9.84"/>
              <circle class="cls-6" cx="47.48" cy="71.74" r=".43"/>
              <path class="cls-6" d="M55.77,52.6l.03.11-.62.24.16.65-.61.25.16.66-.63.25.15.64s-.62.24-.62.26.16.66.16.66l-.6.24.17.68-.66.24-.56,1.16"/>
              <path class="cls-6" d="M57.63,55.13l.06.22-.62.27.18.65-.61.26s.18.64.17.65-.62.27-.62.27l.17.62-.65.27.21.67-.59,1.14"/>
              <path class="cls-6" d="M54.75,53.86c.96.53,1.94,1.03,2.93,1.5"/>
              <path class="cls-6" d="M55.18,52.94c.49.27.99.54,1.49.79"/>
              <path class="cls-6" d="M55.32,53.58c.67.37,1.35.73,2.04,1.07"/>
              <path class="cls-6" d="M54.88,54.51c.72.38,1.45.75,2.18,1.1"/>
              <path class="cls-6" d="M54.4,55.4c.72.38,1.5.79,2.24,1.14"/>
              <path class="cls-6" d="M53.95,56.31c.72.38,1.51.8,2.24,1.15"/>
              <path class="cls-6" d="M53.52,57.24c.72.38,1.45.75,2.18,1.1"/>
              <path class="cls-6" d="M54.28,54.77c.96.53,1.94,1.03,2.93,1.5"/>
              <path class="cls-6" d="M53.81,55.68c.98.54,1.98,1.05,2.98,1.52"/>
              <path class="cls-6" d="M53.36,56.57c.98.54,1.98,1.06,2.98,1.54"/>
              <path class="cls-6" d="M52.84,57.49c1,.55,2.03,1.07,3.06,1.55"/>
              <path class="cls-6" d="M45.13,63.19c.45,1.04.85,2.07,1.25,3.1.04.11.07.18.12.29.17.33.31.68.48.96.04.06.07.12.12.17.05.06.11.11.17.16.09.08.18.16.27.22.07.05.15.08.23.12h.05c.78-1.55,1.8-3.49,2.48-4.88"/>
              <path class="cls-6" d="M50.3,63.34c.22-.45.41-.85.54-1.15.09-.21.16-.45.25-.68.06-.16.08-.35.11-.53.06-.33.14-.71.22-1.1.02-.09.03-.15.05-.23.06-.19.18-.61.25-.81.12-.33.99-2.71,1.3-3.57.09-.17.22-.38.31-.55.06-.14,0-.23-.17-.22h-.02c-.43.02-.87.07-1.3.11-.7.06-1.51.09-2.16.16-.63.09-1.48.2-2.09.29-.54.11-1.4.29-1.9.39-.7.15-1.6.43-2.26.6-.47.15-1.03.36-1.51.52-.22.07-.38.19-.58.32-.17.11-.36.23-.53.35-.14.09-.23.16-.37.27-.33.28-.8.67-1.11.93-.65.6-1.47,1.45-2.09,2.05-.22.21-.37.37-.56.58-.14.16-.35.39-.5.55-.11.12-.2.26-.26.41l.02.04c2.42-.18,6.07-.39,8.13-.47.08,0,.19.03.27.08.1.06.16.17.2.27.2.42.39.83.57,1.25"/>
              <path class="cls-6" d="M55.06,68.77s-.01.07-.01.11c0,.06.02.17.06.22h0c.12.15.59.5.59.5l.21,1.29c-.05.08-.11.17-.16.26-.08.13-.17.28-.21.35-.04.06-.1.16-.09.23v.07s.4.67.4.67l-.23,1.32c-.07.06-.16.13-.23.2-.12.1-.26.21-.32.27-.06.05-.1.14-.11.21,0,.04,0,.08.01.12.03.2.11.62.13.72.01.05-.01.07-.04.12-.13.23-.43.79-.58,1.05-.01.02-.03.02-.06.03-.11.04-.46.17-.63.24-.04.02-.07.02-.1.04-.05.03-.14.1-.16.16h0c-.07.18-.15.76-.15.76l-1.02.82c-.09,0-.2,0-.3,0-.16,0-.33,0-.41-.01-.08,0-.17.04-.22.08-.03.03-.05.06-.07.1-.11.17-.33.53-.39.63-.02.05-.06.05-.11.07-.25.09-.84.31-1.13.41-.02,0-.04,0-.06-.01-.11-.04-.46-.17-.63-.24-.04-.01-.07-.03-.11-.04-.07,0-.11,0-.17.06l-.54.48-1.31.03c-.07-.06-.16-.13-.24-.19-.12-.1-.26-.21-.32-.26-.06-.05-.15-.07-.22-.07-.04,0-.07.02-.12.04-.19.07-.59.22-.69.26-.05.02-.07,0-.13-.01-.26-.08-.86-.27-1.14-.37-.02-.01-.03-.03-.04-.05-.06-.1-.26-.41-.36-.57-.02-.03-.04-.06-.06-.09-.04-.04-.12-.12-.18-.13h0c-.19-.03-.78,0-.78,0l-1-.85c-.01-.09-.03-.2-.05-.3-.03-.15-.05-.33-.07-.41-.01-.08-.07-.16-.12-.2-.03-.03-.07-.03-.11-.05-.19-.07-.59-.22-.69-.26-.05-.02-.06-.05-.09-.09-.14-.23-.47-.77-.61-1.03,0-.02,0-.04,0-.06.02-.12.08-.48.11-.67,0-.04.01-.07.02-.11,0-.07-.04-.17-.1-.22l-.49-.51-.24-1.29c.04-.08.1-.18.15-.26.08-.14.16-.29.2-.36.04-.06.04-.16.03-.23,0-.04-.03-.07-.05-.11-.1-.17-.32-.54-.37-.63-.03-.04-.02-.07,0-.13.04-.27.12-.89.17-1.19,0-.02.03-.03.04-.05.09-.08.37-.32.51-.45.03-.03.06-.05.08-.08.03-.04.09-.14.1-.2h0c0-.19-.13-.76-.13-.76l.67-1.13c.08-.03.19-.07.29-.1.15-.05.31-.11.39-.14.07-.02.14-.09.18-.15.02-.04.02-.07.03-.12.04-.2.12-.61.14-.72,0-.05.04-.06.08-.1.21-.17.68-.59.92-.78.02,0,.04,0,.06,0,.12,0,.49,0,.68,0,.04,0,.07,0,.11,0,.07-.02.16-.06.2-.14.08-.16.27-.52.34-.65l1.2-.45.15.05"/>
              <path class="cls-6" d="M52.19,64.9l.19-.02,1.01.83c.02.09.04.2.05.3.03.15.06.33.07.41.01.08.07.15.12.2.03.03.07.03.11.05.19.07.59.21.69.25.05.01.06.04.09.09.08.13.23.36.36.59"/>
              <circle class="cls-6" cx="40.69" cy="67.8" r=".46"/>
              <circle class="cls-6" cx="40.69" cy="75.66" r=".46"/>
              <circle class="cls-6" cx="47.49" cy="79.58" r=".46"/>
              <circle class="cls-6" cx="54.32" cy="75.66" r=".46"/>
              <path class="cls-6" d="M53.84,67.7c.04-.2.21-.36.43-.37.26-.02.47.18.49.43"/>
              <g>
                <path class="cls-6" d="M42.98,65.41h0c-.07-.08-.2-.09-.29-.02l-.63.55c-.08.07-.09.2-.02.29.07.08.2.09.29.02l.63-.55c.08-.07.09-.2.02-.29Z"/>
                <path class="cls-6" d="M40.01,69.79h0c-.11-.02-.22.05-.24.16l-.15.83c-.02.11.05.22.16.24.11.02.22-.05.24-.16l.15-.83c.02-.11-.05-.22-.16-.24Z"/>
                <path class="cls-6" d="M39.79,72.44h0c-.11.02-.19.13-.17.24l.15.83c.02.11.13.19.24.17.11-.02.19-.13.17-.24l-.15-.83c-.02-.11-.13-.19-.24-.17Z"/>
                <path class="cls-6" d="M42.07,77.25h0c-.07.09-.06.22.03.29l.64.54c.09.07.22.06.29-.03.07-.09.06-.22-.03-.29l-.64-.54c-.09-.07-.22-.06-.29.03Z"/>
                <path class="cls-6" d="M44.27,78.77h0c-.04.11.02.22.13.26l.79.28c.11.04.22-.02.26-.13.04-.11-.02-.22-.13-.26l-.79-.28c-.11-.04-.22.02-.26.13Z"/>
                <path class="cls-6" d="M45.45,64.26h0c-.04-.11-.16-.16-.26-.12l-.79.29c-.11.04-.16.16-.12.26.04.11.16.16.26.12l.79-.29c.11-.04.16-.16.12-.26Z"/>
              </g>
              <g>
                <path class="cls-6" d="M51.99,65.41h0c.07-.08.2-.09.29-.02l.63.55c.08.07.09.2.02.29-.07.08-.2.09-.29.02l-.63-.55c-.08-.07-.09-.2-.02-.29Z"/>
                <path class="cls-6" d="M54.96,69.79h0c.11-.02.22.05.24.16l.15.83c.02.11-.05.22-.16.24-.11.02-.22-.05-.24-.16l-.15-.83c-.02-.11.05-.22.16-.24Z"/>
                <path class="cls-6" d="M55.18,72.44h0c.11.02.19.13.17.24l-.15.83c-.02.11-.13.19-.24.17-.11-.02-.19-.13-.17-.24l.15-.83c.02-.11.13-.19.24-.17Z"/>
                <path class="cls-6" d="M52.9,77.25h0c.07.09.06.22-.03.29l-.64.54c-.09.07-.22.06-.29-.03-.07-.09-.06-.22.03-.29l.64-.54c.09-.07.22-.06.29.03Z"/>
                <path class="cls-6" d="M50.7,78.77h0c.04.11-.02.22-.13.26l-.79.28c-.11.04-.22-.02-.26-.13-.04-.11.02-.22.13-.26l.79-.28c.11-.04.22.02.26.13Z"/>
              </g>
              <circle class="cls-6" cx="45.94" cy="65.82" r=".19"/>
              <circle class="cls-6" cx="44.46" cy="66.41" r=".19"/>
              <circle class="cls-6" cx="43.52" cy="66.54" r=".19"/>
              <circle class="cls-6" cx="44.04" cy="67.22" r=".19"/>
              <circle class="cls-6" cx="43.17" cy="67.41" r=".19"/>
              <circle class="cls-6" cx="42.33" cy="67.83" r=".19"/>
              <circle class="cls-6" cx="43.03" cy="68.31" r=".19"/>
              <circle class="cls-6" cx="52.68" cy="75.7" r=".19"/>
              <circle class="cls-6" cx="51.98" cy="75.23" r=".19"/>
              <circle class="cls-6" cx="51.84" cy="76.11" r=".19"/>
              <circle class="cls-6" cx="51.46" cy="76.97" r=".19"/>
              <circle class="cls-6" cx="50.95" cy="76.3" r=".19"/>
              <circle class="cls-6" cx="42.19" cy="68.69" r=".19"/>
              <circle class="cls-6" cx="41.46" cy="69.29" r=".19"/>
              <circle class="cls-6" cx="42.25" cy="69.6" r=".19"/>
              <circle class="cls-6" cx="41.59" cy="70.17" r=".19"/>
              <circle class="cls-6" cx="41.84" cy="71" r=".19"/>
              <circle class="cls-6" cx="41.02" cy="70.88" r=".19"/>
              <circle class="cls-6" cx="41.4" cy="71.72" r=".19"/>
              <circle class="cls-6" cx="42.19" cy="74.77" r=".19"/>
              <circle class="cls-6" cx="44.39" cy="77.02" r=".19"/>
              <circle class="cls-6" cx="47.51" cy="77.87" r=".19"/>
              <circle class="cls-6" cx="50.59" cy="77.02" r=".19"/>
              <circle class="cls-6" cx="52.8" cy="74.77" r=".19"/>
              <g>
                <circle class="cls-6" cx="41.02" cy="72.6" r=".19"/>
                <circle class="cls-6" cx="41.59" cy="73.31" r=".19"/>
                <circle class="cls-6" cx="41.84" cy="72.5" r=".19"/>
                <circle class="cls-6" cx="42.21" cy="73.92" r=".19"/>
                <circle class="cls-6" cx="41.46" cy="74.23" r=".19"/>
              </g>
              <g>
                <circle class="cls-6" cx="42.33" cy="75.68" r=".19"/>
                <circle class="cls-6" cx="43.17" cy="76.03" r=".19"/>
                <circle class="cls-6" cx="43" cy="75.2" r=".19"/>
                <circle class="cls-6" cx="44.01" cy="76.26" r=".19"/>
                <circle class="cls-6" cx="43.5" cy="76.9" r=".19"/>
              </g>
              <g>
                <circle class="cls-6" cx="44.96" cy="77.75" r=".19"/>
                <circle class="cls-6" cx="45.86" cy="77.62" r=".19"/>
                <circle class="cls-6" cx="45.3" cy="76.99" r=".19"/>
                <circle class="cls-6" cx="46.7" cy="77.4" r=".19"/>
                <circle class="cls-6" cx="46.58" cy="78.21" r=".19"/>
              </g>
              <g>
                <circle class="cls-6" cx="48.39" cy="78.21" r=".19"/>
                <circle class="cls-6" cx="49.08" cy="77.62" r=".19"/>
                <circle class="cls-6" cx="48.27" cy="77.39" r=".19"/>
                <circle class="cls-6" cx="49.67" cy="76.98" r=".19"/>
                <circle class="cls-6" cx="50.01" cy="77.73" r=".19"/>
              </g>
              <circle class="cls-6" cx="45.02" cy="65.7" r=".19"/>
              <circle class="cls-6" cx="45.31" cy="66.46" r=".19"/>
              <g>
                <path class="cls-6" d="M43.71,68.12c.05.14.11.26.16.4.07.2.12.43.2.62.1.23.27.46.51.57.09.04.19.06.29.06"/>
                <path class="cls-6" d="M43.11,68.96c.13.47.26,1.01.42,1.49.17.51.27,1.08-.26,1.4-.29.17-.66.15-.99.16"/>
                <path class="cls-6" d="M42.39,72.67c.32,0,.68,0,1,0,.45,0,.72.05,1.06.36"/>
                <path class="cls-6" d="M42.33,72.27c.17-.01.35-.02.51-.04.06,0,.14-.02.2-.03.11-.01.2-.05.3-.09.16-.08.3-.2.4-.35.09-.14.16-.29.19-.46,0-.11.03-.19,0-.3-.14-.49-.44-1.56-.65-2.3"/>
                <path class="cls-6" d="M43.57,68.31c.07.21.17.5.24.72.06.19.13.37.25.54.12.15.3.26.43.41.05.06.08.14.1.22"/>
                <path class="cls-6" d="M43.35,68.58c.12.43.49,1.77.62,2.21.05.14.17.23.31.26"/>
                <path class="cls-6" d="M42.34,72.46c.32,0,.85,0,1.23,0,.09,0,.16,0,.27-.01.09,0,.19-.02.26-.07.05-.03.1-.08.14-.13"/>
              </g>
              <g>
                <path class="cls-6" d="M42.88,74.2c.15,0,.28-.02.43-.02.21,0,.44.03.65,0,.25-.02.52-.12.7-.3.07-.07.11-.16.15-.25"/>
                <path class="cls-6" d="M43.49,75.05c.49.02,1.04.07,1.54.07.54,0,1.11.08,1.25.69.07.33-.06.67-.16.99"/>
                <path class="cls-6" d="M46.77,76.91c.1-.3.21-.64.32-.95.13-.42.28-.67.68-.89"/>
                <path class="cls-6" d="M46.37,76.83c.04-.16.09-.34.12-.5.01-.05.03-.14.04-.2.02-.11.02-.21,0-.32-.02-.18-.09-.35-.2-.48-.1-.13-.23-.25-.38-.33-.1-.04-.18-.09-.29-.09-.51-.02-1.62-.08-2.39-.11"/>
                <path class="cls-6" d="M43.01,74.4c.22,0,.53,0,.76,0,.2,0,.4,0,.59-.07.18-.06.34-.2.53-.27.08-.03.16-.03.24-.03"/>
                <path class="cls-6" d="M43.2,74.7c.44.02,1.84.09,2.29.11.15,0,.27-.09.35-.21"/>
                <path class="cls-6" d="M46.56,76.89c.1-.3.27-.8.39-1.17.03-.09.05-.16.07-.26.02-.09.04-.19.02-.27-.01-.06-.05-.12-.08-.17"/>
              </g>
              <g>
                <path class="cls-6" d="M47.16,67.81c-.35.19-.72.26-1.08-.04-.25-.23-.34-.58-.45-.9"/>
                <path class="cls-6" d="M45.03,67.17c.09.3.2.65.3.95.14.42.17.7-.03,1.12"/>
                <path class="cls-6" d="M45.4,66.99c.06.16.12.32.2.48.02.05.06.13.09.18.05.1.11.18.18.26.12.13.28.22.45.27.16.05.33.07.5.04.1-.02.19-.03.28-.1.07-.04.15-.1.24-.16"/>
                <path class="cls-6" d="M47.42,68.04s-.08.05-.11.07c-.12.09-.17.23-.16.37"/>
                <path class="cls-6" d="M45.22,67.06c.1.3.25.81.37,1.17.03.09.05.15.1.25.03.08.08.18.15.23.05.04.11.07.16.1"/>
              </g>
              <g>
                <path class="cls-6" d="M48.46,76.87c.03-.14.06-.28.1-.42.06-.2.15-.41.19-.62.05-.25.04-.53-.08-.76-.05-.08-.12-.15-.2-.22"/>
                <path class="cls-6" d="M49.44,76.53c.14-.41.32-.86.47-1.29"/>
                <path class="cls-6" d="M49.78,74.89c-.19.53-.44,1.23-.63,1.76"/>
                <path class="cls-6" d="M48.69,76.79c.06-.21.15-.51.22-.72.06-.19.11-.38.11-.59,0-.19-.09-.39-.11-.58,0-.08.02-.16.05-.24"/>
                <path class="cls-6" d="M49.03,76.7c.13-.37.52-1.44.71-1.98"/>
              </g>
              <circle class="cls-6" cx="51.83" cy="67.43" r=".19"/>
              <circle class="cls-6" cx="52.67" cy="67.74" r=".19"/>
              <path class="cls-6" d="M51.48,66.35c.1,0,.18.09.18.19,0,.11-.09.19-.19.19-.06,0-.12-.03-.15-.07"/>
              <path class="cls-6" d="M51.11,67.02s.07.09.07.15c0,.11-.09.19-.19.19-.02,0-.05,0-.07-.01"/>
              <path class="cls-6" d="M50.84,67.68c.23.22.47.44.68.67.15.17.25.36.35.55"/>
              <polyline class="cls-6" points="51.64 66.07 51.97 66.37 52.46 66.83 52.84 67.19 53.14 67.54 53.35 67.96 53.46 68.14"/>
              <path class="cls-6" d="M44.81,70.45c.07-.03.14-.06.2-.02.12.08.26.24.37.32.09.07.2.02.26-.06.05-.06.14-.21.2-.24.06-.01.1.06.14.09.05.05.13.13.17.17"/>
              <path class="cls-6" d="M46.92,68.83c-.11.25-.27.74-.33.93-.02.05-.06.07-.11.1-.04.03-.1.06-.14.1-.09.08-.03.16.05.23.06.05.12.12.17.17"/>
              <path class="cls-6" d="M46.48,70.41c-.09-.09-.3-.31-.38-.38-.01-.01-.03-.03-.05-.02-.05.03-.09.09-.13.14-.02.03-.05.05-.05.08,0,.02.02.03.03.05.08.08.25.25.35.34"/>
              <g>
                <path class="cls-6" d="M45.34,73.82c0-.08,0-.15.05-.19.12-.08.31-.16.43-.23.09-.06.09-.18.04-.27-.04-.07-.14-.2-.15-.27.01-.06.09-.07.13-.1.07-.03.16-.07.22-.1"/>
                <path class="cls-6" d="M44.57,71.28c.2.19.6.51.75.64.04.04.04.08.06.14.01.05.02.12.04.16.04.11.14.08.23.04.07-.03.16-.07.22-.1"/>
                <path class="cls-6" d="M45.9,72.25c-.12.05-.39.17-.49.22-.02,0-.04.02-.04.04.01.05.06.12.08.17.02.03.03.06.06.08.02,0,.04,0,.05-.01.1-.05.32-.15.44-.2"/>
              </g>
              <g>
                <path class="cls-6" d="M48.87,74.34c-.08-.02-.15-.03-.17-.1-.05-.13-.07-.34-.11-.48-.03-.11-.15-.14-.25-.11-.08.02-.23.09-.3.07-.05-.02-.05-.1-.06-.16-.01-.07-.03-.17-.04-.24"/>
                <path class="cls-6" d="M46.22,74.43c.24-.14.65-.45.81-.56.05-.03.09-.02.15-.02.05,0,.12,0,.17,0,.12,0,.11-.11.09-.21-.01-.08-.03-.17-.04-.24"/>
                <path class="cls-6" d="M47.5,73.4c.02.13.07.42.08.53,0,.02,0,.04.03.05.05,0,.13-.03.18-.04.04-.01.07-.01.09-.04,0-.02,0-.04,0-.06-.02-.11-.06-.35-.09-.47"/>
              </g>
              <path class="cls-6" d="M49.89,64.17c.05.12.09.26.04.38-.11.22-.48.96-.59,1.17-.07.15-.19.25-.37.25"/>
              <polyline class="cls-6" points="48.44 67.17 46.29 71.23 46 71.93 45.9 72.15"/>
              <path class="cls-6" d="M46.01,72.46c.09.08.18.16.27.23.18.13.4.23.6.33.38.2.75.4,1.17.2.14-.06.21-.18.27-.32.04-.08.08-.17.13-.27.11-.22.22-.46.31-.66"/>
              <path class="cls-6" d="M54.04,60.7c-1.32,2.62-4.56,8.9-5.95,11.66-.13.26-.29.4-.6.39-.29-.02-.64-.18-.82-.41-.1-.13-.18-.37-.14-.51,1.33-2.62,4.8-9.44,6.02-11.85"/>
              <path class="cls-6" d="M50.36,63.19c.12-.02.26-.09.35-.18.11-.22.68-1.42,1.03-2.13.1-.21.18-.37.21-.44.02-.04.02-.08.03-.14.03-.21.02-.46.05-.67.02-.12.11-.26.17-.37l2.59,1.3h0c-.06.13-.13.26-.22.35-.22.2-.49.36-.64.63-.14.24-.39.57-.11.79.07.06.15.09.22.14.07.04.13.09.19.14"/>
              <path class="cls-6" d="M53.84,63.38c-.1-.05-.22-.11-.33-.16-.13-.06-.27-.11-.4-.05-.03.02-.04.04-.05.07-.04.07-.07.14-.11.22-.48.95-1.93,3.73-2.11,4.11-.04.12,0,.3.07.41.11.18.29.35.4.54.12.21.14.5,0,.7-.11.16-.29.24-.48.26-.11.01-.21.01-.27.06-.08.07-.13.16-.18.25-.09.16-.19.32-.27.48-.15.27-.15.41,0,.68.19.34.06.71-.29.88-.37.18-.64-.09-1.03.13"/>
              <line class="cls-6" x1="52.28" y1="58.63" x2="55.34" y2="60.18"/>
              <polyline class="cls-6" points="52.45 58.75 52.37 58.97 54.93 60.26 55.06 60.03"/>
              <line class="cls-6" x1="52.41" y1="59.03" x2="52.28" y2="59.31"/>
              <line class="cls-6" x1="54.9" y1="60.25" x2="54.75" y2="60.55"/>
              <path class="cls-6" d="M52.08,59.52c.06.13.16.23.28.31.15.11.25.18.41.25.2.09.43.2.63.3.17.08.34.16.51.25.25.12.47.24.75.17"/>
              <path class="cls-6" d="M55,63.4s.35.37.35.38.37.47.37.47l.34.41"/>
              <path class="cls-6" d="M56.64,65.43c.26.37.62.87.87,1.26.09.14.2.29.3.44.04.06.08.11.12.17.07.08.14.18.23.24.12.08.24.15.38.2.17.07.39.16.55.22.24.08.74.22,1.04.32.48.16,1.06.36,1.57.51.12.03.29.08.41.12.12.04.31.15.29-.08"/>
              <path class="cls-6" d="M58.95,61.21c.3.48.6.99.88,1.48.46.78.9,1.58,1.28,2.39.13.29.26.6.38.9.16.41.29.82.44,1.22.17.53.32,1.07.46,1.61"/>
              <path class="cls-6" d="M56.35,57.96c.6.64,1.17,1.3,1.71,1.99"/>
              <path class="cls-6" d="M48.97,72.52c.25.78.66,1.98.88,2.6.03.07.06.15.1.21.11.2.38.28.6.21.2-.06.34-.22.48-.36.14-.14.29-.3.43-.44.06-.06.13-.08.2-.1.24-.05.85-.16,1.24-.24.27-.05.58-.11.86-.17.1-.02.24-.05.32-.09.13-.07.22-.19.28-.33.02-.05.05-.1.05-.15.02-.27.13-1.45.17-1.95,0-.31.03-.65,0-.98,0-.07,0-.13-.03-.2-.04-.13-.14-.26-.26-.32-.14-.07-.33-.15-.47-.21"/>
              <path class="cls-6" d="M50.06,71.7c0,.38,0,.76,0,1.13.02.22.06.45.11.67.07.29.07.55.45.51.22-.02.18-.25.29-.39.05-.07.14-.14.2-.2.15-.14.3-.31.44-.46.09-.09.14-.18.2-.29.05-.09.11-.18.15-.28.1-.22.16-.36.1-.6-.03-.13-.09-.25-.15-.38-.06-.13-.12-.26-.2-.38-.1-.15-.17-.26-.28-.39-.09-.11-.2-.24-.28-.36-.07-.11-.04-.27-.16-.35-.1-.06-.23-.06-.33-.02-.12.07-.14.23-.18.35-.08.25-.16.52-.26.76"/>
              <path class="cls-6" d="M51.62,70.98c-.01.12-.02.28-.03.41,0,.06,0,.15-.02.19-.02.05-.06.1-.12.11-.13.01-.29-.02-.41.03-.06.03-.12.07-.14.14-.04.11-.02.24.05.33.17.22.52.09.56.25.01.08,0,.18,0,.27,0,.11,0,.24-.01.34"/>
              <circle class="cls-6" cx="51.58" cy="72.02" r=".24"/>
              <path class="cls-6" d="M54.2,68.55s.09.07.15.08c.08,0,.14-.09.18-.16"/>
              <path class="cls-6" d="M53.99,68.95c.09.04.18.08.28.09.26.05.48-.12.6-.34"/>
              <path class="cls-6" d="M54.03,68.97c-.08-.06-.11-.18-.05-.28.06-.11.19-.16.28-.11"/>
              <path class="cls-6" d="M54.43,68.28l.76-1.16.23.21.25.18.23.09-.78,1.09c-.04.06-.22.02-.4-.09s-.3-.26-.26-.32"/>
              <polyline class="cls-6" points="55.22 67.12 55.32 66.7 55.67 65.74 56.21 64.36 56.52 63.68 56.89 62.84 57.54 61.55"/>
              <polyline class="cls-6" points="58.24 61.88 57.54 63.34 56.84 64.95 56.42 65.98 55.92 67.54"/>
              <g>
                <polygon class="cls-6" points="54.82 63.08 54.55 62.91 54.26 63.05 54.25 63.37 54.52 63.54 54.8 63.4 54.82 63.08"/>
                <circle class="cls-6" cx="54.53" cy="63.23" r=".46"/>
              </g>
              <g>
                <polygon class="cls-6" points="51.12 68.73 50.85 68.56 50.57 68.71 50.56 69.02 50.82 69.2 51.11 69.05 51.12 68.73"/>
                <circle class="cls-6" cx="50.84" cy="68.88" r=".46"/>
              </g>
              <g>
                <polygon class="cls-6" points="49.45 63.01 49.15 62.82 48.84 62.99 48.82 63.34 49.12 63.53 49.44 63.37 49.45 63.01"/>
                <circle class="cls-6" cx="49.14" cy="63.18" r=".52"/>
              </g>
              <g>
                <polygon class="cls-6" points="48.03 65.78 47.73 65.59 47.42 65.75 47.4 66.11 47.7 66.3 48.02 66.14 48.03 65.78"/>
                <circle class="cls-6" cx="47.72" cy="65.94" r=".52"/>
              </g>
              <g>
                <polygon class="cls-6" points="49.9 71.13 49.63 70.96 49.35 71.11 49.34 71.43 49.6 71.6 49.89 71.45 49.9 71.13"/>
                <circle class="cls-6" cx="49.62" cy="71.28" r=".46"/>
              </g>
              <path class="cls-6" d="M50.84,67.58c-.07.15-.15.3-.19.45-.02.05-.03.11-.06.16-.04.1-.14.14-.23.2-.15.1-.21.29-.2.46,0,.08.03.18.04.26,0,.06-.05.12-.08.18-.2.38-.55,1.13-.69,1.34-.02.02-.07.03-.11.04-.12.04-.25.13-.33.23-.11.14-.09.33-.07.49.01.07.03.14,0,.21-.04.1-.11.23-.16.33"/>
              <polyline class="cls-6" points="51.42 68.72 51.6 68.97 51.9 68.91 52.18 68.86 52.56 68.72 52.97 68.61 53.25 68.72"/>
              <polyline class="cls-6" points="54.17 69.15 54.17 69.23 53.69 70.21 53.11 70.78"/>
              <path class="cls-6" d="M53.84,69.11s-.66,1.59-.67,1.6"/>
              <polyline class="cls-6" points="53.35 68.88 52.66 70.44 52.72 70.74 52.71 71.54 52.67 72.18 52.65 72.69 52.62 73.15 52.55 73.44 52.54 73.52"/>
              <path class="cls-6" d="M53.07,70.81c.2,0,.45.02.66.03.12,0,.12,0,.17.13.06.17.13.34.2.51.03.07.05.14.08.19.03.08.05.12.05.2,0,.14-.01.44-.02.6,0,.05,0,.08-.02.12-.12.22-.38.67-.53.93-.02.02-.03.03-.05.04-.25,0-.89-.03-1.21-.03-.16,0-.36.01-.53.01"/>
              <line class="cls-6" x1="53.75" y1="67.71" x2="53.66" y2="67.94"/>
              <line class="cls-6" x1="53.93" y1="67.79" x2="53.84" y2="68.03"/>
              <line class="cls-6" x1="54.35" y1="67.94" x2="54.25" y2="68.2"/>
              <line class="cls-6" x1="54.53" y1="68.02" x2="54.43" y2="68.26"/>
              <path class="cls-6" d="M53.34,68.76c-.04-.06-.06-.13-.06-.21,0-.18.12-.34.28-.38"/>
              <line class="cls-6" x1="53.61" y1="67.93" x2="54.44" y2="68.3"/>
              <line class="cls-6" x1="53.5" y1="68.03" x2="54.49" y2="68.45"/>
              <line class="cls-6" x1="53.54" y1="68.18" x2="54.33" y2="68.5"/>
              <line class="cls-6" x1="53.24" y1="68.72" x2="54.17" y2="69.15"/>
              <line class="cls-6" x1="52.84" y1="68.65" x2="54.17" y2="69.22"/>
              <line class="cls-6" x1="53.57" y1="68.07" x2="53.54" y2="68.2"/>
              <line class="cls-6" x1="54.37" y1="68.42" x2="54.28" y2="68.59"/>
              <line class="cls-6" x1="53.64" y1="67.93" x2="53.54" y2="68.05"/>
              <line class="cls-6" x1="53.74" y1="67.68" x2="54.56" y2="68.06"/>
              <path class="cls-6" d="M54.71,63.94s.01-.03.02-.04c.02-.04.09-.15.19-.33.19-.33.39-.82.61-1.19.4-.7.78-1.36.85-1.48.05-.07.14-.15.24-.15.04,0,.07,0,.1.02.14.08,1.06.57,1.42.76.22.12.39.21.44.24.02.02.03-.02.05-.03.08-.14.35-.64.42-.76,0-.02,0-.02,0-.03-.03-.02-.13-.07-.26-.14-.47-.27-1.36-.77-1.53-.86-.03-.02-.04-.02-.09-.03-.08-.02-.2-.07-.29-.09-.08-.02-.17-.02-.25-.03-.07,0-.15.01-.22.02-.08,0-.14.01-.21.05-.1.05-.23.08-.31.16-.09.08-.17.15-.24.25-.04.05-.1.13-.13.17-.42.71-1.51,2.73-1.65,2.98-.01.02,0,.03,0,.07,0,.08-.06.19-.07.24,0,.02.01.04.04.05.15.07.6.31.75.37.02,0,.03,0,.04-.02.04-.05.11-.08.1-.16l.02-.03Z"/>
              <rect class="cls-6" x="58.01" y="60.21" width="1.23" height=".17" transform="translate(33.34 -19.91) rotate(26.7)"/>
              <rect class="cls-6" x="57.31" y="61.53" width="1.23" height=".17" transform="translate(33.86 -19.45) rotate(26.7)"/>
              <polyline class="cls-6" points="58.05 60.41 58.17 60.16 59 60.57 58.87 60.83"/>
              <path class="cls-6" d="M59.32,57.61s-.29.74-.29.74l-.43.96-.32.72"/>
              <polyline class="cls-6" points="59.87 58.34 59.56 59.1 59.21 59.87 58.97 60.37"/>
              <path class="cls-6" d="M53.36,54.55c.09.13.09.28.07.43-.01.11,0,.23.03.35.02.09.03.19.06.27.05.15.2.25.33.34"/>
              <circle class="cls-6" cx="49.13" cy="63.18" r=".63"/>
              <circle class="cls-6" cx="47.72" cy="65.96" r=".63"/>
              <path class="cls-6" d="M36.52,62.04c1.15-1.01,2.31-2.04,3.49-3.03.53-.43,1.08-.9,1.65-1.28.45-.3.93-.52,1.43-.74.48-.2,1.01-.35,1.51-.48.71-.18,1.29-.31,2.06-.44,1.1-.19,2.4-.44,3.5-.62.95-.14,1.99-.27,2.95-.34"/>
              <polyline class="cls-6" points="44.49 61.78 48.85 59.95 50.08 59.44 52.28 55.21"/>
              <path class="cls-6" d="M51.99,55.27c-.61.26-3.98,1.67-4.6,1.94-.3.15-.71.35-1.02.51-.19.1-.4.28-.41.5.01.19.34.43.49.54.38.2,1.21.58,1.84.88.15.07.29.15.43.2.1.03.25.03.37.02"/>
              <polyline class="cls-6" points="52.02 55.23 51.72 55.58 50.69 56.19 50.01 56.67 48.62 57.65 47.56 58.44 47.28 58.68"/>
              <path class="cls-6" d="M45.98,58.11c.33.16.65.31.99.46.3.12.59.27.86.46.3.19.62.39.92.57.2.12.34.11.55.04.26-.08.55-.18.82-.26"/>
            </g>
            <path class="cls-6" d="M69.16,25.27c.24.41.55.72.99.92.42.22.87.38,1.3.58.56.27,1.21.63,1.76.92"/>
            <path class="cls-6" d="M74.25,27.58c-.04.08-.17.49-.17.49"/>
          </g>
        </g>
      </g>
    </g>
  </g>
</svg>