<?xml version="1.0" encoding="UTF-8"?>
<svg id="_图层_2" data-name="图层 2" xmlns="http://www.w3.org/2000/svg" xmlns:xlink="http://www.w3.org/1999/xlink" viewBox="0 0 100.91 101.97">
  <defs>
    <style>
      .cls-1, .cls-2, .cls-3 {
        fill: none;
      }

      .cls-4 {
        fill: #e60012;
      }

      .cls-2 {
        stroke: #e60012;
        stroke-linecap: round;
        stroke-width: .4px;
      }

      .cls-2, .cls-3 {
        stroke-miterlimit: 10;
      }

      .cls-5 {
        fill: #221714;
      }

      .cls-6 {
        clip-path: url(#clippath);
      }

      .cls-3 {
        stroke: #040000;
        stroke-linecap: square;
        stroke-width: .12px;
      }
    </style>
    <clipPath id="clippath">
      <rect class="cls-1" x="8.84" y="2.05" width="89.66" height="85.62"/>
    </clipPath>
  </defs>
  <g id="_图层_1-2" data-name="图层 1">
    <g>
      <path class="cls-5" d="M8.35,89.75h.98v-.14h-.98v.14ZM10.31,89.75h.99v-.14h-.99v.14ZM12.28,89.75h.98v-.14h-.98v.14ZM14.25,89.75h.98v-.14h-.98v.14ZM16.22,89.75h.99v-.14h-.99v.14ZM18.19,89.75h.98v-.14h-.98v.14ZM20.15,89.75h.98v-.14h-.98v.14ZM22.12,89.75h.99v-.14h-.99v.14ZM24.09,89.75h.98v-.14h-.98v.14ZM26.06,89.75h.98v-.14h-.98v.14ZM28.03,89.75h.99v-.14h-.99v.14ZM29.99,89.75h.98v-.14h-.98v.14ZM31.96,89.75h.98v-.14h-.98v.14ZM33.93,89.75h.99v-.14h-.99v.14ZM35.9,89.75h.98v-.14h-.98v.14ZM37.87,89.75h.98v-.14h-.98v.14ZM39.83,89.75h.99v-.14h-.99v.14ZM41.8,89.75h.98v-.14h-.98v.14ZM43.77,89.75h.98v-.14h-.98v.14ZM45.74,89.75h.99v-.14h-.99v.14ZM47.71,89.75h.98v-.14h-.98v.14ZM49.67,89.75h.98v-.14h-.98v.14ZM51.64,89.75h.99v-.14h-.99v.14ZM53.61,89.75h.98v-.14h-.98v.14ZM55.58,89.75h.98v-.14h-.98v.14ZM57.55,89.75h.99v-.14h-.99v.14ZM59.51,89.75h.98v-.14h-.98v.14ZM61.48,89.75h.98v-.14h-.98v.14ZM63.45,89.75h.99v-.14h-.99v.14ZM65.42,89.75h.98v-.14h-.98v.14ZM67.39,89.75h.98v-.14h-.98v.14ZM69.35,89.75h.99v-.14h-.99v.14ZM71.32,89.75h.98v-.14h-.98v.14ZM73.29,89.75h.98v-.14h-.98v.14ZM75.26,89.75h.99v-.14h-.99v.14ZM77.23,89.75h.98v-.14h-.98v.14ZM79.19,89.75h.98v-.14h-.98v.14ZM81.16,89.75h.99v-.14h-.99v.14ZM83.13,89.75h.98v-.14h-.98v.14ZM85.1,89.75h.98v-.14h-.98v.14ZM87.07,89.75h.99v-.14h-.99v.14ZM89.03,89.75h.98v-.14h-.98v.14ZM91,89.75h.98v-.14h-.98v.14ZM92.97,89.75h.99v-.14h-.99v.14ZM94.94,89.75h.98v-.14h-.98v.14ZM96.91,89.75h.98v-.14h-.98v.14ZM98.87,89.75h.78v-.14h-.78v.14ZM7.81,89.49h.25v-.56h-.25v.56ZM99.41,89.07h.25v-.56h-.25v.56ZM7.81,88.37h.25v-.56h-.25v.56ZM99.41,87.95h.25v-.56h-.25v.56ZM7.81,87.25h.25v-.56h-.25v.56ZM99.41,86.83h.25v-.56h-.25v.56ZM7.81,86.13h.25v-.56h-.25v.56ZM99.41,85.71h.25v-.56h-.25v.56ZM7.81,85.01h.25v-.56h-.25v.56ZM99.41,84.59h.25v-.56h-.25v.56ZM7.81,83.89h.25v-.56h-.25v.56ZM99.41,83.47h.25v-.56h-.25v.56ZM7.81,82.77h.25v-.56h-.25v.56ZM99.41,82.34h.25v-.56h-.25v.56ZM7.81,81.64h.25v-.56h-.25v.56ZM99.41,81.22h.25v-.56h-.25v.56ZM7.81,80.52h.25v-.56h-.25v.56ZM99.41,80.1h.25v-.56h-.25v.56ZM7.81,79.4h.25v-.56h-.25v.56ZM99.41,78.98h.25v-.56h-.25v.56ZM7.81,78.28h.25v-.56h-.25v.56ZM99.41,77.86h.25v-.56h-.25v.56ZM7.81,77.16h.25v-.56h-.25v.56ZM99.41,76.74h.25v-.56h-.25v.56ZM7.81,76.04h.25v-.56h-.25v.56ZM99.41,75.62h.25v-.56h-.25v.56ZM7.81,74.92h.25v-.56h-.25v.56ZM99.41,74.5h.25v-.56h-.25v.56ZM7.81,73.8h.25v-.56h-.25v.56ZM99.41,73.38h.25v-.56h-.25v.56ZM7.81,72.68h.25v-.56h-.25v.56ZM99.41,72.26h.25v-.56h-.25v.56ZM7.81,71.56h.25v-.56h-.25v.56ZM99.41,71.14h.25v-.56h-.25v.56ZM7.81,70.43h.25v-.56h-.25v.56ZM99.41,70.01h.25v-.56h-.25v.56ZM7.81,69.31h.25v-.56h-.25v.56ZM99.41,68.89h.25v-.56h-.25v.56ZM7.81,68.19h.25v-.56h-.25v.56ZM99.41,67.77h.25v-.56h-.25v.56ZM7.81,67.07h.25v-.56h-.25v.56ZM99.41,66.65h.25v-.56h-.25v.56ZM7.81,65.95h.25v-.56h-.25v.56ZM99.41,65.53h.25v-.56h-.25v.56ZM7.81,64.83h.25v-.56h-.25v.56ZM99.41,64.41h.25v-.56h-.25v.56ZM7.81,63.71h.25v-.56h-.25v.56ZM99.41,63.29h.25v-.56h-.25v.56ZM7.81,62.59h.25v-.56h-.25v.56ZM99.41,62.17h.25v-.56h-.25v.56ZM7.81,61.47h.25v-.56h-.25v.56ZM99.41,61.05h.25v-.56h-.25v.56ZM7.81,60.35h.25v-.56h-.25v.56ZM99.41,59.93h.25v-.56h-.25v.56ZM7.81,59.22h.25v-.56h-.25v.56ZM99.41,58.8h.25v-.56h-.25v.56ZM7.81,58.1h.25v-.56h-.25v.56ZM99.41,57.68h.25v-.56h-.25v.56ZM7.81,56.98h.25v-.56h-.25v.56ZM99.41,56.56h.25v-.56h-.25v.56ZM7.81,55.86h.25v-.56h-.25v.56ZM99.41,55.44h.25v-.56h-.25v.56ZM7.81,54.74h.25v-.56h-.25v.56ZM99.41,54.32h.25v-.56h-.25v.56ZM7.81,53.62h.25v-.56h-.25v.56ZM99.41,53.2h.25v-.56h-.25v.56ZM7.81,52.5h.25v-.56h-.25v.56ZM99.41,52.08h.25v-.56h-.25v.56ZM7.81,51.38h.25v-.56h-.25v.56ZM99.41,50.96h.25v-.56h-.25v.56ZM7.81,50.26h.25v-.56h-.25v.56ZM99.41,49.84h.25v-.56h-.25v.56ZM7.81,49.14h.25v-.56h-.25v.56ZM99.41,48.72h.25v-.56h-.25v.56ZM7.81,48.01h.25v-.56h-.25v.56ZM99.41,47.59h.25v-.56h-.25v.56ZM7.81,46.89h.25v-.56h-.25v.56ZM99.41,46.47h.25v-.56h-.25v.56ZM7.81,45.77h.25v-.56h-.25v.56ZM99.41,45.35h.25v-.56h-.25v.56ZM7.81,44.65h.25v-.56h-.25v.56ZM99.41,44.23h.25v-.56h-.25v.56ZM7.81,43.53h.25v-.56h-.25v.56ZM99.41,43.11h.25v-.56h-.25v.56ZM7.81,42.41h.25v-.56h-.25v.56ZM99.41,41.99h.25v-.56h-.25v.56ZM7.81,41.29h.25v-.56h-.25v.56ZM99.41,40.87h.25v-.56h-.25v.56ZM7.81,40.17h.25v-.56h-.25v.56ZM99.41,39.75h.25v-.56h-.25v.56ZM7.81,39.05h.25v-.56h-.25v.56ZM99.41,38.63h.25v-.56h-.25v.56ZM7.81,37.93h.25v-.56h-.25v.56ZM99.41,37.51h.25v-.56h-.25v.56ZM7.81,36.8h.25v-.56h-.25v.56ZM99.41,36.38h.25v-.56h-.25v.56ZM7.81,35.68h.25v-.56h-.25v.56ZM99.41,35.26h.25v-.56h-.25v.56ZM7.81,34.56h.25v-.56h-.25v.56ZM99.41,34.14h.25v-.56h-.25v.56ZM7.81,33.44h.25v-.56h-.25v.56ZM99.41,33.02h.25v-.56h-.25v.56ZM7.81,32.32h.25v-.56h-.25v.56ZM99.41,31.9h.25v-.56h-.25v.56ZM7.81,31.2h.25v-.56h-.25v.56ZM99.41,30.78h.25v-.56h-.25v.56ZM7.81,30.08h.25v-.56h-.25v.56ZM99.41,29.66h.25v-.56h-.25v.56ZM7.81,28.96h.25v-.56h-.25v.56ZM99.41,28.54h.25v-.56h-.25v.56ZM7.81,27.84h.25v-.56h-.25v.56ZM99.41,27.42h.25v-.56h-.25v.56ZM7.81,26.72h.25v-.56h-.25v.56ZM99.41,26.3h.25v-.56h-.25v.56ZM7.81,25.59h.25v-.56h-.25v.56ZM99.41,25.17h.25v-.56h-.25v.56ZM7.81,24.47h.25v-.56h-.25v.56ZM99.41,24.05h.25v-.56h-.25v.56ZM7.81,23.35h.25v-.56h-.25v.56ZM99.41,22.93h.25v-.56h-.25v.56ZM7.81,22.23h.25v-.56h-.25v.56ZM99.41,21.81h.25v-.56h-.25v.56ZM7.81,21.11h.25v-.56h-.25v.56ZM99.41,20.69h.25v-.56h-.25v.56ZM7.81,19.99h.25v-.56h-.25v.56ZM99.41,19.57h.25v-.56h-.25v.56ZM7.81,18.87h.25v-.56h-.25v.56ZM99.41,18.45h.25v-.56h-.25v.56ZM7.81,17.75h.25v-.56h-.25v.56ZM99.41,17.33h.25v-.56h-.25v.56ZM7.81,16.63h.25v-.56h-.25v.56ZM99.41,16.21h.25v-.56h-.25v.56ZM7.81,15.51h.25v-.56h-.25v.56ZM99.41,15.09h.25v-.56h-.25v.56ZM7.81,14.39h.25v-.56h-.25v.56ZM99.41,13.96h.25v-.56h-.25v.56ZM7.81,13.26h.25v-.56h-.25v.56ZM99.41,12.84h.25v-.56h-.25v.56ZM7.81,12.14h.25v-.56h-.25v.56ZM99.41,11.72h.25v-.56h-.25v.56ZM7.81,11.02h.25v-.56h-.25v.56ZM99.41,10.6h.25v-.56h-.25v.56ZM7.81,9.9h.25v-.56h-.25v.56ZM99.41,9.48h.25v-.56h-.25v.56ZM7.81,8.78h.25v-.56h-.25v.56ZM99.41,8.36h.25v-.56h-.25v.56ZM7.81,7.66h.25v-.56h-.25v.56ZM99.41,7.24h.25v-.56h-.25v.56ZM7.81,6.54h.25v-.56h-.25v.56ZM99.41,6.12h.25v-.56h-.25v.56ZM7.81,5.42h.25v-.56h-.25v.56ZM99.41,5h.25v-.56h-.25v.56ZM7.81,4.3h.25v-.56h-.25v.56ZM99.41,3.87h.25v-.56h-.25v.56ZM7.81,3.17h.25v-.56h-.25v.56ZM99.41,2.75h.25v-.56h-.25v.56ZM7.81,2.05h.25v-.56h-.25v.56ZM99.41,1.63h.25v-.56h-.25v.56ZM7.81.93h.25V.37h-.25v.56ZM8.14.14h.98v-.14h-.98v.14ZM10.11.14h.98v-.14h-.98v.14ZM12.08.14h.99v-.14h-.99v.14ZM14.05.14h.98v-.14h-.98v.14ZM16.01.14h.98v-.14h-.98v.14ZM17.98.14h.99v-.14h-.99v.14ZM19.95.14h.98v-.14h-.98v.14ZM21.92.14h.98v-.14h-.98v.14ZM23.89.14h.99v-.14h-.99v.14ZM25.85.14h.98v-.14h-.98v.14ZM27.82.14h.98v-.14h-.98v.14ZM29.79.14h.99v-.14h-.99v.14ZM31.76.14h.98v-.14h-.98v.14ZM33.73.14h.98v-.14h-.98v.14ZM35.69.14h.99v-.14h-.99v.14ZM37.66.14h.98v-.14h-.98v.14ZM39.63.14h.98v-.14h-.98v.14ZM41.6.14h.99v-.14h-.99v.14ZM43.57.14h.98v-.14h-.98v.14ZM45.53.14h.98v-.14h-.98v.14ZM47.5.14h.99v-.14h-.99v.14ZM49.47.14h.98v-.14h-.98v.14ZM51.44.14h.98v-.14h-.98v.14ZM53.41.14h.99v-.14h-.99v.14ZM55.37.14h.98v-.14h-.98v.14ZM57.34.14h.98v-.14h-.98v.14ZM59.31.14h.99v-.14h-.99v.14ZM61.28.14h.98v-.14h-.98v.14ZM63.25.14h.98v-.14h-.98v.14ZM65.21.14h.99v-.14h-.99v.14ZM67.18.14h.98v-.14h-.98v.14ZM69.15.14h.98v-.14h-.98v.14ZM71.12.14h.99v-.14h-.99v.14ZM73.09.14h.98v-.14h-.98v.14ZM75.05.14h.98v-.14h-.98v.14ZM77.02.14h.99v-.14h-.99v.14ZM78.99.14h.98v-.14h-.98v.14ZM80.96.14h.98v-.14h-.98v.14ZM82.93.14h.99v-.14h-.99v.14ZM84.89.14h.98v-.14h-.98v.14ZM86.86.14h.98v-.14h-.98v.14ZM88.83.14h.99v-.14h-.99v.14ZM90.8.14h.98v-.14h-.98v.14ZM92.77.14h.98v-.14h-.98v.14ZM94.73.14h.99v-.14h-.99v.14ZM96.7.14h.98v-.14h-.98v.14ZM98.67,0v.14h.74v.37h.25v-.51h-.98Z"/>
      <g class="cls-6">
        <g>
          <g>
            <polyline class="cls-3" points="100.72 10.46 100.78 10.36 100.81 10.23"/>
            <polyline class="cls-3" points="100.81 10.23 100.84 10.12 100.85 10 100.83 9.88 100.8 9.76 100.77 9.65 100.71 9.54 100.63 9.43 100.56 9.35"/>
            <line class="cls-3" x1="100.48" y1="9.35" x2="100.56" y2="9.28"/>
            <line class="cls-3" x1="80.97" y1="20.25" x2="82.86" y2="18.78"/>
            <line class="cls-3" x1="81.59" y1="17.47" x2="80.06" y2="19.32"/>
            <line class="cls-3" x1="20.84" y1="19.32" x2="19.37" y2="17.53"/>
            <line class="cls-3" x1="18.1" y1="18.84" x2="19.93" y2="20.25"/>
            <polyline class="cls-3" points="83.35 18.75 83.59 18.67 83.81 18.55 84.02 18.39"/>
            <polyline class="cls-3" points="82.01 16.33 81.86 16.53 81.72 16.74 81.64 16.97 81.59 17.23 81.59 17.47"/>
            <line class="cls-3" x1="82.86" y1="18.79" x2="83.02" y2="18.78"/>
            <polyline class="cls-3" points="16.89 18.39 17.08 18.55 17.31 18.67 17.56 18.76"/>
            <line class="cls-3" x1="17.88" y1="18.79" x2="18.04" y2="18.78"/>
            <polyline class="cls-3" points="19.32 17.47 19.31 17.22 19.26 16.97 19.18 16.74 19.04 16.52 18.89 16.33"/>
            <line class="cls-3" x1="70.77" y1="30.48" x2="70.88" y2="30.37"/>
            <line class="cls-3" x1="72.83" y1="30.48" x2="72.95" y2="30.37"/>
            <line class="cls-3" x1="80.96" y1="20.25" x2="80.97" y2="20.25"/>
            <polyline class="cls-3" points="80.06 19.32 80.14 19.5 80.43 19.84 80.77 20.15 80.96 20.25"/>
            <polyline class="cls-3" points="81.52 17.55 81.64 17.76 81.9 18.1 82.25 18.45 82.57 18.73 82.78 18.84"/>
            <line class="cls-3" x1="30.01" y1="30.48" x2="30.13" y2="30.37"/>
            <line class="cls-3" x1="27.95" y1="30.48" x2="28.06" y2="30.37"/>
            <polyline class="cls-3" points="20.01 20.25 20.18 20.15 20.47 19.89 20.73 19.59 20.84 19.41"/>
            <line class="cls-3" x1="19.93" y1="20.25" x2="19.94" y2="20.25"/>
            <polyline class="cls-3" points="19.94 20.25 20.13 20.15 20.47 19.84 20.76 19.5 20.84 19.32"/>
            <polyline class="cls-3" points="18.1 18.84 18.3 18.76 18.65 18.46 19.04 18.05 19.31 17.7 19.37 17.53"/>
            <line class="cls-3" x1="19.3" y1="17.53" x2="19.36" y2="17.52"/>
            <line class="cls-3" x1="18.1" y1="18.84" x2="18.1" y2="18.77"/>
            <line class="cls-3" x1="18.1" y1="18.84" x2="18.1" y2="18.84"/>
            <line class="cls-3" x1="72.41" y1="30.37" x2="72.41" y2="30.01"/>
            <line class="cls-3" x1="71.27" y1="30" x2="71.27" y2="30.37"/>
            <polyline class="cls-3" points="72.41 30.01 72.42 29.7 72.46 29.38 72.51 29.06 72.6 28.76 72.7 28.46 72.83 28.17 72.92 28.03 73.01 27.91 73.11 27.79 73.21 27.67"/>
            <polyline class="cls-3" points="72.4 26.86 72.26 27.02 72.12 27.18 72 27.35 71.88 27.53 71.78 27.72 71.68 27.91 71.6 28.11 71.53 28.31 71.46 28.52 71.41 28.72 71.34 29.14 71.29 29.57 71.27 30"/>
            <polyline class="cls-3" points="72.83 30.37 72.82 30.37 72.76 30.37 72.67 30.37 72.54 30.37 72.4 30.37 72.23 30.37 71.86 30.37 71.48 30.37 71.32 30.37 71.17 30.37 71.05 30.37 70.96 30.37 70.9 30.37 70.88 30.37"/>
            <line class="cls-3" x1="70.77" y1="30.47" x2="70.58" y2="32.71"/>
            <line class="cls-3" x1="73.15" y1="32.71" x2="72.95" y2="30.47"/>
            <line class="cls-3" x1="73.21" y1="27.67" x2="76.34" y2="24.64"/>
            <line class="cls-3" x1="75.48" y1="23.87" x2="72.4" y2="26.86"/>
            <line class="cls-3" x1="80.89" y1="20.22" x2="76.31" y2="24.66"/>
            <line class="cls-3" x1="80.1" y1="19.41" x2="75.48" y2="23.89"/>
            <polyline class="cls-3" points="80.87 20.23 80.85 20.23 80.82 20.22 80.78 20.19 80.71 20.15 80.65 20.1 80.59 20.04 80.44 19.91 80.31 19.76 80.19 19.62 80.14 19.56 80.11 19.5 80.09 19.46 80.07 19.42"/>
            <line class="cls-3" x1="84.48" y1="18.52" x2="84.51" y2="18.5"/>
            <polyline class="cls-3" points="82.86 18.78 82.81 18.77 82.74 18.73 82.66 18.68 82.58 18.61 82.48 18.53 82.37 18.43 82.14 18.2 81.93 17.97 81.83 17.86 81.75 17.76 81.68 17.67 81.64 17.59 81.6 17.52 81.59 17.47"/>
            <polyline class="cls-3" points="83.01 18.79 83.17 18.78 83.35 18.75"/>
            <polyline class="cls-3" points="83.35 18.75 83.52 18.7 83.69 18.62 83.85 18.52 84 18.4"/>
            <polyline class="cls-3" points="84.29 18.51 84.25 18.52 84.21 18.5 84.16 18.48 84.09 18.45 84.02 18.4 83.93 18.34 83.84 18.27 83.74 18.19 83.52 18.02 83.3 17.81 83.06 17.58 82.82 17.33 82.59 17.09 82.39 16.85 82.22 16.63 82.14 16.53 82.08 16.43 82.01 16.34 81.97 16.26 81.93 16.2 81.91 16.14 81.9 16.09 81.9 16.05 81.91 16.03 81.93 16.02"/>
            <line class="cls-3" x1="84.29" y1="18.55" x2="84.48" y2="18.51"/>
            <polyline class="cls-3" points="84.48 18.52 84.45 18.53 84.4 18.51 84.35 18.49 84.29 18.46 84.21 18.41 84.13 18.36 84.04 18.3 83.95 18.23 83.85 18.15 83.74 18.05 83.52 17.86 83.28 17.63 83.03 17.39 82.8 17.15 82.58 16.9 82.38 16.67 82.21 16.45 82.14 16.35 82.08 16.25 82.01 16.16 81.97 16.09 81.93 16.02 81.91 15.96 81.9 15.91 81.89 15.88"/>
            <line class="cls-3" x1="84.48" y1="18.52" x2="85.86" y2="17.29"/>
            <line class="cls-3" x1="81.89" y1="15.87" x2="82.04" y2="15.72"/>
            <line class="cls-3" x1="83.09" y1="11.77" x2="83.09" y2="11.77"/>
            <polyline class="cls-3" points="83.09 11.77 82.87 12.08 82.67 12.4 82.48 12.72 82.3 13.05 82.15 13.4 82 13.75 81.87 14.1 81.75 14.46"/>
            <line class="cls-3" x1="81.72" y1="14.59" x2="81.75" y2="14.46"/>
            <line class="cls-3" x1="81.61" y1="15.01" x2="81.72" y2="14.59"/>
            <line class="cls-3" x1="81.61" y1="15.01" x2="81.61" y2="15.01"/>
            <polyline class="cls-3" points="81.61 15.01 81.59 15.09 81.59 15.16 81.6 15.24 81.63 15.31 81.65 15.38 81.7 15.45 81.75 15.51 81.81 15.56"/>
            <polyline class="cls-3" points="83.85 11.11 83.64 11.24 83.44 11.39 83.25 11.57 83.09 11.77"/>
            <line class="cls-3" x1="84.46" y1="16.94" x2="84.53" y2="16.92"/>
            <polyline class="cls-3" points="93.64 7 93.41 6.97 93.19 6.97"/>
            <polyline class="cls-3" points="93.1 6.98 92.88 7.03 92.68 7.1"/>
            <line class="cls-3" x1="86.63" y1="17.42" x2="86.64" y2="17.39"/>
            <polyline class="cls-3" points="86.64 17.42 87.17 17.47 87.69 17.49"/>
            <polyline class="cls-3" points="92.68 7.1 91.54 7.55 90.43 8.01 89.31 8.49 88.21 8.99 87.11 9.5 86.02 10.02 84.93 10.56 83.86 11.11"/>
            <line class="cls-3" x1="83.85" y1="11.11" x2="83.86" y2="11.11"/>
            <line class="cls-3" x1="92.67" y1="7.1" x2="92.68" y2="7.1"/>
            <polyline class="cls-3" points="81.81 15.56 82.08 15.74 82.36 15.92 82.63 16.09 82.92 16.25 83.21 16.4 83.5 16.54 83.8 16.67 84.1 16.79 84.41 16.9 84.72 17 85.04 17.1 85.35 17.17 85.67 17.25 85.98 17.31 86.31 17.36 86.63 17.4"/>
            <line class="cls-3" x1="81.81" y1="15.56" x2="81.81" y2="15.56"/>
            <polyline class="cls-3" points="92.67 7.1 91.54 7.55 90.43 8.01 89.31 8.49 88.21 8.99 87.11 9.5 86.01 10.02 84.93 10.56 83.85 11.11"/>
            <polyline class="cls-3" points="93.63 7 93.39 6.97 93.15 6.98"/>
            <polyline class="cls-3" points="93.15 6.98 92.91 7.02 92.67 7.1"/>
            <line class="cls-3" x1="93.63" y1="7" x2="93.64" y2="7"/>
            <polyline class="cls-3" points="100.48 9.28 99.62 8.88 98.76 8.52 97.91 8.2 97.05 7.9 96.2 7.62 95.35 7.39 94.5 7.18 93.63 7"/>
            <polyline class="cls-3" points="87.7 17.49 91.33 17.51 94.97 17.49"/>
            <polyline class="cls-3" points="96.28 16.89 96.91 16.14 97.52 15.37 98.11 14.59 98.68 13.79 99.22 12.98 99.75 12.16 100.25 11.31 100.72 10.46"/>
            <polyline class="cls-3" points="94.97 17.49 95.12 17.48 95.26 17.47"/>
            <polyline class="cls-3" points="95.97 17.17 95.81 17.27 95.64 17.36 95.45 17.42 95.26 17.47"/>
            <polyline class="cls-3" points="95.97 17.17 96.13 17.03 96.28 16.89"/>
            <line class="cls-3" x1="29.63" y1="30.37" x2="29.63" y2="30"/>
            <line class="cls-3" x1="28.49" y1="30.01" x2="28.49" y2="30.37"/>
            <polyline class="cls-3" points="29.63 30 29.61 29.57 29.56 29.14 29.49 28.72 29.44 28.52 29.37 28.31 29.3 28.11 29.22 27.91 29.13 27.72 29.02 27.53 28.9 27.35 28.78 27.18 28.64 27.02 28.5 26.86"/>
            <polyline class="cls-3" points="27.69 27.67 27.79 27.79 27.89 27.91 27.98 28.04 28.06 28.17 28.2 28.46 28.31 28.76 28.39 29.06 28.44 29.38 28.48 29.7 28.49 30.01"/>
            <polyline class="cls-3" points="28.06 30.37 28.08 30.37 28.14 30.37 28.23 30.37 28.35 30.37 28.49 30.37 28.67 30.37 29.04 30.37 29.41 30.37 29.58 30.37 29.72 30.37 29.85 30.37 29.94 30.37 30 30.37 30.01 30.37"/>
            <line class="cls-3" x1="27.91" y1="30.9" x2="27.76" y2="32.71"/>
            <line class="cls-3" x1="27.95" y1="30.47" x2="27.91" y2="30.9"/>
            <line class="cls-3" x1="30.32" y1="32.71" x2="30.13" y2="30.47"/>
            <line class="cls-3" x1="28.5" y1="26.86" x2="25.42" y2="23.87"/>
            <line class="cls-3" x1="24.56" y1="24.63" x2="27.69" y2="27.67"/>
            <line class="cls-3" x1="20.03" y1="20.24" x2="24.59" y2="24.66"/>
            <line class="cls-3" x1="25.41" y1="23.89" x2="25.42" y2="23.87"/>
            <line class="cls-3" x1="25.41" y1="23.87" x2="20.84" y2="19.42"/>
            <line class="cls-3" x1="16.39" y1="18.52" x2="16.42" y2="18.5"/>
            <polyline class="cls-3" points="18.04 18.78 18.09 18.77 18.16 18.73 18.24 18.68 18.32 18.61 18.43 18.53 18.53 18.43 18.76 18.2 18.97 17.97 19.07 17.86 19.15 17.76 19.22 17.67 19.26 17.59 19.3 17.52 19.32 17.47"/>
            <polyline class="cls-3" points="17.89 18.79 17.73 18.78 17.56 18.76"/>
            <polyline class="cls-3" points="17.56 18.76 17.38 18.7 17.21 18.62 17.05 18.52 16.9 18.4"/>
            <polyline class="cls-3" points="16.61 18.51 16.65 18.52 16.69 18.5 16.74 18.48 16.81 18.45 16.88 18.4 16.97 18.34 17.06 18.27 17.16 18.19 17.38 18.02 17.6 17.81 17.84 17.58 18.08 17.33 18.31 17.09 18.51 16.85 18.68 16.63 18.76 16.53 18.82 16.43 18.89 16.34 18.93 16.26 18.96 16.2 18.99 16.14 19 16.09 19 16.05 18.99 16.03 18.97 16.02"/>
            <polyline class="cls-3" points="18.97 15.82 19 15.87 19.01 15.92 19 15.97 18.97 16.02"/>
            <line class="cls-3" x1="16.42" y1="18.55" x2="16.61" y2="18.51"/>
            <line class="cls-3" x1="18.86" y1="15.82" x2="18.97" y2="15.71"/>
            <line class="cls-3" x1="16.42" y1="18.52" x2="15.05" y2="17.3"/>
            <line class="cls-3" x1="18.85" y1="15.87" x2="19.01" y2="15.71"/>
            <line class="cls-3" x1="17.81" y1="11.77" x2="17.81" y2="11.77"/>
            <line class="cls-3" x1="19.29" y1="15.01" x2="19.3" y2="15.01"/>
            <polyline class="cls-3" points="17.81 11.77 18.06 12.14 18.31 12.52 18.52 12.91 18.72 13.32 18.89 13.73 19.05 14.15 19.18 14.58 19.3 15.01"/>
            <polyline class="cls-3" points="19.3 15.01 19.31 15.09 19.31 15.16 19.29 15.24 19.27 15.31 19.24 15.38 19.2 15.45 19.15 15.51 19.09 15.56"/>
            <polyline class="cls-3" points="17.05 11.11 17.26 11.24 17.46 11.4 17.65 11.57 17.81 11.77"/>
            <line class="cls-3" x1="16.37" y1="16.94" x2="16.44" y2="16.92"/>
            <polyline class="cls-3" points="7.26 7 7.48 6.97 7.71 6.97"/>
            <polyline class="cls-3" points="7.8 6.98 8.02 7.03 8.22 7.1"/>
            <polyline class="cls-3" points="14.26 17.42 13.73 17.47 13.21 17.49"/>
            <polyline class="cls-3" points="8.22 7.1 9.36 7.55 10.47 8.01 11.59 8.49 12.69 8.99 13.79 9.5 14.88 10.02 15.97 10.56 17.04 11.11"/>
            <line class="cls-3" x1="8.22" y1="7.1" x2="8.23" y2="7.1"/>
            <line class="cls-3" x1="17.04" y1="11.11" x2="17.05" y2="11.11"/>
            <polyline class="cls-3" points="19.09 15.56 18.82 15.74 18.55 15.92 18.27 16.09 17.98 16.25 17.69 16.4 17.4 16.54 17.1 16.67 16.8 16.79 16.49 16.9 16.18 17 15.87 17.1 15.56 17.17 14.92 17.31 14.26 17.42"/>
            <line class="cls-3" x1="19.09" y1="15.56" x2="19.09" y2="15.56"/>
            <polyline class="cls-3" points="8.23 7.1 9.36 7.55 10.47 8.01 11.59 8.49 12.69 8.99 13.79 9.5 14.89 10.02 15.97 10.56 17.05 11.11"/>
            <polyline class="cls-3" points="7.27 7 7.5 6.97 7.75 6.98"/>
            <polyline class="cls-3" points="7.75 6.98 7.99 7.02 8.23 7.1"/>
            <polyline class="cls-3" points=".09 10.23 .06 10.12 .06 10 .07 9.87 .1 9.76 .13 9.65 .19 9.54 .26 9.43 .34 9.35"/>
            <line class="cls-3" x1=".68" y1="9.1" x2=".34" y2="9.35"/>
            <polyline class="cls-3" points=".68 9.1 1.48 8.75 2.28 8.42 3.08 8.13 3.91 7.85 4.74 7.6 5.57 7.38 6.41 7.18 7.26 7"/>
            <line class="cls-3" x1="7.26" y1="7" x2="7.27" y2="7"/>
            <line class="cls-3" x1=".68" y1="9.1" x2=".69" y2="9.1"/>
            <polyline class="cls-3" points=".69 9.1 1.48 8.75 2.28 8.42 3.09 8.13 3.91 7.85 4.74 7.6 5.58 7.38 6.41 7.18 7.27 7"/>
            <polyline class="cls-3" points="13.2 17.49 9.58 17.51 5.93 17.49"/>
            <polyline class="cls-3" points="4.62 16.89 4 16.14 3.38 15.37 2.79 14.59 2.22 13.79 1.68 12.98 1.15 12.16 .65 11.31 .18 10.46"/>
            <polyline class="cls-3" points="5.93 17.49 5.78 17.48 5.64 17.47"/>
            <polyline class="cls-3" points="4.93 17.17 4.77 17.03 4.62 16.89"/>
            <polyline class="cls-3" points="4.93 17.16 5.09 17.26 5.26 17.35 5.45 17.42 5.64 17.47"/>
            <line class="cls-3" x1="20.8" y1="19.41" x2="20.84" y2="19.39"/>
            <line class="cls-3" x1="19.99" y1="20.25" x2="20.01" y2="20.22"/>
          </g>
          <g>
            <g>
              <path class="cls-3" d="M16.96,39.95c-1.63.19-3.25.39-4.89.46-.33.02-.67.07-1.01.1-.65.1-1.19,0-1.39-.69-.12-.35.02-.74.28-1,.22-.2.55-.28.85-.25.19.03.39.13.54.24.07.05.22.18.27.18.83-.15,8.65-1.84,9.29-1.97.39-.1,1.05-.3,1.43-.4.47-.13.91-.35,1.31-.62"/>
              <line class="cls-3" x1="22.84" y1="37.98" x2="12.6" y2="41.52"/>
              <path class="cls-3" d="M22.94,37.98c.31-.13.6-.33.71-.66.08-.27.22-.7.57-.63.17.05.26.22.35.36.11.17.21.34.3.51.25.44.47.93.61,1.42"/>
              <path class="cls-3" d="M11.82,43.76c-.16-.48-.55-1.49-.18-1.92.16-.15.41-.15.62-.19.12-.02.21-.05.32-.08"/>
              <line class="cls-3" x1="24.06" y1="41.5" x2="13.8" y2="44.97"/>
              <path class="cls-3" d="M24.14,41.43c.32-.09.68-.11.97.09.23.16.6.42.83.15.1-.14.07-.34.06-.5-.02-.2-.04-.39-.07-.59-.07-.5-.19-1.02-.38-1.5"/>
              <path class="cls-3" d="M11.81,43.67c.17.48.47,1.51,1.03,1.63.22.02.42-.13.61-.23.1-.06.2-.09.3-.13"/>
              <path class="cls-3" d="M29.64,30.05c1.73-.82,1.8-.8,2.78-1.27.79-.34,2.2-.92,2.69-1.14.12-.06.28-.13.4-.15.24-.04.57-.02.82-.01.14,0,.48.03.64.04.18.01.35-.04.49-.12.7-.44,1.75-1.12,2.5-1.57.48-.28.96-.56,1.43-.83.18-.11.36-.18.56-.28.18-.08.35-.18.54-.22.24-.05.61-.15.84-.17.54-.06,1.34-.15,1.85-.21.59-.07,1.4-.1,2.09-.14.31-.01,1.4-.07,1.91-.09.32,0,1.01,0,1.31,0"/>
              <path class="cls-3" d="M23.97,36.68c-.11-.19-.25-.36-.31-.57-.06-.23-.12-.41-.15-.64-.08-.52-.26-1.23-.29-1.51.02-.22.05-.48.08-.71,0-.02,0-.03,0-.04.01-.13.02-.1.05-.12,0,0,.02,0,.03-.01.44-.21,2.46-1.17,4.55-2.16"/>
              <path class="cls-3" d="M30.13,30.47c2.85-1.29,4.87-2.18,5.33-2.39.12-.04.31-.15.46-.12.22.04.56.14.77.19.05.01.1.03.14.06.03.03.05.07.07.12.04.12.12.35.17.47.1.3.22.6.33.9.52,1.4.97,2.61,1.4,3.93.12.38.3.75.45,1.12.07.18.16.29.28.46.13.16.24.36.38.5.26.18.63.4.92.57.24.12.62.27.87.39.34.15.8.36,1.12.5.15.07.17.07.34.1.4.06.84.15,1.23.16.55.03,1.26.1,1.74.12,1.62.03,3.02.06,4.35.05"/>
              <path class="cls-3" d="M23.25,33.71c.8-.38,1.9-.92,2.8-1.36.45-.21,1.08-.49,1.81-.82"/>
              <path class="cls-3" d="M36.83,28.2c.72-.36,1.4-.77,2.07-1.21.51-.33,1.04-.61,1.57-.91.73-.44,1.47-.87,2.29-1.1,1.12-.31,2.28-.28,3.43-.38.66-.04,1.3-.11,1.96-.1.79,0,1.57,0,2.33,0"/>
              <path class="cls-3" d="M35.83,27.95c.82,1.49,1.37,3.12,1.99,4.7.29.74.54,1.48.94,2.17.38.7.98,1.19,1.65,1.6.59.35,1.23.66,1.86.91.59.22,1.19.4,1.79.51.82.15,1.61.15,2.49.18,1.28.05,2.69.1,3.93.14"/>
              <path class="cls-3" d="M23.23,33.84c.1.14.24.29.33.41.13.21.25.45.37.67.24.45.5.98.73,1.4.17.34.41.75.56,1.07.16.39.38.84.5,1.21.11.35.28.88.38,1.19.13.44.26,1.05.37,1.48.07.25.09.49.13.76,0,.08.04.16.13.16.65-.03,1.36-.15,2.14-.22.52-.06,1.29-.15,1.98-.23.33-.05.64-.04.98-.04"/>
              <path class="cls-3" d="M26.62,42.18c-.6-.38-.36.06-.27.43.1.46.26.97.38,1.4"/>
              <path class="cls-3" d="M30.06,43.95c.46-.01.88-.02,1.2-.03.26,0,.45-.02.73-.07,1.75-.29,3.49-.5,5.26-.76.68-.1,1.63-.25,2.36-.34.68-.08,1.33-.17,2.03-.16,1.66,0,1.74.6,1.9,2.07.04.49.17.95.28,1.44.09.38.16.67.25,1.03.16.62.29,1.27.62,1.83.2.34.52.57.89.7.4.16.75.18,1.17.2.35.02.63.04.97.05.91.04,1.85.06,2.75.05"/>
              <path class="cls-3" d="M24.84,41.4c.05.28.07.51.24.72.38.42,1.2,1.45,1.6,1.87.04.03.08.03.14.03.23,0,.83-.02,1.54-.03"/>
              <path class="cls-3" d="M31.83,41.73c.17.38.2.8.2,1.21,0,.43-.09.77-.49.98"/>
              <polyline class="cls-3" points="28.41 43.99 28.29 43.88 28.34 43.19 28.67 42.54 30.03 42.54 30.03 43.97 29.85 44.09 28.61 44.18 28.59 44.16 28.41 43.99"/>
              <polyline class="cls-3" points="28.61 44.01 29.19 43.15 29.74 43.13 30.03 42.54"/>
              <line class="cls-3" x1="28.69" y1="42.56" x2="29.19" y2="43.15"/>
              <line class="cls-3" x1="28.62" y1="44" x2="28.61" y2="44.18"/>
              <line class="cls-3" x1="29.74" y1="43.15" x2="29.85" y2="44.09"/>
              <line class="cls-3" x1="28.34" y1="43.19" x2="28.75" y2="43.8"/>
              <path class="cls-3" d="M28.3,43.82c-.76,0-.82,0-.8-.77,0-.18-.01-.38.01-.56.05-.31.58-.28.82-.3.79-.02,2.33-.06,2.76-.07.05,0,.1,0,.13.04.03.04.04.14.05.21.02.25.07.72.1.99.02.22,0,.3-.24.32-.3.03-.7.06-1.02.09"/>
              <path class="cls-3" d="M26.83,39.85c.31-.51.83-.82,1.35-1.12.31-.2.59-.33.92-.48.49-.24.98-.4,1.51-.48.38-.04.71.17.86.52.21.44.35.92.37,1.41.02.42,0,.83-.17,1.21-.35.72-1.16.75-1.9.71-.33-.01-.6-.02-.88-.04-.56-.04-1.46-.2-1.87-.62-.27-.27-.36-.75-.18-1.09h0Z"/>
              <path class="cls-3" d="M27.14,40.65c-.53-.87.85-1.49,1.51-1.82.62-.27,1.77-1.02,2.37-.58.68.47.8,2.64-.05,2.99-.23.1-.51.14-.76.14-.4.01-.79,0-1.16-.05-.6-.08-1.52-.16-1.89-.68h0Z"/>
              <path class="cls-3" d="M27.71,40.17c.07-.67,1.2-1.1,1.73-1.38.35-.16.81-.4,1.14-.11.32.3.41.93.43,1.36.02,1.02-1.09.93-1.84.9-.54-.03-1.43-.09-1.46-.77h0Z"/>
              <path class="cls-3" d="M24.74,35.14c.04.41.29.83.43,1.2.23.53.47,1.05.72,1.58.55,1.23,1.36,1.1,2.33.4.4-.27.92-.6,1.3-.88.57-.38.51-1.02.34-1.58-.11-.33-.27-.65-.41-.98-.23-.51-.44-1.02-.89-1.32-.22-.15-.49-.11-.74-.08-.21.03-.39.04-.57.07-.28.03-.6.17-.86.31-.29.15-.58.29-.86.44-.34.17-.8.41-.78.82h0Z"/>
              <polyline class="cls-3" points="24.74 35.04 25.22 35.91 25.58 36.62 25.86 37.33 26.09 37.94 26.17 38.21 26.17 38.42"/>
              <path class="cls-3" d="M26.64,38.06c-.11-.25-.21-.65-.32-.92-.19-.43-.38-.85-.58-1.27-.08-.16-.15-.27-.24-.42-.05-.1-.12-.23-.1-.34.06-.27,1.03-.68,1.31-.84.19-.09.43-.19.63-.29.07-.03.15-.07.23-.08.34-.05.48.29.65.54.09.14.18.28.25.44.13.28.26.58.38.86.12.29.26.55.26.86.02.29-.26.46-.44.64-.18.16-.37.33-.56.49-.19.15-.42.36-.62.52-.3.22-.7.18-.86-.19h0Z"/>
              <path class="cls-3" d="M26.04,35.01c-.04.13.02.21.09.39.03.08.07.17.1.25.19.45.4.99.59,1.43.17.41.37.56.77.28.3-.2.58-.41.86-.66.19-.18.23-.37.09-.59-.19-.32-.69-1.19-.88-1.52-.08-.14-.19-.25-.36-.2-.24.07-.68.3-.92.41-.13.06-.3.14-.32.21h0Z"/>
              <path class="cls-3" d="M26.79,36.96c.33.35.41.38.8.07.34-.25.69-.52.99-.82"/>
              <line class="cls-3" x1="27.19" y1="37.24" x2="27.32" y2="37.51"/>
              <line class="cls-3" x1="37.09" y1="28.07" x2="43.27" y2="37.28"/>
              <path class="cls-3" d="M28.61,44.23c-.53.54-1.18,1.04-1.5,1.75-.23.49-.33.95-.45,1.49-.21.86-.39,1.8-.58,2.68-.2.95-.34,1.96-.5,2.93-.1.65-.23,1.32-.28,1.98-.05.62-.14,1.31-.16,1.93-.01.4-.03.85-.04,1.26,0,.42-.02.89.04,1.31.06.46.15.98.15,1.41,0,.26.01.53-.07.79-.15.47-.39.82-.65,1.27-.19.32-.37.63-.57.94-.23.37-.46.72-.68,1.06-.26.41-.5.83-.6,1.31-.06.26-.06.49-.04.75.03.5.1,1.67.13,2.28.04.69.06,1.43.09,2.14.06,1.59.17,3.15.3,4.74.12,1.75.26,3.43.42,5.18.15,1.58.36,3.08.54,4.68.09.76.16,1.51.24,2.27.11.92.28,2.19.38,3.06.21,1.58.46,3.46.68,5,.21,1.37.55,3.58.73,5.09"/>
              <path class="cls-3" d="M29.72,44.13c-.47.52-.99,1.02-1.42,1.57-.83,1.12-1.15,2.48-1.57,3.79-.3,1-.56,2.03-.79,3.05-.1.49-.16.98-.24,1.49-.26,1.45-.41,2.93-.38,4.41,0,.69.03,1.14.09,1.79.04.54.11,1.1,0,1.63-.13.57-.47,1.09-.77,1.59-.36.59-.72,1.16-1.08,1.75-.24.39-.45.8-.55,1.25-.06.25-.07.5-.07.76,0,.48.05,1.16.07,1.68.12,3.1.29,6.27.56,9.34.15,1.53.3,3.4.47,4.89.38,2.94.93,7.45,1.27,10.19.4,2.84.89,5.76,1.27,8.59"/>
              <path class="cls-3" d="M50.49,50.39c-1.94.02-3.89-.04-5.81-.28-.73-.09-1.43-.26-2.14-.41-1.32-.29-2.63-.57-3.96-.86-1.55-.33-3.07-.64-4.6-1-.39-.09-.84-.21-1.24-.28-.47-.09-1-.15-1.5-.2-.41-.04-.82-.06-1.24-.07-.46,0-.97.03-1.41.2-.79.3-.99,1.03-1.23,1.77-.14.42-.29.86-.42,1.28-.21.62-.34,1.2-.51,1.85-.18.68-.34,1.34-.49,2.06-.13.77.09,1.23.57,1.82.37.48.74.98,1.11,1.47.19.24.39.45.6.67.26.27.61.54.96.65.35.11.65.12,1.03.18.92.11,1.76.24,2.66.31,2.46.23,5.27.48,7.67.64,3.47.08,6.6.22,9.95.27"/>
              <path class="cls-3" d="M44.83,58.89c.33-.12.2-.55.23-.94,0-.65,0-1.23,0-1.97,0-1.59.01-2.96,0-3.96,0-.48-.32-.88-.72-1.14-.58-.39-1.2-.44-1.9-.61-.79-.18-1.76-.39-2.52-.56-.89-.2-1.62-.37-2.51-.57-.68-.15-1.34-.27-2.02-.43-.79-.19-1.57-.4-2.39-.49-.7-.07-1.41-.13-2.1-.14-.42,0-.89.08-1.19.37-.23.22-.38.59-.5.93-.1.27-.2.56-.29.84-.29.81-.47,1.47-.66,2.27-.17.73-.38,1.48-.16,2.22.22.69.59,1.35.97,1.96.37.61.89,1.09,1.6,1.25.9.22,1.63.25,2.57.33.98.08,2.05.17,2.99.24,1.49.11,3.05.2,4.55.3.87.06,1.86.14,2.75.14.39,0,.94.07,1.29-.02h0Z"/>
              <path class="cls-3" d="M45.06,58.52c0,.31-.02.87.24,1.05.78.06,4.43.07,5.19.09"/>
              <path class="cls-3" d="M27.99,53.8c-.31.99-.26,1.14.16,2.08.42.86.77,2.04,1.8,2.32.29.08.57.12.88.16.56.07,1.02.13,1.57.17,1.08.09,2.3.23,3.33.29,1.32.04,2.68.19,3.98.23,1.82.05,3.63.19,5.41.23"/>
              <line class="cls-3" x1="25.9" y1="54.77" x2="27.84" y2="54.33"/>
              <line class="cls-3" x1="26.03" y1="55.52" x2="27.81" y2="55"/>
              <path class="cls-3" d="M28.71,58.82c0,1.66.03,4.12,0,5.99,0,.44,0,.89,0,1.33.03.6-.05,1.19.32,1.66.54.57,1.78.41,2.53.5,2.78.16,7.66.38,9.28.5.71.16,1.59.34,2.21.76.91.61,1.21,1.33,1.22,2.39.08,1.6.19,5.8.28,8.19.18,6.06.63,12.97.27,19.19"/>
              <path class="cls-3" d="M28.14,101.63c-.18-1.06-.44-2.09-.51-3.1,0-.12.08-.17.19-.24.12-.08.25-.17.33-.3.15-.21.16-.43.11-.69-.06-.31-.08-.62-.23-.9-.08-.14-.26-.24-.43-.29-.22-.07-.43-.16-.46-.35-.52-3.7-.95-6.82-1.44-10.78-.27-2.53-.63-6.66-.85-9.34-.04-.63-.2-4.11-.23-4.63v-.09c.36-1.45,1.51-1.21,2.71-1.19.51.02,1.03.03,1.54.05.34,0,.45.03.73.07.38.05.75.12,1.28.19,1.46.22,3.47.52,4.08.62.19.03.31.06.51.14.83.33,1.27.43,1.74,1.25.1.16.14.31.17.49.07.4.22,1.18.36,1.94.12.63.25,1.38.36,1.94.16,1.12.45,3.97.68,5.9.18,1.59.38,3.31.51,4.92.2,3.52.41,7.22.6,10.4"/>
              <path class="cls-3" d="M26.25,70.42c.17,1.45.62,5.68.89,7.88.24,1.32.84,4.63,1.17,6.44.27,1.58.74,4.62,1.08,6.7.21,1.3.47,2.82.67,4.15.08.61.22,1.31.24,1.93.04.78-.1,1.46-.53,2.14-.15.25-.3.5-.47.73-.3.39-.66.71-1.03,1.03"/>
              <path class="cls-3" d="M25.26,69.94c-.52.72.15.46.74.48,1.03.04,2.99.3,4.05.37.57.04,1.17.06,1.77.12.54.06,1.07.15,1.62.23.61.09,1.26.21,1.83.44.67.3,1.3.78,1.62,1.44.29.57.43,1.22.57,1.84.27,1.16.62,2.61.89,3.79"/>
            </g>
            <path class="cls-3" d="M84.02,39.95c1.63.19,3.25.39,4.89.46.33.02.67.07,1.01.1.65.1,1.19,0,1.39-.69.12-.35-.02-.74-.28-1-.22-.2-.55-.28-.85-.25-.19.03-.39.13-.54.24-.07.05-.22.18-.27.18-.83-.15-8.65-1.84-9.29-1.97-.39-.1-1.05-.3-1.43-.4-.47-.13-.91-.35-1.31-.62"/>
            <line class="cls-3" x1="78.14" y1="37.98" x2="88.38" y2="41.52"/>
            <path class="cls-3" d="M78.03,37.98c-.31-.13-.6-.33-.71-.66-.08-.27-.22-.7-.57-.63-.17.05-.26.22-.35.36-.11.17-.21.34-.3.51-.25.44-.47.93-.61,1.42"/>
            <path class="cls-3" d="M89.16,43.76c.16-.48.55-1.49.18-1.92-.16-.15-.41-.15-.62-.19-.12-.02-.21-.05-.32-.08"/>
            <line class="cls-3" x1="76.91" y1="41.5" x2="87.18" y2="44.97"/>
            <path class="cls-3" d="M76.83,41.43c-.32-.09-.68-.11-.97.09-.23.16-.6.42-.83.15-.1-.14-.07-.34-.06-.5.02-.2.04-.39.07-.59.07-.5.19-1.02.38-1.5"/>
            <path class="cls-3" d="M89.17,43.67c-.17.48-.47,1.51-1.03,1.63-.22.02-.42-.13-.61-.23-.1-.06-.2-.09-.3-.13"/>
            <path class="cls-3" d="M71.23,30.05c-1.71-.81-1.7-.81-2.67-1.27-.79-.34-2.2-.92-2.69-1.14-.12-.06-.28-.13-.4-.15-.24-.04-.57-.02-.82-.01-.14,0-.48.03-.64.04-.18.01-.35-.04-.49-.12-.7-.44-1.75-1.12-2.5-1.57-.48-.28-.96-.56-1.43-.83-.18-.11-.36-.18-.56-.28-.18-.08-.35-.18-.54-.22-.24-.05-.61-.15-.84-.17-.54-.06-1.34-.15-1.85-.21-.59-.07-1.4-.1-2.09-.14-.31-.01-1.4-.07-1.91-.09-.32,0-1.01,0-1.31,0"/>
            <path class="cls-3" d="M77.01,36.68c.11-.19.25-.36.31-.57.06-.23.12-.41.15-.64.08-.52.26-1.23.29-1.51-.02-.22-.05-.48-.08-.71,0-.02,0-.03,0-.04-.01-.13-.02-.1-.05-.12,0,0-.02,0-.03-.01-.44-.21-2.49-1.18-4.61-2.19"/>
            <path class="cls-3" d="M70.74,30.48c-2.85-1.29-4.77-2.19-5.23-2.4-.12-.04-.31-.15-.46-.12-.22.04-.56.14-.77.19-.05.01-.1.03-.14.06-.03.03-.05.07-.07.12-.04.12-.12.35-.17.47-.1.3-.22.6-.33.9-.52,1.4-.97,2.61-1.4,3.93-.12.38-.3.75-.45,1.12-.07.18-.16.29-.28.46-.13.16-.24.36-.38.5-.26.18-.63.4-.92.57-.24.12-.62.27-.87.39-.34.15-.8.36-1.12.5-.15.07-.17.07-.34.1-.4.06-.84.15-1.23.16-.55.03-1.26.1-1.74.12-1.62.03-3.02.06-4.35.05"/>
            <path class="cls-3" d="M77.73,33.71c-.8-.38-1.9-.92-2.8-1.36-.47-.21-1.12-.51-1.87-.85"/>
            <path class="cls-3" d="M64.14,28.2c-.72-.36-1.4-.77-2.07-1.21-.51-.33-1.04-.61-1.57-.91-.73-.44-1.47-.87-2.29-1.1-1.12-.31-2.28-.28-3.43-.38-.66-.04-1.3-.11-1.96-.1-.79,0-1.57,0-2.33,0"/>
            <path class="cls-3" d="M65.14,27.95c-.82,1.49-1.37,3.12-1.99,4.7-.29.74-.54,1.48-.94,2.17-.38.7-.98,1.19-1.65,1.6-.59.35-1.23.66-1.86.91-.59.22-1.19.4-1.79.51-.82.15-1.61.15-2.49.18-1.28.05-2.69.1-3.93.14"/>
            <path class="cls-3" d="M77.74,33.84c-.1.14-.24.29-.33.41-.13.21-.25.45-.37.67-.24.45-.5.98-.73,1.4-.17.34-.41.75-.56,1.07-.16.39-.38.84-.5,1.21-.11.35-.28.88-.38,1.19-.13.44-.26,1.05-.37,1.48-.07.25-.09.49-.13.76,0,.08-.04.16-.13.16-.65-.03-1.36-.15-2.14-.22-.52-.06-1.29-.15-1.98-.23-.33-.05-.64-.04-.98-.04"/>
            <path class="cls-3" d="M74.36,42.18c.6-.38.36.06.27.43-.1.46-.26.97-.38,1.4"/>
            <path class="cls-3" d="M69.72,43.92c-.26,0-.45-.02-.73-.07-1.75-.29-3.49-.5-5.26-.76-.68-.1-1.63-.25-2.36-.34-.68-.08-1.33-.17-2.03-.16-1.66,0-1.74.6-1.9,2.07-.04.49-.17.95-.28,1.44-.09.38-.16.67-.25,1.03-.16.62-.29,1.27-.62,1.83-.2.34-.52.57-.89.7-.4.16-.75.18-1.17.2-.35.02-.63.04-.97.05-.91.04-1.85.06-2.75.05"/>
            <path class="cls-3" d="M76.14,41.4c-.05.28-.07.51-.24.72-.38.42-1.2,1.45-1.6,1.87-.04.03-1.11.02-1.16.02"/>
            <path class="cls-3" d="M69.14,41.73c-.17.38-.2.8-.2,1.21,0,.43.09.77.49.98"/>
            <path class="cls-3" d="M74.15,39.85c-.31-.51-.83-.82-1.35-1.12-.31-.2-.59-.33-.92-.48-.49-.24-.98-.4-1.51-.48-.38-.04-.71.17-.86.52-.21.44-.35.92-.37,1.41-.02.42,0,.83.17,1.21.35.72,1.16.75,1.9.71.33-.01.6-.02.88-.04.56-.04,1.46-.2,1.87-.62.27-.27.36-.75.18-1.09h0Z"/>
            <path class="cls-3" d="M73.83,40.65c.53-.87-.85-1.49-1.51-1.82-.62-.27-1.77-1.02-2.37-.58-.68.47-.8,2.64.05,2.99.23.1.51.14.76.14.4.01.79,0,1.16-.05.6-.08,1.52-.16,1.89-.68h0Z"/>
            <path class="cls-3" d="M73.26,40.17c-.07-.67-1.2-1.1-1.73-1.38-.35-.16-.81-.4-1.14-.11-.32.3-.41.93-.43,1.36-.02,1.02,1.09.93,1.84.9.54-.03,1.43-.09,1.46-.77h0Z"/>
            <line class="cls-3" x1="63.89" y1="28.07" x2="57.71" y2="37.28"/>
            <path class="cls-3" d="M72.11,44.03c.53.54,1.44,1.24,1.76,1.94.23.49.33.95.45,1.49.21.86.39,1.8.58,2.68.2.95.34,1.96.5,2.93.1.65.23,1.32.28,1.98.05.62.14,1.31.16,1.93.01.4.03.85.04,1.26,0,.42.02.89-.04,1.31-.06.46-.15.98-.15,1.41,0,.26-.01.53.07.79.15.47.39.82.65,1.27.19.32.37.63.57.94.23.37.46.72.68,1.06.26.41.5.83.6,1.31.06.26.06.49.04.75-.03.5-.1,1.67-.13,2.28-.04.69-.06,1.43-.09,2.14-.06,1.59-.17,3.15-.3,4.74-.12,1.75-.26,3.43-.42,5.18-.15,1.58-.36,3.08-.54,4.68-.09.76-.16,1.51-.24,2.27-.11.92-.28,2.19-.38,3.06-.21,1.58-.46,3.46-.68,5-.21,1.37-.55,3.58-.73,5.09"/>
            <path class="cls-3" d="M71.08,44.03c.47.52,1.16,1.12,1.59,1.67.83,1.12,1.15,2.48,1.57,3.79.3,1,.56,2.03.79,3.05.1.49.16.98.24,1.49.26,1.45.41,2.93.38,4.41,0,.69-.03,1.14-.09,1.79-.04.54-.11,1.1,0,1.63.13.57.47,1.09.77,1.59.36.59.72,1.16,1.08,1.75.24.39.45.8.55,1.25.06.25.07.5.07.76,0,.48-.05,1.16-.07,1.68-.12,3.1-.29,6.27-.56,9.34-.15,1.53-.3,3.4-.47,4.89-.38,2.94-.93,7.45-1.27,10.19-.4,2.84-.89,5.76-1.27,8.59"/>
            <path class="cls-3" d="M50.49,50.39c1.94.02,3.89-.04,5.81-.28.73-.09,1.43-.26,2.14-.41,1.32-.29,2.63-.57,3.96-.86,1.55-.33,3.07-.64,4.6-1,.39-.09.84-.21,1.24-.28.47-.09,1-.15,1.5-.2.41-.04.82-.06,1.24-.07.46,0,.97.03,1.41.2.79.3.99,1.03,1.23,1.77.14.42.29.86.42,1.28.21.62.34,1.2.51,1.85.18.68.34,1.34.49,2.06.13.77-.09,1.23-.57,1.82-.37.48-.74.98-1.11,1.47-.19.24-.39.45-.6.67-.26.27-.61.54-.96.65-.35.11-.65.12-1.03.18-.92.11-1.76.24-2.66.31-2.46.23-5.27.48-7.67.64-3.47.08-6.6.22-9.95.27"/>
            <path class="cls-3" d="M56.14,58.89c-.33-.12-.2-.55-.23-.94,0-.65,0-1.23,0-1.97,0-1.59-.01-2.96,0-3.96,0-.48.32-.88.72-1.14.58-.39,1.2-.44,1.9-.61.79-.18,1.76-.39,2.52-.56.89-.2,1.62-.37,2.51-.57.68-.15,1.34-.27,2.02-.43.79-.19,1.57-.4,2.39-.49.7-.07,1.41-.13,2.1-.14.42,0,.89.08,1.19.37.23.22.38.59.5.93.1.27.2.56.29.84.29.81.47,1.47.66,2.27.17.73.38,1.48.16,2.22-.22.69-.59,1.35-.97,1.96-.37.61-.89,1.09-1.6,1.25-.9.22-1.63.25-2.57.33-.98.08-2.05.17-2.99.24-1.49.11-3.05.2-4.55.3-.87.06-1.86.14-2.75.14-.39,0-.94.07-1.29-.02h0Z"/>
            <path class="cls-3" d="M55.91,58.52c0,.31.02.87-.24,1.05-.78.06-4.43.07-5.19.09"/>
            <path class="cls-3" d="M72.99,53.8c.31.99.26,1.14-.16,2.08-.42.86-.77,2.04-1.8,2.32-.29.08-.57.12-.88.16-.56.07-1.02.13-1.57.17-1.08.09-2.3.23-3.33.29-1.32.04-2.68.19-3.98.23-1.82.05-3.63.19-5.41.23"/>
            <line class="cls-3" x1="75.07" y1="54.77" x2="73.14" y2="54.33"/>
            <line class="cls-3" x1="74.95" y1="55.52" x2="73.16" y2="55"/>
            <path class="cls-3" d="M72.27,58.82c0,1.66-.03,4.12,0,5.99,0,.44,0,.89,0,1.33-.03.6.05,1.19-.32,1.66-.54.57-1.78.41-2.53.5-2.78.16-7.66.38-9.28.5-.71.16-1.59.34-2.21.76-.91.61-1.21,1.33-1.22,2.39-.08,1.6-.19,5.8-.28,8.19-.18,6.06-.63,12.97-.27,19.19"/>
            <path class="cls-3" d="M72.84,101.63c.18-1.06.44-2.09.51-3.1,0-.12-.08-.17-.19-.24-.12-.08-.25-.17-.33-.3-.15-.21-.16-.43-.11-.69.06-.31.08-.62.23-.9.08-.14.26-.24.43-.29.22-.07.43-.16.46-.35.52-3.7.95-6.82,1.44-10.78.27-2.53.63-6.66.85-9.34.04-.63.2-4.11.23-4.63v-.09c-.36-1.45-1.51-1.21-2.71-1.19-.51.02-1.03.03-1.54.05-.34,0-.45.03-.73.07-.38.05-.75.12-1.28.19-1.46.22-3.47.52-4.08.62-.19.03-.31.06-.51.14-.83.33-1.27.43-1.74,1.25-.1.16-.14.31-.17.49-.07.4-.22,1.18-.36,1.94-.12.63-.25,1.38-.36,1.94-.16,1.12-.45,3.97-.68,5.9-.18,1.59-.38,3.31-.51,4.92-.2,3.52-.41,7.22-.6,10.4"/>
            <path class="cls-3" d="M74.72,70.42c-.17,1.45-.62,5.68-.89,7.88-.24,1.32-.84,4.63-1.17,6.44-.27,1.58-.74,4.62-1.08,6.7-.21,1.3-.47,2.82-.67,4.15-.08.61-.22,1.31-.24,1.93-.04.78.1,1.46.53,2.14.15.25.3.5.47.73.3.39.66.71,1.03,1.03"/>
            <path class="cls-3" d="M75.72,69.94c.52.72-.15.46-.74.48-1.03.04-2.99.3-4.05.37-.57.04-1.17.06-1.77.12-.54.06-1.07.15-1.62.23-.61.09-1.26.21-1.83.44-.67.3-1.3.78-1.62,1.44-.29.57-.43,1.22-.57,1.84-.27,1.16-.62,2.61-.89,3.79"/>
            <g>
              <path class="cls-3" d="M52.29,55.46c0-.46-.37-.83-.83-.83h-1.99c-.46,0-.83.37-.83.83v2.73c0,.32.11.6.3.83.24.29.6.47,1,.47h1.06c.36,0,.68-.15.92-.38.24-.24.38-.56.38-.92v-2.73Z"/>
              <path class="cls-3" d="M51.5,54.36h-2.01c-.65,0-1.18.53-1.18,1.18v2.38c0,.46.24.87.6,1.1-.19-.23-.3-.51-.3-.83v-2.73c0-.46.37-.83.83-.83h1.99c.46,0,.83.37.83.83v2.73c0,.36-.15.69-.38.92.46-.2.78-.66.78-1.19v-2.38c0-.65-.53-1.18-1.18-1.18Z"/>
            </g>
            <rect class="cls-3" x="49.11" y="55.23" width="2.69" height="3.92" rx=".63" ry=".63"/>
            <rect class="cls-3" x="49.5" y="55.64" width="1.92" height="3.24" rx=".65" ry=".65"/>
            <rect class="cls-3" x="48.66" y="81.8" width="3.65" height="13.11" rx="1.82" ry="1.82"/>
            <rect class="cls-3" x="48.8" y="81.94" width="3.37" height="11.72" rx="1.69" ry="1.69"/>
            <g>
              <path class="cls-3" d="M35.69,35.56l.8.37,1.63.76,2,1.04,2.69,1.56,1.24.69,1.08.47.65.13s1.89.11,1.91.11,2.79.06,2.79.06"/>
              <path class="cls-3" d="M36.41,35.89c.69.47,1.38.89,2.03,1.39.61.47,1.18.97,1.73,1.51,1.17,1.11,2.45,2.54,3.21,3.98"/>
              <path class="cls-3" d="M31.89,43.61c2.4-.33,5.01-.75,7.44-1.06.48-.06.95-.12,1.42-.18.41-.05.78-.1,1.17-.08.54.02,1.03.23,1.49.49"/>
              <path class="cls-3" d="M42.65,42.72c.87.27,1.16.79,1.43,1.6.13.38.26.78.35,1.15.07.32.1.66.15.99.13.96.34,1.97.47,2.91"/>
            </g>
            <g>
              <path class="cls-3" d="M65.3,35.56l-.8.37-1.63.76-2,1.04-2.69,1.56-1.24.69-1.08.47-.65.13s-1.89.11-1.91.11-2.79.06-2.79.06"/>
              <path class="cls-3" d="M64.58,35.89c-.69.47-1.38.89-2.03,1.39-.61.47-1.18.97-1.73,1.51-1.17,1.11-2.45,2.54-3.21,3.98"/>
              <path class="cls-3" d="M69.1,43.61c-2.4-.33-5.01-.75-7.44-1.06-.48-.06-.95-.12-1.42-.18-.41-.05-.78-.1-1.17-.08-.54.02-1.03.23-1.49.49"/>
              <path class="cls-3" d="M58.34,42.72c-.87.27-1.16.79-1.43,1.6-.13.38-.26.78-.35,1.15-.07.32-.1.66-.15.99-.13.96-.34,1.97-.47,2.91"/>
            </g>
            <path class="cls-3" d="M30.06,36.83c1.88-.43,3.71-.88,5.6-1.26"/>
            <path class="cls-3" d="M69.8,36.84c-1.51-.43-2.98-.88-4.5-1.26"/>
            <path class="cls-3" d="M69.94,36.45c-.08.28.14.51.37.6.27.12.74.24,1.07.34.4.12.79.2,1.21.22.3,0,.63.04.86-.18.15-.14.25-.34.36-.52.27-.47.46-1.12.66-1.64.12-.33.28-.89-.18-1-.3-.07-.55-.1-.9-.17-.3-.05-.62-.11-.86-.15-.36-.08-.65-.12-.96.16-.32.3-.54.68-.82,1.03-.2.27-.36.49-.5.71-.11.18-.26.4-.31.59h0Z"/>
            <path class="cls-3" d="M72.04,34.13c-.31.1-.47.4-.68.66-.23.31-.48.61-.7.92-.28.41-.7.79.06,1.04.35.13.65.29,1.01.37.19.04.4.09.58.14.37.09.93.21,1.09-.27.21-.42.68-1.36.82-1.66.09-.2.18-.42.21-.64,0-.1-.02-.2-.09-.27-.09-.09-.18-.09-.38-.11-.1-.01-.19-.02-.29-.03-.34-.04-.78-.09-1.1-.13-.18,0-.36-.08-.53-.01h0Z"/>
            <path class="cls-3" d="M72.28,34.34c-.13.04-.28.28-.4.43-.2.28-.46.59-.64.87-.22.35-.04.51.29.58.29.06.64.14.92.18.4.08.51-.05.68-.38.06-.1.11-.22.16-.32.15-.35.59-1.01.21-1.23-.16-.08-.34-.09-.52-.11-.22-.02-.53-.08-.71-.02h0Z"/>
            <path class="cls-3" d="M72.02,34.58c-.18.23-.53.59-.72.84-.32.39-.54.78.02.97.3.1.69.26,1.03.28.17,0,.36.02.51-.07.28-.2.35-.47.52-.78.13-.26.28-.56.36-.74.17-.31,0-.61-.34-.66"/>
            <path class="cls-3" d="M69.56,42.86v-.64l4.17.1-.02.77"/>
            <path class="cls-3" d="M72.98,42.92h-2.69c-.2,0-.37.16-.37.37v.38c0,.2.16.37.37.37h2.69c.08,0,.15-.02.21-.06.1-.07.16-.18.16-.3v-.38c0-.2-.16-.37-.37-.37Z"/>
            <path class="cls-3" d="M70.03,43.97h-.11c-.2,0-.37-.16-.37-.37v-.65c0-.2.16-.37.37-.37h3.2c.31,0,.57.26.57.57v.45c0,.2-.16.37-.37.37h-.12"/>
            <path class="cls-3" d="M32.81,58.21c.7-.07,1.45-.15,2.12-.2.72-.04,1.46-.06,2.21-.09.38-.01.76-.03,1.14-.04.57-.02,1.03-.02,1.53-.2.45-.18,1.08-.45,1.33-.88.08-.14.11-.31.12-.48.06-.6.17-1.74.28-2.88.11-1.19.21-2.22.31-3.29"/>
            <polyline class="cls-3" points="30.07 48.23 29.71 50.51 29.31 53.3 29.08 55.46 29.07 56.67"/>
            <polyline class="cls-3" points="41.19 56.67 41.63 57.38 42.05 58.16 42.39 58.88"/>
            <path class="cls-3" d="M60.77,58.31c.1-.29.36-.46.61-.63.29-.21.51-.42.8-.62.3-.21.58-.38.8-.68.1-.13.21-.27.31-.4.25-.32.38-.76.54-1.14.08-.19.09-.31.1-.54,0-.22.02-.57.02-.81.02-.36-.01-.6-.05-.94-.04-.51-.26-.96-.52-1.4-.14-.25-.4-.48-.64-.68-.37-.33-.8-.59-1.21-.87"/>
            <polyline class="cls-3" points="63.57 49.15 64.07 49.81 64.44 50.28 65 51.48 65.33 51.96 65.93 51.96 67.4 51.96 67.64 51.89"/>
            <path class="cls-3" d="M63.98,49.06c.27.37.55.73.78,1.13.36.6.42,1.09,1.25,1.06.65-.04,1.36-.09,2.01-.13.77-.04,1.59-.05,2.24.41,1.16.73,1.24,1.27,1.49,2.54.18,1.17-.26,1.95-1.26,2.55-.51.26-1.06.45-1.61.53-.42.05-.95.07-1.36.1-1,.07-2.29.16-3.28.23-.6.04-1.2.12-1.81.18-.31.03-.64.08-.9.18-.26.1-.51.26-.77.41"/>
            <ellipse class="cls-3" cx="60.03" cy="53.91" rx="2.19" ry="2.21"/>
            <ellipse class="cls-3" cx="59.86" cy="53.69" rx=".85" ry=".92"/>
            <ellipse class="cls-3" cx="60.13" cy="53.93" rx="3.22" ry="3.13" transform="translate(-10.6 92.92) rotate(-70.76)"/>
            <path class="cls-3" d="M60.03,49.95c.29-.02.59,0,.89.07,1.95.43,3.14,2.52,2.67,4.68-.23,1.04-.8,1.91-1.56,2.48"/>
            <ellipse class="cls-3" cx="68.71" cy="54.35" rx="2" ry="1.98"/>
            <circle class="cls-3" cx="68.66" cy="54.38" r="2.26"/>
            <ellipse class="cls-3" cx="68.54" cy="54.4" rx="2.6" ry="2.55" transform="translate(-.98 1.26) rotate(-1.04)"/>
          </g>
          <path class="cls-3" d="M30.32,32.74c0,.29-.57.53-1.28.53s-1.28-.24-1.28-.53"/>
          <path class="cls-3" d="M73.14,32.74c0,.29-.57.53-1.28.53s-1.28-.24-1.28-.53"/>
        </g>
      </g>
      <g>
        <path class="cls-2" d="M53.59,51.12c2.28-2.28,5.61-2.87,8.43-1.78"/>
        <path class="cls-4" d="M61.33,49.1l-.03-1.69h.06s1.55,1.99,1.55,1.99c.61.57,1.23,1.14,1.84,1.71-.8-.26-1.59-.52-2.39-.78l-2.5-.39-.03-.05,1.49-.81Z"/>
      </g>
    </g>
  </g>
</svg>