<?xml version="1.0" encoding="UTF-8"?>
<svg id="_图层_2" data-name="图层 2" xmlns="http://www.w3.org/2000/svg" viewBox="0 0 119.12 79.31">
  <defs>
    <style>
      .cls-1 {
        stroke: #565757;
      }

      .cls-1, .cls-2 {
        stroke-linecap: square;
      }

      .cls-1, .cls-2, .cls-3 {
        fill: none;
        stroke-miterlimit: 10;
        stroke-width: .23px;
      }

      .cls-2, .cls-3 {
        stroke: #585757;
      }

      .cls-4 {
        fill: #585757;
        font-family: TimesNewRomanPSMT, 'Times New Roman';
        font-size: 7px;
      }
    </style>
  </defs>
  <g id="_图层_1-2" data-name="图层 1">
    <g>
      <line class="cls-3" x1="56.87" y1="14.32" x2="87.51" y2="14.32"/>
      <text class="cls-4" transform="translate(89.05 17.67)"><tspan x="0" y="0">Power On</tspan></text>
      <line class="cls-3" x1="39.25" y1="36.21" x2="87.51" y2="36.21"/>
      <text class="cls-4" transform="translate(89.05 39.56)"><tspan x="0" y="0">Lock Hole</tspan></text>
      <polyline class="cls-3" points="87.51 53.54 9.21 53.54 9.21 47.14"/>
      <polyline class="cls-3" points="88.38 25.85 25.58 25.85 25.58 19.45"/>
      <text class="cls-4" transform="translate(89.11 27.99)"><tspan x="0" y="0">Seat Lock</tspan></text>
      <text class="cls-4" transform="translate(89.43 56.54)"><tspan x="0" y="0">Anti-theft </tspan></text>
      <text class="cls-4" transform="translate(89.49 64.7)"><tspan x="0" y="0">Lock</tspan></text>
      <polyline class="cls-3" points="87.51 2.47 40.22 2.47 40.22 9.37"/>
      <text class="cls-4" transform="translate(89.05 5.82)"><tspan x="0" y="0">Power Off</tspan></text>
      <line class="cls-2" x1="41.17" y1="45.66" x2="36.61" y2="45.66"/>
      <line class="cls-2" x1="40.9" y1="45.39" x2="36.88" y2="45.39"/>
      <line class="cls-2" x1="36.61" y1="35.1" x2="36.61" y2="45.66"/>
      <line class="cls-2" x1="36.88" y1="35.37" x2="36.88" y2="45.39"/>
      <line class="cls-2" x1="41.17" y1="35.1" x2="40.9" y2="35.37"/>
      <line class="cls-2" x1="41.17" y1="45.66" x2="40.9" y2="45.39"/>
      <line class="cls-2" x1="40.9" y1="35.37" x2="40.9" y2="45.39"/>
      <line class="cls-2" x1="41.17" y1="35.1" x2="41.17" y2="45.66"/>
      <line class="cls-2" x1="36.88" y1="45.39" x2="36.61" y2="45.66"/>
      <line class="cls-2" x1="36.61" y1="35.1" x2="36.88" y2="35.37"/>
      <line class="cls-2" x1="36.88" y1="35.37" x2="40.9" y2="35.37"/>
      <line class="cls-2" x1="36.61" y1="35.1" x2="41.17" y2="35.1"/>
      <line class="cls-1" x1="43.94" y1="70.4" x2="43.57" y2="70.46"/>
      <line class="cls-1" x1="41.71" y1="70.72" x2="41.34" y2="70.74"/>
      <line class="cls-1" x1="39.58" y1="70.83" x2="39.21" y2="70.85"/>
      <line class="cls-1" x1="38.35" y1="70.84" x2="36.1" y2="70.72"/>
      <line class="cls-1" x1="34.33" y1="70.48" x2="33.83" y2="70.4"/>
      <line class="cls-1" x1="21.82" y1="16.95" x2="21.92" y2="16.81"/>
      <line class="cls-1" x1="25.03" y1="13.82" x2="25.18" y2="13.62"/>
      <line class="cls-1" x1="22.17" y1="17.05" x2="21.98" y2="17.26"/>
      <line class="cls-1" x1="24.42" y1="16.66" x2="24.58" y2="16.49"/>
      <line class="cls-1" x1="25.5" y1="13.77" x2="25.38" y2="13.9"/>
      <line class="cls-1" x1="24.8" y1="16.75" x2="24.6" y2="16.95"/>
      <line class="cls-1" x1="25.18" y1="13.62" x2="25.35" y2="13.47"/>
      <line class="cls-1" x1="26.69" y1="15.41" x2="26.87" y2="15.26"/>
      <line class="cls-1" x1="27.07" y1="15.54" x2="26.84" y2="15.71"/>
      <line class="cls-1" x1="20.03" y1="16.88" x2="21.1" y2="16.08"/>
      <line class="cls-1" x1="21.31" y1="16.27" x2="20.46" y2="16.91"/>
      <line class="cls-1" x1="20.98" y1="17.59" x2="21.82" y2="16.95"/>
      <line class="cls-1" x1="21.98" y1="17.26" x2="21.18" y2="17.86"/>
      <line class="cls-1" x1="21.9" y1="18.82" x2="21.63" y2="19.02"/>
      <line class="cls-1" x1="22.25" y1="15.25" x2="22.53" y2="15.08"/>
      <line class="cls-1" x1="23.67" y1="14.38" x2="23.95" y2="14.2"/>
      <line class="cls-1" x1="24.23" y1="16.77" x2="24.42" y2="16.66"/>
      <line class="cls-1" x1="24.6" y1="16.95" x2="24.41" y2="17.06"/>
      <line class="cls-1" x1="25.35" y1="13.47" x2="25.6" y2="13.34"/>
      <line class="cls-1" x1="25.8" y1="13.62" x2="25.5" y2="13.77"/>
      <line class="cls-1" x1="26.53" y1="13.58" x2="26.23" y2="13.73"/>
      <line class="cls-1" x1="25.86" y1="14.49" x2="26.16" y2="14.34"/>
      <line class="cls-1" x1="26.31" y1="14.64" x2="26.01" y2="14.79"/>
      <line class="cls-1" x1="25.42" y1="15.6" x2="25.72" y2="15.45"/>
      <line class="cls-1" x1="26.29" y1="15.61" x2="26.69" y2="15.41"/>
      <line class="cls-1" x1="26.84" y1="15.71" x2="26.44" y2="15.91"/>
      <line class="cls-1" x1="21.1" y1="16.08" x2="21.35" y2="15.96"/>
      <line class="cls-1" x1="27.04" y1="12.66" x2="27.35" y2="12.54"/>
      <polyline class="cls-1" points="28.81 11.98 29.12 11.86 30.08 14.35 29.77 14.47"/>
      <line class="cls-1" x1="27.74" y1="13.55" x2="29.19" y2="12.99"/>
      <line class="cls-1" x1="29.32" y1="13.31" x2="27.86" y2="13.87"/>
      <line class="cls-1" x1="28.31" y1="15.04" x2="28" y2="15.16"/>
      <line class="cls-1" x1="24.41" y1="17.07" x2="24.14" y2="17.16"/>
      <line class="cls-1" x1="21.48" y1="16.22" x2="21.31" y2="16.27"/>
      <line class="cls-1" x1="24.01" y1="16.84" x2="24.23" y2="16.77"/>
      <line class="cls-1" x1="44.45" y1="67.29" x2="43.46" y2="67.45"/>
      <line class="cls-1" x1="43.09" y1="67.51" x2="42.1" y2="67.67"/>
      <line class="cls-1" x1="42.04" y1="67.32" x2="44.39" y2="66.94"/>
      <line class="cls-1" x1="34.39" y1="70.06" x2="34.65" y2="70.03"/>
      <line class="cls-1" x1="34.65" y1="70.46" x2="34.33" y2="70.48"/>
      <line class="cls-1" x1="41.04" y1="69.9" x2="39.79" y2="69.96"/>
      <line class="cls-1" x1="39.84" y1="69.67" x2="40.96" y2="69.62"/>
      <line class="cls-1" x1="40.04" y1="67.45" x2="40.54" y2="67.43"/>
      <line class="cls-1" x1="36.5" y1="70.31" x2="38.37" y2="70.41"/>
      <line class="cls-1" x1="38.19" y1="69.26" x2="36.56" y2="69.17"/>
      <line class="cls-1" x1="36.58" y1="68.75" x2="38.21" y2="68.83"/>
      <line class="cls-1" x1="38.51" y1="67.92" x2="36.63" y2="67.82"/>
      <line class="cls-1" x1="36.28" y1="67.37" x2="38.53" y2="67.5"/>
      <line class="cls-1" x1="33.9" y1="69.98" x2="34.39" y2="70.06"/>
      <line class="cls-1" x1="33.11" y1="69.35" x2="33.48" y2="69.41"/>
      <line class="cls-1" x1="34.56" y1="69" x2="34.19" y2="68.94"/>
      <line class="cls-1" x1="34.26" y1="68.52" x2="34.63" y2="68.58"/>
      <line class="cls-1" x1="35.47" y1="68.07" x2="35.1" y2="68.01"/>
      <line class="cls-1" x1="34.78" y1="67.6" x2="34.41" y2="67.54"/>
      <line class="cls-1" x1="34.48" y1="67.11" x2="34.79" y2="67.16"/>
      <line class="cls-1" x1="33.83" y1="70.4" x2="33.53" y2="70.28"/>
      <line class="cls-1" x1="34.63" y1="68.58" x2="34.93" y2="68.7"/>
      <line class="cls-1" x1="33.66" y1="69.87" x2="33.9" y2="69.98"/>
      <line class="cls-1" x1="34.19" y1="68.94" x2="33.95" y2="68.83"/>
      <line class="cls-1" x1="34.8" y1="69.11" x2="34.56" y2="69"/>
      <line class="cls-1" x1="25.38" y1="13.9" x2="25.28" y2="14.07"/>
      <line class="cls-1" x1="20.77" y1="22.54" x2="22.12" y2="20.16"/>
      <line class="cls-1" x1="24.93" y1="16.54" x2="24.8" y2="16.75"/>
      <line class="cls-1" x1="27.22" y1="15.34" x2="27.07" y2="15.54"/>
      <line class="cls-1" x1="33.39" y1="15.53" x2="31.19" y2="16.94"/>
      <line class="cls-1" x1="36.1" y1="12.88" x2="36.74" y2="12.51"/>
      <line class="cls-1" x1="37.21" y1="12.24" x2="38.36" y2="11.58"/>
      <line class="cls-1" x1="38.89" y1="11.27" x2="40.3" y2="10.46"/>
      <line class="cls-1" x1="40.77" y1="10.19" x2="41.41" y2="9.82"/>
      <line class="cls-1" x1="41.68" y1="10.28" x2="41.04" y2="10.65"/>
      <line class="cls-1" x1="40.57" y1="10.92" x2="39.43" y2="11.58"/>
      <line class="cls-1" x1="38.89" y1="11.89" x2="37.48" y2="12.71"/>
      <line class="cls-1" x1="37.01" y1="12.98" x2="36.37" y2="13.35"/>
      <line class="cls-1" x1="23.13" y1="21.41" x2="20.77" y2="22.54"/>
      <line class="cls-1" x1="34.41" y1="67.54" x2="34.22" y2="67.58"/>
      <line class="cls-1" x1="34.22" y1="67.15" x2="34.48" y2="67.11"/>
      <line class="cls-1" x1="34.79" y1="67.16" x2="35.09" y2="67.28"/>
      <line class="cls-1" x1="34.08" y1="68.42" x2="34.26" y2="68.52"/>
      <line class="cls-1" x1="34.96" y1="67.7" x2="34.78" y2="67.6"/>
      <line class="cls-1" x1="33.95" y1="68.83" x2="33.73" y2="68.65"/>
      <line class="cls-1" x1="34.93" y1="68.7" x2="35.15" y2="68.88"/>
      <line class="cls-1" x1="33.53" y1="70.28" x2="33.26" y2="70.02"/>
      <line class="cls-1" x1="22.25" y1="16.78" x2="22.17" y2="17.05"/>
      <line class="cls-1" x1="24.93" y1="14.12" x2="25.03" y2="13.82"/>
      <line class="cls-1" x1="24.58" y1="16.49" x2="24.66" y2="16.31"/>
      <line class="cls-1" x1="26.87" y1="15.26" x2="26.96" y2="15.08"/>
      <line class="cls-1" x1="39.7" y1="12.63" x2="38.49" y2="13.69"/>
      <line class="cls-1" x1="33.92" y1="68.25" x2="34.08" y2="68.42"/>
      <line class="cls-1" x1="34.96" y1="69.28" x2="34.8" y2="69.11"/>
      <line class="cls-1" x1="35.09" y1="67.28" x2="35.3" y2="67.53"/>
      <line class="cls-1" x1="33.51" y1="69.63" x2="33.66" y2="69.87"/>
      <line class="cls-1" x1="21.92" y1="16.81" x2="21.94" y2="16.65"/>
      <line class="cls-1" x1="25" y1="16.23" x2="24.93" y2="16.54"/>
      <line class="cls-1" x1="27.31" y1="15.03" x2="27.22" y2="15.34"/>
      <line class="cls-1" x1="33.73" y1="68.65" x2="33.53" y2="68.33"/>
      <line class="cls-1" x1="35.15" y1="68.88" x2="35.35" y2="69.2"/>
      <line class="cls-1" x1="35.06" y1="67.86" x2="34.96" y2="67.7"/>
      <line class="cls-1" x1="22.24" y1="16.5" x2="22.25" y2="16.78"/>
      <line class="cls-1" x1="24.66" y1="16.31" x2="24.67" y2="16.1"/>
      <line class="cls-1" x1="26.96" y1="15.08" x2="26.99" y2="14.88"/>
      <line class="cls-1" x1="37.99" y1="13.15" x2="37.72" y2="13.61"/>
      <line class="cls-1" x1="55.05" y1="63.77" x2="54.44" y2="63.48"/>
      <line class="cls-1" x1="35.3" y1="67.53" x2="35.44" y2="67.85"/>
      <line class="cls-1" x1="35.05" y1="69.51" x2="34.96" y2="69.28"/>
      <line class="cls-1" x1="33.26" y1="70.02" x2="33.13" y2="69.64"/>
      <line class="cls-1" x1="24.98" y1="15.98" x2="25.01" y2="16.23"/>
      <line class="cls-1" x1="27.31" y1="14.78" x2="27.31" y2="15.03"/>
      <line class="cls-1" x1="31.19" y1="16.94" x2="31.3" y2="16.44"/>
      <line class="cls-1" x1="35.35" y1="69.2" x2="35.43" y2="69.5"/>
      <line class="cls-1" x1="35.1" y1="68.01" x2="35.06" y2="67.86"/>
      <line class="cls-1" x1="22.12" y1="20.16" x2="22.22" y2="20.73"/>
      <line class="cls-1" x1="33.13" y1="69.64" x2="33.11" y2="69.35"/>
      <line class="cls-1" x1="33.52" y1="68.33" x2="33.51" y2="68.04"/>
      <line class="cls-1" x1="40.54" y1="67.43" x2="41.71" y2="70.72"/>
      <line class="cls-1" x1="41.34" y1="70.74" x2="41.04" y2="69.9"/>
      <line class="cls-1" x1="40.97" y1="69.62" x2="40.3" y2="67.72"/>
      <line class="cls-1" x1="21.94" y1="16.65" x2="21.89" y2="16.48"/>
      <line class="cls-1" x1="22.19" y1="16.33" x2="22.24" y2="16.5"/>
      <line class="cls-1" x1="24.98" y1="14.35" x2="24.93" y2="14.12"/>
      <line class="cls-1" x1="25.28" y1="14.07" x2="25.31" y2="14.25"/>
      <line class="cls-1" x1="33.48" y1="69.41" x2="33.51" y2="69.63"/>
      <line class="cls-1" x1="33.89" y1="68.03" x2="33.92" y2="68.25"/>
      <line class="cls-1" x1="35.44" y1="67.85" x2="35.47" y2="68.07"/>
      <line class="cls-1" x1="24.88" y1="15.7" x2="24.98" y2="15.98"/>
      <line class="cls-1" x1="24.67" y1="16.1" x2="24.59" y2="15.88"/>
      <line class="cls-1" x1="36.1" y1="70.72" x2="36.28" y2="67.37"/>
      <line class="cls-1" x1="36.63" y1="67.82" x2="36.58" y2="68.75"/>
      <line class="cls-1" x1="36.56" y1="69.17" x2="36.5" y2="70.31"/>
      <line class="cls-1" x1="33.51" y1="68.04" x2="33.55" y2="67.76"/>
      <line class="cls-1" x1="33.91" y1="67.89" x2="33.89" y2="68.03"/>
      <line class="cls-1" x1="21.63" y1="19.02" x2="20.03" y2="16.88"/>
      <line class="cls-1" x1="20.46" y1="16.91" x2="20.98" y2="17.59"/>
      <line class="cls-1" x1="21.18" y1="17.86" x2="21.9" y2="18.82"/>
      <line class="cls-1" x1="23.17" y1="16.76" x2="22.25" y2="15.25"/>
      <line class="cls-1" x1="22.53" y1="15.08" x2="23.46" y2="16.58"/>
      <line class="cls-1" x1="25.08" y1="14.55" x2="24.98" y2="14.35"/>
      <line class="cls-1" x1="25.31" y1="14.25" x2="25.36" y2="14.35"/>
      <line class="cls-1" x1="28" y1="15.16" x2="27.04" y2="12.66"/>
      <line class="cls-1" x1="27.35" y1="12.54" x2="27.74" y2="13.55"/>
      <line class="cls-1" x1="27.86" y1="13.87" x2="28.31" y2="15.04"/>
      <line class="cls-1" x1="47.44" y1="67.5" x2="47.64" y2="68.14"/>
      <line class="cls-1" x1="42.1" y1="67.67" x2="42.04" y2="67.32"/>
      <line class="cls-1" x1="43.56" y1="70.46" x2="43.09" y2="67.51"/>
      <line class="cls-1" x1="43.46" y1="67.45" x2="43.94" y2="70.4"/>
      <line class="cls-1" x1="38.21" y1="68.83" x2="38.18" y2="69.26"/>
      <line class="cls-1" x1="38.53" y1="67.5" x2="38.51" y2="67.92"/>
      <line class="cls-1" x1="38.37" y1="70.41" x2="38.35" y2="70.84"/>
      <line class="cls-1" x1="35.02" y1="69.72" x2="35.05" y2="69.51"/>
      <line class="cls-1" x1="35.43" y1="69.5" x2="35.38" y2="69.85"/>
      <line class="cls-1" x1="21.89" y1="16.48" x2="21.78" y2="16.34"/>
      <line class="cls-1" x1="22.05" y1="16.14" x2="22.19" y2="16.33"/>
      <line class="cls-1" x1="24.59" y1="15.88" x2="23.67" y2="14.38"/>
      <line class="cls-1" x1="23.95" y1="14.2" x2="24.88" y2="15.7"/>
      <line class="cls-1" x1="26.99" y1="14.88" x2="26.91" y2="14.72"/>
      <line class="cls-1" x1="27.19" y1="14.52" x2="27.31" y2="14.78"/>
      <line class="cls-1" x1="29.77" y1="14.47" x2="29.32" y2="13.31"/>
      <line class="cls-1" x1="29.19" y1="12.99" x2="28.81" y2="11.98"/>
      <text/>
      <line class="cls-1" x1="44.39" y1="66.94" x2="44.45" y2="67.29"/>
      <line class="cls-1" x1="33.55" y1="67.76" x2="33.66" y2="67.49"/>
      <line class="cls-1" x1="23.46" y1="16.58" x2="23.62" y2="16.75"/>
      <line class="cls-1" x1="23.37" y1="16.97" x2="23.17" y2="16.76"/>
      <line class="cls-1" x1="25.57" y1="15.78" x2="25.42" y2="15.6"/>
      <line class="cls-1" x1="25.24" y1="14.73" x2="25.08" y2="14.55"/>
      <line class="cls-1" x1="39.7" y1="12.63" x2="39.8" y2="13.14"/>
      <line class="cls-1" x1="39.91" y1="13.69" x2="40.01" y2="14.21"/>
      <line class="cls-1" x1="40.3" y1="67.72" x2="39.84" y2="69.67"/>
      <line class="cls-1" x1="39.79" y1="69.96" x2="39.59" y2="70.83"/>
      <line class="cls-1" x1="39.21" y1="70.85" x2="40.04" y2="67.45"/>
      <line class="cls-1" x1="34.01" y1="67.69" x2="33.91" y2="67.89"/>
      <line class="cls-1" x1="21.78" y1="16.34" x2="21.64" y2="16.24"/>
      <line class="cls-1" x1="21.9" y1="16.04" x2="22.05" y2="16.14"/>
      <line class="cls-1" x1="25.72" y1="15.45" x2="25.84" y2="15.58"/>
      <line class="cls-1" x1="25.36" y1="14.35" x2="25.48" y2="14.48"/>
      <line class="cls-1" x1="26.4" y1="13.45" x2="26.53" y2="13.58"/>
      <line class="cls-1" x1="35.38" y1="69.85" x2="35.21" y2="70.12"/>
      <line class="cls-1" x1="22.65" y1="21.24" x2="23.13" y2="21.41"/>
      <line class="cls-1" x1="23.58" y1="17.11" x2="23.37" y2="16.97"/>
      <line class="cls-1" x1="25.84" y1="15.96" x2="25.57" y2="15.78"/>
      <line class="cls-1" x1="26.98" y1="14.37" x2="27.19" y2="14.52"/>
      <line class="cls-1" x1="26.23" y1="13.73" x2="26.13" y2="13.65"/>
      <line class="cls-1" x1="31.09" y1="15.81" x2="30.67" y2="15.42"/>
      <line class="cls-1" x1="55.5" y1="65.08" x2="55.43" y2="64.32"/>
      <line class="cls-1" x1="34.86" y1="69.92" x2="35.02" y2="69.72"/>
      <line class="cls-1" x1="23.62" y1="16.75" x2="23.81" y2="16.83"/>
      <line class="cls-1" x1="26.91" y1="14.72" x2="26.74" y2="14.62"/>
      <line class="cls-1" x1="33.66" y1="67.49" x2="33.95" y2="67.25"/>
      <line class="cls-1" x1="35.21" y1="70.12" x2="34.92" y2="70.36"/>
      <line class="cls-1" x1="23.89" y1="17.18" x2="23.58" y2="17.11"/>
      <line class="cls-1" x1="21.63" y1="15.96" x2="21.9" y2="16.04"/>
      <line class="cls-1" x1="25.84" y1="15.58" x2="26.07" y2="15.65"/>
      <line class="cls-1" x1="25.54" y1="14.84" x2="25.24" y2="14.73"/>
      <line class="cls-1" x1="26.68" y1="14.27" x2="26.98" y2="14.37"/>
      <line class="cls-1" x1="26.15" y1="13.32" x2="26.4" y2="13.45"/>
      <line class="cls-1" x1="34.22" y1="67.58" x2="34.01" y2="67.69"/>
      <line class="cls-1" x1="34.65" y1="70.03" x2="34.86" y2="69.92"/>
      <line class="cls-1" x1="33.95" y1="67.25" x2="34.22" y2="67.15"/>
      <line class="cls-1" x1="21.35" y1="15.95" x2="21.63" y2="15.96"/>
      <line class="cls-1" x1="23.81" y1="16.83" x2="24.01" y2="16.84"/>
      <line class="cls-1" x1="26.17" y1="15.99" x2="25.84" y2="15.96"/>
      <line class="cls-1" x1="25.48" y1="14.48" x2="25.68" y2="14.51"/>
      <line class="cls-1" x1="26.74" y1="14.62" x2="26.53" y2="14.59"/>
      <text/>
      <line class="cls-1" x1="25.88" y1="13.27" x2="26.15" y2="13.32"/>
      <line class="cls-1" x1="26.13" y1="13.65" x2="25.98" y2="13.6"/>
      <line class="cls-1" x1="34.92" y1="70.36" x2="34.65" y2="70.46"/>
      <line class="cls-1" x1="54.44" y1="63.47" x2="57.37" y2="62.42"/>
      <line class="cls-1" x1="26.44" y1="15.91" x2="26.17" y2="15.99"/>
      <line class="cls-1" x1="26.07" y1="15.66" x2="26.29" y2="15.61"/>
      <line class="cls-1" x1="26.01" y1="14.79" x2="25.79" y2="14.84"/>
      <line class="cls-1" x1="25.68" y1="14.51" x2="25.86" y2="14.49"/>
      <line class="cls-1" x1="24.14" y1="17.16" x2="23.89" y2="17.18"/>
      <line class="cls-1" x1="25.79" y1="14.84" x2="25.54" y2="14.84"/>
      <line class="cls-1" x1="26.43" y1="14.26" x2="26.68" y2="14.27"/>
      <line class="cls-1" x1="30.67" y1="15.42" x2="33.39" y2="15.53"/>
      <line class="cls-1" x1="40.01" y1="14.21" x2="38.49" y2="13.69"/>
      <line class="cls-1" x1="41.41" y1="13.35" x2="40.77" y2="12.98"/>
      <line class="cls-1" x1="40.3" y1="12.71" x2="38.89" y2="11.89"/>
      <line class="cls-1" x1="38.36" y1="11.58" x2="37.21" y2="10.92"/>
      <line class="cls-1" x1="36.74" y1="10.65" x2="36.1" y2="10.28"/>
      <line class="cls-1" x1="36.37" y1="9.82" x2="37.01" y2="10.19"/>
      <line class="cls-1" x1="37.48" y1="10.46" x2="38.89" y2="11.27"/>
      <line class="cls-1" x1="39.43" y1="11.58" x2="40.57" y2="12.24"/>
      <line class="cls-1" x1="41.04" y1="12.51" x2="41.68" y2="12.88"/>
      <line class="cls-1" x1="57.37" y1="62.42" x2="55.5" y2="65.08"/>
      <line class="cls-1" x1="26.16" y1="14.34" x2="26.43" y2="14.26"/>
      <line class="cls-1" x1="25.6" y1="13.34" x2="25.88" y2="13.27"/>
      <line class="cls-1" x1="26.54" y1="14.59" x2="26.31" y2="14.64"/>
      <line class="cls-1" x1="25.98" y1="13.6" x2="25.8" y2="13.62"/>
      <path class="cls-1" d="M47.64,68.14c2.77-.88,5.4-2.16,7.8-3.82"/>
      <path class="cls-1" d="M47.44,67.5c2.71-.85,5.28-2.11,7.62-3.73"/>
      <g>
        <path class="cls-1" d="M41.68,10.28c-.08-.16-.17-.32-.27-.46"/>
        <path class="cls-1" d="M41.04,12.51c.26-.59.26-1.27,0-1.86"/>
        <path class="cls-1" d="M41.41,13.35c.1-.15.19-.3.27-.46"/>
        <path class="cls-1" d="M39.91,13.69c.34-.16.64-.41.86-.71"/>
        <path class="cls-1" d="M31.09,15.81c-3.26,1.04-6.27,2.71-8.87,4.93"/>
      </g>
      <path class="cls-1" d="M31.3,16.44c-3.17,1.01-6.11,2.64-8.64,4.8"/>
      <g>
        <line class="cls-1" x1="8.25" y1="43" x2="8.2" y2="42.34"/>
        <line class="cls-1" x1="8.71" y1="42.3" x2="8.76" y2="42.97"/>
        <line class="cls-1" x1="8.2" y1="38.4" x2="8.25" y2="37.64"/>
        <line class="cls-1" x1="8.76" y1="37.68" x2="8.71" y2="38.43"/>
        <line class="cls-1" x1="8.2" y1="42.34" x2="8.25" y2="41.91"/>
        <line class="cls-1" x1="8.53" y1="35.25" x2="8.64" y2="34.75"/>
        <line class="cls-1" x1="9.03" y1="32.96" x2="9.17" y2="32.3"/>
        <line class="cls-1" x1="8.25" y1="37.64" x2="8.37" y2="37.23"/>
        <line class="cls-1" x1="8.36" y1="43.41" x2="8.25" y2="43"/>
        <line class="cls-1" x1="9.2" y1="48.52" x2="9.09" y2="48.03"/>
        <line class="cls-1" x1="8.25" y1="38.82" x2="8.2" y2="38.4"/>
        <line class="cls-1" x1="11.74" y1="42.74" x2="11.69" y2="42.07"/>
        <line class="cls-1" x1="9.36" y1="36.55" x2="9.33" y2="37.05"/>
        <line class="cls-1" x1="11.28" y1="37.2" x2="11.32" y2="36.7"/>
        <line class="cls-1" x1="11.69" y1="38.65" x2="11.74" y2="37.9"/>
        <line class="cls-1" x1="8.77" y1="41.96" x2="8.71" y2="42.3"/>
        <line class="cls-1" x1="8.87" y1="37.35" x2="8.77" y2="37.68"/>
        <line class="cls-1" x1="8.25" y1="41.91" x2="8.4" y2="41.57"/>
        <line class="cls-1" x1="8.37" y1="37.23" x2="8.56" y2="36.91"/>
        <line class="cls-1" x1="8.56" y1="43.74" x2="8.36" y2="43.41"/>
        <line class="cls-1" x1="8.4" y1="39.17" x2="8.25" y2="38.82"/>
        <line class="cls-1" x1="8.76" y1="42.97" x2="8.87" y2="43.29"/>
        <line class="cls-1" x1="12.5" y1="47.27" x2="11.96" y2="44.81"/>
        <line class="cls-1" x1="8.71" y1="38.43" x2="8.77" y2="38.77"/>
        <line class="cls-1" x1="12.2" y1="42.04" x2="12.25" y2="42.7"/>
        <line class="cls-1" x1="12.25" y1="37.94" x2="12.2" y2="38.69"/>
        <line class="cls-1" x1="12.25" y1="42.7" x2="12.19" y2="43.13"/>
        <line class="cls-1" x1="11.68" y1="43.08" x2="11.74" y2="42.74"/>
        <line class="cls-1" x1="13.09" y1="33.16" x2="12.95" y2="33.82"/>
        <line class="cls-1" x1="12.55" y1="35.62" x2="12.45" y2="36.11"/>
        <line class="cls-1" x1="12.2" y1="38.69" x2="12.08" y2="39.1"/>
        <line class="cls-1" x1="11.58" y1="38.98" x2="11.69" y2="38.65"/>
        <line class="cls-1" x1="12.19" y1="43.13" x2="12.05" y2="43.47"/>
        <line class="cls-1" x1="8.92" y1="41.69" x2="8.77" y2="41.96"/>
        <line class="cls-1" x1="12.08" y1="39.1" x2="11.89" y2="39.42"/>
        <line class="cls-1" x1="9.06" y1="37.12" x2="8.87" y2="37.35"/>
        <line class="cls-1" x1="8.87" y1="43.29" x2="9.06" y2="43.53"/>
        <line class="cls-1" x1="11.89" y1="41.3" x2="12.08" y2="41.62"/>
        <line class="cls-1" x1="8.77" y1="38.77" x2="8.92" y2="39.04"/>
        <line class="cls-1" x1="12.05" y1="37.17" x2="12.2" y2="37.52"/>
        <line class="cls-1" x1="11.69" y1="42.07" x2="11.58" y2="41.75"/>
        <line class="cls-1" x1="12.08" y1="41.62" x2="12.2" y2="42.03"/>
        <line class="cls-1" x1="12.46" y1="44.7" x2="13.11" y2="47.64"/>
        <line class="cls-1" x1="11.74" y1="37.9" x2="11.68" y2="37.56"/>
        <line class="cls-1" x1="12.2" y1="37.52" x2="12.26" y2="37.94"/>
        <line class="cls-1" x1="11.53" y1="43.34" x2="11.68" y2="43.08"/>
        <line class="cls-1" x1="11.39" y1="39.22" x2="11.58" y2="38.98"/>
        <line class="cls-1" x1="8.4" y1="41.57" x2="8.71" y2="41.21"/>
        <line class="cls-1" x1="8.56" y1="36.91" x2="8.93" y2="36.6"/>
        <line class="cls-1" x1="8.93" y1="44.04" x2="8.56" y2="43.74"/>
        <line class="cls-1" x1="8.71" y1="39.52" x2="8.4" y2="39.17"/>
        <line class="cls-1" x1="11.58" y1="41.75" x2="11.39" y2="41.51"/>
        <line class="cls-1" x1="10.55" y1="35.18" x2="9.03" y2="32.96"/>
        <line class="cls-1" x1="10.76" y1="34.62" x2="11.22" y2="35.32"/>
        <line class="cls-1" x1="11.68" y1="37.56" x2="11.53" y2="37.3"/>
        <line class="cls-1" x1="12.05" y1="43.47" x2="11.73" y2="43.83"/>
        <line class="cls-1" x1="11.89" y1="39.42" x2="11.52" y2="39.73"/>
        <line class="cls-1" x1="9.16" y1="41.51" x2="8.92" y2="41.69"/>
        <line class="cls-1" x1="9.06" y1="43.53" x2="9.33" y2="43.68"/>
        <line class="cls-1" x1="8.92" y1="39.04" x2="9.16" y2="39.22"/>
        <line class="cls-1" x1="11.52" y1="41" x2="11.89" y2="41.3"/>
        <line class="cls-1" x1="11.74" y1="36.81" x2="12.05" y2="37.17"/>
        <line class="cls-1" x1="9.17" y1="32.3" x2="10.43" y2="34.12"/>
        <line class="cls-1" x1="11.28" y1="43.53" x2="11.53" y2="43.34"/>
        <line class="cls-1" x1="8.71" y1="41.21" x2="9.04" y2="41.01"/>
        <line class="cls-1" x1="11.12" y1="39.37" x2="11.39" y2="39.22"/>
        <line class="cls-1" x1="12.95" y1="33.82" x2="10.76" y2="34.62"/>
        <line class="cls-1" x1="10.43" y1="34.12" x2="13.09" y2="33.16"/>
        <line class="cls-1" x1="9.28" y1="44.18" x2="8.93" y2="44.04"/>
        <line class="cls-1" x1="11.39" y1="41.51" x2="11.12" y2="41.36"/>
        <line class="cls-1" x1="9.04" y1="39.72" x2="8.71" y2="39.52"/>
        <line class="cls-1" x1="11.73" y1="43.83" x2="11.41" y2="44.02"/>
        <line class="cls-1" x1="11.52" y1="39.73" x2="11.17" y2="39.87"/>
        <line class="cls-1" x1="11.17" y1="40.85" x2="11.52" y2="41"/>
        <line class="cls-1" x1="9.5" y1="41.4" x2="9.16" y2="41.51"/>
        <line class="cls-1" x1="9.71" y1="44.24" x2="9.28" y2="44.19"/>
        <line class="cls-1" x1="9.33" y1="43.68" x2="9.67" y2="43.73"/>
        <line class="cls-1" x1="9.46" y1="39.83" x2="9.04" y2="39.72"/>
        <line class="cls-1" x1="9.16" y1="39.22" x2="9.5" y2="39.33"/>
        <line class="cls-1" x1="11.53" y1="37.3" x2="11.28" y2="37.2"/>
        <line class="cls-1" x1="10.95" y1="43.64" x2="11.28" y2="43.53"/>
        <line class="cls-1" x1="10.74" y1="40.8" x2="11.17" y2="40.85"/>
        <line class="cls-1" x1="11.12" y1="41.36" x2="10.77" y2="41.3"/>
        <line class="cls-1" x1="11.32" y1="36.7" x2="11.74" y2="36.81"/>
        <line class="cls-1" x1="13.11" y1="47.64" x2="9.2" y2="48.52"/>
        <line class="cls-1" x1="9.09" y1="48.03" x2="12.5" y2="47.27"/>
        <line class="cls-1" x1="10.99" y1="44.14" x2="9.71" y2="44.24"/>
        <line class="cls-1" x1="9.67" y1="43.74" x2="10.95" y2="43.64"/>
        <line class="cls-1" x1="10.74" y1="39.93" x2="9.46" y2="39.83"/>
        <line class="cls-1" x1="9.5" y1="39.33" x2="10.78" y2="39.42"/>
        <line class="cls-1" x1="12.45" y1="36.11" x2="8.53" y2="35.25"/>
        <line class="cls-1" x1="8.64" y1="34.76" x2="10.55" y2="35.18"/>
        <line class="cls-1" x1="11.22" y1="35.32" x2="12.55" y2="35.62"/>
        <line class="cls-1" x1="11.41" y1="44.03" x2="10.99" y2="44.14"/>
        <line class="cls-1" x1="11.96" y1="44.81" x2="12.46" y2="44.7"/>
        <line class="cls-1" x1="11.17" y1="39.87" x2="10.74" y2="39.93"/>
        <line class="cls-1" x1="10.77" y1="41.3" x2="9.5" y2="41.4"/>
        <line class="cls-1" x1="9.46" y1="40.9" x2="10.74" y2="40.8"/>
        <line class="cls-1" x1="10.78" y1="39.42" x2="11.12" y2="39.37"/>
        <line class="cls-1" x1="9.04" y1="41.01" x2="9.46" y2="40.9"/>
        <line class="cls-1" x1="9.32" y1="37.05" x2="9.06" y2="37.12"/>
        <line class="cls-1" x1="8.93" y1="36.6" x2="9.36" y2="36.55"/>
        <g>
          <path class="cls-1" d="M14.29,40.37c0-.44-.36-.8-.8-.8s-.8.36-.8.8.36.8.8.8.8-.36.8-.8Z"/>
          <path class="cls-1" d="M37.48,12.71c.14.18.31.33.51.44"/>
          <path class="cls-1" d="M37.01,12.98c.19.26.43.47.71.63"/>
          <path class="cls-1" d="M36.1,12.88c.08.16.16.32.27.46"/>
        </g>
      </g>
      <path class="cls-1" d="M36.74,10.65c-.26.6-.26,1.27,0,1.86"/>
      <path class="cls-1" d="M36.37,9.82c-.1.15-.19.3-.27.46"/>
      <path class="cls-1" d="M40.77,10.19c-.77-1.04-2.24-1.26-3.27-.49-.18.14-.35.3-.49.49"/>
      <g>
        <path class="cls-1" d="M39.8,13.14c.19-.11.36-.26.5-.44"/>
        <path class="cls-1" d="M37.21,10.92c-.17.43-.17.9,0,1.32"/>
        <path class="cls-1" d="M40.57,12.24c.17-.42.17-.9,0-1.32"/>
        <path class="cls-1" d="M40.3,10.46c-.62-.78-1.76-.91-2.54-.29-.11.09-.2.18-.29.29"/>
      </g>
      <path class="cls-1" d="M39.69,14.93c0-.44-.36-.8-.8-.8s-.8.36-.8.8.36.8.8.8.8-.36.8-.8Z"/>
      <g>
        <line class="cls-1" x1="53.75" y1="17.55" x2="53.26" y2="17.78"/>
        <line class="cls-1" x1="54.15" y1="18.54" x2="55.69" y2="18.07"/>
        <line class="cls-1" x1="55.69" y1="18.07" x2="55.57" y2="18.59"/>
        <line class="cls-1" x1="55.45" y1="19.13" x2="55.33" y2="19.64"/>
        <line class="cls-1" x1="55.33" y1="19.64" x2="54.15" y2="18.54"/>
        <path class="cls-1" d="M54.27,19.53c0-.44-.36-.8-.8-.8s-.8.36-.8.8.36.8.8.8.8-.36.8-.8Z"/>
        <path class="cls-1" d="M55.57,18.59c.99-.1,1.71-.99,1.61-1.99-.1-.99-.99-1.71-1.98-1.61-.99.1-1.71.99-1.61,1.99.02.2.07.39.16.57"/>
        <path class="cls-1" d="M55.45,19.13c1.29-.04,2.31-1.11,2.27-2.41-.03-1.29-1.11-2.31-2.4-2.28-1.29.04-2.31,1.11-2.28,2.41,0,.32.08.64.22.93"/>
      </g>
      <path class="cls-1" d="M77.67,40.37C77.67,18.92,60.31,1.54,38.89,1.54S.11,18.92.11,40.37s17.36,38.83,38.78,38.83,38.78-17.38,38.78-38.83Z"/>
      <path class="cls-1" d="M75.16,40.37c0-20.06-16.24-36.31-36.27-36.31S2.62,20.31,2.62,40.37s16.24,36.31,36.27,36.31,36.27-16.26,36.27-36.31Z"/>
      <circle class="cls-1" cx="38.87" cy="40.22" r="23.28"/>
    </g>
  </g>
</svg>