<?xml version="1.0" encoding="UTF-8"?>
<svg id="_图层_2" data-name="图层 2" xmlns="http://www.w3.org/2000/svg" viewBox="0 0 5.29 6.12">
  <defs>
    <style>
      .cls-1 {
        fill: none;
        stroke: #565757;
        stroke-linecap: square;
        stroke-miterlimit: 10;
        stroke-width: .23px;
      }
    </style>
  </defs>
  <g id="_图层_1-2" data-name="图层 1">
    <g>
      <line class="cls-1" x1="1.2" y1="3.22" x2=".71" y2="3.45"/>
      <line class="cls-1" x1="1.61" y1="4.21" x2="3.14" y2="3.74"/>
      <line class="cls-1" x1="3.14" y1="3.74" x2="3.02" y2="4.25"/>
      <line class="cls-1" x1="2.9" y1="4.8" x2="2.78" y2="5.31"/>
      <line class="cls-1" x1="2.78" y1="5.31" x2="1.61" y2="4.21"/>
      <path class="cls-1" d="M1.72,5.2c0-.44-.36-.8-.8-.8s-.8.36-.8.8.36.8.8.8.8-.36.8-.8Z"/>
      <path class="cls-1" d="M3.02,4.25c.99-.1,1.71-.99,1.61-1.99-.1-.99-.99-1.71-1.98-1.61-.99.1-1.71.99-1.61,1.99.02.2.07.39.16.57"/>
      <path class="cls-1" d="M2.9,4.8c1.29-.04,2.31-1.11,2.27-2.41C5.14,1.1,4.06.08,2.77.11,1.48.15.46,1.23.49,2.52c0,.32.08.64.22.93"/>
    </g>
  </g>
</svg>