<?xml version="1.0" encoding="UTF-8"?>
<svg id="_图层_2" data-name="图层 2" xmlns="http://www.w3.org/2000/svg" viewBox="0 0 21.15 4.86">
  <defs>
    <style>
      .cls-1 {
        fill: none;
        stroke: #0e0408;
        stroke-linecap: square;
        stroke-miterlimit: 10;
        stroke-width: .12px;
      }
    </style>
  </defs>
  <g id="_图层_1-2" data-name="图层 1">
    <g>
      <line class="cls-1" x1="1.06" y1=".84" x2="1.06" y2=".84"/>
      <polyline class="cls-1" points="1.06 .84 1.06 .86 1.06 .91 1.06 .97 1.06 1.05 1.06 1.28 1.06 1.52 1.06 1.77 1.06 1.98 1.06 2.08 1.06 2.14 1.06 2.19 1.06 2.21"/>
      <polyline class="cls-1" points="1.06 2.21 1.07 2.21 1.14 2.21 1.3 2.21 1.47 2.21 1.52 2.21 1.55 2.21"/>
      <polyline class="cls-1" points="1.55 2.21 1.72 2.19 1.86 2.14 2 2.08 2.12 2"/>
      <polyline class="cls-1" points="2.12 2 2.21 1.89 2.28 1.77 2.31 1.63 2.32 1.48 2.31 1.34 2.28 1.21 2.21 1.1 2.13 1 2.04 .94 1.89 .89 1.75 .86 1.57 .86"/>
      <polyline class="cls-1" points="1.57 .86 1.54 .86 1.49 .86 1.31 .86 1.14 .86 1.07 .86 1.06 .86"/>
      <line class="cls-1" x1="1.06" y1=".86" x2="1.06" y2=".84"/>
      <polyline class="cls-1" points="3.93 4.78 3.91 4.78 3.88 4.78 3.75 4.78 3.56 4.78 3.35 4.78 3.14 4.78 2.95 4.78 2.82 4.78 2.79 4.78 2.77 4.78"/>
      <polyline class="cls-1" points="2.77 4.78 2.77 4.76 2.74 4.73 2.71 4.66 2.66 4.58 2.55 4.39 2.41 4.17 2.28 3.94 2.15 3.75 2.12 3.67 2.07 3.6 2.05 3.57 2.04 3.56"/>
      <polyline class="cls-1" points="2.04 3.56 1.94 3.38 1.83 3.25 1.75 3.14 1.67 3.07"/>
      <line class="cls-1" x1="1.36" y1="3.07" x2="1.67" y2="2.96"/>
      <line class="cls-1" x1="1.06" y1="2.96" x2="1.36" y2="2.96"/>
      <polyline class="cls-1" points="1.06 2.96 1.06 2.98 1.06 3.04 1.06 3.12 1.06 3.23 1.06 3.54 1.06 3.86 1.06 4.2 1.06 4.49 1.06 4.6 1.06 4.69 1.06 4.76 1.06 4.78"/>
      <polyline class="cls-1" points="1.06 4.78 1.04 4.78 1.01 4.78 .9 4.78 .74 4.78 .56 4.78 .38 4.78 .22 4.78 .11 4.78 .08 4.78 .06 4.78"/>
      <polyline class="cls-1" points=".06 4.78 .06 4.76 .06 4.73 .06 4.66 .06 4.57 .06 4.47 .06 4.34 .06 4.04 .06 3.68 .06 3.28 .06 2.43 .06 1.56 .06 1.16 .06 .81 .06 .52 .06 .39 .06 .28 .06 .2 .06 .14 .06 .1 .06 .09"/>
      <polyline class="cls-1" points=".06 .09 .08 .09 .13 .09 .21 .09 .32 .09 .58 .09 .88 .09 1.19 .09 1.44 .09 1.55 .09 1.63 .09 1.68 .09 1.7 .09"/>
      <polyline class="cls-1" points="1.7 .09 2.1 .1 2.44 .17 2.73 .26 2.95 .39 3.14 .59 3.27 .79 3.35 1.05 3.37 1.36 3.35 1.58 3.3 1.79 3.22 2 3.1 2.17"/>
      <polyline class="cls-1" points="3.1 2.17 2.93 2.34 2.76 2.46 2.55 2.58 2.32 2.66"/>
      <line class="cls-1" x1="2.32" y1="2.67" x2="2.32" y2="2.66"/>
      <polyline class="cls-1" points="2.32 2.67 2.49 2.75 2.66 2.9 2.85 3.11 3.03 3.38"/>
      <polyline class="cls-1" points="3.03 3.38 3.05 3.39 3.08 3.44 3.13 3.51 3.18 3.6 3.32 3.83 3.48 4.08 3.64 4.33 3.78 4.55 3.85 4.65 3.88 4.71 3.91 4.76 3.93 4.78"/>
      <line class="cls-1" x1="7.15" y1="4.78" x2="4.38" y2="4.78"/>
      <line class="cls-1" x1="4.38" y1="4.78" x2="4.38" y2=".09"/>
      <line class="cls-1" x1="4.38" y1=".09" x2="7.04" y2=".09"/>
      <line class="cls-1" x1="7.04" y1=".09" x2="7.04" y2=".91"/>
      <line class="cls-1" x1="7.04" y1=".91" x2="5.37" y2=".91"/>
      <line class="cls-1" x1="5.37" y1=".91" x2="5.37" y2="2"/>
      <line class="cls-1" x1="5.37" y1="2" x2="6.93" y2="2"/>
      <line class="cls-1" x1="6.93" y1="2" x2="6.93" y2="2.82"/>
      <line class="cls-1" x1="6.93" y1="2.82" x2="5.37" y2="2.82"/>
      <line class="cls-1" x1="5.37" y1="2.82" x2="5.37" y2="3.96"/>
      <line class="cls-1" x1="5.37" y1="3.96" x2="7.15" y2="3.96"/>
      <line class="cls-1" x1="7.15" y1="3.96" x2="7.15" y2="4.78"/>
      <line class="cls-1" x1="7.15" y1="4.78" x2="7.15" y2="4.78"/>
      <line class="cls-1" x1="10.41" y1="2.93" x2="10.41" y2="2.93"/>
      <polyline class="cls-1" points="10.41 2.93 10.4 2.91 10.38 2.87 10.36 2.78 10.32 2.67 10.24 2.42 10.14 2.11 10.04 1.82 9.96 1.56 9.93 1.45 9.9 1.37 9.88 1.32 9.87 1.31"/>
      <polyline class="cls-1" points="9.87 1.31 9.83 1.13 9.8 .89"/>
      <line class="cls-1" x1="9.77" y1=".89" x2="9.8" y2=".89"/>
      <polyline class="cls-1" points="9.77 .89 9.74 1.1 9.69 1.29"/>
      <polyline class="cls-1" points="9.69 1.29 9.69 1.31 9.67 1.36 9.64 1.44 9.61 1.55 9.51 1.81 9.42 2.11 9.32 2.42 9.24 2.67 9.21 2.78 9.18 2.87 9.16 2.91 9.14 2.93"/>
      <polyline class="cls-1" points="9.14 2.93 9.16 2.93 9.21 2.93 9.27 2.93 9.35 2.93 9.55 2.93 9.79 2.93 10.01 2.93 10.2 2.93 10.28 2.93 10.35 2.93 10.4 2.93 10.41 2.93"/>
      <line class="cls-1" x1="12.08" y1="4.78" x2="10.99" y2="4.78"/>
      <line class="cls-1" x1="10.99" y1="4.78" x2="10.64" y2="3.7"/>
      <line class="cls-1" x1="10.64" y1="3.7" x2="8.94" y2="3.7"/>
      <line class="cls-1" x1="8.94" y1="3.7" x2="8.6" y2="4.78"/>
      <line class="cls-1" x1="8.6" y1="4.78" x2="7.51" y2="4.78"/>
      <line class="cls-1" x1="7.51" y1="4.78" x2="9.22" y2=".09"/>
      <line class="cls-1" x1="9.22" y1=".09" x2="10.4" y2=".09"/>
      <line class="cls-1" x1="10.4" y1=".09" x2="12.08" y2="4.78"/>
      <line class="cls-1" x1="13.67" y1=".91" x2="13.67" y2=".91"/>
      <polyline class="cls-1" points="13.67 .91 13.67 .94 13.67 1.04 13.67 1.2 13.67 1.39 13.67 1.61 13.67 1.87 13.67 2.43 13.67 2.99 13.67 3.25 13.67 3.49 13.67 3.68 13.67 3.83 13.67 3.92 13.67 3.96"/>
      <polyline class="cls-1" points="13.67 3.96 13.7 3.96 13.76 3.96 13.94 3.96 14.13 3.96 14.2 3.96 14.21 3.96"/>
      <polyline class="cls-1" points="14.21 3.96 14.55 3.94 14.86 3.86 15.11 3.72 15.34 3.54"/>
      <polyline class="cls-1" points="15.34 3.54 15.51 3.31 15.64 3.04 15.71 2.74 15.74 2.4 15.71 2.06 15.63 1.77 15.5 1.52 15.32 1.31"/>
      <polyline class="cls-1" points="15.32 1.31 15.1 1.13 14.82 1 14.54 .94 14.21 .91"/>
      <polyline class="cls-1" points="14.21 .91 14.18 .91 14.13 .91 13.94 .91 13.76 .91 13.7 .91 13.67 .91"/>
      <line class="cls-1" x1="13.67" y1=".91" x2="13.67" y2=".91"/>
      <polyline class="cls-1" points="12.67 4.78 12.67 4.76 12.67 4.73 12.67 4.66 12.67 4.57 12.67 4.47 12.67 4.34 12.67 4.04 12.67 3.68 12.67 3.28 12.67 2.43 12.67 1.56 12.67 1.16 12.67 .81 12.67 .52 12.67 .39 12.67 .28 12.67 .2 12.67 .14 12.67 .1 12.67 .09"/>
      <polyline class="cls-1" points="12.67 .09 12.69 .09 12.74 .09 12.82 .09 12.93 .09 13.19 .09 13.48 .09 13.78 .09 14.04 .09 14.13 .09 14.21 .09 14.28 .09 14.29 .09"/>
      <polyline class="cls-1" points="14.29 .09 14.6 .09 14.87 .12 15.14 .17 15.39 .23 15.61 .31 15.82 .41 16 .52 16.16 .65 16.32 .81 16.43 .97 16.54 1.16 16.64 1.37 16.7 1.6 16.75 1.84 16.78 2.09 16.78 2.37 16.78 2.64 16.75 2.88 16.69 3.12 16.6 3.35 16.51 3.56 16.4 3.76 16.25 3.94 16.09 4.12"/>
      <polyline class="cls-1" points="16.09 4.12 15.91 4.26 15.71 4.41 15.51 4.52 15.29 4.6 15.06 4.68 14.81 4.73 14.55 4.76 14.28 4.78"/>
      <polyline class="cls-1" points="14.28 4.78 14.26 4.78 14.21 4.78 14.13 4.78 14.04 4.78 13.78 4.78 13.48 4.78 13.19 4.78 12.93 4.78 12.82 4.78 12.74 4.78 12.69 4.78 12.67 4.78"/>
      <line class="cls-1" x1="12.67" y1="4.78" x2="12.67" y2="4.78"/>
      <polyline class="cls-1" points="21.07 .09 21.05 .1 21.05 .12 21 .22 20.92 .36 20.82 .55 20.71 .79 20.58 1.04 20.3 1.6 20.01 2.14 19.88 2.4 19.77 2.64 19.67 2.83 19.59 2.98 19.54 3.07 19.54 3.09 19.53 3.11"/>
      <polyline class="cls-1" points="19.53 3.11 19.53 3.12 19.53 3.17 19.53 3.27 19.53 3.36 19.53 3.64 19.53 3.94 19.53 4.25 19.53 4.52 19.53 4.63 19.53 4.71 19.53 4.76 19.53 4.78"/>
      <polyline class="cls-1" points="19.53 4.78 19.53 4.78 19.49 4.78 19.38 4.78 19.22 4.78 19.03 4.78 18.85 4.78 18.69 4.78 18.58 4.78 18.55 4.78 18.53 4.78"/>
      <polyline class="cls-1" points="18.53 4.78 18.53 4.76 18.53 4.71 18.53 4.63 18.53 4.52 18.53 4.26 18.53 3.96 18.53 3.65 18.53 3.38 18.53 3.28 18.53 3.2 18.53 3.14 18.53 3.12"/>
      <polyline class="cls-1" points="18.53 3.12 18.53 3.12 18.51 3.09 18.47 2.99 18.4 2.85 18.31 2.66 18.19 2.42 18.07 2.16 17.79 1.61 17.52 1.05 17.39 .79 17.28 .57 17.18 .36 17.1 .22 17.05 .12 17.05 .1 17.04 .09"/>
      <polyline class="cls-1" points="17.04 .09 17.05 .09 17.09 .09 17.21 .09 17.41 .09 17.62 .09 17.82 .09 18 .09 18.13 .09 18.18 .09 18.18 .09"/>
      <polyline class="cls-1" points="18.18 .09 18.19 .1 18.21 .17 18.26 .25 18.31 .36 18.43 .65 18.58 .99 18.72 1.31 18.85 1.6 18.9 1.71 18.93 1.81 18.96 1.85 18.96 1.89"/>
      <polyline class="cls-1" points="18.96 1.89 18.98 1.92 19.01 2 19.04 2.11 19.08 2.26"/>
      <line class="cls-1" x1="19.08" y1="2.26" x2="19.09" y2="2.26"/>
      <polyline class="cls-1" points="19.09 2.26 19.14 2.05 19.19 1.89"/>
      <polyline class="cls-1" points="19.19 1.89 19.2 1.87 19.24 1.81 19.27 1.73 19.32 1.61 19.44 1.32 19.61 .99 19.75 .67 19.88 .38 19.93 .25 19.97 .17 19.99 .1 20.01 .09"/>
      <polyline class="cls-1" points="20.01 .09 20.02 .09 20.05 .09 20.17 .09 20.34 .09 20.54 .09 20.73 .09 20.89 .09 21.02 .09 21.05 .09 21.07 .09"/>
    </g>
  </g>
</svg>