<?xml version="1.0" encoding="UTF-8"?>
<svg id="_图层_2" data-name="图层 2" xmlns="http://www.w3.org/2000/svg" viewBox="0 0 83.03 50.14">
  <defs>
    <style>
      .cls-1 {
        fill: none;
        stroke: #040000;
        stroke-linecap: square;
        stroke-miterlimit: 10;
        stroke-width: .12px;
      }
    </style>
  </defs>
  <g id="_图层_1-2" data-name="图层 1">
    <g>
      <g>
        <g>
          <g>
            <line class="cls-1" x1="35.36" y1="21.15" x2="32.87" y2="18.11"/>
            <line class="cls-1" x1="30.71" y1="20.33" x2="33.83" y2="22.74"/>
            <polyline class="cls-1" points="28.66 19.57 28.99 19.84 29.38 20.05 29.8 20.2"/>
            <line class="cls-1" x1="30.35" y1="20.26" x2="30.62" y2="20.24"/>
            <polyline class="cls-1" points="32.78 18.02 32.77 17.58 32.69 17.17 32.54 16.76 32.32 16.4 32.05 16.08"/>
            <line class="cls-1" x1="50.96" y1="40.11" x2="51.16" y2="39.94"/>
            <line class="cls-1" x1="47.45" y1="40.11" x2="47.65" y2="39.94"/>
            <polyline class="cls-1" points="33.96 22.74 34.24 22.57 34.74 22.12 35.18 21.62 35.36 21.3"/>
            <line class="cls-1" x1="33.83" y1="22.74" x2="33.84" y2="22.74"/>
            <polyline class="cls-1" points="33.84 22.74 34.17 22.56 34.74 22.03 35.23 21.47 35.36 21.15"/>
            <polyline class="cls-1" points="30.72 20.35 31.05 20.2 31.65 19.69 32.3 19 32.77 18.41 32.87 18.11"/>
            <line class="cls-1" x1="32.75" y1="18.11" x2="32.86" y2="18.09"/>
            <line class="cls-1" x1="30.71" y1="20.33" x2="30.71" y2="20.21"/>
            <line class="cls-1" x1="30.71" y1="20.35" x2="30.72" y2="20.33"/>
            <line class="cls-1" x1="50.31" y1="39.94" x2="50.31" y2="39.31"/>
            <line class="cls-1" x1="48.36" y1="39.32" x2="48.36" y2="39.94"/>
            <polyline class="cls-1" points="50.31 39.31 50.28 38.58 50.19 37.85 50.07 37.13 49.98 36.79 49.87 36.43 49.75 36.08 49.6 35.75 49.45 35.43 49.28 35.11 49.07 34.8 48.86 34.52 48.63 34.23 48.38 33.96"/>
            <polyline class="cls-1" points="47.01 35.34 47.19 35.55 47.35 35.75 47.5 35.96 47.65 36.19 47.87 36.68 48.07 37.19 48.2 37.71 48.29 38.25 48.35 38.79 48.36 39.32"/>
            <polyline class="cls-1" points="47.65 39.94 47.68 39.94 47.78 39.94 47.93 39.94 48.14 39.94 48.38 39.94 48.68 39.94 49.31 39.94 49.93 39.94 50.23 39.94 50.47 39.94 50.68 39.94 50.83 39.94 50.93 39.94 50.96 39.94"/>
            <line class="cls-1" x1="47.39" y1="40.83" x2="47.13" y2="43.91"/>
            <line class="cls-1" x1="47.45" y1="40.1" x2="47.39" y2="40.83"/>
            <line class="cls-1" x1="51.48" y1="43.91" x2="51.16" y2="40.1"/>
            <line class="cls-1" x1="48.38" y1="33.96" x2="43.16" y2="28.89"/>
            <line class="cls-1" x1="41.56" y1="30.06" x2="47.01" y2="35.34"/>
            <line class="cls-1" x1="33.99" y1="22.72" x2="40.07" y2="28.62"/>
            <line class="cls-1" x1="43.14" y1="28.92" x2="43.16" y2="28.89"/>
            <line class="cls-1" x1="41.47" y1="27.27" x2="35.36" y2="21.33"/>
            <line class="cls-1" x1="43.14" y1="28.89" x2="42.86" y2="28.62"/>
            <line class="cls-1" x1="27.81" y1="19.79" x2="27.86" y2="19.76"/>
            <polyline class="cls-1" points="30.62 20.24 30.69 20.21 30.81 20.15 30.95 20.06 31.1 19.94 31.27 19.81 31.45 19.64 31.84 19.26 32.2 18.87 32.36 18.67 32.5 18.49 32.62 18.35 32.69 18.21 32.75 18.09 32.78 18.02"/>
            <polyline class="cls-1" points="30.36 20.26 30.08 20.24 29.8 20.2"/>
            <polyline class="cls-1" points="29.8 20.2 29.5 20.09 29.2 19.96 28.93 19.79 28.68 19.58"/>
            <polyline class="cls-1" points="28.18 19.78 28.24 19.79 28.32 19.76 28.41 19.73 28.53 19.67 28.65 19.58 28.8 19.49 28.95 19.38 29.11 19.24 29.48 18.94 29.87 18.58 30.27 18.2 30.68 17.78 31.07 17.36 31.41 16.96 31.71 16.58 31.84 16.4 31.95 16.24 32.05 16.09 32.13 15.96 32.18 15.85 32.23 15.75 32.24 15.67 32.24 15.6 32.23 15.57 32.2 15.54"/>
            <polyline class="cls-1" points="32.06 15.07 32.24 15.28 32.26 15.37 32.24 15.46 32.2 15.54"/>
            <line class="cls-1" x1="27.86" y1="19.85" x2="28.18" y2="19.78"/>
            <line class="cls-1" x1="27.86" y1="19.79" x2="25.54" y2="17.75"/>
            <g>
              <line class="cls-1" x1="30.21" y1="8.33" x2="30.21" y2="8.33"/>
              <line class="cls-1" x1="32.74" y1="13.84" x2="32.75" y2="13.84"/>
              <polyline class="cls-1" points="30.21 8.33 30.65 8.95 31.07 9.6 31.42 10.27 31.77 10.95 32.07 11.66 32.33 12.37 32.56 13.1 32.75 13.84"/>
              <polyline class="cls-1" points="32.75 13.84 32.77 13.97 32.77 14.09 32.74 14.22 32.71 14.34 32.65 14.46 32.59 14.58 32.5 14.67 32.39 14.76"/>
              <polyline class="cls-1" points="28.95 7.07 29.31 7.29 29.71 7.7 29.95 7.98 30.21 8.33"/>
              <line class="cls-1" x1="27.78" y1="17.11" x2="27.9" y2="17.08"/>
              <polyline class="cls-1" points="12.29 .22 12.68 .17 13.03 .12"/>
              <polyline class="cls-1" points="13.18 .13 13.61 .12 13.95 .24"/>
              <polyline class="cls-1" points="24.18 17.93 23.29 18.02 22.41 18.05"/>
              <polyline class="cls-1" points="13.95 .24 15.88 1.01 17.77 1.8 19.67 2.62 21.55 3.45 23.41 4.32 25.27 5.22 27.12 6.13 28.94 7.07"/>
              <line class="cls-1" x1="13.95" y1=".24" x2="13.97" y2=".24"/>
              <line class="cls-1" x1="28.94" y1="7.07" x2="28.95" y2="7.07"/>
              <polyline class="cls-1" points="32.39 14.76 31.95 15.08 31.48 15.37 31.01 15.66 30.51 15.94 30.02 16.19 29.53 16.43 29.02 16.64 28.5 16.85 27.98 17.05 27.45 17.21 26.93 17.37 26.39 17.51 25.3 17.73 24.18 17.93"/>
              <line class="cls-1" x1="32.39" y1="14.76" x2="32.39" y2="14.76"/>
              <polyline class="cls-1" points="13.97 .24 15.88 1.01 17.77 1.8 19.67 2.62 21.55 3.45 23.41 4.32 25.28 5.22 27.12 6.13 28.95 7.07"/>
              <polyline class="cls-1" points="12.3 .22 12.71 .17 13.09 .13"/>
              <line class="cls-1" x1="1.11" y1="3.79" x2=".54" y2="4.21"/>
              <polyline class="cls-1" points="1.11 3.79 2.47 3.19 3.82 2.64 5.2 2.13 6.6 1.67 8 1.23 9.42 .86 10.85 .52 12.29 .22"/>
              <line class="cls-1" x1="12.29" y1=".22" x2="12.3" y2=".22"/>
              <line class="cls-1" x1="1.11" y1="3.79" x2="1.12" y2="3.79"/>
              <polyline class="cls-1" points="1.12 3.79 2.47 3.19 3.82 2.64 5.21 2.13 6.6 1.67 8 1.23 9.44 .86 10.85 .52 12.3 .22"/>
              <polyline class="cls-1" points="22.39 18.05 16.23 18.08 10.03 18.05"/>
              <polyline class="cls-1" points="7.81 17.02 6.75 15.75 5.7 14.45 4.7 13.12 3.73 11.76 2.81 10.39 1.91 8.98 1.06 7.55 .26 6.1 .11 5.71 .06 5.52 .06 5.31 .08 5.1 .12 4.91 .18 4.71 .29 4.53 .41 4.35 .54 4.21"/>
              <polyline class="cls-1" points="10.03 18.05 9.78 18.03 9.54 18"/>
              <polyline class="cls-1" points="8.33 17.49 8.06 17.27 7.81 17.02"/>
              <polyline class="cls-1" points="8.33 17.48 8.6 17.66 8.9 17.81 9.21 17.93 9.54 18"/>
            </g>
            <g>
              <line class="cls-1" x1="29.61" y1="8.36" x2="29.61" y2="8.36"/>
              <line class="cls-1" x1="32.02" y1="13.63" x2="32.04" y2="13.63"/>
              <polyline class="cls-1" points="29.61 8.36 30.02 8.96 30.42 9.57 30.77 10.22 31.09 10.87 31.38 11.55 31.64 12.23 31.85 12.93 32.04 13.63"/>
              <polyline class="cls-1" points="32.04 13.63 32.05 13.76 32.05 13.87 32.02 14 31.99 14.12 31.94 14.23 31.88 14.34 31.79 14.43 31.69 14.52"/>
              <polyline class="cls-1" points="28.38 7.29 28.72 7.5 29.05 7.76 29.35 8.03 29.61 8.36"/>
              <line class="cls-1" x1="27.28" y1="16.76" x2="27.4" y2="16.73"/>
              <polyline class="cls-1" points="12.47 .61 12.84 .57 13.21 .57"/>
              <polyline class="cls-1" points="13.35 .58 13.71 .65 14.04 .77"/>
              <polyline class="cls-1" points="23.84 17.54 22.99 17.63 22.15 17.66"/>
              <polyline class="cls-1" points="14.04 .77 15.88 1.49 17.69 2.25 19.5 3.04 21.3 3.84 23.09 4.66 24.86 5.52 26.63 6.39 28.37 7.29"/>
              <line class="cls-1" x1="14.04" y1=".77" x2="14.05" y2=".77"/>
              <line class="cls-1" x1="28.37" y1="7.29" x2="28.38" y2="7.29"/>
              <polyline class="cls-1" points="31.69 14.51 31.27 14.82 30.82 15.1 30.37 15.37 29.89 15.64 29.42 15.89 28.95 16.11 28.47 16.31 27.97 16.51 27.47 16.7 26.97 16.86 26.47 17.01 25.96 17.14 24.91 17.36 23.84 17.54"/>
              <line class="cls-1" x1="31.69" y1="14.51" x2="31.69" y2="14.51"/>
              <polyline class="cls-1" points="14.05 .77 15.88 1.49 17.69 2.25 19.5 3.04 21.3 3.84 23.09 4.66 24.87 5.52 26.63 6.39 28.38 7.29"/>
              <polyline class="cls-1" points="12.48 .61 12.87 .57 13.27 .58"/>
              <polyline class="cls-1" points="13.27 .58 13.67 .64 14.05 .77"/>
              <line class="cls-1" x1="1.78" y1="4.02" x2="1.24" y2="4.42"/>
              <polyline class="cls-1" points="1.78 4.02 3.08 3.45 4.38 2.92 5.69 2.44 7.03 1.99 8.37 1.58 9.73 1.22 11.1 .89 12.47 .61"/>
              <line class="cls-1" x1="12.47" y1=".61" x2="12.48" y2=".61"/>
              <line class="cls-1" x1="1.78" y1="4.02" x2="1.79" y2="4.02"/>
              <polyline class="cls-1" points="1.79 4.02 3.08 3.45 4.38 2.92 5.7 2.44 7.03 1.99 8.37 1.58 9.74 1.22 11.1 .89 12.48 .61"/>
              <polyline class="cls-1" points="22.13 17.66 16.24 17.68 10.31 17.66"/>
              <polyline class="cls-1" points="8.19 16.67 7.17 15.46 6.17 14.22 5.22 12.94 4.29 11.65 3.41 10.33 2.55 8.99 1.73 7.62 .96 6.23 .82 5.86 .78 5.68 .78 5.48 .79 5.28 .84 5.09 .89 4.91 .99 4.73 1.11 4.56 1.24 4.42"/>
              <polyline class="cls-1" points="10.31 17.66 10.07 17.64 9.84 17.61"/>
              <polyline class="cls-1" points="8.69 17.13 8.43 16.91 8.19 16.67"/>
              <polyline class="cls-1" points="8.69 17.11 8.94 17.28 9.23 17.43 9.53 17.54 9.84 17.61"/>
            </g>
            <line class="cls-1" x1="35.3" y1="21.3" x2="35.36" y2="21.27"/>
            <line class="cls-1" x1="33.93" y1="22.74" x2="33.96" y2="22.69"/>
          </g>
          <line class="cls-1" x1="47.13" y1="43.91" x2="51.48" y2="43.91"/>
          <line class="cls-1" x1="48.37" y1="43.91" x2="48.37" y2="50.08"/>
          <line class="cls-1" x1="50.31" y1="43.91" x2="50.31" y2="50.08"/>
          <line class="cls-1" x1="48.37" y1="50.08" x2="50.31" y2="50.08"/>
          <line class="cls-1" x1="48.37" y1="49.76" x2="50.31" y2="49.76"/>
          <line class="cls-1" x1="48.37" y1="49.44" x2="50.31" y2="49.44"/>
          <line class="cls-1" x1="48.37" y1="49.11" x2="50.31" y2="49.11"/>
          <line class="cls-1" x1="48.37" y1="48.79" x2="50.31" y2="48.79"/>
          <line class="cls-1" x1="48.37" y1="48.47" x2="50.31" y2="48.47"/>
          <line class="cls-1" x1="48.37" y1="48.15" x2="50.31" y2="48.15"/>
          <line class="cls-1" x1="48.37" y1="47.82" x2="50.31" y2="47.82"/>
          <line class="cls-1" x1="48.37" y1="47.5" x2="50.31" y2="47.5"/>
          <line class="cls-1" x1="48.37" y1="47.18" x2="50.31" y2="47.18"/>
          <line class="cls-1" x1="48.37" y1="46.86" x2="50.31" y2="46.86"/>
          <line class="cls-1" x1="48.37" y1="46.54" x2="50.31" y2="46.54"/>
          <line class="cls-1" x1="48.37" y1="46.21" x2="50.31" y2="46.21"/>
          <line class="cls-1" x1="48.37" y1="45.89" x2="50.31" y2="45.89"/>
        </g>
        <g>
          <g>
            <line class="cls-1" x1="32.01" y1="40.11" x2="31.81" y2="39.94"/>
            <line class="cls-1" x1="35.51" y1="40.11" x2="35.32" y2="39.94"/>
            <polyline class="cls-1" points="49.01 22.74 48.72 22.57 48.23 22.12 47.78 21.62 47.6 21.3"/>
            <line class="cls-1" x1="49.14" y1="22.74" x2="49.13" y2="22.74"/>
            <polyline class="cls-1" points="49.13 22.74 48.8 22.56 48.23 22.03 47.74 21.47 47.6 21.15"/>
            <line class="cls-1" x1="32.66" y1="39.94" x2="32.66" y2="39.31"/>
            <line class="cls-1" x1="34.6" y1="39.32" x2="34.6" y2="39.94"/>
            <polyline class="cls-1" points="32.66 39.31 32.69 38.58 32.78 37.85 32.9 37.13 32.99 36.79 33.1 36.43 33.21 36.08 33.36 35.75 33.51 35.43 33.69 35.11 33.9 34.8 34.11 34.52 34.33 34.23 34.59 33.96"/>
            <polyline class="cls-1" points="35.96 35.34 35.78 35.55 35.62 35.75 35.47 35.96 35.32 36.19 35.1 36.68 34.9 37.19 34.77 37.71 34.68 38.25 34.62 38.79 34.6 39.32"/>
            <polyline class="cls-1" points="35.32 39.94 35.29 39.94 35.19 39.94 35.04 39.94 34.83 39.94 34.59 39.94 34.29 39.94 33.66 39.94 33.04 39.94 32.74 39.94 32.5 39.94 32.29 39.94 32.14 39.94 32.04 39.94 32.01 39.94"/>
            <line class="cls-1" x1="35.58" y1="40.83" x2="35.84" y2="43.91"/>
            <line class="cls-1" x1="35.51" y1="40.1" x2="35.58" y2="40.83"/>
            <line class="cls-1" x1="31.48" y1="43.91" x2="31.81" y2="40.1"/>
            <line class="cls-1" x1="34.59" y1="33.96" x2="39.81" y2="28.89"/>
            <line class="cls-1" x1="41.27" y1="30.19" x2="35.96" y2="35.34"/>
            <line class="cls-1" x1="41.47" y1="30" x2="41.23" y2="30.23"/>
            <line class="cls-1" x1="48.98" y1="22.72" x2="41.47" y2="30"/>
            <line class="cls-1" x1="39.83" y1="28.92" x2="39.81" y2="28.89"/>
            <line class="cls-1" x1="39.83" y1="28.89" x2="47.6" y2="21.33"/>
            <line class="cls-1" x1="47.66" y1="21.3" x2="47.6" y2="21.27"/>
            <line class="cls-1" x1="49.04" y1="22.74" x2="49.01" y2="22.69"/>
          </g>
          <line class="cls-1" x1="35.84" y1="43.91" x2="31.48" y2="43.91"/>
          <line class="cls-1" x1="34.6" y1="43.91" x2="34.6" y2="50.08"/>
          <line class="cls-1" x1="32.65" y1="43.91" x2="32.65" y2="50.08"/>
          <line class="cls-1" x1="34.6" y1="50.08" x2="32.65" y2="50.08"/>
          <line class="cls-1" x1="34.6" y1="49.76" x2="32.65" y2="49.76"/>
          <line class="cls-1" x1="34.6" y1="49.44" x2="32.65" y2="49.44"/>
          <line class="cls-1" x1="34.6" y1="49.11" x2="32.65" y2="49.11"/>
          <line class="cls-1" x1="34.6" y1="48.79" x2="32.65" y2="48.79"/>
          <line class="cls-1" x1="34.6" y1="48.47" x2="32.65" y2="48.47"/>
          <line class="cls-1" x1="34.6" y1="48.15" x2="32.65" y2="48.15"/>
          <line class="cls-1" x1="34.6" y1="47.82" x2="32.65" y2="47.82"/>
          <line class="cls-1" x1="34.6" y1="47.5" x2="32.65" y2="47.5"/>
          <line class="cls-1" x1="34.6" y1="47.18" x2="32.65" y2="47.18"/>
          <line class="cls-1" x1="34.6" y1="46.86" x2="32.65" y2="46.86"/>
          <line class="cls-1" x1="34.6" y1="46.54" x2="32.65" y2="46.54"/>
          <line class="cls-1" x1="34.6" y1="46.21" x2="32.65" y2="46.21"/>
          <line class="cls-1" x1="34.6" y1="45.89" x2="32.65" y2="45.89"/>
        </g>
      </g>
      <g>
        <line class="cls-1" x1="47.66" y1="21.11" x2="50.16" y2="18.06"/>
        <line class="cls-1" x1="52.32" y1="20.29" x2="49.2" y2="22.69"/>
        <polyline class="cls-1" points="54.37 19.52 54.04 19.79 53.65 20 53.23 20.15"/>
        <line class="cls-1" x1="52.68" y1="20.21" x2="52.41" y2="20.2"/>
        <polyline class="cls-1" points="50.25 17.97 50.26 17.54 50.34 17.12 50.48 16.72 50.71 16.36 50.98 16.03"/>
        <polyline class="cls-1" points="52.31 20.3 51.98 20.15 51.38 19.64 50.72 18.96 50.26 18.36 50.16 18.06"/>
        <line class="cls-1" x1="50.28" y1="18.06" x2="50.17" y2="18.05"/>
        <line class="cls-1" x1="52.32" y1="20.29" x2="52.32" y2="20.17"/>
        <line class="cls-1" x1="52.32" y1="20.3" x2="52.31" y2="20.29"/>
        <line class="cls-1" x1="55.22" y1="19.75" x2="55.17" y2="19.72"/>
        <polyline class="cls-1" points="52.41 20.2 52.34 20.17 52.22 20.11 52.08 20.02 51.93 19.9 51.75 19.76 51.57 19.6 51.19 19.21 50.83 18.82 50.66 18.63 50.53 18.45 50.41 18.3 50.34 18.17 50.28 18.05 50.25 17.97"/>
        <polyline class="cls-1" points="52.66 20.21 52.95 20.2 53.23 20.15"/>
        <polyline class="cls-1" points="53.23 20.15 53.53 20.05 53.83 19.91 54.1 19.75 54.35 19.54"/>
        <polyline class="cls-1" points="54.84 19.73 54.78 19.75 54.71 19.72 54.62 19.69 54.5 19.63 54.38 19.54 54.23 19.45 54.08 19.33 53.92 19.2 53.54 18.9 53.16 18.54 52.75 18.15 52.35 17.73 51.96 17.31 51.62 16.91 51.32 16.54 51.19 16.36 51.08 16.19 50.98 16.05 50.9 15.91 50.84 15.81 50.8 15.7 50.78 15.63 50.78 15.55 50.8 15.52 50.83 15.49"/>
        <polyline class="cls-1" points="50.97 15.02 50.78 15.24 50.77 15.33 50.78 15.42 50.83 15.49"/>
        <line class="cls-1" x1="55.17" y1="19.81" x2="54.84" y2="19.73"/>
        <line class="cls-1" x1="55.17" y1="19.75" x2="57.49" y2="17.7"/>
        <g>
          <line class="cls-1" x1="52.81" y1="8.28" x2="52.81" y2="8.28"/>
          <line class="cls-1" x1="50.29" y1="13.79" x2="50.28" y2="13.79"/>
          <polyline class="cls-1" points="52.81 8.28 52.38 8.91 51.96 9.55 51.6 10.22 51.26 10.91 50.96 11.61 50.69 12.33 50.47 13.06 50.28 13.79"/>
          <polyline class="cls-1" points="50.28 13.79 50.26 13.92 50.26 14.04 50.29 14.18 50.32 14.3 50.38 14.42 50.44 14.54 50.53 14.63 50.63 14.72"/>
          <polyline class="cls-1" points="54.07 7.02 53.72 7.25 53.32 7.65 53.08 7.94 52.81 8.28"/>
          <line class="cls-1" x1="55.25" y1="17.06" x2="55.13" y2="17.03"/>
          <polyline class="cls-1" points="70.74 .17 70.35 .13 70 .07"/>
          <polyline class="cls-1" points="69.85 .09 69.42 .08 69.08 .2"/>
          <polyline class="cls-1" points="58.84 17.88 59.74 17.97 60.62 18"/>
          <polyline class="cls-1" points="69.08 .2 67.15 .96 65.25 1.75 63.36 2.57 61.48 3.41 59.61 4.27 57.76 5.17 55.91 6.08 54.09 7.02"/>
          <line class="cls-1" x1="69.08" y1=".2" x2="69.06" y2=".2"/>
          <line class="cls-1" x1="54.09" y1="7.02" x2="54.07" y2="7.02"/>
          <polyline class="cls-1" points="50.63 14.72 51.08 15.03 51.54 15.33 52.02 15.61 52.51 15.9 53.01 16.15 53.5 16.39 54.01 16.6 54.53 16.81 55.05 17 55.57 17.17 56.1 17.33 56.63 17.46 57.72 17.69 58.84 17.88"/>
          <line class="cls-1" x1="50.63" y1="14.72" x2="50.63" y2="14.72"/>
          <polyline class="cls-1" points="69.06 .2 67.15 .96 65.25 1.75 63.36 2.57 61.48 3.41 59.61 4.27 57.75 5.17 55.91 6.08 54.07 7.02"/>
          <polyline class="cls-1" points="70.72 .17 70.32 .13 69.94 .09"/>
          <line class="cls-1" x1="81.92" y1="3.74" x2="82.49" y2="4.16"/>
          <polyline class="cls-1" points="81.92 3.74 80.56 3.15 79.2 2.59 77.83 2.09 76.43 1.62 75.02 1.19 73.61 .82 72.17 .47 70.74 .17"/>
          <line class="cls-1" x1="70.74" y1=".17" x2="70.72" y2=".17"/>
          <line class="cls-1" x1="81.92" y1="3.74" x2="81.9" y2="3.74"/>
          <polyline class="cls-1" points="81.9 3.74 80.56 3.15 79.2 2.59 77.81 2.09 76.43 1.62 75.02 1.19 73.59 .82 72.17 .47 70.72 .17"/>
          <polyline class="cls-1" points="60.63 18 66.8 18.03 72.99 18"/>
          <polyline class="cls-1" points="75.22 16.97 76.28 15.7 77.32 14.4 78.32 13.07 79.29 11.72 80.22 10.34 81.11 8.94 81.96 7.51 82.77 6.06 82.92 5.67 82.96 5.47 82.96 5.27 82.95 5.06 82.9 4.86 82.84 4.67 82.74 4.49 82.62 4.31 82.49 4.16"/>
          <polyline class="cls-1" points="72.99 18 73.25 17.99 73.49 17.96"/>
          <polyline class="cls-1" points="74.7 17.45 74.96 17.23 75.22 16.97"/>
          <polyline class="cls-1" points="74.7 17.43 74.43 17.61 74.13 17.76 73.81 17.88 73.49 17.96"/>
        </g>
        <g>
          <line class="cls-1" x1="53.42" y1="8.32" x2="53.42" y2="8.32"/>
          <line class="cls-1" x1="51.01" y1="13.58" x2="50.99" y2="13.58"/>
          <polyline class="cls-1" points="53.42 8.32 53 8.92 52.6 9.53 52.26 10.17 51.93 10.83 51.65 11.5 51.39 12.19 51.18 12.89 50.99 13.58"/>
          <polyline class="cls-1" points="50.99 13.58 50.98 13.71 50.98 13.83 51.01 13.96 51.03 14.07 51.09 14.18 51.15 14.3 51.23 14.38 51.33 14.47"/>
          <polyline class="cls-1" points="54.64 7.25 54.3 7.46 53.97 7.72 53.67 7.99 53.42 8.32"/>
          <line class="cls-1" x1="55.74" y1="16.71" x2="55.63" y2="16.68"/>
          <polyline class="cls-1" points="70.56 .56 70.19 .52 69.82 .52"/>
          <polyline class="cls-1" points="69.67 .54 69.32 .61 68.99 .72"/>
          <polyline class="cls-1" points="59.18 17.5 60.04 17.58 60.88 17.61"/>
          <polyline class="cls-1" points="68.99 .72 67.15 1.45 65.34 2.21 63.52 2.99 61.72 3.79 59.94 4.62 58.17 5.48 56.4 6.35 54.66 7.25"/>
          <line class="cls-1" x1="68.99" y1=".72" x2="68.97" y2=".72"/>
          <line class="cls-1" x1="54.66" y1="7.25" x2="54.64" y2="7.25"/>
          <polyline class="cls-1" points="51.33 14.47 51.76 14.77 52.2 15.05 52.66 15.33 53.13 15.6 53.6 15.84 54.07 16.07 54.56 16.27 55.06 16.47 55.56 16.65 56.06 16.81 56.56 16.97 57.07 17.1 58.11 17.31 59.18 17.5"/>
          <line class="cls-1" x1="51.33" y1="14.47" x2="51.33" y2="14.47"/>
          <polyline class="cls-1" points="68.97 .72 67.15 1.45 65.34 2.21 63.52 2.99 61.72 3.79 59.94 4.62 58.16 5.48 56.4 6.35 54.64 7.25"/>
          <polyline class="cls-1" points="70.54 .56 70.16 .52 69.76 .54"/>
          <polyline class="cls-1" points="69.76 .54 69.36 .59 68.97 .72"/>
          <line class="cls-1" x1="81.25" y1="3.98" x2="81.79" y2="4.38"/>
          <polyline class="cls-1" points="81.25 3.98 79.95 3.41 78.65 2.88 77.34 2.39 76 1.95 74.66 1.53 73.3 1.18 71.93 .85 70.56 .56"/>
          <line class="cls-1" x1="70.56" y1=".56" x2="70.54" y2=".56"/>
          <line class="cls-1" x1="81.25" y1="3.98" x2="81.23" y2="3.98"/>
          <polyline class="cls-1" points="81.23 3.98 79.95 3.41 78.65 2.88 77.32 2.39 76 1.95 74.66 1.53 73.29 1.18 71.93 .85 70.54 .56"/>
          <polyline class="cls-1" points="60.9 17.61 66.79 17.64 72.71 17.61"/>
          <polyline class="cls-1" points="74.84 16.63 75.85 15.41 76.85 14.17 77.81 12.9 78.74 11.6 79.62 10.29 80.48 8.94 81.29 7.57 82.06 6.19 82.21 5.82 82.25 5.63 82.25 5.43 82.23 5.23 82.19 5.05 82.13 4.86 82.03 4.69 81.92 4.52 81.79 4.38"/>
          <polyline class="cls-1" points="72.71 17.61 72.96 17.6 73.19 17.57"/>
          <polyline class="cls-1" points="74.34 17.08 74.6 16.87 74.84 16.63"/>
          <polyline class="cls-1" points="74.34 17.07 74.08 17.24 73.8 17.38 73.5 17.5 73.19 17.57"/>
        </g>
      </g>
    </g>
  </g>
</svg>