<?xml version="1.0" encoding="UTF-8"?>
<svg id="_图层_2" data-name="图层 2" xmlns="http://www.w3.org/2000/svg" xmlns:xlink="http://www.w3.org/1999/xlink" viewBox="0 0 166.41 85.11">
  <defs>
    <style>
      .cls-1 {
        fill: #fff;
      }

      .cls-1, .cls-2, .cls-3, .cls-4 {
        stroke: #54565a;
        stroke-width: .3px;
      }

      .cls-1, .cls-2, .cls-3, .cls-4, .cls-5 {
        stroke-linecap: round;
        stroke-linejoin: round;
      }

      .cls-6, .cls-4, .cls-7, .cls-5, .cls-8 {
        fill: none;
      }

      .cls-2, .cls-9 {
        fill: #ff6b00;
      }

      .cls-3 {
        fill: #e6e6e5;
      }

      .cls-7 {
        stroke: #231815;
        stroke-dasharray: .78 .78;
        stroke-width: .25px;
      }

      .cls-7, .cls-8 {
        stroke-miterlimit: 10;
      }

      .cls-5 {
        stroke: #ff6b00;
        stroke-width: .5px;
      }

      .cls-10 {
        clip-path: url(#clippath);
      }

      .cls-8 {
        stroke: #040000;
        stroke-linecap: square;
        stroke-width: .12px;
      }
    </style>
    <clipPath id="clippath">
      <rect class="cls-6" x="5.37" y="2.2" width="158.21" height="74.97"/>
    </clipPath>
  </defs>
  <g id="_图层_1-2" data-name="图层 1">
    <g>
      <g class="cls-10">
        <g>
          <g>
            <path class="cls-8" d="M28.69,45.61c-4.33.49-8.63,1.04-12.98,1.22-.88.05-1.77.18-2.67.27-1.72.28-3.17-.02-3.7-1.84-.31-.94.04-1.96.75-2.64.59-.54,1.46-.75,2.24-.66.49.07,1.04.33,1.43.63.19.14.58.47.71.48,2.19-.41,22.94-4.87,24.65-5.21,1.04-.27,2.79-.8,3.78-1.07,1.23-.35,2.42-.92,3.49-1.63"/>
            <line class="cls-8" x1="44.3" y1="40.37" x2="17.14" y2="49.76"/>
            <path class="cls-8" d="M44.58,40.39c.81-.34,1.6-.88,1.88-1.76.22-.71.58-1.85,1.51-1.67.44.14.69.59.94.96.29.46.55.89.81,1.36.67,1.17,1.25,2.46,1.62,3.76"/>
            <path class="cls-8" d="M15.06,55.7c-.42-1.28-1.47-3.94-.47-5.09.43-.39,1.09-.4,1.64-.5.31-.05.56-.14.85-.22"/>
            <line class="cls-8" x1="47.54" y1="49.72" x2="20.32" y2="58.91"/>
            <path class="cls-8" d="M47.75,49.54c.85-.23,1.81-.28,2.56.24.61.43,1.59,1.11,2.21.4.27-.38.19-.89.16-1.33-.05-.54-.11-1.04-.19-1.57-.18-1.34-.51-2.71-1.02-3.97"/>
            <path class="cls-8" d="M15.04,55.48c.45,1.27,1.25,4.02,2.74,4.32.57.05,1.11-.35,1.61-.61.28-.15.53-.24.81-.35"/>
            <path class="cls-8" d="M62.34,19.34c4.58-2.18,4.77-2.13,7.38-3.37,2.11-.9,5.85-2.43,7.12-3.03.32-.16.74-.34,1.07-.4.64-.1,1.51-.05,2.19-.03.38.03,1.27.09,1.7.12.47.03.94-.11,1.29-.33,1.85-1.17,4.64-2.98,6.63-4.17,1.27-.75,2.55-1.48,3.78-2.2.49-.3.95-.48,1.49-.74.49-.21.92-.48,1.43-.58.65-.13,1.62-.4,2.24-.46,1.44-.16,3.55-.39,4.91-.55,1.57-.18,3.72-.25,5.54-.38.81-.03,3.72-.18,5.06-.23.84,0,2.68-.02,3.47-.02"/>
            <path class="cls-8" d="M47.3,36.94c-.28-.49-.67-.96-.81-1.52-.17-.61-.31-1.08-.41-1.71-.22-1.37-.7-3.27-.76-4.01.05-.58.14-1.27.2-1.87,0-.04,0-.08.01-.12.04-.35.04-.27.12-.32.03-.01.05-.02.08-.04,1.16-.55,6.52-3.09,12.08-5.73"/>
            <path class="cls-8" d="M63.64,20.45c7.57-3.43,12.92-5.78,14.14-6.33.32-.11.82-.4,1.21-.33.58.11,1.49.37,2.05.49.13.03.27.07.38.15.09.08.14.19.18.31.12.31.33.92.45,1.26.28.79.58,1.59.88,2.39,1.39,3.72,2.57,6.92,3.72,10.43.31,1,.78,1.98,1.2,2.97.19.48.43.77.74,1.21.33.44.64.95,1,1.33.69.48,1.68,1.06,2.43,1.52.64.31,1.65.73,2.31,1.03.91.4,2.13.95,2.98,1.33.39.17.44.19.9.26,1.06.15,2.24.39,3.26.43,1.46.09,3.35.26,4.62.31,4.29.07,8.01.17,11.55.13"/>
            <path class="cls-8" d="M45.39,29.04c2.12-1,5.04-2.45,7.43-3.61,1.2-.55,2.88-1.31,4.8-2.18"/>
            <path class="cls-8" d="M81.42,14.43c1.91-.95,3.71-2.03,5.5-3.21,1.36-.86,2.76-1.62,4.16-2.42,1.95-1.16,3.89-2.3,6.08-2.93,2.96-.82,6.06-.75,9.1-1,1.74-.11,3.45-.28,5.2-.27,2.09,0,4.17,0,6.18,0"/>
            <path class="cls-8" d="M78.77,13.78c2.19,3.95,3.64,8.28,5.28,12.47.78,1.96,1.43,3.93,2.5,5.75,1.02,1.86,2.6,3.16,4.38,4.26,1.55.93,3.26,1.76,4.94,2.41,1.56.6,3.14,1.06,4.75,1.34,2.18.4,4.26.39,6.59.49,3.39.12,7.14.26,10.43.38"/>
            <path class="cls-8" d="M45.35,29.39c.28.36.64.77.86,1.09.35.56.65,1.2.98,1.78.64,1.2,1.34,2.6,1.92,3.72.46.9,1.09,2,1.48,2.84.42,1.03,1,2.22,1.34,3.21.29.92.75,2.33,1.01,3.15.35,1.16.69,2.78.98,3.91.18.67.25,1.3.36,2.02.02.22.11.41.36.41,1.71-.07,3.62-.4,5.68-.59,1.39-.15,3.42-.41,5.24-.62.88-.12,1.7-.1,2.61-.1"/>
            <path class="cls-8" d="M54.32,51.52c-1.59-1-.96.15-.73,1.13.26,1.22.69,2.57,1.02,3.72"/>
            <path class="cls-8" d="M63.46,56.21c1.21-.03,2.33-.05,3.17-.07.68,0,1.2-.04,1.93-.18,4.66-.78,9.25-1.33,13.96-2.01,1.79-.25,4.33-.67,6.27-.91,1.79-.22,3.53-.46,5.39-.44,4.39.02,4.61,1.58,5.05,5.49.12,1.3.45,2.51.75,3.83.23,1.01.42,1.77.65,2.75.42,1.64.77,3.38,1.65,4.86.53.91,1.39,1.51,2.36,1.85,1.06.43,2,.48,3.1.52.92.04,1.66.09,2.58.12,2.4.11,4.91.15,7.31.13"/>
            <path class="cls-8" d="M49.61,49.46c.14.73.17,1.36.65,1.9,1,1.12,3.19,3.84,4.25,4.96.12.09.22.09.36.09.62-.01,2.21-.05,4.08-.09"/>
            <path class="cls-8" d="M68.16,50.32c.45,1,.53,2.11.54,3.21,0,1.14-.24,2.06-1.31,2.59"/>
            <polyline class="cls-8" points="59.08 56.32 58.77 56.02 58.89 54.21 59.77 52.47 63.37 52.47 63.37 56.26 62.89 56.59 59.62 56.83 59.56 56.77 59.08 56.32"/>
            <polyline class="cls-8" points="59.61 56.37 61.14 54.09 62.61 54.04 63.37 52.47"/>
            <line class="cls-8" x1="59.82" y1="52.52" x2="61.14" y2="54.09"/>
            <line class="cls-8" x1="59.62" y1="56.33" x2="59.62" y2="56.83"/>
            <line class="cls-8" x1="62.62" y1="54.09" x2="62.89" y2="56.59"/>
            <line class="cls-8" x1="58.89" y1="54.21" x2="59.99" y2="55.81"/>
            <path class="cls-8" d="M58.8,55.86c-2.02,0-2.18,0-2.13-2.03.01-.49-.03-1,.03-1.47.12-.82,1.53-.76,2.17-.79,2.1-.05,6.18-.16,7.32-.18.14,0,.26,0,.33.11.07.09.1.38.12.56.07.66.19,1.92.25,2.64.07.59,0,.81-.64.86-.81.08-1.87.17-2.71.24"/>
            <path class="cls-8" d="M54.88,45.34c.82-1.36,2.21-2.16,3.57-2.98.83-.52,1.57-.87,2.44-1.28,1.3-.64,2.6-1.07,4-1.27,1.02-.11,1.89.45,2.29,1.38.55,1.17.93,2.45.97,3.73.07,1.11.02,2.2-.46,3.2-.94,1.92-3.09,1.99-5.05,1.88-.86-.03-1.59-.05-2.34-.1-1.5-.1-3.87-.54-4.95-1.64-.72-.72-.96-1.99-.49-2.9v-.02Z"/>
            <path class="cls-8" d="M55.72,47.45c-1.39-2.3,2.25-3.95,4-4.83,1.65-.72,4.7-2.71,6.28-1.54,1.81,1.25,2.12,7-.13,7.94-.61.28-1.35.36-2.03.38-1.05.03-2.09-.03-3.08-.12-1.58-.21-4.04-.41-5.02-1.81v-.02Z"/>
            <path class="cls-8" d="M57.23,46.18c.18-1.78,3.18-2.91,4.6-3.66.92-.43,2.14-1.07,3.03-.28.84.79,1.1,2.47,1.13,3.6.06,2.72-2.89,2.48-4.87,2.4-1.43-.08-3.78-.23-3.88-2.04v-.02Z"/>
            <path class="cls-8" d="M49.34,32.85c.11,1.1.76,2.19,1.14,3.19.61,1.41,1.24,2.78,1.91,4.2,1.47,3.26,3.61,2.92,6.18,1.05,1.07-.73,2.44-1.6,3.44-2.33,1.52-1,1.35-2.69.9-4.2-.29-.88-.72-1.73-1.09-2.6-.62-1.36-1.16-2.7-2.35-3.51-.59-.39-1.3-.3-1.97-.2-.56.08-1.03.12-1.52.19-.73.07-1.6.46-2.29.83-.78.39-1.53.78-2.29,1.16-.89.44-2.11,1.09-2.06,2.19v.02Z"/>
            <polyline class="cls-8" points="49.33 32.58 50.61 34.87 51.58 36.77 52.31 38.65 52.92 40.28 53.14 40.99 53.14 41.53"/>
            <path class="cls-8" d="M54.37,40.59c-.28-.66-.55-1.72-.84-2.45-.5-1.13-1.02-2.25-1.53-3.37-.2-.42-.4-.72-.63-1.11-.15-.27-.32-.62-.26-.91.16-.71,2.73-1.81,3.47-2.22.51-.25,1.13-.5,1.67-.76.2-.09.4-.18.61-.21.91-.14,1.29.77,1.72,1.44.23.38.47.75.66,1.16.34.74.68,1.53,1,2.28.32.77.7,1.46.69,2.28.06.76-.69,1.23-1.17,1.69-.48.44-.97.87-1.48,1.3-.5.4-1.13.95-1.64,1.39-.8.58-1.86.47-2.28-.49v-.02Z"/>
            <path class="cls-8" d="M52.79,32.5c-.11.34.06.55.24,1.03.09.22.18.44.27.67.49,1.2,1.06,2.63,1.55,3.79.44,1.1.97,1.49,2.03.74.81-.53,1.55-1.09,2.27-1.74.51-.47.61-.99.24-1.57-.49-.85-1.82-3.15-2.34-4.04-.21-.37-.49-.66-.96-.53-.65.18-1.81.81-2.45,1.08-.33.16-.79.37-.85.55h0Z"/>
            <path class="cls-8" d="M54.78,37.67c.87.94,1.08,1,2.12.19.9-.68,1.82-1.39,2.63-2.18"/>
            <line class="cls-8" x1="55.85" y1="38.42" x2="56.19" y2="39.12"/>
            <line class="cls-8" x1="82.1" y1="14.08" x2="98.5" y2="38.51"/>
            <path class="cls-8" d="M59.61,56.96c-1.41,1.44-3.13,2.77-3.99,4.64-.62,1.3-.87,2.53-1.2,3.96-.55,2.29-1.04,4.77-1.54,7.12-.52,2.53-.9,5.21-1.32,7.77-.25,1.74-.61,3.51-.75,5.26-.14,1.65-.37,3.48-.44,5.13-.04,1.07-.09,2.26-.11,3.34,0,1.11-.04,2.35.1,3.48.16,1.21.39,2.61.38,3.74,0,.69.03,1.41-.18,2.09-.4,1.24-1.05,2.18-1.72,3.37-.5.85-.98,1.66-1.5,2.48-.61.98-1.23,1.92-1.8,2.81-.69,1.09-1.33,2.2-1.6,3.48-.16.69-.15,1.29-.11,1.98.08,1.32.26,4.44.35,6.06.11,1.84.17,3.79.25,5.68.17,4.22.44,8.35.78,12.57.31,4.63.68,9.11,1.12,13.74.39,4.18.96,8.17,1.43,12.42.24,2.01.43,4,.64,6.02.28,2.43.73,5.82,1.01,8.11.56,4.2,1.23,9.17,1.81,13.27.56,3.63,1.45,9.51,1.94,13.5"/>
            <path class="cls-8" d="M62.56,56.7c-1.26,1.37-2.61,2.69-3.75,4.17-2.21,2.97-3.05,6.59-4.17,10.06-.79,2.64-1.49,5.39-2.09,8.08-.26,1.3-.42,2.61-.63,3.94-.69,3.85-1.1,7.79-1,11.71,0,1.83.09,3.02.25,4.75.11,1.43.29,2.91.02,4.33-.34,1.52-1.25,2.89-2.04,4.23-.95,1.56-1.91,3.08-2.86,4.65-.63,1.04-1.2,2.11-1.45,3.3-.15.66-.2,1.33-.18,2.01.02,1.28.12,3.08.18,4.46.32,8.22.78,16.63,1.49,24.78.4,4.07.81,9.03,1.24,12.96,1,7.81,2.48,19.76,3.36,27.02,1.06,7.54,2.36,15.27,3.37,22.78"/>
            <path class="cls-8" d="M117.65,73.3c-5.14.04-10.33-.09-15.41-.74-1.93-.25-3.8-.68-5.67-1.08-3.51-.76-6.98-1.52-10.49-2.29-4.12-.88-8.15-1.69-12.2-2.66-1.03-.23-2.24-.55-3.3-.75-1.24-.23-2.64-.4-3.98-.54-1.08-.11-2.18-.17-3.28-.17-1.22.02-2.58.07-3.74.53-2.1.78-2.63,2.74-3.26,4.7-.36,1.1-.76,2.29-1.12,3.4-.57,1.65-.89,3.18-1.35,4.9-.47,1.8-.9,3.55-1.3,5.48-.35,2.03.25,3.26,1.5,4.83.99,1.28,1.96,2.6,2.95,3.89.5.63,1.03,1.2,1.6,1.77.69.73,1.61,1.44,2.55,1.71.92.28,1.73.33,2.74.47,2.44.29,4.66.63,7.06.82,6.52.6,13.99,1.28,20.33,1.69,9.2.2,17.5.57,26.39.71"/>
            <path class="cls-8" d="M102.65,95.85c.87-.32.54-1.45.61-2.48,0-1.72,0-3.27,0-5.23-.02-4.21.04-7.85-.02-10.51,0-1.29-.86-2.32-1.9-3.02-1.53-1.04-3.19-1.17-5.04-1.63-2.11-.47-4.68-1.04-6.7-1.49-2.37-.52-4.29-.98-6.66-1.51-1.81-.4-3.56-.72-5.36-1.15-2.08-.5-4.17-1.06-6.33-1.29-1.85-.18-3.73-.35-5.58-.37-1.1.02-2.37.22-3.15.97-.62.59-1.02,1.58-1.33,2.46-.26.72-.52,1.49-.77,2.22-.77,2.14-1.25,3.89-1.76,6.02-.46,1.94-1,3.94-.41,5.9.58,1.83,1.58,3.58,2.58,5.21.99,1.61,2.36,2.88,4.23,3.3,2.38.59,4.31.67,6.82.88,2.61.2,5.44.44,7.94.62,3.95.29,8.09.53,12.07.79,2.32.16,4.94.36,7.3.36,1.04-.03,2.48.17,3.43-.06h.01Z"/>
            <path class="cls-8" d="M57.95,82.35c-.82,2.63-.69,3.02.43,5.52,1.12,2.28,2.04,5.41,4.79,6.15.77.21,1.51.31,2.33.41,1.49.19,2.7.34,4.16.46,2.87.24,6.1.61,8.83.77,3.51.11,7.11.49,10.56.6,4.82.13,9.62.51,14.35.61"/>
            <line class="cls-8" x1="52.43" y1="84.92" x2="57.56" y2="83.75"/>
          </g>
          <path class="cls-8" d="M172.67,19.33c-4.53-2.15-4.51-2.14-7.09-3.36-2.11-.9-5.85-2.43-7.12-3.03-.32-.16-.74-.34-1.07-.4-.64-.1-1.51-.05-2.19-.03-.38.03-1.27.09-1.7.12-.47.03-.94-.11-1.29-.33-1.85-1.17-4.64-2.98-6.63-4.17-1.27-.75-2.55-1.48-3.78-2.2-.49-.3-.95-.48-1.49-.74-.49-.21-.92-.48-1.43-.58-.65-.13-1.62-.4-2.24-.46-1.44-.16-3.55-.39-4.91-.55-1.57-.18-3.72-.25-5.54-.38-.81-.03-3.72-.18-5.06-.23-.84,0-2.68-.02-3.47-.02"/>
          <path class="cls-8" d="M171.38,20.47c-7.57-3.43-12.66-5.8-13.86-6.36-.32-.11-.82-.4-1.21-.33-.58.11-1.49.37-2.05.49-.13.03-.27.07-.38.15-.09.08-.14.19-.18.31-.12.31-.33.92-.45,1.26-.28.79-.58,1.59-.88,2.39-1.39,3.72-2.57,6.92-3.72,10.43-.31,1-.78,1.98-1.2,2.97-.19.48-.43.77-.74,1.21-.33.44-.64.95-1,1.33-.69.48-1.68,1.06-2.43,1.52-.64.31-1.65.73-2.31,1.03-.91.4-2.13.95-2.98,1.33-.39.17-.44.19-.9.26-1.06.15-2.24.39-3.26.43-1.46.09-3.35.26-4.62.31-4.29.07-8.01.17-11.55.13"/>
          <path class="cls-8" d="M153.88,14.43c-1.91-.95-3.71-2.03-5.5-3.21-1.36-.86-2.76-1.62-4.16-2.42-1.95-1.16-3.89-2.3-6.08-2.93-2.96-.82-6.06-.75-9.1-1-1.74-.11-3.45-.28-5.2-.27-2.09,0-4.17,0-6.18,0"/>
          <path class="cls-8" d="M156.52,13.78c-2.19,3.95-3.64,8.28-5.28,12.47-.78,1.96-1.43,3.93-2.5,5.75-1.02,1.86-2.6,3.16-4.38,4.26-1.55.93-3.26,1.76-4.94,2.41-1.56.6-3.14,1.06-4.75,1.34-2.18.4-4.26.39-6.59.49-3.39.12-7.14.26-10.43.38"/>
          <path class="cls-8" d="M168.66,56.14c-.68,0-1.2-.04-1.93-.18-4.66-.78-9.25-1.33-13.96-2.01-1.79-.25-4.33-.67-6.27-.91-1.79-.22-3.53-.46-5.39-.44-4.39.02-4.61,1.58-5.05,5.49-.12,1.3-.45,2.51-.75,3.83-.23,1.01-.42,1.77-.65,2.75-.42,1.64-.77,3.38-1.65,4.86-.53.91-1.39,1.51-2.36,1.85-1.06.43-2,.48-3.1.52-.92.04-1.66.09-2.58.12-2.4.11-4.91.15-7.31.13"/>
          <line class="cls-8" x1="153.19" y1="14.08" x2="136.79" y2="38.51"/>
          <path class="cls-8" d="M117.65,73.3c5.14.04,10.33-.09,15.41-.74,1.93-.25,3.8-.68,5.67-1.08,3.51-.76,6.98-1.52,10.49-2.29,4.12-.88,8.15-1.69,12.2-2.66,1.03-.23,2.24-.55,3.3-.75,1.24-.23,2.64-.4,3.98-.54,1.08-.11,2.18-.17,3.28-.17,1.22.02,2.58.07,3.74.53,2.1.78,2.63,2.74,3.26,4.7.36,1.1.76,2.29,1.12,3.4.57,1.65.89,3.18,1.35,4.9.47,1.8.9,3.55,1.3,5.48.35,2.03-.25,3.26-1.5,4.83-.99,1.28-1.96,2.6-2.95,3.89-.5.63-1.03,1.2-1.6,1.77-.69.73-1.61,1.44-2.55,1.71-.92.28-1.73.33-2.74.47-2.44.29-4.66.63-7.06.82-6.52.6-13.99,1.28-20.33,1.69-9.2.2-17.5.57-26.39.71"/>
          <path class="cls-8" d="M132.64,95.85c-.87-.32-.54-1.45-.61-2.48,0-1.72,0-3.27,0-5.23.02-4.21-.04-7.85.02-10.51,0-1.29.86-2.32,1.9-3.02,1.53-1.04,3.19-1.17,5.04-1.63,2.11-.47,4.68-1.04,6.7-1.49,2.37-.52,4.29-.98,6.66-1.51,1.81-.4,3.56-.72,5.36-1.15,2.08-.5,4.17-1.06,6.33-1.29,1.85-.18,3.73-.35,5.58-.37,1.1.02,2.37.22,3.15.97.62.59,1.02,1.58,1.33,2.46.26.72.52,1.49.77,2.22.77,2.14,1.25,3.89,1.76,6.02.46,1.94,1,3.94.41,5.9-.58,1.83-1.58,3.58-2.58,5.21-.99,1.61-2.36,2.88-4.23,3.3-2.38.59-4.31.67-6.82.88-2.61.2-5.44.44-7.94.62-3.95.29-8.09.53-12.07.79-2.32.16-4.94.36-7.3.36-1.04-.03-2.48.17-3.43-.06h-.01Z"/>
          <path class="cls-8" d="M177.34,82.35c.82,2.63.69,3.02-.43,5.52-1.12,2.28-2.04,5.41-4.79,6.15-.77.21-1.51.31-2.33.41-1.49.19-2.7.34-4.16.46-2.87.24-6.1.61-8.83.77-3.51.11-7.11.49-10.56.6-4.82.13-9.62.51-14.35.61"/>
          <g>
            <path class="cls-8" d="M122.41,86.75c0-1.22-.99-2.21-2.21-2.21h-5.29c-1.22,0-2.21.99-2.21,2.21v7.23c0,.84.3,1.6.79,2.2.63.77,1.59,1.25,2.66,1.25h2.8c.95,0,1.81-.39,2.44-1.01.63-.63,1.02-1.49,1.02-2.45v-7.23Z"/>
            <path class="cls-8" d="M120.34,83.82h-5.33c-1.72,0-3.12,1.4-3.12,3.12v6.33c0,1.23.64,2.3,1.6,2.92-.5-.6-.79-1.37-.79-2.2v-7.23c0-1.22.99-2.21,2.21-2.21h5.29c1.22,0,2.21.99,2.21,2.21v7.23c0,.96-.39,1.82-1.02,2.45,1.21-.54,2.06-1.75,2.06-3.16v-6.33c0-1.72-1.4-3.12-3.12-3.12Z"/>
          </g>
          <g>
            <path class="cls-8" d="M78.39,33.94l2.13.99,4.32,2,5.3,2.75,7.14,4.15,3.28,1.82,2.87,1.25,1.72.34s5.02.3,5.08.28,7.41.16,7.41.16"/>
            <path class="cls-8" d="M80.3,34.83c1.82,1.24,3.66,2.37,5.4,3.69,1.63,1.24,3.12,2.57,4.6,4,3.1,2.95,6.51,6.73,8.52,10.55"/>
            <path class="cls-8" d="M68.31,55.31c6.36-.88,13.28-1.99,19.74-2.82,1.28-.16,2.51-.32,3.78-.48,1.08-.13,2.07-.27,3.1-.21,1.44.04,2.74.6,3.96,1.31"/>
            <path class="cls-8" d="M96.85,52.95c2.3.71,3.07,2.09,3.78,4.25.34,1.02.7,2.06.92,3.04.18.85.27,1.76.4,2.63.35,2.54.91,5.23,1.25,7.73"/>
          </g>
          <g>
            <path class="cls-8" d="M156.94,33.94l-2.13.99-4.32,2-5.3,2.75-7.14,4.15-3.28,1.82-2.87,1.25-1.72.34s-5.02.3-5.08.28-7.41.16-7.41.16"/>
            <path class="cls-8" d="M155.02,34.83c-1.82,1.24-3.66,2.37-5.4,3.69-1.63,1.24-3.12,2.57-4.6,4-3.1,2.95-6.51,6.73-8.52,10.55"/>
            <path class="cls-8" d="M167.01,55.31c-6.36-.88-13.28-1.99-19.74-2.82-1.28-.16-2.51-.32-3.78-.48-1.08-.13-2.07-.27-3.1-.21-1.44.04-2.74.6-3.96,1.31"/>
            <path class="cls-8" d="M138.47,52.95c-2.3.71-3.07,2.09-3.78,4.25-.34,1.02-.7,2.06-.92,3.04-.18.85-.27,1.76-.4,2.63-.35,2.54-.91,5.23-1.25,7.73"/>
          </g>
          <path class="cls-8" d="M63.46,37.34c4.98-1.15,9.85-2.34,14.87-3.34"/>
          <path class="cls-8" d="M168.89,37.34c-4.01-1.15-7.92-2.34-11.95-3.34"/>
          <path class="cls-8" d="M70.74,94.05c1.87-.18,3.85-.41,5.62-.54,1.91-.11,3.87-.16,5.86-.24,1.01-.04,2.02-.08,3.02-.12,1.51-.06,2.73-.05,4.07-.52,1.21-.47,2.86-1.2,3.53-2.33.21-.38.29-.83.33-1.27.15-1.58.44-4.63.73-7.64.3-3.16.56-5.89.83-8.74"/>
          <polyline class="cls-8" points="63.48 67.56 62.52 73.61 61.46 81.02 60.85 86.75 60.83 89.96"/>
          <path class="cls-8" d="M144.93,94.31c.28-.78.96-1.22,1.63-1.66.76-.56,1.35-1.12,2.13-1.64.79-.56,1.54-1,2.13-1.81.27-.35.56-.72.82-1.07.65-.85,1.01-2.02,1.44-3.02.2-.52.25-.82.27-1.44.02-.59.05-1.51.07-2.15.05-.96-.03-1.6-.14-2.5-.1-1.37-.7-2.54-1.38-3.7-.38-.67-1.07-1.28-1.7-1.79-.99-.87-2.13-1.57-3.21-2.31"/>
          <polyline class="cls-8" points="152.35 69.99 153.69 71.76 154.67 73 156.15 76.19 157.03 77.46 158.61 77.46 162.52 77.46 163.16 77.28"/>
          <path class="cls-8" d="M153.43,69.76c.72.98,1.45,1.93,2.08,2.99.94,1.59,1.12,2.88,3.33,2.8,1.73-.11,3.6-.24,5.34-.33,2.05-.1,4.22-.12,5.95,1.08,3.07,1.93,3.28,3.37,3.96,6.73.46,3.1-.68,5.18-3.34,6.75-1.35.69-2.8,1.19-4.27,1.39-1.12.13-2.51.18-3.6.27-2.66.18-6.08.43-8.7.62-1.6.1-3.18.31-4.79.49-.81.09-1.71.21-2.38.48-.69.27-1.34.68-2.03,1.08"/>
          <ellipse class="cls-8" cx="142.96" cy="82.64" rx="5.81" ry="5.87"/>
          <ellipse class="cls-8" cx="142.5" cy="82.05" rx="2.26" ry="2.44"/>
          <ellipse class="cls-8" cx="143.22" cy="82.68" rx="8.53" ry="8.3" transform="translate(17.96 190.65) rotate(-70.76)"/>
          <path class="cls-8" d="M142.96,72.13c.78-.04,1.57.01,2.36.19,5.16,1.13,8.34,6.69,7.09,12.42-.6,2.77-2.13,5.07-4.13,6.58"/>
          <ellipse class="cls-8" cx="165.98" cy="83.8" rx="5.3" ry="5.24"/>
          <circle class="cls-8" cx="165.86" cy="83.88" r="5.99"/>
          <ellipse class="cls-8" cx="165.54" cy="83.93" rx="6.9" ry="6.75" transform="translate(-1.5 3.03) rotate(-1.04)"/>
        </g>
      </g>
      <rect class="cls-7" x=".12" y=".12" width="166.16" height="84.86"/>
      <g>
        <polygon class="cls-2" points="59.04 17.98 61.14 17.01 63.77 17.01 65.75 17.98 64.11 18.88 61.03 18.95 59.04 17.98"/>
        <path class="cls-2" d="M65.75,17.98l-.08,6s-1.15.37-2.98.43c-1.83.07-3.78-.62-3.78-.62l.13-5.82,2,.97,3.08-.07,1.64-.9Z"/>
        <line class="cls-4" x1="61.03" y1="18.95" x2="61.04" y2="24.31"/>
        <line class="cls-4" x1="64.11" y1="18.88" x2="64.05" y2="24.34"/>
        <ellipse class="cls-1" cx="62.41" cy="18.05" rx="1.81" ry=".58"/>
        <path class="cls-1" d="M65.15,30.52c-.8-.95-2.45-2.2-5.09-3.49-2.64-1.29-3.56-2.47-3.41-3.56.15-1.09,1.04-3.01,1.04-3.01l1-1.03s-.3,3.11.12,3.61c.42.49,11.07,8.07,11.07,8.07l-4.72-.58Z"/>
        <path class="cls-3" d="M104.4,81.31c-.07-4.07-2.8-4.96-3.21-7.69-.4-2.73,1.47-6.68,2.48-10.71,1.01-4.03,2.76-14.02,2.62-15.97-.14-1.95-1.11-3.37-1.84-3.66-.73-.29-2-2.1-2.96-2.91-.96-.81-3.9-.44-4.73-.87-.83-.42-2.4-3.27-4.09-3.98-1.69-.7-4.96,1.05-6.48,1.14-1.52.09-2.96-.33-3.36-1.95-.39-1.62-1.97-3.29-4.43-3.7-2.46-.41-4.98.55-5.56,1.09-.58.54-1.44,2.71-1.44,2.71,0,0-.49-.92-1.62-2.3-1.12-1.38-3.2-2.29-4.64-1.99s-1.93,1.1-1.06,3.53,1.06,6.45.51,12.79c-.55,6.34-2.18,6.67-1.9,10.31.21,2.65,4.85,11.39,7.18,16.04,2.32,4.65,1.47.96,4.13,9.3"/>
        <path class="cls-4" d="M71.41,34.81s.23,3.64.06,5.93c-.17,2.29-.51,3.8-.44,5.33.07,1.53.18,2.97-1.53,5.53"/>
        <path class="cls-3" d="M66.4,30.52s-.72-.69-1.86-1.74c-1.24-1.13-1.78-1.49-4.45-2.96-2.67-1.47-2.76-2.75-2.48-3.78.28-1.04,1.07-2.61,1.07-2.61l.82.72s-.39,1.67-.07,2.1,2.33,1.38,3.34,1.44c1.01.05,2.4-.65,2.49-1.25s.06-1.64.06-1.64l.54-.47s1.59,1.43,1.96,2.26c.37.83-.01,3.23.66,4.49s4.35,5.03,4.35,5.03l-1.4,3.42-5.05-5Z"/>
        <path class="cls-4" d="M64.73,37.05s1.49-.61,2.3-.72c.81-.12,1.45-.94,1.28-1.9s-.6-3.34-2.11-3.97"/>
        <g>
          <path class="cls-5" d="M67.64,22.32c.09,2.02-2.93,3.79-6.74,3.95-3.81.16-6.97-1.34-7.05-3.36-.04-1,.68-1.94,1.88-2.66"/>
          <polygon class="cls-9" points="55.67 21.22 57.82 19.01 54.85 19.85 55.67 21.22"/>
        </g>
      </g>
      <rect class="cls-6" x="2.29" y="2.07" width="160.98" height="80.99"/>
    </g>
  </g>
</svg>