<?xml version="1.0" encoding="UTF-8"?>
<svg id="_图层_2" data-name="图层 2" xmlns="http://www.w3.org/2000/svg" xmlns:xlink="http://www.w3.org/1999/xlink" viewBox="0 0 166.41 85.11">
  <defs>
    <style>
      .cls-1 {
        fill: #fff;
      }

      .cls-1, .cls-2, .cls-3, .cls-4, .cls-5 {
        stroke: #54565a;
        stroke-width: .2px;
      }

      .cls-1, .cls-2, .cls-3, .cls-6, .cls-5 {
        stroke-linecap: round;
        stroke-linejoin: round;
      }

      .cls-7, .cls-2, .cls-8, .cls-6, .cls-9 {
        fill: none;
      }

      .cls-10 {
        clip-path: url(#clippath-1);
      }

      .cls-11, .cls-3 {
        fill: #e6e6e5;
      }

      .cls-12, .cls-4, .cls-5 {
        fill: #ff6b00;
      }

      .cls-8 {
        stroke: #231815;
        stroke-dasharray: .78 .78;
        stroke-width: .25px;
      }

      .cls-8, .cls-4, .cls-9 {
        stroke-miterlimit: 10;
      }

      .cls-13 {
        clip-path: url(#clippath);
      }

      .cls-6 {
        stroke: #ff6b00;
        stroke-width: .33px;
      }

      .cls-9 {
        stroke: #040000;
        stroke-linecap: square;
        stroke-width: .12px;
      }
    </style>
    <clipPath id="clippath">
      <rect class="cls-7" x="7.04" y="8.21" width="155.47" height="73.78"/>
    </clipPath>
    <clipPath id="clippath-1">
      <rect class="cls-7" x="3.36" y="4.93" width="159.91" height="78.12"/>
    </clipPath>
  </defs>
  <g id="_图层_1-2" data-name="图层 1">
    <g>
      <g class="cls-13">
        <g>
          <g>
            <path class="cls-9" d="M22.44,54.63c-4.33.49-8.63,1.04-12.98,1.22-.88.05-1.77.18-2.67.27-1.72.28-3.17-.02-3.7-1.84-.31-.94.04-1.96.75-2.64.59-.54,1.46-.75,2.24-.66.49.07,1.04.33,1.43.63.19.14.58.47.71.48,2.19-.41,22.94-4.87,24.65-5.21,1.04-.27,2.79-.8,3.78-1.07,1.23-.35,2.42-.92,3.49-1.63"/>
            <line class="cls-9" x1="38.04" y1="49.39" x2="10.89" y2="58.78"/>
            <path class="cls-9" d="M38.32,49.4c.81-.34,1.6-.88,1.88-1.76.22-.71.58-1.85,1.51-1.67.44.14.69.59.94.96.29.46.55.89.81,1.36.67,1.17,1.25,2.46,1.62,3.76"/>
            <path class="cls-9" d="M8.81,64.72c-.42-1.28-1.47-3.94-.47-5.09.43-.39,1.09-.4,1.64-.5.31-.05.56-.14.85-.22"/>
            <line class="cls-9" x1="41.29" y1="58.74" x2="14.06" y2="67.92"/>
            <path class="cls-9" d="M41.5,58.56c.85-.23,1.81-.28,2.56.24.61.43,1.59,1.11,2.21.4.27-.38.19-.89.16-1.33-.05-.54-.11-1.04-.19-1.57-.18-1.34-.51-2.71-1.02-3.97"/>
            <path class="cls-9" d="M8.78,64.5c.45,1.27,1.25,4.02,2.74,4.32.57.05,1.11-.35,1.61-.61.28-.15.53-.24.81-.35"/>
            <path class="cls-9" d="M56.09,28.36c4.58-2.18,4.77-2.13,7.38-3.37,2.11-.9,5.85-2.43,7.12-3.03.32-.16.74-.34,1.07-.4.64-.1,1.51-.05,2.19-.03.38.03,1.27.09,1.7.12.47.03.94-.11,1.29-.33,1.85-1.17,4.64-2.98,6.63-4.17,1.27-.75,2.55-1.48,3.78-2.2.49-.3.95-.48,1.49-.74.49-.21.92-.48,1.43-.58.65-.13,1.62-.4,2.24-.46,1.44-.16,3.55-.39,4.91-.55,1.57-.18,3.72-.25,5.54-.38.81-.03,3.72-.18,5.06-.23.84,0,2.68-.02,3.47-.02"/>
            <path class="cls-9" d="M41.05,45.96c-.28-.49-.67-.96-.81-1.52-.17-.61-.31-1.08-.41-1.71-.22-1.37-.7-3.27-.76-4.01.05-.58.14-1.27.2-1.87,0-.04,0-.08.01-.12.04-.35.04-.27.12-.32.03-.01.05-.02.08-.04,1.16-.55,6.52-3.09,12.08-5.73"/>
            <path class="cls-9" d="M57.39,29.47c7.57-3.43,12.92-5.78,14.14-6.33.32-.11.82-.4,1.21-.33.58.11,1.49.37,2.05.49.13.03.27.07.38.15.09.08.14.19.18.31.12.31.33.92.45,1.26.28.79.58,1.59.88,2.39,1.39,3.72,2.57,6.92,3.72,10.43.31,1,.78,1.98,1.2,2.97.19.48.43.77.74,1.21.33.44.64.95,1,1.33.69.48,1.68,1.06,2.43,1.52.64.31,1.65.73,2.31,1.03.91.4,2.13.95,2.98,1.33.39.17.44.19.9.26,1.06.15,2.24.39,3.26.43,1.46.09,3.35.26,4.62.31,4.29.07,8.01.17,11.55.13"/>
            <path class="cls-9" d="M39.13,38.06c2.12-1,5.04-2.45,7.43-3.61,1.2-.55,2.88-1.31,4.8-2.18"/>
            <path class="cls-9" d="M75.17,23.45c1.91-.95,3.71-2.03,5.5-3.21,1.36-.86,2.76-1.62,4.16-2.42,1.95-1.16,3.89-2.3,6.08-2.93,2.96-.82,6.06-.75,9.1-1,1.74-.11,3.45-.28,5.2-.27,2.09,0,4.17,0,6.18,0"/>
            <path class="cls-9" d="M72.52,22.8c2.19,3.95,3.64,8.28,5.28,12.47.78,1.96,1.43,3.93,2.5,5.75,1.02,1.86,2.6,3.16,4.38,4.26,1.55.93,3.26,1.76,4.94,2.41,1.56.6,3.14,1.06,4.75,1.34,2.18.4,4.26.39,6.59.49,3.39.12,7.14.26,10.43.38"/>
            <path class="cls-9" d="M39.1,38.4c.28.36.64.77.86,1.09.35.56.65,1.2.98,1.78.64,1.2,1.34,2.6,1.92,3.72.46.9,1.09,2,1.48,2.84.42,1.03,1,2.22,1.34,3.21.29.92.75,2.33,1.01,3.15.35,1.16.69,2.78.98,3.91.18.67.25,1.3.36,2.02.02.22.11.41.36.41,1.71-.07,3.62-.4,5.68-.59,1.39-.15,3.42-.41,5.24-.62.88-.12,1.7-.1,2.61-.1"/>
            <path class="cls-9" d="M48.07,60.54c-1.59-1-.96.15-.73,1.13.26,1.22.69,2.57,1.02,3.72"/>
            <path class="cls-9" d="M57.21,65.23c1.21-.03,2.33-.05,3.17-.07.68,0,1.2-.04,1.93-.18,4.66-.78,9.25-1.33,13.96-2.01,1.79-.25,4.33-.67,6.27-.91,1.79-.22,3.53-.46,5.39-.44,4.39.02,4.61,1.58,5.05,5.49.12,1.3.45,2.51.75,3.83.23,1.01.42,1.77.65,2.75.42,1.64.77,3.38,1.65,4.86.53.91,1.39,1.51,2.36,1.85,1.06.43,2,.48,3.1.52.92.04,1.66.09,2.58.12,2.4.11,4.91.15,7.31.13"/>
            <path class="cls-9" d="M43.35,58.47c.14.73.17,1.36.65,1.9,1,1.12,3.19,3.84,4.25,4.96.12.09.22.09.36.09.62-.01,2.21-.05,4.08-.09"/>
            <path class="cls-9" d="M61.91,59.34c.45,1,.53,2.11.54,3.21,0,1.14-.24,2.06-1.31,2.59"/>
            <polyline class="cls-9" points="52.83 65.33 52.52 65.04 52.64 63.23 53.52 61.49 57.12 61.49 57.12 65.28 56.63 65.6 53.36 65.85 53.3 65.79 52.83 65.33"/>
            <polyline class="cls-9" points="53.36 65.39 54.89 63.1 56.35 63.05 57.12 61.49"/>
            <line class="cls-9" x1="53.57" y1="61.54" x2="54.88" y2="63.1"/>
            <line class="cls-9" x1="53.37" y1="65.35" x2="53.36" y2="65.85"/>
            <line class="cls-9" x1="56.36" y1="63.1" x2="56.63" y2="65.6"/>
            <line class="cls-9" x1="52.64" y1="63.23" x2="53.74" y2="64.83"/>
            <path class="cls-9" d="M52.54,64.88c-2.02,0-2.18,0-2.13-2.03.01-.49-.03-1,.03-1.47.12-.82,1.53-.76,2.17-.79,2.1-.05,6.18-.16,7.32-.18.14,0,.26,0,.33.11.07.09.1.38.12.56.07.66.19,1.92.25,2.64.07.59,0,.81-.64.86-.81.08-1.87.17-2.71.24"/>
            <path class="cls-9" d="M48.62,54.35c.82-1.36,2.21-2.16,3.57-2.98.83-.52,1.57-.87,2.44-1.28,1.3-.64,2.6-1.07,4-1.27,1.02-.11,1.89.45,2.29,1.38.55,1.17.93,2.45.97,3.73.07,1.11.02,2.2-.46,3.2-.94,1.92-3.09,1.99-5.05,1.88-.86-.03-1.59-.05-2.34-.1-1.5-.1-3.87-.54-4.95-1.64-.72-.72-.96-1.99-.49-2.9v-.02Z"/>
            <path class="cls-9" d="M49.46,56.47c-1.39-2.3,2.25-3.95,4-4.83,1.65-.72,4.7-2.71,6.28-1.54,1.81,1.25,2.12,7-.13,7.94-.61.28-1.35.36-2.03.38-1.05.03-2.09-.03-3.08-.12-1.58-.21-4.04-.41-5.02-1.81v-.02Z"/>
            <path class="cls-9" d="M50.97,55.2c.18-1.78,3.18-2.91,4.6-3.66.92-.43,2.14-1.07,3.03-.28.84.79,1.1,2.47,1.13,3.6.06,2.72-2.89,2.48-4.87,2.4-1.43-.08-3.78-.23-3.88-2.04v-.02Z"/>
            <path class="cls-9" d="M43.08,41.86c.11,1.1.76,2.19,1.14,3.19.61,1.41,1.24,2.78,1.91,4.2,1.47,3.26,3.61,2.92,6.18,1.05,1.07-.73,2.44-1.6,3.44-2.33,1.52-1,1.35-2.69.9-4.2-.29-.88-.72-1.73-1.09-2.6-.62-1.36-1.16-2.7-2.35-3.51-.59-.39-1.3-.3-1.97-.2-.56.08-1.03.12-1.52.19-.73.07-1.6.46-2.29.83-.78.39-1.53.78-2.29,1.16-.89.44-2.11,1.09-2.06,2.19v.02Z"/>
            <polyline class="cls-9" points="43.08 41.6 44.36 43.89 45.33 45.79 46.06 47.67 46.66 49.3 46.89 50.01 46.89 50.55"/>
            <path class="cls-9" d="M48.12,49.61c-.28-.66-.55-1.72-.84-2.45-.5-1.13-1.02-2.25-1.53-3.37-.2-.42-.4-.72-.63-1.11-.15-.27-.32-.62-.26-.91.16-.71,2.73-1.81,3.47-2.22.51-.25,1.13-.5,1.67-.76.2-.09.4-.18.61-.21.91-.14,1.29.77,1.72,1.44.23.38.47.75.66,1.16.34.74.68,1.53,1,2.28.32.77.7,1.46.69,2.28.06.76-.69,1.23-1.17,1.69-.48.44-.97.87-1.48,1.3-.5.4-1.13.95-1.64,1.39-.8.58-1.86.47-2.28-.49v-.02Z"/>
            <path class="cls-9" d="M46.54,41.52c-.11.34.06.55.24,1.03.09.22.18.44.27.67.49,1.2,1.06,2.63,1.55,3.79.44,1.1.97,1.49,2.03.74.81-.53,1.55-1.09,2.27-1.74.51-.47.61-.99.24-1.57-.49-.85-1.82-3.15-2.34-4.04-.21-.37-.49-.66-.96-.53-.65.18-1.81.81-2.45,1.08-.33.16-.79.37-.85.55h0Z"/>
            <path class="cls-9" d="M48.52,46.68c.87.94,1.08,1,2.12.19.9-.68,1.82-1.39,2.63-2.18"/>
            <line class="cls-9" x1="49.59" y1="47.44" x2="49.93" y2="48.13"/>
            <line class="cls-9" x1="75.85" y1="23.1" x2="92.25" y2="47.53"/>
            <path class="cls-9" d="M53.36,65.98c-1.41,1.44-3.13,2.77-3.99,4.64-.62,1.3-.87,2.53-1.2,3.96-.55,2.29-1.04,4.77-1.54,7.12-.52,2.53-.9,5.21-1.32,7.77-.25,1.74-.61,3.51-.75,5.26-.14,1.65-.37,3.48-.44,5.13-.04,1.07-.09,2.26-.11,3.34,0,1.11-.04,2.35.1,3.48.16,1.21.39,2.61.38,3.74,0,.69.03,1.41-.18,2.09-.4,1.24-1.05,2.18-1.72,3.37-.5.85-.98,1.66-1.5,2.48-.61.98-1.23,1.92-1.8,2.81-.69,1.09-1.33,2.2-1.6,3.48-.16.69-.15,1.29-.11,1.98.08,1.32.26,4.44.35,6.06.11,1.84.17,3.79.25,5.68.17,4.22.44,8.35.78,12.57.31,4.63.68,9.11,1.12,13.74.39,4.18.96,8.17,1.43,12.42.24,2.01.43,4,.64,6.02.28,2.43.73,5.82,1.01,8.11.56,4.2,1.23,9.17,1.81,13.27.56,3.63,1.45,9.51,1.94,13.5"/>
            <path class="cls-9" d="M56.3,65.72c-1.26,1.37-2.61,2.69-3.75,4.17-2.21,2.97-3.05,6.59-4.17,10.06-.79,2.64-1.49,5.39-2.09,8.08-.26,1.3-.42,2.61-.63,3.94-.69,3.85-1.1,7.79-1,11.71,0,1.83.09,3.02.25,4.75.11,1.43.29,2.91.02,4.33-.34,1.52-1.25,2.89-2.04,4.23-.95,1.56-1.91,3.08-2.86,4.65-.63,1.04-1.2,2.11-1.45,3.3-.15.66-.2,1.33-.18,2.01.02,1.28.12,3.08.18,4.46.32,8.22.78,16.63,1.49,24.78.4,4.07.81,9.03,1.24,12.96,1,7.81,2.48,19.76,3.36,27.02,1.06,7.54,2.36,15.27,3.37,22.78"/>
            <path class="cls-9" d="M111.39,82.31c-5.14.04-10.33-.09-15.41-.74-1.93-.25-3.8-.68-5.67-1.08-3.51-.76-6.98-1.52-10.49-2.29-4.12-.88-8.15-1.69-12.2-2.66-1.03-.23-2.24-.55-3.3-.75-1.24-.23-2.64-.4-3.98-.54-1.08-.11-2.18-.17-3.28-.17-1.22.02-2.58.07-3.74.53-2.1.78-2.63,2.74-3.26,4.7-.36,1.1-.76,2.29-1.12,3.4-.57,1.65-.89,3.18-1.35,4.9-.47,1.8-.9,3.55-1.3,5.48-.35,2.03.25,3.26,1.5,4.83.99,1.28,1.96,2.6,2.95,3.89.5.63,1.03,1.2,1.6,1.77.69.73,1.61,1.44,2.55,1.71.92.28,1.73.33,2.74.47,2.44.29,4.66.63,7.06.82,6.52.6,13.99,1.28,20.33,1.69,9.2.2,17.5.57,26.39.71"/>
            <path class="cls-9" d="M96.4,104.87c.87-.32.54-1.45.61-2.48,0-1.72,0-3.27,0-5.23-.02-4.21.04-7.85-.02-10.51,0-1.29-.86-2.32-1.9-3.02-1.53-1.04-3.19-1.17-5.04-1.63-2.11-.47-4.68-1.04-6.7-1.49-2.37-.52-4.29-.98-6.66-1.51-1.81-.4-3.56-.72-5.36-1.15-2.08-.5-4.17-1.06-6.33-1.29-1.85-.18-3.73-.35-5.58-.37-1.1.02-2.37.22-3.15.97-.62.59-1.02,1.58-1.33,2.46-.26.72-.52,1.49-.77,2.22-.77,2.14-1.25,3.89-1.76,6.02-.46,1.94-1,3.94-.41,5.9.58,1.83,1.58,3.58,2.58,5.21.99,1.61,2.36,2.88,4.23,3.3,2.38.59,4.31.67,6.82.88,2.61.2,5.44.44,7.94.62,3.95.29,8.09.53,12.07.79,2.32.16,4.94.36,7.3.36,1.04-.03,2.48.17,3.43-.06h.01Z"/>
          </g>
          <path class="cls-9" d="M166.41,28.35c-4.53-2.15-4.51-2.14-7.09-3.36-2.11-.9-5.85-2.43-7.12-3.03-.32-.16-.74-.34-1.07-.4-.64-.1-1.51-.05-2.19-.03-.38.03-1.27.09-1.7.12-.47.03-.94-.11-1.29-.33-1.85-1.17-4.64-2.98-6.63-4.17-1.27-.75-2.55-1.48-3.78-2.2-.49-.3-.95-.48-1.49-.74-.49-.21-.92-.48-1.43-.58-.65-.13-1.62-.4-2.24-.46-1.44-.16-3.55-.39-4.91-.55-1.57-.18-3.72-.25-5.54-.38-.81-.03-3.72-.18-5.06-.23-.84,0-2.68-.02-3.47-.02"/>
          <path class="cls-9" d="M165.12,29.49c-7.57-3.43-12.66-5.8-13.86-6.36-.32-.11-.82-.4-1.21-.33-.58.11-1.49.37-2.05.49-.13.03-.27.07-.38.15-.09.08-.14.19-.18.31-.12.31-.33.92-.45,1.26-.28.79-.58,1.59-.88,2.39-1.39,3.72-2.57,6.92-3.72,10.43-.31,1-.78,1.98-1.2,2.97-.19.48-.43.77-.74,1.21-.33.44-.64.95-1,1.33-.69.48-1.68,1.06-2.43,1.52-.64.31-1.65.73-2.31,1.03-.91.4-2.13.95-2.98,1.33-.39.17-.44.19-.9.26-1.06.15-2.24.39-3.26.43-1.46.09-3.35.26-4.62.31-4.29.07-8.01.17-11.55.13"/>
          <path class="cls-9" d="M147.62,23.45c-1.91-.95-3.71-2.03-5.5-3.21-1.36-.86-2.76-1.62-4.16-2.42-1.95-1.16-3.89-2.3-6.08-2.93-2.96-.82-6.06-.75-9.1-1-1.74-.11-3.45-.28-5.2-.27-2.09,0-4.17,0-6.18,0"/>
          <path class="cls-9" d="M150.27,22.8c-2.19,3.95-3.64,8.28-5.28,12.47-.78,1.96-1.43,3.93-2.5,5.75-1.02,1.86-2.6,3.16-4.38,4.26-1.55.93-3.26,1.76-4.94,2.41-1.56.6-3.14,1.06-4.75,1.34-2.18.4-4.26.39-6.59.49-3.39.12-7.14.26-10.43.38"/>
          <path class="cls-9" d="M183.69,38.4c-.28.36-.64.77-.86,1.09-.35.56-.65,1.2-.98,1.78-.64,1.2-1.34,2.6-1.92,3.72-.46.9-1.09,2-1.48,2.84-.42,1.03-1,2.22-1.34,3.21-.29.92-.75,2.33-1.01,3.15-.35,1.16-.69,2.78-.98,3.91-.18.67-.25,1.3-.36,2.02-.02.22-.11.41-.36.41-1.71-.07-3.62-.4-5.68-.59-1.39-.15-3.42-.41-5.24-.62-.88-.12-1.7-.1-2.61-.1"/>
          <path class="cls-9" d="M162.4,65.16c-.68,0-1.2-.04-1.93-.18-4.66-.78-9.25-1.33-13.96-2.01-1.79-.25-4.33-.67-6.27-.91-1.79-.22-3.53-.46-5.39-.44-4.39.02-4.61,1.58-5.05,5.49-.12,1.3-.45,2.51-.75,3.83-.23,1.01-.42,1.77-.65,2.75-.42,1.64-.77,3.38-1.65,4.86-.53.91-1.39,1.51-2.36,1.85-1.06.43-2,.48-3.1.52-.92.04-1.66.09-2.58.12-2.4.11-4.91.15-7.31.13"/>
          <path class="cls-9" d="M160.88,59.34c-.45,1-.53,2.11-.54,3.21,0,1.14.24,2.06,1.31,2.59"/>
          <path class="cls-9" d="M174.17,54.35c-.82-1.36-2.21-2.16-3.57-2.98-.83-.52-1.57-.87-2.44-1.28-1.3-.64-2.6-1.07-4-1.27-1.02-.11-1.89.45-2.29,1.38-.55,1.17-.93,2.45-.97,3.73-.07,1.11-.02,2.2.46,3.2.94,1.92,3.09,1.99,5.05,1.88.86-.03,1.59-.05,2.34-.1,1.5-.1,3.87-.54,4.95-1.64.72-.72.96-1.99.49-2.9v-.02Z"/>
          <path class="cls-9" d="M173.32,56.47c1.39-2.3-2.25-3.95-4-4.83-1.65-.72-4.7-2.71-6.28-1.54-1.81,1.25-2.12,7,.13,7.94.61.28,1.35.36,2.03.38,1.05.03,2.09-.03,3.08-.12,1.58-.21,4.04-.41,5.02-1.81v-.02Z"/>
          <path class="cls-9" d="M171.82,55.2c-.18-1.78-3.18-2.91-4.6-3.66-.92-.43-2.14-1.07-3.03-.28-.84.79-1.1,2.47-1.13,3.6-.06,2.72,2.89,2.48,4.87,2.4,1.43-.08,3.78-.23,3.88-2.04v-.02Z"/>
          <line class="cls-9" x1="146.94" y1="23.1" x2="130.54" y2="47.53"/>
          <path class="cls-9" d="M166.03,65.45c1.26,1.37,3.07,2.96,4.21,4.43,2.21,2.97,3.05,6.59,4.17,10.06.79,2.64,1.49,5.39,2.09,8.08.26,1.3.42,2.61.63,3.94.69,3.85,1.1,7.79,1,11.71,0,1.83-.09,3.02-.25,4.75-.11,1.43-.29,2.91-.02,4.33.34,1.52,1.25,2.89,2.04,4.23.95,1.56,1.91,3.08,2.86,4.65.63,1.04,1.2,2.11,1.45,3.3.15.66.2,1.33.18,2.01-.02,1.28-.12,3.08-.18,4.46-.32,8.22-.78,16.63-1.49,24.78-.4,4.07-.81,9.03-1.24,12.96-1,7.81-2.48,19.76-3.36,27.02-1.06,7.54-2.36,15.27-3.37,22.78"/>
          <path class="cls-9" d="M111.39,82.31c5.14.04,10.33-.09,15.41-.74,1.93-.25,3.8-.68,5.67-1.08,3.51-.76,6.98-1.52,10.49-2.29,4.12-.88,8.15-1.69,12.2-2.66,1.03-.23,2.24-.55,3.3-.75,1.24-.23,2.64-.4,3.98-.54,1.08-.11,2.18-.17,3.28-.17,1.22.02,2.58.07,3.74.53,2.1.78,2.63,2.74,3.26,4.7.36,1.1.76,2.29,1.12,3.4.57,1.65.89,3.18,1.35,4.9.47,1.8.9,3.55,1.3,5.48.35,2.03-.25,3.26-1.5,4.83-.99,1.28-1.96,2.6-2.95,3.89-.5.63-1.03,1.2-1.6,1.77-.69.73-1.61,1.44-2.55,1.71-.92.28-1.73.33-2.74.47-2.44.29-4.66.63-7.06.82-6.52.6-13.99,1.28-20.33,1.69-9.2.2-17.5.57-26.39.71"/>
          <path class="cls-9" d="M126.39,104.87c-.87-.32-.54-1.45-.61-2.48,0-1.72,0-3.27,0-5.23.02-4.21-.04-7.85.02-10.51,0-1.29.86-2.32,1.9-3.02,1.53-1.04,3.19-1.17,5.04-1.63,2.11-.47,4.68-1.04,6.7-1.49,2.37-.52,4.29-.98,6.66-1.51,1.81-.4,3.56-.72,5.36-1.15,2.08-.5,4.17-1.06,6.33-1.29,1.85-.18,3.73-.35,5.58-.37,1.1.02,2.37.22,3.15.97.62.59,1.02,1.58,1.33,2.46.26.72.52,1.49.77,2.22.77,2.14,1.25,3.89,1.76,6.02.46,1.94,1,3.94.41,5.9-.58,1.83-1.58,3.58-2.58,5.21-.99,1.61-2.36,2.88-4.23,3.3-2.38.59-4.31.67-6.82.88-2.61.2-5.44.44-7.94.62-3.95.29-8.09.53-12.07.79-2.32.16-4.94.36-7.3.36-1.04-.03-2.48.17-3.43-.06h-.01Z"/>
          <g>
            <path class="cls-9" d="M72.13,42.96l2.13.99,4.32,2,5.3,2.75,7.14,4.15,3.28,1.82,2.87,1.25,1.72.34s5.02.3,5.08.28,7.41.16,7.41.16"/>
            <path class="cls-9" d="M74.05,43.85c1.82,1.24,3.66,2.37,5.4,3.69,1.63,1.24,3.12,2.57,4.6,4,3.1,2.95,6.51,6.73,8.52,10.55"/>
            <path class="cls-9" d="M62.06,64.32c6.36-.88,13.28-1.99,19.74-2.82,1.28-.16,2.51-.32,3.78-.48,1.08-.13,2.07-.27,3.1-.21,1.44.04,2.74.6,3.96,1.31"/>
            <path class="cls-9" d="M90.6,61.97c2.3.71,3.07,2.09,3.78,4.25.34,1.02.7,2.06.92,3.04.18.85.27,1.76.4,2.63.35,2.54.91,5.23,1.25,7.73"/>
          </g>
          <g>
            <path class="cls-9" d="M150.68,42.96l-2.13.99-4.32,2-5.3,2.75-7.14,4.15-3.28,1.82-2.87,1.25-1.72.34s-5.02.3-5.08.28-7.41.16-7.41.16"/>
            <path class="cls-9" d="M148.77,43.85c-1.82,1.24-3.66,2.37-5.4,3.69-1.63,1.24-3.12,2.57-4.6,4-3.1,2.95-6.51,6.73-8.52,10.55"/>
            <path class="cls-9" d="M160.76,64.32c-6.36-.88-13.28-1.99-19.74-2.82-1.28-.16-2.51-.32-3.78-.48-1.08-.13-2.07-.27-3.1-.21-1.44.04-2.74.6-3.96,1.31"/>
            <path class="cls-9" d="M132.22,61.97c-2.3.71-3.07,2.09-3.78,4.25-.34,1.02-.7,2.06-.92,3.04-.18.85-.27,1.76-.4,2.63-.35,2.54-.91,5.23-1.25,7.73"/>
          </g>
          <path class="cls-9" d="M57.21,46.35c4.98-1.15,9.85-2.34,14.87-3.34"/>
          <path class="cls-9" d="M162.63,46.36c-4.01-1.15-7.92-2.34-11.95-3.34"/>
          <path class="cls-9" d="M162.99,45.34c-.22.75.36,1.35.99,1.59.72.31,1.96.64,2.83.91,1.06.33,2.09.52,3.22.58.81.01,1.67.09,2.28-.47.4-.37.66-.9.95-1.37.73-1.25,1.21-2.96,1.74-4.36.31-.86.74-2.37-.48-2.65-.79-.18-1.45-.26-2.39-.44-.8-.14-1.64-.29-2.29-.41-.95-.2-1.72-.33-2.54.43-.86.79-1.42,1.8-2.16,2.73-.54.73-.95,1.29-1.34,1.88-.3.47-.69,1.06-.82,1.57v.02Z"/>
          <path class="cls-9" d="M168.57,39.18c-.82.27-1.25,1.05-1.81,1.75-.62.82-1.27,1.62-1.85,2.44-.74,1.09-1.85,2.11.17,2.75.92.34,1.74.77,2.68.98.5.12,1.05.25,1.55.36.99.23,2.47.56,2.88-.71.56-1.13,1.79-3.62,2.18-4.4.23-.52.47-1.12.55-1.7.01-.26-.06-.53-.24-.72-.23-.25-.48-.23-1.01-.3-.25-.03-.5-.06-.77-.09-.91-.11-2.08-.24-2.91-.33-.48-.03-.96-.2-1.41-.03h-.02Z"/>
          <path class="cls-9" d="M169.2,39.73c-.34.1-.75.74-1.05,1.13-.54.74-1.21,1.58-1.7,2.32-.6.94-.12,1.35.76,1.53.76.16,1.7.36,2.45.49,1.07.21,1.36-.14,1.82-1,.15-.27.29-.57.43-.85.4-.93,1.58-2.68.56-3.27-.42-.2-.9-.23-1.37-.29-.59-.04-1.41-.21-1.88-.06h-.02Z"/>
          <path class="cls-9" d="M168.51,40.38c-.47.61-1.4,1.58-1.9,2.24-.85,1.02-1.42,2.06.06,2.57.81.25,1.83.69,2.72.76.45.02.97.04,1.35-.19.74-.53.92-1.24,1.38-2.07.34-.69.74-1.5.97-1.96.46-.81,0-1.61-.91-1.76"/>
          <path class="cls-9" d="M161.98,62.34v-1.7l11.06.25-.05,2.05"/>
          <path class="cls-9" d="M171.06,62.49h-7.14c-.54,0-.97.43-.97.97v1c0,.54.43.97.97.97h7.14c.2,0,.39-.06.55-.17.26-.18.42-.47.42-.8v-1c0-.54-.43-.97-.97-.97Z"/>
          <path class="cls-9" d="M163.24,65.27h-.29c-.54,0-.98-.44-.98-.98v-1.73c0-.54.44-.98.98-.98h8.49c.84,0,1.51.68,1.51,1.51v1.19c0,.54-.44.98-.98.98h-.33"/>
          <path class="cls-9" d="M64.49,103.07c1.87-.18,3.85-.41,5.62-.54,1.91-.11,3.87-.16,5.86-.24,1.01-.04,2.02-.08,3.02-.12,1.51-.06,2.73-.05,4.07-.52,1.21-.47,2.86-1.2,3.53-2.33.21-.38.29-.83.33-1.27.15-1.58.44-4.63.73-7.64.3-3.16.56-5.89.83-8.74"/>
          <polyline class="cls-9" points="57.23 76.58 56.27 82.63 55.21 90.03 54.6 95.77 54.58 98.98"/>
          <path class="cls-9" d="M138.68,103.33c.28-.78.96-1.22,1.63-1.66.76-.56,1.35-1.12,2.13-1.64.79-.56,1.54-1,2.13-1.81.27-.35.56-.72.82-1.07.65-.85,1.01-2.02,1.44-3.02.2-.52.25-.82.27-1.44.02-.59.05-1.51.07-2.15.05-.96-.03-1.6-.14-2.5-.1-1.37-.7-2.54-1.38-3.7-.38-.67-1.07-1.28-1.7-1.79-.99-.87-2.13-1.57-3.21-2.31"/>
          <polyline class="cls-9" points="146.09 79.01 147.44 80.78 148.41 82.02 149.9 85.21 150.78 86.48 152.35 86.48 156.27 86.48 156.91 86.3"/>
          <path class="cls-9" d="M147.18,78.78c.72.98,1.45,1.93,2.08,2.99.94,1.59,1.12,2.88,3.33,2.8,1.73-.11,3.6-.24,5.34-.33,2.05-.1,4.22-.12,5.95,1.08,3.07,1.93,3.28,3.37,3.96,6.73.46,3.1-.68,5.18-3.34,6.75-1.35.69-2.8,1.19-4.27,1.39-1.12.13-2.51.18-3.6.27-2.66.18-6.08.43-8.7.62-1.6.1-3.18.31-4.79.49-.81.09-1.71.21-2.38.48-.69.27-1.34.68-2.03,1.08"/>
          <ellipse class="cls-9" cx="136.97" cy="91.69" rx="8.53" ry="8.3" transform="translate(5.25 190.79) rotate(-70.76)"/>
          <path class="cls-9" d="M136.71,81.15c.78-.04,1.57.01,2.36.19,5.16,1.13,8.34,6.69,7.09,12.42-.6,2.77-2.13,5.07-4.13,6.58"/>
        </g>
      </g>
      <path class="cls-2" d="M59.71,33.06c.94.36,1.52.85,1.49,1.38-.06.98-2.18,1.69-4.75,1.6-2.57-.09-4.6-.96-4.55-1.93.03-.5.61-.94,1.51-1.23"/>
      <polygon class="cls-1" points="53.48 30.04 55.45 29.13 57.91 29.13 59.75 30.04 58.22 30.88 55.35 30.95 53.48 30.04"/>
      <path class="cls-5" d="M59.75,30.04l-.07,5.6s-1.08.34-2.79.41c-1.71.06-3.53-.58-3.53-.58l.12-5.43,1.86.91,2.88-.06,1.53-.84Z"/>
      <line class="cls-2" x1="55.35" y1="30.95" x2="55.35" y2="35.95"/>
      <line class="cls-2" x1="58.22" y1="30.88" x2="58.17" y2="35.98"/>
      <path class="cls-1" d="M58.19,29.89c.09.07.13.14.13.21,0,.3-.76.55-1.69.55s-1.69-.24-1.69-.55c0-.09.06-.17.17-.24"/>
      <polyline class="cls-5" points="59.34 24.28 60.16 25.11 60.02 28.86 58.2 29.63 54.94 29.56 53.48 28.51 53.48 24.66 54.94 24.02 59.34 24.28"/>
      <polyline class="cls-2" points="53.48 24.66 54.94 25.52 58.26 25.83 60.16 25.11"/>
      <line class="cls-2" x1="54.94" y1="25.52" x2="54.94" y2="29.56"/>
      <line class="cls-2" x1="58.26" y1="25.83" x2="58.2" y2="29.63"/>
      <path class="cls-1" d="M55.1,30.34v-.77s3.1.1,3.1.1v.64s-.61.39-1.63.33c-1.07-.06-1.47-.3-1.47-.3Z"/>
      <g>
        <path class="cls-6" d="M65.97,32.5c.6-.97.94-2.06.94-3.22,0-2.65-1.76-4.96-4.37-6.18"/>
        <polygon class="cls-12" points="67.07 32.62 63.94 34.63 65.65 31.33 67.07 32.62"/>
      </g>
      <g>
        <line class="cls-6" x1="50.81" y1="13.62" x2="50.41" y2="22.44"/>
        <polygon class="cls-12" points="49.48 21.74 50.28 25.38 51.4 21.83 49.48 21.74"/>
      </g>
      <rect class="cls-8" x=".12" y=".12" width="166.16" height="84.86"/>
      <path class="cls-1" d="M59.01,4.93c.21.46.39.94.55,1.44.39,1.23.83,3.88.61,7.25-.23,3.37-.84,10.89-.89,11.22-.05.33-1.49.5-2.3.5-.81,0-2.01-.24-1.99-.65.02-.41.5-9.96.6-13,.08-2.69-.61-4.87-1.62-6.64"/>
      <g>
        <path class="cls-4" d="M62.66,22.92s.04-.28-.08-.92c-.11-.64-.83-.67-.85-.78-.02-.11.01-4.57-.04-5.49-.05-.92-.1-1.87-.19-1.93s-.54-.26-.85-.84c-.31-.57-.38-.96-.41-1.47-.03-.52-.04-.79-.16-.87-.12-.08-.07-.38-.07-.38,0,0,.24-.03.23-.16,0-.13.02-.64.02-.64,0,0-.1.04-.85.02-.75-.02-1.53-.09-1.53-.09,0,0-.78.02-1.53,0-.75-.02-.85-.07-.85-.07,0,0,0,.51-.02.64s.22.17.22.17c0,0,.04.3-.09.38-.13.07-.16.35-.21.86-.06.51-.15.89-.5,1.45-.35.55-.81.73-.9.79s-.19,1-.3,1.91c-.11.91-.1,5.38-.13,5.49s-.75.1-.9.73c-.15.63-.13.91-.13.91l10.09.31Z"/>
        <path class="cls-2" d="M53.6,20.97s6.29.22,8.14.25"/>
        <path class="cls-2" d="M54.03,13.57s5.17-.04,7.48.23"/>
        <path class="cls-2" d="M55.73,10.1s3.62.06,4.3.13"/>
      </g>
      <rect class="cls-7" x="2.29" y="2.06" width="160.98" height="80.99"/>
      <g class="cls-10">
        <g>
          <path class="cls-11" d="M49.8,41.87s2.34,2,2.48,4.78c.13,2.74-1.39,4.32-2.69,4.84l-.05.02s.75.66.86,1.83c.1,1.17-.6,2.52-1.05,3.04-.36.41-1.48,1.19-3.3,1.52h.05s1.38.92,1.66,1.64c.28.73-.08,2.28-.57,3.31-.5,1.03-2.29,1.66-3.22,1.64-.04,0-.08,0-.13,0h0s1.14.65.67,2.66c-.46,2.01-2.16,2.88-3.1,3.35s-2.81.68-2.81.68h.11c-.86.87-2.51,2.52-3.21,3.05-.97.74-3.1,1.06-4,.9-.9-.15-1.36-.74-1.36-.74,0,0,2.97-2.59,3.96-3.58h-.13c-1.39.45-3.42.34-3.42.34v-.03c-.01.07-.04.14-.06.18-.23.44-3.61,1.53-3.61,1.53l.04-.07c-.49.86-1.26,1.63-2.1,2.06-1.46.75-7.58,2.57-9.45,3.01-1.87.44-7.43-2.21-12.68-2.11-5.25.1-45.05,13.68-70.29,26.46-25.25,12.78-27.13,11.27-27.13,11.27l12.3-35.42s49.17-15.76,57.17-19.08c8-3.33,12.63-4.49,16.55-5.41,3.93-.91,16.17-9.22,21.66-12.06,5.49-2.84,13.13-6.1,15.01-6.14,1.89-.03,4.31.98,6.17,1.85,1.86.87,6.17,1.37,7.99.75,1.82-.62,3.13-2.05,3.72-2.48.33-.24,1.32-.38,2.1-.08l.11.04s.91-1.2,1.29-2.39c.38-1.19.46-3.45.23-4.78-.23-1.33.02-2.11.93-2.46.92-.35,2.31-.79,2.31-.79l.27.2s.7,3.39,1.59,3.99c.89.6,4.19,2.32,4.19,2.32l-1.35,1.26s-1.2.78-2.43.9c-1.23.12-1.87,1.41-2.33,2.37-.34.7-2.01,3.99-2.88,5.7"/>
          <path class="cls-3" d="M59.58,34.53c-.73-.86-2.21-1.99-4.6-3.15-2.39-1.16-3.21-2.23-3.08-3.21.13-.98.94-2.72.94-2.72l.9-.93s-.27,2.81.11,3.26c.38.45,9.99,7.28,9.99,7.28l-4.26-.53Z"/>
          <path class="cls-3" d="M107.7,130.6c-5.24-9.25-10.19-32.4-11.53-36.81-1.34-4.41-1.09-9.73-1.15-13.41s-2.53-4.48-2.9-6.94c-.36-2.46,1.32-6.03,2.24-9.67.92-3.64,2.49-12.65,2.37-14.42-.12-1.76-1-3.05-1.67-3.31s-1.8-1.9-2.67-2.63c-.87-.73-3.52-.4-4.27-.78-.75-.38-2.17-2.96-3.69-3.59s-4.47.95-5.85,1.03c-1.37.08-2.67-.3-3.03-1.76-.35-1.46-1.78-2.97-4-3.34-2.22-.37-4.49.5-5.02.99-.53.49-1.3,2.44-1.3,2.44,0,0-.45-.84-1.46-2.08-1.01-1.24-2.89-2.07-4.19-1.8-1.3.27-1.74,1-.96,3.19.79,2.19.95,5.83.46,11.55-.49,5.72-1.97,6.03-1.72,9.31.19,2.39,4.38,10.28,6.48,14.48,2.1,4.2,1.33.87,3.73,8.39,2.4,7.53,3.69,18.71,3.69,18.71,0,0,2.86,22.45,3.34,28.52.48,6.07.1,9.08.1,9.08l33-7.16Z"/>
          <path class="cls-3" d="M65.23,38.4s.21,3.29.05,5.36c-.16,2.07-.46,3.43-.4,4.81.07,1.38.17,2.68-1.38,5"/>
          <path class="cls-3" d="M60.71,34.53s-.65-.62-1.68-1.57c-1.12-1.02-1.61-1.35-4.02-2.67-2.41-1.32-2.49-2.48-2.24-3.42.25-.94.97-2.36.97-2.36l.74.65s-.35,1.51-.07,1.89c.29.39,2.1,1.25,3.01,1.3.91.05,2.17-.59,2.25-1.13.08-.54.06-1.48.06-1.48l.49-.42s1.44,1.29,1.77,2.04c.34.75-.01,2.92.6,4.06.61,1.14,3.93,4.54,3.93,4.54l-1.26,3.09-4.56-4.52Z"/>
          <path class="cls-3" d="M59.12,39.82s1.22-.49,1.88-.59c.66-.1,1.19-.76,1.05-1.54-.13-.78-.48-2.7-1.72-3.21"/>
          <text/>
          <path class="cls-3" d="M48.04,35.44s.91-1.2,1.29-2.39c.38-1.19.46-3.45.23-4.78-.23-1.33.02-2.11.93-2.46.92-.35,2.31-.79,2.31-.79l.27.2"/>
          <path class="cls-3" d="M26.69,65.62s.72,3.78.77,5.23c.05,1.45-1.18,3.23-2.64,3.97-1.46.75-7.58,2.57-9.45,3.01-1.87.44-7.43-2.21-12.68-2.11-5.25.1-45.05,13.68-70.29,26.46-25.25,12.78-27.13,11.27-27.13,11.27l12.3-35.42s49.17-15.76,57.17-19.08c8-3.33,12.63-4.49,16.55-5.41,3.93-.91,16.17-9.22,21.66-12.06,5.49-2.84,13.13-6.1,15.01-6.14,1.89-.03,4.31.98,6.17,1.85,1.86.87,6.17,1.37,7.99.75,1.82-.62,3.13-2.05,3.72-2.48.33-.24,1.32-.38,2.1-.08"/>
          <path class="cls-3" d="M35.29,46c1.39.26,6.98-.65,9.41-1.83,2.43-1.18,4.58-4.61,4.54-6.92-.02-1-.55-1.55-1.19-1.81"/>
          <path class="cls-3" d="M49.8,41.87s2.34,2,2.48,4.78c.13,2.78-1.43,4.36-2.74,4.86-1.31.5-3.41-.51-4.44-.77-1.03-.26-2.26-.61-2.4-1.88s1.05-3.35,3.39-3.76c2.34-.41,3.7-.57,4.1-.52"/>
          <path class="cls-3" d="M33.4,41.88s1.9,2.85,1.83,4.44c-.07,1.59-2.1,3.87-3.14,5.28-1.04,1.4-8,8.45-10.77,10.95-2.77,2.5-6.32,3.15-6.32,3.15"/>
          <path class="cls-3" d="M34.43,48.41s4.09.8,6.32,1.37c2.23.56,4.64,1.05,4.64,1.05"/>
          <path class="cls-3" d="M30.61,53.28s1.75.66,4.37,1.97c2.62,1.31,6.62,2.83,9.41,2.81,2.79-.02,4.49-1.16,4.94-1.67s1.15-1.87,1.05-3.04c-.1-1.17-.86-1.83-.86-1.83"/>
          <path class="cls-3" d="M29.04,54.93s1.78.42,3.62.53c1.83.11,3.78.47,3.78.47"/>
          <path class="cls-3" d="M29.92,62.17s-1.82.68-2.08,2.35c-.26,1.67,1.14,3.02,4.1,4.18,2.96,1.16,6.67,1.59,7.56,1.99"/>
          <path class="cls-3" d="M43.82,64.49s1.14.65.67,2.66c-.46,2.01-2.16,2.88-3.1,3.35s-2.81.68-2.81.68"/>
          <path class="cls-3" d="M27.84,65.33s-.92,1.01-.97,1.3"/>
          <line class="cls-3" x1="29.83" y1="67.68" x2="27.37" y2="69.86"/>
          <path class="cls-3" d="M26.87,72.84s3.38-1.09,3.61-1.53c.23-.44.56-2.3.24-3.14"/>
          <path class="cls-3" d="M30.54,71.16s2.03.11,3.42-.34"/>
          <path class="cls-3" d="M39.24,70.6s-2.79,2.89-3.76,3.63c-.97.74-3.1,1.06-4,.9-.9-.15-1.36-.74-1.36-.74,0,0,3.95-3.45,4.26-3.91.31-.46.18-.96.03-1"/>
          <path class="cls-3" d="M45.81,46.51c1.01-.05,2.51.21,2.92.34.42.12.95,1.43.36,2.4-.6.98-1.59,1.16-2.61,1.09-1.01-.07-2.02-.19-2.49-.46-.47-.27.77-3.32,1.82-3.37Z"/>
          <path class="cls-3" d="M33.9,49.2s3.04,1.46,3.46,2.05c.42.58-.19,2.13-1.38,2.95-1.18.81-2.95-.39-3.53-.68s-1.34-.8-1.34-.8"/>
          <path class="cls-3" d="M28.36,55.63s3.22.65,3.42.7c.19.05.27,1.07-.21,2.34-.48,1.28-1.27,1.55-1.61,1.6-.34.06-4.46-.33-5.27-.95,0,0,.53,1.64,3.44,2.37s5.45,1.5,9.02,1.8c3.57.3,5.87.97,6.8.99.93.02,2.72-.62,3.22-1.64.5-1.03.85-2.58.57-3.31-.28-.73-1.66-1.65-1.66-1.65"/>
          <path class="cls-3" d="M28.87,66.48s3.36.46,4.05.46c.69,0,.91-1.1,1.15-1.91s.19-1.61.06-1.67-4.03-.6-4.47-.6c-.43,0-2.07,2.47-.79,3.79"/>
          <path class="cls-3" d="M41.32,45.26s.78,1.88-1.36,4.35"/>
          <line class="cls-3" x1="42.98" y1="44.81" x2="41.28" y2="47.32"/>
        </g>
      </g>
    </g>
  </g>
</svg>