<?xml version="1.0" encoding="UTF-8"?>
<svg id="_图层_2" data-name="图层 2" xmlns="http://www.w3.org/2000/svg" viewBox="0 0 166.41 85.11">
  <defs>
    <style>
      .cls-1 {
        stroke: #231815;
        stroke-dasharray: .78 .78;
        stroke-width: .25px;
      }

      .cls-1, .cls-2, .cls-3 {
        stroke-miterlimit: 10;
      }

      .cls-1, .cls-3 {
        fill: none;
      }

      .cls-2 {
        fill: #ff6b00;
        stroke: #54565a;
        stroke-width: .25px;
      }

      .cls-3 {
        stroke: #040000;
        stroke-linecap: square;
        stroke-width: .12px;
      }
    </style>
  </defs>
  <g id="_图层_1-2" data-name="图层 1">
    <g>
      <g>
        <g>
          <polygon class="cls-2" points="132.29 70.88 134.15 70.74 136.3 70.55 137.06 70.47 137.83 75.69 137.16 75.82 134.62 76.08 132.77 76.22 132.29 70.88"/>
          <line class="cls-2" x1="134.62" y1="76.08" x2="134.15" y2="70.74"/>
          <line class="cls-2" x1="137.16" y1="75.82" x2="136.38" y2="70.54"/>
          <polygon class="cls-2" points="134.36 76.1 134.82 80.27 136.97 80.05 136.48 75.89 134.36 76.1"/>
        </g>
        <rect class="cls-1" x=".12" y=".12" width="166.16" height="84.86"/>
      </g>
      <g>
        <g>
          <g>
            <line class="cls-3" x1="72.25" y1="37.09" x2="68.77" y2="32.84"/>
            <line class="cls-3" x1="65.75" y1="35.94" x2="70.1" y2="39.3"/>
            <polyline class="cls-3" points="62.89 34.88 63.35 35.25 63.89 35.54 64.48 35.75"/>
            <line class="cls-3" x1="65.25" y1="35.84" x2="65.62" y2="35.82"/>
            <polyline class="cls-3" points="68.64 32.71 68.62 32.11 68.52 31.52 68.31 30.96 68 30.46 67.62 30"/>
            <line class="cls-3" x1="94.02" y1="63.55" x2="94.29" y2="63.3"/>
            <line class="cls-3" x1="89.12" y1="63.55" x2="89.39" y2="63.3"/>
            <polyline class="cls-3" points="70.29 39.3 70.69 39.07 71.37 38.44 72 37.73 72.25 37.3"/>
            <line class="cls-3" x1="70.1" y1="39.3" x2="70.12" y2="39.3"/>
            <polyline class="cls-3" points="70.12 39.3 70.58 39.05 71.37 38.32 72.06 37.52 72.25 37.09"/>
            <polyline class="cls-3" points="65.77 35.96 66.23 35.75 67.06 35.04 67.98 34.09 68.62 33.25 68.77 32.83"/>
            <line class="cls-3" x1="68.6" y1="32.84" x2="68.75" y2="32.81"/>
            <line class="cls-3" x1="65.75" y1="35.94" x2="65.75" y2="35.77"/>
            <line class="cls-3" x1="65.75" y1="35.96" x2="65.77" y2="35.94"/>
            <line class="cls-3" x1="93.1" y1="63.3" x2="93.1" y2="62.43"/>
            <line class="cls-3" x1="90.39" y1="62.45" x2="90.39" y2="63.3"/>
            <polyline class="cls-3" points="93.1 62.43 93.06 61.41 92.94 60.39 92.77 59.39 92.64 58.91 92.5 58.41 92.33 57.93 92.12 57.47 91.91 57.01 91.66 56.57 91.37 56.13 91.08 55.74 90.77 55.34 90.42 54.97"/>
            <polyline class="cls-3" points="88.5 56.88 88.75 57.18 88.98 57.47 89.19 57.76 89.39 58.07 89.71 58.76 89.98 59.47 90.16 60.2 90.29 60.95 90.37 61.7 90.39 62.45"/>
            <polyline class="cls-3" points="89.39 63.3 89.44 63.3 89.58 63.3 89.79 63.3 90.08 63.3 90.41 63.3 90.83 63.3 91.71 63.3 92.58 63.3 93 63.3 93.33 63.3 93.62 63.3 93.83 63.3 93.98 63.3 94.02 63.3"/>
            <line class="cls-3" x1="89.03" y1="64.55" x2="88.66" y2="68.85"/>
            <line class="cls-3" x1="89.12" y1="63.53" x2="89.03" y2="64.55"/>
            <line class="cls-3" x1="94.75" y1="68.85" x2="94.29" y2="63.53"/>
            <line class="cls-3" x1="90.41" y1="54.97" x2="83.12" y2="47.88"/>
            <line class="cls-3" x1="80.9" y1="49.52" x2="88.5" y2="56.88"/>
            <line class="cls-3" x1="70.33" y1="39.27" x2="78.82" y2="47.51"/>
            <line class="cls-3" x1="83.1" y1="47.92" x2="83.12" y2="47.88"/>
            <line class="cls-3" x1="80.77" y1="45.62" x2="72.25" y2="37.34"/>
            <line class="cls-3" x1="83.1" y1="47.88" x2="82.72" y2="47.51"/>
            <line class="cls-3" x1="61.71" y1="35.19" x2="61.77" y2="35.15"/>
            <polyline class="cls-3" points="65.62 35.82 65.73 35.77 65.89 35.69 66.08 35.57 66.29 35.4 66.54 35.21 66.79 34.98 67.33 34.44 67.83 33.9 68.06 33.63 68.25 33.38 68.41 33.17 68.52 32.98 68.6 32.81 68.64 32.71"/>
            <polyline class="cls-3" points="65.27 35.84 64.87 35.82 64.48 35.75"/>
            <polyline class="cls-3" points="64.48 35.75 64.06 35.61 63.64 35.42 63.27 35.19 62.91 34.9"/>
            <polyline class="cls-3" points="62.23 35.17 62.31 35.19 62.41 35.15 62.54 35.11 62.71 35.02 62.87 34.9 63.08 34.77 63.29 34.61 63.52 34.42 64.04 34 64.58 33.5 65.14 32.96 65.71 32.38 66.25 31.79 66.73 31.23 67.14 30.71 67.33 30.46 67.48 30.23 67.62 30.02 67.73 29.83 67.81 29.69 67.87 29.54 67.89 29.44 67.89 29.33 67.87 29.29 67.83 29.25"/>
            <polyline class="cls-3" points="67.64 28.59 67.89 28.9 67.91 29.02 67.89 29.15 67.83 29.25"/>
            <line class="cls-3" x1="61.77" y1="35.27" x2="62.23" y2="35.17"/>
            <line class="cls-3" x1="61.77" y1="35.19" x2="58.53" y2="32.33"/>
            <g>
              <line class="cls-3" x1="65.06" y1="19.19" x2="65.06" y2="19.19"/>
              <line class="cls-3" x1="68.58" y1="26.88" x2="68.6" y2="26.88"/>
              <polyline class="cls-3" points="65.06 19.19 65.66 20.06 66.25 20.96 66.75 21.89 67.23 22.85 67.64 23.83 68.02 24.83 68.33 25.85 68.6 26.88"/>
              <polyline class="cls-3" points="68.6 26.88 68.62 27.06 68.62 27.23 68.58 27.42 68.54 27.58 68.46 27.75 68.37 27.92 68.25 28.04 68.1 28.17"/>
              <polyline class="cls-3" points="63.3 17.43 63.8 17.74 64.35 18.31 64.69 18.71 65.06 19.19"/>
              <line class="cls-3" x1="61.66" y1="31.44" x2="61.83" y2="31.4"/>
              <polyline class="cls-3" points="40.04 7.87 40.58 7.81 41.07 7.73"/>
              <polyline class="cls-3" points="41.28 7.75 41.88 7.74 42.36 7.9"/>
              <polyline class="cls-3" points="56.64 32.59 55.39 32.71 54.16 32.75"/>
              <polyline class="cls-3" points="42.36 7.9 45.05 8.97 47.7 10.07 50.34 11.22 52.97 12.38 55.57 13.59 58.15 14.84 60.74 16.11 63.28 17.43"/>
              <line class="cls-3" x1="42.36" y1="7.9" x2="42.38" y2="7.9"/>
              <line class="cls-3" x1="63.28" y1="17.43" x2="63.3" y2="17.43"/>
              <polyline class="cls-3" points="68.1 28.17 67.48 28.61 66.83 29.02 66.16 29.42 65.48 29.81 64.79 30.17 64.1 30.5 63.39 30.79 62.66 31.08 61.94 31.35 61.21 31.59 60.48 31.81 59.73 32 58.21 32.31 56.64 32.58"/>
              <line class="cls-3" x1="68.1" y1="28.17" x2="68.1" y2="28.17"/>
              <polyline class="cls-3" points="42.38 7.9 45.05 8.97 47.7 10.07 50.34 11.22 52.97 12.38 55.57 13.59 58.17 14.84 60.74 16.11 63.3 17.43"/>
              <polyline class="cls-3" points="40.06 7.87 40.62 7.81 41.16 7.75"/>
              <line class="cls-3" x1="24.44" y1="12.85" x2="23.64" y2="13.43"/>
              <polyline class="cls-3" points="24.44 12.85 26.33 12.02 28.23 11.24 30.14 10.54 32.1 9.89 34.06 9.29 36.04 8.76 38.04 8.29 40.04 7.87"/>
              <line class="cls-3" x1="40.04" y1="7.87" x2="40.06" y2="7.87"/>
              <line class="cls-3" x1="24.44" y1="12.85" x2="24.46" y2="12.85"/>
              <polyline class="cls-3" points="24.46 12.85 26.33 12.02 28.23 11.24 30.16 10.54 32.1 9.89 34.06 9.29 36.06 8.76 38.04 8.29 40.06 7.87"/>
              <polyline class="cls-3" points="54.14 32.75 45.54 32.79 36.89 32.75"/>
              <polyline class="cls-3" points="33.79 31.31 32.31 29.54 30.85 27.73 29.46 25.87 28.1 23.98 26.81 22.06 25.56 20.1 24.37 18.1 23.25 16.08 23.04 15.54 22.98 15.27 22.98 14.98 23 14.68 23.06 14.41 23.14 14.14 23.29 13.89 23.46 13.64 23.64 13.43"/>
              <polyline class="cls-3" points="36.89 32.75 36.54 32.73 36.21 32.69"/>
              <polyline class="cls-3" points="34.52 31.98 34.14 31.67 33.79 31.31"/>
              <polyline class="cls-3" points="34.52 31.96 34.89 32.21 35.31 32.42 35.75 32.59 36.21 32.69"/>
            </g>
            <g>
              <line class="cls-3" x1="64.22" y1="19.23" x2="64.22" y2="19.23"/>
              <line class="cls-3" x1="67.58" y1="26.59" x2="67.6" y2="26.59"/>
              <polyline class="cls-3" points="64.22 19.23 64.79 20.07 65.35 20.93 65.83 21.82 66.29 22.74 66.69 23.68 67.05 24.63 67.34 25.61 67.6 26.59"/>
              <polyline class="cls-3" points="67.6 26.59 67.62 26.77 67.62 26.93 67.58 27.1 67.54 27.27 67.46 27.42 67.38 27.58 67.26 27.7 67.13 27.82"/>
              <polyline class="cls-3" points="62.5 17.74 62.98 18.04 63.44 18.4 63.86 18.78 64.22 19.23"/>
              <line class="cls-3" x1="60.97" y1="30.95" x2="61.13" y2="30.91"/>
              <polyline class="cls-3" points="40.29 8.41 40.81 8.35 41.33 8.35"/>
              <polyline class="cls-3" points="41.53 8.37 42.02 8.47 42.48 8.63"/>
              <polyline class="cls-3" points="56.17 32.05 54.97 32.17 53.8 32.21"/>
              <polyline class="cls-3" points="42.48 8.63 45.05 9.65 47.58 10.71 50.11 11.8 52.62 12.92 55.11 14.07 57.58 15.27 60.05 16.48 62.48 17.74"/>
              <line class="cls-3" x1="42.48" y1="8.63" x2="42.5" y2="8.63"/>
              <line class="cls-3" x1="62.48" y1="17.74" x2="62.5" y2="17.74"/>
              <polyline class="cls-3" points="67.13 27.82 66.53 28.24 65.91 28.64 65.27 29.02 64.61 29.4 63.96 29.74 63.3 30.05 62.62 30.33 61.93 30.61 61.23 30.87 60.53 31.09 59.83 31.31 59.12 31.49 57.66 31.79 56.17 32.05"/>
              <line class="cls-3" x1="67.13" y1="27.82" x2="67.13" y2="27.82"/>
              <polyline class="cls-3" points="42.5 8.63 45.05 9.65 47.58 10.71 50.11 11.8 52.62 12.92 55.11 14.07 57.6 15.27 60.05 16.48 62.5 17.74"/>
              <polyline class="cls-3" points="40.31 8.41 40.85 8.35 41.41 8.37"/>
              <polyline class="cls-3" points="41.41 8.37 41.97 8.45 42.5 8.63"/>
              <line class="cls-3" x1="25.37" y1="13.18" x2="24.61" y2="13.73"/>
              <polyline class="cls-3" points="25.37 13.18 27.18 12.38 29 11.64 30.83 10.96 32.7 10.35 34.57 9.77 36.47 9.27 38.38 8.81 40.29 8.41"/>
              <line class="cls-3" x1="40.29" y1="8.41" x2="40.31" y2="8.41"/>
              <line class="cls-3" x1="25.37" y1="13.18" x2="25.39" y2="13.18"/>
              <polyline class="cls-3" points="25.39 13.18 27.18 12.38 29 11.64 30.85 10.96 32.7 10.35 34.57 9.77 36.49 9.27 38.38 8.81 40.31 8.41"/>
              <polyline class="cls-3" points="53.78 32.21 45.55 32.25 37.28 32.21"/>
              <polyline class="cls-3" points="34.32 30.83 32.9 29.14 31.51 27.4 30.17 25.63 28.88 23.82 27.64 21.98 26.45 20.11 25.31 18.2 24.23 16.26 24.04 15.75 23.98 15.49 23.98 15.21 24 14.93 24.06 14.67 24.14 14.41 24.28 14.17 24.44 13.93 24.61 13.73"/>
              <polyline class="cls-3" points="37.28 32.21 36.94 32.19 36.63 32.15"/>
              <polyline class="cls-3" points="35.01 31.47 34.65 31.17 34.32 30.83"/>
              <polyline class="cls-3" points="35.01 31.45 35.37 31.69 35.77 31.89 36.19 32.05 36.63 32.15"/>
            </g>
            <line class="cls-3" x1="72.16" y1="37.3" x2="72.25" y2="37.25"/>
            <line class="cls-3" x1="70.25" y1="39.3" x2="70.29" y2="39.23"/>
          </g>
          <line class="cls-3" x1="88.66" y1="68.85" x2="94.75" y2="68.85"/>
          <line class="cls-3" x1="90.4" y1="68.85" x2="90.4" y2="77.46"/>
          <line class="cls-3" x1="93.11" y1="68.85" x2="93.11" y2="77.46"/>
          <line class="cls-3" x1="90.4" y1="77.46" x2="93.11" y2="77.46"/>
          <line class="cls-3" x1="90.4" y1="77.01" x2="93.11" y2="77.01"/>
          <line class="cls-3" x1="90.4" y1="76.56" x2="93.11" y2="76.56"/>
          <line class="cls-3" x1="90.4" y1="76.11" x2="93.11" y2="76.11"/>
          <line class="cls-3" x1="90.4" y1="75.66" x2="93.11" y2="75.66"/>
          <line class="cls-3" x1="90.4" y1="75.21" x2="93.11" y2="75.21"/>
          <line class="cls-3" x1="90.4" y1="74.76" x2="93.11" y2="74.76"/>
          <line class="cls-3" x1="90.4" y1="74.31" x2="93.11" y2="74.31"/>
          <line class="cls-3" x1="90.4" y1="73.86" x2="93.11" y2="73.86"/>
          <line class="cls-3" x1="90.4" y1="73.42" x2="93.11" y2="73.42"/>
          <line class="cls-3" x1="90.4" y1="72.97" x2="93.11" y2="72.97"/>
          <line class="cls-3" x1="90.4" y1="72.52" x2="93.11" y2="72.52"/>
          <line class="cls-3" x1="90.4" y1="72.07" x2="93.11" y2="72.07"/>
          <line class="cls-3" x1="90.4" y1="71.62" x2="93.11" y2="71.62"/>
        </g>
        <g>
          <g>
            <line class="cls-3" x1="67.56" y1="63.55" x2="67.29" y2="63.3"/>
            <line class="cls-3" x1="72.46" y1="63.55" x2="72.19" y2="63.3"/>
            <polyline class="cls-3" points="91.29 39.3 90.89 39.07 90.21 38.44 89.58 37.73 89.33 37.3"/>
            <line class="cls-3" x1="91.48" y1="39.3" x2="91.46" y2="39.3"/>
            <polyline class="cls-3" points="91.46 39.3 91 39.05 90.21 38.32 89.52 37.52 89.33 37.09"/>
            <line class="cls-3" x1="68.48" y1="63.3" x2="68.48" y2="62.43"/>
            <line class="cls-3" x1="71.19" y1="62.45" x2="71.19" y2="63.3"/>
            <polyline class="cls-3" points="68.48 62.43 68.52 61.41 68.64 60.39 68.81 59.39 68.94 58.91 69.08 58.41 69.25 57.93 69.46 57.47 69.67 57.01 69.91 56.57 70.21 56.13 70.5 55.74 70.81 55.34 71.16 54.97"/>
            <polyline class="cls-3" points="73.08 56.88 72.83 57.18 72.6 57.47 72.39 57.76 72.19 58.07 71.87 58.76 71.6 59.47 71.42 60.2 71.29 60.95 71.21 61.7 71.19 62.45"/>
            <polyline class="cls-3" points="72.19 63.3 72.14 63.3 72 63.3 71.79 63.3 71.5 63.3 71.17 63.3 70.75 63.3 69.87 63.3 69 63.3 68.58 63.3 68.25 63.3 67.96 63.3 67.75 63.3 67.6 63.3 67.56 63.3"/>
            <line class="cls-3" x1="72.54" y1="64.55" x2="72.91" y2="68.85"/>
            <line class="cls-3" x1="72.46" y1="63.53" x2="72.54" y2="64.55"/>
            <line class="cls-3" x1="66.83" y1="68.85" x2="67.29" y2="63.53"/>
            <line class="cls-3" x1="71.16" y1="54.97" x2="78.46" y2="47.88"/>
            <line class="cls-3" x1="80.5" y1="49.69" x2="73.08" y2="56.88"/>
            <line class="cls-3" x1="80.77" y1="49.43" x2="80.44" y2="49.76"/>
            <line class="cls-3" x1="91.25" y1="39.27" x2="80.77" y2="49.43"/>
            <line class="cls-3" x1="78.48" y1="47.92" x2="78.46" y2="47.88"/>
            <line class="cls-3" x1="78.48" y1="47.88" x2="89.33" y2="37.34"/>
            <line class="cls-3" x1="89.41" y1="37.3" x2="89.33" y2="37.25"/>
            <line class="cls-3" x1="91.33" y1="39.3" x2="91.29" y2="39.23"/>
          </g>
          <line class="cls-3" x1="72.91" y1="68.85" x2="66.83" y2="68.85"/>
          <line class="cls-3" x1="71.17" y1="68.85" x2="71.17" y2="77.46"/>
          <line class="cls-3" x1="68.47" y1="68.85" x2="68.47" y2="77.46"/>
          <line class="cls-3" x1="71.17" y1="77.46" x2="68.47" y2="77.46"/>
          <line class="cls-3" x1="71.17" y1="77.01" x2="68.47" y2="77.01"/>
          <line class="cls-3" x1="71.17" y1="76.56" x2="68.47" y2="76.56"/>
          <line class="cls-3" x1="71.17" y1="76.11" x2="68.47" y2="76.11"/>
          <line class="cls-3" x1="71.17" y1="75.66" x2="68.47" y2="75.66"/>
          <line class="cls-3" x1="71.17" y1="75.21" x2="68.47" y2="75.21"/>
          <line class="cls-3" x1="71.17" y1="74.76" x2="68.47" y2="74.76"/>
          <line class="cls-3" x1="71.17" y1="74.31" x2="68.47" y2="74.31"/>
          <line class="cls-3" x1="71.17" y1="73.86" x2="68.47" y2="73.86"/>
          <line class="cls-3" x1="71.17" y1="73.42" x2="68.47" y2="73.42"/>
          <line class="cls-3" x1="71.17" y1="72.97" x2="68.47" y2="72.97"/>
          <line class="cls-3" x1="71.17" y1="72.52" x2="68.47" y2="72.52"/>
          <line class="cls-3" x1="71.17" y1="72.07" x2="68.47" y2="72.07"/>
          <line class="cls-3" x1="71.17" y1="71.62" x2="68.47" y2="71.62"/>
        </g>
      </g>
      <g>
        <line class="cls-3" x1="89.41" y1="37.02" x2="92.89" y2="32.77"/>
        <line class="cls-3" x1="95.91" y1="35.88" x2="91.56" y2="39.23"/>
        <polyline class="cls-3" points="98.77 34.81 98.31 35.19 97.77 35.48 97.19 35.69"/>
        <line class="cls-3" x1="96.41" y1="35.77" x2="96.04" y2="35.75"/>
        <polyline class="cls-3" points="93.02 32.65 93.04 32.04 93.14 31.46 93.35 30.9 93.67 30.4 94.04 29.94"/>
        <polyline class="cls-3" points="95.89 35.9 95.44 35.69 94.6 34.98 93.69 34.02 93.04 33.19 92.89 32.77"/>
        <line class="cls-3" x1="93.06" y1="32.77" x2="92.92" y2="32.75"/>
        <line class="cls-3" x1="95.91" y1="35.88" x2="95.91" y2="35.71"/>
        <line class="cls-3" x1="95.91" y1="35.9" x2="95.89" y2="35.88"/>
        <line class="cls-3" x1="99.96" y1="35.13" x2="99.89" y2="35.09"/>
        <polyline class="cls-3" points="96.04 35.75 95.94 35.71 95.77 35.63 95.58 35.5 95.37 35.34 95.12 35.15 94.87 34.92 94.33 34.38 93.83 33.83 93.6 33.56 93.41 33.31 93.25 33.11 93.14 32.92 93.06 32.75 93.02 32.65"/>
        <polyline class="cls-3" points="96.39 35.77 96.79 35.75 97.19 35.69"/>
        <polyline class="cls-3" points="97.19 35.69 97.6 35.54 98.02 35.36 98.39 35.13 98.75 34.84"/>
        <polyline class="cls-3" points="99.44 35.11 99.35 35.13 99.25 35.09 99.12 35.04 98.96 34.96 98.79 34.84 98.58 34.71 98.37 34.54 98.14 34.36 97.62 33.94 97.08 33.44 96.52 32.9 95.96 32.31 95.41 31.73 94.94 31.17 94.52 30.65 94.33 30.4 94.19 30.17 94.04 29.96 93.94 29.77 93.85 29.63 93.79 29.48 93.77 29.38 93.77 29.27 93.79 29.23 93.83 29.19"/>
        <polyline class="cls-3" points="94.02 28.53 93.77 28.83 93.75 28.96 93.77 29.08 93.83 29.19"/>
        <line class="cls-3" x1="99.89" y1="35.21" x2="99.44" y2="35.11"/>
        <line class="cls-3" x1="99.89" y1="35.13" x2="103.13" y2="32.27"/>
        <g>
          <line class="cls-3" x1="96.6" y1="19.12" x2="96.6" y2="19.12"/>
          <line class="cls-3" x1="93.08" y1="26.81" x2="93.06" y2="26.81"/>
          <polyline class="cls-3" points="96.6 19.12 96 20 95.41 20.89 94.91 21.83 94.44 22.79 94.02 23.77 93.64 24.77 93.33 25.79 93.06 26.81"/>
          <polyline class="cls-3" points="93.06 26.81 93.04 27 93.04 27.17 93.08 27.35 93.12 27.52 93.21 27.69 93.29 27.85 93.42 27.98 93.56 28.1"/>
          <polyline class="cls-3" points="98.36 17.36 97.86 17.68 97.31 18.24 96.98 18.64 96.6 19.12"/>
          <line class="cls-3" x1="100" y1="31.38" x2="99.83" y2="31.33"/>
          <polyline class="cls-3" points="121.62 7.81 121.08 7.74 120.59 7.66"/>
          <polyline class="cls-3" points="120.38 7.68 119.78 7.67 119.3 7.84"/>
          <polyline class="cls-3" points="105.02 32.52 106.27 32.65 107.5 32.69"/>
          <polyline class="cls-3" points="119.3 7.84 116.61 8.9 113.97 10.01 111.32 11.15 108.7 12.32 106.09 13.53 103.51 14.78 100.93 16.05 98.38 17.36"/>
          <line class="cls-3" x1="119.3" y1="7.84" x2="119.28" y2="7.84"/>
          <line class="cls-3" x1="98.38" y1="17.36" x2="98.36" y2="17.36"/>
          <polyline class="cls-3" points="93.56 28.1 94.19 28.54 94.83 28.96 95.5 29.35 96.19 29.75 96.87 30.1 97.56 30.44 98.27 30.73 99 31.02 99.73 31.29 100.46 31.52 101.19 31.75 101.94 31.94 103.46 32.25 105.02 32.52"/>
          <line class="cls-3" x1="93.56" y1="28.1" x2="93.56" y2="28.1"/>
          <polyline class="cls-3" points="119.28 7.84 116.61 8.9 113.97 10.01 111.32 11.15 108.7 12.32 106.09 13.53 103.49 14.78 100.93 16.05 98.36 17.36"/>
          <polyline class="cls-3" points="121.6 7.81 121.04 7.74 120.51 7.68"/>
          <line class="cls-3" x1="137.23" y1="12.79" x2="138.02" y2="13.37"/>
          <polyline class="cls-3" points="137.23 12.79 135.33 11.95 133.44 11.18 131.52 10.47 129.56 9.83 127.6 9.22 125.62 8.7 123.62 8.22 121.62 7.81"/>
          <line class="cls-3" x1="121.62" y1="7.81" x2="121.6" y2="7.81"/>
          <line class="cls-3" x1="137.23" y1="12.79" x2="137.21" y2="12.79"/>
          <polyline class="cls-3" points="137.21 12.79 135.33 11.95 133.44 11.18 131.5 10.47 129.56 9.83 127.6 9.22 125.6 8.7 123.62 8.22 121.6 7.81"/>
          <polyline class="cls-3" points="107.52 32.69 116.12 32.73 124.77 32.69"/>
          <polyline class="cls-3" points="127.87 31.25 129.35 29.48 130.81 27.67 132.21 25.81 133.56 23.92 134.85 22 136.1 20.04 137.29 18.04 138.42 16.02 138.62 15.48 138.69 15.2 138.69 14.91 138.67 14.62 138.6 14.35 138.52 14.08 138.37 13.83 138.21 13.58 138.02 13.37"/>
          <polyline class="cls-3" points="124.77 32.69 125.12 32.67 125.46 32.63"/>
          <polyline class="cls-3" points="127.14 31.92 127.52 31.61 127.87 31.25"/>
          <polyline class="cls-3" points="127.14 31.9 126.77 32.15 126.35 32.35 125.91 32.52 125.46 32.63"/>
        </g>
        <g>
          <line class="cls-3" x1="97.45" y1="19.17" x2="97.45" y2="19.17"/>
          <line class="cls-3" x1="94.08" y1="26.52" x2="94.06" y2="26.52"/>
          <polyline class="cls-3" points="97.45 19.17 96.87 20.01 96.31 20.86 95.83 21.76 95.37 22.68 94.98 23.62 94.62 24.57 94.32 25.55 94.06 26.52"/>
          <polyline class="cls-3" points="94.06 26.52 94.04 26.7 94.04 26.86 94.08 27.04 94.12 27.2 94.2 27.36 94.28 27.52 94.4 27.64 94.54 27.76"/>
          <polyline class="cls-3" points="99.16 17.68 98.68 17.98 98.22 18.33 97.8 18.71 97.45 19.17"/>
          <line class="cls-3" x1="100.69" y1="30.89" x2="100.53" y2="30.85"/>
          <polyline class="cls-3" points="121.37 8.35 120.85 8.29 120.34 8.29"/>
          <polyline class="cls-3" points="120.14 8.31 119.64 8.41 119.18 8.57"/>
          <polyline class="cls-3" points="105.49 31.98 106.69 32.1 107.86 32.14"/>
          <polyline class="cls-3" points="119.18 8.57 116.61 9.59 114.08 10.64 111.55 11.74 109.04 12.85 106.55 14.01 104.08 15.21 101.61 16.42 99.18 17.68"/>
          <line class="cls-3" x1="119.18" y1="8.57" x2="119.16" y2="8.57"/>
          <line class="cls-3" x1="99.18" y1="17.68" x2="99.16" y2="17.68"/>
          <polyline class="cls-3" points="94.54 27.76 95.14 28.18 95.75 28.58 96.39 28.96 97.05 29.33 97.7 29.67 98.36 29.99 99.04 30.27 99.74 30.55 100.43 30.81 101.13 31.03 101.83 31.25 102.55 31.43 104 31.72 105.49 31.98"/>
          <line class="cls-3" x1="94.54" y1="27.76" x2="94.54" y2="27.76"/>
          <polyline class="cls-3" points="119.16 8.57 116.61 9.59 114.08 10.64 111.55 11.74 109.04 12.85 106.55 14.01 104.06 15.21 101.61 16.42 99.16 17.68"/>
          <polyline class="cls-3" points="121.35 8.35 120.81 8.29 120.26 8.31"/>
          <polyline class="cls-3" points="120.26 8.31 119.7 8.39 119.16 8.57"/>
          <line class="cls-3" x1="136.29" y1="13.11" x2="137.05" y2="13.67"/>
          <polyline class="cls-3" points="136.29 13.11 134.48 12.32 132.67 11.58 130.83 10.9 128.96 10.28 127.09 9.71 125.2 9.21 123.28 8.75 121.37 8.35"/>
          <line class="cls-3" x1="121.37" y1="8.35" x2="121.35" y2="8.35"/>
          <line class="cls-3" x1="136.29" y1="13.11" x2="136.27" y2="13.11"/>
          <polyline class="cls-3" points="136.27 13.11 134.48 12.32 132.67 11.58 130.81 10.9 128.96 10.28 127.09 9.71 125.18 9.21 123.28 8.75 121.35 8.35"/>
          <polyline class="cls-3" points="107.88 32.14 116.11 32.18 124.38 32.14"/>
          <polyline class="cls-3" points="127.35 30.77 128.76 29.08 130.16 27.34 131.49 25.57 132.79 23.75 134.02 21.92 135.22 20.05 136.35 18.14 137.43 16.2 137.63 15.68 137.69 15.42 137.69 15.15 137.67 14.87 137.61 14.61 137.53 14.35 137.39 14.11 137.23 13.87 137.05 13.67"/>
          <polyline class="cls-3" points="124.38 32.14 124.72 32.12 125.04 32.08"/>
          <polyline class="cls-3" points="126.65 31.41 127.01 31.11 127.35 30.77"/>
          <polyline class="cls-3" points="126.65 31.39 126.29 31.63 125.89 31.82 125.47 31.98 125.04 32.08"/>
        </g>
      </g>
    </g>
  </g>
</svg>