<?xml version="1.0" encoding="UTF-8"?>
<svg id="_图层_2" data-name="图层 2" xmlns="http://www.w3.org/2000/svg" viewBox="0 0 9.56 9.49">
  <defs>
    <style>
      .cls-1 {
        fill: none;
        stroke: #070001;
        stroke-linecap: square;
        stroke-miterlimit: 10;
        stroke-width: .12px;
      }
    </style>
  </defs>
  <g id="_图层_1-2" data-name="图层 1">
    <g>
      <polyline class="cls-1" points="1 1.97 1.04 1.56 1.15 1.15 1.37 .81 1.64 .51 1.97 .29 2.35 .1 2.76 .06 2.8 .06 2.8 .06 2.83 .06 2.98 .06 3.21 .06 3.51 .06 3.84 .06 4.22 .06 5.04 .06 5.83 .06 6.17 .06 6.43 .06 6.65 .06 6.73 .06 6.76 .06 6.88 .06 7.06 .1 7.48 .21 7.81 .4 8.11 .7 8.34 1.04 8.49 1.41 8.56 1.82 8.56 1.93 8.56 1.97 8.56 1.97 8.56 2.01 8.56 2.08 8.56 2.23 8.56 2.57 8.56 2.72 8.56 2.8 8.6 2.8 8.64 2.72 8.82 2.53 8.97 2.35 9.05 2.31 9.05 2.31 9.09 2.35 9.16 2.42 9.35 2.61 9.42 2.72 9.5 2.76 9.5 2.8 9.46 2.83 9.39 2.91 9.2 3.1 8.94 3.36 8.67 3.66 8.45 3.88 8.37 3.99 8.3 4.03 8.26 4.07 8.26 4.07 8.22 4.07 8.15 3.99 7.96 3.77 7.48 3.25 7.21 3.02 7.14 2.91 7.06 2.83 7.03 2.8 7.03 2.8 7.03 2.76 7.1 2.68 7.21 2.57 7.36 2.38 7.44 2.31 7.48 2.31 7.48 2.35 7.55 2.38 7.74 2.61 7.85 2.68 7.89 2.76 7.93 2.8 7.93 2.76 7.93 2.65 7.93 2.5 7.93 2.16 7.93 2.05 7.93 1.97 7.93 1.97 7.93 1.9 7.93 1.75 7.85 1.49 7.7 1.26 7.55 1.07 7.33 .89 7.1 .77 6.84 .74 6.76 .74 6.73 .74 6.65 .74 6.46 .74 6.2 .74 5.87 .74 5.49 .74 3.88 .74 3.54 .74 3.25 .74 2.98 .74 2.87 .74 2.8 .74 2.65 .74 2.38 .81 2.16 .92 1.97 1.11 1.82 1.3 1.71 1.56 1.64 1.82 1.64 1.97 1.64 2.01 1.64 2.12 1.64 2.27 1.64 2.5 1.64 2.72 1.64 3.84 1.64 4.07 1.64 4.29 1.64 4.48 1.64 4.63 1.64 4.67 1.64 4.67 1.56 4.67 1.34 4.67 1.07 4.67 1 4.67 1 4.67 1 4.63 1 4.52 1 4.33 1 4.11 1 3.58 1 3.02 1 2.5 1 2.31 1 2.12 1 2.01 1 1.97"/>
      <polyline class="cls-1" points="6.69 4.56 6.69 4.59 6.65 4.63 6.58 4.71 6.5 4.82 6.24 5.08 5.94 5.42 5.3 6.13 5 6.5 4.71 6.8 4.48 7.03 4.41 7.1 4.37 7.18 4.33 7.22 4.33 7.22 4.33 7.22 4.29 7.25 4.22 7.25 4.14 7.25 4.07 7.18 4.07 7.1 4.07 7.07 4.07 7.03 4.07 6.95 4.11 6.8 4.18 6.39 4.26 5.94 4.29 5.75 4.33 5.6 4.37 5.49 4.37 5.46 4.33 5.42 4.26 5.38 4.14 5.34 3.99 5.31 3.66 5.16 3.36 5.04 3.25 5.01 3.17 4.97 3.13 4.97 3.1 4.93 3.06 4.86 3.06 4.71 3.1 4.71 3.1 4.67 3.1 4.67 3.1 4.67 3.17 4.59 3.25 4.52 3.47 4.26 3.73 3.96 4.03 3.62 4.71 2.87 5 2.53 5.23 2.27 5.3 2.2 5.38 2.12 5.42 2.05 5.45 2.05 5.53 2.01 5.6 1.97 5.68 2.01 5.72 2.08 5.75 2.16 5.75 2.2 5.72 2.2 5.72 2.27 5.68 2.38 5.68 2.57 5.57 3.02 5.49 3.43 5.45 3.62 5.45 3.73 5.42 3.81 5.45 3.81 5.49 3.84 5.6 3.88 5.9 3.99 6.24 4.14 6.39 4.18 6.54 4.26 6.61 4.26 6.65 4.29 6.73 4.37 6.73 4.48 6.73 4.56 6.69 4.56 6.69 4.56"/>
      <polyline class="cls-1" points="6.76 9.42 7.18 9.39 7.55 9.24 7.89 9.01 8.15 8.75 8.37 8.38 8.52 8 8.56 7.55 8.56 7.4 8.56 7.25 8.56 7.03 8.56 6.54 8.56 5.98 8.56 5.42 8.56 5.19 8.56 5.01 8.56 4.89 8.56 4.82 8.56 4.82 8.49 4.82 8.22 4.82 8 4.82 7.93 4.82 7.93 4.82 7.93 4.89 7.93 5.01 7.93 5.19 7.93 5.42 7.93 5.68 7.93 6.77 7.93 7.03 7.93 7.22 7.93 7.37 7.93 7.48 7.93 7.51 7.93 7.66 7.85 7.93 7.74 8.19 7.59 8.41 7.4 8.56 7.14 8.68 6.91 8.75 6.76 8.75 6.69 8.75 6.58 8.75 6.32 8.75 6.02 8.75 5.68 8.75 4.07 8.75 3.69 8.75 3.36 8.75 3.1 8.75 2.91 8.75 2.83 8.75 2.8 8.75 2.72 8.75 2.46 8.71 2.23 8.6 2.01 8.45 1.82 8.23 1.71 8 1.64 7.74 1.64 7.59 1.64 7.51 1.64 7.51 1.64 7.44 1.64 7.33 1.64 6.99 1.64 6.84 1.64 6.73 1.64 6.69 1.64 6.73 1.71 6.8 1.82 6.92 2.01 7.1 2.08 7.18 2.08 7.18 2.12 7.18 2.2 7.1 2.35 6.92 2.46 6.8 2.5 6.73 2.53 6.73 2.53 6.69 2.5 6.65 2.42 6.58 2.31 6.5 2.08 6.24 1.6 5.72 1.41 5.49 1.34 5.46 1.3 5.42 1.3 5.42 1.26 5.46 1.19 5.53 1.11 5.6 .89 5.87 .62 6.13 .36 6.39 .17 6.58 .1 6.65 .06 6.69 .06 6.73 .14 6.77 .21 6.88 .4 7.07 .47 7.14 .51 7.18 .51 7.18 .59 7.14 .74 6.95 .92 6.77 .96 6.69 1 6.69 1 6.77 1 6.92 1 7.25 1 7.4 1 7.48 1 7.51 1 7.51 1 7.55 1 7.66 1.07 8.08 1.22 8.45 1.45 8.79 1.75 9.09 2.08 9.27 2.5 9.42 2.68 9.42 2.8 9.42 2.8 9.42 2.91 9.42 3.06 9.42 3.32 9.42 3.66 9.42 3.99 9.42 4.41 9.42 5.23 9.42 5.64 9.42 5.98 9.42 6.32 9.42 6.54 9.42 6.69 9.42 6.76 9.42"/>
    </g>
  </g>
</svg>