<?xml version="1.0" encoding="UTF-8"?>
<svg id="_图层_2" data-name="图层 2" xmlns="http://www.w3.org/2000/svg" viewBox="0 0 4.89 7.39">
  <defs>
    <style>
      .cls-1 {
        fill: none;
        stroke: #595757;
        stroke-linecap: square;
        stroke-miterlimit: 10;
        stroke-width: .19px;
      }
    </style>
  </defs>
  <g id="_图层_1-2" data-name="图层 1">
    <g>
      <polyline class="cls-1" points="2.1 .88 2.25 .83 2.41 .8"/>
      <polyline class="cls-1" points="1.88 1.23 1.89 1.12 1.93 1.02 2 .95 2.1 .88"/>
      <line class="cls-1" x1="1.88" y1="2.52" x2="1.88" y2="1.23"/>
      <line class="cls-1" x1="1.89" y1="2.63" x2="1.88" y2="2.52"/>
      <line class="cls-1" x1="2.41" y1="2.59" x2="1.89" y2="2.63"/>
      <polyline class="cls-1" points=".79 4.92 .82 4.61 .9 4.31 1.06 4.02 1.26 3.78 1.5 3.57 1.78 3.42 2.09 3.31 2.41 3.28"/>
      <polyline class="cls-1" points="2.41 6.6 2.09 6.56 1.78 6.46 1.5 6.3 1.25 6.08 1.06 5.83 .9 5.55 .82 5.25 .79 4.92"/>
      <polyline class="cls-1" points=".11 5.22 .2 5.63 .35 6.02 .58 6.36 .86 6.68 1.2 6.94 1.58 7.12 1.99 7.24 2.41 7.29"/>
      <polyline class="cls-1" points=".73 3.34 .56 3.54 .42 3.74 .3 3.97 .21 4.21 .15 4.46 .11 4.71 .11 5.22"/>
      <line class="cls-1" x1="1.07" y1="3.04" x2=".73" y2="3.34"/>
      <polyline class="cls-1" points="1.2 2.78 1.18 2.92 1.07 3.04"/>
      <line class="cls-1" x1="1.2" y1="1.27" x2="1.2" y2="2.78"/>
      <polyline class="cls-1" points="1.54 .43 1.39 .6 1.27 .81 1.22 1.03 1.2 1.27"/>
      <polyline class="cls-1" points="2.15 .15 1.83 .24 1.67 .32 1.54 .43"/>
      <line class="cls-1" x1="2.18" y1=".13" x2="2.15" y2=".15"/>
      <line class="cls-1" x1="2.18" y1=".13" x2="2.29" y2=".11"/>
      <line class="cls-1" x1="2.41" y1=".11" x2="2.29" y2=".11"/>
      <line class="cls-1" x1="2.41" y1="3.28" x2="2.45" y2="3.28"/>
      <line class="cls-1" x1="2.55" y1="2.59" x2="2.41" y2="2.59"/>
      <polyline class="cls-1" points="4.75 4.47 4.64 4.1 4.48 3.74 4.25 3.43 3.98 3.16 3.66 2.92 3.31 2.75 2.94 2.64 2.55 2.59"/>
      <polyline class="cls-1" points="2.68 7.27 2.92 7.23 3.16 7.18 3.4 7.09 3.61 6.98 3.82 6.84 4.01 6.69 4.19 6.52 4.34 6.33 4.48 6.13 4.59 5.91 4.67 5.68 4.74 5.44 4.78 5.21 4.79 4.96 4.75 4.47"/>
      <line class="cls-1" x1="2.41" y1="7.29" x2="2.68" y2="7.27"/>
      <line class="cls-1" x1="2.44" y1="6.6" x2="2.41" y2="6.6"/>
      <polyline class="cls-1" points="4.11 4.95 4.08 5.26 3.98 5.57 3.83 5.86 3.62 6.1 3.37 6.31 3.08 6.47 2.77 6.57 2.44 6.6"/>
      <polyline class="cls-1" points="2.45 3.28 2.78 3.31 3.09 3.41 3.37 3.56 3.62 3.76 3.83 4.02 3.98 4.31 4.08 4.62 4.11 4.95"/>
      <polyline class="cls-1" points="2.41 5.8 2.3 5.79 2.22 5.74 2.17 5.65 2.15 5.55"/>
      <line class="cls-1" x1="2.15" y1="5.55" x2="2.15" y2="5.44"/>
      <polyline class="cls-1" points="2.15 5.44 2.15 5.34 2.13 5.24 2.06 5.14 1.99 5.06"/>
      <polyline class="cls-1" points="1.99 5.06 1.89 4.96 1.84 4.83 1.81 4.69 1.84 4.54 1.88 4.41 1.96 4.28 2.05 4.19 2.18 4.11"/>
      <line class="cls-1" x1="2.41" y1="4.07" x2="2.18" y2="4.11"/>
      <polyline class="cls-1" points="2.7 5.35 2.71 5.23 2.8 5.13"/>
      <line class="cls-1" x1="2.7" y1="5.55" x2="2.7" y2="5.35"/>
      <polyline class="cls-1" points="2.42 5.8 2.53 5.79 2.63 5.75 2.68 5.65 2.7 5.55"/>
      <line class="cls-1" x1="2.41" y1="5.8" x2="2.42" y2="5.8"/>
      <polyline class="cls-1" points="2.94 4.35 2.84 4.23 2.71 4.13 2.56 4.08 2.41 4.07"/>
      <polyline class="cls-1" points="2.8 5.13 2.94 4.97 3.02 4.76 3.02 4.56 2.94 4.35"/>
      <polyline class="cls-1" points="3.68 1 3.65 .85 3.59 .71 3.5 .59 3.41 .47 3.16 .3 2.88 .18"/>
      <polyline class="cls-1" points="3.68 1.71 3.69 1.36 3.68 1"/>
      <line class="cls-1" x1="3.01" y1="1.71" x2="3.68" y2="1.71"/>
      <line class="cls-1" x1="3.01" y1="1.29" x2="3.01" y2="1.71"/>
      <polyline class="cls-1" points="2.65 .83 2.8 .88 2.93 .98 3 1.13 3.01 1.29"/>
      <line class="cls-1" x1="2.41" y1=".8" x2="2.65" y2=".83"/>
      <line class="cls-1" x1="2.61" y1=".11" x2="2.41" y2=".11"/>
      <line class="cls-1" x1="2.61" y1=".11" x2="2.71" y2=".13"/>
      <line class="cls-1" x1="2.88" y1=".18" x2="2.71" y2=".13"/>
    </g>
  </g>
</svg>