<?xml version="1.0" encoding="UTF-8"?>
<svg id="_图层_2" data-name="图层 2" xmlns="http://www.w3.org/2000/svg" viewBox="0 0 83.8 75.56">
  <defs>
    <style>
      .cls-1 {
        stroke-linecap: square;
        stroke-width: .28px;
      }

      .cls-1, .cls-2 {
        fill: none;
        stroke: #595757;
        stroke-miterlimit: 10;
      }

      .cls-3 {
        fill: #595757;
        font-family: TimesNewRomanPSMT, 'Times New Roman';
        font-size: 6px;
      }

      .cls-2 {
        stroke-width: .2px;
      }
    </style>
  </defs>
  <g id="_图层_1-2" data-name="图层 1">
    <g>
      <line class="cls-1" x1="17.27" y1="28.04" x2="17.56" y2="27.99"/>
      <polyline class="cls-1" points="16.73 28.73 16.75 28.49 16.86 28.26 17.05 28.12 17.27 28.04"/>
      <line class="cls-1" x1="16.75" y1="30.57" x2="16.73" y2="28.73"/>
      <line class="cls-1" x1="16.75" y1="30.69" x2="16.75" y2="30.57"/>
      <line class="cls-1" x1="17.56" y1="30.65" x2="16.75" y2="30.69"/>
      <polyline class="cls-1" points="17.55 36.56 17.08 36.5 16.64 36.35 16.22 36.11 15.85 35.81 15.55 35.44 15.31 35.03 15.17 34.58 15.12 34.1 15.17 33.63 15.31 33.17 15.55 32.76 15.85 32.39 16.22 32.08 16.64 31.86 17.08 31.7 17.56 31.64"/>
      <polyline class="cls-1" points="14.14 34.61 14.29 35.22 14.54 35.78 14.88 36.27 15.31 36.72 15.8 37.07 16.35 37.34 16.94 37.5 17.56 37.57"/>
      <line class="cls-1" x1="14.11" y1="34.5" x2="14.14" y2="34.61"/>
      <line class="cls-1" x1="14.11" y1="33.68" x2="14.11" y2="34.5"/>
      <line class="cls-1" x1="14.14" y1="33.63" x2="14.11" y2="33.68"/>
      <polyline class="cls-1" points="15.6 31.24 15.05 31.72 14.81 31.99 14.61 32.29 14.45 32.6 14.3 32.93 14.21 33.28 14.14 33.63"/>
      <polyline class="cls-1" points="15.72 30.98 15.68 31.13 15.6 31.24"/>
      <line class="cls-1" x1="15.74" y1="28.55" x2="15.72" y2="30.98"/>
      <line class="cls-1" x1="15.76" y1="28.26" x2="15.74" y2="28.55"/>
      <polyline class="cls-1" points="16.94 27.08 16.52 27.24 16.17 27.5 15.9 27.85 15.76 28.26"/>
      <line class="cls-1" x1="17.18" y1="27" x2="16.94" y2="27.08"/>
      <line class="cls-1" x1="17.32" y1="26.99" x2="17.18" y2="27"/>
      <line class="cls-1" x1="17.56" y1="26.99" x2="17.32" y2="26.99"/>
      <polyline class="cls-1" points="19.42 28.78 19.42 28.5 19.37 28.22 19.27 27.94 19.13 27.7 18.95 27.5 18.73 27.32 18.47 27.18 18.2 27.08"/>
      <line class="cls-1" x1="19.4" y1="31" x2="19.42" y2="28.78"/>
      <polyline class="cls-1" points="19.58 31.29 19.46 31.16 19.4 31"/>
      <polyline class="cls-1" points="21 33.6 20.84 32.93 20.69 32.61 20.54 32.29 20.33 32 20.1 31.75 19.58 31.29"/>
      <polyline class="cls-1" points="18.39 37.46 19 37.25 19.54 36.94 20.04 36.53 20.44 36.03 20.74 35.47 20.95 34.88 21.03 34.24 21 33.6"/>
      <polyline class="cls-1" points="20.02 34.1 19.98 34.58 19.83 35.04 19.59 35.46 19.29 35.82 18.92 36.14 18.49 36.37 18.03 36.51 17.55 36.56"/>
      <polyline class="cls-1" points="17.61 31.64 18.07 31.68 18.54 31.84 18.95 32.07 19.3 32.37 19.61 32.76 19.83 33.17 19.98 33.62 20.02 34.1"/>
      <line class="cls-1" x1="17.56" y1="31.64" x2="17.61" y2="31.64"/>
      <line class="cls-1" x1="18.39" y1="30.69" x2="17.56" y2="30.65"/>
      <line class="cls-1" x1="18.39" y1="30.63" x2="18.39" y2="30.69"/>
      <line class="cls-1" x1="18.39" y1="28.62" x2="18.39" y2="30.63"/>
      <polyline class="cls-1" points="18.09 28.12 18.22 28.22 18.31 28.33 18.38 28.46 18.39 28.62"/>
      <polyline class="cls-1" points="17.56 27.99 17.83 28.02 18.09 28.12"/>
      <line class="cls-1" x1="17.8" y1="26.99" x2="17.56" y2="26.99"/>
      <line class="cls-1" x1="17.96" y1="27.02" x2="17.8" y2="26.99"/>
      <line class="cls-1" x1="18.2" y1="27.08" x2="17.96" y2="27.02"/>
      <polyline class="cls-1" points="17.56 37.57 17.98 37.54 18.39 37.46"/>
      <polyline class="cls-1" points="16.91 33.06 17.05 32.95 17.21 32.87 17.56 32.8"/>
      <line class="cls-1" x1="17.13" y1="35.06" x2="17.13" y2="34.82"/>
      <polyline class="cls-1" points="17.13 34.82 17.13 34.67 17.1 34.55 16.92 34.32"/>
      <polyline class="cls-1" points="16.92 34.32 16.8 34.19 16.72 34.05 16.67 33.87 16.65 33.7 16.72 33.35 16.91 33.06"/>
      <polyline class="cls-1" points="17.56 35.38 17.4 35.36 17.27 35.31 17.18 35.2 17.13 35.06"/>
      <line class="cls-1" x1="17.95" y1="35.04" x2="17.95" y2="34.72"/>
      <polyline class="cls-1" points="18.2 33.09 18.06 32.98 17.9 32.88 17.56 32.8"/>
      <polyline class="cls-1" points="18.12 34.35 18.23 34.23 18.33 34.08 18.39 33.92 18.43 33.75 18.38 33.4 18.2 33.09"/>
      <polyline class="cls-1" points="17.95 34.72 17.98 34.51 18.12 34.35"/>
      <polyline class="cls-1" points="17.56 35.38 17.69 35.36 17.82 35.3 17.91 35.19 17.95 35.04"/>
      <polyline class="cls-1" points="17.56 57.45 16.4 57.4 15.25 57.23 14.11 56.94 13.02 56.56 11.97 56.06 10.98 55.47 10.05 54.78 9.19 54 8.41 53.15 7.72 52.22 7.11 51.23 6.62 50.18 6.23 49.09 5.94 47.97 5.77 46.82 5.72 45.66"/>
      <line class="cls-1" x1="5.72" y1="45.66" x2="5.72" y2="37.79"/>
      <line class="cls-1" x1="14.14" y1="49.76" x2="13.57" y2="49.76"/>
      <line class="cls-1" x1="14.41" y1="49.73" x2="14.14" y2="49.76"/>
      <polyline class="cls-1" points="14.54 49.49 14.54 49.65 14.41 49.73"/>
      <line class="cls-1" x1="14.43" y1="49.28" x2="14.54" y2="49.49"/>
      <polyline class="cls-1" points="13.84 47.4 13.89 47.89 14 48.39 14.17 48.85 14.43 49.28"/>
      <polyline class="cls-1" points="12.98 45.85 13.34 46.12 13.62 46.5 13.77 46.93 13.84 47.4"/>
      <polyline class="cls-1" points="12.51 45.46 12.72 45.67 12.98 45.85"/>
      <polyline class="cls-1" points="12.06 45.26 12.19 45.26 12.3 45.3 12.51 45.46"/>
      <polyline class="cls-1" points="11.7 45.48 11.86 45.34 12.06 45.26"/>
      <polyline class="cls-1" points="11.28 45.83 11.51 45.67 11.7 45.48"/>
      <polyline class="cls-1" points="10.39 47.38 10.45 46.92 10.63 46.47 10.91 46.1 11.28 45.83"/>
      <polyline class="cls-1" points="10.13 48.69 10.24 48.37 10.32 48.05 10.39 47.38"/>
      <line class="cls-1" x1="9.73" y1="49.41" x2="10.13" y2="48.69"/>
      <polyline class="cls-1" points="9.91 49.76 9.78 49.73 9.7 49.65 9.68 49.52 9.73 49.41"/>
      <line class="cls-1" x1="9.97" y1="49.76" x2="9.91" y2="49.76"/>
      <line class="cls-1" x1="11.2" y1="49.76" x2="9.97" y2="49.76"/>
      <polyline class="cls-1" points="11.79 50.02 11.67 49.91 11.52 49.81 11.2 49.76"/>
      <polyline class="cls-1" points="12.43 50.03 12.29 50.13 12.11 50.18 11.94 50.13 11.79 50.02"/>
      <line class="cls-1" x1="12.5" y1="49.97" x2="12.43" y2="50.03"/>
      <polyline class="cls-1" points="12.94 49.76 12.69 49.81 12.5 49.97"/>
      <line class="cls-1" x1="13.57" y1="49.76" x2="12.94" y2="49.76"/>
      <polyline class="cls-1" points="10.24 44.55 10.32 44.52 10.37 44.55 10.43 44.62"/>
      <line class="cls-1" x1="9.78" y1="44.95" x2="10.24" y2="44.55"/>
      <polyline class="cls-1" points="9.24 48.47 9.06 48.02 8.96 47.56 8.93 47.09 8.96 46.61 9.08 46.15 9.25 45.72 9.49 45.32 9.78 44.95"/>
      <line class="cls-1" x1="9.43" y1="48.79" x2="9.24" y2="48.47"/>
      <line class="cls-1" x1="9.54" y1="48.84" x2="9.43" y2="48.79"/>
      <line class="cls-1" x1="9.57" y1="48.76" x2="9.54" y2="48.84"/>
      <polyline class="cls-1" points="9.46 48.31 9.56 48.53 9.57 48.76"/>
      <polyline class="cls-1" points="9.92 45.19 9.67 45.53 9.46 45.88 9.32 46.26 9.22 46.68 9.19 47.09 9.24 47.51 9.33 47.91 9.46 48.31"/>
      <line class="cls-1" x1="10.43" y1="44.62" x2="9.92" y2="45.19"/>
      <polyline class="cls-1" points="15.15 47.91 14.96 48.37 14.83 48.6 14.67 48.79"/>
      <polyline class="cls-1" points="14.93 45.67 15.13 46.2 15.25 46.77 15.26 47.35 15.15 47.91"/>
      <polyline class="cls-1" points="13.87 44.57 14.21 44.78 14.48 45.03 14.72 45.34 14.93 45.67"/>
      <line class="cls-1" x1="13.79" y1="44.54" x2="13.87" y2="44.57"/>
      <polyline class="cls-1" points="14.24 45.14 13.98 44.86 13.79 44.54"/>
      <polyline class="cls-1" points="15.04 47.01 14.97 46.5 14.81 46.01 14.56 45.54 14.24 45.14"/>
      <polyline class="cls-1" points="14.77 48.32 14.89 48.02 14.97 47.69 15.02 47.35 15.04 47.01"/>
      <polyline class="cls-1" points="14.67 48.79 14.69 48.55 14.77 48.32"/>
      <polyline class="cls-1" points="13.63 45.43 13.92 45.64 14.13 45.93 14.29 46.25 14.38 46.58 14.45 46.92 14.45 47.27 14.37 47.62 14.21 47.92"/>
      <line class="cls-1" x1="13.85" y1="45.89" x2="13.63" y2="45.43"/>
      <polyline class="cls-1" points="14.21 47.29 14.19 46.93 14.13 46.57 14.01 46.23 13.85 45.89"/>
      <line class="cls-1" x1="14.21" y1="47.92" x2="14.21" y2="47.29"/>
      <line class="cls-1" x1="10.05" y1="47.59" x2="10.05" y2="47.92"/>
      <polyline class="cls-1" points="10.08 46.69 10.04 47.14 10.05 47.59"/>
      <line class="cls-1" x1="10.39" y1="45.93" x2="10.08" y2="46.69"/>
      <line class="cls-1" x1="10.59" y1="45.45" x2="10.39" y2="45.93"/>
      <line class="cls-1" x1="10.59" y1="45.45" x2="10.58" y2="45.42"/>
      <line class="cls-1" x1="10.31" y1="45.66" x2="10.58" y2="45.42"/>
      <polyline class="cls-1" points="9.81 47.46 9.78 46.98 9.84 46.5 10.04 46.04 10.31 45.66"/>
      <polyline class="cls-1" points="10.05 47.92 9.89 47.72 9.81 47.46"/>
      <line class="cls-1" x1="5.72" y1="37.79" x2="5.69" y2="17.57"/>
      <polyline class="cls-1" points="5.69 17.57 5.7 16.74 5.8 15.91 5.94 15.08 6.14 14.26"/>
      <polyline class="cls-1" points="9.7 34.43 9.57 34.42 9.46 34.34 9.38 34.23 9.36 34.1 9.38 33.97 9.46 33.86 9.57 33.79 9.7 33.76"/>
      <line class="cls-1" x1="9.7" y1="33.76" x2="11.94" y2="33.76"/>
      <polyline class="cls-1" points="11.94 34.43 12.06 34.42 12.18 34.34 12.26 34.23 12.27 34.1 12.26 33.97 12.18 33.86 12.06 33.79 11.94 33.76"/>
      <line class="cls-1" x1="9.7" y1="34.43" x2="11.94" y2="34.43"/>
      <polyline class="cls-1" points="25.43 33.76 25.55 33.79 25.65 33.86 25.73 33.97 25.76 34.1 25.73 34.23 25.65 34.34 25.55 34.4 25.43 34.43"/>
      <line class="cls-1" x1="25.43" y1="34.43" x2="23.17" y2="34.43"/>
      <polyline class="cls-1" points="23.17 34.43 23.04 34.42 22.93 34.34 22.87 34.23 22.84 34.1 22.87 33.97 22.93 33.86 23.04 33.79 23.17 33.76"/>
      <line class="cls-1" x1="25.43" y1="33.76" x2="23.17" y2="33.76"/>
      <polyline class="cls-1" points="28.97 14.26 29.18 15.08 29.33 15.91 29.4 16.74 29.44 17.57"/>
      <line class="cls-1" x1="29.44" y1="17.57" x2="29.39" y2="37.79"/>
      <line class="cls-1" x1="29.39" y1="37.79" x2="29.4" y2="45.66"/>
      <polyline class="cls-1" points="29.4 45.66 29.34 46.82 29.17 47.97 28.89 49.09 28.49 50.18 28 51.23 27.39 52.22 26.7 53.15 25.92 54 25.07 54.78 24.13 55.47 23.14 56.06 22.09 56.56 21 56.94 19.86 57.23 18.71 57.4 17.56 57.45"/>
      <line class="cls-1" x1="24.98" y1="44.55" x2="23.7" y2="46.49"/>
      <line class="cls-1" x1="23.35" y1="44.55" x2="24.98" y2="44.55"/>
      <polyline class="cls-1" points="23.04 44.74 23.16 44.6 23.35 44.55"/>
      <line class="cls-1" x1="22.02" y1="47.03" x2="23.04" y2="44.74"/>
      <line class="cls-1" x1="21.96" y1="47.17" x2="22.02" y2="47.03"/>
      <line class="cls-1" x1="23.08" y1="47.17" x2="21.96" y2="47.17"/>
      <line class="cls-1" x1="22.29" y1="50.45" x2="23.08" y2="47.17"/>
      <line class="cls-1" x1="22.33" y1="50.45" x2="22.29" y2="50.45"/>
      <line class="cls-1" x1="25.27" y1="46.49" x2="22.33" y2="50.45"/>
      <line class="cls-1" x1="23.7" y1="46.49" x2="25.27" y2="46.49"/>
      <polyline class="cls-1" points="17.1 12.73 17.32 12.65 17.56 12.6"/>
      <polyline class="cls-1" points="16.78 13.24 16.8 13.08 16.86 12.93 16.96 12.82 17.1 12.73"/>
      <line class="cls-1" x1="16.78" y1="15.14" x2="16.78" y2="13.24"/>
      <line class="cls-1" x1="16.8" y1="15.3" x2="16.78" y2="15.14"/>
      <line class="cls-1" x1="17.56" y1="15.25" x2="16.8" y2="15.3"/>
      <polyline class="cls-1" points="15.17 18.69 15.21 18.23 15.34 17.78 15.56 17.36 15.87 16.99 16.22 16.69 16.64 16.47 17.08 16.31 17.56 16.26"/>
      <polyline class="cls-1" points="17.56 21.17 17.08 21.1 16.64 20.96 16.22 20.72 15.85 20.4 15.56 20.03 15.34 19.62 15.21 19.17 15.17 18.69"/>
      <polyline class="cls-1" points="14.17 19.12 14.3 19.73 14.53 20.3 14.86 20.82 15.28 21.28 15.77 21.66 16.33 21.93 16.94 22.11 17.56 22.17"/>
      <polyline class="cls-1" points="15.09 16.36 14.83 16.64 14.62 16.95 14.45 17.28 14.32 17.63 14.22 18 14.17 18.37 14.17 19.12"/>
      <line class="cls-1" x1="15.58" y1="15.91" x2="15.09" y2="16.36"/>
      <polyline class="cls-1" points="15.77 15.52 15.74 15.73 15.58 15.91"/>
      <line class="cls-1" x1="15.77" y1="13.3" x2="15.77" y2="15.52"/>
      <polyline class="cls-1" points="16.28 12.06 16.06 12.31 15.88 12.62 15.8 12.95 15.77 13.3"/>
      <polyline class="cls-1" points="17.18 11.64 16.7 11.78 16.48 11.9 16.28 12.06"/>
      <line class="cls-1" x1="17.23" y1="11.62" x2="17.18" y2="11.64"/>
      <line class="cls-1" x1="17.23" y1="11.62" x2="17.39" y2="11.59"/>
      <line class="cls-1" x1="17.56" y1="11.59" x2="17.39" y2="11.59"/>
      <line class="cls-1" x1="17.56" y1="16.26" x2="17.63" y2="16.26"/>
      <line class="cls-1" x1="17.77" y1="15.25" x2="17.56" y2="15.25"/>
      <polyline class="cls-1" points="21.01 18.02 20.85 17.47 20.62 16.95 20.28 16.48 19.88 16.08 19.4 15.73 18.89 15.48 18.35 15.32 17.77 15.25"/>
      <polyline class="cls-1" points="17.96 22.16 18.31 22.09 18.67 22.01 19.02 21.89 19.34 21.73 19.64 21.52 19.93 21.29 20.18 21.04 20.41 20.77 20.62 20.46 20.77 20.14 20.9 19.81 21 19.46 21.06 19.1 21.08 18.74 21.01 18.02"/>
      <line class="cls-1" x1="17.56" y1="22.17" x2="17.96" y2="22.16"/>
      <line class="cls-1" x1="17.61" y1="21.17" x2="17.56" y2="21.17"/>
      <polyline class="cls-1" points="20.07 18.72 20.02 19.18 19.88 19.65 19.66 20.06 19.35 20.43 18.98 20.74 18.55 20.98 18.09 21.12 17.61 21.17"/>
      <polyline class="cls-1" points="17.63 16.26 18.11 16.31 18.57 16.45 18.98 16.68 19.35 16.98 19.66 17.36 19.88 17.78 20.02 18.24 20.07 18.72"/>
      <line class="cls-1" x1="13.84" y1="49.3" x2="10.39" y2="49.3"/>
      <line class="cls-1" x1="10.39" y1="49.3" x2="10.42" y2="49.22"/>
      <polyline class="cls-1" points="10.42 49.22 10.58 48.8 10.71 48.39 10.83 47.51"/>
      <line class="cls-1" x1="10.83" y1="47.51" x2="10.93" y2="46.93"/>
      <polyline class="cls-1" points="10.93 46.93 11.04 46.63 11.27 46.39 11.54 46.21 11.84 46.1"/>
      <polyline class="cls-1" points="11.84 46.1 12.1 46.05 12.34 46.09 12.59 46.15 12.82 46.26 13.01 46.44 13.17 46.63 13.28 46.85 13.34 47.11"/>
      <line class="cls-1" x1="13.34" y1="47.11" x2="13.42" y2="47.86"/>
      <polyline class="cls-1" points="13.42 47.86 13.54 48.44 13.73 48.98"/>
      <line class="cls-1" x1="13.73" y1="48.98" x2="13.84" y2="49.3"/>
      <polyline class="cls-1" points="17.56 19.98 17.4 19.97 17.27 19.89 17.21 19.76 17.18 19.62"/>
      <line class="cls-1" x1="17.18" y1="19.62" x2="17.18" y2="19.46"/>
      <polyline class="cls-1" points="17.18 19.46 17.18 19.3 17.15 19.15 17.05 19.01 16.94 18.9"/>
      <polyline class="cls-1" points="16.94 18.9 16.8 18.74 16.72 18.55 16.68 18.34 16.72 18.13 16.78 17.94 16.89 17.75 17.04 17.6 17.23 17.49"/>
      <line class="cls-1" x1="17.56" y1="17.43" x2="17.23" y2="17.49"/>
      <polyline class="cls-1" points="17.99 19.31 18.01 19.14 18.14 18.99"/>
      <line class="cls-1" x1="17.99" y1="19.62" x2="17.99" y2="19.31"/>
      <polyline class="cls-1" points="17.58 19.98 17.74 19.97 17.88 19.9 17.96 19.76 17.99 19.62"/>
      <line class="cls-1" x1="17.56" y1="19.98" x2="17.58" y2="19.98"/>
      <polyline class="cls-1" points="18.35 17.84 18.2 17.67 18.01 17.52 17.79 17.44 17.56 17.43"/>
      <polyline class="cls-1" points="18.14 18.99 18.35 18.75 18.46 18.45 18.46 18.15 18.35 17.84"/>
      <line class="cls-1" x1="29.4" y1="45.66" x2="29.47" y2="45.66"/>
      <polyline class="cls-1" points="29.47 45.66 29.4 46.82 29.23 47.97 28.96 49.11 28.56 50.19 28.06 51.25 27.46 52.26 26.77 53.2 25.97 54.06 25.11 54.85 24.18 55.53 23.17 56.14 22.12 56.64 21.01 57.04 19.88 57.31 18.73 57.48 17.56 57.55 16.4 57.48 15.23 57.31 14.09 57.04 13.01 56.64 11.94 56.14 10.95 55.53 10 54.85 9.14 54.06 8.36 53.2 7.65 52.26 7.06 51.25 6.55 50.19 6.17 49.11 5.88 47.97 5.7 46.82 5.64 45.66"/>
      <line class="cls-1" x1="5.64" y1="45.66" x2="5.72" y2="45.66"/>
      <polyline class="cls-1" points="19.43 12.9 19.38 12.68 19.3 12.47 19.18 12.3 19.03 12.12 18.67 11.86 18.25 11.69"/>
      <polyline class="cls-1" points="19.43 13.94 19.45 13.43 19.43 12.9"/>
      <line class="cls-1" x1="18.44" y1="13.94" x2="19.43" y2="13.94"/>
      <line class="cls-1" x1="18.44" y1="13.33" x2="18.44" y2="13.94"/>
      <polyline class="cls-1" points="17.91 12.65 18.14 12.73 18.33 12.87 18.43 13.09 18.44 13.33"/>
      <line class="cls-1" x1="17.56" y1="12.6" x2="17.91" y2="12.65"/>
      <line class="cls-1" x1="17.85" y1="11.59" x2="17.56" y2="11.59"/>
      <line class="cls-1" x1="17.85" y1="11.59" x2="18.01" y2="11.62"/>
      <line class="cls-1" x1="18.25" y1="11.69" x2="18.01" y2="11.62"/>
      <line class="cls-1" x1="29.52" y1="17.57" x2="29.52" y2="20.4"/>
      <line class="cls-1" x1="29.52" y1="20.4" x2="29.47" y2="45.66"/>
      <line class="cls-1" x1="29.44" y1="17.57" x2="29.52" y2="17.57"/>
      <line class="cls-1" x1="5.64" y1="45.66" x2="5.59" y2="20.4"/>
      <line class="cls-1" x1="5.59" y1="20.4" x2="5.59" y2="17.57"/>
      <line class="cls-1" x1="5.59" y1="17.57" x2="5.69" y2="17.57"/>
      <polyline class="cls-1" points="17.56 5.66 18.52 5.69 19.46 5.82 20.41 6.01 21.32 6.27 22.21 6.62 23.08 7.02 23.91 7.52 24.71 8.06 25.44 8.67 26.13 9.32 26.77 10.04 27.34 10.81 27.85 11.62 28.3 12.47 28.67 13.35 28.97 14.26"/>
      <polyline class="cls-1" points="17.56 9.21 18.15 9.24 18.76 9.32 19.35 9.45 19.93 9.63"/>
      <polyline class="cls-1" points="19.93 9.63 20.18 9.66 20.42 9.59 20.63 9.43 20.76 9.23 20.79 8.97 20.71 8.73 20.55 8.52 20.33 8.4"/>
      <polyline class="cls-1" points="20.33 8.4 19.66 8.22 18.95 8.09 18.27 8.01 17.56 8"/>
      <polyline class="cls-1" points="14.78 8.4 15.47 8.22 16.16 8.09 16.86 8.01 17.56 8"/>
      <polyline class="cls-1" points="15.2 9.63 14.94 9.66 14.69 9.59 14.48 9.43 14.37 9.23 14.33 8.97 14.4 8.73 14.56 8.52 14.78 8.4"/>
      <polyline class="cls-1" points="17.56 9.21 16.96 9.24 16.35 9.32 15.77 9.45 15.2 9.63"/>
      <polyline class="cls-1" points="6.14 14.26 6.44 13.35 6.82 12.47 7.27 11.62 7.78 10.81 8.34 10.04 8.98 9.32 9.67 8.67 10.42 8.06 11.2 7.52 12.03 7.02 12.9 6.62 13.79 6.27 14.7 6.01 15.64 5.82 16.6 5.69 17.56 5.66"/>
      <polyline class="cls-1" points="29.52 17.57 29.45 16.28 29.25 15 28.89 13.75 28.41 12.54 27.81 11.4 27.09 10.33 26.24 9.34 25.3 8.44 24.27 7.66 23.16 6.99 21.99 6.45 20.76 6.05 19.5 5.76 18.2 5.61 16.91 5.61 15.63 5.76 14.35 6.05 13.14 6.45 11.95 6.99 10.85 7.66 9.81 8.44 8.87 9.34 8.04 10.33 7.3 11.4 6.7 12.54 6.22 13.75 5.88 15 5.66 16.28 5.59 17.57"/>
      <polyline class="cls-1" points="17.56 .15 16.75 .18 15.93 .23 15.13 .32 14.33 .47 13.55 .63 12.77 .85 11.98 1.09 11.23 1.38 10.5 1.7 9.78 2.05 9.08 2.43 8.39 2.85 7.7 3.31 7.06 3.79 6.44 4.3 5.85 4.85 5.29 5.42 4.75 6.01 4.22 6.64 3.74 7.29 3.29 7.96 2.88 8.65 2.49 9.35 2.14 10.07 1.82 10.82 1.53 11.58 1.29 12.34 1.09 13.14 .91 13.93 .78 14.73 .69 15.52 .62 16.34"/>
      <polyline class="cls-1" points="34.49 59.24 34.38 60.58 34.14 61.96 33.78 63.35 33.3 64.74 33 65.44 32.68 66.13 32.31 66.82 31.91 67.49 31.47 68.15 31 68.8 30.49 69.42 29.95 70.05 29.36 70.64 28.75 71.2 28.09 71.74 27.42 72.25 26.7 72.75 25.97 73.2 25.2 73.6 24.4 73.98 23.6 74.32 22.77 74.6 21.93 74.86 21.06 75.07 20.18 75.23 19.32 75.34 18.44 75.4 17.56 75.42"/>
      <polyline class="cls-1" points=".62 59.24 .75 60.58 .97 61.96 1.33 63.35 1.82 64.74 2.11 65.44 2.44 66.13 2.81 66.82 3.21 67.49 3.64 68.15 4.12 68.8 4.62 69.42 5.18 70.05 5.75 70.64 6.36 71.2 7.01 71.74 7.7 72.25 8.41 72.75 9.14 73.2 9.91 73.6 10.71 73.98 11.52 74.32 12.35 74.6 13.2 74.86 14.05 75.07 14.93 75.23 15.8 75.34 16.68 75.4 17.56 75.42"/>
      <polyline class="cls-1" points=".62 59.24 .56 57.66 .49 56.12 .45 54.67 .4 53.23 .32 50.48 .25 47.85 .21 45.27 .17 42.75 .14 37.79"/>
      <polyline class="cls-1" points=".62 16.34 .56 17.92 .49 19.44 .45 20.91 .4 22.33 .32 25.1 .25 27.74 .21 30.31 .17 32.84 .14 37.79"/>
      <polyline class="cls-1" points="34.49 16.34 34.38 14.98 34.14 13.61 33.78 12.22 33.3 10.82 33 10.14 32.68 9.45 32.31 8.76 31.91 8.09 31.47 7.44 31 6.78 30.49 6.14 29.95 5.53 29.36 4.94 28.75 4.37 28.09 3.84 27.42 3.31 26.7 2.83 25.97 2.39 25.2 1.97 24.4 1.6 23.6 1.27 22.77 .98 21.93 .72 21.06 .51 20.18 .35 19.32 .24 18.44 .18 17.56 .15"/>
      <polyline class="cls-1" points="34.97 37.79 34.93 32.84 34.9 30.31 34.85 27.74 34.79 25.1 34.71 22.33 34.66 20.91 34.61 19.44 34.55 17.92 34.49 16.34"/>
      <polyline class="cls-1" points="34.49 59.24 34.55 57.66 34.61 56.12 34.66 54.67 34.71 53.23 34.79 50.48 34.85 47.85 34.9 45.27 34.93 42.75 34.97 37.79"/>
      <polyline class="cls-1" points="17.56 65.35 17 65.4 16.48 65.56 16 65.81 15.56 66.16 15.23 66.59 14.96 67.07 14.8 67.6 14.75 68.15 14.8 68.7 14.96 69.22 15.23 69.71 15.56 70.13 16 70.48 16.48 70.75 17 70.91 17.56 70.96"/>
      <polyline class="cls-1" points="17.56 70.96 18.11 70.91 18.63 70.75 19.11 70.48 19.54 70.14 19.9 69.71 20.15 69.22 20.31 68.7 20.36 68.15 20.31 67.6 20.15 67.07 19.9 66.59 19.54 66.16 19.11 65.81 18.63 65.56 18.11 65.4 17.56 65.35"/>
      <polyline class="cls-1" points="17.56 57.68 16.38 57.61 15.21 57.44 14.06 57.15 12.94 56.75 11.89 56.25 10.87 55.65 9.92 54.94 9.06 54.14 8.26 53.28 7.56 52.34 6.97 51.33 6.46 50.26 6.06 49.16 5.77 48 5.59 46.84 5.54 45.66"/>
      <polyline class="cls-1" points=".62 59.24 .56 57.66 .49 56.12 .45 54.67 .4 53.23 .32 50.48 .25 47.85 .21 45.27 .17 42.75 .14 37.79"/>
      <line class="cls-1" x1="5.54" y1="37.79" x2="5.54" y2="45.66"/>
      <line class="cls-1" x1="29.58" y1="37.79" x2="29.58" y2="45.66"/>
      <polyline class="cls-1" points="34.97 37.79 34.93 42.75 34.9 45.27 34.85 47.85 34.79 50.48 34.71 53.23 34.66 54.67 34.61 56.12 34.55 57.66 34.49 59.24"/>
      <polyline class="cls-1" points="29.58 45.66 29.52 46.84 29.34 48 29.05 49.16 28.65 50.26 28.16 51.33 27.55 52.34 26.85 53.28 26.06 54.14 25.19 54.94 24.24 55.65 23.24 56.25 22.17 56.75 21.05 57.15 19.91 57.44 18.75 57.61 17.56 57.68"/>
      <polyline class="cls-1" points="17.56 63.86 17.1 63.88 16.65 63.96 16.22 64.09 15.8 64.25 15.41 64.45 15.04 64.69 14.7 64.98 14.38 65.28 14.09 65.62 13.85 65.99 13.65 66.37 13.47 66.77 13.34 67.17 13.23 67.6 13.18 68.03 13.15 68.47 13.18 68.9 13.23 69.33 13.33 69.76 13.47 70.18 13.65 70.58 13.85 70.96 14.09 71.31 14.38 71.66 14.7 71.97 15.04 72.25 15.42 72.49 15.82 72.7 16.24 72.86 16.67 72.99 17.12 73.05 17.56 73.08"/>
      <polyline class="cls-1" points="17.56 63.86 18.01 63.88 18.46 63.96 18.91 64.09 19.32 64.25 19.72 64.45 20.09 64.71 20.44 65 20.76 65.32 21.03 65.65 21.29 66.02 21.49 66.4 21.65 66.82 21.8 67.23 21.88 67.65 21.94 68.08 21.96 68.51 21.93 68.94 21.88 69.38 21.77 69.79 21.64 70.21 21.46 70.61 21.25 70.97 21 71.33 20.73 71.66 20.41 71.97 20.07 72.25 19.7 72.49 19.3 72.68 18.89 72.86 18.46 72.97 18.01 73.05 17.56 73.08"/>
      <polyline class="cls-1" points="5.99 14.31 6.28 13.38 6.66 12.49 7.11 11.62 7.62 10.79 8.2 10.01 8.85 9.29 9.54 8.6 10.29 7.98 11.11 7.44 11.94 6.94 12.82 6.53 13.73 6.17 14.67 5.9 15.61 5.71 16.59 5.58 17.56 5.55"/>
      <polyline class="cls-1" points="17.56 5.55 18.54 5.58 19.5 5.71 20.46 5.9 21.38 6.17 22.29 6.53 23.17 6.94 24.02 7.42 24.82 7.98 25.57 8.6 26.27 9.29 26.91 10.01 27.49 10.79 28 11.62 28.45 12.49 28.83 13.38 29.13 14.31"/>
      <line class="cls-1" x1="5.54" y1="37.79" x2="5.54" y2="17.57"/>
      <polyline class="cls-1" points=".14 37.79 .17 32.84 .21 30.31 .25 27.74 .32 25.1 .4 22.33 .45 20.91 .49 19.44 .56 17.92 .62 16.34"/>
      <polyline class="cls-1" points="5.54 17.57 5.56 16.74 5.66 15.92 5.78 15.11 5.99 14.31"/>
      <polyline class="cls-1" points="29.13 14.31 29.33 15.11 29.47 15.92 29.55 16.74 29.58 17.57"/>
      <polyline class="cls-1" points="34.49 16.34 34.55 17.92 34.61 19.44 34.66 20.91 34.71 22.33 34.79 25.1 34.85 27.74 34.9 30.31 34.93 32.84 34.97 37.79"/>
      <line class="cls-1" x1="29.58" y1="17.57" x2="29.58" y2="37.79"/>
      <polyline class="cls-1" points="17.56 64.71 17.88 64.72 18.2 64.79 18.83 65.01 19.38 65.35 19.86 65.8 20.25 66.32 20.54 66.9 20.71 67.54 20.76 68.18 20.69 68.8 20.5 69.42 20.22 69.97 19.83 70.46 19.34 70.86 18.79 71.15 18.19 71.34 17.56 71.39"/>
      <polyline class="cls-1" points="17.56 64.71 17.23 64.72 16.89 64.79 16.57 64.88 16.27 65.01 15.71 65.36 15.23 65.8 14.86 66.32 14.59 66.9 14.41 67.51 14.35 68.13 14.41 68.74 14.57 69.34 14.85 69.9 15.23 70.4 15.69 70.81 16.27 71.13 16.89 71.33 17.23 71.37 17.56 71.39"/>
      <polyline class="cls-1" points="17.56 70.96 17 70.91 16.48 70.75 16 70.48 15.56 70.14 15.23 69.71 14.96 69.22 14.8 68.69 14.75 68.15 14.8 67.6 14.96 67.07 15.23 66.59 15.56 66.16 16 65.81 16.48 65.56 17 65.4 17.56 65.35"/>
      <polyline class="cls-1" points="17.56 70.96 18.11 70.91 18.63 70.75 19.11 70.48 19.54 70.14 19.9 69.71 20.15 69.23 20.31 68.7 20.36 68.15 20.31 67.6 20.15 67.07 19.9 66.59 19.54 66.16 19.11 65.81 18.63 65.56 18.11 65.4 17.56 65.35"/>
      <line class="cls-2" x1="20.76" y1="18.42" x2="41.89" y2="18.42"/>
      <line class="cls-2" x1="20.76" y1="29.8" x2="41.89" y2="29.8"/>
      <line class="cls-2" x1="24.76" y1="48.79" x2="41.89" y2="48.79"/>
      <polyline class="cls-2" points="41.89 40.05 12.94 40.05 12.94 44.65"/>
      <text class="cls-3" transform="translate(44.61 19.61)"><tspan x="0" y="0">Unlock</tspan></text>
      <text class="cls-3" transform="translate(44.43 30.65)"><tspan x="0" y="0">Lock</tspan></text>
      <text class="cls-3" transform="translate(44.43 42.35)"><tspan x="0" y="0">Alarm</tspan></text>
      <text class="cls-3" transform="translate(43.63 50.84)"><tspan x="0" y="0">One-button Start</tspan></text>
    </g>
  </g>
</svg>