<?xml version="1.0" encoding="UTF-8"?>
<svg id="_图层_2" data-name="图层 2" xmlns="http://www.w3.org/2000/svg" viewBox="0 0 36.16 42.79">
  <defs>
    <style>
      .cls-1 {
        fill: none;
      }

      .cls-1, .cls-2 {
        stroke: #595857;
        stroke-miterlimit: 10;
        stroke-width: .25px;
      }

      .cls-2 {
        fill: #fff;
      }
    </style>
  </defs>
  <g id="_图层_1-2" data-name="图层 1">
    <g>
      <g>
        <path class="cls-2" d="M27.78,42.66h1.02c4.03-.05,7.29-3.82,7.24-8.41l-.16-17.49c-.04-4.58-3.37-8.3-7.39-8.26h-1.02c-4.03.05-7.29,3.82-7.24,8.41l.16,17.49c.04,4.58,3.37,8.3,7.39,8.26ZM21.86,17.15c-.03-3.76,2.61-6.82,5.91-6.85h.22s.22,0,.22,0c3.3-.03,6,2.99,6.04,6.75l.15,17.13c.03,3.76-2.61,6.82-5.91,6.85h-.44c-3.3.03-6-2.99-6.04-6.74l-.15-17.13Z"/>
        <path class="cls-1" d="M22.76,22.47c-.03-3.17,2.21-5.77,5-5.79h.6c2.79-.03,5.07,2.52,5.1,5.7l.11,11.94c.03,3.17-2.21,5.77-5,5.79h-.6c-2.79.03-5.07-2.52-5.1-5.7l-.11-11.94Z"/>
        <path class="cls-1" d="M26.51,12.01c0,.94.69,1.7,1.52,1.69s1.49-.78,1.48-1.72-.69-1.7-1.52-1.69-1.49.78-1.48,1.72ZM28,10.89c.54,0,.98.49.99,1.1s-.43,1.12-.97,1.12-.98-.49-.99-1.1.43-1.12.97-1.12Z"/>
        <g>
          <path class="cls-1" d="M29.74,38.04c0,.2-.14.37-.32.37l-2.09.02c-.18,0-.33-.16-.33-.37h0c0-.2.14-.37.32-.37l2.09-.02c.18,0,.33.16.33.37h0ZM29.77,21.49c-.27-.18-.45-.51-.46-.89,0-.33.13-.62.34-.82-.21.19-.34.49-.34.82,0,.38.19.71.46.89ZM31.99,26.66h-1.57s0-.43,0-.43h1.57s0,.43,0,.43ZM31.1,19.76c.21.19.35.48.35.81,0,.38-.17.72-.44.9.27-.18.44-.52.44-.9,0-.33-.14-.62-.35-.81ZM31.85,20.57c0,.56-.27,1.06-.67,1.31.4-.26.68-.75.67-1.31,0-.5-.23-.95-.57-1.21.34.27.57.71.57,1.21ZM30.36,19.03s.03-.07.06-.07.07.03.07.07-.03.07-.06.07h.86s-.37.75-.37.75c.08.12.13.27.13.44,0,.41-.29.74-.65.75s-.66-.33-.66-.74c0-.16.05-.32.12-.44l-.39-.75h.95s-.07-.04-.07-.08ZM29.47,19.37c-.34.27-.55.72-.55,1.22,0,.56.29,1.05.69,1.3-.41-.25-.69-.74-.69-1.3,0-.5.21-.95.55-1.22ZM28.13,24.91c.83,0,1.51.75,1.52,1.69,0,.59-.25,1.11-.64,1.42v.67c.01.53-.36.97-.83.97s-.85-.42-.86-.96v-.67c-.4-.3-.67-.82-.67-1.4,0-.94.66-1.71,1.48-1.72ZM25.79,19.47l-.25,1.3h.65s-.13.14-.13.14l-.51,1.01h-.93s.53-.86.53-.86h-.68s1.32-1.6,1.32-1.6ZM24.29,26.28h1.57s0,.43,0,.43h-1.57s0-.43,0-.43Z"/>
          <path class="cls-1" d="M28.19,32.26c.54,0,.98.49.99,1.1s-.43,1.12-.97,1.12-.98-.49-.99-1.1.43-1.12.97-1.12Z"/>
          <path class="cls-1" d="M28,33.23v-.37s.39,0,.39,0v.37c.08.07.14.17.14.29,0,.2-.14.37-.32.37s-.33-.16-.33-.37c0-.12.05-.23.13-.3Z"/>
          <path class="cls-1" d="M28.21,33.89c.18,0,.32-.17.32-.37,0-.12-.05-.23-.13-.29v-.37s-.39,0-.39,0v.37c-.07.07-.13.18-.12.3,0,.2.15.37.33.37Z"/>
          <path class="cls-1" d="M28.13,25.5c.54,0,.98.49.99,1.1,0,.42-.22.78-.51.97.04.01.08.06.08.1v1.07c.01.34-.23.62-.52.62s-.54-.27-.55-.61v-1.07s.02-.08.05-.1c-.3-.19-.51-.55-.51-.97,0-.61.43-1.12.97-1.12Z"/>
          <path class="cls-1" d="M27.94,26.32v-.37s.39,0,.39,0v.37c.08.07.14.17.14.29,0,.2-.14.37-.32.37s-.33-.16-.33-.37c0-.12.05-.23.13-.3Z"/>
          <path class="cls-1" d="M28.14,26.99c.18,0,.32-.17.32-.37,0-.12-.05-.23-.13-.29v-.37s-.39,0-.39,0v.37c-.07.07-.13.18-.12.3,0,.2.15.37.33.37Z"/>
          <ellipse class="cls-1" cx="30.44" cy="21.1" rx=".07" ry=".07" transform="translate(-.19 .27) rotate(-.51)"/>
          <path class="cls-1" d="M28.22,35.08c.19,0,.37-.04.54-.12l.02,1s-.09.3-.48.3-.4-.44-.4-.44h-.39s0,.97.66,1.11c.5.11.88-.35.95-.68.02-.08.04-.22.04-.22v-1.33c.34-.32.56-.8.55-1.35,0-.94-.69-1.7-1.52-1.69s-1.49.78-1.48,1.72.69,1.7,1.52,1.69Z"/>
        </g>
      </g>
      <g>
        <path class="cls-2" d="M2.35,36.62l.76.68c3,2.68,7.96,2.08,11.01-1.33l11.66-13.04c3.05-3.42,3.1-8.41.1-11.09l-.76-.68c-3-2.68-7.96-2.08-11.01,1.33L2.44,25.53c-3.05,3.42-3.1,8.41-.1,11.09Z"/>
        <path class="cls-2" d="M15.15,13.77c2.5-2.8,6.53-3.29,8.99-1.09l.16.15.16.15c2.46,2.2,2.42,6.25-.08,9.05l-11.42,12.77c-2.5,2.8-6.53,3.29-8.99,1.09l-.33-.29c-2.46-2.2-2.42-6.25.08-9.05l11.42-12.77Z"/>
        <path class="cls-1" d="M12.23,18.31c2.12-2.37,5.52-2.78,7.6-.92l.45.4c2.08,1.86,2.05,5.28-.07,7.65l-7.96,8.9c-2.12,2.37-5.52,2.78-7.6.92l-.45-.4c-2.08-1.86-2.05-5.28.07-7.65l7.96-8.9Z"/>
        <path class="cls-1" d="M22.05,13.11c-.63.7-.64,1.72-.02,2.27s1.63.43,2.26-.27.64-1.72.02-2.27-1.63-.43-2.26.27ZM23.91,13.28c.4.36.4,1.02-.01,1.48s-1.07.54-1.47.18-.4-1.02.01-1.48,1.07-.54,1.47-.18Z"/>
        <g>
          <path class="cls-1" d="M6.92,34.53c-.14.15-.36.18-.49.06l-1.56-1.39c-.13-.12-.13-.34,0-.49h0c.14-.15.36-.18.49-.06l1.56,1.39c.13.12.13.34,0,.49h0ZM18.08,22.3c-.08-.31,0-.68.26-.97.22-.25.52-.37.8-.38-.28,0-.58.13-.8.38-.25.28-.34.65-.26.97ZM16.24,27.62l-1.17-1.04.3-.33,1.17,1.04-.3.33ZM20.22,21.93c.03.28-.07.59-.29.84-.25.28-.61.41-.93.37.32.04.68-.08.93-.37.22-.25.31-.55.29-.84ZM20.23,23.03c-.38.42-.91.6-1.38.52.47.08,1-.1,1.38-.52.34-.38.47-.86.4-1.28.07.43-.06.91-.4,1.28ZM20.17,20.88s.07-.04.1-.01.03.07,0,.1-.07.04-.1.01l.64.57-.78.31c-.02.14-.09.29-.2.41-.27.31-.71.36-.98.12s-.26-.68,0-.99c.11-.12.25-.2.39-.24l.22-.81.71.63s-.03-.07,0-.1ZM19.28,20.54c-.43-.03-.89.16-1.23.54-.38.42-.5.97-.36,1.43-.14-.46-.01-1.01.36-1.43.34-.38.8-.56,1.23-.54ZM14.56,23.73c.62.55.61,1.57-.02,2.27-.39.44-.93.65-1.43.62l-.45.5c-.36.4-.93.47-1.28.15s-.34-.89.01-1.28l.45-.5c-.09-.49.06-1.05.45-1.49.63-.7,1.64-.83,2.26-.27ZM16.49,18.14l-1.06.8.49.43-.2.02-1.06.4-.69-.62.98-.28-.51-.45,2.06-.3ZM10.8,22.16l1.17,1.04-.3.33-1.17-1.04.3-.33Z"/>
          <path class="cls-1" d="M9.66,29.21c.4.36.4,1.02-.01,1.48s-1.07.54-1.47.18-.4-1.02.01-1.48,1.07-.54,1.47-.18Z"/>
          <path class="cls-1" d="M8.87,29.8l.25-.28.29.26-.25.28c.01.1-.02.22-.1.31-.14.15-.36.18-.49.06s-.13-.34,0-.49c.08-.09.19-.14.29-.13Z"/>
          <path class="cls-1" d="M8.57,30.43c.13.12.35.09.49-.06.08-.09.11-.2.1-.31l.25-.28-.29-.26-.25.28c-.1,0-.21.04-.29.13-.14.15-.14.37,0,.49Z"/>
          <path class="cls-1" d="M14.16,24.17c.4.36.4,1.02-.01,1.48-.28.31-.68.43-1.03.37.02.03.02.1,0,.13l-.71.79c-.23.25-.59.3-.81.1s-.22-.56,0-.82l.71-.79s.07-.04.11-.03c-.1-.34,0-.75.27-1.06.41-.46,1.07-.54,1.47-.18Z"/>
          <path class="cls-1" d="M13.47,24.65l.25-.28.29.26-.25.28c.01.1-.02.22-.1.31-.14.15-.36.18-.49.06s-.13-.34,0-.49c.08-.09.19-.14.29-.13Z"/>
          <path class="cls-1" d="M13.17,25.28c.13.12.35.09.49-.06.08-.09.11-.2.1-.31l.25-.28-.29-.26-.25.28c-.1,0-.21.04-.29.13-.14.15-.14.37,0,.49Z"/>
          <ellipse class="cls-1" cx="18.83" cy="22.47" rx=".07" ry=".07" transform="translate(-10.47 21.53) rotate(-48.2)"/>
          <path class="cls-1" d="M7.78,31.31c.14.13.3.22.48.28l-.66.76s-.27.16-.56-.1,0-.59,0-.59l-.29-.26s-.64.72-.25,1.26c.29.41.88.33,1.16.14.06-.05.17-.14.17-.14l.89-.99c.47,0,.96-.21,1.32-.62.63-.7.64-1.72.02-2.27s-1.63-.43-2.26.27-.64,1.72-.02,2.27Z"/>
        </g>
      </g>
      <path class="cls-1" d="M28.56,11.31c-.31.52-.67.99-1.08,1.39"/>
      <path class="cls-1" d="M23.93,14.25s-.05,0-.08,0c-3.2,0-5.8-3.16-5.8-7.07S20.64.12,23.85.12s5.8,3.16,5.8,7.07c0,.38-.03.76-.07,1.13"/>
    </g>
  </g>
</svg>