<?xml version="1.0" encoding="UTF-8"?>
<svg id="_图层_2" data-name="图层 2" xmlns="http://www.w3.org/2000/svg" viewBox="0 0 4.88 7.34">
  <defs>
    <style>
      .cls-1 {
        fill: none;
        stroke: #595757;
        stroke-linecap: square;
        stroke-miterlimit: 10;
        stroke-width: .19px;
      }
    </style>
  </defs>
  <g id="_图层_1-2" data-name="图层 1">
    <g>
      <line class="cls-1" x1="2.24" y1=".77" x2="2.43" y2=".74"/>
      <polyline class="cls-1" points="1.87 1.24 1.88 1.08 1.96 .93 2.09 .83 2.24 .77"/>
      <line class="cls-1" x1="1.88" y1="2.49" x2="1.87" y2="1.24"/>
      <line class="cls-1" x1="1.88" y1="2.57" x2="1.88" y2="2.49"/>
      <line class="cls-1" x1="2.43" y1="2.54" x2="1.88" y2="2.57"/>
      <polyline class="cls-1" points="2.42 6.55 2.11 6.51 1.81 6.41 1.52 6.25 1.27 6.04 1.07 5.79 .91 5.51 .81 5.21 .78 4.88 .81 4.57 .91 4.25 1.07 3.97 1.27 3.72 1.52 3.52 1.81 3.36 2.11 3.26 2.43 3.21"/>
      <polyline class="cls-1" points=".12 5.23 .21 5.64 .39 6.02 .61 6.35 .91 6.66 1.24 6.9 1.61 7.08 2.01 7.19 2.43 7.23"/>
      <polyline class="cls-1" points="1.1 2.94 .73 3.27 .57 3.45 .43 3.66 .32 3.86 .22 4.09 .16 4.33 .12 4.57"/>
      <polyline class="cls-1" points="1.19 2.77 1.16 2.87 1.1 2.94"/>
      <line class="cls-1" x1="1.2" y1="1.12" x2="1.19" y2="2.77"/>
      <line class="cls-1" x1="1.21" y1=".93" x2="1.2" y2="1.12"/>
      <polyline class="cls-1" points="2.01 .12 1.73 .23 1.49 .41 1.31 .64 1.21 .93"/>
      <polyline class="cls-1" points="3.69 1.27 3.69 1.09 3.66 .89 3.59 .71 3.5 .55 3.38 .41 3.22 .29 3.05 .19 2.87 .12"/>
      <line class="cls-1" x1="3.68" y1="2.78" x2="3.69" y2="1.27"/>
      <polyline class="cls-1" points="3.8 2.97 3.72 2.89 3.68 2.78"/>
      <polyline class="cls-1" points="4.76 4.54 4.65 4.09 4.56 3.87 4.45 3.66 4.31 3.46 4.16 3.29 3.8 2.97"/>
      <polyline class="cls-1" points="3 7.16 3.41 7.02 3.78 6.81 4.11 6.53 4.38 6.19 4.59 5.81 4.73 5.41 4.78 4.98 4.76 4.54"/>
      <polyline class="cls-1" points="4.1 4.88 4.07 5.21 3.97 5.52 3.81 5.8 3.6 6.05 3.35 6.27 3.06 6.42 2.75 6.52 2.42 6.55"/>
      <polyline class="cls-1" points="2.47 3.21 2.78 3.24 3.09 3.35 3.38 3.5 3.61 3.71 3.82 3.97 3.97 4.25 4.07 4.56 4.1 4.88"/>
      <line class="cls-1" x1="2.43" y1="3.21" x2="2.47" y2="3.21"/>
      <line class="cls-1" x1="3" y1="2.57" x2="2.43" y2="2.54"/>
      <line class="cls-1" x1="3" y1="2.53" x2="3" y2="2.57"/>
      <line class="cls-1" x1="3" y1="1.16" x2="3" y2="2.53"/>
      <polyline class="cls-1" points="2.79 .83 2.88 .89 2.94 .97 2.99 1.06 3 1.16"/>
      <polyline class="cls-1" points="2.43 .74 2.62 .76 2.79 .83"/>
      <polyline class="cls-1" points="2.43 7.23 2.72 7.21 3 7.16"/>
      <polyline class="cls-1" points="1.99 4.18 2.09 4.1 2.2 4.05 2.43 4"/>
      <line class="cls-1" x1="2.14" y1="5.53" x2="2.14" y2="5.37"/>
      <polyline class="cls-1" points="2.14 5.37 2.14 5.27 2.12 5.18 2 5.03"/>
      <polyline class="cls-1" points="2 5.03 1.91 4.95 1.86 4.85 1.83 4.73 1.82 4.61 1.86 4.37 1.99 4.18"/>
      <polyline class="cls-1" points="2.43 5.75 2.33 5.74 2.24 5.7 2.17 5.63 2.14 5.53"/>
      <line class="cls-1" x1="2.69" y1="5.52" x2="2.69" y2="5.3"/>
      <polyline class="cls-1" points="2.87 4.2 2.77 4.12 2.66 4.06 2.43 4"/>
      <polyline class="cls-1" points="2.81 5.05 2.89 4.97 2.95 4.87 3 4.76 3.02 4.64 2.99 4.4 2.87 4.2"/>
      <polyline class="cls-1" points="2.69 5.3 2.72 5.16 2.81 5.05"/>
      <polyline class="cls-1" points="2.43 5.75 2.52 5.74 2.61 5.69 2.67 5.62 2.69 5.52"/>
    </g>
  </g>
</svg>