<?xml version="1.0" encoding="UTF-8"?>
<svg id="_图层_2" data-name="图层 2" xmlns="http://www.w3.org/2000/svg" xmlns:xlink="http://www.w3.org/1999/xlink" viewBox="0 0 162.81 99.21">
  <defs>
    <style>
      .cls-1 {
        clip-path: url(#clippath-34);
      }

      .cls-2 {
        clip-path: url(#clippath-21);
      }

      .cls-3 {
        clip-path: url(#clippath-6);
      }

      .cls-4 {
        clip-path: url(#clippath-7);
      }

      .cls-5 {
        clip-path: url(#clippath-17);
      }

      .cls-6 {
        clip-path: url(#clippath-31);
      }

      .cls-7 {
        clip-path: url(#clippath-15);
      }

      .cls-8 {
        clip-path: url(#clippath-33);
      }

      .cls-9 {
        clip-path: url(#clippath-18);
      }

      .cls-10 {
        clip-path: url(#clippath-4);
      }

      .cls-11 {
        stroke-width: .12px;
      }

      .cls-11, .cls-12, .cls-13, .cls-14, .cls-15 {
        fill: none;
      }

      .cls-11, .cls-12, .cls-14, .cls-15 {
        stroke: #54565a;
        stroke-linecap: round;
        stroke-linejoin: round;
      }

      .cls-16 {
        clip-path: url(#clippath-22);
      }

      .cls-17 {
        clip-path: url(#clippath-23);
      }

      .cls-12 {
        stroke-width: .2px;
      }

      .cls-18 {
        clip-path: url(#clippath-9);
      }

      .cls-19 {
        clip-path: url(#clippath-10);
      }

      .cls-20 {
        fill: #fff;
      }

      .cls-21 {
        clip-path: url(#clippath-25);
      }

      .cls-22 {
        clip-path: url(#clippath-27);
      }

      .cls-23 {
        clip-path: url(#clippath-11);
      }

      .cls-24 {
        clip-path: url(#clippath-36);
      }

      .cls-25 {
        clip-path: url(#clippath-35);
      }

      .cls-26 {
        clip-path: url(#clippath-28);
      }

      .cls-27 {
        clip-path: url(#clippath-1);
      }

      .cls-14 {
        stroke-width: .17px;
      }

      .cls-28 {
        clip-path: url(#clippath-5);
      }

      .cls-29 {
        clip-path: url(#clippath-20);
      }

      .cls-30 {
        clip-path: url(#clippath-8);
      }

      .cls-31 {
        fill: #221814;
      }

      .cls-32 {
        fill: #ff6b00;
      }

      .cls-33 {
        clip-path: url(#clippath-3);
      }

      .cls-34 {
        clip-path: url(#clippath-26);
      }

      .cls-35 {
        clip-path: url(#clippath-12);
      }

      .cls-36 {
        clip-path: url(#clippath-14);
      }

      .cls-37 {
        clip-path: url(#clippath-30);
      }

      .cls-38 {
        clip-path: url(#clippath-19);
      }

      .cls-39 {
        clip-path: url(#clippath-32);
      }

      .cls-15 {
        stroke-width: .25px;
      }

      .cls-40 {
        clip-path: url(#clippath-16);
      }

      .cls-41 {
        clip-path: url(#clippath-2);
      }

      .cls-42 {
        clip-path: url(#clippath-29);
      }

      .cls-43 {
        clip-path: url(#clippath-13);
      }

      .cls-44 {
        clip-path: url(#clippath-24);
      }

      .cls-45 {
        clip-path: url(#clippath);
      }

      .cls-46 {
        fill: #54565a;
      }
    </style>
    <clipPath id="clippath">
      <rect class="cls-13" y="0" width="162.81" height="99.21"/>
    </clipPath>
    <clipPath id="clippath-1">
      <rect class="cls-13" y="0" width="162.81" height="99.21"/>
    </clipPath>
    <clipPath id="clippath-2">
      <rect class="cls-13" y="0" width="162.81" height="99.21"/>
    </clipPath>
    <clipPath id="clippath-3">
      <rect class="cls-13" y="0" width="162.81" height="99.21"/>
    </clipPath>
    <clipPath id="clippath-4">
      <rect class="cls-13" y="0" width="162.81" height="99.21"/>
    </clipPath>
    <clipPath id="clippath-5">
      <rect class="cls-13" y="0" width="162.81" height="99.21"/>
    </clipPath>
    <clipPath id="clippath-6">
      <rect class="cls-13" y="0" width="162.81" height="99.21"/>
    </clipPath>
    <clipPath id="clippath-7">
      <rect class="cls-13" y="0" width="162.81" height="99.21"/>
    </clipPath>
    <clipPath id="clippath-8">
      <rect class="cls-13" y="0" width="162.81" height="99.21"/>
    </clipPath>
    <clipPath id="clippath-9">
      <rect class="cls-13" y="0" width="162.81" height="99.21"/>
    </clipPath>
    <clipPath id="clippath-10">
      <rect class="cls-13" y="0" width="162.81" height="99.21"/>
    </clipPath>
    <clipPath id="clippath-11">
      <rect class="cls-13" y="0" width="162.81" height="99.21"/>
    </clipPath>
    <clipPath id="clippath-12">
      <rect class="cls-13" y="0" width="162.81" height="99.21"/>
    </clipPath>
    <clipPath id="clippath-13">
      <rect class="cls-13" y="0" width="162.81" height="99.21"/>
    </clipPath>
    <clipPath id="clippath-14">
      <rect class="cls-13" y="0" width="162.81" height="99.21"/>
    </clipPath>
    <clipPath id="clippath-15">
      <rect class="cls-13" y="0" width="162.81" height="99.21"/>
    </clipPath>
    <clipPath id="clippath-16">
      <rect class="cls-13" y="0" width="162.81" height="99.21"/>
    </clipPath>
    <clipPath id="clippath-17">
      <rect class="cls-13" y="0" width="162.81" height="99.21"/>
    </clipPath>
    <clipPath id="clippath-18">
      <rect class="cls-13" y="0" width="162.81" height="99.21"/>
    </clipPath>
    <clipPath id="clippath-19">
      <rect class="cls-13" y="0" width="162.81" height="99.21"/>
    </clipPath>
    <clipPath id="clippath-20">
      <rect class="cls-13" y="0" width="162.81" height="99.21"/>
    </clipPath>
    <clipPath id="clippath-21">
      <rect class="cls-13" y="0" width="162.81" height="99.21"/>
    </clipPath>
    <clipPath id="clippath-22">
      <rect class="cls-13" y="0" width="162.81" height="99.21"/>
    </clipPath>
    <clipPath id="clippath-23">
      <rect class="cls-13" y="0" width="162.81" height="99.21"/>
    </clipPath>
    <clipPath id="clippath-24">
      <rect class="cls-13" y="0" width="162.81" height="99.21"/>
    </clipPath>
    <clipPath id="clippath-25">
      <rect class="cls-13" y="0" width="162.81" height="99.21"/>
    </clipPath>
    <clipPath id="clippath-26">
      <rect class="cls-13" y="0" width="162.81" height="99.21"/>
    </clipPath>
    <clipPath id="clippath-27">
      <rect class="cls-13" y="0" width="162.81" height="99.21"/>
    </clipPath>
    <clipPath id="clippath-28">
      <rect class="cls-13" y="0" width="162.81" height="99.21"/>
    </clipPath>
    <clipPath id="clippath-29">
      <rect class="cls-13" y="0" width="162.81" height="99.21"/>
    </clipPath>
    <clipPath id="clippath-30">
      <rect class="cls-13" y="0" width="162.81" height="99.21"/>
    </clipPath>
    <clipPath id="clippath-31">
      <rect class="cls-13" y="0" width="162.81" height="99.21"/>
    </clipPath>
    <clipPath id="clippath-32">
      <rect class="cls-13" y="0" width="162.81" height="99.21"/>
    </clipPath>
    <clipPath id="clippath-33">
      <rect class="cls-13" y="0" width="162.81" height="99.21"/>
    </clipPath>
    <clipPath id="clippath-34">
      <rect class="cls-13" y="0" width="162.81" height="99.21"/>
    </clipPath>
    <clipPath id="clippath-35">
      <rect class="cls-13" y="0" width="162.81" height="99.21"/>
    </clipPath>
    <clipPath id="clippath-36">
      <rect class="cls-13" y="0" width="162.81" height="99.21"/>
    </clipPath>
  </defs>
  <g id="_图层_1-2" data-name="图层 1">
    <g>
      <g class="cls-45">
        <path class="cls-12" d="M56.39,82.37c.29.95.45,1.96.45,3.01,0,5.65-4.58,10.24-10.24,10.24s-10.24-4.58-10.24-10.24c0-3.36,1.62-6.34,4.11-8.21"/>
        <path class="cls-12" d="M51.46,77.92c1.54.79,2.95,2.03,4.04,3.42l.03.03c.92,1.15,1.9,1.96,2.5,1.93.19.02.17-.09.17-.09-.6-3.23-2.52-5.99-5.17-7.72"/>
        <path class="cls-12" d="M43.05,81.1c.31-.26.66-.49,1.03-.68"/>
        <path class="cls-12" d="M43.05,81.1l-.03.03,2.83,2.44c.17.17.09.24.09.24l-.96,1.4"/>
        <path class="cls-12" d="M49.63,90.05c.86-.56,1.55-1.35,2-2.3"/>
        <path class="cls-12" d="M41.48,87.53l3-1.94c.2-.13.31-.1.34-.07l1.07,1.23c.11.15-.1.28-.1.28l-3.43,1.75.08.27c1.02,1.15,2.51,1.88,4.17,1.88.13,0,.25,0,.38-.01l.02-.12-.86-3.45c-.07-.26.03-.33.03-.33l1.5-.59c.21-.02.22.18.22.18l.67,3.89.03.06c.36-.14.71-.31,1.03-.52"/>
        <path class="cls-11" d="M44.99,85.17l.06-1.23-2.85-2.49-.21.04s-.24.24-.39.48c-.67.97-1.06,2.15-1.06,3.42,0,.84.2,1.71.51,2.44l.11.06,3.26-1.95c.07-.1.29-.38.29-.38"/>
        <path class="cls-12" d="M41.48,87.52c-.26-.64-.44-1.4-.44-2.14,0-1.12.33-2.16.9-3.03h.15s2.71,2.8,2.71,2.8c.12.11.2.1.19.01"/>
        <line class="cls-12" x1="51.69" y1="87.64" x2="51.63" y2="87.76"/>
        <path class="cls-12" d="M49.94,80.93c1.25.94,2.14,2.42,2.25,4.08"/>
        <path class="cls-11" d="M43.91,79.96c-.47.24-.91.53-1.3.88l-.02.13,2.87,2.66.43.08"/>
        <path class="cls-11" d="M43.38,88.26l-1.45.75-.07.1s-.02,0,.17.24c1.11,1.28,2.75,2.09,4.57,2.09.25,0,.49-.01.73-.04l.04-.09-.88-3.7.4-.12c.09-.02.87-.91.87-.91"/>
        <path class="cls-11" d="M50.19,80.5c1.43,1.05,2.38,2.72,2.46,4.62.04.41,0,.66,0,.66-.04.15-.2.14-.2.14l-3.75-.27c-.09,0-.07.1-.07.1l.03.42c0,.1.12.09.12.09l3.71.22.04.07c-.41,2.09-1.89,3.79-3.85,4.51-.16.08-.55.21-.55.21l-.14.02c-.11-.04-1.03-3.85-1.03-3.85"/>
        <path class="cls-12" d="M50.42,80.03c1.67,1.19,2.75,3.14,2.75,5.35,0,3.63-2.94,6.57-6.57,6.57s-6.57-2.94-6.57-6.57c0-2.57,1.48-4.8,3.63-5.88"/>
        <path class="cls-12" d="M50.58,79.65c1.81,1.26,2.99,3.36,2.99,5.73,0,3.85-3.12,6.98-6.97,6.98s-6.98-3.12-6.98-6.98c0-2.74,1.58-5.11,3.88-6.25"/>
        <path class="cls-12" d="M46.82,80.92c.68.03-1.83,0-1.83,0,0,0-.64.01-.8-.45-.36-.9-.8-1.96-1.81-2.42-.92-.42-1.42-.75-2.14-.97-.42-.09-1.29-.55-1.29-.55l-.03-.14c2.04-1.51,4.57-2.74,7.96-3.27,1.7-.27,2.82-.21,4.12-.06l.03.08s-1.09,2.26-1.19,2.46c-.11.21-.18.67-.19.75l-2,4.41s-.07.12-.23.15c-.16.03-.59,0-.59,0"/>
        <path class="cls-12" d="M51.4,78.01c2.41,1.58,4.02,4.28,4.02,7.37,0,4.87-3.95,8.82-8.82,8.82s-8.82-3.95-8.82-8.82c0-3.19,1.64-5.96,4.17-7.51"/>
        <path class="cls-12" d="M46.79,89.84h-.18c-1.33,0-2.52-.57-3.33-1.49"/>
        <path class="cls-12" d="M50.61,87.36c-.46.93-1.23,1.67-2.18,2.1"/>
        <path class="cls-12" d="M49.55,82.02c.56.49.98,1.09,1.24,1.8"/>
        <path class="cls-12" d="M43.88,81.84c.75-.58,1.7-.93,2.72-.93.28,0,.64.03.91.09"/>
        <path class="cls-12" d="M42.41,86.92c-.18-.48-.27-1-.27-1.54,0-.81.21-1.57.59-2.22"/>
        <path class="cls-12" d="M45.32,83.07c.38-.21.82-.33,1.28-.33"/>
        <path class="cls-12" d="M45.02,87.5c.28.21.61.37.97.46.1.01.25-.15.23-.26"/>
        <path class="cls-12" d="M49.02,86.47c-.15.33-.33.6-.6.84-.06.05-.37-.01-.44-.3"/>
        <path class="cls-11" d="M41.39,76.9c1.4-.95,3.33-1.58,5.56-1.93.75-.12,1.81-.18,2.37-.16"/>
        <path class="cls-11" d="M57.13,82.61c-.67-2.53-1.89-4.53-4.12-6.09"/>
        <path class="cls-12" d="M50.82,73.63s.2.22.29.47"/>
        <path class="cls-12" d="M50.54,74.17s.18.12.22.27"/>
        <path class="cls-12" d="M49.8,76.97c-.08-.09-.33-.17-.33-.17l-.05.07.33.17.05-.08Z"/>
      </g>
      <polyline class="cls-12" points="48.94 77.91 49.61 78.22 48.05 81.11 47.6 80.83"/>
      <polyline class="cls-11" points="44.44 85.93 44.75 86.38 45.91 86.83"/>
      <g class="cls-27">
        <path class="cls-11" d="M44.75,86.38l-3.17,1.92c-.21.08-.08.27-.08.27l.33.52"/>
      </g>
      <line class="cls-11" x1="46.5" y1="87.6" x2="46.21" y2="87.2"/>
      <g class="cls-41">
        <path class="cls-11" d="M48.63,85.66l-.47-.74c-.09-.2.01-.31.01-.31"/>
        <path class="cls-12" d="M47.19,85.35c0,.31-.25.56-.56.56s-.56-.25-.56-.56.25-.56.56-.56.56.25.56.56Z"/>
        <path class="cls-11" d="M46.98,85.35c0,.2-.16.36-.36.36s-.36-.16-.36-.36.16-.36.36-.36.36.16.36.36Z"/>
        <path class="cls-11" d="M48.11,77.64c0,.29-.24.53-.53.53s-.53-.24-.53-.53.24-.52.53-.52.53.24.53.52Z"/>
        <path class="cls-12" d="M47.94,77.64c0,.2-.16.36-.36.36s-.36-.16-.36-.36.16-.36.36-.36.36.16.36.36Z"/>
        <path class="cls-11" d="M46.97,79.75c0,.29-.24.53-.53.53s-.53-.24-.53-.53.24-.52.53-.52.53.24.53.52Z"/>
        <path class="cls-12" d="M46.8,79.75c0,.2-.16.36-.36.36s-.36-.16-.36-.36.16-.36.36-.36.36.16.36.36Z"/>
        <path class="cls-12" d="M49.92,83.73c0,.11-.09.19-.19.19s-.19-.09-.19-.19.09-.19.19-.19.19.09.19.19Z"/>
        <path class="cls-12" d="M45.83,83.5c.17-.07.35-.12.54-.15"/>
        <path class="cls-12" d="M44.61,85.46v-.11c0-.11,0-.22.02-.33"/>
        <path class="cls-12" d="M46.09,87.29c-.15-.04-.29-.1-.43-.17"/>
        <path class="cls-12" d="M48.3,86.46c-.09.14-.2.26-.32.37"/>
        <path class="cls-11" d="M49.01,88.32c.12-.29.13-.56.01-.61-.12-.04-.31.16-.44.45-.12.29-.13.56-.01.61s.31-.16.44-.45Z"/>
        <path class="cls-11" d="M49.71,86.63c-.04.11-.07.25-.07.41,0,.32.1.57.22.56.12,0,.23-.27.23-.58v-.02"/>
        <path class="cls-11" d="M43.2,83.55l-.02.2c0,.32.1.57.22.56.09,0,.17-.14.21-.34"/>
        <path class="cls-11" d="M43.73,88.13c.07.1.28.19.52.22.32.04.58-.03.59-.15.01-.12-.24-.26-.55-.3h-.11"/>
        <path class="cls-11" d="M45.8,89.09c.3-.09.52-.26.47-.38s-.32-.14-.62-.05c-.3.09-.52.26-.47.38.04.12.32.14.62.05Z"/>
        <path class="cls-11" d="M46.03,81.98c.25-.2.38-.44.3-.53s-.35,0-.6.19c-.25.2-.38.44-.3.53.08.09.35,0,.6-.19Z"/>
        <path class="cls-11" d="M42.79,85.37c.16.27.38.44.48.37.1-.07.06-.35-.1-.62-.16-.27-.38-.44-.48-.37-.1.07-.06.35.1.62Z"/>
        <path class="cls-11" d="M44.68,82.52c.07-.29.04-.55-.07-.57-.08-.02-.19.08-.28.25"/>
        <polyline class="cls-11" points="45.05 84.08 45.07 83.95 45.44 83.62"/>
        <path class="cls-12" d="M49.64,84.69l1.69-1.25c.24-.14.45-.02.54.08"/>
        <path class="cls-12" d="M51.41,84.93s0-.21-.03-.38c-.04-.18-.45-.56-.53-.55l-.6.76"/>
        <path class="cls-11" d="M51.69,84.99s.15-.4.42-.59"/>
        <path class="cls-12" d="M49.97,86.53l.57.57h.15s.42-.41.45-.54"/>
        <path class="cls-12" d="M49.6,86.51l1.45,1.2c.17.14.56.06.64-.07.21-.33.25-.6.33-1,0-.1-.08-.09-.08-.09l-3.73-.13c-.16-.04-.12-.25-.12-.25l-.09-1.25c-.03-.19.14-.41.45-.39.3.02,3.74.52,3.74.52v-.05"/>
        <path class="cls-12" d="M44.09,84.44s-.04.58.1.78c.14.21.39.16.39.16"/>
        <path class="cls-12" d="M44.47,80.8l2.38-3.66c.34-.45.74-.57,1.11-.66.37-.1,1.67-.2,1.67-.2"/>
        <path class="cls-11" d="M44.33,79.81l2.25-3.47c.34-.45.74-.57,1.11-.66.37-.1,1.67-.2,1.67-.2"/>
        <path class="cls-12" d="M53.76,74.17v.1c-.09.12-.38.16-.45.24l.09.51-.5.15.13.47-.39.62-.29.63s-.02.1-.16.16c-.28.1-.7.78-.7.78,0,0-2.05,3.94-2.47,5.18l-.77,1.52s-.15.1-.21.23c-.06.12-.06.29-.06.29l-.69,1.36c-.12.22-.42.32-.68.21l-1.16-.66c-.15-.14-.14-.46-.05-.65.09-.19,1.7-3.22,1.7-3.22.14-.21.7-1,.72-1.06"/>
        <path class="cls-12" d="M54.09,73.28s.02.19-.02.29c-.05.1-.36.12-.42.2-.06.08.08.27.11.4"/>
        <path class="cls-12" d="M49.29,78.07l.72-1.51c.06-.22.07-.53.08-.67.01-.14.37-.8.37-.8-.02-.1,0-.2,0-.2l.21-.39c.05-.09.4-.11.46-.22.04-.09-.15-.31-.1-.48.05-.16.45-.1.49-.21.03-.1-.16-.3-.1-.51.06-.21.38-.1.44-.23.06-.13-.16-.31-.09-.45.07-.14.44-.16.5-.23.06-.07-.22-.34-.14-.5.08-.16.44-.16.49-.24.05-.08-.16-.32-.12-.44.05-.12.16-.1.16-.1"/>
        <path class="cls-11" d="M51.26,77.73c-.92,1.82-4.12,8.13-4.18,8.25-.1.19-.23.28-.53.17,0,0-.43-.18-.68-.37,0,0-.14-.11-.06-.36l.44-.9,3.91-7.35"/>
      </g>
      <line class="cls-12" x1="46.83" y1="82.52" x2="47.64" y2="80.88"/>
      <g class="cls-33">
        <path class="cls-12" d="M53.73,74.12l.03.07c-.05.09-.6-.1-1.24-.42-.64-.32-1.12-.66-1.07-.75h.01"/>
        <path class="cls-12" d="M53,75.58l.04.05c-.03.05-.56-.17-1.2-.49s-1.13-.63-1.11-.68h.01"/>
        <path class="cls-12" d="M52.72,76.18c-.03.05-.55-.18-1.18-.51-.62-.34-1.11-.65-1.08-.7h.01"/>
        <path class="cls-12" d="M52.26,77.01c-.03.05-.53-.17-1.12-.49-.59-.32-1.05-.62-1.03-.67h.01"/>
        <path class="cls-12" d="M53.37,74.45c-.23-.07-.58-.21-.95-.4-.37-.19-.69-.38-.88-.53"/>
        <path class="cls-12" d="M54.07,73.41l.03.07c-.04.09-.58-.1-1.21-.41-.62-.32-1.09-.64-1.05-.73h.01"/>
        <path class="cls-12" d="M53.69,73.73c-.23-.07-.57-.21-.94-.4-.37-.19-.68-.38-.87-.52"/>
        <path class="cls-12" d="M53.6,72.52c-.11-.05-.23-.11-.35-.17-.62-.32-1.09-.64-1.04-.73h.01"/>
        <path class="cls-12" d="M53.74,72.89c-.18-.07-.4-.17-.62-.28-.37-.19-.68-.38-.87-.52"/>
        <path class="cls-12" d="M52.86,71.24c-.2-.14-.32-.25-.29-.29h.01"/>
        <path class="cls-12" d="M53.16,71.76c-.23-.13-.42-.25-.55-.35"/>
        <path class="cls-12" d="M52.96,75.11c-.23-.07-.58-.21-.95-.4-.37-.19-.69-.38-.88-.53"/>
        <path class="cls-12" d="M53.42,74.91c-.05.09-.6-.1-1.24-.43-.64-.33-1.12-.66-1.07-.75"/>
      </g>
      <line class="cls-12" x1="54.78" y1="76.88" x2="55.6" y2="75.85"/>
      <line class="cls-12" x1="55.87" y1="76.28" x2="55.15" y2="77.19"/>
      <g class="cls-10">
        <path class="cls-11" d="M51.37,83.48c.18.44.3.91.34,1.41"/>
        <path class="cls-11" d="M51.54,86.59c-.11.38-.27.73-.46,1.07"/>
      </g>
      <line class="cls-11" x1="50.27" y1="86.54" x2="50.63" y2="87.1"/>
      <g class="cls-28">
        <path class="cls-12" d="M100.55,86.13c-.04-.37-.06-.8-.07-1.17"/>
        <path class="cls-12" d="M100.82,87.46v.14c1.25,4.78,5.59,8.31,10.76,8.31,6.13,0,11.1-4.97,11.1-11.1,0-4.29-2.58-7.76-6.01-9.86-.19-.12-1.8-.82-1.8-.82,0,0,4.85,2.14,5.04,2.3.19.16,4.17,6.47,4.17,6.47.76,1.06,2.34,1.63,2.62,1.7.28.07.78.07.78.07l-.02-.51c0-.11-.5-.11-1.51-1.03-.11-.07-.25-.22-.25-.22,0-.04.21.05.21-.05s-.03-1.28-.03-1.28c-.01-.19-.22-.26-.22-.26l-.39-.19-.16-.39.6-.39.25.69.14-.09-2.15-5.65.21-.06-.16-.4-.22.05-.12-.28-.28.04-.55.18"/>
        <path class="cls-12" d="M101.68,86.52c-.06-.37-.09-.71-.11-1.1"/>
        <path class="cls-12" d="M112.91,74.84c4.93.65,8.73,4.86,8.73,9.97,0,5.55-4.5,10.05-10.05,10.05-4.53,0-8.37-3-9.62-7.12"/>
        <path class="cls-12" d="M102.75,79.61c.41-.68.91-1.31,1.49-1.9.24-.24.49-.47.75-.68"/>
        <line class="cls-12" x1="103.48" y1="86.09" x2="103.44" y2="85.83"/>
        <path class="cls-12" d="M112.34,76.63c4.18.38,7.46,3.9,7.46,8.18,0,4.53-3.68,8.21-8.21,8.21-3.32,0-6.18-1.97-7.47-4.8"/>
        <path class="cls-12" d="M112.26,76.63c4.22.34,7.54,3.88,7.54,8.18,0,4.53-3.68,8.21-8.21,8.21-3.31,0-6.17-1.96-7.47-4.79"/>
        <path class="cls-12" d="M105.53,79.27c.97-1.06,2.21-1.86,3.61-2.3"/>
        <path class="cls-11" d="M105.98,79.76c.9-1,2.07-1.76,3.39-2.16"/>
        <path class="cls-11" d="M112.53,77.32c3.72.46,6.6,3.64,6.6,7.49,0,4.17-3.38,7.55-7.55,7.55-2.79,0-5.27-1.61-6.58-3.85"/>
        <path class="cls-11" d="M112.68,77.87c3.31.55,5.83,3.42,5.83,6.89,0,3.86-3.12,6.98-6.98,6.98-1.68,0-3.23-.6-4.43-1.59"/>
        <path class="cls-11" d="M106.6,79.82c.8-.8,1.79-1.4,2.9-1.74"/>
        <path class="cls-12" d="M105.8,87.27c-.07-.16-.11-.28-.17-.45"/>
        <path class="cls-12" d="M112.85,78.64c2.81.61,4.91,3.11,4.91,6.1,0,3.45-2.79,6.24-6.24,6.24-1.5,0-2.88-.53-3.96-1.41"/>
        <path class="cls-12" d="M123.57,76.1c0,.81-.66,1.47-1.47,1.47s-1.46-.66-1.46-1.47.66-1.46,1.46-1.46,1.47.66,1.47,1.46Z"/>
        <path class="cls-12" d="M97.47,86.16c0,.24-.2.44-.44.44s-.44-.2-.44-.44.2-.44.44-.44.44.2.44.44Z"/>
        <path class="cls-11" d="M97.27,86.15c0,.13-.11.24-.24.24s-.24-.11-.24-.24.11-.24.24-.24.24.11.24.24Z"/>
        <path class="cls-11" d="M123.4,76.1c0,.72-.58,1.3-1.3,1.3s-1.3-.58-1.3-1.3.58-1.3,1.3-1.3,1.3.58,1.3,1.3Z"/>
        <path class="cls-11" d="M106.74,89.78c0,.09-.07.17-.17.17s-.17-.07-.17-.17.07-.16.17-.16.17.07.17.16Z"/>
        <path class="cls-11" d="M107.97,88.47c-.05.37-.14.66-.2.65s-.07-.31-.02-.68c.05-.37.14-.66.2-.65s.07.31.02.68Z"/>
        <path class="cls-12" d="M104.63,79.97c-.1.17-.13.36-.2.44l-.23-.05c-.09-.08-.09-.39.17-.87l.04-.18.09-.03.07-.09.05-.15.13-.05.07-.08.08-.16.15-.04.09-.06.1-.13h.18c.19-.1.34-.14.4-.14.11,0,.18.08.12.22-.1.24-.36.4-.47.48"/>
        <path class="cls-12" d="M104.63,80.07s-.02-.2,0-.32c.03-.12.36-.67.58-.8.23-.13.27-.06.25-.01"/>
        <path class="cls-12" d="M105.48,78.94l.11,8.47s-.01.25-.11.42c-.34.64-.99.41-1.13.22-.08-.12.04-.32.04-.32.06-.1.25.01.31-.3.06-.31-.07-7.37-.07-7.37"/>
        <path class="cls-12" d="M104.71,84.63l-.58-.03c-.15-.01-.16.13-.16.13,0,0-.31,1.45-1.04,2.11-.1.1-.09.4.01.46.1.06,1.24.44,1.5.37"/>
        <path class="cls-12" d="M107.8,89.13l-.73.97c-.24.26-.7.27-.81.06-.11-.21-.64-1.53-.64-1.53l-.66-.16-.06-.19.05.2,2.85.65"/>
      </g>
      <line class="cls-12" x1="105.6" y1="87.24" x2="107.95" y2="87.79"/>
      <g class="cls-3">
        <path class="cls-12" d="M100.31,86.18l-.66-.31v-.99s-.05-.03-.05-.03l-.04-.62s.4.62.91.7"/>
      </g>
      <line class="cls-12" x1="102.93" y1="86.84" x2="101.15" y2="86.41"/>
      <g class="cls-4">
        <path class="cls-12" d="M105.57,79.93l8.87.74c1.04.06,1.63.71,1.65,1.67.02.96-.02,2.51-.29,3.17-.27.67-.92,1.23-2.17,1.17-.8-.04-5.04-.44-8-.72"/>
        <path class="cls-12" d="M103.61,85.77c-.58-.06-.93-.09-.93-.09-1.04-.1-2.54-.9-2.71-1.13-.2-.3-.36-.94-.36-.94-.04-.52.49-1.04.49-1.04l2.63-2.8c.1-.1.26-.06.26-.06l1.13.09"/>
        <path class="cls-11" d="M103.89,84.92c-.16-.01-.34-.04-.34-.04-.87-.07-3.79-1.13-3.93-1.28"/>
        <path class="cls-11" d="M105.52,80.78l8.38.8c.87.04,1.16.41,1.17,1.06.02.65-.06,1.67-.24,2.14-.18.46-.37.94-1.61.86-.71-.04-4.99-.38-7.61-.6"/>
        <path class="cls-12" d="M105.57,81.3l8.16.67c.65.03.87.31.89.8.01.49-.12,1.24-.18,1.62-.05.26-.09.69-1.02.63-.54-.03-5.85-.48-7.82-.64"/>
        <polyline class="cls-11" points="102.07 80.51 102.29 80.47 104.65 80.7"/>
        <path class="cls-12" d="M104.63,84.3s-1.39-.16-2.12-.32c-.92-.19-2.73-.97-2.73-.97"/>
        <path class="cls-12" d="M101.73,80.84s.6.16,2.94.34"/>
        <path class="cls-12" d="M109.66,79.35s-.12.02-.21.14c-.09.12-.27.57-.43.57s-1.54-.08-1.54-.08c.63-.54,1.37-.95,2.18-1.2"/>
        <path class="cls-12" d="M113.17,79.5s.15.06.13.19c-.01.13-.01.82.71.96"/>
        <path class="cls-12" d="M109.93,79.3c.02.1.72.04,1.56-.15.53-.11.99-.25,1.25-.36"/>
        <path class="cls-11" d="M122.8,77.5s2.06,4.97,2.96,5.83c.76.73,1.47.8,1.47.8"/>
        <polygon class="cls-12" points="123.54 76.51 124.82 79.92 125.54 79.91 124.15 76.22 124.01 76.24 123.91 76.28 123.54 76.51"/>
      </g>
      <line class="cls-12" x1="123.44" y1="74.68" x2="123.94" y2="76.18"/>
      <g class="cls-30">
        <path class="cls-12" d="M125.28,81.16l-.19.11c.02.09.41,1.4.63,1.61"/>
        <polyline class="cls-11" points="125.21 81.47 125.74 81.54 125.78 81.61 125.86 82.88"/>
      </g>
      <line class="cls-11" x1="118.78" y1="73" x2="121.1" y2="74.81"/>
      <g class="cls-18">
        <path class="cls-12" d="M120.61,72.25s.34.29.89.38c.43.07,3.32.52,3.32.52.15.04.2.18.2.18l.3.55c.04.13-.13.13-.13.13l-2.39.31c-.2.11,0,.45,0,.45l-.36-.12-1.88-2.42.06.02Z"/>
      </g>
      <line class="cls-11" x1="124.87" y1="80.04" x2="125.1" y2="80.63"/>
      <g class="cls-19">
        <path class="cls-12" d="M112.21,77.3h.19s.03,0,.03,0l.1.05c.02.1-.64.33-1.48.52-.84.18-1.56.27-1.55.16.01-.16.16.61.16.61l.28.67c-.17,0-.28.02-.28.04,0,.05.78.12,1.75.16.97.04,1.76.04,1.76-.01,0-.02-.12-.04-.32-.07-.02-.1,0-.22,0-.22l-.23-1.42-.09-.43"/>
        <path class="cls-12" d="M101.81,87.1c.12,0,2.11.51,2.11.51"/>
        <path class="cls-12" d="M102.87,87.22s-.91-.26-1.06-.27"/>
      </g>
      <line class="cls-12" x1="100.69" y1="86.98" x2="100.55" y2="87.54"/>
      <g class="cls-23">
        <path class="cls-11" d="M67.86,49.79c.02.2-.01.33-.08.29-.05-.03-1.57-.8-3.43-1.9-1.86-1.1-3.35-2.04-3.32-2.09.02-.03-.02-.09.67.01"/>
        <path class="cls-12" d="M61.04,46.09s-3.75,3.8-7.36,8.86c-1.22,1.65-2.41,3.36-2.41,3.43l.07.1,3.67.1c.23.01.18.22.15.33-.04.11-.2.74-.2.74-.17.39-.48.39-.48.39-.37.09-.99.31-.99.31-.26.16-.41.26-.52.65-.11.39-.72,3.17-.72,3.17-.13.58-.85.8-1.22.85-.37.05-1.7-.04-1.7-.04-.11.05-.11.2-.11.2l-.02,1.14c-.01.4.18.76.25.81-.27,0-.21.38-.11.43.1.05.66.07.93.26.64.44,2.35,3.06,2.35,3.06l9.68,16.09c.45.9.56.93.69.93s30.38-.32,30.38-.32c.58,0,1.65-1.25,1.83-1.7.19-.45.58-1.38,1.22-1.46.64-.08.98.05,1.27-.03.29-.08.4-.85.4-.85,0,0,.64.03.85-.19.21-.21,4.28-4.49,4.49-4.78.21-.29.77-1.49.77-1.49,0,0,3.11-.26,6-1.49,1.94-.77,10.15-3.37,10.15-3.37.59-.13.61-.32.69-.45.08-.13.08-1.22.08-1.22-.21-.32-.4-.69-.45-1.04-.05-.35-.24-1.22-.24-1.22l.11-.08-1.06-3.85-.74-3.03c-.05-.35-.29-.35-.29-.35l-2.04-.48s-1.04-.22-1.31-.19c-.13,0,0-.31,0-.31.16,0,.68-.02.74-.16.06-.13-.01-.7-.01-.7"/>
        <path class="cls-12" d="M51.2,58.64s3.51.06,3.69.07c0,0,.1.02.1.16,0,0-.1.37-.23.71-.14.34-.63.32-.81.34-.18.02-.85.09-1.14.76,0,0-.61,2.54-.74,3.08-.12.54-.31,1.03-.99,1.03h-1.64s-.09.02-.09-.09c0,0,.32-1.73.45-2.42.49-2.49,1.25-3.59,1.25-3.59-.03.04.05-.07.15-.07Z"/>
        <path class="cls-12" d="M115.25,57.36s-.56-1.59-1.2-1.6c-.64-.01-6,.36-11.56,1.15-1.26.41-2.91,1.1-5.98,1.36s-9.6-.02-11.6-.4c-1.24-.05-1.89.68-2.17,1.84-.92,3.32-.42,5.07-.29,5.31.11.1.41-.02.41-.02.18-.07.75-.33.85-.29.1.04-.3,1.15-.17,1.21.13.06.38.28.12.33-.25.05-.3.04-.29.19.01.16.34,2.02.34,2.02-.16-.02-.36-.06-.34.06.02.12.17.13.17.23s.05.13.12.07l.14.04,1.02,6.34c.15.81-.29,2.11-1.84,2.2-1.55.1-15.72,1.33-15.72,1.33-1.03.02-1.13-.45-1.17-1.38-.05-.93-1.09-5.98-1.09-5.98-.08-.22-.27-.33-.27-.33l-1.48-6.65c-.07-.71.07-1.89.07-1.89v-.19s1.67-4.47,1.67-4.47h-.17s.45-1.17.45-1.17c.07-.11.24-.12.24-.12.18-.05.28,0,.39-.12.11-.12.98-2.57.98-2.57.07-.22-.04-.33-.17-.32.02-.17.07-.33-.1-.39-.1-.04-.01-.23-.01-.23,0,0,.54-1.54.64-1.79.1-.25.32-.56.41-.66.08-.1.18-.39.18-.39"/>
        <path class="cls-12" d="M115.05,60.12s.62.06.88-.07c.26-.14.8-.44.72-.98"/>
        <path class="cls-12" d="M116.44,60.53s.93-.65,1.37-1.29c.44-.64.87-5.49.87-5.49"/>
      </g>
      <line class="cls-12" x1="117.85" y1="53.79" x2="117.25" y2="57.17"/>
      <g class="cls-35">
        <path class="cls-12" d="M117.54,53.74h1.35c.26-.02.3-.25.3-.25l.57-6.3c0-.19-.02-.15-.14-.23h-.28s-.68-.45-1.48-.16c-.8.28-1.51,1.17-1.8,3.42-.24,1.93.32,3.4,1.49,3.52Z"/>
        <path class="cls-12" d="M118.88,53.74s.3-.14.02-.21c-.28-.07-1.33,0-1.91-.65-.68-1.06-.54-3.99.39-4.95.73-.75,1.4-.84,2.34-.86"/>
        <path class="cls-12" d="M104.48,61.48v-.21s.08,0,.08,0c0,0,.02,1.02.34,1.02s2.83-.14,2.91-.32c.1-.15-.02-1.04-.02-1.04h-.12s.03.88.03.88"/>
        <path class="cls-12" d="M107.79,61.82s-.36.16-.36-.03c0-.29-.13-1.43.92-1.69,1.06-.26,9.36-1.18,9.36-1.18.2-.03.24-.26.24-.26,0,0,.2-1.27.15-1.46-.03-.11-.32-.08-.32-.08,0,0-5.01.57-8.31.89-1.77.15-3.96.03-4.23,1.7-.28,1.3-.42,2.17-.29,2.5"/>
      </g>
      <line class="cls-12" x1="107.84" y1="61.17" x2="115.01" y2="60.32"/>
      <g class="cls-43">
        <path class="cls-11" d="M104.48,61.49s-11.28,1.26-14.12,1.94c-2.84.68-4.41,1.12-5.13,1.52-.68.26-.37,1.46-.37,1.46l1.07,8.55c.15,1.62-.81,2.09-2.22,2.32"/>
        <path class="cls-12" d="M83.71,64.71s6.88-1.75,9.86-1.85"/>
      </g>
      <line class="cls-12" x1="84.15" y1="64.61" x2="84.15" y2="65.06"/>
      <g class="cls-36">
        <path class="cls-11" d="M93.29,62.91s-4.01.33-9.34,2.29c-.21.13-.2.87-.2.87"/>
        <path class="cls-12" d="M83.86,65.29s1.51-.13,3.44-.53c1.48-.23,1.93-.43,1.93-.43.18-.08.15.25.15.25l2.16,11.73c.43.78.83,1.26,1.31,1.26s3.17-.05,3.17-.05"/>
        <path class="cls-12" d="M89.48,64.99s0-.45.25-.53c.25-.08,3.42-.55,3.42-.55.4-.05.53.1.55.33.03.23,2.44,13.31,2.44,13.31,0,0,7.22-.39,8.07-.45"/>
        <path class="cls-12" d="M85.36,64.89s14.22-2.16,23.18-2.86c8.97-.7,9.92-.7,10.05-.93"/>
        <path class="cls-11" d="M113.97,61.9s.35.7.85.8c.5.1,2.24.38,2.24.38.53.08.58.68.58.68l1.76,6.76c.23.83-.4,1.36-.85,1.53-.45.18-11.55,3.72-11.55,3.72-1.23.48-2.49.5-2.49.5,0,0-8.44.5-8.54.28"/>
        <path class="cls-12" d="M93.6,63.96s18.91-2.06,21.02-2.13c1.51-.12,3.21-.28,3.34-.18.13.1,2.24,8.16,2.24,8.16.1.33-.05.43-.05.43l-.63.33"/>
        <path class="cls-12" d="M117.97,61.65l-.18.28c-.12.2-.02.48-.02.48l2.06,7.58c.07.28.4.1.4.1"/>
      </g>
      <line class="cls-12" x1="119.83" y1="70.11" x2="119.4" y2="70.51"/>
      <g class="cls-7">
        <path class="cls-12" d="M117.67,62.07s-10.12.18-23.91,2.29"/>
        <polygon class="cls-11" points="94.56 75.12 94.48 75.05 92.68 64.66 92.74 64.57 92.83 64.64 94.64 75.02 94.58 75.11 94.56 75.12"/>
        <polygon class="cls-11" points="93.48 75.32 93.4 75.26 91.59 64.87 91.66 64.78 91.75 64.84 93.56 75.23 93.49 75.32 93.48 75.32"/>
        <polygon class="cls-11" points="92.45 75.51 92.37 75.45 90.56 65.06 90.62 64.97 90.72 65.03 92.52 75.42 92.46 75.51 92.45 75.51"/>
        <path class="cls-12" d="M99.41,82.9s-.25.84.07,1.29l-1.48-.15"/>
        <path class="cls-12" d="M98.39,84.69l.06-.61s.07.12.59.16c.52.04.46-.02.46-.02"/>
        <path class="cls-12" d="M99.58,84.76c-.36.2-1.19-.06-1.19-.06l-.13.07v.47"/>
        <path class="cls-12" d="M99.65,84.87c-.77.14-1.39-.1-1.39-.1"/>
        <path class="cls-12" d="M98.1,85.24l.02-.92c.01-.16.17-.25.17-.25"/>
      </g>
      <polygon class="cls-12" points="95.62 86.24 96.02 86.25 96.14 86.38 95.95 87.32 95.44 87.32 95.62 86.24"/>
      <polygon class="cls-12" points="95.58 87.14 95.84 87.15 95.98 86.38 95.72 86.38 95.58 87.14"/>
      <line class="cls-12" x1="95.84" y1="87.15" x2="95.9" y2="87.3"/>
      <line class="cls-12" x1="95.56" y1="87.16" x2="95.46" y2="87.31"/>
      <line class="cls-12" x1="95.95" y1="86.39" x2="96.14" y2="86.38"/>
      <g class="cls-40">
        <path class="cls-12" d="M94.23,87.14s1.19.35,1.78.34c.59-.01,1.82-.31,1.82-.31.11-.07.42.04.51.02l.19-.09,2.05.46.02-.14,4.32.97"/>
        <path class="cls-12" d="M49.45,67.14s.73.05.96.24c.23.19,1.72,2.01,2.77,3.74,1.05,1.73,8.71,14.65,8.71,14.65.82,1.23,1.88,1.27,2.41,1.28.52.01,8.58-.42,8.58-.42,1.14-.06,1.19-.29,1.67-.64.47-.35.91-.73,1.86-.81.95-.08,3.04-.08,3.6-.26.56-.18,1.59-.53,2.01-.54.42-.01,16.08-.83,16.08-.83"/>
        <path class="cls-12" d="M73.65,86.5s.5-2.2,1.62-2.6c1.11-.4,4.32-.58,4.98-.61.66-.03,1.43,1.17,1.67,1.14"/>
      </g>
      <line class="cls-12" x1="75.24" y1="84.04" x2="75.74" y2="85.15"/>
      <line class="cls-12" x1="80.3" y1="83.4" x2="79.9" y2="84.75"/>
      <line class="cls-12" x1="73.33" y1="86.61" x2="73.3" y2="87.75"/>
      <line class="cls-12" x1="73.53" y1="86.61" x2="73.51" y2="87.75"/>
      <g class="cls-5">
        <path class="cls-12" d="M75.86,85.27l-.04,1.8c.06.08.21.1.3.04.1-.07,2.19.06,2.19.06,0,0,.05-.29.15-.35.1-.06.42,0,.5-.04l.1-.27,4.74.15s.04-.1.03,0c0,.11.04.22.13.21h1.53s.21.09.21.09h.65s.31-.31.31-.31l.31-.05s.25-.44.24-.89c0-.45-.29-.76-.29-.76,0,0,.12.15-.03,0-.15-.14-.12-.12-.3-.12-.18,0-.14,0-.27-.13-.13-.14-1.15-.46-1.15-.46-.35-.02-.49.32-.49.32l-.45.72-.28-.1c-.12-.07-.31.03-.31.03l-.1.21h-4.17s-.37,0-.44-.12c-.07-.12-.06-.21-.06-.21"/>
        <path class="cls-12" d="M75.82,87.04l.23-.15c.14-.07.32-.04.32-.04l.35.02c.15,0,.15-.35.15-.35l1.27.18v.23s.2.05.2.05"/>
        <path class="cls-12" d="M77.93,85.25l-.16.12c-.09,0-.16-.05-.16-.12s.07-.12.16-.12l.16.12Z"/>
        <path class="cls-12" d="M78.06,85.11l.05.14c0,.15-.16.26-.35.26s-.35-.12-.35-.26l.03-.1"/>
        <path class="cls-12" d="M78.26,85.08l.09.23c0,.24-.26.44-.58.44s-.58-.2-.58-.44l.05-.17"/>
        <path class="cls-12" d="M78.55,85.07c.09.11.14.24.14.37,0,.39-.42.7-.93.7s-.93-.31-.93-.7c0-.1.03-.19.07-.27"/>
      </g>
      <polyline class="cls-12" points="78.89 85.19 78.84 86.29 76.8 86.22 76.82 85.47"/>
      <g class="cls-9">
        <path class="cls-12" d="M83.68,85.55s0-.14.14-.05c.13.09.11.27.28.28.18.02.71.06.71.06"/>
        <path class="cls-12" d="M84.06,85.24s.02.17.18.2c.17.03.5,0,.5,0l.15-.47s.06-.2.3-.22c.24-.02.93.35.93.35.12.05.29.12.37.24.03.03.1.09,0,.59-.1.5-.19.57-.45.65"/>
        <path class="cls-12" d="M86.35,86.91s.07,0,.25-.3c.04-.07.09-.15.14-.24.29-.54.05-1.26.05-1.26,0,0,.29.26.23.75s-.16.65-.38.74"/>
      </g>
      <line class="cls-12" x1="84.95" y1="85.41" x2="84.89" y2="85.84"/>
      <line class="cls-12" x1="83.83" y1="85.56" x2="83.84" y2="86.65"/>
      <line class="cls-12" x1="84.01" y1="85.74" x2="84.01" y2="86.85"/>
      <g class="cls-38">
        <path class="cls-12" d="M84.92,85.84s.2.04.33-.02"/>
        <path class="cls-12" d="M84.93,85.5s.31,0,.41-.04"/>
        <path class="cls-12" d="M85.39,85.36l-.04.97c0,.08.41.2.61.1.2-.1.35-.65.35-.65l-.93.57"/>
        <path class="cls-12" d="M84.92,85.33s.87,0,.96-.08c.1-.08.1-.27-.18-.27h-.57l-.22.35Z"/>
        <path class="cls-12" d="M80.06,84.96l2.19.23c.32.04.3.16.3.16"/>
        <path class="cls-12" d="M82.5,86.65s.09.4-.09.39c-.19-.01-3.08-.47-3.08-.47"/>
        <path class="cls-12" d="M82.24,86.67s.12.32-.05.31"/>
        <path class="cls-12" d="M81.96,86.65s.09.3-.05.3"/>
        <path class="cls-12" d="M81.69,86.63s.13.31,0,.3"/>
        <line class="cls-12" x1="81.47" y1="86.58" x2="81.44" y2="86.88"/>
        <line class="cls-12" x1="81.21" y1="86.58" x2="81.18" y2="86.85"/>
        <line class="cls-12" x1="80.94" y1="86.57" x2="80.94" y2="86.81"/>
        <line class="cls-12" x1="80.75" y1="86.59" x2="80.73" y2="86.77"/>
        <line class="cls-12" x1="80.49" y1="86.55" x2="80.48" y2="86.74"/>
        <path class="cls-11" d="M105.55,62.23s.06-.17.35-.21c.28-.04.26.06.26.06.07.03.09-.11.51-.21.42-.1.37.07.46.07s.07-.1.28-.14"/>
        <path class="cls-12" d="M85.81,77.99v.57s.32-.11.77-.1c.46.01,4.71-.24,4.71-.24.26,0,.18-.14.18-.14l-.26-.64-.14-.08-.65.04c-.1,0-.14.12-.14.12,0,0,.06.21-.36.22-.41.01-3.88.19-3.88.19-.17,0-.23.04-.23.04Z"/>
      </g>
      <line class="cls-12" x1="86.2" y1="78.5" x2="86.2" y2="78.76"/>
      <line class="cls-12" x1="87.23" y1="78.47" x2="87.23" y2="78.72"/>
      <line class="cls-12" x1="86.32" y1="77.68" x2="86.32" y2="77.92"/>
      <line class="cls-12" x1="87.21" y1="77.66" x2="87.21" y2="77.82"/>
      <g class="cls-29">
        <path class="cls-12" d="M90.72,78.55l.02-.11,1.44-.09-.04-.78c0-.18-.14-.36-.72-.34-.58.02-5.61.47-5.61.47-.34.12-.29.32-.29.32l.04.81"/>
        <path class="cls-12" d="M91.21,77.45s.32-.06.59-.02c.28.04.25.31.25.31l.03.59"/>
        <path class="cls-12" d="M91.3,77.59s.33-.05.43.03c.1.08.07.58.07.58h-.32"/>
        <path class="cls-12" d="M83.23,77.39s8.31-.56,8.84-.27"/>
        <path class="cls-11" d="M63.7,47.8s.5.45.06,1.28c-.45.83-5.94,14.67-5.94,14.67-.28,2.23,1.71,5.64,1.71,5.64l4.84,9.07c.82,1.15,1.39.95,1.39.95l17.94-.95"/>
        <path class="cls-12" d="M84.14,77.5s.07,1.27-.74,1.31c-.8.03-.63.23-.63.23l9.16-.54c.48,0,.54.54.54.54"/>
        <path class="cls-12" d="M92.85,77.57s.29,2.33-.62,2.22l-.07-.45s.02-.29-.32-.27c0,0-4.95.32-6.09.36-1.14.04-1.36.59-1.36.59-.49.35-.63-.36-.35-.79"/>
        <path class="cls-12" d="M61,46.16s.5.47.86.76c.36.29,1.63,1.01,1.63,1.01.32.21.23.49.23.49-.13.43-.34.81-.34.81l-5.7,13.02c-.81,2.14-.18,4.14.36,5.43.54,1.29,5.8,11.06,5.8,11.06,1.03,1.5,2.83,1.09,4.06,1.08,1.23-.01,14.8-.86,14.8-.86"/>
        <path class="cls-11" d="M64.04,48.61s.86.5,1.26.95c.41.45.05,1.22.05,1.22l-6.94,16.01"/>
        <path class="cls-11" d="M62.74,57.85l2.94-6.75c.5-.94.86-.82,1.24-.78.38.04.63.14.63.14"/>
        <path class="cls-12" d="M64.92,57.87l-2.12-.1-1.39,3.55c-.19.69.17.88.42.92.25.04,1.47.11,1.47.11"/>
        <path class="cls-12" d="M62.99,57.81l-1.45,3.64c-.17.34.13.8.29.8"/>
        <path class="cls-11" d="M66.71,53.56s-.12.08-.19.23c-.07.16-.85,2.27-.85,2.27-.1.32-.08.46-.08.46"/>
        <path class="cls-11" d="M66.54,53.08s-1.11,2.9-1.17,3.06c-.08.24-.1.42-.04.48"/>
        <path class="cls-11" d="M66.91,53.75s-.09-.13-.17.05c-.07.19-.86,2.31-.86,2.31-.08.26.05.21.05.21"/>
        <path class="cls-12" d="M92.88,78.32l1.73-.08c.2,0,.17.13.17.13,0,0,.27,2.3.25,2.78-.02.48-.03.93-.65,1.3-.62.37-1.9,1.35-1.9,1.35"/>
        <path class="cls-12" d="M103.5,78.4l-6.54.37c-.25.04-.2.28-.2.28,0,.2.18.19.33.19s5.93-.27,5.93-.27"/>
        <path class="cls-12" d="M102.4,79.65l-5.17.29c-.33.03-.3.29-.3.29-.03.2.16.24.38.23.22-.02,4.51-.21,4.51-.21"/>
        <path class="cls-12" d="M86.8,84.82s-.03-.66.13-.56c.16.11.16.89.16.89"/>
        <path class="cls-12" d="M87.17,86.19s.13,1.39-.07,1.43c-.2.04-.16-.48-.19-.66-.03-.19-.03-.34-.03-.34"/>
        <path class="cls-11" d="M82.62,64.37s.12-.63,4.42-1.39c4.3-.76,8.93-1.39,11.19-2.54,2.26-1.15,3.37-2.8,5.64-3.06,2.26-.26,8.78-.82,9.44-1.01.61-.17.64-.36.64-.36"/>
        <path class="cls-11" d="M72.12,45.63c0,.21-.17.38-.38.38s-.38-.17-.38-.38.17-.38.38-.38.38.17.38.38Z"/>
        <path class="cls-11" d="M66.51,45.99c0,.22-.18.39-.39.39s-.39-.18-.39-.39.18-.39.39-.39.39.18.39.39Z"/>
        <path class="cls-11" d="M66.42,45.99c0,.16-.13.29-.29.29s-.29-.13-.29-.29.13-.29.29-.29.29.13.29.29Z"/>
        <rect class="cls-11" x="63.18" y="43.77" width=".16" height=".16" transform="translate(-12.48 57.57) rotate(-45)"/>
        <path class="cls-12" d="M72.53,45.56c.04.45-.3.84-.74.88-.45.04-.84-.3-.88-.74-.04-.45.3-.84.74-.88.45-.04.84.29.88.74Z"/>
        <path class="cls-12" d="M68.34,45.16c-.46-.22-.85-.71-.89-1.25-.07-.81.54-1.52,1.35-1.59.58-.05,1.02.22,1.39.67"/>
        <path class="cls-12" d="M67.65,42.03s-.18.05-.38.01c-.2-.04-.36-.11-.35-.15"/>
        <path class="cls-12" d="M67.13,41.85c-.12,0-.21,0-.22.04l-.5,1.53c-.01.07.22.17.52.23.2.04.38.05.48.03l.04-.09.09-.38.11-1.17s-.03-.06-.14-.1"/>
        <path class="cls-12" d="M65,41.91c-.04.21-.14.37-.22.35-.08-.01-.12-.2-.08-.41.04-.21.14-.37.22-.35.08.02.11.2.08.41Z"/>
        <path class="cls-12" d="M68.23,43.04c-.09.15-.22.24-.28.21-.06-.04-.03-.19.06-.34s.22-.24.28-.21c.06.04.03.19-.06.34Z"/>
        <path class="cls-12" d="M65.13,42c-.09.38-.29.66-.44.63-.15-.04-.2-.37-.11-.76.09-.38.29-.66.44-.62.15.04.2.37.11.75Z"/>
        <path class="cls-12" d="M71.21,44.36v-.34c0-.15-.05-.15-.05-.15h-.24"/>
        <path class="cls-12" d="M70.99,43.87c-.22-.61-.83-1.02-1.5-.97-.81.07-1.41.78-1.34,1.58.05.62.47.99.97,1.3.14.09.28.11.28.11l.79.03c.13,0,.1-.13.1-.13"/>
        <path class="cls-11" d="M69.97,45.58h-.09c-.61.06-1.15-.39-1.2-1.01-.05-.61.4-1.15,1.02-1.2.53-.04,1,.29,1.16.77"/>
        <path class="cls-11" d="M70.12,45.69l-.26.05c-.7.06-1.32-.46-1.38-1.17-.06-.7.46-1.32,1.17-1.38.66-.06,1.24.4,1.36,1.04"/>
        <path class="cls-12" d="M70.28,45.76l.92.61c.15.1.44.14.63.07.42-.15.78-.43.74-.88-.03-.3-.22-.55-.47-.67l-1.91-1.13c-.12-.06-.26-.08-.4-.07-.45.04-.78.43-.74.88.02.26.16.47.35.61l.88.58"/>
        <path class="cls-11" d="M71.71,46.48c-.48.04-.9-.32-.94-.8-.04-.48.32-.9.8-.94.18-.02.35.02.5.11"/>
        <path class="cls-12" d="M69.95,38.17c-1.02,1.21-2.01,2.5-2.09,2.71-.1.27-.22.71-.26.95-.02.12-.11.11-.22.11h-.04c-.13-.03-.24-.06-.21-.19,0-.04.16-.68.28-1.02.06-.28,1.35-1.88,2.18-2.87"/>
        <path class="cls-12" d="M64.81,40.72s.05-.08.24-.09c.19,0,2.16.62,2.16.62"/>
        <path class="cls-12" d="M65.75,41.23s.07-.03.19,0c.36.07,1.09.27,1.19.37"/>
        <path class="cls-12" d="M67.65,41.6s0,.22.24.2c.25-.02,1.11.28,1.56.61"/>
        <path class="cls-12" d="M61.68,46.11s.51.23,1.27.66l.16-.58"/>
        <path class="cls-11" d="M67.86,49.76s-1.39-.69-3.11-1.71c-1.72-1.02-3.1-1.89-3.07-1.93"/>
        <path class="cls-12" d="M69.2,45.85l-.2,1.55c-.03.35-.81.84-.81.84-.33.19-.51.03-.6.14-.09.12-.34.61-.34.61-.12.05-.56-.18-.56-.18v.15s1.17.78,1.17.78"/>
        <path class="cls-12" d="M67.65,48.35c-.52-.04-4.65-2.24-4.65-2.24-.11-.11,0-1.34.13-1.52.13-.19,1.43-1.35,1.43-1.35.12-.12.36-.12.36-.12l.08-.32h-.14v-.09s-.4-.2-.4-.2l-.06-.08.43-1.71.94.51-.38,1.7.22.09-.06.53h.99"/>
        <path class="cls-12" d="M63.02,46.77s1.31,1.06,3.67,2.05"/>
      </g>
      <line class="cls-12" x1="64.48" y1="43.27" x2="63.61" y2="42.97"/>
      <line class="cls-12" x1="64.32" y1="43.41" x2="63.57" y2="43.14"/>
      <g class="cls-2">
        <path class="cls-12" d="M64.76,40.91l-2.35,4.12c-.29.42-1.01.76-1.12.13,0,0-.1-.86-.08-1.17.02-.31.45-1.38.45-1.38,0,0,1.21-2.7,2.51-4.34.17-.16.32-.13.38-.08.06.05.49.38.54.96.06.67-.21,1.48-.21,1.48"/>
        <path class="cls-11" d="M61.3,45.16s.28.34.73-.14c.46-.48,2.73-4.81,2.73-4.81.32-.96-.19-1.98-.44-1.99"/>
      </g>
      <line class="cls-12" x1="62.53" y1="44.86" x2="62.97" y2="45.16"/>
      <g class="cls-16">
        <path class="cls-11" d="M64.91,43.11s.11-.25.22-.24c.11.01.1.18.1.18,0,0-.33.19-.18.42.15.23.29.29.32.51l.02.21v.58c.01.13.31.26.31.26l.6.24c.14.04.09.13.09.13l-.1.23"/>
        <path class="cls-11" d="M66.74,44.21c.28-.02.43.15.43.23l.09.98c0,.18-.23.38-.23.38l-.56.49c-.22.15-.29.11-.29.11"/>
        <path class="cls-11" d="M65.4,44.19s.52.25,1.1.08c.58-.18.58-.29.58-.29l.08.11v.27"/>
        <path class="cls-11" d="M65.39,44.03s.83.18,1.39-.13c.1-.01.31.08.31.08"/>
      </g>
      <line class="cls-12" x1="67.24" y1="44.83" x2="67.57" y2="44.84"/>
      <g class="cls-17">
        <path class="cls-12" d="M67.45,43.84s-.2,1.18.62,1.18"/>
      </g>
      <line class="cls-12" x1="67.18" y1="44.43" x2="67.44" y2="44.44"/>
      <polyline class="cls-12" points="67.16 44.03 67.21 43.83 67.31 43.94 67.29 44.41"/>
      <g class="cls-44">
        <path class="cls-12" d="M67.63,41.98s.35-.13.73-.05"/>
        <path class="cls-11" d="M65.85,41.18l-.65-.37c-.08-.09.51.07.89.18.26.08,1.08.35,1.08.35"/>
        <path class="cls-12" d="M68.29,42.69s.17-.03.31-.02c.22.02.42.06.42.06,0,0-.69.4-1.06,1.02-.14.23-.13-.56-.03-.7"/>
        <path class="cls-12" d="M67.9,43.78s-.14.91.15,1.19"/>
        <path class="cls-12" d="M68.99,42.75s.46-.19,1.01.02"/>
        <path class="cls-11" d="M64.87,43.17s-.23.66-.01.8c.22.14.51.25.51.25"/>
        <path class="cls-11" d="M64.77,43.98l.07,1.07c.01.29.73.99.89,1.13"/>
        <path class="cls-12" d="M70.08,34.98c.16.03,1.23.41,1.23.41.51.27.23,1.18.23,1.18-.29.99-.4,1.25-.86,1.22-.47-.03-1.06-.16-1.23-.26-.18-.1-.12-1.04-.08-1.26.07-.38.29-.93.29-.93.1-.25.26-.38.43-.36Z"/>
        <path class="cls-12" d="M69.94,35l1.22-.26c.4-.08.53-.03.69.05.15.08,1.33.74,1.33.74.37.27.25.85.22.97-.03.12-.44,1.67-.66,1.96-.22.29-.36.52-.84.52s-1.21-.21-1.21-.21c-.44-.11-.38-.88-1.17-1.21"/>
        <path class="cls-12" d="M69.16,38.28s-.3-.33-.38-.55c-.08-.22.16-1.75.16-1.75.08-.38.37-.47.37-.47l.3-.11"/>
        <path class="cls-12" d="M69.57,38.64s.78.81,1.11.94c.31.13.88.27,1.28,0,.4-.27.39-.7.39-.7"/>
        <path class="cls-11" d="M69.9,38.27s.2,1.21,1.34,1.34c.38,0,.84-.05.97-.65"/>
        <path class="cls-11" d="M71.38,34.7l1.49.85c.26.15.27.43.21.76-.06.33-.39,1.74-.62,2.06-.35.66-1.74.44-1.9.32"/>
        <path class="cls-11" d="M65.4,44.74s.45.36,1.24.25"/>
        <path class="cls-11" d="M65.42,44.28s.13.25.81.23c.15,0,.35-.1.56-.13.1-.03.09.04.09.04v.02c-.08.17-.39.91-.54,1.19"/>
        <path class="cls-12" d="M69.6,37.86s-.02.15.33.31"/>
        <line class="cls-12" x1="109.86" y1="75.76" x2="109.78" y2="75.79"/>
        <path class="cls-12" d="M111.63,75.2c-.28.07-.5.13-.65.17,0,0-.44.13-1.12.39"/>
        <path class="cls-12" d="M109.35,75.96c.15-.06.3-.12.43-.17"/>
        <path class="cls-12" d="M112.11,77.32c-.18-.01-.52,0-.76,0"/>
        <line class="cls-12" x1="112.19" y1="77.33" x2="112.11" y2="77.32"/>
        <path class="cls-12" d="M110.2,77.74c.12-.03.26-.05.39-.08"/>
        <path class="cls-12" d="M111.12,77.55c.2-.04.36-.07.44-.09.26-.05.5-.11.5-.11"/>
        <path class="cls-12" d="M111.12,77.55c-.16.03-.35.07-.53.11"/>
        <path class="cls-12" d="M109.81,77.61s.26-.07.73-.15"/>
        <path class="cls-12" d="M111.34,77.32c.36-.07.69-.13.79-.19.18-.09.17-.22-.03-.25-.14-.03-.64-.01-.92,0"/>
        <line class="cls-12" x1="111.08" y1="77.37" x2="111.34" y2="77.32"/>
        <path class="cls-12" d="M111.08,77.37c-.16.03-.32.06-.46.08h-.07"/>
        <path class="cls-12" d="M110.1,77.3c.12-.03.25-.05.38-.08"/>
        <path class="cls-12" d="M110.1,77.3c-.28.06-.52.12-.59.15-.21.08-.12.24.01.26.07.01.41.02.68.03"/>
        <path class="cls-12" d="M111.01,77.11c.22-.04.39-.08.48-.09.26-.05.5-.11.5-.11"/>
        <path class="cls-12" d="M111.01,77.11c-.16.03-.35.07-.53.11"/>
        <path class="cls-12" d="M111.2,76.89c.35-.06.66-.13.76-.18.18-.09.17-.21-.02-.25-.13-.02-.54-.01-.82,0"/>
        <path class="cls-12" d="M109.66,77.18s.27-.07.77-.16"/>
        <path class="cls-12" d="M110.97,76.93c-.18.03-.36.06-.51.09h-.02"/>
        <line class="cls-12" x1="110.97" y1="76.93" x2="111.2" y2="76.88"/>
        <path class="cls-12" d="M110.9,76.67c.19-.04.34-.07.42-.08.26-.05.49-.11.49-.11"/>
        <path class="cls-12" d="M109.92,76.87c-.27.06-.49.11-.56.14-.21.08-.11.24.01.26.08.01.46.02.74.03"/>
        <path class="cls-12" d="M109.92,76.87c.14-.03.3-.06.45-.09"/>
        <path class="cls-12" d="M110.9,76.67c-.16.03-.35.07-.53.11"/>
        <line class="cls-12" x1="110.86" y1="76.5" x2="111.12" y2="76.45"/>
        <path class="cls-12" d="M109.54,76.75s.27-.07.78-.16"/>
        <path class="cls-12" d="M111.12,76.45c.33-.06.63-.12.73-.17.18-.09.17-.21-.02-.25-.13-.02-.58-.01-.86,0"/>
        <path class="cls-12" d="M110.86,76.5c-.18.03-.37.06-.52.09h-.02"/>
        <path class="cls-12" d="M109.84,76.44c-.29.06-.52.12-.6.15-.21.08-.12.24.01.26.07.01.4.02.67.03"/>
        <path class="cls-12" d="M109.84,76.44c.13-.03.28-.06.42-.09"/>
        <path class="cls-12" d="M110.79,76.24c-.16.03-.35.07-.53.11"/>
        <path class="cls-12" d="M111.7,76.06s-.24.06-.5.11c-.07.01-.23.04-.41.08"/>
        <line class="cls-12" x1="111.01" y1="75.59" x2="110.8" y2="75.59"/>
        <line class="cls-12" x1="110.96" y1="76.03" x2="110.75" y2="76.07"/>
        <path class="cls-12" d="M110.21,76.16h.02c.15-.03.33-.06.51-.09"/>
        <path class="cls-12" d="M110.96,76.03c.35-.06.67-.13.78-.18.18-.09.17-.21-.02-.25-.11-.02-.44-.01-.71,0"/>
        <path class="cls-12" d="M110.21,76.16c-.5.09-.77.16-.77.16"/>
        <line class="cls-12" x1="109.86" y1="75.98" x2="109.83" y2="75.98"/>
        <path class="cls-12" d="M109.86,75.98c.45-.09.97-.2,1.19-.24"/>
        <path class="cls-12" d="M109.84,76.44c-.27,0-.62-.02-.69-.03-.13-.02-.22-.17-.01-.26.08-.03.37-.1.7-.17"/>
        <path class="cls-12" d="M111.6,75.62s-.24.06-.5.11h-.06"/>
        <line class="cls-12" x1="111.01" y1="75.56" x2="110.8" y2="75.6"/>
        <path class="cls-12" d="M109.86,75.76c.1-.02.22-.04.36-.07.19-.03.39-.07.58-.1"/>
        <path class="cls-12" d="M111.01,75.56c.25-.05.46-.09.55-.14.14-.07.16-.16.07-.21"/>
        <line class="cls-12" x1="109.86" y1="75.98" x2="109.83" y2="75.98"/>
        <path class="cls-12" d="M109.83,75.98c-.16,0-.34,0-.48-.02"/>
      </g>
      <line class="cls-12" x1="111.01" y1="75.59" x2="111.04" y2="75.74"/>
      <line class="cls-12" x1="111.01" y1="75.59" x2="111.01" y2="75.56"/>
      <line class="cls-12" x1="109.83" y1="75.98" x2="109.83" y2="75.98"/>
      <line class="cls-12" x1="109.83" y1="75.98" x2="109.78" y2="75.79"/>
      <line class="cls-12" x1="110.37" y1="76.78" x2="110.32" y2="76.59"/>
      <line class="cls-12" x1="110.54" y1="77.46" x2="110.59" y2="77.66"/>
      <line class="cls-12" x1="110.21" y1="76.16" x2="110.26" y2="76.35"/>
      <line class="cls-12" x1="110.43" y1="77.02" x2="110.48" y2="77.22"/>
      <line class="cls-12" x1="110.86" y1="76.5" x2="110.9" y2="76.67"/>
      <line class="cls-12" x1="111.08" y1="77.37" x2="111.12" y2="77.55"/>
      <line class="cls-12" x1="110.79" y1="76.24" x2="110.75" y2="76.07"/>
      <line class="cls-12" x1="110.97" y1="76.93" x2="111.01" y2="77.11"/>
      <g class="cls-21">
        <path class="cls-12" d="M110.16,77.74s-.63.09-.64.28"/>
        <path class="cls-12" d="M96.51,85.27c-.01.08-.12.13-.23.11-.12-.02-.2-.1-.18-.18l.04-.22"/>
        <path class="cls-12" d="M101.73,86.97c.02-.1-.08-.21-.23-.23-.14-.02-.27.04-.29.15-.02.1.08.21.22.23.14.02.27-.04.29-.15Z"/>
      </g>
      <line class="cls-12" x1="101.54" y1="87.27" x2="101.48" y2="87.6"/>
      <line class="cls-12" x1="101.23" y1="87.19" x2="101.17" y2="87.53"/>
      <g class="cls-34">
        <path class="cls-14" d="M98.73,85.62l-.02-.13s-.13.11-.19.29c-.07.18-.09.34-.05.36l.1-.08"/>
        <polyline class="cls-14" points="98.84 85.66 98.83 85.54 98.73 85.62 98.67 85.85 98.58 86.06 98.59 86.18 98.69 86.1"/>
        <polyline class="cls-14" points="98.95 85.71 98.94 85.58 98.84 85.66 98.78 85.9 98.69 86.1 98.7 86.23 98.8 86.14"/>
        <polyline class="cls-14" points="99.07 85.75 99.05 85.62 98.96 85.71 98.89 85.94 98.8 86.14 98.81 86.27 98.91 86.19"/>
        <polyline class="cls-14" points="99.18 85.8 99.16 85.67 99.06 85.75 99 85.98 98.91 86.19 98.92 86.32 99.02 86.23"/>
        <polyline class="cls-14" points="99.29 85.84 99.27 85.71 99.18 85.8 99.12 86.03 99.02 86.23 99.03 86.36 99.13 86.28"/>
        <polyline class="cls-14" points="99.4 85.88 99.38 85.76 99.29 85.84 99.23 86.07 99.13 86.28 99.14 86.4 99.24 86.32"/>
        <polyline class="cls-14" points="99.51 85.93 99.49 85.8 99.4 85.88 99.34 86.12 99.24 86.32 99.26 86.45 99.35 86.36"/>
        <polyline class="cls-14" points="99.62 85.97 99.6 85.84 99.51 85.93 99.45 86.16 99.35 86.36 99.37 86.49 99.46 86.41"/>
        <polyline class="cls-14" points="99.73 86.02 99.71 85.89 99.62 85.97 99.56 86.2 99.46 86.41 99.48 86.54 99.57 86.45"/>
        <polyline class="cls-14" points="99.84 86.06 99.82 85.93 99.73 86.02 99.67 86.25 99.57 86.45 99.59 86.58 99.68 86.5"/>
        <polyline class="cls-14" points="99.95 86.1 99.93 85.98 99.84 86.06 99.78 86.29 99.68 86.5 99.7 86.62 99.79 86.54"/>
        <polyline class="cls-14" points="100.06 86.15 100.04 86.02 99.95 86.1 99.89 86.34 99.79 86.54 99.81 86.67 99.9 86.58"/>
        <polyline class="cls-14" points="100.17 86.19 100.15 86.06 100.06 86.15 100 86.38 99.9 86.58 99.92 86.71 100.01 86.63"/>
        <polyline class="cls-14" points="100.28 86.24 100.26 86.11 100.17 86.19 100.11 86.42 100.01 86.63 100.03 86.76 100.12 86.67"/>
        <polyline class="cls-14" points="100.39 86.28 100.37 86.15 100.28 86.24 100.22 86.47 100.12 86.67 100.14 86.8 100.23 86.72"/>
        <polyline class="cls-14" points="100.5 86.32 100.49 86.2 100.39 86.28 100.33 86.51 100.23 86.72 100.25 86.84 100.34 86.76"/>
        <polyline class="cls-14" points="100.61 86.37 100.6 86.24 100.5 86.32 100.44 86.56 100.34 86.76 100.36 86.89 100.45 86.8"/>
        <path class="cls-14" d="M100.71,86.28l-.1.08-.06.23-.1.2.02.13s.13-.11.19-.29c.07-.18.08-.34.04-.36Z"/>
      </g>
      <line class="cls-12" x1="100.62" y1="86.82" x2="101.29" y2="87.08"/>
      <g class="cls-22">
        <path class="cls-12" d="M100.53,86.89s.26.13.55.25c.29.12.6.14.68-.02,0,0,.15-.16-.09-.34l-.57-.25-.06.12.25.1"/>
      </g>
      <line class="cls-12" x1="96.57" y1="84.61" x2="98.72" y2="85.49"/>
      <line class="cls-12" x1="96.61" y1="84.72" x2="98.61" y2="85.57"/>
      <g class="cls-26">
        <path class="cls-12" d="M96.25,84.57c-.1,0-.27.1-.19.3.08.21.59.39.59.39v-.09s-.02-.05-.02-.05c0,0-.44-.18-.47-.3l.03-.16c.01-.08.12-.13.23-.11.12.02.2.1.18.18l-.04.26"/>
        <path class="cls-12" d="M96.18,84.7s.17.2.41.06"/>
        <path class="cls-12" d="M66.22,55.71l.15.58c.04.11.13.04.13.04l.11-.1c.08-.03.58-.29.69-.91.1-.62-.16-.92-.16-.92l-.08.07c.02.08.25.83-.21,1.27-.26.19-.36.24-.33-.06,0-.33-.02-.75-.02-.75"/>
        <path class="cls-31" d="M162.81,0h-.78l-.12.12.12.12h.78v-.25ZM161.26,0h-.78l-.12.12.12.12h.78l.12-.12-.12-.12M159.7,0h-.78l-.12.12.12.12h.78l.12-.12-.12-.12M158.14,0h-.78l-.12.12.12.12h.78l.12-.12-.12-.12M156.59,0h-.78l-.12.12.12.12h.78l.12-.12-.12-.12M155.03,0h-.78l-.12.12.12.12h.78l.12-.12-.12-.12M153.48,0h-.78l-.12.12.12.12h.78l.12-.12-.12-.12M151.92,0h-.78l-.12.12.12.12h.78l.12-.12-.12-.12M150.36,0h-.78l-.12.12.12.12h.78l.12-.12-.12-.12M148.81,0h-.78l-.12.12.12.12h.78l.12-.12-.12-.12M147.25,0h-.78l-.12.12.12.12h.78l.12-.12-.12-.12M145.7,0h-.78l-.12.12.12.12h.78l.12-.12-.12-.12M144.14,0h-.78l-.12.12.12.12h.78l.12-.12-.12-.12M142.58,0h-.78l-.12.12.12.12h.78l.12-.12-.12-.12M141.03,0h-.78l-.12.12.12.12h.78l.12-.12-.12-.12M139.47,0h-.78l-.12.12.12.12h.78l.12-.12-.12-.12M137.92,0h-.78l-.12.12.12.12h.78l.12-.12-.12-.12M136.36,0h-.78l-.12.12.12.12h.78l.12-.12-.12-.12M134.8,0h-.78l-.12.12.12.12h.78l.12-.12-.12-.12M133.25,0h-.78l-.12.12.12.12h.78l.12-.12-.12-.12M131.69,0h-.78l-.12.12.12.12h.78l.12-.12-.12-.12M130.14,0h-.78l-.12.12.12.12h.78l.12-.12-.12-.12M128.58,0h-.78l-.12.12.12.12h.78l.12-.12-.12-.12M127.02,0h-.78l-.12.12.12.12h.78l.12-.12-.12-.12M125.47,0h-.78l-.12.12.12.12h.78l.12-.12-.12-.12M123.91,0h-.78l-.12.12.12.12h.78l.12-.12-.12-.12M122.36,0h-.78l-.12.12.12.12h.78l.12-.12-.12-.12M120.8,0h-.78l-.12.12.12.12h.78l.12-.12-.12-.12M119.24,0h-.78l-.12.12.12.12h.78l.12-.12-.12-.12M117.69,0h-.78l-.12.12.12.12h.78l.12-.12-.12-.12M116.13,0h-.78l-.12.12.12.12h.78l.12-.12-.12-.12M114.58,0h-.78l-.12.12.12.12h.78l.12-.12-.12-.12M113.02,0h-.78l-.12.12.12.12h.78l.12-.12-.12-.12M111.46,0h-.78l-.12.12.12.12h.78l.12-.12-.12-.12M109.91,0h-.78l-.12.12.12.12h.78l.12-.12-.12-.12M108.35,0h-.78l-.12.12.12.12h.78l.12-.12-.12-.12M106.8,0h-.78l-.12.12.12.12h.78l.12-.12-.12-.12M105.24,0h-.78l-.12.12.12.12h.78l.12-.12-.12-.12M103.68,0h-.78l-.12.12.12.12h.78l.12-.12-.12-.12M102.13,0h-.78l-.12.12.12.12h.78l.12-.12-.12-.12M100.57,0h-.78l-.12.12.12.12h.78l.12-.12-.12-.12M99.02,0h-.78l-.12.12.12.12h.78l.12-.12-.12-.12M97.46,0h-.78l-.12.12.12.12h.78l.12-.12-.12-.12M95.9,0h-.78l-.12.12.12.12h.78l.12-.12-.12-.12M94.35,0h-.78l-.12.12.12.12h.78l.12-.12-.12-.12M92.79,0h-.78l-.12.12.12.12h.78l.12-.12-.12-.12M91.24,0h-.78l-.12.12.12.12h.78l.12-.12-.12-.12M89.68,0h-.78l-.12.12.12.12h.78l.12-.12-.12-.12M88.12,0h-.78l-.12.12.12.12h.78l.12-.12-.12-.12M86.57,0h-.78l-.12.12.12.12h.78l.12-.12-.12-.12M85.01,0h-.78l-.12.12.12.12h.78l.12-.12-.12-.12M83.46,0h-.78l-.12.12.12.12h.78l.12-.12-.12-.12M81.9,0h-.78l-.12.12.12.12h.78l.12-.12-.12-.12M80.34,0h-.78l-.12.12.12.12h.78l.12-.12-.12-.12M78.79,0h-.78l-.12.12.12.12h.78l.12-.12-.12-.12M77.23,0h-.78l-.12.12.12.12h.78l.12-.12-.12-.12M75.68,0h-.78l-.12.12.12.12h.78l.12-.12-.12-.12M74.12,0h-.78l-.12.12.12.12h.78l.12-.12-.12-.12M72.56,0h-.78l-.12.12.12.12h.78l.12-.12-.12-.12M71.01,0h-.78l-.12.12.12.12h.78l.12-.12-.12-.12M69.45,0h-.78l-.12.12.12.12h.78l.12-.12-.12-.12M67.9,0h-.78l-.12.12.12.12h.78l.12-.12-.12-.12M66.34,0h-.78l-.12.12.12.12h.78l.12-.12-.12-.12M64.78,0h-.78l-.12.12.12.12h.78l.12-.12-.12-.12M63.23,0h-.78l-.12.12.12.12h.78l.12-.12-.12-.12M61.67,0h-.78l-.12.12.12.12h.78l.12-.12-.12-.12M60.12,0h-.78l-.12.12.12.12h.78l.12-.12-.12-.12M58.56,0h-.78l-.12.12.12.12h.78l.12-.12-.12-.12M57,0h-.78l-.12.12.12.12h.78l.12-.12-.12-.12M55.45,0h-.78l-.12.12.12.12h.78l.12-.12-.12-.12M53.89,0h-.78l-.12.12.12.12h.78l.12-.12-.12-.12M52.34,0h-.78l-.12.12.12.12h.78l.12-.12-.12-.12M50.78,0h-.78l-.12.12.12.12h.78l.12-.12-.12-.12M49.22,0h-.78l-.12.12.12.12h.78l.12-.12-.12-.12M47.67,0h-.78l-.12.12.12.12h.78l.12-.12-.12-.12M46.11,0h-.78l-.12.12.12.12h.78l.12-.12-.12-.12M44.56,0h-.78l-.12.12.12.12h.78l.12-.12-.12-.12M43,0h-.78l-.12.12.12.12h.78l.12-.12-.12-.12M41.44,0h-.78l-.12.12.12.12h.78l.12-.12-.12-.12M39.89,0h-.78l-.12.12.12.12h.78l.12-.12-.12-.12M38.33,0h-.78l-.12.12.12.12h.78l.12-.12-.12-.12M36.78,0h-.78l-.12.12.12.12h.78l.12-.12-.12-.12M35.22,0h-.78l-.12.12.12.12h.78l.12-.12-.12-.12M33.66,0h-.78l-.12.12.12.12h.78l.12-.12-.12-.12M32.11,0h-.78l-.12.12.12.12h.78l.12-.12-.12-.12M30.55,0h-.78l-.12.12.12.12h.78l.12-.12-.12-.12M29,0h-.78l-.12.12.12.12h.78l.12-.12-.12-.12M27.44,0h-.78l-.12.12.12.12h.78l.12-.12-.12-.12M25.88,0h-.78l-.12.12.12.12h.78l.12-.12-.12-.12M24.33,0h-.78l-.12.12.12.12h.78l.12-.12-.12-.12M22.77,0h-.78l-.12.12.12.12h.78l.12-.12-.12-.12M21.22,0h-.78l-.12.12.12.12h.78l.12-.12-.12-.12M19.66,0h-.78l-.12.12.12.12h.78l.12-.12-.12-.12M18.1,0h-.78l-.12.12.12.12h.78l.12-.12-.12-.12M16.55,0h-.78l-.12.12.12.12h.78l.12-.12-.12-.12M14.99,0h-.78l-.12.12.12.12h.78l.12-.12-.12-.12M13.44,0h-.78l-.12.12.12.12h.78l.12-.12-.12-.12M11.88,0h-.78l-.12.12.12.12h.78l.12-.12-.12-.12M10.32,0h-.78l-.12.12.12.12h.78l.12-.12-.12-.12M8.77,0h-.78l-.12.12.12.12h.78l.12-.12-.12-.12M7.21,0h-.78l-.12.12.12.12h.78l.12-.12-.12-.12M5.66,0h-.78l-.12.12.12.12h.78l.12-.12-.12-.12M4.1,0h-.78l-.12.12.12.12h.78l.12-.12-.12-.12M2.54,0h-.78l-.12.12.12.12h.78l.12-.12-.12-.12M.99,0H.21L.08.12l.12.12h.78l.12-.12-.12-.12M.13.44L0,.57v.78l.12.12.12-.12v-.78l-.12-.12M.13,2L0,2.13v.78l.12.12.12-.12v-.78l-.12-.12M.13,3.56L0,3.68v.78l.12.12.12-.12v-.78l-.12-.12M.13,5.11L0,5.24v.78l.12.12.12-.12v-.78l-.12-.12M.13,6.67L0,6.79v.78l.12.12.12-.12v-.78l-.12-.12M.13,8.22L0,8.35v.78l.12.12.12-.12v-.78l-.12-.12M.13,9.78L0,9.91v.78l.12.12.12-.12v-.78l-.12-.12M.13,11.34L0,11.46v.78l.12.12.12-.12v-.78l-.12-.12M.13,12.89L0,13.02v.78l.12.12.12-.12v-.78l-.12-.12M.13,14.45L0,14.57v.78l.12.12.12-.12v-.78l-.12-.12M.13,16L0,16.13v.78l.12.12.12-.12v-.78l-.12-.12M.13,17.56L0,17.69v.78l.12.12.12-.12v-.78l-.12-.12M.13,19.12L0,19.24v.78l.12.12.12-.12v-.78l-.12-.12M.13,20.67L0,20.8v.78l.12.12.12-.12v-.78l-.12-.12M.13,22.23L0,22.35v.78l.12.12.12-.12v-.78l-.12-.12M.13,23.78L0,23.91v.78l.12.12.12-.12v-.78l-.12-.12M.13,25.34L0,25.47v.78l.12.12.12-.12v-.78l-.12-.12M.13,26.9L0,27.02v.78l.12.12.12-.12v-.78l-.12-.12M.13,28.45L0,28.58v.78l.12.12.12-.12v-.78l-.12-.12M.13,30.01L0,30.13v.78l.12.12.12-.12v-.78l-.12-.12M.13,31.56L0,31.69v.78l.12.12.12-.12v-.78l-.12-.12M.13,33.12L0,33.25v.78l.12.12.12-.12v-.78l-.12-.12M.13,34.68L0,34.8v.78l.12.12.12-.12v-.78l-.12-.12M.13,36.23L0,36.36v.78l.12.12.12-.12v-.78l-.12-.12M.13,37.79L0,37.91v.78l.12.12.12-.12v-.78l-.12-.12M.13,39.34L0,39.47v.78l.12.12.12-.12v-.78l-.12-.12M.13,40.9L0,41.03v.78l.12.12.12-.12v-.78l-.12-.12M.13,42.46L0,42.58v.78l.12.12.12-.12v-.78l-.12-.12M.13,44.01L0,44.14v.78l.12.12.12-.12v-.78l-.12-.12M.13,45.57L0,45.69v.78l.12.12.12-.12v-.78l-.12-.12M.13,47.12L0,47.25v.78l.12.12.12-.12v-.78l-.12-.12M.13,48.68L0,48.81v.78l.12.12.12-.12v-.78l-.12-.12M.13,50.24L0,50.36v.78l.12.12.12-.12v-.78l-.12-.12M.13,51.79L0,51.92v.78l.12.12.12-.12v-.78l-.12-.12M.13,53.35L0,53.47v.78l.12.12.12-.12v-.78l-.12-.12M.13,54.9L0,55.03v.78l.12.12.12-.12v-.78l-.12-.12M.13,56.46L0,56.59v.78l.12.12.12-.12v-.78l-.12-.12M.13,58.02L0,58.14v.78l.12.12.12-.12v-.78l-.12-.12M.13,59.57L0,59.7v.78l.12.12.12-.12v-.78l-.12-.12M.13,61.13L0,61.25v.78l.12.12.12-.12v-.78l-.12-.12M.13,62.68L0,62.81v.78l.12.12.12-.12v-.78l-.12-.12M.13,64.24l-.12.12v.78l.12.12.12-.12v-.78l-.12-.12M.13,65.8l-.12.12v.78l.12.12.12-.12v-.78l-.12-.12M.13,67.35l-.12.12v.78l.12.12.12-.12v-.78l-.12-.12M.13,68.91l-.12.12v.78l.12.12.12-.12v-.78l-.12-.12M.13,70.46l-.12.12v.78l.12.12.12-.12v-.78l-.12-.12M.13,72.02l-.12.12v.78l.12.12.12-.12v-.78l-.12-.12M.13,73.58l-.12.12v.78l.12.12.12-.12v-.78l-.12-.12M.13,75.13l-.12.12v.78l.12.12.12-.12v-.78l-.12-.12M.13,76.69l-.12.12v.78l.12.12.12-.12v-.78l-.12-.12M.13,78.24l-.12.12v.78l.12.12.12-.12v-.78l-.12-.12M.13,79.8l-.12.12v.78l.12.12.12-.12v-.78l-.12-.12M.13,81.36l-.12.12v.78l.12.12.12-.12v-.78l-.12-.12M.13,82.91l-.12.12v.78l.12.12.12-.12v-.78l-.12-.12M.13,84.47l-.12.12v.78l.12.12.12-.12v-.78l-.12-.12M.13,86.02l-.12.12v.78l.12.12.12-.12v-.78l-.12-.12M.13,87.58l-.12.12v.78l.12.12.12-.12v-.78l-.12-.12M.13,89.14l-.12.12v.78l.12.12.12-.12v-.78l-.12-.12M.13,90.69l-.12.12v.78l.12.12.12-.12v-.78l-.12-.12M.13,92.25l-.12.12v.78l.12.12.12-.12v-.78l-.12-.12M.13,93.8l-.12.12v.78l.12.12.12-.12v-.78l-.12-.12M.13,95.36l-.12.12v.78l.12.12.12-.12v-.78l-.12-.12M.13,96.92l-.12.12v.78l.12.12.12-.12v-.78l-.12-.12M.13,98.47l-.12.12v.62h.25v-.04l.04-.09-.04-.09v-.4l-.12-.12M1.72,98.96h-.78l-.12.12.12.12h.78l.12-.12-.12-.12M3.28,98.96h-.78l-.12.12.12.12h.78l.12-.12-.12-.12M4.83,98.96h-.78l-.12.12.12.12h.78l.12-.12-.12-.12M6.39,98.96h-.78l-.12.12.12.12h.78l.12-.12-.12-.12M7.94,98.96h-.78l-.12.12.12.12h.78l.12-.12-.12-.12M9.5,98.96h-.78l-.12.12.12.12h.78l.12-.12-.12-.12M11.06,98.96h-.78l-.12.12.12.12h.78l.12-.12-.12-.12M12.61,98.96h-.78l-.12.12.12.12h.78l.12-.12-.12-.12M14.17,98.96h-.78l-.12.12.12.12h.78l.12-.12-.12-.12M15.72,98.96h-.78l-.12.12.12.12h.78l.12-.12-.12-.12M17.28,98.96h-.78l-.12.12.12.12h.78l.12-.12-.12-.12M18.84,98.96h-.78l-.12.12.12.12h.78l.12-.12-.12-.12M20.39,98.96h-.78l-.12.12.12.12h.78l.12-.12-.12-.12M21.95,98.96h-.78l-.12.12.12.12h.78l.12-.12-.12-.12M23.5,98.96h-.78l-.12.12.12.12h.78l.12-.12-.12-.12M25.06,98.96h-.78l-.12.12.12.12h.78l.12-.12-.12-.12M26.62,98.96h-.78l-.12.12.12.12h.78l.12-.12-.12-.12M28.17,98.96h-.78l-.12.12.12.12h.78l.12-.12-.12-.12M29.73,98.96h-.78l-.12.12.12.12h.78l.12-.12-.12-.12M31.28,98.96h-.78l-.12.12.12.12h.78l.12-.12-.12-.12M32.84,98.96h-.78l-.12.12.12.12h.78l.12-.12-.12-.12M34.4,98.96h-.78l-.12.12.12.12h.78l.12-.12-.12-.12M35.95,98.96h-.78l-.12.12.12.12h.78l.12-.12-.12-.12M37.51,98.96h-.78l-.12.12.12.12h.78l.12-.12-.12-.12M39.06,98.96h-.78l-.12.12.12.12h.78l.12-.12-.12-.12M40.62,98.96h-.78l-.12.12.12.12h.78l.12-.12-.12-.12M42.18,98.96h-.78l-.12.12.12.12h.78l.12-.12-.12-.12M43.73,98.96h-.78l-.12.12.12.12h.78l.12-.12-.12-.12M45.29,98.96h-.78l-.12.12.12.12h.78l.12-.12-.12-.12M46.84,98.96h-.78l-.12.12.12.12h.78l.12-.12-.12-.12M48.4,98.96h-.78l-.12.12.12.12h.78l.12-.12-.12-.12M49.96,98.96h-.78l-.12.12.12.12h.78l.12-.12-.12-.12M51.51,98.96h-.78l-.12.12.12.12h.78l.12-.12-.12-.12M53.07,98.96h-.78l-.12.12.12.12h.78l.12-.12-.12-.12M54.62,98.96h-.78l-.12.12.12.12h.78l.12-.12-.12-.12M56.18,98.96h-.78l-.12.12.12.12h.78l.12-.12-.12-.12M57.74,98.96h-.78l-.12.12.12.12h.78l.12-.12-.12-.12M59.29,98.96h-.78l-.12.12.12.12h.78l.12-.12-.12-.12M60.85,98.96h-.78l-.12.12.12.12h.78l.12-.12-.12-.12M62.4,98.96h-.78l-.12.12.12.12h.78l.12-.12-.12-.12M63.96,98.96h-.78l-.12.12.12.12h.78l.12-.12-.12-.12M65.52,98.96h-.78l-.12.12.12.12h.78l.12-.12-.12-.12M67.07,98.96h-.78l-.12.12.12.12h.78l.12-.12-.12-.12M68.63,98.96h-.78l-.12.12.12.12h.78l.12-.12-.12-.12M70.18,98.96h-.78l-.12.12.12.12h.78l.12-.12-.12-.12M71.74,98.96h-.78l-.12.12.12.12h.78l.12-.12-.12-.12M73.3,98.96h-.78l-.12.12.12.12h.78l.12-.12-.12-.12M74.85,98.96h-.78l-.12.12.12.12h.78l.12-.12-.12-.12M76.41,98.96h-.78l-.12.12.12.12h.78l.12-.12-.12-.12M77.96,98.96h-.78l-.12.12.12.12h.78l.12-.12-.12-.12M79.52,98.96h-.78l-.12.12.12.12h.78l.12-.12-.12-.12M81.08,98.96h-.78l-.12.12.12.12h.78l.12-.12-.12-.12M82.63,98.96h-.78l-.12.12.12.12h.78l.12-.12-.12-.12M84.19,98.96h-.78l-.12.12.12.12h.78l.12-.12-.12-.12M85.74,98.96h-.78l-.12.12.12.12h.78l.12-.12-.12-.12M87.3,98.96h-.78l-.12.12.12.12h.78l.12-.12-.12-.12M88.86,98.96h-.78l-.12.12.12.12h.78l.12-.12-.12-.12M90.41,98.96h-.78l-.12.12.12.12h.78l.12-.12-.12-.12M91.97,98.96h-.78l-.12.12.12.12h.78l.12-.12-.12-.12M93.52,98.96h-.78l-.12.12.12.12h.78l.12-.12-.12-.12M95.08,98.96h-.78l-.12.12.12.12h.78l.12-.12-.12-.12M96.64,98.96h-.78l-.12.12.12.12h.78l.12-.12-.12-.12M98.19,98.96h-.78l-.12.12.12.12h.78l.12-.12-.12-.12M99.75,98.96h-.78l-.12.12.12.12h.78l.12-.12-.12-.12M101.3,98.96h-.78l-.12.12.12.12h.78l.12-.12-.12-.12M102.86,98.96h-.78l-.12.12.12.12h.78l.12-.12-.12-.12M104.42,98.96h-.78l-.12.12.12.12h.78l.12-.12-.12-.12M105.97,98.96h-.78l-.12.12.12.12h.78l.12-.12-.12-.12M107.53,98.96h-.78l-.12.12.12.12h.78l.12-.12-.12-.12M109.08,98.96h-.78l-.12.12.12.12h.78l.12-.12-.12-.12M110.64,98.96h-.78l-.12.12.12.12h.78l.12-.12-.12-.12M112.2,98.96h-.78l-.12.12.12.12h.78l.12-.12-.12-.12M113.75,98.96h-.78l-.12.12.12.12h.78l.12-.12-.12-.12M115.31,98.96h-.78l-.12.12.12.12h.78l.12-.12-.12-.12M116.86,98.96h-.78l-.12.12.12.12h.78l.12-.12-.12-.12M118.42,98.96h-.78l-.12.12.12.12h.78l.12-.12-.12-.12M119.98,98.96h-.78l-.12.12.12.12h.78l.12-.12-.12-.12M121.53,98.96h-.78l-.12.12.12.12h.78l.12-.12-.12-.12M123.09,98.96h-.78l-.12.12.12.12h.78l.12-.12-.12-.12M124.64,98.96h-.78l-.12.12.12.12h.78l.12-.12-.12-.12M126.2,98.96h-.78l-.12.12.12.12h.78l.12-.12-.12-.12M127.76,98.96h-.78l-.12.12.12.12h.78l.12-.12-.12-.12M129.31,98.96h-.78l-.12.12.12.12h.78l.12-.12-.12-.12M130.87,98.96h-.78l-.12.12.12.12h.78l.12-.12-.12-.12M132.42,98.96h-.78l-.12.12.12.12h.78l.12-.12-.12-.12M133.98,98.96h-.78l-.12.12.12.12h.78l.12-.12-.12-.12M135.54,98.96h-.78l-.12.12.12.12h.78l.12-.12-.12-.12M137.09,98.96h-.78l-.12.12.12.12h.78l.12-.12-.12-.12M138.65,98.96h-.78l-.12.12.12.12h.78l.12-.12-.12-.12M140.2,98.96h-.78l-.12.12.12.12h.78l.12-.12-.12-.12M141.76,98.96h-.78l-.12.12.12.12h.78l.12-.12-.12-.12M143.32,98.96h-.78l-.12.12.12.12h.78l.12-.12-.12-.12M144.87,98.96h-.78l-.12.12.12.12h.78l.12-.12-.12-.12M146.43,98.96h-.78l-.12.12.12.12h.78l.12-.12-.12-.12M147.98,98.96h-.78l-.12.12.12.12h.78l.12-.12-.12-.12M149.54,98.96h-.78l-.12.12.12.12h.78l.12-.12-.12-.12M151.1,98.96h-.78l-.12.12.12.12h.78l.12-.12-.12-.12M152.65,98.96h-.78l-.12.12.12.12h.78l.12-.12-.12-.12M154.21,98.96h-.78l-.12.12.12.12h.78l.12-.12-.12-.12M155.76,98.96h-.78l-.12.12.12.12h.78l.12-.12-.12-.12M157.32,98.96h-.78l-.12.12.12.12h.78l.12-.12-.12-.12M158.88,98.96h-.78l-.12.12.12.12h.78l.12-.12-.12-.12M160.43,98.96h-.78l-.12.12.12.12h.78l.12-.12-.12-.12M161.99,98.96h-.78l-.12.12.12.12h.78l.12-.12-.12-.12M162.69,98.36l-.12.12v.73h.2-.2.25-.05.05v-.73l-.12-.12M162.69,96.8l-.12.12v.78l.12.12.12-.12v-.78l-.12-.12M162.69,95.24l-.12.12v.78l.12.12.12-.12v-.78l-.12-.12M162.69,93.69l-.12.12v.78l.12.12.12-.12v-.78l-.12-.12M162.69,92.13l-.12.12v.78l.12.12.12-.12v-.78l-.12-.12M162.69,90.58l-.12.12v.78l.12.12.12-.12v-.78l-.12-.12M162.69,89.02l-.12.12v.78l.12.12.12-.12v-.78l-.12-.12M162.69,87.46l-.12.12v.78l.12.12.12-.12v-.78l-.12-.12M162.69,85.91l-.12.12v.78l.12.12.12-.12v-.78l-.12-.12M162.69,84.35l-.12.12v.78l.12.12.12-.12v-.78l-.12-.12M162.69,82.8l-.12.12v.78l.12.12.12-.12v-.78l-.12-.12M162.69,81.24l-.12.12v.78l.12.12.12-.12v-.78l-.12-.12M162.69,79.68l-.12.12v.78l.12.12.12-.12v-.78l-.12-.12M162.69,78.13l-.12.12v.78l.12.12.12-.12v-.78l-.12-.12M162.69,76.57l-.12.12v.78l.12.12.12-.12v-.78l-.12-.12M162.69,75.02l-.12.12v.78l.12.12.12-.12v-.78l-.12-.12M162.69,73.46l-.12.12v.78l.12.12.12-.12v-.78l-.12-.12M162.69,71.9l-.12.12v.78l.12.12.12-.12v-.78l-.12-.12M162.69,70.35l-.12.12v.78l.12.12.12-.12v-.78l-.12-.12M162.69,68.79l-.12.12v.78l.12.12.12-.12v-.78l-.12-.12M162.69,67.24l-.12.12v.78l.12.12.12-.12v-.78l-.12-.12M162.69,65.68l-.12.12v.78l.12.12.12-.12v-.78l-.12-.12M162.69,64.12l-.12.12v.78l.12.12.12-.12v-.78l-.12-.12M162.69,62.57l-.12.12v.78l.12.12.12-.12v-.78l-.12-.12M162.69,61.01l-.12.12v.78l.12.12.12-.12v-.78l-.12-.12M162.69,59.46l-.12.12v.78l.12.12.12-.12v-.78l-.12-.12M162.69,57.9l-.12.12v.78l.12.12.12-.12v-.78l-.12-.12M162.69,56.34l-.12.12v.78l.12.12.12-.12v-.78l-.12-.12M162.69,54.79l-.12.12v.78l.12.12.12-.12v-.78l-.12-.12M162.69,53.23l-.12.12v.78l.12.12.12-.12v-.78l-.12-.12M162.69,51.68l-.12.12v.78l.12.12.12-.12v-.78l-.12-.12M162.69,50.12l-.12.12v.78l.12.12.12-.12v-.78l-.12-.12M162.69,48.56l-.12.12v.78l.12.12.12-.12v-.78l-.12-.12M162.69,47.01l-.12.12v.78l.12.12.12-.12v-.78l-.12-.12M162.69,45.45l-.12.12v.78l.12.12.12-.12v-.78l-.12-.12M162.69,43.9l-.12.12v.78l.12.12.12-.12v-.78l-.12-.12M162.69,42.34l-.12.12v.78l.12.12.12-.12v-.78l-.12-.12M162.69,40.78l-.12.12v.78l.12.12.12-.12v-.78l-.12-.12M162.69,39.23l-.12.12v.78l.12.12.12-.12v-.78l-.12-.12M162.69,37.67l-.12.12v.78l.12.12.12-.12v-.78l-.12-.12M162.69,36.12l-.12.12v.78l.12.12.12-.12v-.78l-.12-.12M162.69,34.56l-.12.12v.78l.12.12.12-.12v-.78l-.12-.12M162.69,33l-.12.12v.78l.12.12.12-.12v-.78l-.12-.12M162.69,31.45l-.12.12v.78l.12.12.12-.12v-.78l-.12-.12M162.69,29.89l-.12.12v.78l.12.12.12-.12v-.78l-.12-.12M162.69,28.34l-.12.12v.78l.12.12.12-.12v-.78l-.12-.12M162.69,26.78l-.12.12v.78l.12.12.12-.12v-.78l-.12-.12M162.69,25.22l-.12.12v.78l.12.12.12-.12v-.78l-.12-.12M162.69,23.67l-.12.12v.78l.12.12.12-.12v-.78l-.12-.12M162.69,22.11l-.12.12v.78l.12.12.12-.12v-.78l-.12-.12M162.69,20.56l-.12.12v.78l.12.12.12-.12v-.78l-.12-.12M162.69,19l-.12.12v.78l.12.12.12-.12v-.78l-.12-.12M162.69,17.44l-.12.12v.78l.12.12.12-.12v-.78l-.12-.12M162.69,15.89l-.12.12v.78l.12.12.12-.12v-.78l-.12-.12M162.69,14.33l-.12.12v.78l.12.12.12-.12v-.78l-.12-.12M162.69,12.78l-.12.12v.78l.12.12.12-.12v-.78l-.12-.12M162.69,11.22l-.12.12v.78l.12.12.12-.12v-.78l-.12-.12M162.69,9.66l-.12.12v.78l.12.12.12-.12v-.78l-.12-.12M162.69,8.11l-.12.12v.78l.12.12.12-.12v-.78l-.12-.12M162.69,6.55l-.12.12v.78l.12.12.12-.12v-.78l-.12-.12M162.69,5l-.12.12v.78l.12.12.12-.12v-.78l-.12-.12M162.69,3.44l-.12.12v.78l.12.12.12-.12v-.78l-.12-.12M162.69,1.88l-.12.12v.78l.12.12.12-.12v-.78l-.12-.12M162.69.33l-.12.12v.78l.12.12.12-.12V.45l-.12-.12"/>
        <path class="cls-20" d="M75.25,58.56s2.06,13.21,2.45,13.93c.39.72.84,1.04,1.93,1.11,1.09.07,2.56-.29,2.77-1.15.21-.86-.82-4.43-.67-5.49l.09-.25c.11-.53.23-1.01.32-1.25.3-.78.25-2.87.11-3.55-.13-.68-.15-2.42-.15-2.42,0,0,.42-.17.15-.38"/>
        <path class="cls-15" d="M75.25,58.56s2.06,13.21,2.45,13.93c.39.72.84,1.04,1.93,1.11,1.09.07,2.56-.29,2.77-1.15.21-.86-.82-4.43-.67-5.49l.09-.25c.11-.53.23-1.01.32-1.25.3-.78.25-2.87.11-3.55-.13-.68-.15-2.42-.15-2.42,0,0,.42-.17.15-.38"/>
        <path class="cls-20" d="M73.82,45.64s-.54.86-1.74.75c0,0,.55-.44.43-.93-.12-.49-.41-.76-.98-.63-.57.13-.65.71-.62.9.04.27.11.47.41.68,0,0-.29.21-.63.22-.33,0-1.25-.59-1.26-1.44-.02-.77.62-1.18,1.12-1.32.46-.3,3.21-.32,3.21-.32"/>
        <path class="cls-15" d="M73.82,45.64s-.54.86-1.74.75c0,0,.55-.44.43-.93-.12-.49-.41-.76-.98-.63-.57.13-.65.71-.62.9.04.27.11.47.41.68,0,0-.29.21-.63.22-.33,0-1.25-.59-1.26-1.44-.02-.77.62-1.18,1.12-1.32.46-.3,3.21-.32,3.21-.32"/>
        <path class="cls-20" d="M89.34,51.87s-1.05.04-3.87.3c-2.81.25-7.57.81-8.43,1.11-.61.22-1.88,1.57-2.05,2.47-.15.8-.03,1.66.25,2.82s.76,2.49.76,2.49"/>
        <path class="cls-15" d="M89.34,51.87s-1.05.04-3.87.3c-2.81.25-7.57.81-8.43,1.11-.61.22-1.88,1.57-2.05,2.47-.15.8-.03,1.66.25,2.82s.76,2.49.76,2.49"/>
        <path class="cls-20" d="M81.33,69.35s.24-1.47.48-2.64"/>
        <path class="cls-15" d="M81.33,69.35s.24-1.47.48-2.64"/>
        <path class="cls-20" d="M100.44,52.63s.6,2.75-.22,3.99c-.82,1.24-3.04,2.05-4.29,2.02-1.25-.02-7.13-.02-8.61,0-1.48.02-4.14.68-5.08-.08-.93-.76-1.34-1.98-1.84-2"/>
        <path class="cls-15" d="M100.44,52.63s.6,2.75-.22,3.99c-.82,1.24-3.04,2.05-4.29,2.02-1.25-.02-7.13-.02-8.61,0-1.48.02-4.14.68-5.08-.08-.93-.76-1.34-1.98-1.84-2"/>
        <path class="cls-20" d="M79.22,74.76s.79.79,1.68.42c.67-.28,1.01-1,1.45-.99.44,0,.44.37.5.44.06.07.78,2.17.78,3.09v.77s-9.67,1.22-11.9.52c-1.62-.66-.51-1.89-.51-1.89l.15-.15c.12-.08.23-.11.23-.11,0,0,1.36-.53,3.2-.83"/>
        <path class="cls-15" d="M79.22,74.76s.79.79,1.68.42c.67-.28,1.01-1,1.45-.99.44,0,.44.37.5.44.06.07.78,2.17.78,3.09v.77s-9.67,1.22-11.9.52c-1.62-.66-.51-1.89-.51-1.89l.15-.15c.12-.08.23-.11.23-.11,0,0,1.36-.53,3.2-.83"/>
        <path class="cls-15" d="M92.45,24.96l-7.19-.81s.29-2.58,1.71-3.87l5.95,2.74c.44.2.73.62.72,1.08-.01.26-.12.53-.44.71-.22.13-.49.17-.75.14Z"/>
        <path class="cls-15" d="M88.01,20.77s1.91-2.36,6.15-1.14c4.25,1.22,3.73,5.07,3.73,5.07,0,0-.17,2.25-1.39,3.87-.29.38-.76.6-1.25.59l-2.3-.02c-1.12-.01-2.1-.7-2.39-1.71l-.03-.1c-.41-1.62-.62-2.65-.62-2.65"/>
        <path class="cls-15" d="M87.24,24.38l-.16,1.19s-.06.65.16,1.05c.23.41-.03,1.31-.36,1.67-.32.36.44.56.44.56l.19.46c.08.04.71.1.99,0"/>
        <path class="cls-15" d="M89.74,31.01s.21.31.54.44c.44.17.87-.09.87-.09,0,0,1.44-.99,2.17-2.21"/>
        <path class="cls-15" d="M91.96,28.93s-1.6,1.92-1.89,2.01c-.22.07-.74.15-1.33,0-.36-.18-.55-.56-.66-.89-.11-.33-.43-.72-.43-.72"/>
        <path class="cls-15" d="M91.14,31.36s.37.01.68.69c.26.58.24.87.24.87"/>
        <path class="cls-15" d="M95.69,30.88c-.16-.15-1.07-1.74-1.07-1.74"/>
        <path class="cls-15" d="M95.69,30.88c-.05.11-.49.21-1.07.48-.74.35-2.82,1.46-3.28,2.39-1.01,2.04-2.24,6.39-2.24,6.39"/>
        <path class="cls-15" d="M91.35,33.75s2.15-.99,2.5-1.26c.35-.27,1.82-1.65,1.91-1.65s2.02,1.88,2.84,3.74c.82,1.86,2.72,10.59,2.93,14.17.22,3.58-.52,3.71-.52,3.71,0,0-.86.37-1.46,0-.6-.37-2.27-.04-2.66-.04s-3.65.24-4.27-.15c-.61-.39-2.13-.54-2.81-1.34-.68-.8-1.23-.2-1.33-.92-.1-.72.66-.75.75-1.23.09-.48-.22-.99,0-1.02"/>
        <path class="cls-15" d="M93.46,33.74s-.76.18-1.06.6c-.3.42-2.98,5.89-3.73,6.34-.74.45.05,1.78-.2,2.45"/>
        <path class="cls-15" d="M87.32,42.99c.03-.18.61-1.83,1.03-1.89"/>
        <path class="cls-15" d="M85.93,42.99c0-.12.1-1.11.87-1.38.77-.27,1.05-.5,1.21-.21"/>
        <line class="cls-15" x1="85.93" y1="42.05" x2="84.73" y2="42.86"/>
        <path class="cls-15" d="M87.22,41.46s-2.23-.12-2.81,0c-.58.13-4.38.43-5.15.55-.77.12-2.62.35-2.97.69-.35.34-.52,1.36-.45,2.15.06.78.61,1.53,1.1,1.64.49.11,11.01-.08,11.88-.26.87-.19,1.9-.32,2.8-1.21,1.18-1.18,4.15-6.52,5.03-7.03"/>
        <path class="cls-15" d="M92.96,34.91s-.52.93-.56,2.46"/>
        <path class="cls-15" d="M95.4,39.47s1.14-.9,1.56-.81"/>
        <path class="cls-15" d="M76.17,42.83s-1.89.05-2.31.55c-.4.48-.33,1.71-.04,2.26.29.55,2.59.51,2.59.51"/>
        <path class="cls-15" d="M90.91,45.37s1.19,1.88,3.3,2.98c2.11,1.1,4.27,1.55,4.44,2.05"/>
        <path class="cls-15" d="M88.31,46.28s-.29.61.17.92c.45.31,1.54,1.09,1.54,1.39"/>
        <path class="cls-15" d="M91.05,49.23s1.13.96,3.01,1.26c1.88.3,2.31.71,2.31.71"/>
        <path class="cls-15" d="M91.7,49.39s2.55.79,3.7.37"/>
        <path class="cls-15" d="M89.81,50.94s-.55.28-.7.58c-.14.31-.72.17-.72.41"/>
        <path class="cls-15" d="M100.44,52.63s.6,2.75-.22,3.99c-.82,1.24-3.04,2.05-4.29,2.02-1.25-.02-7.13-.02-8.61,0-1.48.02-4.14.68-5.08-.08-.93-.76-1.34-1.98-1.84-2"/>
        <path class="cls-15" d="M82.59,58.76s0,.28-.34.35c-.35.07-.77.46-3.03-.65"/>
        <path class="cls-15" d="M82.25,59.12s-1.08.3-1.12.76"/>
        <path class="cls-15" d="M92.98,52.73s2.62,1.17,2.85,2.17"/>
        <path class="cls-15" d="M92.65,53.03s1.58,1.2,1.42,1.86"/>
        <path class="cls-15" d="M96.02,52.47s-.42.68-.99.87c-.57.19-1.17.72-1.31.63-.14-.09-.83.81-2.01.72-1.18-.09-4.61.42-6.77.21-2.17-.21-4.28.16-4.75.31-.73.23-1.21.58-1.4,1.66-.18,1.08.17,1.15.06,1.61-.12.45-.3.48-.06,1.26.23.78-.05,2.95.06,3.96.11,1,1.14,6.83,1.37,7.7.23.87.54,1.95.21,2.22"/>
        <path class="cls-15" d="M79.22,74.76s.79.79,1.68.42c.67-.28,1.01-1,1.45-.99.44,0,.44.37.5.44.06.07.78,2.17.78,3.09v.77s-9.67,1.22-11.9.52c-1.62-.66-.51-1.89-.51-1.89"/>
        <path class="cls-15" d="M83.63,77.71s-4.41.72-8.92.92c-1,.04-3.1-.12-3.45-.77-.27-.51-.08-.78.11-.91"/>
        <path class="cls-15" d="M78.83,74.38s.07-.68,0-.9"/>
        <line class="cls-15" x1="82.17" y1="72.86" x2="82.35" y2="74.18"/>
        <path class="cls-15" d="M80.57,52.71s6.05-1.13,6.77-1.18c.72-.05,1.77-.31,1.77-.31l.61-.37"/>
        <path class="cls-46" d="M88.26,26.82c0,.15-.08.27-.17.27s-.17-.12-.17-.27.08-.27.17-.27.17.12.17.27"/>
        <path class="cls-46" d="M87.41,25.83l.06-.08c.2-.05.77-.21,1.2.36.07.09-.14.22-.23.09-.09-.1-.2-.27-.46-.29-.16-.02-.26,0-.41.01l-.16-.09Z"/>
        <path class="cls-20" d="M79.22,74.76s-.07-.44-.56-.37c-.49.07-3.56,1.62-3.85,1.62-.29,0,.16.96.81.62.65-.34,3.61-1.87,3.61-1.87"/>
        <path class="cls-15" d="M79.22,74.76s-.07-.44-.56-.37c-.49.07-3.56,1.62-3.85,1.62-.29,0,.16.96.81.62.65-.34,3.61-1.87,3.61-1.87Z"/>
        <path class="cls-12" d="M141.82,57.31c0,.42-.34.75-.75.75s-.75-.34-.75-.75.34-.75.75-.75.75.34.75.75Z"/>
      </g>
      <line class="cls-12" x1="140.11" y1="55.78" x2="138.22" y2="53.15"/>
      <g class="cls-42">
        <path class="cls-12" d="M17.84,88.55s14.75-3.41,37.6,2.79c11.12,3.02,13.3,3.88,23.05,2.67,8.9-1.11,25.99-3.86,39.29-.62,10.15,2.47,25.52-.93,25.52-.93"/>
        <path class="cls-12" d="M41.85,18.11h-4.11s-3.12-2.21-.99-6.37c1.59-3.46,4.57-2.84,4.57-2.84,0,0,.8-4.85,5.77-5.26,4.97-.42,6.04,5.12,6.04,5.12,0,0,4.84-2.72,7.23,2.1,2.39,4.82,0,7.24,0,7.24h-7.1"/>
        <path class="cls-12" d="M32.16,31.89c0,.42-.34.75-.75.75s-.75-.34-.75-.75.34-.75.75-.75.75.34.75.75Z"/>
      </g>
      <line class="cls-12" x1="30.45" y1="30.36" x2="28.57" y2="27.73"/>
      <g class="cls-37">
        <path class="cls-12" d="M127.37,34.84c0,.42-.34.75-.75.75s-.75-.34-.75-.75.34-.75.75-.75.75.34.75.75Z"/>
      </g>
      <line class="cls-12" x1="125.65" y1="33.31" x2="123.77" y2="30.68"/>
      <g class="cls-6">
        <path class="cls-12" d="M27.11,49.23c0,.42-.34.75-.75.75s-.75-.34-.75-.75.34-.75.75-.75.75.34.75.75Z"/>
      </g>
      <line class="cls-12" x1="25.4" y1="47.71" x2="23.51" y2="45.08"/>
      <g class="cls-39">
        <path class="cls-12" d="M111.08,20.97c0,.42-.34.75-.75.75s-.75-.34-.75-.75.34-.75.75-.75.75.34.75.75Z"/>
      </g>
      <line class="cls-12" x1="109.37" y1="19.45" x2="107.48" y2="16.82"/>
      <g class="cls-8">
        <path class="cls-12" d="M45.46,56.56c0,.42-.34.75-.75.75s-.75-.34-.75-.75.34-.75.75-.75.75.34.75.75Z"/>
      </g>
      <line class="cls-12" x1="43.74" y1="55.04" x2="39.57" y2="49.23"/>
      <g class="cls-1">
        <path class="cls-12" d="M120.05,54.29c0,.42-.34.75-.75.75s-.75-.34-.75-.75.34-.75.75-.75.75.34.75.75Z"/>
      </g>
      <line class="cls-12" x1="118.34" y1="52.77" x2="114.17" y2="46.96"/>
      <g class="cls-25">
        <path class="cls-12" d="M77.92,29.6c0,.42-.34.75-.75.75s-.75-.34-.75-.75.34-.75.75-.75.75.34.75.75Z"/>
      </g>
      <line class="cls-12" x1="76.2" y1="28.08" x2="72.04" y2="22.27"/>
      <g class="cls-24">
        <path class="cls-12" d="M60.56,91.35s1.22-1.08,1.76-.52c.54.56-1.76.52-1.76.52Z"/>
        <path class="cls-12" d="M64.02,91.08s1.46-.59,2.02-.07c.56.52-1.43.67-2.02.07Z"/>
        <path class="cls-12" d="M126.04,90.67s1.27-1.41,1.89-1.05c.62.36-1.89,1.05-1.89,1.05Z"/>
        <path class="cls-12" d="M128.97,91.46s1.04-.31,1.66-.12c.62.19-1.66.12-1.66.12Z"/>
        <path class="cls-12" d="M122.91,92.46s.38-.93,1.2-.62c.82.31-1.2.62-1.2.62Z"/>
        <path class="cls-20" d="M17.84,88.55s14.75-3.41,37.6,2.79c11.12,3.02,13.3,3.88,23.05,2.67,8.9-1.11,25.99-3.86,39.29-.62,10.15,2.47,25.52-.93,25.52-.93"/>
        <path class="cls-32" d="M47.59,12.39l4.56,3.45c.44.33.42,1-.04,1.3l-4.76,3.12c-.37.24-.42.77-.1,1.08l4.75,4.5c.1.09-.03.25-.14.17l-8.01-5.56c-.47-.33-.47-1.03.01-1.35l4.77-3.2c.3-.2.39-.6.21-.92l-1.44-2.45c-.07-.11.07-.24.18-.16"/>
        <path class="cls-20" d="M143.49,91.91s-15.57,4.02-25.72,1.55c-13.3-3.24-30.39-.49-39.29.62-9.75,1.22-11.93.35-23.05-2.67-22.84-6.2-37.6-2.79-37.6-2.79l2.43,9.52,85.8-1.24,37.43-.92v-4.08Z"/>
        <path class="cls-12" d="M59.69,89.98l1.15-.42s-.17.73-1.15.42Z"/>
      </g>
    </g>
  </g>
</svg>