<?xml version="1.0" encoding="UTF-8"?>
<svg id="_图层_2" data-name="图层 2" xmlns="http://www.w3.org/2000/svg" xmlns:xlink="http://www.w3.org/1999/xlink" viewBox="0 0 162.81 99.21">
  <defs>
    <style>
      .cls-1 {
        stroke: #ff6b00;
        stroke-miterlimit: 10;
        stroke-width: .3px;
      }

      .cls-1, .cls-2, .cls-3, .cls-4, .cls-5, .cls-6, .cls-7 {
        fill: none;
      }

      .cls-8 {
        clip-path: url(#clippath-21);
      }

      .cls-9 {
        clip-path: url(#clippath-6);
      }

      .cls-10 {
        clip-path: url(#clippath-7);
      }

      .cls-11 {
        clip-path: url(#clippath-17);
      }

      .cls-12 {
        clip-path: url(#clippath-15);
      }

      .cls-13 {
        clip-path: url(#clippath-18);
      }

      .cls-14 {
        clip-path: url(#clippath-4);
      }

      .cls-2 {
        stroke-width: .12px;
      }

      .cls-2, .cls-3, .cls-5, .cls-6, .cls-7 {
        stroke: #54565a;
        stroke-linecap: round;
        stroke-linejoin: round;
      }

      .cls-15 {
        clip-path: url(#clippath-22);
      }

      .cls-16 {
        clip-path: url(#clippath-23);
      }

      .cls-3 {
        stroke-width: .2px;
      }

      .cls-17 {
        clip-path: url(#clippath-9);
      }

      .cls-18 {
        clip-path: url(#clippath-10);
      }

      .cls-19 {
        fill: #fff;
      }

      .cls-20 {
        clip-path: url(#clippath-25);
      }

      .cls-21 {
        clip-path: url(#clippath-27);
      }

      .cls-22 {
        clip-path: url(#clippath-11);
      }

      .cls-23 {
        clip-path: url(#clippath-28);
      }

      .cls-24 {
        clip-path: url(#clippath-1);
      }

      .cls-5 {
        stroke-width: .17px;
      }

      .cls-25 {
        clip-path: url(#clippath-5);
      }

      .cls-26 {
        clip-path: url(#clippath-20);
      }

      .cls-27 {
        clip-path: url(#clippath-8);
      }

      .cls-28 {
        fill: #221814;
      }

      .cls-29 {
        clip-path: url(#clippath-3);
      }

      .cls-30 {
        clip-path: url(#clippath-26);
      }

      .cls-31 {
        clip-path: url(#clippath-12);
      }

      .cls-32 {
        fill: #ff6b00;
        font-family: HYQiHei-DES, 'HYQiHei DES';
        font-size: 7.66px;
      }

      .cls-33 {
        clip-path: url(#clippath-14);
      }

      .cls-34 {
        clip-path: url(#clippath-19);
      }

      .cls-6 {
        stroke-width: .15px;
      }

      .cls-7 {
        stroke-width: .25px;
      }

      .cls-35 {
        clip-path: url(#clippath-16);
      }

      .cls-36 {
        clip-path: url(#clippath-2);
      }

      .cls-37 {
        clip-path: url(#clippath-29);
      }

      .cls-38 {
        clip-path: url(#clippath-13);
      }

      .cls-39 {
        clip-path: url(#clippath-24);
      }

      .cls-40 {
        clip-path: url(#clippath);
      }

      .cls-41 {
        fill: #54565a;
      }
    </style>
    <clipPath id="clippath">
      <rect class="cls-4" width="162.81" height="99.21"/>
    </clipPath>
    <clipPath id="clippath-1">
      <rect class="cls-4" width="162.81" height="99.21"/>
    </clipPath>
    <clipPath id="clippath-2">
      <rect class="cls-4" width="162.81" height="99.21"/>
    </clipPath>
    <clipPath id="clippath-3">
      <rect class="cls-4" width="162.81" height="99.21"/>
    </clipPath>
    <clipPath id="clippath-4">
      <rect class="cls-4" width="162.81" height="99.21"/>
    </clipPath>
    <clipPath id="clippath-5">
      <rect class="cls-4" width="162.81" height="99.21"/>
    </clipPath>
    <clipPath id="clippath-6">
      <rect class="cls-4" width="162.81" height="99.21"/>
    </clipPath>
    <clipPath id="clippath-7">
      <rect class="cls-4" width="162.81" height="99.21"/>
    </clipPath>
    <clipPath id="clippath-8">
      <rect class="cls-4" width="162.81" height="99.21"/>
    </clipPath>
    <clipPath id="clippath-9">
      <rect class="cls-4" width="162.81" height="99.21"/>
    </clipPath>
    <clipPath id="clippath-10">
      <rect class="cls-4" width="162.81" height="99.21"/>
    </clipPath>
    <clipPath id="clippath-11">
      <rect class="cls-4" width="162.81" height="99.21"/>
    </clipPath>
    <clipPath id="clippath-12">
      <rect class="cls-4" width="162.81" height="99.21"/>
    </clipPath>
    <clipPath id="clippath-13">
      <rect class="cls-4" width="162.81" height="99.21"/>
    </clipPath>
    <clipPath id="clippath-14">
      <rect class="cls-4" width="162.81" height="99.21"/>
    </clipPath>
    <clipPath id="clippath-15">
      <rect class="cls-4" width="162.81" height="99.21"/>
    </clipPath>
    <clipPath id="clippath-16">
      <rect class="cls-4" width="162.81" height="99.21"/>
    </clipPath>
    <clipPath id="clippath-17">
      <rect class="cls-4" width="162.81" height="99.21"/>
    </clipPath>
    <clipPath id="clippath-18">
      <rect class="cls-4" width="162.81" height="99.21"/>
    </clipPath>
    <clipPath id="clippath-19">
      <rect class="cls-4" width="162.81" height="99.21"/>
    </clipPath>
    <clipPath id="clippath-20">
      <rect class="cls-4" width="162.81" height="99.21"/>
    </clipPath>
    <clipPath id="clippath-21">
      <rect class="cls-4" width="162.81" height="99.21"/>
    </clipPath>
    <clipPath id="clippath-22">
      <rect class="cls-4" width="162.81" height="99.21"/>
    </clipPath>
    <clipPath id="clippath-23">
      <rect class="cls-4" width="162.81" height="99.21"/>
    </clipPath>
    <clipPath id="clippath-24">
      <rect class="cls-4" width="162.81" height="99.21"/>
    </clipPath>
    <clipPath id="clippath-25">
      <rect class="cls-4" width="162.81" height="99.21"/>
    </clipPath>
    <clipPath id="clippath-26">
      <rect class="cls-4" width="162.81" height="99.21"/>
    </clipPath>
    <clipPath id="clippath-27">
      <rect class="cls-4" width="162.81" height="99.21"/>
    </clipPath>
    <clipPath id="clippath-28">
      <rect class="cls-4" width="162.81" height="99.21"/>
    </clipPath>
    <clipPath id="clippath-29">
      <rect class="cls-4" width="162.81" height="99.21"/>
    </clipPath>
  </defs>
  <g id="_图层_1-2" data-name="图层 1">
    <g>
      <g class="cls-40">
        <path class="cls-3" d="M59.27,78.87c.29.95.45,1.96.45,3.01,0,5.65-4.58,10.24-10.24,10.24s-10.24-4.58-10.24-10.24c0-3.36,1.62-6.34,4.11-8.21"/>
        <path class="cls-3" d="M54.33,74.42c1.54.79,2.95,2.03,4.04,3.42l.03.03c.92,1.14,1.9,1.96,2.5,1.93.19.02.17-.09.17-.09-.6-3.23-2.52-5.99-5.17-7.72"/>
        <path class="cls-3" d="M45.93,77.6c.31-.26.66-.49,1.03-.68"/>
        <path class="cls-3" d="M45.93,77.6l-.03.03,2.83,2.44c.17.17.09.24.09.24l-.96,1.4"/>
        <path class="cls-3" d="M52.5,86.55c.86-.56,1.55-1.35,2-2.3"/>
        <path class="cls-3" d="M44.35,84.03l3-1.94c.2-.13.31-.1.34-.07l1.07,1.23c.11.15-.1.28-.1.28l-3.43,1.75.08.27c1.02,1.15,2.51,1.88,4.17,1.88.13,0,.25,0,.38-.01l.02-.12-.86-3.45c-.07-.26.03-.33.03-.33l1.51-.59c.21-.02.22.18.22.18l.67,3.89.03.06c.36-.14.71-.31,1.03-.52"/>
        <path class="cls-2" d="M47.86,81.67l.06-1.23-2.85-2.5-.21.04s-.24.24-.39.48c-.67.97-1.06,2.15-1.06,3.42,0,.84.2,1.71.51,2.44l.11.06,3.26-1.95c.07-.1.29-.38.29-.38"/>
        <path class="cls-3" d="M44.35,84.02c-.26-.64-.44-1.4-.44-2.14,0-1.12.33-2.16.9-3.03h.15s2.71,2.8,2.71,2.8c.12.11.2.1.2.01"/>
        <line class="cls-3" x1="54.56" y1="84.14" x2="54.51" y2="84.25"/>
        <path class="cls-3" d="M52.81,77.43c1.25.94,2.14,2.42,2.25,4.08"/>
        <path class="cls-2" d="M46.78,76.46c-.47.24-.91.53-1.3.88l-.02.13,2.87,2.66.43.08"/>
        <path class="cls-2" d="M46.25,84.76l-1.45.75-.07.1s-.02,0,.17.24c1.11,1.28,2.75,2.09,4.57,2.09.25,0,.49-.01.73-.04l.04-.09-.88-3.7.4-.12c.09-.02.87-.91.87-.91"/>
        <path class="cls-2" d="M53.06,77c1.43,1.05,2.38,2.72,2.46,4.62.04.41,0,.66,0,.66-.04.15-.2.14-.2.14l-3.75-.27c-.09,0-.07.1-.07.1l.03.42c0,.1.12.09.12.09l3.71.22.04.07c-.41,2.09-1.89,3.79-3.85,4.51-.16.08-.55.21-.55.21l-.14.02c-.12-.04-1.04-3.85-1.04-3.85"/>
        <path class="cls-3" d="M53.3,76.53c1.67,1.19,2.75,3.14,2.75,5.35,0,3.63-2.94,6.57-6.57,6.57s-6.57-2.94-6.57-6.57c0-2.57,1.48-4.8,3.63-5.88"/>
        <path class="cls-3" d="M53.46,76.15c1.81,1.26,2.99,3.36,2.99,5.73,0,3.85-3.12,6.98-6.98,6.98s-6.98-3.12-6.98-6.98c0-2.74,1.58-5.11,3.88-6.25"/>
        <path class="cls-3" d="M49.69,77.42c.68.03-1.83,0-1.83,0,0,0-.64.01-.8-.45-.36-.9-.8-1.96-1.81-2.42-.92-.42-1.42-.75-2.14-.97-.42-.09-1.29-.55-1.29-.55l-.03-.14c2.04-1.51,4.57-2.74,7.96-3.27,1.7-.27,2.82-.21,4.12-.06l.03.08s-1.09,2.26-1.2,2.46-.18.67-.19.75l-2,4.41s-.07.12-.23.15-.59,0-.59,0"/>
        <path class="cls-3" d="M54.27,74.51c2.41,1.58,4.02,4.28,4.02,7.37,0,4.87-3.95,8.82-8.82,8.82s-8.82-3.95-8.82-8.82c0-3.19,1.64-5.96,4.17-7.51"/>
        <path class="cls-3" d="M49.66,86.34h-.18c-1.33,0-2.52-.57-3.33-1.49"/>
        <path class="cls-3" d="M53.48,83.86c-.46.93-1.23,1.67-2.18,2.1"/>
        <path class="cls-3" d="M52.42,78.52c.56.49.98,1.09,1.24,1.8"/>
        <path class="cls-3" d="M46.75,78.34c.75-.58,1.7-.93,2.72-.93.28,0,.64.03.91.09"/>
        <path class="cls-3" d="M45.29,83.42c-.18-.48-.27-1-.27-1.54,0-.81.22-1.57.59-2.22"/>
        <path class="cls-3" d="M48.2,79.57c.38-.21.82-.33,1.28-.33"/>
        <path class="cls-3" d="M47.89,84c.28.21.61.37.97.46.1.01.25-.15.23-.26"/>
        <path class="cls-3" d="M51.89,82.97c-.15.33-.33.6-.6.84-.06.05-.37-.01-.44-.3"/>
        <path class="cls-2" d="M44.26,73.39c1.4-.95,3.33-1.58,5.56-1.93.75-.12,1.81-.18,2.37-.16"/>
        <path class="cls-2" d="M60,79.11c-.67-2.53-1.89-4.53-4.12-6.09"/>
        <path class="cls-3" d="M53.69,70.13s.2.22.29.47"/>
        <path class="cls-3" d="M53.42,70.67s.18.12.22.27"/>
        <path class="cls-3" d="M52.67,73.47c-.08-.09-.33-.17-.33-.17l-.05.07.33.17.05-.08Z"/>
      </g>
      <polyline class="cls-3" points="51.81 74.41 52.48 74.72 50.92 77.61 50.47 77.33"/>
      <polyline class="cls-2" points="47.31 82.43 47.62 82.88 48.78 83.33"/>
      <g class="cls-24">
        <path class="cls-2" d="M47.62,82.88l-3.17,1.92c-.21.08-.08.27-.08.27l.33.52"/>
      </g>
      <line class="cls-2" x1="49.37" y1="84.1" x2="49.08" y2="83.69"/>
      <g class="cls-36">
        <path class="cls-2" d="M51.51,82.16l-.47-.74c-.09-.2.01-.31.01-.31"/>
        <path class="cls-3" d="M50.06,81.85c0,.31-.25.56-.56.56s-.56-.25-.56-.56.25-.56.56-.56.56.25.56.56Z"/>
        <path class="cls-2" d="M49.86,81.85c0,.2-.16.36-.36.36s-.36-.16-.36-.36.16-.36.36-.36.36.16.36.36Z"/>
        <path class="cls-2" d="M50.98,74.14c0,.29-.24.53-.53.53s-.53-.24-.53-.53.23-.52.53-.52.53.24.53.52Z"/>
        <path class="cls-3" d="M50.81,74.14c0,.2-.16.36-.36.36s-.36-.16-.36-.36.16-.36.36-.36.36.16.36.36Z"/>
        <path class="cls-2" d="M49.84,76.25c0,.29-.24.53-.53.53s-.53-.24-.53-.53.23-.52.53-.52.53.24.53.52Z"/>
        <path class="cls-3" d="M49.67,76.25c0,.2-.16.36-.36.36s-.36-.16-.36-.36.16-.36.36-.36.36.16.36.36Z"/>
        <path class="cls-3" d="M52.79,80.23c0,.11-.09.19-.19.19s-.19-.09-.19-.19.09-.19.19-.19.19.09.19.19Z"/>
        <path class="cls-3" d="M48.7,80c.17-.07.35-.12.54-.15"/>
        <path class="cls-3" d="M47.49,81.96v-.11c0-.11,0-.22.02-.33"/>
        <path class="cls-3" d="M48.96,83.79c-.15-.04-.29-.1-.43-.17"/>
        <path class="cls-3" d="M51.18,82.96c-.09.14-.2.26-.32.37"/>
        <path class="cls-2" d="M51.88,84.82c.12-.29.13-.56.01-.61-.12-.04-.31.16-.44.45-.13.29-.13.56-.02.61s.31-.16.44-.45Z"/>
        <path class="cls-2" d="M52.58,83.12c-.04.11-.07.25-.07.41,0,.32.1.57.22.56.12,0,.23-.27.23-.58v-.02"/>
        <path class="cls-2" d="M46.07,80.05l-.02.2c0,.32.1.57.22.56.09,0,.17-.14.21-.33"/>
        <path class="cls-2" d="M46.6,84.63c.07.1.28.19.52.22.32.04.58-.03.59-.15s-.24-.26-.55-.3h-.11"/>
        <path class="cls-2" d="M48.68,85.59c.3-.09.52-.26.47-.38-.04-.12-.32-.14-.62-.05-.3.09-.52.26-.47.38.04.12.32.14.62.05Z"/>
        <path class="cls-2" d="M48.91,78.48c.25-.2.38-.44.3-.53-.08-.09-.35,0-.6.19-.25.2-.38.44-.3.53.08.09.35,0,.6-.19Z"/>
        <path class="cls-2" d="M45.66,81.87c.16.27.38.44.48.37.1-.07.06-.35-.1-.62-.16-.27-.38-.44-.48-.37s-.06.35.1.62Z"/>
        <path class="cls-2" d="M47.56,79.02c.07-.29.04-.55-.07-.57-.08-.02-.19.08-.28.25"/>
        <polyline class="cls-2" points="47.92 80.58 47.94 80.45 48.31 80.11"/>
        <path class="cls-3" d="M52.51,81.19l1.69-1.25c.24-.14.45-.02.54.08"/>
        <path class="cls-3" d="M54.28,81.43s0-.21-.03-.38c-.04-.18-.45-.56-.53-.55l-.6.76"/>
        <path class="cls-2" d="M54.56,81.48s.15-.4.42-.59"/>
        <path class="cls-3" d="M52.84,83.03l.57.57h.15s.42-.41.45-.54"/>
        <path class="cls-3" d="M52.47,83l1.45,1.2c.17.14.56.06.64-.06.21-.33.25-.6.33-1,0-.1-.08-.09-.08-.09l-3.73-.13c-.16-.04-.12-.25-.12-.25l-.09-1.25c-.03-.19.14-.41.45-.39.3.02,3.74.52,3.74.52v-.06"/>
        <path class="cls-3" d="M46.96,80.94s-.04.58.1.78c.14.21.39.16.39.16"/>
        <path class="cls-3" d="M47.34,77.3l2.38-3.66c.34-.45.74-.57,1.11-.66.37-.1,1.67-.2,1.67-.2"/>
        <path class="cls-2" d="M47.2,76.31l2.25-3.47c.34-.45.74-.57,1.11-.66.37-.1,1.67-.2,1.67-.2"/>
        <path class="cls-3" d="M56.63,70.67v.1c-.09.12-.38.16-.45.24l.09.51-.5.15.13.47-.39.62-.29.63s-.02.1-.16.16c-.28.1-.7.78-.7.78,0,0-2.05,3.94-2.47,5.18l-.77,1.52s-.15.1-.21.23c-.05.12-.06.29-.06.29l-.69,1.36c-.12.22-.42.32-.68.21l-1.16-.66c-.15-.14-.14-.46-.05-.65.09-.19,1.7-3.22,1.7-3.22.14-.21.7-1,.72-1.06"/>
        <path class="cls-3" d="M56.96,69.78s.02.19-.02.29c-.05.1-.36.12-.42.2-.06.08.08.27.11.4"/>
        <path class="cls-3" d="M52.17,74.57l.72-1.51c.06-.22.07-.53.08-.67.01-.14.37-.8.37-.8-.02-.1,0-.2,0-.2l.21-.39c.05-.09.41-.11.46-.22.04-.09-.15-.31-.1-.48.05-.16.45-.1.49-.21.03-.1-.16-.3-.1-.51.06-.21.38-.1.44-.23.06-.13-.16-.31-.09-.45.07-.14.44-.16.5-.23.06-.07-.22-.34-.14-.5.08-.16.44-.16.49-.24.05-.08-.16-.32-.12-.44.05-.12.16-.11.16-.11"/>
        <path class="cls-2" d="M54.13,74.22c-.92,1.82-4.12,8.13-4.18,8.25-.1.19-.23.28-.53.17,0,0-.42-.18-.68-.37,0,0-.14-.11-.05-.36l.44-.9,3.91-7.35"/>
      </g>
      <line class="cls-3" x1="49.71" y1="79.02" x2="50.51" y2="77.38"/>
      <g class="cls-29">
        <path class="cls-3" d="M56.61,70.62l.03.07c-.05.09-.6-.1-1.24-.42-.64-.32-1.12-.66-1.07-.75h.01"/>
        <path class="cls-3" d="M55.87,72.07l.04.05c-.03.05-.56-.17-1.2-.49-.64-.32-1.13-.63-1.11-.68h.01"/>
        <path class="cls-3" d="M55.59,72.68c-.03.05-.55-.18-1.18-.51-.62-.34-1.11-.65-1.08-.7h.01"/>
        <path class="cls-3" d="M55.13,73.5c-.03.05-.53-.17-1.12-.49-.59-.32-1.05-.62-1.03-.67h.01"/>
        <path class="cls-3" d="M56.24,70.95c-.23-.07-.58-.21-.95-.4-.37-.19-.69-.38-.88-.53"/>
        <path class="cls-3" d="M56.94,69.91l.03.07c-.04.09-.58-.1-1.21-.41-.62-.32-1.09-.64-1.04-.73h.01"/>
        <path class="cls-3" d="M56.56,70.23c-.23-.07-.57-.21-.94-.4-.37-.19-.68-.38-.87-.52"/>
        <path class="cls-3" d="M56.47,69.02c-.11-.05-.23-.11-.35-.17-.62-.31-1.09-.64-1.04-.73h.01"/>
        <path class="cls-3" d="M56.61,69.39c-.18-.07-.4-.17-.62-.28-.37-.19-.68-.38-.87-.52"/>
        <path class="cls-3" d="M55.74,67.74c-.2-.14-.32-.25-.29-.29h.02"/>
        <path class="cls-3" d="M56.03,68.26c-.23-.13-.42-.25-.55-.35"/>
        <path class="cls-3" d="M55.84,71.61c-.23-.07-.58-.21-.95-.4-.37-.19-.69-.38-.88-.53"/>
        <path class="cls-3" d="M56.29,71.41c-.05.09-.6-.1-1.24-.43-.64-.33-1.12-.66-1.07-.75"/>
      </g>
      <line class="cls-3" x1="57.65" y1="73.38" x2="58.47" y2="72.35"/>
      <line class="cls-3" x1="58.74" y1="72.77" x2="58.02" y2="73.69"/>
      <g class="cls-14">
        <path class="cls-2" d="M54.24,79.97c.18.44.3.91.34,1.41"/>
        <path class="cls-2" d="M54.41,83.09c-.11.38-.27.73-.46,1.07"/>
      </g>
      <line class="cls-2" x1="53.14" y1="83.04" x2="53.51" y2="83.6"/>
      <g class="cls-25">
        <path class="cls-3" d="M103.43,82.63c-.04-.37-.06-.8-.07-1.17"/>
        <path class="cls-3" d="M103.7,83.95v.14c1.25,4.78,5.59,8.31,10.76,8.31,6.13,0,11.1-4.97,11.1-11.1,0-4.29-2.58-7.76-6.01-9.86-.19-.12-1.8-.82-1.8-.82,0,0,4.85,2.14,5.04,2.3.2.16,4.17,6.47,4.17,6.47.76,1.06,2.34,1.63,2.62,1.7.28.07.78.07.78.07l-.02-.51c0-.11-.5-.11-1.51-1.03-.11-.07-.25-.22-.25-.22,0-.04.21.05.21-.05s-.03-1.28-.03-1.28c-.01-.19-.22-.26-.22-.26l-.39-.19-.16-.39.6-.39.25.69.14-.09-2.15-5.65.21-.06-.16-.4-.22.05-.12-.28-.28.04-.55.18"/>
        <path class="cls-3" d="M104.55,83.01c-.06-.37-.09-.71-.11-1.1"/>
        <path class="cls-3" d="M115.78,71.34c4.93.65,8.73,4.86,8.73,9.97,0,5.55-4.5,10.06-10.05,10.06-4.53,0-8.37-3-9.62-7.12"/>
        <path class="cls-3" d="M105.62,76.11c.41-.68.91-1.31,1.49-1.9.24-.24.49-.47.75-.68"/>
        <line class="cls-3" x1="106.35" y1="82.59" x2="106.31" y2="82.33"/>
        <path class="cls-3" d="M115.21,73.13c4.18.38,7.46,3.9,7.46,8.18,0,4.53-3.67,8.21-8.21,8.21-3.32,0-6.18-1.97-7.47-4.8"/>
        <path class="cls-3" d="M115.13,73.12c4.22.34,7.54,3.88,7.54,8.18,0,4.53-3.67,8.21-8.21,8.21-3.31,0-6.17-1.96-7.47-4.79"/>
        <path class="cls-3" d="M108.4,75.76c.97-1.06,2.21-1.86,3.61-2.3"/>
        <path class="cls-2" d="M108.85,76.25c.9-1,2.07-1.76,3.39-2.16"/>
        <path class="cls-2" d="M115.4,73.82c3.72.46,6.6,3.64,6.6,7.49,0,4.17-3.38,7.55-7.55,7.55-2.79,0-5.27-1.61-6.58-3.85"/>
        <path class="cls-2" d="M115.55,74.37c3.31.55,5.83,3.42,5.83,6.89,0,3.86-3.12,6.98-6.98,6.98-1.68,0-3.23-.6-4.43-1.59"/>
        <path class="cls-2" d="M109.47,76.32c.8-.8,1.79-1.4,2.9-1.74"/>
        <path class="cls-3" d="M108.67,83.77c-.07-.16-.11-.28-.17-.45"/>
        <path class="cls-3" d="M115.72,75.14c2.81.61,4.91,3.11,4.91,6.1,0,3.45-2.79,6.24-6.24,6.24-1.5,0-2.88-.53-3.96-1.42"/>
        <path class="cls-3" d="M126.44,72.6c0,.81-.66,1.47-1.47,1.47s-1.46-.66-1.46-1.47.66-1.46,1.46-1.46,1.47.66,1.47,1.46Z"/>
        <path class="cls-3" d="M100.35,82.66c0,.24-.2.44-.44.44s-.44-.2-.44-.44.2-.44.44-.44.44.2.44.44Z"/>
        <path class="cls-2" d="M100.15,82.65c0,.13-.11.24-.24.24s-.24-.11-.24-.24.11-.24.24-.24.24.11.24.24Z"/>
        <path class="cls-2" d="M126.27,72.6c0,.72-.58,1.3-1.3,1.3s-1.3-.58-1.3-1.3.58-1.3,1.3-1.3,1.3.58,1.3,1.3Z"/>
        <path class="cls-2" d="M109.62,86.28c0,.09-.07.17-.17.17s-.17-.07-.17-.17.07-.16.17-.16.17.07.17.16Z"/>
        <path class="cls-2" d="M110.84,84.97c-.05.37-.14.66-.2.65-.06,0-.07-.31-.02-.68.05-.37.14-.66.2-.65.06,0,.07.31.02.68Z"/>
        <path class="cls-3" d="M107.5,76.47c-.1.17-.13.36-.2.44l-.23-.06c-.09-.08-.09-.39.17-.87l.04-.19.09-.03.07-.09.05-.15.13-.05.07-.08.08-.16.15-.04.09-.06.1-.13h.18c.19-.1.34-.14.4-.14.11,0,.18.08.12.22-.1.24-.36.4-.47.48"/>
        <path class="cls-3" d="M107.5,76.57s-.02-.2,0-.32c.03-.12.36-.67.58-.8.23-.13.27-.06.25-.01"/>
        <path class="cls-3" d="M108.36,75.44l.11,8.47s-.01.25-.11.42c-.34.64-.99.41-1.13.22-.08-.12.03-.32.03-.32.06-.1.25.01.31-.3.06-.31-.07-7.37-.07-7.37"/>
        <path class="cls-3" d="M107.58,81.13l-.58-.03c-.15-.01-.16.13-.16.13,0,0-.31,1.45-1.04,2.11-.1.1-.09.4.02.46.1.06,1.24.44,1.5.37"/>
        <path class="cls-3" d="M110.67,85.63l-.73.97c-.24.26-.7.27-.81.06-.11-.21-.64-1.53-.64-1.53l-.66-.16-.06-.19.05.2,2.85.65"/>
      </g>
      <line class="cls-3" x1="108.47" y1="83.74" x2="110.82" y2="84.28"/>
      <g class="cls-9">
        <path class="cls-3" d="M103.18,82.68l-.66-.31v-.99s-.05-.03-.05-.03l-.04-.62s.4.62.91.7"/>
      </g>
      <line class="cls-3" x1="105.8" y1="83.34" x2="104.02" y2="82.91"/>
      <g class="cls-10">
        <path class="cls-3" d="M108.44,76.43l8.87.74c1.05.06,1.63.71,1.65,1.67.02.96-.02,2.51-.29,3.17-.27.67-.92,1.23-2.17,1.17-.8-.04-5.04-.44-8-.72"/>
        <path class="cls-3" d="M106.48,82.27c-.58-.06-.93-.09-.93-.09-1.04-.1-2.54-.9-2.71-1.13-.2-.3-.36-.94-.36-.94-.04-.52.49-1.04.49-1.04l2.63-2.8c.09-.1.26-.06.26-.06l1.13.09"/>
        <path class="cls-2" d="M106.76,81.42c-.16-.01-.34-.04-.34-.04-.87-.07-3.79-1.13-3.93-1.28"/>
        <path class="cls-2" d="M108.39,77.28l8.38.8c.87.04,1.16.41,1.17,1.06.02.65-.06,1.67-.24,2.14-.18.46-.37.94-1.61.86-.71-.04-4.99-.39-7.61-.6"/>
        <path class="cls-3" d="M108.44,77.8l8.16.67c.65.03.87.31.89.8.01.49-.12,1.24-.18,1.62-.05.26-.09.69-1.02.63-.54-.03-5.84-.48-7.83-.64"/>
        <polyline class="cls-2" points="104.95 77.01 105.17 76.97 107.52 77.19"/>
        <path class="cls-3" d="M107.5,80.8s-1.39-.16-2.12-.32c-.92-.19-2.73-.97-2.73-.97"/>
        <path class="cls-3" d="M104.6,77.34s.6.16,2.94.34"/>
        <path class="cls-3" d="M112.53,75.85s-.12.02-.21.14c-.09.12-.27.57-.43.57s-1.54-.08-1.54-.08c.63-.54,1.37-.95,2.18-1.2"/>
        <path class="cls-3" d="M116.05,76s.15.06.13.19c-.01.13-.01.82.71.96"/>
        <path class="cls-3" d="M112.8,75.8c.02.1.72.04,1.56-.15.53-.11.99-.25,1.25-.36"/>
        <path class="cls-2" d="M125.67,74s2.06,4.97,2.96,5.83c.76.73,1.47.8,1.47.8"/>
        <polygon class="cls-3" points="126.41 73.01 127.69 76.42 128.41 76.4 127.02 72.72 126.88 72.74 126.78 72.78 126.41 73.01"/>
      </g>
      <line class="cls-3" x1="126.31" y1="71.18" x2="126.82" y2="72.68"/>
      <g class="cls-27">
        <path class="cls-3" d="M128.15,77.66l-.19.11c.02.09.41,1.4.64,1.61"/>
        <polyline class="cls-2" points="128.09 77.97 128.62 78.04 128.66 78.11 128.73 79.38"/>
      </g>
      <line class="cls-2" x1="121.65" y1="69.5" x2="123.97" y2="71.31"/>
      <g class="cls-17">
        <path class="cls-3" d="M123.48,68.74s.34.29.89.38c.43.07,3.32.52,3.32.52.15.04.2.18.2.18l.3.55c.04.13-.13.13-.13.13l-2.39.31c-.2.11,0,.45,0,.45l-.36-.12-1.89-2.42.06.02Z"/>
      </g>
      <line class="cls-2" x1="127.74" y1="76.54" x2="127.97" y2="77.13"/>
      <g class="cls-18">
        <path class="cls-3" d="M115.09,73.8h.19s.03,0,.03,0l.1.05c.02.1-.64.33-1.48.52-.84.18-1.56.27-1.55.16.01-.16.16.61.16.61l.28.67c-.17,0-.28.02-.28.04,0,.05.78.12,1.75.16.97.04,1.76.04,1.76-.01,0-.02-.12-.04-.32-.06-.02-.1,0-.22,0-.22l-.23-1.42-.09-.43"/>
        <path class="cls-3" d="M104.68,83.59c.12,0,2.11.51,2.11.51"/>
        <path class="cls-3" d="M105.74,83.72s-.91-.26-1.06-.27"/>
      </g>
      <line class="cls-3" x1="103.56" y1="83.48" x2="103.42" y2="84.04"/>
      <g class="cls-22">
        <path class="cls-2" d="M70.74,46.29c.02.2-.01.33-.08.29-.05-.03-1.57-.8-3.43-1.9-1.86-1.1-3.35-2.04-3.32-2.09.02-.03-.02-.08.67.01"/>
        <path class="cls-3" d="M63.91,42.59s-3.75,3.8-7.36,8.86c-1.22,1.65-2.41,3.36-2.41,3.43l.07.1,3.67.1c.23.01.18.22.15.33-.04.11-.2.74-.2.74-.17.39-.48.39-.48.39-.37.09-.99.31-.99.31-.26.16-.41.26-.52.65-.11.39-.73,3.17-.73,3.17-.14.58-.85.8-1.22.85-.37.05-1.7-.04-1.7-.04-.11.05-.11.2-.11.2l-.02,1.14c-.01.4.18.76.25.81-.27,0-.21.38-.11.43.1.05.66.07.93.26.64.44,2.35,3.06,2.35,3.06l9.68,16.09c.45.9.56.93.69.93s30.38-.32,30.38-.32c.58,0,1.65-1.25,1.83-1.7.19-.45.58-1.38,1.22-1.46.64-.08.98.05,1.28-.03.29-.08.4-.85.4-.85,0,0,.64.03.85-.19.21-.21,4.28-4.49,4.49-4.78.21-.29.77-1.49.77-1.49,0,0,3.11-.26,6-1.49,1.94-.77,10.15-3.37,10.15-3.37.58-.13.61-.32.69-.45.08-.13.08-1.22.08-1.22-.21-.32-.4-.69-.45-1.04-.05-.35-.24-1.22-.24-1.22l.11-.08-1.06-3.85-.74-3.03c-.05-.35-.29-.35-.29-.35l-2.04-.48s-1.04-.22-1.31-.19c-.13,0,0-.31,0-.31.16,0,.68-.03.74-.16.06-.13-.01-.7-.01-.7"/>
        <path class="cls-3" d="M54.07,55.14s3.51.06,3.69.07c0,0,.1.02.1.16,0,0-.1.37-.23.71-.14.34-.63.32-.81.34-.18.02-.85.09-1.14.76,0,0-.61,2.54-.74,3.08-.12.54-.31,1.03-.99,1.03h-1.64s-.09.02-.09-.09c0,0,.32-1.73.46-2.42.49-2.49,1.25-3.59,1.25-3.59-.03.03.05-.07.15-.07Z"/>
        <path class="cls-3" d="M118.12,53.86s-.56-1.59-1.2-1.6c-.64-.01-6,.36-11.56,1.15-1.26.41-2.91,1.1-5.98,1.36-3.07.25-9.6-.02-11.6-.4-1.23-.05-1.89.68-2.17,1.84-.92,3.32-.42,5.07-.29,5.31.11.1.41-.02.41-.02.18-.07.75-.33.85-.29.1.04-.3,1.15-.17,1.21.13.06.38.28.12.33-.25.05-.3.04-.29.19.01.16.34,2.02.34,2.02-.16-.02-.36-.06-.34.06.02.12.17.13.17.23s.05.13.12.07l.15.04,1.02,6.34c.15.81-.29,2.11-1.84,2.2-1.55.1-15.72,1.33-15.72,1.33-1.03.02-1.13-.45-1.17-1.38-.05-.93-1.09-5.98-1.09-5.98-.08-.22-.27-.33-.27-.33l-1.48-6.65c-.07-.71.07-1.89.07-1.89v-.19s1.67-4.47,1.67-4.47h-.17s.45-1.17.45-1.17c.07-.11.24-.12.24-.12.18-.05.28,0,.39-.12.11-.12.98-2.57.98-2.57.07-.22-.04-.33-.17-.31.02-.17.07-.33-.1-.39-.1-.04-.01-.23-.01-.23,0,0,.54-1.54.64-1.79.1-.25.32-.56.4-.66s.18-.39.18-.39"/>
        <path class="cls-3" d="M117.92,56.62s.62.06.88-.07c.26-.14.8-.44.72-.98"/>
        <path class="cls-3" d="M119.32,57.03s.93-.65,1.37-1.29.87-5.49.87-5.49"/>
      </g>
      <line class="cls-3" x1="120.72" y1="50.28" x2="120.12" y2="53.67"/>
      <g class="cls-31">
        <path class="cls-3" d="M120.41,50.24h1.35c.27-.02.3-.25.3-.25l.57-6.3c0-.19-.02-.15-.14-.23h-.28s-.68-.44-1.48-.16c-.8.28-1.52,1.17-1.8,3.42-.24,1.93.32,3.4,1.49,3.52Z"/>
        <path class="cls-3" d="M121.76,50.24s.3-.14.02-.21c-.28-.07-1.33,0-1.91-.65-.68-1.06-.54-4,.39-4.95.73-.75,1.4-.84,2.34-.86"/>
        <path class="cls-3" d="M107.35,57.98v-.21s.08,0,.08,0c0,0,.02,1.02.34,1.02s2.83-.14,2.91-.32c.1-.15-.02-1.04-.02-1.04h-.12s.03.88.03.88"/>
        <path class="cls-3" d="M110.66,58.32s-.36.16-.36-.03c0-.29-.13-1.43.92-1.69,1.05-.26,9.36-1.18,9.36-1.18.2-.03.24-.26.24-.26,0,0,.2-1.27.15-1.46-.03-.11-.32-.08-.32-.08,0,0-5.01.57-8.31.89-1.77.15-3.96.03-4.23,1.7-.28,1.3-.42,2.17-.29,2.5"/>
      </g>
      <line class="cls-3" x1="110.71" y1="57.67" x2="117.88" y2="56.81"/>
      <g class="cls-38">
        <path class="cls-2" d="M107.35,57.99s-11.28,1.26-14.12,1.94c-2.84.68-4.41,1.12-5.13,1.53-.68.26-.37,1.46-.37,1.46l1.07,8.55c.15,1.62-.81,2.09-2.22,2.32"/>
        <path class="cls-3" d="M86.58,61.21s6.88-1.75,9.86-1.85"/>
      </g>
      <line class="cls-3" x1="87.02" y1="61.11" x2="87.02" y2="61.56"/>
      <g class="cls-33">
        <path class="cls-2" d="M96.16,59.41s-4.01.33-9.34,2.29c-.21.13-.2.87-.2.87"/>
        <path class="cls-3" d="M86.73,61.79s1.51-.13,3.44-.53c1.48-.23,1.93-.43,1.93-.43.18-.08.15.25.15.25l2.16,11.73c.43.78.83,1.26,1.31,1.26s3.17-.05,3.17-.05"/>
        <path class="cls-3" d="M92.36,61.48s0-.45.25-.53c.25-.08,3.42-.55,3.42-.55.4-.05.53.1.55.33.03.23,2.44,13.31,2.44,13.31,0,0,7.22-.39,8.07-.44"/>
        <path class="cls-3" d="M88.24,61.38s14.22-2.16,23.18-2.86c8.97-.7,9.92-.7,10.05-.93"/>
        <path class="cls-2" d="M116.84,58.4s.35.7.85.8c.5.1,2.24.38,2.24.38.53.08.58.68.58.68l1.76,6.76c.23.83-.4,1.36-.85,1.53-.45.18-11.55,3.72-11.55,3.72-1.23.48-2.49.5-2.49.5,0,0-8.44.5-8.54.28"/>
        <path class="cls-3" d="M96.48,60.45s18.91-2.06,21.02-2.13c1.51-.13,3.22-.28,3.34-.18.13.1,2.24,8.16,2.24,8.16.1.33-.05.43-.05.43l-.63.33"/>
        <path class="cls-3" d="M120.84,58.14l-.18.28c-.12.2-.03.48-.03.48l2.06,7.58c.08.28.4.1.4.1"/>
      </g>
      <line class="cls-3" x1="122.7" y1="66.61" x2="122.27" y2="67.01"/>
      <g class="cls-12">
        <path class="cls-3" d="M120.54,58.57s-10.12.18-23.91,2.29"/>
        <polygon class="cls-2" points="97.44 71.61 97.36 71.55 95.55 61.16 95.61 61.07 95.71 61.14 97.51 71.52 97.45 71.61 97.44 71.61"/>
        <polygon class="cls-2" points="96.35 71.82 96.27 71.75 94.46 61.37 94.53 61.28 94.62 61.34 96.43 71.73 96.36 71.82 96.35 71.82"/>
        <polygon class="cls-2" points="95.32 72.01 95.24 71.94 93.43 61.56 93.5 61.47 93.59 61.53 95.4 71.92 95.33 72.01 95.32 72.01"/>
        <path class="cls-3" d="M102.28,79.39s-.25.84.07,1.29l-1.48-.15"/>
        <path class="cls-3" d="M101.27,81.19l.06-.61s.07.12.59.16c.52.04.46-.02.46-.02"/>
        <path class="cls-3" d="M102.46,81.26c-.36.2-1.19-.06-1.19-.06l-.13.07v.47"/>
        <path class="cls-3" d="M102.53,81.37c-.77.14-1.39-.1-1.39-.1"/>
        <path class="cls-3" d="M100.97,81.74l.02-.92c.02-.16.17-.25.17-.25"/>
      </g>
      <polygon class="cls-3" points="98.5 82.74 98.89 82.75 99.01 82.88 98.82 83.82 98.32 83.82 98.5 82.74"/>
      <polygon class="cls-3" points="98.45 83.64 98.71 83.65 98.85 82.88 98.59 82.88 98.45 83.64"/>
      <line class="cls-3" x1="98.71" y1="83.65" x2="98.77" y2="83.79"/>
      <line class="cls-3" x1="98.43" y1="83.66" x2="98.33" y2="83.81"/>
      <line class="cls-3" x1="98.82" y1="82.89" x2="99.01" y2="82.88"/>
      <g class="cls-35">
        <path class="cls-3" d="M97.11,83.63s1.19.35,1.78.34c.59-.01,1.82-.31,1.82-.31.11-.07.42.03.51.02l.19-.09,2.05.46.03-.14,4.32.97"/>
        <path class="cls-3" d="M52.32,63.64s.73.05.96.24c.23.19,1.72,2.01,2.77,3.74,1.05,1.73,8.71,14.65,8.71,14.65.82,1.23,1.88,1.27,2.41,1.28.52.01,8.58-.42,8.58-.42,1.14-.06,1.19-.29,1.67-.64s.91-.73,1.86-.81c.95-.08,3.04-.08,3.6-.26.56-.18,1.59-.53,2.01-.54.42-.01,16.08-.83,16.08-.83"/>
        <path class="cls-3" d="M76.52,83s.5-2.2,1.62-2.6c1.11-.4,4.32-.58,4.98-.61.66-.03,1.43,1.17,1.67,1.14"/>
      </g>
      <line class="cls-3" x1="78.11" y1="80.54" x2="78.61" y2="81.65"/>
      <line class="cls-3" x1="83.17" y1="79.9" x2="82.77" y2="81.25"/>
      <line class="cls-3" x1="76.2" y1="83.11" x2="76.17" y2="84.25"/>
      <line class="cls-3" x1="76.41" y1="83.11" x2="76.38" y2="84.25"/>
      <g class="cls-11">
        <path class="cls-3" d="M78.74,81.76l-.04,1.8c.06.08.21.1.3.04.1-.07,2.2.06,2.2.06,0,0,.05-.29.15-.35.1-.06.42,0,.5-.04l.1-.27,4.74.15s.04-.1.03,0c0,.11.04.22.13.21h1.53s.21.09.21.09h.65s.31-.31.31-.31l.31-.05s.25-.44.24-.89c0-.45-.29-.76-.29-.76,0,0,.12.15-.03,0-.15-.14-.12-.12-.3-.12-.18,0-.14,0-.27-.13-.13-.14-1.15-.46-1.15-.46-.35-.02-.49.32-.49.32l-.45.72-.28-.1c-.12-.07-.31.03-.31.03l-.1.21h-4.17s-.37,0-.44-.12c-.07-.12-.06-.21-.06-.21"/>
        <path class="cls-3" d="M78.69,83.54l.23-.15c.14-.07.32-.04.32-.04l.35.02c.15,0,.15-.35.15-.35l1.27.18v.23s.2.05.2.05"/>
        <path class="cls-3" d="M80.8,81.75l-.16.12c-.09,0-.16-.05-.16-.12s.07-.12.16-.12l.16.12Z"/>
        <path class="cls-3" d="M80.93,81.61l.05.14c0,.14-.16.26-.35.26s-.35-.12-.35-.26l.03-.1"/>
        <path class="cls-3" d="M81.13,81.58l.09.23c0,.24-.26.44-.58.44s-.58-.19-.58-.44l.05-.17"/>
        <path class="cls-3" d="M81.42,81.57c.09.11.14.24.14.37,0,.39-.42.7-.93.7s-.93-.31-.93-.7c0-.1.03-.19.07-.27"/>
      </g>
      <polyline class="cls-3" points="81.76 81.69 81.71 82.79 79.67 82.72 79.69 81.97"/>
      <g class="cls-13">
        <path class="cls-3" d="M86.55,82.04s0-.14.14-.05c.13.09.11.27.29.28.18.02.71.06.71.06"/>
        <path class="cls-3" d="M86.93,81.73s.02.17.18.2c.17.03.5,0,.5,0l.15-.47s.06-.2.3-.22c.24-.03.93.35.93.35.12.05.29.12.37.24.02.03.1.09,0,.59-.1.5-.19.57-.45.65"/>
        <path class="cls-3" d="M89.22,83.41s.07,0,.25-.3c.04-.07.09-.15.14-.24.29-.54.05-1.26.05-1.26,0,0,.29.26.23.75-.07.49-.16.65-.38.74"/>
      </g>
      <line class="cls-3" x1="87.82" y1="81.91" x2="87.76" y2="82.34"/>
      <line class="cls-3" x1="86.7" y1="82.06" x2="86.71" y2="83.15"/>
      <line class="cls-3" x1="86.88" y1="82.24" x2="86.88" y2="83.35"/>
      <g class="cls-34">
        <path class="cls-3" d="M87.79,82.34s.2.04.33-.02"/>
        <path class="cls-3" d="M87.81,82s.31,0,.41-.04"/>
        <path class="cls-3" d="M88.26,81.86l-.04.97c0,.08.41.2.61.1.2-.1.35-.65.35-.65l-.92.57"/>
        <path class="cls-3" d="M87.79,81.82s.87,0,.96-.08c.1-.08.1-.28-.18-.28h-.57l-.22.35Z"/>
        <path class="cls-3" d="M82.93,81.46l2.19.23c.32.04.29.16.29.16"/>
        <path class="cls-3" d="M85.37,83.15s.09.4-.09.39c-.19-.01-3.08-.47-3.08-.47"/>
        <path class="cls-3" d="M85.11,83.16s.12.32-.05.31"/>
        <path class="cls-3" d="M84.83,83.15s.09.3-.05.3"/>
        <path class="cls-3" d="M84.56,83.12s.13.31,0,.3"/>
        <line class="cls-3" x1="84.34" y1="83.08" x2="84.31" y2="83.38"/>
        <path class="cls-3" d="M84.08,83.07s.06.29-.03.27"/>
        <line class="cls-3" x1="83.81" y1="83.07" x2="83.82" y2="83.31"/>
        <line class="cls-3" x1="83.62" y1="83.09" x2="83.6" y2="83.27"/>
        <line class="cls-3" x1="83.36" y1="83.05" x2="83.35" y2="83.24"/>
        <path class="cls-2" d="M108.42,58.73s.06-.17.35-.21c.28-.04.26.06.26.06.07.03.09-.11.51-.21.42-.1.37.07.46.07s.07-.1.28-.14"/>
        <path class="cls-3" d="M88.68,74.49v.57s.32-.11.77-.1c.46.01,4.71-.24,4.71-.24.26,0,.18-.14.18-.14l-.26-.64-.14-.08-.65.04c-.1,0-.14.12-.14.12,0,0,.06.21-.36.22-.41.01-3.88.19-3.88.19-.17,0-.23.04-.23.04Z"/>
      </g>
      <line class="cls-3" x1="89.07" y1="75" x2="89.07" y2="75.26"/>
      <line class="cls-3" x1="90.11" y1="74.97" x2="90.11" y2="75.22"/>
      <line class="cls-3" x1="89.2" y1="74.18" x2="89.2" y2="74.42"/>
      <line class="cls-3" x1="90.08" y1="74.15" x2="90.08" y2="74.32"/>
      <g class="cls-26">
        <path class="cls-3" d="M93.59,75.04l.02-.11,1.44-.09-.04-.78c0-.18-.14-.36-.72-.34-.58.02-5.61.47-5.61.47-.34.12-.29.32-.29.32l.04.81"/>
        <path class="cls-3" d="M94.08,73.95s.32-.06.59-.02c.28.04.25.31.25.31l.03.59"/>
        <path class="cls-3" d="M94.17,74.09s.33-.05.43.03c.1.08.07.58.07.58h-.32"/>
        <path class="cls-3" d="M86.1,73.89s8.31-.56,8.84-.27"/>
        <path class="cls-2" d="M66.57,44.3s.5.45.06,1.28c-.45.83-5.94,14.67-5.94,14.67-.28,2.23,1.71,5.64,1.71,5.64l4.84,9.07c.82,1.15,1.39.95,1.39.95l17.94-.95"/>
        <path class="cls-3" d="M87.01,74s.07,1.27-.74,1.31c-.8.03-.63.23-.63.23l9.16-.54c.48,0,.54.54.54.54"/>
        <path class="cls-3" d="M95.72,74.07s.29,2.33-.62,2.22l-.07-.45s.02-.3-.32-.27c0,0-4.95.32-6.09.36s-1.36.59-1.36.59c-.49.35-.63-.36-.35-.79"/>
        <path class="cls-3" d="M63.87,42.66s.5.47.86.76c.36.29,1.63,1.01,1.63,1.01.32.21.23.49.23.49-.14.43-.34.81-.34.81l-5.7,13.02c-.81,2.14-.18,4.14.36,5.43.54,1.29,5.8,11.06,5.8,11.06,1.03,1.5,2.83,1.09,4.06,1.08,1.23-.01,14.8-.86,14.8-.86"/>
        <path class="cls-2" d="M66.91,45.11s.86.5,1.26.95c.41.45.05,1.22.05,1.22l-6.94,16.01"/>
        <path class="cls-2" d="M65.61,54.35l2.94-6.75c.5-.94.86-.82,1.24-.78.38.04.63.14.63.14"/>
        <path class="cls-3" d="M67.8,54.37l-2.12-.1-1.39,3.55c-.19.69.17.88.42.92.25.04,1.47.11,1.47.11"/>
        <path class="cls-3" d="M65.86,54.31l-1.45,3.64c-.17.34.13.8.3.8"/>
        <path class="cls-2" d="M69.59,50.06s-.12.08-.19.23c-.07.16-.85,2.27-.85,2.27-.1.32-.08.46-.08.46"/>
        <path class="cls-2" d="M69.42,49.58s-1.11,2.9-1.17,3.06c-.08.24-.1.42-.04.48"/>
        <path class="cls-2" d="M69.78,50.25s-.09-.13-.17.05c-.07.19-.86,2.31-.86,2.31-.08.26.05.21.05.21"/>
        <path class="cls-3" d="M95.75,74.81l1.73-.08c.2,0,.17.13.17.13,0,0,.27,2.3.25,2.78-.02.48-.03.93-.65,1.3-.62.37-1.9,1.35-1.9,1.35"/>
        <path class="cls-3" d="M106.37,74.9l-6.54.37c-.25.04-.2.28-.2.28,0,.2.18.19.33.19s5.93-.28,5.93-.28"/>
        <path class="cls-3" d="M105.27,76.15l-5.17.29c-.33.03-.3.29-.3.29-.03.2.16.24.38.23.22-.02,4.52-.21,4.52-.21"/>
        <path class="cls-3" d="M89.67,81.31s-.03-.66.13-.56c.16.11.16.89.16.89"/>
        <path class="cls-3" d="M90.04,82.69s.13,1.39-.07,1.43c-.2.04-.16-.48-.19-.66-.03-.19-.03-.34-.03-.34"/>
        <path class="cls-2" d="M85.49,60.87s.12-.63,4.42-1.39c4.3-.76,8.93-1.39,11.19-2.54,2.26-1.15,3.37-2.8,5.64-3.06,2.26-.26,8.78-.82,9.44-1.01.61-.17.64-.36.64-.36"/>
        <path class="cls-2" d="M75,42.13c0,.21-.17.38-.38.38s-.38-.17-.38-.38.17-.38.38-.38.38.17.38.38Z"/>
        <path class="cls-2" d="M69.39,42.49c0,.22-.18.39-.39.39s-.39-.18-.39-.39.17-.39.39-.39.39.18.39.39Z"/>
        <path class="cls-2" d="M69.29,42.49c0,.16-.13.29-.29.29s-.29-.13-.29-.29.13-.29.29-.29.29.13.29.29Z"/>
        <rect class="cls-2" x="66.05" y="40.27" width=".16" height=".16" transform="translate(-9.16 58.56) rotate(-44.99)"/>
        <path class="cls-3" d="M75.4,42.05c.04.45-.3.84-.74.88-.45.04-.84-.3-.88-.74-.04-.45.3-.84.74-.88.45-.04.84.29.88.74Z"/>
        <path class="cls-3" d="M71.21,41.66c-.46-.22-.85-.71-.89-1.25-.07-.81.54-1.53,1.35-1.59.58-.05,1.02.22,1.39.67"/>
        <path class="cls-3" d="M70.53,38.53s-.18.05-.38.01c-.2-.04-.36-.11-.35-.15"/>
        <path class="cls-3" d="M70.01,38.35c-.12,0-.21,0-.22.04l-.5,1.53c-.01.07.22.17.52.23.2.04.38.05.48.03l.04-.09.09-.38.11-1.17s-.03-.06-.14-.1"/>
        <path class="cls-3" d="M67.87,38.4c-.04.21-.14.37-.22.35-.08-.01-.12-.2-.08-.41.04-.21.14-.37.22-.35.08.02.11.2.08.41Z"/>
        <path class="cls-3" d="M71.1,39.54c-.09.15-.22.24-.28.21-.06-.04-.03-.19.07-.34s.22-.24.28-.21c.06.04.03.19-.06.34Z"/>
        <path class="cls-3" d="M68,38.49c-.09.38-.29.66-.44.63-.15-.04-.2-.37-.11-.76.09-.38.29-.66.44-.63.15.04.2.38.11.76Z"/>
        <path class="cls-3" d="M74.08,40.85v-.34c0-.15-.05-.15-.05-.15h-.24"/>
        <path class="cls-3" d="M73.86,40.37c-.22-.61-.83-1.02-1.5-.97-.81.07-1.41.78-1.34,1.58.05.62.47.99.97,1.3.14.09.28.11.28.11l.79.03c.13,0,.1-.13.1-.13"/>
        <path class="cls-2" d="M72.84,42.08h-.09c-.61.06-1.15-.39-1.2-1.01-.05-.61.41-1.15,1.02-1.2.53-.04,1,.29,1.16.78"/>
        <path class="cls-2" d="M72.99,42.19l-.26.05c-.7.06-1.32-.46-1.38-1.17-.06-.7.46-1.32,1.17-1.38.66-.06,1.24.4,1.36,1.04"/>
        <path class="cls-3" d="M73.15,42.26l.92.61c.15.1.45.14.63.07.42-.15.78-.43.74-.88-.03-.3-.22-.55-.47-.67l-1.91-1.13c-.12-.06-.26-.08-.4-.07-.45.04-.78.43-.74.88.02.25.16.47.35.61l.88.58"/>
        <path class="cls-2" d="M74.58,42.98c-.48.04-.9-.32-.94-.8-.04-.48.32-.9.8-.94.18-.01.35.03.5.11"/>
        <path class="cls-3" d="M72.82,34.67c-1.02,1.21-2.01,2.5-2.09,2.71-.1.27-.22.71-.26.95-.02.12-.11.11-.22.11h-.04c-.13-.03-.24-.06-.21-.19,0-.04.16-.68.28-1.03.06-.28,1.35-1.88,2.18-2.87"/>
        <path class="cls-3" d="M67.68,37.21s.05-.08.24-.09c.19,0,2.16.62,2.16.62"/>
        <path class="cls-3" d="M68.62,37.73s.07-.03.19,0c.36.07,1.09.27,1.19.37"/>
        <path class="cls-3" d="M70.53,38.1s0,.22.24.2c.25-.02,1.11.28,1.56.61"/>
        <path class="cls-3" d="M64.55,42.61s.51.23,1.27.66l.16-.58"/>
        <path class="cls-2" d="M70.74,46.26s-1.39-.69-3.11-1.71c-1.72-1.02-3.1-1.89-3.07-1.93"/>
        <path class="cls-3" d="M72.07,42.35l-.2,1.55c-.03.35-.81.84-.81.84-.33.19-.51.03-.6.14-.09.11-.34.61-.34.61-.12.05-.56-.17-.56-.17l.02.15,1.16.78"/>
        <path class="cls-3" d="M70.52,44.84c-.52-.04-4.65-2.24-4.65-2.24-.11-.11,0-1.34.13-1.52.13-.19,1.42-1.36,1.42-1.36.12-.12.35-.11.35-.11l.08-.32h-.14v-.09s-.4-.2-.4-.2l-.06-.08.43-1.71.94.51-.38,1.7.22.09-.06.53h.99"/>
        <path class="cls-3" d="M65.89,43.27s1.31,1.06,3.67,2.05"/>
      </g>
      <line class="cls-3" x1="67.36" y1="39.77" x2="66.48" y2="39.46"/>
      <line class="cls-3" x1="67.19" y1="39.91" x2="66.44" y2="39.64"/>
      <g class="cls-8">
        <path class="cls-3" d="M67.63,37.41l-2.35,4.12c-.29.42-1.01.76-1.12.13,0,0-.1-.86-.08-1.17.02-.31.45-1.38.45-1.38,0,0,1.21-2.69,2.51-4.34.17-.17.32-.13.38-.08.06.05.49.38.54.96.06.67-.21,1.48-.21,1.48"/>
        <path class="cls-2" d="M64.17,41.66s.28.34.73-.14c.46-.48,2.73-4.81,2.73-4.81.32-.96-.19-1.98-.44-1.99"/>
      </g>
      <line class="cls-3" x1="65.4" y1="41.36" x2="65.85" y2="41.66"/>
      <g class="cls-15">
        <path class="cls-2" d="M67.78,39.61s.11-.25.22-.24.1.18.1.18c0,0-.33.19-.18.42.15.23.29.29.32.51l.02.21v.58c.01.13.31.26.31.26l.6.24c.14.04.09.13.09.13l-.1.23"/>
        <path class="cls-2" d="M69.61,40.71c.28-.02.43.15.43.23l.09.98c0,.18-.23.38-.23.38l-.57.49c-.22.15-.29.11-.29.11"/>
        <path class="cls-2" d="M68.27,40.69s.52.25,1.1.08c.58-.18.58-.29.58-.29l.08.11v.27"/>
        <path class="cls-2" d="M68.26,40.53s.83.18,1.39-.13c.1-.01.31.08.31.08"/>
      </g>
      <line class="cls-3" x1="70.11" y1="41.33" x2="70.44" y2="41.34"/>
      <g class="cls-16">
        <path class="cls-3" d="M70.32,40.34s-.2,1.18.62,1.18"/>
      </g>
      <line class="cls-3" x1="70.06" y1="40.93" x2="70.31" y2="40.93"/>
      <polyline class="cls-3" points="70.03 40.53 70.08 40.33 70.18 40.44 70.16 40.91"/>
      <g class="cls-39">
        <path class="cls-3" d="M70.5,38.47s.35-.13.73-.05"/>
        <path class="cls-2" d="M68.72,37.68l-.65-.37c-.08-.09.51.07.89.18.26.08,1.09.35,1.09.35"/>
        <path class="cls-3" d="M71.16,39.19s.17-.03.31-.02c.22.02.42.06.42.06,0,0-.69.4-1.06,1.02-.14.23-.13-.56-.03-.7"/>
        <path class="cls-3" d="M70.77,40.28s-.14.91.15,1.19"/>
        <path class="cls-3" d="M71.86,39.25s.46-.19,1.01.02"/>
        <path class="cls-2" d="M67.74,39.66s-.23.66-.01.8c.22.14.51.25.51.25"/>
        <path class="cls-2" d="M67.65,40.47l.07,1.07c.01.29.73.99.89,1.13"/>
        <path class="cls-3" d="M72.95,31.48c.16.03,1.23.41,1.23.41.51.28.23,1.18.23,1.18-.29.99-.4,1.25-.86,1.22-.47-.03-1.05-.17-1.23-.26-.18-.1-.12-1.04-.08-1.26.07-.38.29-.93.29-.93.1-.25.26-.38.43-.36Z"/>
        <path class="cls-3" d="M72.81,31.49l1.22-.26c.4-.08.54-.03.69.06.15.08,1.33.74,1.33.74.37.27.25.85.22.97-.03.12-.44,1.67-.66,1.96s-.36.52-.84.52-1.21-.21-1.21-.21c-.44-.11-.38-.88-1.16-1.21"/>
        <path class="cls-3" d="M72.03,34.78s-.3-.33-.38-.55c-.08-.22.16-1.75.16-1.75.08-.38.37-.47.37-.47l.3-.11"/>
        <path class="cls-3" d="M72.44,35.14s.78.81,1.11.94c.31.13.88.28,1.28,0,.4-.27.39-.7.39-.7"/>
        <path class="cls-2" d="M72.77,34.77s.2,1.21,1.34,1.34c.38,0,.84-.05.97-.65"/>
        <path class="cls-2" d="M74.25,31.2l1.49.85c.26.15.27.43.21.76s-.39,1.74-.62,2.06c-.35.66-1.74.44-1.9.32"/>
        <path class="cls-2" d="M68.27,41.24s.45.36,1.24.25"/>
        <path class="cls-2" d="M68.29,40.78s.13.25.81.23c.15,0,.34-.1.56-.13.1-.03.09.04.09.04v.02c-.08.17-.39.91-.54,1.19"/>
        <path class="cls-3" d="M72.48,34.35s-.02.15.33.31"/>
        <line class="cls-3" x1="112.73" y1="72.26" x2="112.65" y2="72.29"/>
        <path class="cls-3" d="M114.5,71.7c-.28.07-.5.13-.65.17,0,0-.44.13-1.12.39"/>
        <path class="cls-3" d="M112.22,72.46c.15-.06.3-.12.43-.17"/>
        <path class="cls-3" d="M114.98,73.82c-.18-.01-.52,0-.76,0"/>
        <line class="cls-3" x1="115.06" y1="73.82" x2="114.98" y2="73.82"/>
        <path class="cls-3" d="M113.07,74.24c.12-.03.26-.05.39-.08"/>
        <path class="cls-3" d="M114,74.05c.2-.04.36-.07.44-.09.26-.05.5-.11.5-.11"/>
        <path class="cls-3" d="M114,74.05c-.16.03-.35.07-.53.11"/>
        <path class="cls-3" d="M112.68,74.11s.26-.07.73-.15"/>
        <path class="cls-3" d="M114.22,73.82c.36-.07.69-.13.79-.19.18-.09.17-.22-.03-.25-.14-.03-.64-.01-.92,0"/>
        <line class="cls-3" x1="113.95" y1="73.87" x2="114.22" y2="73.82"/>
        <path class="cls-3" d="M113.95,73.87c-.16.03-.32.06-.46.08h-.07"/>
        <path class="cls-3" d="M112.97,73.8c.12-.03.25-.05.38-.08"/>
        <path class="cls-3" d="M112.97,73.8c-.28.06-.52.12-.59.15-.21.08-.12.24.01.26.07.01.41.02.68.03"/>
        <path class="cls-3" d="M113.89,73.61c.22-.04.39-.08.48-.09.26-.05.5-.11.5-.11"/>
        <path class="cls-3" d="M113.89,73.61c-.16.03-.35.07-.53.11"/>
        <path class="cls-3" d="M114.07,73.38c.35-.06.66-.13.76-.18.18-.09.17-.21-.02-.25-.13-.02-.54-.01-.82,0"/>
        <path class="cls-3" d="M112.53,73.68s.27-.07.77-.16"/>
        <path class="cls-3" d="M113.84,73.43c-.18.03-.36.06-.51.09h-.02"/>
        <line class="cls-3" x1="113.84" y1="73.43" x2="114.07" y2="73.38"/>
        <path class="cls-3" d="M113.77,73.17c.19-.04.34-.07.42-.08.26-.05.49-.11.49-.11"/>
        <path class="cls-3" d="M112.79,73.37c-.27.06-.49.11-.56.14-.21.08-.11.24.01.26.08.01.46.02.73.03"/>
        <path class="cls-3" d="M112.79,73.37c.14-.03.3-.06.45-.09"/>
        <path class="cls-3" d="M113.77,73.17c-.16.03-.35.07-.53.11"/>
        <line class="cls-3" x1="113.73" y1="73" x2="113.99" y2="72.95"/>
        <path class="cls-3" d="M112.41,73.25s.27-.07.78-.16"/>
        <path class="cls-3" d="M113.99,72.95c.33-.06.63-.12.73-.17.18-.09.17-.22-.02-.25-.13-.02-.58-.01-.85,0"/>
        <path class="cls-3" d="M113.73,73c-.18.03-.37.06-.52.09h-.02"/>
        <path class="cls-3" d="M112.71,72.94c-.29.06-.52.12-.6.15-.21.08-.11.24.01.26.07.01.4.02.67.03"/>
        <path class="cls-3" d="M112.71,72.94c.13-.03.28-.06.42-.09"/>
        <path class="cls-3" d="M113.66,72.74c-.16.03-.35.07-.53.11"/>
        <path class="cls-3" d="M114.57,72.55s-.24.06-.5.11c-.07.01-.23.04-.41.08"/>
        <line class="cls-3" x1="113.88" y1="72.09" x2="113.68" y2="72.09"/>
        <line class="cls-3" x1="113.84" y1="72.53" x2="113.62" y2="72.56"/>
        <path class="cls-3" d="M113.08,72.66h.02c.15-.03.33-.06.51-.09"/>
        <path class="cls-3" d="M113.84,72.53c.35-.06.67-.13.78-.18.18-.09.17-.21-.03-.25-.11-.02-.44-.01-.7,0"/>
        <path class="cls-3" d="M113.08,72.66c-.5.09-.77.16-.77.16"/>
        <line class="cls-3" x1="112.73" y1="72.48" x2="112.7" y2="72.48"/>
        <path class="cls-3" d="M112.73,72.48c.45-.09.97-.2,1.19-.24"/>
        <path class="cls-3" d="M112.71,72.94c-.27,0-.62-.02-.69-.03-.13-.02-.22-.17-.01-.26.08-.03.37-.1.7-.17"/>
        <path class="cls-3" d="M114.47,72.12s-.24.06-.5.11h-.06"/>
        <line class="cls-3" x1="113.88" y1="72.06" x2="113.68" y2="72.09"/>
        <path class="cls-3" d="M112.73,72.26c.1-.02.22-.04.36-.07.19-.03.39-.07.58-.1"/>
        <path class="cls-3" d="M113.88,72.06c.25-.05.46-.09.55-.14.14-.07.16-.16.07-.21"/>
        <line class="cls-3" x1="112.73" y1="72.48" x2="112.7" y2="72.48"/>
        <path class="cls-3" d="M112.7,72.48c-.16,0-.34,0-.48-.02"/>
      </g>
      <line class="cls-3" x1="113.88" y1="72.09" x2="113.92" y2="72.24"/>
      <line class="cls-3" x1="113.88" y1="72.09" x2="113.88" y2="72.06"/>
      <line class="cls-3" x1="112.7" y1="72.48" x2="112.7" y2="72.48"/>
      <line class="cls-3" x1="112.7" y1="72.48" x2="112.65" y2="72.29"/>
      <line class="cls-3" x1="113.24" y1="73.28" x2="113.19" y2="73.09"/>
      <line class="cls-3" x1="113.41" y1="73.96" x2="113.46" y2="74.15"/>
      <line class="cls-3" x1="113.08" y1="72.66" x2="113.13" y2="72.85"/>
      <line class="cls-3" x1="113.3" y1="73.52" x2="113.35" y2="73.72"/>
      <line class="cls-3" x1="113.73" y1="73" x2="113.77" y2="73.17"/>
      <line class="cls-3" x1="113.95" y1="73.87" x2="114" y2="74.05"/>
      <line class="cls-3" x1="113.66" y1="72.74" x2="113.62" y2="72.57"/>
      <line class="cls-3" x1="113.84" y1="73.43" x2="113.89" y2="73.61"/>
      <g class="cls-20">
        <path class="cls-3" d="M113.03,74.24s-.63.09-.64.28"/>
        <path class="cls-3" d="M99.39,81.77c-.01.08-.12.13-.23.11-.12-.02-.2-.1-.18-.18l.04-.22"/>
        <path class="cls-3" d="M104.6,83.47c.02-.1-.08-.21-.23-.23-.14-.02-.27.04-.29.15-.02.1.08.21.22.23.14.02.27-.04.29-.15Z"/>
      </g>
      <line class="cls-3" x1="104.41" y1="83.77" x2="104.35" y2="84.1"/>
      <line class="cls-3" x1="104.1" y1="83.69" x2="104.04" y2="84.03"/>
      <g class="cls-30">
        <path class="cls-5" d="M101.61,82.12l-.02-.13s-.13.11-.19.29c-.07.18-.09.34-.04.36l.09-.08"/>
        <polyline class="cls-5" points="101.72 82.16 101.7 82.03 101.61 82.12 101.55 82.35 101.45 82.55 101.46 82.68 101.56 82.6"/>
        <polyline class="cls-5" points="101.83 82.21 101.81 82.08 101.72 82.16 101.66 82.39 101.56 82.6 101.57 82.73 101.67 82.64"/>
        <polyline class="cls-5" points="101.94 82.25 101.92 82.12 101.83 82.21 101.77 82.44 101.67 82.64 101.69 82.77 101.78 82.69"/>
        <polyline class="cls-5" points="102.05 82.29 102.03 82.17 101.94 82.25 101.88 82.48 101.78 82.69 101.8 82.81 101.89 82.73"/>
        <polyline class="cls-5" points="102.16 82.34 102.14 82.21 102.05 82.29 101.99 82.53 101.89 82.73 101.91 82.86 102 82.77"/>
        <polyline class="cls-5" points="102.27 82.38 102.25 82.25 102.16 82.34 102.1 82.57 102 82.77 102.02 82.9 102.11 82.82"/>
        <polyline class="cls-5" points="102.38 82.43 102.36 82.3 102.27 82.38 102.21 82.61 102.11 82.82 102.13 82.95 102.22 82.86"/>
        <polyline class="cls-5" points="102.49 82.47 102.47 82.34 102.38 82.43 102.32 82.66 102.22 82.86 102.24 82.99 102.33 82.91"/>
        <polyline class="cls-5" points="102.6 82.51 102.58 82.39 102.49 82.47 102.43 82.7 102.33 82.91 102.35 83.03 102.44 82.95"/>
        <polyline class="cls-5" points="102.71 82.56 102.69 82.43 102.6 82.51 102.54 82.75 102.44 82.95 102.46 83.08 102.55 82.99"/>
        <polyline class="cls-5" points="102.82 82.6 102.8 82.47 102.71 82.56 102.65 82.79 102.55 82.99 102.57 83.12 102.66 83.04"/>
        <polyline class="cls-5" points="102.93 82.65 102.92 82.52 102.82 82.6 102.76 82.83 102.66 83.04 102.68 83.17 102.77 83.08"/>
        <polyline class="cls-5" points="103.04 82.69 103.03 82.56 102.93 82.65 102.87 82.88 102.77 83.08 102.79 83.21 102.89 83.13"/>
        <polyline class="cls-5" points="103.15 82.73 103.14 82.61 103.04 82.69 102.98 82.92 102.88 83.13 102.9 83.25 103 83.17"/>
        <polyline class="cls-5" points="103.26 82.78 103.25 82.65 103.15 82.73 103.09 82.97 102.99 83.17 103.01 83.3 103.11 83.21"/>
        <polyline class="cls-5" points="103.37 82.82 103.36 82.69 103.26 82.78 103.2 83.01 103.11 83.21 103.12 83.34 103.22 83.26"/>
        <polyline class="cls-5" points="103.48 82.87 103.47 82.74 103.37 82.82 103.31 83.05 103.22 83.26 103.23 83.39 103.33 83.3"/>
        <path class="cls-5" d="M103.58,82.78l-.1.08-.06.23-.1.2.02.13s.13-.11.19-.29c.07-.18.08-.34.04-.36Z"/>
      </g>
      <line class="cls-3" x1="103.49" y1="83.32" x2="104.16" y2="83.58"/>
      <g class="cls-21">
        <path class="cls-3" d="M103.4,83.39s.26.13.55.25c.28.12.6.14.68-.02,0,0,.15-.16-.08-.34l-.57-.25-.06.12.25.1"/>
      </g>
      <line class="cls-3" x1="99.44" y1="81.11" x2="101.59" y2="81.99"/>
      <line class="cls-3" x1="99.48" y1="81.22" x2="101.49" y2="82.07"/>
      <g class="cls-23">
        <path class="cls-3" d="M99.12,81.07c-.1,0-.27.1-.19.3s.59.39.59.39l.02-.09-.03-.05s-.44-.18-.47-.3l.03-.16c.01-.08.12-.13.23-.11.12.02.2.1.18.18l-.04.26"/>
        <path class="cls-3" d="M99.05,81.2s.17.2.41.06"/>
        <path class="cls-3" d="M69.1,52.21l.15.58c.04.11.13.04.13.04l.11-.1c.08-.03.58-.29.69-.91.1-.62-.16-.92-.16-.92l-.08.07c.02.08.25.83-.21,1.27-.26.19-.36.24-.33-.06,0-.33-.02-.75-.02-.75"/>
        <path class="cls-19" d="M78.12,55.06s2.06,13.21,2.45,13.93c.39.72.84,1.04,1.93,1.11,1.09.07,2.55-.29,2.77-1.15.21-.86-.82-4.43-.67-5.49l.09-.25c.11-.53.23-1,.32-1.25.3-.78.25-2.86.11-3.55-.13-.68-.15-2.42-.15-2.42,0,0,.42-.17.15-.38"/>
        <path class="cls-7" d="M78.12,55.06s2.06,13.21,2.45,13.93c.39.72.84,1.04,1.93,1.11,1.09.07,2.55-.29,2.77-1.15.21-.86-.82-4.43-.67-5.49l.09-.25c.11-.53.23-1,.32-1.25.3-.78.25-2.86.11-3.55-.13-.68-.15-2.42-.15-2.42,0,0,.42-.17.15-.38"/>
        <path class="cls-19" d="M76.7,42.14s-.54.86-1.74.75c0,0,.55-.44.43-.93-.12-.49-.41-.76-.98-.63-.57.13-.66.71-.62.9.04.27.11.47.41.68,0,0-.29.21-.63.22-.33,0-1.25-.59-1.26-1.44-.02-.77.62-1.18,1.12-1.32.46-.3,3.21-.32,3.21-.32"/>
        <path class="cls-7" d="M76.7,42.14s-.54.86-1.74.75c0,0,.55-.44.43-.93-.12-.49-.41-.76-.98-.63-.57.13-.66.71-.62.9.04.27.11.47.41.68,0,0-.29.21-.63.22-.33,0-1.25-.59-1.26-1.44-.02-.77.62-1.18,1.12-1.32.46-.3,3.21-.32,3.21-.32"/>
        <path class="cls-19" d="M92.21,48.37s-1.05.04-3.87.3c-2.81.25-7.57.81-8.43,1.11-.61.22-1.88,1.57-2.05,2.47-.15.8-.03,1.66.25,2.82s.76,2.49.76,2.49"/>
        <path class="cls-7" d="M92.21,48.37s-1.05.04-3.87.3c-2.81.25-7.57.81-8.43,1.11-.61.22-1.88,1.57-2.05,2.47-.15.8-.03,1.66.25,2.82s.76,2.49.76,2.49"/>
        <path class="cls-19" d="M84.2,65.85s.24-1.47.48-2.64"/>
        <path class="cls-7" d="M84.2,65.85s.24-1.47.48-2.64"/>
        <path class="cls-19" d="M103.31,49.13s.6,2.75-.22,3.99c-.82,1.24-3.04,2.05-4.29,2.02-1.25-.02-7.13-.02-8.61,0-1.48.02-4.14.68-5.08-.08-.93-.76-1.34-1.98-1.84-2"/>
        <path class="cls-7" d="M103.31,49.13s.6,2.75-.22,3.99c-.82,1.24-3.04,2.05-4.29,2.02-1.25-.02-7.13-.02-8.61,0-1.48.02-4.14.68-5.08-.08-.93-.76-1.34-1.98-1.84-2"/>
        <path class="cls-19" d="M82.09,71.26s.79.79,1.68.42c.67-.28,1.01-1,1.45-.99.44,0,.44.37.5.44.06.07.78,2.17.78,3.09v.77s-9.67,1.22-11.9.52c-1.62-.66-.51-1.89-.51-1.89l.15-.15c.12-.08.23-.11.23-.11,0,0,1.36-.53,3.2-.83"/>
        <path class="cls-7" d="M82.09,71.26s.79.79,1.68.42c.67-.28,1.01-1,1.45-.99.44,0,.44.37.5.44.06.07.78,2.17.78,3.09v.77s-9.67,1.22-11.9.52c-1.62-.66-.51-1.89-.51-1.89l.15-.15c.12-.08.23-.11.23-.11,0,0,1.36-.53,3.2-.83"/>
        <path class="cls-7" d="M95.32,21.46l-7.19-.81s.29-2.58,1.71-3.87l5.96,2.74c.44.2.73.62.72,1.08-.01.26-.12.53-.44.71-.22.13-.49.17-.75.14Z"/>
        <path class="cls-7" d="M90.88,17.27s1.91-2.36,6.15-1.14c4.25,1.22,3.73,5.07,3.73,5.07,0,0-.17,2.25-1.39,3.87-.29.38-.76.6-1.25.59l-2.3-.02c-1.11-.01-2.1-.7-2.39-1.71l-.03-.1c-.41-1.62-.62-2.65-.62-2.65"/>
        <path class="cls-7" d="M90.11,20.87l-.16,1.19s-.06.65.16,1.05c.23.41-.03,1.31-.36,1.67-.32.36.44.56.44.56l.19.46c.08.04.71.1.99,0"/>
        <path class="cls-7" d="M92.61,27.51s.21.31.54.44c.44.17.87-.09.87-.09,0,0,1.44-.99,2.17-2.21"/>
        <path class="cls-7" d="M94.83,25.43s-1.6,1.92-1.89,2.01c-.22.07-.74.15-1.33,0-.36-.18-.55-.55-.66-.89-.11-.33-.43-.72-.43-.72"/>
        <path class="cls-7" d="M94.02,27.86s.37.01.68.69c.26.58.24.87.24.87"/>
        <path class="cls-7" d="M98.57,27.38c-.16-.15-1.07-1.74-1.07-1.74"/>
        <path class="cls-7" d="M98.57,27.38c-.05.11-.49.21-1.07.48-.74.35-2.82,1.46-3.28,2.39-1.01,2.04-2.24,6.39-2.24,6.39"/>
        <path class="cls-7" d="M94.22,30.25s2.15-.99,2.5-1.26c.35-.27,1.82-1.65,1.91-1.65s2.02,1.88,2.84,3.74c.82,1.86,2.72,10.59,2.93,14.17.22,3.58-.52,3.71-.52,3.71,0,0-.86.37-1.46,0-.6-.37-2.27-.04-2.66-.04s-3.65.24-4.27-.15c-.61-.39-2.14-.54-2.81-1.34-.68-.8-1.23-.2-1.33-.92-.1-.72.66-.75.75-1.23.09-.48-.22-.99,0-1.02"/>
        <path class="cls-7" d="M96.34,30.24s-.76.18-1.06.6c-.3.42-2.98,5.89-3.73,6.34-.74.45.05,1.78-.2,2.45"/>
        <path class="cls-7" d="M90.19,39.49c.03-.18.61-1.83,1.03-1.89"/>
        <path class="cls-7" d="M88.8,39.49c0-.12.1-1.11.87-1.38.78-.27,1.05-.5,1.21-.21"/>
        <line class="cls-7" x1="88.8" y1="38.55" x2="87.6" y2="39.36"/>
        <path class="cls-7" d="M90.09,37.95s-2.23-.12-2.81,0c-.58.13-4.38.43-5.15.55-.77.12-2.62.35-2.97.69-.35.34-.52,1.36-.45,2.15.06.78.61,1.53,1.1,1.64.49.11,11.01-.08,11.88-.26.87-.19,1.91-.32,2.8-1.21,1.18-1.18,4.15-6.52,5.03-7.03"/>
        <path class="cls-7" d="M95.83,31.41s-.52.93-.56,2.46"/>
        <path class="cls-7" d="M98.27,35.97s1.14-.9,1.56-.81"/>
        <path class="cls-7" d="M79.05,39.33s-1.89.05-2.31.55c-.4.47-.34,1.71-.04,2.26.29.55,2.59.51,2.59.51"/>
        <path class="cls-7" d="M93.78,41.87s1.19,1.88,3.3,2.98c2.11,1.1,4.27,1.55,4.44,2.05"/>
        <path class="cls-7" d="M91.18,42.78s-.29.61.17.92c.45.31,1.54,1.09,1.54,1.39"/>
        <path class="cls-7" d="M93.93,45.73s1.13.96,3.01,1.26c1.88.3,2.31.71,2.31.71"/>
        <path class="cls-7" d="M94.57,45.89s2.55.79,3.7.37"/>
        <path class="cls-7" d="M92.68,47.44s-.55.28-.7.58-.72.17-.72.41"/>
        <path class="cls-7" d="M103.31,49.13s.6,2.75-.22,3.99c-.82,1.24-3.04,2.05-4.29,2.02-1.25-.02-7.13-.02-8.61,0-1.48.02-4.14.68-5.08-.08-.93-.76-1.34-1.98-1.84-2"/>
        <path class="cls-7" d="M85.46,55.26s0,.28-.34.35c-.35.07-.77.46-3.03-.65"/>
        <path class="cls-7" d="M85.12,55.61s-1.08.3-1.12.76"/>
        <path class="cls-7" d="M95.85,49.23s2.62,1.17,2.85,2.17"/>
        <path class="cls-7" d="M95.53,49.53s1.58,1.2,1.42,1.86"/>
        <path class="cls-7" d="M98.89,48.96s-.42.68-.99.87c-.57.19-1.17.72-1.31.63-.14-.09-.83.81-2.01.72-1.18-.09-4.61.42-6.77.21-2.17-.21-4.28.16-4.75.31-.73.23-1.21.58-1.4,1.66-.18,1.08.17,1.15.05,1.61-.12.45-.3.48-.06,1.26.23.78-.05,2.95.06,3.96.11,1,1.14,6.83,1.37,7.7.23.87.54,1.95.21,2.22"/>
        <path class="cls-7" d="M82.09,71.26s.79.79,1.68.42c.67-.28,1.01-1,1.45-.99.44,0,.44.37.5.44.06.07.78,2.17.78,3.09v.77s-9.67,1.22-11.9.52c-1.62-.66-.51-1.89-.51-1.89"/>
        <path class="cls-7" d="M86.51,74.21s-4.41.72-8.92.92c-1,.04-3.1-.12-3.45-.77-.27-.51-.08-.78.11-.91"/>
        <path class="cls-7" d="M81.71,70.88s.07-.68,0-.9"/>
      </g>
      <line class="cls-7" x1="85.04" y1="69.36" x2="85.23" y2="70.68"/>
      <g class="cls-37">
        <path class="cls-7" d="M83.44,49.2s6.05-1.13,6.77-1.18c.72-.05,1.77-.31,1.77-.31l.61-.37"/>
        <path class="cls-41" d="M91.13,23.31c0,.15-.08.27-.17.27s-.17-.12-.17-.27.08-.27.17-.27.17.12.17.27"/>
        <path class="cls-41" d="M90.28,22.33l.06-.08c.2-.05.77-.21,1.2.36.07.09-.14.22-.23.09-.09-.1-.2-.27-.46-.29-.16-.02-.26,0-.41.01l-.16-.09Z"/>
        <path class="cls-19" d="M82.09,71.26s-.07-.44-.56-.37c-.49.07-3.56,1.62-3.85,1.62-.29,0,.16.96.81.62.65-.34,3.61-1.87,3.61-1.87"/>
        <path class="cls-7" d="M82.09,71.26s-.07-.44-.56-.37c-.49.07-3.56,1.62-3.85,1.62-.29,0,.16.96.81.62.65-.34,3.61-1.87,3.61-1.87Z"/>
        <path class="cls-28" d="M162.81,0h-.78l-.12.12.12.12h.78V0ZM161.25,0h-.78l-.12.12.12.12h.78l.12-.12-.12-.12M159.7,0h-.78l-.12.12.12.12h.78l.12-.12-.12-.12M158.14,0h-.78l-.12.12.12.12h.78l.12-.12-.12-.12M156.59,0h-.78l-.12.12.12.12h.78l.12-.12-.12-.12M155.03,0h-.78l-.12.12.12.12h.78l.12-.12-.12-.12M153.47,0h-.78l-.12.12.12.12h.78l.12-.12-.12-.12M151.92,0h-.78l-.12.12.12.12h.78l.12-.12-.12-.12M150.36,0h-.78l-.12.12.12.12h.78l.12-.12-.12-.12M148.81,0h-.78l-.12.12.12.12h.78l.12-.12-.12-.12M147.25,0h-.78l-.12.12.12.12h.78l.12-.12-.12-.12M145.69,0h-.78l-.12.12.12.12h.78l.12-.12-.12-.12M144.14,0h-.78l-.12.12.12.12h.78l.12-.12-.12-.12M142.58,0h-.78l-.12.12.12.12h.78l.12-.12-.12-.12M141.03,0h-.78l-.12.12.12.12h.78l.12-.12-.12-.12M139.47,0h-.78l-.12.12.12.12h.78l.12-.12-.12-.12M137.91,0h-.78l-.12.12.12.12h.78l.12-.12-.12-.12M136.36,0h-.78l-.12.12.12.12h.78l.12-.12-.12-.12M134.8,0h-.78l-.12.12.12.12h.78l.12-.12-.12-.12M133.25,0h-.78l-.12.12.12.12h.78l.12-.12-.12-.12M131.69,0h-.78l-.12.12.12.12h.78l.12-.12-.12-.12M130.13,0h-.78l-.12.12.12.12h.78l.12-.12-.12-.12M128.58,0h-.78l-.12.12.12.12h.78l.12-.12-.12-.12M127.02,0h-.78l-.12.12.12.12h.78l.12-.12-.12-.12M125.47,0h-.78l-.12.12.12.12h.78l.12-.12-.12-.12M123.91,0h-.78l-.12.12.12.12h.78l.12-.12-.12-.12M122.35,0h-.78l-.12.12.12.12h.78l.12-.12-.12-.12M120.8,0h-.78l-.12.12.12.12h.78l.12-.12-.12-.12M119.24,0h-.78l-.12.12.12.12h.78l.12-.12-.12-.12M117.69,0h-.78l-.12.12.12.12h.78l.12-.12-.12-.12M116.13,0h-.78l-.12.12.12.12h.78l.12-.12-.12-.12M114.57,0h-.78l-.12.12.12.12h.78l.12-.12-.12-.12M113.02,0h-.78l-.12.12.12.12h.78l.12-.12-.12-.12M111.46,0h-.78l-.12.12.12.12h.78l.12-.12-.12-.12M109.91,0h-.78l-.12.12.12.12h.78l.12-.12-.12-.12M108.35,0h-.78l-.12.12.12.12h.78l.12-.12-.12-.12M106.79,0h-.78l-.12.12.12.12h.78l.12-.12-.12-.12M105.24,0h-.78l-.12.12.12.12h.78l.12-.12-.12-.12M103.68,0h-.78l-.12.12.12.12h.78l.12-.12-.12-.12M102.13,0h-.78l-.12.12.12.12h.78l.12-.12-.12-.12M100.57,0h-.78l-.12.12.12.12h.78l.12-.12-.12-.12M99.01,0h-.78l-.12.12.12.12h.78l.12-.12-.12-.12M97.46,0h-.78l-.12.12.12.12h.78l.12-.12-.12-.12M95.9,0h-.78l-.12.12.12.12h.78l.12-.12-.12-.12M94.35,0h-.78l-.12.12.12.12h.78l.12-.12-.12-.12M92.79,0h-.78l-.12.12.12.12h.78l.12-.12-.12-.12M91.23,0h-.78l-.12.12.12.12h.78l.12-.12-.12-.12M89.68,0h-.78l-.12.12.12.12h.78l.12-.12-.12-.12M88.12,0h-.78l-.12.12.12.12h.78l.12-.12-.12-.12M86.57,0h-.78l-.12.12.12.12h.78l.12-.12-.12-.12M85.01,0h-.78l-.12.12.12.12h.78l.12-.12-.12-.12M83.45,0h-.78l-.12.12.12.12h.78l.12-.12-.12-.12M81.9,0h-.78l-.12.12.12.12h.78l.12-.12-.12-.12M80.34,0h-.78l-.12.12.12.12h.78l.12-.12-.12-.12M78.79,0h-.78l-.12.12.12.12h.78l.12-.12-.12-.12M77.23,0h-.78l-.12.12.12.12h.78l.12-.12-.12-.12M75.67,0h-.78l-.12.12.12.12h.78l.12-.12-.12-.12M74.12,0h-.78l-.12.12.12.12h.78l.12-.12-.12-.12M72.56,0h-.78l-.12.12.12.12h.78l.12-.12-.12-.12M71.01,0h-.78l-.12.12.12.12h.78l.12-.12-.12-.12M69.45,0h-.78l-.12.12.12.12h.78l.12-.12-.12-.12M67.89,0h-.78l-.12.12.12.12h.78l.12-.12-.12-.12M66.34,0h-.78l-.12.12.12.12h.78l.12-.12-.12-.12M64.78,0h-.78l-.12.12.12.12h.78l.12-.12-.12-.12M63.23,0h-.78l-.12.12.12.12h.78l.12-.12-.12-.12M61.67,0h-.78l-.12.12.12.12h.78l.12-.12-.12-.12M60.11,0h-.78l-.12.12.12.12h.78l.12-.12-.12-.12M58.56,0h-.78l-.12.12.12.12h.78l.12-.12-.12-.12M57,0h-.78l-.12.12.12.12h.78l.12-.12-.12-.12M55.45,0h-.78l-.12.12.12.12h.78l.12-.12-.12-.12M53.89,0h-.78l-.12.12.12.12h.78l.12-.12-.12-.12M52.33,0h-.78l-.12.12.12.12h.78l.12-.12-.12-.12M50.78,0h-.78l-.12.12.12.12h.78l.12-.12-.12-.12M49.22,0h-.78l-.12.12.12.12h.78l.12-.12-.12-.12M47.67,0h-.78l-.12.12.12.12h.78l.12-.12-.12-.12M46.11,0h-.78l-.12.12.12.12h.78l.12-.12-.12-.12M44.55,0h-.78l-.12.12.12.12h.78l.12-.12-.12-.12M43,0h-.78l-.12.12.12.12h.78l.12-.12-.12-.12M41.44,0h-.78l-.12.12.12.12h.78l.12-.12-.12-.12M39.89,0h-.78l-.12.12.12.12h.78l.12-.12-.12-.12M38.33,0h-.78l-.12.12.12.12h.78l.12-.12-.12-.12M36.77,0h-.78l-.12.12.12.12h.78l.12-.12-.12-.12M35.22,0h-.78l-.12.12.12.12h.78l.12-.12-.12-.12M33.66,0h-.78l-.12.12.12.12h.78l.12-.12-.12-.12M32.11,0h-.78l-.12.12.12.12h.78l.12-.12-.12-.12M30.55,0h-.78l-.12.12.12.12h.78l.12-.12L30.55,0M28.99,0h-.78l-.12.12.12.12h.78l.12-.12L28.99,0M27.44,0h-.78l-.12.12.12.12h.78l.12-.12L27.44,0M25.88,0h-.78l-.12.12.12.12h.78l.12-.12L25.88,0M24.33,0h-.78l-.12.12.12.12h.78l.12-.12L24.33,0M22.77,0h-.78l-.12.12.12.12h.78l.12-.12L22.77,0M21.21,0h-.78l-.12.12.12.12h.78l.12-.12L21.21,0M19.66,0h-.78l-.12.12.12.12h.78l.12-.12L19.66,0M18.1,0h-.78l-.12.12.12.12h.78l.12-.12L18.1,0M16.55,0h-.78l-.12.12.12.12h.78l.12-.12L16.55,0M14.99,0h-.78l-.12.12.12.12h.78l.12-.12L14.99,0M13.43,0h-.78l-.12.12.12.12h.78l.12-.12L13.43,0M11.88,0h-.78l-.12.12.12.12h.78l.12-.12L11.88,0M10.32,0h-.78l-.12.12.12.12h.78l.12-.12L10.32,0M8.77,0h-.78l-.12.12.12.12h.78l.12-.12L8.77,0M7.21,0h-.78l-.12.12.12.12h.78l.12-.12L7.21,0M5.65,0h-.78l-.12.12.12.12h.78l.12-.12L5.65,0M4.1,0h-.78l-.12.12.12.12h.78l.12-.12L4.1,0M2.54,0h-.78l-.12.12.12.12h.78l.12-.12L2.54,0M.99,0H.21L.08.12l.12.12h.78l.12-.12L.99,0M.12.44L0,.57v.78l.12.12.12-.12v-.78l-.12-.12M.12,2L0,2.13v.78l.12.12.12-.12v-.78l-.12-.12M.12,3.56L0,3.68v.78l.12.12.12-.12v-.78l-.12-.12M.12,5.11L0,5.24v.78l.12.12.12-.12v-.78l-.12-.12M.12,6.67L0,6.79v.78l.12.12.12-.12v-.78l-.12-.12M.12,8.22L0,8.35v.78l.12.12.12-.12v-.78l-.12-.12M.12,9.78L0,9.91v.78l.12.12.12-.12v-.78l-.12-.12M.12,11.34L0,11.46v.78l.12.12.12-.12v-.78l-.12-.12M.12,12.89L0,13.02v.78l.12.12.12-.12v-.78l-.12-.12M.12,14.45L0,14.57v.78l.12.12.12-.12v-.78l-.12-.12M.12,16L0,16.13v.78l.12.12.12-.12v-.78l-.12-.12M.12,17.56L0,17.69v.78l.12.12.12-.12v-.78l-.12-.12M.12,19.12L0,19.24v.78l.12.12.12-.12v-.78l-.12-.12M.12,20.67L0,20.8v.78l.12.12.12-.12v-.78l-.12-.12M.12,22.23L0,22.35v.78l.12.12.12-.12v-.78l-.12-.12M.12,23.78L0,23.91v.78l.12.12.12-.12v-.78l-.12-.12M.12,25.34L0,25.47v.78l.12.12.12-.12v-.78l-.12-.12M.12,26.9L0,27.02v.78l.12.12.12-.12v-.78l-.12-.12M.12,28.45L0,28.58v.78l.12.12.12-.12v-.78l-.12-.12M.12,30.01L0,30.13v.78l.12.12.12-.12v-.78l-.12-.12M.12,31.56L0,31.69v.78l.12.12.12-.12v-.78l-.12-.12M.12,33.12L0,33.25v.78l.12.12.12-.12v-.78l-.12-.12M.12,34.68L0,34.8v.78l.12.12.12-.12v-.78l-.12-.12M.12,36.23L0,36.36v.78l.12.12.12-.12v-.78l-.12-.12M.12,37.79L0,37.91v.78l.12.12.12-.12v-.78l-.12-.12M.12,39.34L0,39.47v.78l.12.12.12-.12v-.78l-.12-.12M.12,40.9L0,41.03v.78l.12.12.12-.12v-.78l-.12-.12M.12,42.46L0,42.58v.78l.12.12.12-.12v-.78l-.12-.12M.12,44.01L0,44.14v.78l.12.12.12-.12v-.78l-.12-.12M.12,45.57L0,45.69v.78l.12.12.12-.12v-.78l-.12-.12M.12,47.12L0,47.25v.78l.12.12.12-.12v-.78l-.12-.12M.12,48.68L0,48.81v.78l.12.12.12-.12v-.78l-.12-.12M.12,50.24L0,50.36v.78l.12.12.12-.12v-.78l-.12-.12M.12,51.79L0,51.92v.78l.12.12.12-.12v-.78l-.12-.12M.12,53.35L0,53.47v.78l.12.12.12-.12v-.78l-.12-.12M.12,54.9L0,55.03v.78l.12.12.12-.12v-.78l-.12-.12M.12,56.46L0,56.59v.78l.12.12.12-.12v-.78l-.12-.12M.12,58.02L0,58.14v.78l.12.12.12-.12v-.78l-.12-.12M.12,59.57L0,59.7v.78l.12.12.12-.12v-.78l-.12-.12M.12,61.13L0,61.25v.78l.12.12.12-.12v-.78l-.12-.12M.12,62.68L0,62.81v.78l.12.12.12-.12v-.78l-.12-.12M.12,64.24L0,64.37v.78l.12.12.12-.12v-.78l-.12-.12M.12,65.8L0,65.92v.78l.12.12.12-.12v-.78l-.12-.12M.12,67.35L0,67.48v.78l.12.12.12-.12v-.78l-.12-.12M.12,68.91L0,69.03v.78l.12.12.12-.12v-.78l-.12-.12M.12,70.46L0,70.59v.78l.12.12.12-.12v-.78l-.12-.12M.12,72.02L0,72.15v.78l.12.12.12-.12v-.78l-.12-.12M.12,73.58L0,73.7v.78l.12.12.12-.12v-.78l-.12-.12M.12,75.13L0,75.26v.78l.12.12.12-.12v-.78l-.12-.12M.12,76.69L0,76.81v.78l.12.12.12-.12v-.78l-.12-.12M.12,78.24L0,78.37v.78l.12.12.12-.12v-.78l-.12-.12M.12,79.8L0,79.93v.78l.12.12.12-.12v-.78l-.12-.12M.12,81.36L0,81.48v.78l.12.12.12-.12v-.78l-.12-.12M.12,82.91L0,83.04v.78l.12.12.12-.12v-.78l-.12-.12M.12,84.47L0,84.59v.78l.12.12.12-.12v-.78l-.12-.12M.12,86.02L0,86.15v.78l.12.12.12-.12v-.78l-.12-.12M.12,87.58L0,87.71v.78l.12.12.12-.12v-.78l-.12-.12M.12,89.14L0,89.26v.78l.12.12.12-.12v-.78l-.12-.12M.12,90.69L0,90.82v.78l.12.12.12-.12v-.78l-.12-.12M.12,92.25L0,92.37v.78l.12.12.12-.12v-.78l-.12-.12M.12,93.8L0,93.93v.78l.12.12.12-.12v-.78l-.12-.12M.12,95.36L0,95.49v.78l.12.12.12-.12v-.78l-.12-.12M.12,96.92L0,97.04v.78l.12.12.12-.12v-.78l-.12-.12M.12,98.47L0,98.6v.62H.25v-.04l.04-.09-.04-.09v-.4l-.12-.12M1.72,98.96h-.78l-.12.12.12.12h.78l.12-.12-.12-.12M3.27,98.96h-.78l-.12.12.12.12h.78l.12-.12-.12-.12M4.83,98.96h-.78l-.12.12.12.12h.78l.12-.12-.12-.12M6.39,98.96h-.78l-.12.12.12.12h.78l.12-.12-.12-.12M7.94,98.96h-.78l-.12.12.12.12h.78l.12-.12-.12-.12M9.5,98.96h-.78l-.12.12.12.12h.78l.12-.12-.12-.12M11.05,98.96h-.78l-.12.12.12.12h.78l.12-.12-.12-.12M12.61,98.96h-.78l-.12.12.12.12h.78l.12-.12-.12-.12M14.17,98.96h-.78l-.12.12.12.12h.78l.12-.12-.12-.12M15.72,98.96h-.78l-.12.12.12.12h.78l.12-.12-.12-.12M17.28,98.96h-.78l-.12.12.12.12h.78l.12-.12-.12-.12M18.83,98.96h-.78l-.12.12.12.12h.78l.12-.12-.12-.12M20.39,98.96h-.78l-.12.12.12.12h.78l.12-.12-.12-.12M21.95,98.96h-.78l-.12.12.12.12h.78l.12-.12-.12-.12M23.5,98.96h-.78l-.12.12.12.12h.78l.12-.12-.12-.12M25.06,98.96h-.78l-.12.12.12.12h.78l.12-.12-.12-.12M26.61,98.96h-.78l-.12.12.12.12h.78l.12-.12-.12-.12M28.17,98.96h-.78l-.12.12.12.12h.78l.12-.12-.12-.12M29.73,98.96h-.78l-.12.12.12.12h.78l.12-.12-.12-.12M31.28,98.96h-.78l-.12.12.12.12h.78l.12-.12-.12-.12M32.84,98.96h-.78l-.12.12.12.12h.78l.12-.12-.12-.12M34.39,98.96h-.78l-.12.12.12.12h.78l.12-.12-.12-.12M35.95,98.96h-.78l-.12.12.12.12h.78l.12-.12-.12-.12M37.51,98.96h-.78l-.12.12.12.12h.78l.12-.12-.12-.12M39.06,98.96h-.78l-.12.12.12.12h.78l.12-.12-.12-.12M40.62,98.96h-.78l-.12.12.12.12h.78l.12-.12-.12-.12M42.17,98.96h-.78l-.12.12.12.12h.78l.12-.12-.12-.12M43.73,98.96h-.78l-.12.12.12.12h.78l.12-.12-.12-.12M45.29,98.96h-.78l-.12.12.12.12h.78l.12-.12-.12-.12M46.84,98.96h-.78l-.12.12.12.12h.78l.12-.12-.12-.12M48.4,98.96h-.78l-.12.12.12.12h.78l.12-.12-.12-.12M49.95,98.96h-.78l-.12.12.12.12h.78l.12-.12-.12-.12M51.51,98.96h-.78l-.12.12.12.12h.78l.12-.12-.12-.12M53.07,98.96h-.78l-.12.12.12.12h.78l.12-.12-.12-.12M54.62,98.96h-.78l-.12.12.12.12h.78l.12-.12-.12-.12M56.18,98.96h-.78l-.12.12.12.12h.78l.12-.12-.12-.12M57.73,98.96h-.78l-.12.12.12.12h.78l.12-.12-.12-.12M59.29,98.96h-.78l-.12.12.12.12h.78l.12-.12-.12-.12M60.85,98.96h-.78l-.12.12.12.12h.78l.12-.12-.12-.12M62.4,98.96h-.78l-.12.12.12.12h.78l.12-.12-.12-.12M63.96,98.96h-.78l-.12.12.12.12h.78l.12-.12-.12-.12M65.51,98.96h-.78l-.12.12.12.12h.78l.12-.12-.12-.12M67.07,98.96h-.78l-.12.12.12.12h.78l.12-.12-.12-.12M68.63,98.96h-.78l-.12.12.12.12h.78l.12-.12-.12-.12M70.18,98.96h-.78l-.12.12.12.12h.78l.12-.12-.12-.12M71.74,98.96h-.78l-.12.12.12.12h.78l.12-.12-.12-.12M73.29,98.96h-.78l-.12.12.12.12h.78l.12-.12-.12-.12M74.85,98.96h-.78l-.12.12.12.12h.78l.12-.12-.12-.12M76.41,98.96h-.78l-.12.12.12.12h.78l.12-.12-.12-.12M77.96,98.96h-.78l-.12.12.12.12h.78l.12-.12-.12-.12M79.52,98.96h-.78l-.12.12.12.12h.78l.12-.12-.12-.12M81.07,98.96h-.78l-.12.12.12.12h.78l.12-.12-.12-.12M82.63,98.96h-.78l-.12.12.12.12h.78l.12-.12-.12-.12M84.19,98.96h-.78l-.12.12.12.12h.78l.12-.12-.12-.12M85.74,98.96h-.78l-.12.12.12.12h.78l.12-.12-.12-.12M87.3,98.96h-.78l-.12.12.12.12h.78l.12-.12-.12-.12M88.85,98.96h-.78l-.12.12.12.12h.78l.12-.12-.12-.12M90.41,98.96h-.78l-.12.12.12.12h.78l.12-.12-.12-.12M91.97,98.96h-.78l-.12.12.12.12h.78l.12-.12-.12-.12M93.52,98.96h-.78l-.12.12.12.12h.78l.12-.12-.12-.12M95.08,98.96h-.78l-.12.12.12.12h.78l.12-.12-.12-.12M96.63,98.96h-.78l-.12.12.12.12h.78l.12-.12-.12-.12M98.19,98.96h-.78l-.12.12.12.12h.78l.12-.12-.12-.12M99.75,98.96h-.78l-.12.12.12.12h.78l.12-.12-.12-.12M101.3,98.96h-.78l-.12.12.12.12h.78l.12-.12-.12-.12M102.86,98.96h-.78l-.12.12.12.12h.78l.12-.12-.12-.12M104.41,98.96h-.78l-.12.12.12.12h.78l.12-.12-.12-.12M105.97,98.96h-.78l-.12.12.12.12h.78l.12-.12-.12-.12M107.53,98.96h-.78l-.12.12.12.12h.78l.12-.12-.12-.12M109.08,98.96h-.78l-.12.12.12.12h.78l.12-.12-.12-.12M110.64,98.96h-.78l-.12.12.12.12h.78l.12-.12-.12-.12M112.19,98.96h-.78l-.12.12.12.12h.78l.12-.12-.12-.12M113.75,98.96h-.78l-.12.12.12.12h.78l.12-.12-.12-.12M115.31,98.96h-.78l-.12.12.12.12h.78l.12-.12-.12-.12M116.86,98.96h-.78l-.12.12.12.12h.78l.12-.12-.12-.12M118.42,98.96h-.78l-.12.12.12.12h.78l.12-.12-.12-.12M119.97,98.96h-.78l-.12.12.12.12h.78l.12-.12-.12-.12M121.53,98.96h-.78l-.12.12.12.12h.78l.12-.12-.12-.12M123.09,98.96h-.78l-.12.12.12.12h.78l.12-.12-.12-.12M124.64,98.96h-.78l-.12.12.12.12h.78l.12-.12-.12-.12M126.2,98.96h-.78l-.12.12.12.12h.78l.12-.12-.12-.12M127.75,98.96h-.78l-.12.12.12.12h.78l.12-.12-.12-.12M129.31,98.96h-.78l-.12.12.12.12h.78l.12-.12-.12-.12M130.87,98.96h-.78l-.12.12.12.12h.78l.12-.12-.12-.12M132.42,98.96h-.78l-.12.12.12.12h.78l.12-.12-.12-.12M133.98,98.96h-.78l-.12.12.12.12h.78l.12-.12-.12-.12M135.53,98.96h-.78l-.12.12.12.12h.78l.12-.12-.12-.12M137.09,98.96h-.78l-.12.12.12.12h.78l.12-.12-.12-.12M138.65,98.96h-.78l-.12.12.12.12h.78l.12-.12-.12-.12M140.2,98.96h-.78l-.12.12.12.12h.78l.12-.12-.12-.12M141.76,98.96h-.78l-.12.12.12.12h.78l.12-.12-.12-.12M143.31,98.96h-.78l-.12.12.12.12h.78l.12-.12-.12-.12M144.87,98.96h-.78l-.12.12.12.12h.78l.12-.12-.12-.12M146.43,98.96h-.78l-.12.12.12.12h.78l.12-.12-.12-.12M147.98,98.96h-.78l-.12.12.12.12h.78l.12-.12-.12-.12M149.54,98.96h-.78l-.12.12.12.12h.78l.12-.12-.12-.12M151.09,98.96h-.78l-.12.12.12.12h.78l.12-.12-.12-.12M152.65,98.96h-.78l-.12.12.12.12h.78l.12-.12-.12-.12M154.21,98.96h-.78l-.12.12.12.12h.78l.12-.12-.12-.12M155.76,98.96h-.78l-.12.12.12.12h.78l.12-.12-.12-.12M157.32,98.96h-.78l-.12.12.12.12h.78l.12-.12-.12-.12M158.87,98.96h-.78l-.12.12.12.12h.78l.12-.12-.12-.12M160.43,98.96h-.78l-.12.12.12.12h.78l.12-.12-.12-.12M161.99,98.96h-.78l-.12.12.12.12h.78l.12-.12-.12-.12M162.69,98.36l-.12.12v.73h.2-.2.25-.05.05v-.73l-.12-.12M162.69,96.8l-.12.12v.78l.12.12.12-.12v-.78l-.12-.12M162.69,95.24l-.12.12v.78l.12.12.12-.12v-.78l-.12-.12M162.69,93.69l-.12.12v.78l.12.12.12-.12v-.78l-.12-.12M162.69,92.13l-.12.12v.78l.12.12.12-.12v-.78l-.12-.12M162.69,90.58l-.12.12v.78l.12.12.12-.12v-.78l-.12-.12M162.69,89.02l-.12.12v.78l.12.12.12-.12v-.78l-.12-.12M162.69,87.46l-.12.12v.78l.12.12.12-.12v-.78l-.12-.12M162.69,85.91l-.12.12v.78l.12.12.12-.12v-.78l-.12-.12M162.69,84.35l-.12.12v.78l.12.12.12-.12v-.78l-.12-.12M162.69,82.8l-.12.12v.78l.12.12.12-.12v-.78l-.12-.12M162.69,81.24l-.12.12v.78l.12.12.12-.12v-.78l-.12-.12M162.69,79.68l-.12.12v.78l.12.12.12-.12v-.78l-.12-.12M162.69,78.13l-.12.12v.78l.12.12.12-.12v-.78l-.12-.12M162.69,76.57l-.12.12v.78l.12.12.12-.12v-.78l-.12-.12M162.69,75.02l-.12.12v.78l.12.12.12-.12v-.78l-.12-.12M162.69,73.46l-.12.12v.78l.12.12.12-.12v-.78l-.12-.12M162.69,71.9l-.12.12v.78l.12.12.12-.12v-.78l-.12-.12M162.69,70.35l-.12.12v.78l.12.12.12-.12v-.78l-.12-.12M162.69,68.79l-.12.12v.78l.12.12.12-.12v-.78l-.12-.12M162.69,67.24l-.12.12v.78l.12.12.12-.12v-.78l-.12-.12M162.69,65.68l-.12.12v.78l.12.12.12-.12v-.78l-.12-.12M162.69,64.12l-.12.12v.78l.12.12.12-.12v-.78l-.12-.12M162.69,62.57l-.12.12v.78l.12.12.12-.12v-.78l-.12-.12M162.69,61.01l-.12.12v.78l.12.12.12-.12v-.78l-.12-.12M162.69,59.46l-.12.12v.78l.12.12.12-.12v-.78l-.12-.12M162.69,57.9l-.12.12v.78l.12.12.12-.12v-.78l-.12-.12M162.69,56.34l-.12.12v.78l.12.12.12-.12v-.78l-.12-.12M162.69,54.79l-.12.12v.78l.12.12.12-.12v-.78l-.12-.12M162.69,53.23l-.12.12v.78l.12.12.12-.12v-.78l-.12-.12M162.69,51.68l-.12.12v.78l.12.12.12-.12v-.78l-.12-.12M162.69,50.12l-.12.12v.78l.12.12.12-.12v-.78l-.12-.12M162.69,48.56l-.12.12v.78l.12.12.12-.12v-.78l-.12-.12M162.69,47.01l-.12.12v.78l.12.12.12-.12v-.78l-.12-.12M162.69,45.45l-.12.12v.78l.12.12.12-.12v-.78l-.12-.12M162.69,43.9l-.12.12v.78l.12.12.12-.12v-.78l-.12-.12M162.69,42.34l-.12.12v.78l.12.12.12-.12v-.78l-.12-.12M162.69,40.78l-.12.12v.78l.12.12.12-.12v-.78l-.12-.12M162.69,39.23l-.12.12v.78l.12.12.12-.12v-.78l-.12-.12M162.69,37.67l-.12.12v.78l.12.12.12-.12v-.78l-.12-.12M162.69,36.12l-.12.12v.78l.12.12.12-.12v-.78l-.12-.12M162.69,34.56l-.12.12v.78l.12.12.12-.12v-.78l-.12-.12M162.69,33l-.12.12v.78l.12.12.12-.12v-.78l-.12-.12M162.69,31.45l-.12.12v.78l.12.12.12-.12v-.78l-.12-.12M162.69,29.89l-.12.12v.78l.12.12.12-.12v-.78l-.12-.12M162.69,28.34l-.12.12v.78l.12.12.12-.12v-.78l-.12-.12M162.69,26.78l-.12.12v.78l.12.12.12-.12v-.78l-.12-.12M162.69,25.22l-.12.12v.78l.12.12.12-.12v-.78l-.12-.12M162.69,23.67l-.12.12v.78l.12.12.12-.12v-.78l-.12-.12M162.69,22.11l-.12.12v.78l.12.12.12-.12v-.78l-.12-.12M162.69,20.56l-.12.12v.78l.12.12.12-.12v-.78l-.12-.12M162.69,19l-.12.12v.78l.12.12.12-.12v-.78l-.12-.12M162.69,17.44l-.12.12v.78l.12.12.12-.12v-.78l-.12-.12M162.69,15.89l-.12.12v.78l.12.12.12-.12v-.78l-.12-.12M162.69,14.33l-.12.12v.78l.12.12.12-.12v-.78l-.12-.12M162.69,12.78l-.12.12v.78l.12.12.12-.12v-.78l-.12-.12M162.69,11.22l-.12.12v.78l.12.12.12-.12v-.78l-.12-.12M162.69,9.66l-.12.12v.78l.12.12.12-.12v-.78l-.12-.12M162.69,8.11l-.12.12v.78l.12.12.12-.12v-.78l-.12-.12M162.69,6.55l-.12.12v.78l.12.12.12-.12v-.78l-.12-.12M162.69,5l-.12.12v.78l.12.12.12-.12v-.78l-.12-.12M162.69,3.44l-.12.12v.78l.12.12.12-.12v-.78l-.12-.12M162.69,1.88l-.12.12v.78l.12.12.12-.12v-.78l-.12-.12M162.69.33l-.12.12v.78l.12.12.12-.12V.45l-.12-.12"/>
        <path class="cls-6" d="M19.09,89.73l2.95-.67s.94-5.78,2.41-6.44c1.47-.66,8.58-3.88,9.65-3.75,1.07.14,2.28.54,2.68,1.21.4.67,9.05,10.6,9.05,10.6"/>
        <path class="cls-19" d="M131.63,91.6s-.8-.4-2.55-.56c0,0-2.54-1.98-3.77-2.39l-2.95,1.07-1.18-.13s-4.7.77-5.97.79c-1.27.03-2.2,1.35-4.37.65-2.17-.7-5.22-2.89-5.22-2.89,0,0-1.6.11-3.03-.41l-1.53.65.96,2s-1.35,1.48-2.89,1.62c-1.54.13-3.2-2.95-3.2-2.95,0,0-2.62-2.01-3.87-2.39,0,0-2.24,1.72-2.96,2.12-.72.4-3.29.4-6.02.61,0,0-2.23,2.74-2.47,3.28-.24.53-5.38,1.47-5.38,1.47l-2.62-2.01-4.79-2.28s-4.59-.56-4.79-.43c-.49.32-1.94,1.48-1.94,1.48,0,0-2.22-1.23-3.1-1.05-1.77.36-7.74,1.5-7.74,1.5l-3.3-1.01-3.17.69,4.61,4.3,66.08,1.97,17.16-5.7Z"/>
        <path class="cls-6" d="M131.63,91.6s-.8-.4-2.55-.56c0,0-2.54-1.98-3.77-2.39l-2.95,1.07-1.18-.13s-4.7.77-5.97.79c-1.27.03-2.2,1.35-4.37.65-2.17-.7-5.22-2.89-5.22-2.89,0,0-1.6.11-3.03-.41l-1.53.65.96,2s-1.35,1.48-2.89,1.62c-1.54.13-3.2-2.95-3.2-2.95,0,0-2.62-2.01-3.87-2.39,0,0-2.24,1.72-2.96,2.12-.72.4-3.29.4-6.02.61,0,0-2.23,2.74-2.47,3.28-.24.53-5.38,1.47-5.38,1.47l-2.62-2.01-4.79-2.28s-4.59-.56-4.79-.43c-.49.32-1.94,1.48-1.94,1.48,0,0-2.22-1.23-3.1-1.05-1.77.36-7.74,1.5-7.74,1.5l-3.3-1.01-3.17.69,4.61,4.3,66.08,1.97,17.16-5.7Z"/>
        <path class="cls-6" d="M127.72,90.03l.7-1.38s.13-3,1.74-3.31c1.61-.31,7.23-.35,7.23-.35l4.42,1.68,2.01,3.72"/>
        <line class="cls-1" x1="31.59" y1="79.52" x2="31.59" y2="28.05"/>
        <path class="cls-1" d="M42.26,17.38c0,5.89-4.78,10.67-10.67,10.67s-10.67-4.78-10.67-10.67,4.78-10.67,10.67-10.67,10.67,4.78,10.67,10.67Z"/>
      </g>
      <text class="cls-32" transform="translate(22.63 20.04)"><tspan x="0" y="0">Slow</tspan></text>
    </g>
  </g>
</svg>