<?xml version="1.0" encoding="UTF-8"?>
<svg id="_图层_2" data-name="图层 2" xmlns="http://www.w3.org/2000/svg" xmlns:xlink="http://www.w3.org/1999/xlink" viewBox="0 0 162.81 99.21">
  <defs>
    <style>
      .cls-1 {
        clip-path: url(#clippath-21);
      }

      .cls-2 {
        clip-path: url(#clippath-6);
      }

      .cls-3 {
        clip-path: url(#clippath-7);
      }

      .cls-4 {
        clip-path: url(#clippath-17);
      }

      .cls-5 {
        clip-path: url(#clippath-15);
      }

      .cls-6 {
        clip-path: url(#clippath-18);
      }

      .cls-7 {
        clip-path: url(#clippath-4);
      }

      .cls-8 {
        stroke-width: .12px;
      }

      .cls-8, .cls-9, .cls-10, .cls-11, .cls-12 {
        fill: none;
      }

      .cls-8, .cls-9, .cls-11, .cls-12 {
        stroke: #54565a;
        stroke-linecap: round;
        stroke-linejoin: round;
      }

      .cls-13 {
        clip-path: url(#clippath-22);
      }

      .cls-14 {
        clip-path: url(#clippath-23);
      }

      .cls-9 {
        stroke-width: .2px;
      }

      .cls-15 {
        clip-path: url(#clippath-9);
      }

      .cls-16 {
        clip-path: url(#clippath-10);
      }

      .cls-17 {
        fill: #fff;
      }

      .cls-18 {
        clip-path: url(#clippath-25);
      }

      .cls-19 {
        clip-path: url(#clippath-27);
      }

      .cls-20 {
        clip-path: url(#clippath-11);
      }

      .cls-21 {
        clip-path: url(#clippath-28);
      }

      .cls-22 {
        clip-path: url(#clippath-1);
      }

      .cls-11 {
        stroke-width: .17px;
      }

      .cls-23 {
        clip-path: url(#clippath-5);
      }

      .cls-24 {
        clip-path: url(#clippath-20);
      }

      .cls-25 {
        clip-path: url(#clippath-8);
      }

      .cls-26 {
        fill: #221814;
      }

      .cls-27 {
        fill: #ff6b00;
      }

      .cls-28 {
        clip-path: url(#clippath-3);
      }

      .cls-29 {
        clip-path: url(#clippath-26);
      }

      .cls-30 {
        clip-path: url(#clippath-12);
      }

      .cls-31 {
        clip-path: url(#clippath-14);
      }

      .cls-32 {
        clip-path: url(#clippath-19);
      }

      .cls-12 {
        stroke-width: .25px;
      }

      .cls-33 {
        clip-path: url(#clippath-16);
      }

      .cls-34 {
        clip-path: url(#clippath-2);
      }

      .cls-35 {
        clip-path: url(#clippath-29);
      }

      .cls-36 {
        clip-path: url(#clippath-13);
      }

      .cls-37 {
        clip-path: url(#clippath-24);
      }

      .cls-38 {
        clip-path: url(#clippath);
      }

      .cls-39 {
        fill: #54565a;
      }
    </style>
    <clipPath id="clippath">
      <rect class="cls-10" x="0" width="162.81" height="99.21"/>
    </clipPath>
    <clipPath id="clippath-1">
      <rect class="cls-10" x="0" width="162.81" height="99.21"/>
    </clipPath>
    <clipPath id="clippath-2">
      <rect class="cls-10" x="0" width="162.81" height="99.21"/>
    </clipPath>
    <clipPath id="clippath-3">
      <rect class="cls-10" x="0" width="162.81" height="99.21"/>
    </clipPath>
    <clipPath id="clippath-4">
      <rect class="cls-10" x="0" width="162.81" height="99.21"/>
    </clipPath>
    <clipPath id="clippath-5">
      <rect class="cls-10" x="0" width="162.81" height="99.21"/>
    </clipPath>
    <clipPath id="clippath-6">
      <rect class="cls-10" x="0" width="162.81" height="99.21"/>
    </clipPath>
    <clipPath id="clippath-7">
      <rect class="cls-10" x="0" width="162.81" height="99.21"/>
    </clipPath>
    <clipPath id="clippath-8">
      <rect class="cls-10" x="0" width="162.81" height="99.21"/>
    </clipPath>
    <clipPath id="clippath-9">
      <rect class="cls-10" x="0" width="162.81" height="99.21"/>
    </clipPath>
    <clipPath id="clippath-10">
      <rect class="cls-10" x="0" width="162.81" height="99.21"/>
    </clipPath>
    <clipPath id="clippath-11">
      <rect class="cls-10" x="0" width="162.81" height="99.21"/>
    </clipPath>
    <clipPath id="clippath-12">
      <rect class="cls-10" x="0" width="162.81" height="99.21"/>
    </clipPath>
    <clipPath id="clippath-13">
      <rect class="cls-10" x="0" width="162.81" height="99.21"/>
    </clipPath>
    <clipPath id="clippath-14">
      <rect class="cls-10" x="0" width="162.81" height="99.21"/>
    </clipPath>
    <clipPath id="clippath-15">
      <rect class="cls-10" x="0" width="162.81" height="99.21"/>
    </clipPath>
    <clipPath id="clippath-16">
      <rect class="cls-10" x="0" width="162.81" height="99.21"/>
    </clipPath>
    <clipPath id="clippath-17">
      <rect class="cls-10" x="0" width="162.81" height="99.21"/>
    </clipPath>
    <clipPath id="clippath-18">
      <rect class="cls-10" x="0" width="162.81" height="99.21"/>
    </clipPath>
    <clipPath id="clippath-19">
      <rect class="cls-10" x="0" width="162.81" height="99.21"/>
    </clipPath>
    <clipPath id="clippath-20">
      <rect class="cls-10" x="0" width="162.81" height="99.21"/>
    </clipPath>
    <clipPath id="clippath-21">
      <rect class="cls-10" x="0" width="162.81" height="99.21"/>
    </clipPath>
    <clipPath id="clippath-22">
      <rect class="cls-10" x="0" width="162.81" height="99.21"/>
    </clipPath>
    <clipPath id="clippath-23">
      <rect class="cls-10" x="0" width="162.81" height="99.21"/>
    </clipPath>
    <clipPath id="clippath-24">
      <rect class="cls-10" x="0" width="162.81" height="99.21"/>
    </clipPath>
    <clipPath id="clippath-25">
      <rect class="cls-10" x="0" width="162.81" height="99.21"/>
    </clipPath>
    <clipPath id="clippath-26">
      <rect class="cls-10" x="0" width="162.81" height="99.21"/>
    </clipPath>
    <clipPath id="clippath-27">
      <rect class="cls-10" x="0" width="162.81" height="99.21"/>
    </clipPath>
    <clipPath id="clippath-28">
      <rect class="cls-10" x="0" width="162.81" height="99.21"/>
    </clipPath>
    <clipPath id="clippath-29">
      <rect class="cls-10" x="0" width="162.81" height="99.21"/>
    </clipPath>
  </defs>
  <g id="_图层_1-2" data-name="图层 1">
    <g>
      <g class="cls-38">
        <path class="cls-9" d="M58.16,80.19c.29.95.45,1.96.45,3.01,0,5.65-4.58,10.24-10.24,10.24s-10.24-4.58-10.24-10.24c0-3.36,1.62-6.34,4.11-8.21"/>
        <path class="cls-9" d="M53.22,75.74c1.54.79,2.95,2.03,4.04,3.42l.03.03c.92,1.14,1.9,1.96,2.5,1.93.19.02.17-.09.17-.09-.6-3.23-2.52-5.99-5.17-7.72"/>
        <path class="cls-9" d="M44.82,78.92c.31-.26.66-.49,1.03-.68"/>
        <path class="cls-9" d="M44.82,78.92l-.03.03,2.83,2.44c.17.17.09.24.09.24l-.96,1.4"/>
        <path class="cls-9" d="M51.39,87.87c.86-.56,1.55-1.35,2-2.3"/>
        <path class="cls-9" d="M43.24,85.35l3-1.94c.2-.13.31-.1.34-.07l1.07,1.23c.11.15-.1.28-.1.28l-3.43,1.75.08.27c1.02,1.15,2.51,1.88,4.17,1.88.13,0,.25,0,.38-.01l.02-.12-.86-3.45c-.07-.26.03-.33.03-.33l1.51-.59c.21-.02.22.18.22.18l.67,3.89.03.06c.36-.14.71-.31,1.03-.52"/>
        <path class="cls-8" d="M46.75,82.99l.06-1.23-2.85-2.5-.21.04s-.24.24-.39.48c-.67.97-1.06,2.15-1.06,3.42,0,.84.2,1.71.51,2.44l.12.06,3.26-1.95c.07-.1.29-.38.29-.38"/>
        <path class="cls-9" d="M43.24,85.34c-.26-.64-.44-1.4-.44-2.14,0-1.12.33-2.16.9-3.03h.15s2.71,2.8,2.71,2.8c.12.11.2.1.2.01"/>
        <line class="cls-9" x1="53.45" y1="85.46" x2="53.4" y2="85.58"/>
        <path class="cls-9" d="M51.7,78.75c1.25.94,2.14,2.42,2.25,4.08"/>
        <path class="cls-8" d="M45.67,77.78c-.47.24-.91.53-1.3.88l-.02.13,2.87,2.66.43.08"/>
        <path class="cls-8" d="M45.14,86.08l-1.45.75-.07.1s-.02,0,.17.24c1.11,1.28,2.75,2.09,4.57,2.09.25,0,.49-.01.73-.04l.04-.09-.88-3.7.4-.12c.09-.02.87-.91.87-.91"/>
        <path class="cls-8" d="M51.95,78.32c1.43,1.05,2.38,2.72,2.46,4.62.04.41,0,.66,0,.66-.04.15-.2.14-.2.14l-3.75-.27c-.09,0-.07.1-.07.1l.03.42c0,.1.12.09.12.09l3.71.22.04.07c-.41,2.09-1.89,3.79-3.85,4.51-.16.08-.55.21-.55.21l-.14.02c-.12-.04-1.04-3.85-1.04-3.85"/>
        <path class="cls-9" d="M52.19,77.85c1.67,1.19,2.75,3.14,2.75,5.35,0,3.63-2.94,6.57-6.57,6.57s-6.57-2.94-6.57-6.57c0-2.57,1.48-4.8,3.63-5.88"/>
        <path class="cls-9" d="M52.35,77.47c1.81,1.26,2.99,3.36,2.99,5.73,0,3.85-3.12,6.98-6.98,6.98s-6.98-3.12-6.98-6.98c0-2.74,1.58-5.11,3.88-6.25"/>
        <path class="cls-9" d="M48.58,78.74c.68.03-1.83,0-1.83,0,0,0-.64.01-.8-.45-.36-.9-.8-1.96-1.81-2.42-.92-.42-1.42-.75-2.14-.97-.42-.09-1.29-.55-1.29-.55l-.03-.14c2.04-1.51,4.57-2.74,7.95-3.27,1.7-.27,2.82-.21,4.12-.06l.03.08s-1.09,2.26-1.2,2.46-.18.67-.19.75l-2,4.41s-.07.12-.23.15-.59,0-.59,0"/>
        <path class="cls-9" d="M53.17,75.83c2.41,1.58,4.02,4.28,4.02,7.37,0,4.87-3.95,8.82-8.82,8.82s-8.82-3.95-8.82-8.82c0-3.19,1.64-5.96,4.17-7.51"/>
        <path class="cls-9" d="M48.55,87.66h-.18c-1.33,0-2.52-.57-3.33-1.49"/>
        <path class="cls-9" d="M52.37,85.18c-.46.93-1.23,1.67-2.18,2.1"/>
        <path class="cls-9" d="M51.31,79.84c.56.49.98,1.09,1.24,1.8"/>
        <path class="cls-9" d="M45.64,79.66c.75-.58,1.7-.93,2.72-.93.28,0,.64.03.91.09"/>
        <path class="cls-9" d="M44.18,84.74c-.18-.48-.27-1-.27-1.54,0-.81.21-1.57.59-2.22"/>
        <path class="cls-9" d="M47.09,80.89c.38-.21.82-.33,1.28-.33"/>
        <path class="cls-9" d="M46.78,85.32c.28.21.61.37.97.46.1.01.25-.15.23-.26"/>
        <path class="cls-9" d="M50.78,84.29c-.15.33-.33.6-.6.84-.06.05-.37-.01-.44-.3"/>
        <path class="cls-8" d="M43.15,74.72c1.4-.95,3.33-1.58,5.56-1.93.75-.12,1.81-.18,2.37-.16"/>
        <path class="cls-8" d="M58.89,80.43c-.67-2.53-1.89-4.53-4.12-6.09"/>
        <path class="cls-9" d="M52.58,71.45s.2.22.29.47"/>
        <path class="cls-9" d="M52.31,71.99s.18.12.22.27"/>
        <path class="cls-9" d="M51.56,74.79c-.08-.09-.33-.17-.33-.17l-.05.07.33.17.05-.08Z"/>
      </g>
      <polyline class="cls-9" points="50.7 75.73 51.37 76.04 49.81 78.93 49.36 78.65"/>
      <polyline class="cls-8" points="46.2 83.75 46.51 84.2 47.67 84.65"/>
      <g class="cls-22">
        <path class="cls-8" d="M46.51,84.2l-3.17,1.92c-.21.08-.08.27-.08.27l.33.52"/>
      </g>
      <line class="cls-8" x1="48.26" y1="85.42" x2="47.97" y2="85.02"/>
      <g class="cls-34">
        <path class="cls-8" d="M50.4,83.48l-.47-.74c-.09-.2.01-.31.01-.31"/>
        <path class="cls-9" d="M48.95,83.17c0,.31-.25.56-.56.56s-.56-.25-.56-.56.25-.56.56-.56.56.25.56.56Z"/>
        <path class="cls-8" d="M48.75,83.17c0,.2-.16.36-.36.36s-.36-.16-.36-.36.16-.36.36-.36.36.16.36.36Z"/>
        <path class="cls-8" d="M49.87,75.46c0,.29-.24.53-.53.53s-.53-.24-.53-.53.24-.52.53-.52.53.24.53.52Z"/>
        <path class="cls-9" d="M49.7,75.46c0,.2-.16.36-.36.36s-.36-.16-.36-.36.16-.36.36-.36.36.16.36.36Z"/>
        <path class="cls-8" d="M48.73,77.57c0,.29-.24.53-.53.53s-.53-.24-.53-.53.24-.52.53-.52.53.24.53.52Z"/>
        <path class="cls-9" d="M48.56,77.57c0,.2-.16.36-.36.36s-.36-.16-.36-.36.16-.36.36-.36.36.16.36.36Z"/>
        <path class="cls-9" d="M51.68,81.55c0,.11-.09.19-.19.19s-.19-.09-.19-.19.09-.19.19-.19.19.09.19.19Z"/>
        <path class="cls-9" d="M47.59,81.32c.17-.07.35-.12.54-.15"/>
        <path class="cls-9" d="M46.38,83.28v-.11c0-.11,0-.22.02-.33"/>
        <path class="cls-9" d="M47.85,85.11c-.15-.04-.29-.1-.43-.17"/>
        <path class="cls-9" d="M50.07,84.28c-.09.14-.2.26-.32.37"/>
        <path class="cls-8" d="M50.77,86.14c.12-.29.13-.56.01-.61-.12-.04-.31.16-.44.45-.12.29-.13.56-.02.61s.31-.16.44-.45Z"/>
        <path class="cls-8" d="M51.47,84.44c-.04.11-.07.25-.07.41,0,.32.1.57.22.56.12,0,.23-.27.23-.58v-.02"/>
        <path class="cls-8" d="M44.96,81.37l-.02.2c0,.32.1.57.22.56.09,0,.17-.14.21-.33"/>
        <path class="cls-8" d="M45.49,85.95c.07.1.28.19.52.22.31.04.58-.03.59-.15s-.24-.26-.55-.3h-.11"/>
        <path class="cls-8" d="M47.57,86.91c.3-.09.52-.26.47-.38-.04-.12-.32-.14-.62-.05-.3.09-.52.26-.47.38.04.12.32.14.62.05Z"/>
        <path class="cls-8" d="M47.8,79.8c.25-.2.38-.44.3-.53-.08-.09-.35,0-.6.19-.25.2-.38.44-.3.53.08.09.35,0,.6-.19Z"/>
        <path class="cls-8" d="M44.55,83.19c.16.27.38.44.48.37.1-.07.06-.35-.1-.62-.16-.27-.38-.44-.48-.37-.1.07-.06.35.1.62Z"/>
        <path class="cls-8" d="M46.45,80.34c.07-.29.04-.55-.07-.57-.08-.02-.19.08-.28.25"/>
        <polyline class="cls-8" points="46.81 81.9 46.83 81.77 47.2 81.44"/>
        <path class="cls-9" d="M51.4,82.51l1.69-1.25c.24-.14.45-.02.54.08"/>
        <path class="cls-9" d="M53.17,82.75s0-.21-.03-.38c-.04-.18-.45-.56-.53-.55l-.6.76"/>
        <path class="cls-8" d="M53.45,82.81s.15-.4.42-.59"/>
        <path class="cls-9" d="M51.73,84.35l.57.57h.15s.42-.41.45-.54"/>
        <path class="cls-9" d="M51.36,84.33l1.45,1.2c.17.14.56.06.64-.06.21-.33.25-.6.33-1,0-.1-.08-.09-.08-.09l-3.73-.13c-.16-.04-.12-.25-.12-.25l-.09-1.25c-.03-.19.14-.41.45-.39.3.02,3.74.52,3.74.52v-.06"/>
        <path class="cls-9" d="M45.85,82.26s-.04.58.1.78c.14.21.39.16.39.16"/>
        <path class="cls-9" d="M46.23,78.62l2.38-3.66c.34-.45.74-.57,1.11-.66.37-.1,1.67-.2,1.67-.2"/>
        <path class="cls-8" d="M46.09,77.63l2.25-3.47c.34-.45.74-.57,1.11-.66.37-.1,1.67-.2,1.67-.2"/>
        <path class="cls-9" d="M55.52,71.99v.1c-.09.12-.38.16-.45.24l.09.51-.5.15.13.47-.39.62-.29.63s-.02.1-.16.16c-.28.1-.7.78-.7.78,0,0-2.05,3.94-2.47,5.18l-.77,1.52s-.15.1-.21.23c-.05.12-.06.29-.06.29l-.69,1.36c-.12.22-.42.32-.68.21l-1.16-.66c-.15-.14-.14-.46-.05-.65.09-.19,1.7-3.22,1.7-3.22.14-.21.7-1,.72-1.06"/>
        <path class="cls-9" d="M55.85,71.1s.02.19-.02.29c-.05.1-.36.12-.42.2-.06.08.08.27.11.4"/>
        <path class="cls-9" d="M51.06,75.89l.72-1.51c.06-.22.07-.53.08-.67.01-.14.37-.8.37-.8-.02-.1,0-.2,0-.2l.21-.39c.05-.09.4-.11.46-.22.04-.09-.15-.31-.11-.48.05-.16.45-.1.49-.21.04-.1-.16-.3-.1-.51.06-.21.38-.1.44-.23.06-.13-.16-.31-.09-.45.07-.14.44-.16.5-.23.06-.07-.22-.34-.14-.5.08-.16.44-.16.49-.24.05-.08-.16-.32-.12-.44.05-.12.16-.11.16-.11"/>
        <path class="cls-8" d="M53.02,75.55c-.92,1.82-4.12,8.13-4.18,8.25-.1.19-.23.28-.53.17,0,0-.42-.18-.68-.37,0,0-.14-.11-.06-.36l.44-.9,3.91-7.35"/>
      </g>
      <line class="cls-9" x1="48.6" y1="80.34" x2="49.4" y2="78.7"/>
      <g class="cls-28">
        <path class="cls-9" d="M55.5,71.94l.03.07c-.05.09-.6-.1-1.24-.42-.64-.32-1.12-.66-1.07-.75h.01"/>
        <path class="cls-9" d="M54.76,73.4l.04.05c-.03.05-.56-.17-1.2-.49-.64-.32-1.13-.63-1.11-.68h.01"/>
        <path class="cls-9" d="M54.48,74c-.03.05-.55-.18-1.18-.51-.62-.34-1.11-.65-1.08-.7h.01"/>
        <path class="cls-9" d="M54.02,74.83c-.03.05-.53-.17-1.12-.49-.59-.32-1.05-.62-1.03-.67h.01"/>
        <path class="cls-9" d="M55.13,72.27c-.23-.07-.58-.21-.95-.4-.37-.19-.69-.38-.88-.53"/>
        <path class="cls-9" d="M55.83,71.23l.03.07c-.04.09-.58-.1-1.21-.41-.62-.32-1.09-.64-1.04-.73h.01"/>
        <path class="cls-9" d="M55.45,71.55c-.23-.07-.57-.21-.94-.4-.37-.19-.68-.38-.87-.52"/>
        <path class="cls-9" d="M55.36,70.34c-.11-.05-.23-.11-.35-.17-.62-.31-1.09-.64-1.04-.73h.01"/>
        <path class="cls-9" d="M55.5,70.71c-.18-.07-.4-.17-.62-.28-.37-.19-.68-.38-.87-.52"/>
        <path class="cls-9" d="M54.63,69.06c-.2-.14-.32-.25-.29-.29h.01"/>
        <path class="cls-9" d="M54.92,69.58c-.23-.13-.42-.25-.55-.35"/>
        <path class="cls-9" d="M54.73,72.93c-.23-.07-.58-.21-.95-.4-.37-.19-.69-.38-.88-.53"/>
        <path class="cls-9" d="M55.18,72.73c-.05.09-.6-.1-1.24-.43-.64-.33-1.12-.66-1.07-.75"/>
      </g>
      <line class="cls-9" x1="56.54" y1="74.7" x2="57.36" y2="73.67"/>
      <line class="cls-9" x1="57.63" y1="74.1" x2="56.91" y2="75.01"/>
      <g class="cls-7">
        <path class="cls-8" d="M53.13,81.3c.18.44.3.91.34,1.41"/>
        <path class="cls-8" d="M53.3,84.41c-.11.38-.27.73-.46,1.07"/>
      </g>
      <line class="cls-8" x1="52.03" y1="84.36" x2="52.4" y2="84.92"/>
      <g class="cls-23">
        <path class="cls-9" d="M102.32,83.95c-.04-.37-.06-.8-.07-1.17"/>
        <path class="cls-9" d="M102.59,85.28v.14c1.25,4.78,5.59,8.31,10.76,8.31,6.13,0,11.1-4.97,11.1-11.1,0-4.29-2.58-7.76-6.01-9.86-.19-.12-1.8-.82-1.8-.82,0,0,4.85,2.14,5.04,2.3.2.16,4.17,6.47,4.17,6.47.76,1.06,2.34,1.63,2.62,1.7.28.07.78.07.78.07l-.02-.51c0-.11-.5-.11-1.51-1.03-.11-.07-.25-.22-.25-.22,0-.04.21.05.21-.05s-.03-1.28-.03-1.28c-.01-.19-.22-.26-.22-.26l-.39-.19-.16-.39.6-.39.25.69.14-.09-2.15-5.65.21-.06-.16-.4-.22.05-.12-.28-.28.04-.55.18"/>
        <path class="cls-9" d="M103.44,84.34c-.06-.37-.09-.71-.11-1.1"/>
        <path class="cls-9" d="M114.67,72.66c4.93.65,8.73,4.86,8.73,9.97,0,5.55-4.5,10.06-10.05,10.06-4.53,0-8.37-3-9.62-7.12"/>
        <path class="cls-9" d="M104.51,77.43c.41-.68.91-1.31,1.49-1.9.24-.24.49-.47.75-.68"/>
        <line class="cls-9" x1="105.24" y1="83.91" x2="105.2" y2="83.65"/>
        <path class="cls-9" d="M114.1,74.45c4.18.38,7.46,3.9,7.46,8.18,0,4.53-3.67,8.21-8.21,8.21-3.32,0-6.18-1.97-7.47-4.8"/>
        <path class="cls-9" d="M114.02,74.44c4.22.34,7.54,3.88,7.54,8.18,0,4.53-3.67,8.21-8.21,8.21-3.31,0-6.17-1.96-7.47-4.79"/>
        <path class="cls-9" d="M107.29,77.09c.97-1.06,2.21-1.86,3.61-2.3"/>
        <path class="cls-8" d="M107.74,77.58c.9-1,2.07-1.76,3.39-2.16"/>
        <path class="cls-8" d="M114.29,75.14c3.72.46,6.6,3.64,6.6,7.49,0,4.17-3.38,7.55-7.55,7.55-2.79,0-5.27-1.61-6.58-3.85"/>
        <path class="cls-8" d="M114.44,75.69c3.31.55,5.83,3.42,5.83,6.89,0,3.86-3.12,6.98-6.98,6.98-1.68,0-3.23-.6-4.43-1.59"/>
        <path class="cls-8" d="M108.36,77.64c.8-.8,1.79-1.4,2.9-1.74"/>
        <path class="cls-9" d="M107.56,85.09c-.07-.16-.11-.28-.17-.45"/>
        <path class="cls-9" d="M114.61,76.46c2.81.61,4.91,3.11,4.91,6.1,0,3.45-2.8,6.24-6.24,6.24-1.5,0-2.88-.53-3.96-1.42"/>
        <path class="cls-9" d="M125.33,73.92c0,.81-.66,1.47-1.47,1.47s-1.46-.66-1.46-1.47.66-1.46,1.46-1.46,1.47.66,1.47,1.46Z"/>
        <path class="cls-9" d="M99.24,83.98c0,.24-.2.44-.44.44s-.44-.2-.44-.44.2-.44.44-.44.44.2.44.44Z"/>
        <path class="cls-8" d="M99.04,83.97c0,.13-.11.24-.24.24s-.24-.11-.24-.24.11-.24.24-.24.24.11.24.24Z"/>
        <path class="cls-8" d="M125.16,73.92c0,.72-.58,1.3-1.3,1.3s-1.3-.58-1.3-1.3.58-1.3,1.3-1.3,1.3.58,1.3,1.3Z"/>
        <path class="cls-8" d="M108.51,87.6c0,.09-.07.17-.17.17s-.17-.07-.17-.17.07-.16.17-.16.17.07.17.16Z"/>
        <path class="cls-8" d="M109.73,86.29c-.05.37-.14.66-.2.65-.06,0-.07-.31-.02-.68.05-.37.14-.66.2-.65.06,0,.07.31.02.68Z"/>
        <path class="cls-9" d="M106.39,77.79c-.1.17-.13.36-.2.44l-.23-.06c-.09-.08-.09-.39.17-.87l.04-.19.09-.03.07-.09.05-.15.13-.05.07-.08.08-.16.15-.04.09-.06.1-.13h.18c.19-.1.34-.14.4-.14.11,0,.18.08.12.22-.1.24-.36.4-.47.48"/>
        <path class="cls-9" d="M106.39,77.89s-.02-.2,0-.32c.03-.12.36-.67.58-.8.23-.13.27-.06.25-.01"/>
        <path class="cls-9" d="M107.25,76.76l.11,8.47s-.01.25-.11.42c-.34.64-.99.41-1.13.22-.08-.12.04-.32.04-.32.06-.1.25.01.31-.3.06-.31-.07-7.37-.07-7.37"/>
        <path class="cls-9" d="M106.47,82.45l-.58-.03c-.15-.01-.16.13-.16.13,0,0-.31,1.45-1.04,2.11-.1.1-.09.4.02.46.1.06,1.24.44,1.5.37"/>
        <path class="cls-9" d="M109.56,86.95l-.73.97c-.24.26-.7.27-.81.06-.11-.21-.64-1.53-.64-1.53l-.66-.16-.06-.19.05.2,2.85.65"/>
      </g>
      <line class="cls-9" x1="107.36" y1="85.06" x2="109.71" y2="85.6"/>
      <g class="cls-2">
        <path class="cls-9" d="M102.07,84l-.66-.31v-.99s-.05-.03-.05-.03l-.04-.62s.4.62.91.7"/>
      </g>
      <line class="cls-9" x1="104.69" y1="84.66" x2="102.91" y2="84.23"/>
      <g class="cls-3">
        <path class="cls-9" d="M107.33,77.75l8.87.74c1.05.06,1.63.71,1.65,1.67.02.96-.02,2.51-.29,3.17-.27.67-.92,1.23-2.17,1.17-.8-.04-5.04-.44-8-.72"/>
        <path class="cls-9" d="M105.37,83.59c-.58-.06-.93-.09-.93-.09-1.04-.1-2.54-.9-2.71-1.13-.2-.3-.36-.94-.36-.94-.04-.52.49-1.04.49-1.04l2.63-2.8c.1-.1.26-.06.26-.06l1.13.09"/>
        <path class="cls-8" d="M105.65,82.74c-.16-.01-.34-.04-.34-.04-.87-.07-3.79-1.13-3.93-1.28"/>
        <path class="cls-8" d="M107.28,78.6l8.38.8c.87.04,1.16.41,1.17,1.06.02.65-.06,1.67-.24,2.14-.18.46-.37.94-1.61.86-.71-.04-4.99-.39-7.61-.6"/>
        <path class="cls-9" d="M107.33,79.12l8.16.67c.65.03.87.31.89.8.01.49-.12,1.24-.18,1.62-.05.26-.09.69-1.02.63-.54-.03-5.85-.48-7.83-.64"/>
        <polyline class="cls-8" points="103.84 78.33 104.06 78.29 106.41 78.52"/>
        <path class="cls-9" d="M106.39,82.12s-1.39-.16-2.12-.32c-.92-.19-2.73-.97-2.73-.97"/>
        <path class="cls-9" d="M103.49,78.66s.6.16,2.94.34"/>
        <path class="cls-9" d="M111.42,77.17s-.12.02-.21.14c-.09.12-.27.57-.43.57s-1.54-.08-1.54-.08c.63-.54,1.37-.95,2.18-1.2"/>
        <path class="cls-9" d="M114.94,77.32s.15.06.13.19c-.01.13-.01.82.71.96"/>
        <path class="cls-9" d="M111.69,77.12c.02.1.72.04,1.56-.15.53-.11.99-.25,1.25-.36"/>
        <path class="cls-8" d="M124.56,75.32s2.06,4.97,2.96,5.83c.76.73,1.47.8,1.47.8"/>
        <polygon class="cls-9" points="125.3 74.33 126.58 77.74 127.3 77.73 125.91 74.04 125.77 74.06 125.67 74.1 125.3 74.33"/>
      </g>
      <line class="cls-9" x1="125.2" y1="72.5" x2="125.71" y2="74"/>
      <g class="cls-25">
        <path class="cls-9" d="M127.04,78.98l-.19.11c.02.09.41,1.4.64,1.61"/>
        <polyline class="cls-8" points="126.98 79.29 127.51 79.36 127.55 79.43 127.62 80.7"/>
      </g>
      <line class="cls-8" x1="120.54" y1="70.82" x2="122.86" y2="72.63"/>
      <g class="cls-15">
        <path class="cls-9" d="M122.37,70.06s.34.29.89.38c.43.07,3.32.52,3.32.52.15.04.2.18.2.18l.3.55c.04.13-.13.13-.13.13l-2.39.31c-.2.11,0,.45,0,.45l-.36-.12-1.89-2.42.06.02Z"/>
      </g>
      <line class="cls-8" x1="126.63" y1="77.86" x2="126.86" y2="78.45"/>
      <g class="cls-16">
        <path class="cls-9" d="M113.98,75.12h.19s.03,0,.03,0l.1.05c.02.1-.64.33-1.48.52-.84.18-1.56.27-1.55.16.01-.16.16.61.16.61l.28.67c-.17,0-.28.02-.28.04,0,.05.78.12,1.75.16.97.04,1.76.04,1.76-.01,0-.02-.12-.04-.32-.06-.02-.1,0-.22,0-.22l-.23-1.42-.09-.43"/>
        <path class="cls-9" d="M103.57,84.92c.12,0,2.11.51,2.11.51"/>
        <path class="cls-9" d="M104.63,85.04s-.91-.26-1.06-.27"/>
      </g>
      <line class="cls-9" x1="102.45" y1="84.8" x2="102.31" y2="85.36"/>
      <g class="cls-20">
        <path class="cls-8" d="M69.63,47.61c.02.2-.01.33-.08.29-.05-.03-1.57-.8-3.43-1.9-1.86-1.1-3.35-2.04-3.32-2.09.02-.03-.02-.08.67.01"/>
        <path class="cls-9" d="M62.8,43.91s-3.75,3.8-7.36,8.86c-1.22,1.65-2.41,3.36-2.41,3.43l.07.1,3.67.1c.23.01.18.22.15.33-.04.11-.2.74-.2.74-.17.39-.48.39-.48.39-.37.09-.99.31-.99.31-.26.16-.41.26-.52.65-.11.39-.73,3.17-.73,3.17-.14.58-.85.8-1.22.85-.37.05-1.7-.04-1.7-.04-.11.05-.11.2-.11.2l-.02,1.14c-.01.4.18.76.25.81-.27,0-.21.38-.11.43.1.05.66.07.93.26.64.44,2.35,3.06,2.35,3.06l9.68,16.09c.45.9.56.93.69.93s30.38-.32,30.38-.32c.58,0,1.65-1.25,1.83-1.7.19-.45.58-1.38,1.22-1.46.64-.08.98.05,1.27-.03.29-.08.4-.85.4-.85,0,0,.64.03.85-.19.21-.21,4.28-4.49,4.49-4.78.21-.29.77-1.49.77-1.49,0,0,3.11-.26,6-1.49,1.94-.77,10.15-3.37,10.15-3.37.58-.13.61-.32.69-.45.08-.13.08-1.22.08-1.22-.21-.32-.4-.69-.45-1.04-.05-.35-.24-1.22-.24-1.22l.11-.08-1.06-3.85-.74-3.03c-.05-.35-.29-.35-.29-.35l-2.04-.48s-1.04-.22-1.31-.19c-.13,0,0-.31,0-.31.16,0,.68-.03.74-.16.06-.13-.01-.7-.01-.7"/>
        <path class="cls-9" d="M52.96,56.46s3.51.06,3.69.07c0,0,.1.02.1.16,0,0-.1.37-.23.71-.14.34-.63.32-.81.34-.18.02-.85.09-1.14.76,0,0-.61,2.54-.74,3.08-.12.54-.31,1.03-.99,1.03h-1.63s-.09.02-.09-.09c0,0,.32-1.73.45-2.42.49-2.49,1.25-3.59,1.25-3.59-.03.03.05-.07.15-.07Z"/>
        <path class="cls-9" d="M117.01,55.18s-.56-1.59-1.2-1.6c-.64-.01-6,.36-11.56,1.15-1.26.41-2.91,1.1-5.98,1.36-3.07.25-9.6-.02-11.6-.4-1.24-.05-1.89.68-2.17,1.84-.92,3.32-.42,5.07-.29,5.31.11.1.41-.02.41-.02.18-.07.75-.33.85-.29.1.04-.3,1.15-.17,1.21.13.06.38.28.12.33-.25.05-.3.04-.29.19.01.16.34,2.02.34,2.02-.16-.02-.36-.06-.34.06.02.12.17.13.17.23s.05.13.12.07l.14.04,1.02,6.34c.15.81-.29,2.11-1.84,2.2-1.55.1-15.72,1.33-15.72,1.33-1.03.02-1.13-.45-1.17-1.38-.05-.93-1.09-5.98-1.09-5.98-.08-.22-.27-.33-.27-.33l-1.48-6.65c-.07-.71.07-1.89.07-1.89v-.19s1.67-4.47,1.67-4.47h-.17s.45-1.17.45-1.17c.07-.11.24-.12.24-.12.18-.05.28,0,.39-.12.11-.12.98-2.57.98-2.57.07-.22-.04-.33-.17-.31.02-.17.07-.33-.1-.39-.1-.04-.01-.23-.01-.23,0,0,.54-1.54.64-1.79.1-.25.32-.56.4-.66.08-.1.18-.39.18-.39"/>
        <path class="cls-9" d="M116.81,57.94s.62.06.88-.07c.26-.14.8-.44.72-.98"/>
        <path class="cls-9" d="M118.21,58.35s.93-.65,1.37-1.29c.44-.64.87-5.49.87-5.49"/>
      </g>
      <line class="cls-9" x1="119.61" y1="51.61" x2="119.01" y2="54.99"/>
      <g class="cls-30">
        <path class="cls-9" d="M119.3,51.56h1.35c.27-.02.3-.25.3-.25l.57-6.3c0-.19-.02-.15-.14-.23h-.28s-.68-.44-1.48-.16c-.8.28-1.51,1.17-1.8,3.42-.24,1.93.32,3.4,1.49,3.52Z"/>
        <path class="cls-9" d="M120.65,51.56s.3-.14.02-.21c-.28-.07-1.33,0-1.91-.65-.68-1.06-.54-4,.39-4.95.73-.75,1.4-.84,2.34-.86"/>
        <path class="cls-9" d="M106.24,59.3v-.21s.08,0,.08,0c0,0,.02,1.02.34,1.02s2.83-.14,2.91-.32c.1-.15-.02-1.04-.02-1.04h-.12s.03.88.03.88"/>
        <path class="cls-9" d="M109.55,59.64s-.36.16-.36-.03c0-.29-.13-1.43.92-1.69,1.05-.26,9.36-1.18,9.36-1.18.2-.03.24-.26.24-.26,0,0,.2-1.27.15-1.46-.03-.11-.33-.08-.33-.08,0,0-5.01.57-8.31.89-1.77.15-3.96.03-4.23,1.7-.28,1.3-.42,2.17-.29,2.5"/>
      </g>
      <line class="cls-9" x1="109.6" y1="58.99" x2="116.77" y2="58.14"/>
      <g class="cls-36">
        <path class="cls-8" d="M106.24,59.31s-11.28,1.26-14.12,1.94c-2.84.68-4.41,1.12-5.13,1.53-.68.26-.37,1.46-.37,1.46l1.07,8.55c.15,1.62-.81,2.09-2.22,2.32"/>
        <path class="cls-9" d="M85.47,62.53s6.88-1.75,9.86-1.85"/>
      </g>
      <line class="cls-9" x1="85.91" y1="62.43" x2="85.91" y2="62.88"/>
      <g class="cls-31">
        <path class="cls-8" d="M95.05,60.73s-4.01.33-9.34,2.29c-.2.13-.2.87-.2.87"/>
        <path class="cls-9" d="M85.62,63.11s1.51-.13,3.44-.53c1.48-.23,1.93-.43,1.93-.43.18-.08.15.25.15.25l2.16,11.73c.43.78.83,1.26,1.31,1.26s3.17-.05,3.17-.05"/>
        <path class="cls-9" d="M91.25,62.81s0-.45.25-.53c.25-.08,3.42-.55,3.42-.55.4-.05.53.1.55.33.03.23,2.44,13.31,2.44,13.31,0,0,7.22-.39,8.07-.44"/>
        <path class="cls-9" d="M87.13,62.71s14.22-2.16,23.18-2.86c8.97-.7,9.92-.7,10.05-.93"/>
        <path class="cls-8" d="M115.74,59.72s.35.7.85.8c.5.1,2.24.38,2.24.38.53.08.58.68.58.68l1.76,6.76c.23.83-.4,1.36-.85,1.53s-11.55,3.72-11.55,3.72c-1.23.48-2.49.5-2.49.5,0,0-8.44.5-8.54.28"/>
        <path class="cls-9" d="M95.37,61.78s18.91-2.06,21.02-2.13c1.51-.13,3.21-.28,3.34-.18.13.1,2.24,8.16,2.24,8.16.1.33-.05.43-.05.43l-.63.33"/>
        <path class="cls-9" d="M119.73,59.47l-.18.28c-.12.2-.02.48-.02.48l2.06,7.58c.08.28.4.1.4.1"/>
      </g>
      <line class="cls-9" x1="121.59" y1="67.93" x2="121.16" y2="68.33"/>
      <g class="cls-5">
        <path class="cls-9" d="M119.43,59.89s-10.12.18-23.91,2.29"/>
        <polygon class="cls-8" points="96.33 72.94 96.25 72.87 94.44 62.48 94.5 62.39 94.6 62.46 96.4 72.84 96.34 72.93 96.33 72.94"/>
        <polygon class="cls-8" points="95.24 73.14 95.16 73.08 93.35 62.69 93.42 62.6 93.51 62.66 95.32 73.05 95.25 73.14 95.24 73.14"/>
        <polygon class="cls-8" points="94.21 73.33 94.13 73.26 92.32 62.88 92.39 62.79 92.48 62.85 94.29 73.24 94.22 73.33 94.21 73.33"/>
        <path class="cls-9" d="M101.18,80.72s-.25.84.07,1.29l-1.48-.15"/>
        <path class="cls-9" d="M100.16,82.51l.06-.61s.07.12.59.16c.52.04.46-.02.46-.02"/>
        <path class="cls-9" d="M101.35,82.58c-.36.2-1.19-.06-1.19-.06l-.13.07v.47"/>
        <path class="cls-9" d="M101.42,82.69c-.77.14-1.39-.1-1.39-.1"/>
        <path class="cls-9" d="M99.86,83.06l.02-.92c.02-.16.17-.25.17-.25"/>
      </g>
      <polygon class="cls-9" points="97.39 84.06 97.78 84.07 97.9 84.2 97.71 85.14 97.21 85.14 97.39 84.06"/>
      <polygon class="cls-9" points="97.34 84.96 97.6 84.97 97.74 84.2 97.48 84.2 97.34 84.96"/>
      <line class="cls-9" x1="97.6" y1="84.97" x2="97.66" y2="85.11"/>
      <line class="cls-9" x1="97.32" y1="84.98" x2="97.22" y2="85.13"/>
      <line class="cls-9" x1="97.71" y1="84.21" x2="97.9" y2="84.2"/>
      <g class="cls-33">
        <path class="cls-9" d="M96,84.96s1.18.35,1.78.34,1.82-.31,1.82-.31c.11-.07.42.03.51.02l.19-.09,2.05.46.02-.14,4.32.97"/>
        <path class="cls-9" d="M51.21,64.96s.73.05.96.24c.23.19,1.72,2.01,2.77,3.74,1.05,1.73,8.71,14.65,8.71,14.65.82,1.23,1.88,1.27,2.41,1.28.52.01,8.58-.42,8.58-.42,1.14-.06,1.19-.29,1.67-.64s.91-.73,1.86-.81c.95-.08,3.04-.08,3.6-.26.56-.18,1.59-.53,2.01-.54s16.08-.83,16.08-.83"/>
        <path class="cls-9" d="M75.41,84.32s.5-2.2,1.62-2.6c1.11-.4,4.32-.58,4.98-.61.66-.03,1.43,1.17,1.67,1.14"/>
      </g>
      <line class="cls-9" x1="77" y1="81.86" x2="77.5" y2="82.97"/>
      <line class="cls-9" x1="82.06" y1="81.22" x2="81.66" y2="82.57"/>
      <line class="cls-9" x1="75.09" y1="84.43" x2="75.06" y2="85.57"/>
      <line class="cls-9" x1="75.3" y1="84.43" x2="75.27" y2="85.57"/>
      <g class="cls-4">
        <path class="cls-9" d="M77.63,83.08l-.04,1.8c.06.08.21.1.3.04.1-.07,2.2.06,2.2.06,0,0,.05-.29.15-.35.1-.06.42,0,.5-.04l.1-.27,4.74.15s.04-.1.03,0c0,.11.04.22.13.21h1.53s.21.09.21.09h.65s.31-.31.31-.31l.31-.05s.25-.44.24-.89c0-.45-.29-.76-.29-.76,0,0,.12.15-.03,0-.15-.14-.12-.12-.3-.12-.18,0-.14,0-.27-.13-.13-.14-1.15-.46-1.15-.46-.35-.02-.49.32-.49.32l-.45.72-.28-.1c-.12-.07-.31.03-.31.03l-.1.21h-4.17s-.37,0-.44-.12c-.07-.12-.06-.21-.06-.21"/>
        <path class="cls-9" d="M77.58,84.86l.23-.15c.14-.07.32-.04.32-.04l.35.02c.15,0,.15-.35.15-.35l1.27.18v.23s.2.05.2.05"/>
        <polygon class="cls-9" points="79.69 83.07 79.53 83.19 79.37 83.07 79.53 82.95 79.69 83.07"/>
        <path class="cls-9" d="M79.82,82.93l.05.14c0,.15-.16.26-.35.26s-.35-.12-.35-.26l.03-.1"/>
        <path class="cls-9" d="M80.02,82.9l.09.23c0,.24-.26.44-.58.44s-.58-.19-.58-.44l.05-.17"/>
        <path class="cls-9" d="M80.31,82.89c.09.11.14.24.14.37,0,.39-.42.7-.93.7s-.93-.31-.93-.7c0-.1.03-.19.07-.27"/>
      </g>
      <polyline class="cls-9" points="80.65 83.01 80.6 84.11 78.56 84.04 78.58 83.29"/>
      <g class="cls-6">
        <path class="cls-9" d="M85.44,83.37s0-.14.14-.05c.13.09.11.27.29.28.18.02.71.06.71.06"/>
        <path class="cls-9" d="M85.82,83.06s.02.17.18.2c.17.03.5,0,.5,0l.15-.47s.06-.2.3-.22c.24-.03.93.35.93.35.12.05.29.12.37.24.02.03.1.09,0,.59-.1.5-.19.57-.45.65"/>
        <path class="cls-9" d="M88.11,84.73s.07,0,.25-.3c.04-.07.09-.15.14-.24.29-.54.05-1.26.05-1.26,0,0,.29.26.23.75-.07.49-.16.65-.38.74"/>
      </g>
      <line class="cls-9" x1="86.71" y1="83.23" x2="86.65" y2="83.66"/>
      <line class="cls-9" x1="85.59" y1="83.38" x2="85.6" y2="84.47"/>
      <line class="cls-9" x1="85.77" y1="83.56" x2="85.77" y2="84.67"/>
      <g class="cls-32">
        <path class="cls-9" d="M86.68,83.66s.2.04.33-.02"/>
        <path class="cls-9" d="M86.7,83.32s.31,0,.41-.04"/>
        <path class="cls-9" d="M87.15,83.18l-.04.97c0,.08.41.2.61.1.2-.1.35-.65.35-.65l-.92.57"/>
        <path class="cls-9" d="M86.68,83.14s.87,0,.96-.08c.1-.08.1-.28-.18-.28h-.57l-.22.35Z"/>
        <path class="cls-9" d="M81.82,82.78l2.19.23c.32.04.3.16.3.16"/>
        <path class="cls-9" d="M84.26,84.47s.09.4-.09.39c-.19-.01-3.08-.47-3.08-.47"/>
        <path class="cls-9" d="M84,84.49s.12.32-.05.31"/>
        <path class="cls-9" d="M83.72,84.47s.09.3-.05.3"/>
        <path class="cls-9" d="M83.45,84.45s.13.31,0,.3"/>
        <line class="cls-9" x1="83.23" y1="84.4" x2="83.2" y2="84.7"/>
        <line class="cls-9" x1="82.97" y1="84.39" x2="82.95" y2="84.67"/>
        <line class="cls-9" x1="82.7" y1="84.39" x2="82.71" y2="84.63"/>
        <line class="cls-9" x1="82.51" y1="84.41" x2="82.49" y2="84.59"/>
        <line class="cls-9" x1="82.25" y1="84.37" x2="82.24" y2="84.56"/>
        <path class="cls-8" d="M107.31,60.05s.06-.17.35-.21c.28-.04.26.06.26.06.07.03.09-.11.51-.21.42-.1.37.07.46.07s.07-.1.28-.14"/>
        <path class="cls-9" d="M87.57,75.81v.57s.32-.11.77-.1c.46.01,4.71-.24,4.71-.24.26,0,.18-.14.18-.14l-.26-.64-.14-.08-.65.04c-.1,0-.14.12-.14.12,0,0,.06.21-.36.22-.41.01-3.88.19-3.88.19-.17,0-.23.04-.23.04Z"/>
      </g>
      <line class="cls-9" x1="87.96" y1="76.32" x2="87.96" y2="76.58"/>
      <line class="cls-9" x1="89" y1="76.29" x2="89" y2="76.54"/>
      <line class="cls-9" x1="88.09" y1="75.5" x2="88.09" y2="75.74"/>
      <line class="cls-9" x1="88.97" y1="75.47" x2="88.97" y2="75.64"/>
      <g class="cls-24">
        <path class="cls-9" d="M92.48,76.37l.02-.11,1.44-.09-.04-.78c0-.18-.14-.36-.72-.34-.58.02-5.61.47-5.61.47-.34.12-.29.32-.29.32l.04.81"/>
        <path class="cls-9" d="M92.97,75.27s.32-.06.59-.02c.28.04.25.31.25.31l.03.59"/>
        <path class="cls-9" d="M93.06,75.41s.33-.05.43.03c.1.08.07.58.07.58h-.32"/>
        <path class="cls-9" d="M84.99,75.21s8.31-.56,8.84-.27"/>
        <path class="cls-8" d="M65.46,45.62s.5.45.06,1.28c-.45.83-5.94,14.67-5.94,14.67-.28,2.23,1.71,5.64,1.71,5.64l4.84,9.07c.82,1.15,1.39.95,1.39.95l17.94-.95"/>
        <path class="cls-9" d="M85.9,75.32s.07,1.27-.74,1.31c-.8.03-.63.23-.63.23l9.16-.54c.48,0,.54.54.54.54"/>
        <path class="cls-9" d="M94.61,75.39s.29,2.33-.62,2.22l-.07-.45s.02-.3-.32-.27c0,0-4.95.32-6.09.36-1.14.04-1.36.59-1.36.59-.49.35-.63-.36-.35-.79"/>
        <path class="cls-9" d="M62.76,43.98s.5.47.86.76c.36.29,1.63,1.01,1.63,1.01.32.21.23.49.23.49-.14.43-.34.81-.34.81l-5.7,13.02c-.81,2.14-.18,4.14.36,5.43.54,1.29,5.8,11.06,5.8,11.06,1.03,1.5,2.83,1.09,4.06,1.08,1.23-.01,14.8-.86,14.8-.86"/>
        <path class="cls-8" d="M65.8,46.43s.86.5,1.26.95c.41.45.05,1.22.05,1.22l-6.94,16.01"/>
        <path class="cls-8" d="M64.5,55.67l2.94-6.75c.5-.94.86-.82,1.24-.78.38.04.63.14.63.14"/>
        <path class="cls-9" d="M66.69,55.69l-2.12-.1-1.39,3.55c-.19.69.17.88.42.92.25.04,1.47.11,1.47.11"/>
        <path class="cls-9" d="M64.75,55.63l-1.45,3.64c-.17.34.13.8.3.8"/>
        <path class="cls-8" d="M68.48,51.38s-.12.08-.19.23c-.07.16-.85,2.27-.85,2.27-.1.32-.08.46-.08.46"/>
        <path class="cls-8" d="M68.31,50.9s-1.11,2.9-1.17,3.06c-.08.24-.1.42-.04.48"/>
        <path class="cls-8" d="M68.67,51.57s-.09-.13-.17.05c-.07.19-.86,2.31-.86,2.31-.08.26.05.21.05.21"/>
        <path class="cls-9" d="M94.64,76.13l1.73-.08c.2,0,.17.13.17.13,0,0,.27,2.3.25,2.78-.02.48-.03.93-.65,1.3-.62.37-1.9,1.35-1.9,1.35"/>
        <path class="cls-9" d="M105.26,76.22l-6.54.37c-.25.04-.2.28-.2.28,0,.2.18.19.33.19s5.93-.28,5.93-.28"/>
        <path class="cls-9" d="M104.16,77.47l-5.17.29c-.33.03-.3.29-.3.29-.03.2.16.24.38.23.22-.02,4.52-.21,4.52-.21"/>
        <path class="cls-9" d="M88.56,82.64s-.03-.66.13-.56c.16.11.16.89.16.89"/>
        <path class="cls-9" d="M88.93,84.01s.13,1.39-.07,1.43c-.2.04-.16-.48-.19-.66-.03-.19-.03-.34-.03-.34"/>
        <path class="cls-8" d="M84.38,62.19s.12-.63,4.42-1.39c4.3-.76,8.93-1.39,11.19-2.54,2.26-1.15,3.37-2.8,5.63-3.06,2.26-.26,8.78-.82,9.44-1.01.61-.17.64-.36.64-.36"/>
        <path class="cls-8" d="M73.89,43.45c0,.21-.17.38-.38.38s-.38-.17-.38-.38.17-.38.38-.38.38.17.38.38Z"/>
        <path class="cls-8" d="M68.28,43.81c0,.22-.18.39-.39.39s-.39-.18-.39-.39.17-.39.39-.39.39.18.39.39Z"/>
        <path class="cls-8" d="M68.18,43.81c0,.16-.13.29-.29.29s-.29-.13-.29-.29.13-.29.29-.29.29.13.29.29Z"/>
        <rect class="cls-8" x="64.94" y="41.59" width=".16" height=".16" transform="translate(-10.42 58.18) rotate(-45)"/>
        <path class="cls-9" d="M74.3,43.38c.04.45-.3.84-.74.88-.45.04-.84-.3-.88-.74-.04-.45.3-.84.74-.88.45-.04.84.29.88.74Z"/>
        <path class="cls-9" d="M70.1,42.98c-.46-.22-.85-.71-.89-1.25-.07-.81.54-1.53,1.35-1.59.58-.05,1.02.22,1.39.67"/>
        <path class="cls-9" d="M69.42,39.85s-.18.05-.38.01c-.2-.04-.36-.11-.35-.15"/>
        <path class="cls-9" d="M68.9,39.67c-.12,0-.21,0-.22.04l-.5,1.53c-.01.07.22.17.52.23.2.04.38.05.48.03l.04-.09.09-.38.11-1.17s-.03-.06-.14-.1"/>
        <path class="cls-9" d="M66.76,39.73c-.04.21-.14.37-.22.35-.08-.01-.12-.2-.08-.41.04-.21.14-.37.22-.35.08.02.11.2.08.41Z"/>
        <path class="cls-9" d="M69.99,40.86c-.09.15-.22.24-.28.21-.06-.04-.03-.19.07-.34.09-.15.22-.24.28-.21.06.04.03.19-.06.34Z"/>
        <path class="cls-9" d="M66.89,39.82c-.09.38-.29.66-.44.63-.15-.04-.2-.37-.11-.76.09-.38.29-.66.44-.62.15.04.2.37.11.75Z"/>
        <path class="cls-9" d="M72.97,42.17v-.34c0-.15-.05-.15-.05-.15h-.24"/>
        <path class="cls-9" d="M72.75,41.69c-.22-.61-.83-1.02-1.5-.97-.81.07-1.41.78-1.34,1.58.05.62.47.99.97,1.3.14.09.28.11.28.11l.79.03c.13,0,.1-.13.1-.13"/>
        <path class="cls-8" d="M71.73,43.4h-.09c-.61.06-1.15-.39-1.2-1.01-.05-.61.4-1.15,1.02-1.2.53-.04,1,.29,1.16.78"/>
        <path class="cls-8" d="M71.88,43.51l-.26.05c-.7.06-1.32-.46-1.38-1.17-.06-.7.46-1.32,1.17-1.38.66-.06,1.24.4,1.36,1.04"/>
        <path class="cls-9" d="M72.04,43.58l.92.61c.15.1.45.14.63.07.42-.15.78-.43.74-.88-.03-.3-.22-.55-.47-.67l-1.91-1.13c-.12-.06-.26-.08-.41-.07-.45.04-.78.43-.74.88.02.25.16.47.35.61l.88.58"/>
        <path class="cls-8" d="M73.47,44.3c-.48.04-.9-.32-.94-.8-.04-.48.32-.9.8-.94.18-.02.35.03.5.11"/>
        <path class="cls-9" d="M71.71,35.99c-1.02,1.21-2.01,2.5-2.09,2.71-.1.27-.22.71-.26.95-.02.12-.11.11-.22.11h-.04c-.13-.03-.24-.06-.21-.19,0-.04.16-.68.28-1.03.06-.28,1.35-1.88,2.18-2.87"/>
        <path class="cls-9" d="M66.57,38.54s.05-.08.24-.09,2.16.62,2.16.62"/>
        <path class="cls-9" d="M67.51,39.05s.07-.03.19,0c.36.07,1.09.27,1.19.37"/>
        <path class="cls-9" d="M69.42,39.42s0,.22.24.2c.25-.02,1.11.28,1.56.61"/>
        <path class="cls-9" d="M63.44,43.93s.51.23,1.27.66l.16-.58"/>
        <path class="cls-8" d="M69.63,47.58s-1.39-.69-3.11-1.71c-1.72-1.02-3.1-1.89-3.07-1.93"/>
        <path class="cls-9" d="M70.96,43.67l-.2,1.55c-.04.35-.81.84-.81.84-.33.19-.51.03-.6.14-.09.11-.34.61-.34.61-.12.05-.56-.17-.56-.17l.02.15,1.16.78"/>
        <path class="cls-9" d="M69.41,46.17c-.52-.04-4.65-2.24-4.65-2.24-.11-.11,0-1.34.13-1.52.13-.19,1.42-1.36,1.42-1.36.12-.12.36-.11.36-.11l.08-.32h-.14v-.09s-.4-.2-.4-.2l-.06-.08.43-1.71.94.51-.38,1.7.22.09-.06.53h.99"/>
        <path class="cls-9" d="M64.78,44.59s1.31,1.06,3.67,2.05"/>
      </g>
      <line class="cls-9" x1="66.25" y1="41.09" x2="65.37" y2="40.79"/>
      <line class="cls-9" x1="66.08" y1="41.23" x2="65.33" y2="40.96"/>
      <g class="cls-1">
        <path class="cls-9" d="M66.52,38.73l-2.35,4.12c-.29.42-1.01.76-1.12.13,0,0-.1-.86-.08-1.17.02-.31.45-1.38.45-1.38,0,0,1.21-2.69,2.51-4.34.17-.17.32-.13.38-.08.06.05.49.38.54.96.06.67-.21,1.48-.21,1.48"/>
        <path class="cls-8" d="M63.06,42.98s.28.34.73-.14c.46-.48,2.73-4.81,2.73-4.81.32-.96-.19-1.98-.44-1.99"/>
      </g>
      <line class="cls-9" x1="64.29" y1="42.68" x2="64.74" y2="42.98"/>
      <g class="cls-13">
        <path class="cls-8" d="M66.67,40.93s.11-.25.22-.24c.11.01.1.18.1.18,0,0-.33.19-.18.42.15.23.29.29.32.51l.02.21v.58c.01.13.31.26.31.26l.6.24c.14.04.09.13.09.13l-.1.23"/>
        <path class="cls-8" d="M68.5,42.03c.28-.02.43.15.43.23l.09.98c0,.18-.23.38-.23.38l-.57.49c-.22.15-.29.11-.29.11"/>
        <path class="cls-8" d="M67.16,42.01s.52.25,1.1.08c.58-.18.58-.29.58-.29l.08.11v.27"/>
        <path class="cls-8" d="M67.15,41.85s.83.18,1.39-.13c.1-.01.31.08.31.08"/>
      </g>
      <line class="cls-9" x1="69" y1="42.65" x2="69.33" y2="42.66"/>
      <g class="cls-14">
        <path class="cls-9" d="M69.21,41.66s-.2,1.18.62,1.18"/>
      </g>
      <line class="cls-9" x1="68.95" y1="42.25" x2="69.2" y2="42.26"/>
      <polyline class="cls-9" points="68.92 41.85 68.97 41.65 69.07 41.76 69.05 42.23"/>
      <g class="cls-37">
        <path class="cls-9" d="M69.39,39.8s.35-.13.73-.05"/>
        <path class="cls-8" d="M67.62,39l-.65-.37c-.08-.09.51.07.89.18.26.08,1.09.35,1.09.35"/>
        <path class="cls-9" d="M70.05,40.51s.17-.03.31-.02c.22.02.42.06.42.06,0,0-.69.4-1.06,1.02-.14.23-.13-.56-.03-.7"/>
        <path class="cls-9" d="M69.66,41.6s-.14.91.15,1.19"/>
        <path class="cls-9" d="M70.75,40.57s.46-.19,1.01.02"/>
        <path class="cls-8" d="M66.63,40.99s-.23.66-.01.8c.22.14.51.25.51.25"/>
        <path class="cls-8" d="M66.54,41.79l.07,1.07c.01.29.73.99.89,1.13"/>
        <path class="cls-9" d="M71.84,32.8c.16.03,1.23.41,1.23.41.51.28.23,1.18.23,1.18-.29.99-.4,1.25-.86,1.22-.47-.03-1.06-.17-1.23-.26-.18-.1-.12-1.04-.08-1.26.07-.38.29-.93.29-.93.1-.25.26-.38.43-.36Z"/>
        <path class="cls-9" d="M71.7,32.81l1.22-.26c.4-.08.54-.03.69.06.15.08,1.33.74,1.33.74.37.27.25.85.22.97-.03.12-.44,1.67-.66,1.96s-.36.52-.84.52-1.21-.21-1.21-.21c-.44-.11-.38-.88-1.17-1.21"/>
        <path class="cls-9" d="M70.92,36.1s-.3-.33-.38-.55c-.08-.22.16-1.75.16-1.75.08-.38.37-.47.37-.47l.3-.11"/>
        <path class="cls-9" d="M71.33,36.46s.78.81,1.11.94c.31.13.88.28,1.28,0,.4-.27.39-.7.39-.7"/>
        <path class="cls-8" d="M71.66,36.09s.2,1.21,1.34,1.34c.38,0,.84-.05.97-.65"/>
        <path class="cls-8" d="M73.14,32.52l1.49.85c.26.15.27.43.21.76s-.39,1.74-.62,2.06c-.35.66-1.74.44-1.9.32"/>
        <path class="cls-8" d="M67.16,42.56s.45.36,1.24.25"/>
        <path class="cls-8" d="M67.18,42.1s.13.25.81.23c.15,0,.35-.1.56-.13.1-.03.09.04.09.04v.02c-.08.17-.39.91-.54,1.19"/>
        <path class="cls-9" d="M71.37,35.68s-.02.15.33.31"/>
        <line class="cls-9" x1="111.62" y1="73.58" x2="111.54" y2="73.61"/>
        <path class="cls-9" d="M113.39,73.02c-.28.07-.5.13-.65.17,0,0-.44.13-1.12.39"/>
        <path class="cls-9" d="M111.11,73.78c.15-.06.3-.12.43-.17"/>
        <path class="cls-9" d="M113.87,75.14c-.18-.01-.52,0-.76,0"/>
        <line class="cls-9" x1="113.95" y1="75.15" x2="113.87" y2="75.14"/>
        <path class="cls-9" d="M111.96,75.56c.12-.03.26-.05.39-.08"/>
        <path class="cls-9" d="M112.89,75.37c.2-.04.36-.07.44-.09.26-.05.5-.11.5-.11"/>
        <path class="cls-9" d="M112.89,75.37c-.16.03-.35.07-.53.11"/>
        <path class="cls-9" d="M111.57,75.43s.26-.07.73-.15"/>
        <path class="cls-9" d="M113.11,75.14c.36-.07.69-.13.79-.19.18-.09.17-.22-.03-.25-.14-.03-.64-.01-.92,0"/>
        <line class="cls-9" x1="112.84" y1="75.19" x2="113.11" y2="75.14"/>
        <path class="cls-9" d="M112.84,75.19c-.16.03-.32.06-.46.08h-.07"/>
        <path class="cls-9" d="M111.86,75.12c.12-.03.25-.05.38-.08"/>
        <path class="cls-9" d="M111.86,75.12c-.28.06-.52.12-.59.15-.21.08-.12.24.01.26.07.01.41.02.68.03"/>
        <path class="cls-9" d="M112.78,74.93c.22-.04.39-.08.48-.09.26-.05.5-.11.5-.11"/>
        <path class="cls-9" d="M112.78,74.93c-.16.03-.35.07-.53.11"/>
        <path class="cls-9" d="M112.96,74.7c.35-.06.66-.13.76-.18.18-.09.17-.21-.02-.25-.13-.02-.54-.01-.82,0"/>
        <path class="cls-9" d="M111.42,75s.27-.07.77-.16"/>
        <path class="cls-9" d="M112.73,74.75c-.18.03-.36.06-.51.09h-.02"/>
        <line class="cls-9" x1="112.73" y1="74.75" x2="112.96" y2="74.7"/>
        <path class="cls-9" d="M112.66,74.49c.19-.04.34-.07.42-.08.26-.05.49-.11.49-.11"/>
        <path class="cls-9" d="M111.68,74.69c-.27.06-.49.11-.56.14-.21.08-.11.24.01.26.08.01.46.02.74.03"/>
        <path class="cls-9" d="M111.68,74.69c.14-.03.3-.06.45-.09"/>
        <path class="cls-9" d="M112.66,74.49c-.16.03-.35.07-.53.11"/>
        <line class="cls-9" x1="112.62" y1="74.32" x2="112.88" y2="74.27"/>
        <path class="cls-9" d="M111.3,74.57s.28-.07.78-.16"/>
        <path class="cls-9" d="M112.88,74.27c.33-.06.63-.12.73-.17.18-.09.17-.22-.02-.25-.13-.02-.58-.01-.86,0"/>
        <path class="cls-9" d="M112.62,74.32c-.18.03-.37.06-.52.09h-.02"/>
        <path class="cls-9" d="M111.6,74.26c-.29.06-.52.12-.6.15-.21.08-.11.24.01.26.07.01.4.02.67.03"/>
        <path class="cls-9" d="M111.6,74.26c.13-.03.28-.06.42-.09"/>
        <path class="cls-9" d="M112.55,74.06c-.16.03-.35.07-.53.11"/>
        <path class="cls-9" d="M113.46,73.88s-.24.06-.5.11c-.07.01-.23.04-.41.08"/>
        <line class="cls-9" x1="112.77" y1="73.41" x2="112.57" y2="73.41"/>
        <line class="cls-9" x1="112.73" y1="73.85" x2="112.51" y2="73.89"/>
        <path class="cls-9" d="M111.97,73.98h.02c.15-.03.33-.06.51-.09"/>
        <path class="cls-9" d="M112.73,73.85c.35-.06.67-.13.78-.18.18-.09.17-.21-.02-.25-.11-.02-.44-.01-.7,0"/>
        <path class="cls-9" d="M111.97,73.98c-.5.09-.77.16-.77.16"/>
        <line class="cls-9" x1="111.62" y1="73.8" x2="111.59" y2="73.8"/>
        <path class="cls-9" d="M111.62,73.8c.45-.09.97-.2,1.19-.24"/>
        <path class="cls-9" d="M111.6,74.26c-.27,0-.62-.02-.69-.03-.13-.02-.22-.17-.01-.26.08-.03.37-.1.7-.17"/>
        <path class="cls-9" d="M113.36,73.44s-.24.06-.5.11h-.06"/>
        <line class="cls-9" x1="112.77" y1="73.38" x2="112.57" y2="73.42"/>
        <path class="cls-9" d="M111.62,73.58c.1-.02.22-.04.36-.07.19-.03.39-.07.58-.1"/>
        <path class="cls-9" d="M112.77,73.38c.25-.05.46-.09.55-.14.14-.07.16-.16.07-.21"/>
        <line class="cls-9" x1="111.62" y1="73.8" x2="111.59" y2="73.8"/>
        <path class="cls-9" d="M111.59,73.8c-.16,0-.34,0-.48-.02"/>
      </g>
      <line class="cls-9" x1="112.77" y1="73.41" x2="112.81" y2="73.56"/>
      <line class="cls-9" x1="112.77" y1="73.41" x2="112.77" y2="73.38"/>
      <line class="cls-9" x1="111.59" y1="73.8" x2="111.59" y2="73.8"/>
      <line class="cls-9" x1="111.59" y1="73.8" x2="111.54" y2="73.61"/>
      <line class="cls-9" x1="112.13" y1="74.6" x2="112.08" y2="74.41"/>
      <line class="cls-9" x1="112.3" y1="75.28" x2="112.35" y2="75.48"/>
      <line class="cls-9" x1="111.97" y1="73.98" x2="112.02" y2="74.17"/>
      <line class="cls-9" x1="112.19" y1="74.84" x2="112.24" y2="75.04"/>
      <line class="cls-9" x1="112.62" y1="74.32" x2="112.66" y2="74.49"/>
      <line class="cls-9" x1="112.84" y1="75.19" x2="112.89" y2="75.37"/>
      <line class="cls-9" x1="112.55" y1="74.06" x2="112.51" y2="73.89"/>
      <line class="cls-9" x1="112.73" y1="74.75" x2="112.78" y2="74.93"/>
      <g class="cls-18">
        <path class="cls-9" d="M111.92,75.56s-.63.09-.64.28"/>
        <path class="cls-9" d="M98.28,83.09c-.01.08-.12.13-.23.11-.12-.02-.2-.1-.18-.18l.04-.22"/>
        <path class="cls-9" d="M103.49,84.79c.02-.1-.08-.21-.23-.23-.14-.02-.27.04-.29.15-.02.1.08.21.22.23.14.02.27-.04.29-.15Z"/>
      </g>
      <line class="cls-9" x1="103.3" y1="85.09" x2="103.24" y2="85.42"/>
      <line class="cls-9" x1="102.99" y1="85.01" x2="102.93" y2="85.35"/>
      <g class="cls-29">
        <path class="cls-11" d="M100.5,83.44l-.02-.13s-.13.11-.19.29c-.07.18-.09.34-.05.36l.1-.08"/>
        <polyline class="cls-11" points="100.61 83.48 100.59 83.36 100.5 83.44 100.44 83.67 100.34 83.88 100.35 84 100.45 83.92"/>
        <polyline class="cls-11" points="100.72 83.53 100.7 83.4 100.61 83.48 100.55 83.72 100.45 83.92 100.46 84.05 100.56 83.96"/>
        <polyline class="cls-11" points="100.83 83.57 100.81 83.44 100.72 83.53 100.66 83.76 100.56 83.96 100.58 84.09 100.67 84.01"/>
        <polyline class="cls-11" points="100.94 83.62 100.92 83.49 100.83 83.57 100.77 83.8 100.67 84.01 100.69 84.14 100.78 84.05"/>
        <polyline class="cls-11" points="101.05 83.66 101.03 83.53 100.94 83.62 100.88 83.85 100.78 84.05 100.8 84.18 100.89 84.1"/>
        <polyline class="cls-11" points="101.16 83.7 101.14 83.58 101.05 83.66 100.99 83.89 100.89 84.1 100.91 84.22 101 84.14"/>
        <polyline class="cls-11" points="101.27 83.75 101.25 83.62 101.16 83.7 101.1 83.94 101 84.14 101.02 84.27 101.11 84.18"/>
        <polyline class="cls-11" points="101.38 83.79 101.36 83.66 101.27 83.75 101.21 83.98 101.11 84.18 101.13 84.31 101.22 84.23"/>
        <polyline class="cls-11" points="101.49 83.84 101.47 83.71 101.38 83.79 101.32 84.02 101.22 84.23 101.24 84.36 101.33 84.27"/>
        <polyline class="cls-11" points="101.6 83.88 101.58 83.75 101.49 83.83 101.43 84.07 101.33 84.27 101.35 84.4 101.44 84.32"/>
        <polyline class="cls-11" points="101.71 83.92 101.7 83.79 101.6 83.88 101.54 84.11 101.44 84.32 101.46 84.44 101.55 84.36"/>
        <polyline class="cls-11" points="101.82 83.97 101.81 83.84 101.71 83.92 101.65 84.15 101.55 84.36 101.57 84.49 101.66 84.4"/>
        <polyline class="cls-11" points="101.93 84.01 101.92 83.88 101.82 83.97 101.76 84.2 101.66 84.4 101.68 84.53 101.77 84.45"/>
        <polyline class="cls-11" points="102.04 84.05 102.03 83.93 101.93 84.01 101.87 84.24 101.77 84.45 101.79 84.58 101.89 84.49"/>
        <polyline class="cls-11" points="102.15 84.1 102.14 83.97 102.04 84.05 101.98 84.29 101.88 84.49 101.9 84.62 102 84.54"/>
        <polyline class="cls-11" points="102.26 84.14 102.25 84.01 102.15 84.1 102.09 84.33 102 84.54 102.01 84.66 102.11 84.58"/>
        <polyline class="cls-11" points="102.37 84.19 102.36 84.06 102.26 84.14 102.2 84.38 102.11 84.58 102.12 84.71 102.22 84.62"/>
        <path class="cls-11" d="M102.47,84.1l-.1.08-.06.23-.1.2.02.13s.13-.11.19-.29c.07-.18.08-.34.04-.36Z"/>
      </g>
      <line class="cls-9" x1="102.38" y1="84.64" x2="103.05" y2="84.9"/>
      <g class="cls-19">
        <path class="cls-9" d="M102.29,84.71s.26.13.55.25c.29.12.6.14.68-.02,0,0,.15-.16-.08-.34l-.57-.25-.06.12.25.1"/>
      </g>
      <line class="cls-9" x1="98.33" y1="82.43" x2="100.48" y2="83.31"/>
      <line class="cls-9" x1="98.37" y1="82.54" x2="100.38" y2="83.39"/>
      <g class="cls-21">
        <path class="cls-9" d="M98.01,82.39c-.1,0-.27.1-.19.3.08.21.59.39.59.39v-.09s-.02-.05-.02-.05c0,0-.44-.18-.47-.3l.03-.16c.01-.08.12-.13.23-.11.11.02.2.1.18.18l-.05.26"/>
        <path class="cls-9" d="M97.94,82.52s.17.2.41.06"/>
        <path class="cls-9" d="M67.99,53.53l.15.58c.04.11.13.04.13.04l.11-.1c.08-.03.58-.29.69-.91s-.16-.92-.16-.92l-.08.07c.02.08.25.83-.21,1.27-.26.19-.36.24-.33-.06,0-.33-.02-.75-.02-.75"/>
        <path class="cls-17" d="M77.01,56.38s2.06,13.21,2.45,13.93c.39.72.84,1.04,1.93,1.11,1.09.07,2.55-.29,2.77-1.15.21-.86-.82-4.43-.67-5.49l.09-.25c.11-.53.23-1.01.32-1.25.3-.78.25-2.86.11-3.55-.13-.68-.15-2.42-.15-2.42,0,0,.42-.17.15-.38"/>
        <path class="cls-12" d="M77.01,56.38s2.06,13.21,2.45,13.93c.39.72.84,1.04,1.93,1.11,1.09.07,2.55-.29,2.77-1.15.21-.86-.82-4.43-.67-5.49l.09-.25c.11-.53.23-1.01.32-1.25.3-.78.25-2.86.11-3.55-.13-.68-.15-2.42-.15-2.42,0,0,.42-.17.15-.38"/>
        <path class="cls-17" d="M75.59,43.46s-.54.86-1.74.75c0,0,.55-.44.43-.93-.12-.49-.41-.76-.98-.63-.57.13-.65.71-.62.9.04.27.11.47.41.68,0,0-.29.21-.63.22-.33,0-1.25-.59-1.26-1.44-.02-.77.62-1.18,1.12-1.32.46-.3,3.21-.32,3.21-.32"/>
        <path class="cls-12" d="M75.59,43.46s-.54.86-1.74.75c0,0,.55-.44.43-.93-.12-.49-.41-.76-.98-.63-.57.13-.65.71-.62.9.04.27.11.47.41.68,0,0-.29.21-.63.22-.33,0-1.25-.59-1.26-1.44-.02-.77.62-1.18,1.12-1.32.46-.3,3.21-.32,3.21-.32"/>
        <path class="cls-17" d="M91.1,49.69s-1.05.04-3.87.3c-2.81.25-7.57.81-8.43,1.11-.61.22-1.88,1.57-2.05,2.47-.15.8-.03,1.66.25,2.82.27,1.16.76,2.49.76,2.49"/>
        <path class="cls-12" d="M91.1,49.69s-1.05.04-3.87.3c-2.81.25-7.57.81-8.43,1.11-.61.22-1.88,1.57-2.05,2.47-.15.8-.03,1.66.25,2.82.27,1.16.76,2.49.76,2.49"/>
        <path class="cls-17" d="M83.09,67.17s.24-1.47.48-2.64"/>
        <path class="cls-12" d="M83.09,67.17s.24-1.47.48-2.64"/>
        <path class="cls-17" d="M102.2,50.45s.6,2.75-.22,3.99c-.82,1.24-3.04,2.05-4.29,2.02-1.25-.02-7.13-.02-8.61,0-1.48.02-4.14.68-5.08-.08-.93-.76-1.34-1.98-1.84-2"/>
        <path class="cls-12" d="M102.2,50.45s.6,2.75-.22,3.99c-.82,1.24-3.04,2.05-4.29,2.02-1.25-.02-7.13-.02-8.61,0-1.48.02-4.14.68-5.08-.08-.93-.76-1.34-1.98-1.84-2"/>
        <path class="cls-17" d="M80.98,72.58s.79.79,1.68.42c.67-.28,1.01-1,1.45-.99.44,0,.44.37.5.44.06.07.78,2.17.78,3.09v.77s-9.67,1.22-11.9.52c-1.62-.66-.51-1.89-.51-1.89l.15-.15c.12-.08.23-.11.23-.11,0,0,1.36-.53,3.2-.83"/>
        <path class="cls-12" d="M80.98,72.58s.79.79,1.68.42c.67-.28,1.01-1,1.45-.99.44,0,.44.37.5.44.06.07.78,2.17.78,3.09v.77s-9.67,1.22-11.9.52c-1.62-.66-.51-1.89-.51-1.89l.15-.15c.12-.08.23-.11.23-.11,0,0,1.36-.53,3.2-.83"/>
        <path class="cls-12" d="M94.21,22.78l-7.19-.81s.29-2.58,1.71-3.87l5.95,2.74c.44.2.73.62.72,1.08-.01.26-.12.53-.44.71-.22.13-.49.17-.75.14Z"/>
        <path class="cls-12" d="M89.77,18.59s1.91-2.36,6.15-1.14c4.25,1.22,3.73,5.07,3.73,5.07,0,0-.17,2.25-1.39,3.87-.29.38-.76.6-1.25.59l-2.3-.02c-1.11-.01-2.1-.7-2.39-1.71l-.03-.1c-.41-1.62-.62-2.65-.62-2.65"/>
        <path class="cls-12" d="M89,22.2l-.16,1.19s-.06.65.16,1.05c.23.41-.03,1.31-.36,1.67-.32.36.44.56.44.56l.19.46c.08.04.71.11.99,0"/>
        <path class="cls-12" d="M91.5,28.83s.21.31.54.44c.44.17.87-.09.87-.09,0,0,1.44-.99,2.17-2.21"/>
        <path class="cls-12" d="M93.72,26.75s-1.6,1.92-1.89,2.01c-.22.07-.74.15-1.33,0-.36-.18-.55-.56-.66-.89-.11-.33-.43-.72-.43-.72"/>
        <path class="cls-12" d="M92.91,29.18s.37.01.68.69c.26.58.24.87.24.87"/>
        <path class="cls-12" d="M97.46,28.7c-.16-.15-1.07-1.74-1.07-1.74"/>
        <path class="cls-12" d="M97.46,28.7c-.05.11-.49.21-1.07.48-.74.35-2.82,1.46-3.28,2.39-1.01,2.04-2.24,6.39-2.24,6.39"/>
        <path class="cls-12" d="M93.11,31.57s2.15-.99,2.5-1.26c.35-.27,1.82-1.65,1.91-1.65s2.02,1.88,2.84,3.74c.82,1.86,2.72,10.59,2.93,14.17.22,3.58-.52,3.71-.52,3.71,0,0-.86.37-1.46,0-.6-.37-2.27-.04-2.66-.04s-3.65.24-4.27-.15c-.61-.39-2.14-.54-2.81-1.34-.68-.8-1.23-.2-1.33-.92-.1-.72.66-.75.75-1.23.09-.48-.22-.99,0-1.02"/>
        <path class="cls-12" d="M95.23,31.56s-.76.18-1.06.6c-.3.42-2.98,5.89-3.73,6.34-.74.45.05,1.78-.2,2.45"/>
        <path class="cls-12" d="M89.08,40.81c.03-.18.61-1.83,1.03-1.89"/>
        <path class="cls-12" d="M87.69,40.81c0-.12.1-1.11.87-1.38s1.05-.5,1.21-.21"/>
        <line class="cls-12" x1="87.69" y1="39.87" x2="86.49" y2="40.68"/>
        <path class="cls-12" d="M88.98,39.28s-2.23-.12-2.81,0c-.58.13-4.38.43-5.15.55s-2.62.35-2.98.69c-.36.34-.52,1.36-.45,2.15.06.78.61,1.53,1.1,1.64.49.11,11.01-.08,11.88-.26.87-.19,1.9-.32,2.8-1.21,1.18-1.18,4.15-6.52,5.03-7.03"/>
        <path class="cls-12" d="M94.72,32.73s-.52.93-.56,2.46"/>
        <path class="cls-12" d="M97.16,37.29s1.14-.9,1.56-.81"/>
        <path class="cls-12" d="M77.94,40.65s-1.89.05-2.31.55c-.4.47-.33,1.71-.04,2.26.29.55,2.59.51,2.59.51"/>
        <path class="cls-12" d="M92.67,43.19s1.19,1.88,3.3,2.98c2.11,1.1,4.27,1.55,4.44,2.05"/>
        <path class="cls-12" d="M90.07,44.1s-.29.61.17.92c.45.31,1.54,1.09,1.54,1.39"/>
        <path class="cls-12" d="M92.82,47.05s1.13.96,3.01,1.26c1.88.3,2.31.71,2.31.71"/>
        <path class="cls-12" d="M93.46,47.21s2.55.79,3.7.37"/>
        <path class="cls-12" d="M91.57,48.76s-.55.28-.7.58-.72.17-.72.41"/>
        <path class="cls-12" d="M102.2,50.45s.6,2.75-.22,3.99c-.82,1.24-3.04,2.05-4.29,2.02-1.25-.02-7.13-.02-8.61,0-1.48.02-4.14.68-5.08-.08-.93-.76-1.34-1.98-1.84-2"/>
        <path class="cls-12" d="M84.35,56.58s0,.28-.34.35c-.35.07-.77.46-3.03-.65"/>
        <path class="cls-12" d="M84.01,56.94s-1.08.3-1.12.76"/>
        <path class="cls-12" d="M94.74,50.55s2.62,1.17,2.85,2.17"/>
        <path class="cls-12" d="M94.42,50.85s1.58,1.2,1.42,1.86"/>
        <path class="cls-12" d="M97.78,50.29s-.42.68-.99.87c-.57.19-1.17.72-1.31.63-.14-.09-.83.81-2.01.72-1.18-.09-4.61.42-6.77.21-2.17-.21-4.28.16-4.75.31-.73.23-1.21.58-1.4,1.66-.18,1.08.17,1.15.06,1.61-.12.45-.3.48-.06,1.26.23.78-.05,2.95.06,3.96.11,1,1.14,6.83,1.37,7.7.23.87.54,1.95.2,2.22"/>
        <path class="cls-12" d="M80.98,72.58s.79.79,1.68.42c.67-.28,1.01-1,1.45-.99.44,0,.44.37.5.44.06.07.78,2.17.78,3.09v.77s-9.67,1.22-11.9.52c-1.62-.66-.51-1.89-.51-1.89"/>
        <path class="cls-12" d="M85.4,75.53s-4.41.72-8.92.92c-1,.04-3.1-.12-3.45-.77-.27-.51-.08-.78.11-.91"/>
        <path class="cls-12" d="M80.6,72.2s.07-.68,0-.9"/>
      </g>
      <line class="cls-12" x1="83.93" y1="70.68" x2="84.12" y2="72"/>
      <g class="cls-35">
        <path class="cls-12" d="M82.33,50.52s6.05-1.13,6.77-1.18c.72-.05,1.77-.31,1.77-.31l.61-.37"/>
        <path class="cls-39" d="M90.02,24.64c0,.15-.08.27-.17.27s-.17-.12-.17-.27.08-.27.17-.27.17.12.17.27"/>
        <path class="cls-39" d="M89.17,23.65l.06-.08c.2-.05.77-.21,1.2.36.07.09-.14.22-.23.09-.09-.1-.2-.27-.46-.29-.15-.02-.26,0-.41.01l-.16-.09Z"/>
        <path class="cls-17" d="M80.98,72.58s-.07-.44-.56-.37c-.49.07-3.56,1.62-3.85,1.62-.29,0,.16.96.81.62.65-.34,3.61-1.87,3.61-1.87"/>
        <path class="cls-12" d="M80.98,72.58s-.07-.44-.56-.37c-.49.07-3.56,1.62-3.85,1.62-.29,0,.16.96.81.62.65-.34,3.61-1.87,3.61-1.87Z"/>
        <path class="cls-26" d="M162.81,0h-.78l-.12.12.12.12h.78V0ZM161.25,0h-.78l-.12.12.12.12h.78l.12-.12L161.25,0M159.7,0h-.78l-.12.12.12.12h.78l.12-.12L159.7,0M158.14,0h-.78l-.12.12.12.12h.78l.12-.12L158.14,0M156.59,0h-.78l-.12.12.12.12h.78l.12-.12L156.59,0M155.03,0h-.78l-.12.12.12.12h.78l.12-.12L155.03,0M153.47,0h-.78l-.12.12.12.12h.78l.12-.12L153.47,0M151.92,0h-.78l-.12.12.12.12h.78l.12-.12L151.92,0M150.36,0h-.78l-.12.12.12.12h.78l.12-.12L150.36,0M148.81,0h-.78l-.12.12.12.12h.78l.12-.12L148.81,0M147.25,0h-.78l-.12.12.12.12h.78l.12-.12L147.25,0M145.69,0h-.78l-.12.12.12.12h.78l.12-.12L145.69,0M144.14,0h-.78l-.12.12.12.12h.78l.12-.12L144.14,0M142.58,0h-.78l-.12.12.12.12h.78l.12-.12L142.58,0M141.03,0h-.78l-.12.12.12.12h.78l.12-.12L141.03,0M139.47,0h-.78l-.12.12.12.12h.78l.12-.12L139.47,0M137.91,0h-.78l-.12.12.12.12h.78l.12-.12L137.91,0M136.36,0h-.78l-.12.12.12.12h.78l.12-.12L136.36,0M134.8,0h-.78l-.12.12.12.12h.78l.12-.12L134.8,0M133.25,0h-.78l-.12.12.12.12h.78l.12-.12L133.25,0M131.69,0h-.78l-.12.12.12.12h.78l.12-.12L131.69,0M130.13,0h-.78l-.12.12.12.12h.78l.12-.12L130.13,0M128.58,0h-.78l-.12.12.12.12h.78l.12-.12L128.58,0M127.02,0h-.78l-.12.12.12.12h.78l.12-.12L127.02,0M125.47,0h-.78l-.12.12.12.12h.78l.12-.12L125.47,0M123.91,0h-.78l-.12.12.12.12h.78l.12-.12L123.91,0M122.35,0h-.78l-.12.12.12.12h.78l.12-.12L122.35,0M120.8,0h-.78l-.12.12.12.12h.78l.12-.12L120.8,0M119.24,0h-.78l-.12.12.12.12h.78l.12-.12L119.24,0M117.69,0h-.78l-.12.12.12.12h.78l.12-.12L117.69,0M116.13,0h-.78l-.12.12.12.12h.78l.12-.12L116.13,0M114.57,0h-.78l-.12.12.12.12h.78l.12-.12L114.57,0M113.02,0h-.78l-.12.12.12.12h.78l.12-.12L113.02,0M111.46,0h-.78l-.12.12.12.12h.78l.12-.12L111.46,0M109.91,0h-.78l-.12.12.12.12h.78l.12-.12L109.91,0M108.35,0h-.78l-.12.12.12.12h.78l.12-.12L108.35,0M106.79,0h-.78l-.12.12.12.12h.78l.12-.12L106.79,0M105.24,0h-.78l-.12.12.12.12h.78l.12-.12L105.24,0M103.68,0h-.78l-.12.12.12.12h.78l.12-.12L103.68,0M102.13,0h-.78l-.12.12.12.12h.78l.12-.12L102.13,0M100.57,0h-.78l-.12.12.12.12h.78l.12-.12L100.57,0M99.01,0h-.78l-.12.12.12.12h.78l.12-.12L99.01,0M97.46,0h-.78l-.12.12.12.12h.78l.12-.12L97.46,0M95.9,0h-.78l-.12.12.12.12h.78l.12-.12L95.9,0M94.35,0h-.78l-.12.12.12.12h.78l.12-.12L94.35,0M92.79,0h-.78l-.12.12.12.12h.78l.12-.12L92.79,0M91.23,0h-.78l-.12.12.12.12h.78l.12-.12L91.23,0M89.68,0h-.78l-.12.12.12.12h.78l.12-.12L89.68,0M88.12,0h-.78l-.12.12.12.12h.78l.12-.12L88.12,0M86.57,0h-.78l-.12.12.12.12h.78l.12-.12L86.57,0M85.01,0h-.78l-.12.12.12.12h.78l.12-.12L85.01,0M83.45,0h-.78l-.12.12.12.12h.78l.12-.12L83.45,0M81.9,0h-.78l-.12.12.12.12h.78l.12-.12L81.9,0M80.34,0h-.78l-.12.12.12.12h.78l.12-.12L80.34,0M78.79,0h-.78l-.12.12.12.12h.78l.12-.12L78.79,0M77.23,0h-.78l-.12.12.12.12h.78l.12-.12L77.23,0M75.67,0h-.78l-.12.12.12.12h.78l.12-.12L75.67,0M74.12,0h-.78l-.12.12.12.12h.78l.12-.12L74.12,0M72.56,0h-.78l-.12.12.12.12h.78l.12-.12L72.56,0M71.01,0h-.78l-.12.12.12.12h.78l.12-.12L71.01,0M69.45,0h-.78l-.12.12.12.12h.78l.12-.12L69.45,0M67.89,0h-.78l-.12.12.12.12h.78l.12-.12L67.89,0M66.34,0h-.78l-.12.12.12.12h.78l.12-.12L66.34,0M64.78,0h-.78l-.12.12.12.12h.78l.12-.12L64.78,0M63.23,0h-.78l-.12.12.12.12h.78l.12-.12L63.23,0M61.67,0h-.78l-.12.12.12.12h.78l.12-.12L61.67,0M60.11,0h-.78l-.12.12.12.12h.78l.12-.12L60.11,0M58.56,0h-.78l-.12.12.12.12h.78l.12-.12L58.56,0M57,0h-.78l-.12.12.12.12h.78l.12-.12L57,0M55.45,0h-.78l-.12.12.12.12h.78l.12-.12L55.45,0M53.89,0h-.78l-.12.12.12.12h.78l.12-.12L53.89,0M52.33,0h-.78l-.12.12.12.12h.78l.12-.12L52.33,0M50.78,0h-.78l-.12.12.12.12h.78l.12-.12L50.78,0M49.22,0h-.78l-.12.12.12.12h.78l.12-.12L49.22,0M47.67,0h-.78l-.12.12.12.12h.78l.12-.12L47.67,0M46.11,0h-.78l-.12.12.12.12h.78l.12-.12L46.11,0M44.55,0h-.78l-.12.12.12.12h.78l.12-.12L44.55,0M43,0h-.78l-.12.12.12.12h.78l.12-.12L43,0M41.44,0h-.78l-.12.12.12.12h.78l.12-.12L41.44,0M39.89,0h-.78l-.12.12.12.12h.78l.12-.12L39.89,0M38.33,0h-.78l-.12.12.12.12h.78l.12-.12L38.33,0M36.77,0h-.78l-.12.12.12.12h.78l.12-.12L36.77,0M35.22,0h-.78l-.12.12.12.12h.78l.12-.12L35.22,0M33.66,0h-.78l-.12.12.12.12h.78l.12-.12L33.66,0M32.11,0h-.78l-.12.12.12.12h.78l.12-.12L32.11,0M30.55,0h-.78l-.12.12.12.12h.78l.12-.12L30.55,0M28.99,0h-.78l-.12.12.12.12h.78l.12-.12L28.99,0M27.44,0h-.78l-.12.12.12.12h.78l.12-.12L27.44,0M25.88,0h-.78l-.12.12.12.12h.78l.12-.12L25.88,0M24.33,0h-.78l-.12.12.12.12h.78l.12-.12L24.33,0M22.77,0h-.78l-.12.12.12.12h.78l.12-.12L22.77,0M21.21,0h-.78l-.12.12.12.12h.78l.12-.12L21.21,0M19.66,0h-.78l-.12.12.12.12h.78l.12-.12L19.66,0M18.1,0h-.78l-.12.12.12.12h.78l.12-.12L18.1,0M16.55,0h-.78l-.12.12.12.12h.78l.12-.12L16.55,0M14.99,0h-.78l-.12.12.12.12h.78l.12-.12L14.99,0M13.43,0h-.78l-.12.12.12.12h.78l.12-.12L13.43,0M11.88,0h-.78l-.12.12.12.12h.78l.12-.12L11.88,0M10.32,0h-.78l-.12.12.12.12h.78l.12-.12L10.32,0M8.77,0h-.78l-.12.12.12.12h.78l.12-.12L8.77,0M7.21,0h-.78l-.12.12.12.12h.78l.12-.12L7.21,0M5.65,0h-.78l-.12.12.12.12h.78l.12-.12L5.65,0M4.1,0h-.78l-.12.12.12.12h.78l.12-.12L4.1,0M2.54,0h-.78l-.12.12.12.12h.78l.12-.12L2.54,0M.99,0H.21L.08.13l.12.12h.78l.12-.12L.99,0M.12.45l-.12.12v.78l.12.12.12-.12v-.78l-.12-.12M.12,2l-.12.12v.78l.12.12.12-.12v-.78l-.12-.12M.12,3.56l-.12.12v.78l.12.12.12-.12v-.78l-.12-.12M.12,5.11l-.12.12v.78l.12.12.12-.12v-.78l-.12-.12M.12,6.67l-.12.12v.78l.12.12.12-.12v-.78l-.12-.12M.12,8.23l-.12.12v.78l.12.12.12-.12v-.78l-.12-.12M.12,9.78l-.12.12v.78l.12.12.12-.12v-.78l-.12-.12M.12,11.34l-.12.12v.78l.12.12.12-.12v-.78l-.12-.12M.12,12.89l-.12.12v.78l.12.12.12-.12v-.78l-.12-.12M.12,14.45l-.12.12v.78l.12.12.12-.12v-.78l-.12-.12M.12,16.01l-.12.12v.78l.12.12.12-.12v-.78l-.12-.12M.12,17.56l-.12.12v.78l.12.12.12-.12v-.78l-.12-.12M.12,19.12l-.12.12v.78l.12.12.12-.12v-.78l-.12-.12M.12,20.67l-.12.12v.78l.12.12.12-.12v-.78l-.12-.12M.12,22.23l-.12.12v.78l.12.12.12-.12v-.78l-.12-.12M.12,23.79l-.12.12v.78l.12.12.12-.12v-.78l-.12-.12M.12,25.34l-.12.12v.78l.12.12.12-.12v-.78l-.12-.12M.12,26.9l-.12.12v.78l.12.12.12-.12v-.78l-.12-.12M.12,28.45l-.12.12v.78l.12.12.12-.12v-.78l-.12-.12M.12,30.01l-.12.12v.78l.12.12.12-.12v-.78l-.12-.12M.12,31.57l-.12.12v.78l.12.12.12-.12v-.78l-.12-.12M.12,33.12l-.12.12v.78l.12.12.12-.12v-.78l-.12-.12M.12,34.68l-.12.12v.78l.12.12.12-.12v-.78l-.12-.12M.12,36.23l-.12.12v.78l.12.12.12-.12v-.78l-.12-.12M.12,37.79l-.12.12v.78l.12.12.12-.12v-.78l-.12-.12M.12,39.35l-.12.12v.78l.12.12.12-.12v-.78l-.12-.12M.12,40.9l-.12.12v.78l.12.12.12-.12v-.78l-.12-.12M.12,42.46l-.12.12v.78l.12.12.12-.12v-.78l-.12-.12M.12,44.01l-.12.12v.78l.12.12.12-.12v-.78l-.12-.12M.12,45.57l-.12.12v.78l.12.12.12-.12v-.78l-.12-.12M.12,47.13l-.12.12v.78l.12.12.12-.12v-.78l-.12-.12M.12,48.68l-.12.12v.78l.12.12.12-.12v-.78l-.12-.12M.12,50.24l-.12.12v.78l.12.12.12-.12v-.78l-.12-.12M.12,51.79l-.12.12v.78l.12.12.12-.12v-.78l-.12-.12M.12,53.35l-.12.12v.78l.12.12.12-.12v-.78l-.12-.12M.12,54.91l-.12.12v.78l.12.12.12-.12v-.78l-.12-.12M.12,56.46l-.12.12v.78l.12.12.12-.12v-.78l-.12-.12M.12,58.02l-.12.12v.78l.12.12.12-.12v-.78l-.12-.12M.12,59.57l-.12.12v.78l.12.12.12-.12v-.78l-.12-.12M.12,61.13l-.12.12v.78l.12.12.12-.12v-.78l-.12-.12M.12,62.69l-.12.12v.78l.12.12.12-.12v-.78l-.12-.12M.12,64.24l-.12.12v.78l.12.12.12-.12v-.78l-.12-.12M.12,65.8l-.12.12v.78l.12.12.12-.12v-.78l-.12-.12M.12,67.35l-.12.12v.78l.12.12.12-.12v-.78l-.12-.12M.12,68.91l-.12.12v.78l.12.12.12-.12v-.78l-.12-.12M.12,70.47l-.12.12v.78l.12.12.12-.12v-.78l-.12-.12M.12,72.02l-.12.12v.78l.12.12.12-.12v-.78l-.12-.12M.12,73.58l-.12.12v.78l.12.12.12-.12v-.78l-.12-.12M.12,75.13l-.12.12v.78l.12.12.12-.12v-.78l-.12-.12M.12,76.69l-.12.12v.78l.12.12.12-.12v-.78l-.12-.12M.12,78.25l-.12.12v.78l.12.12.12-.12v-.78l-.12-.12M.12,79.8l-.12.12v.78l.12.12.12-.12v-.78l-.12-.12M.12,81.36l-.12.12v.78l.12.12.12-.12v-.78l-.12-.12M.12,82.91l-.12.12v.78l.12.12.12-.12v-.78l-.12-.12M.12,84.47l-.12.12v.78l.12.12.12-.12v-.78l-.12-.12M.12,86.03l-.12.12v.78l.12.12.12-.12v-.78l-.12-.12M.12,87.58l-.12.12v.78l.12.12.12-.12v-.78l-.12-.12M.12,89.14l-.12.12v.78l.12.12.12-.12v-.78l-.12-.12M.12,90.69l-.12.12v.78l.12.12.12-.12v-.78l-.12-.12M.12,92.25l-.12.12v.78l.12.12.12-.12v-.78l-.12-.12M.12,93.81l-.12.12v.78l.12.12.12-.12v-.78l-.12-.12M.12,95.36l-.12.12v.78l.12.12.12-.12v-.78l-.12-.12M.12,96.92l-.12.12v.78l.12.12.12-.12v-.78l-.12-.12M.12,98.47l-.12.12v.62h.25v-.04l.04-.09-.04-.09v-.4l-.12-.12M1.72,98.96h-.78l-.12.12.12.12h.78l.12-.12-.12-.12M3.28,98.96h-.78l-.12.12.12.12h.78l.12-.12-.12-.12M4.83,98.96h-.78l-.12.12.12.12h.78l.12-.12-.12-.12M6.39,98.96h-.78l-.12.12.12.12h.78l.12-.12-.12-.12M7.94,98.96h-.78l-.12.12.12.12h.78l.12-.12-.12-.12M9.5,98.96h-.78l-.12.12.12.12h.78l.12-.12-.12-.12M11.05,98.96h-.78l-.12.12.12.12h.78l.12-.12-.12-.12M12.61,98.96h-.78l-.12.12.12.12h.78l.12-.12-.12-.12M14.17,98.96h-.78l-.12.12.12.12h.78l.12-.12-.12-.12M15.72,98.96h-.78l-.12.12.12.12h.78l.12-.12-.12-.12M17.28,98.96h-.78l-.12.12.12.12h.78l.12-.12-.12-.12M18.83,98.96h-.78l-.12.12.12.12h.78l.12-.12-.12-.12M20.39,98.96h-.78l-.12.12.12.12h.78l.12-.12-.12-.12M21.95,98.96h-.78l-.12.12.12.12h.78l.12-.12-.12-.12M23.5,98.96h-.78l-.12.12.12.12h.78l.12-.12-.12-.12M25.06,98.96h-.78l-.12.12.12.12h.78l.12-.12-.12-.12M26.61,98.96h-.78l-.12.12.12.12h.78l.12-.12-.12-.12M28.17,98.96h-.78l-.12.12.12.12h.78l.12-.12-.12-.12M29.73,98.96h-.78l-.12.12.12.12h.78l.12-.12-.12-.12M31.28,98.96h-.78l-.12.12.12.12h.78l.12-.12-.12-.12M32.84,98.96h-.78l-.12.12.12.12h.78l.12-.12-.12-.12M34.39,98.96h-.78l-.12.12.12.12h.78l.12-.12-.12-.12M35.95,98.96h-.78l-.12.12.12.12h.78l.12-.12-.12-.12M37.51,98.96h-.78l-.12.12.12.12h.78l.12-.12-.12-.12M39.06,98.96h-.78l-.12.12.12.12h.78l.12-.12-.12-.12M40.62,98.96h-.78l-.12.12.12.12h.78l.12-.12-.12-.12M42.17,98.96h-.78l-.12.12.12.12h.78l.12-.12-.12-.12M43.73,98.96h-.78l-.12.12.12.12h.78l.12-.12-.12-.12M45.29,98.96h-.78l-.12.12.12.12h.78l.12-.12-.12-.12M46.84,98.96h-.78l-.12.12.12.12h.78l.12-.12-.12-.12M48.4,98.96h-.78l-.12.12.12.12h.78l.12-.12-.12-.12M49.95,98.96h-.78l-.12.12.12.12h.78l.12-.12-.12-.12M51.51,98.96h-.78l-.12.12.12.12h.78l.12-.12-.12-.12M53.07,98.96h-.78l-.12.12.12.12h.78l.12-.12-.12-.12M54.62,98.96h-.78l-.12.12.12.12h.78l.12-.12-.12-.12M56.18,98.96h-.78l-.12.12.12.12h.78l.12-.12-.12-.12M57.73,98.96h-.78l-.12.12.12.12h.78l.12-.12-.12-.12M59.29,98.96h-.78l-.12.12.12.12h.78l.12-.12-.12-.12M60.85,98.96h-.78l-.12.12.12.12h.78l.12-.12-.12-.12M62.4,98.96h-.78l-.12.12.12.12h.78l.12-.12-.12-.12M63.96,98.96h-.78l-.12.12.12.12h.78l.12-.12-.12-.12M65.51,98.96h-.78l-.12.12.12.12h.78l.12-.12-.12-.12M67.07,98.96h-.78l-.12.12.12.12h.78l.12-.12-.12-.12M68.63,98.96h-.78l-.12.12.12.12h.78l.12-.12-.12-.12M70.18,98.96h-.78l-.12.12.12.12h.78l.12-.12-.12-.12M71.74,98.96h-.78l-.12.12.12.12h.78l.12-.12-.12-.12M73.29,98.96h-.78l-.12.12.12.12h.78l.12-.12-.12-.12M74.85,98.96h-.78l-.12.12.12.12h.78l.12-.12-.12-.12M76.41,98.96h-.78l-.12.12.12.12h.78l.12-.12-.12-.12M77.96,98.96h-.78l-.12.12.12.12h.78l.12-.12-.12-.12M79.52,98.96h-.78l-.12.12.12.12h.78l.12-.12-.12-.12M81.07,98.96h-.78l-.12.12.12.12h.78l.12-.12-.12-.12M82.63,98.96h-.78l-.12.12.12.12h.78l.12-.12-.12-.12M84.19,98.96h-.78l-.12.12.12.12h.78l.12-.12-.12-.12M85.74,98.96h-.78l-.12.12.12.12h.78l.12-.12-.12-.12M87.3,98.96h-.78l-.12.12.12.12h.78l.12-.12-.12-.12M88.85,98.96h-.78l-.12.12.12.12h.78l.12-.12-.12-.12M90.41,98.96h-.78l-.12.12.12.12h.78l.12-.12-.12-.12M91.97,98.96h-.78l-.12.12.12.12h.78l.12-.12-.12-.12M93.52,98.96h-.78l-.12.12.12.12h.78l.12-.12-.12-.12M95.08,98.96h-.78l-.12.12.12.12h.78l.12-.12-.12-.12M96.63,98.96h-.78l-.12.12.12.12h.78l.12-.12-.12-.12M98.19,98.96h-.78l-.12.12.12.12h.78l.12-.12-.12-.12M99.75,98.96h-.78l-.12.12.12.12h.78l.12-.12-.12-.12M101.3,98.96h-.78l-.12.12.12.12h.78l.12-.12-.12-.12M102.86,98.96h-.78l-.12.12.12.12h.78l.12-.12-.12-.12M104.41,98.96h-.78l-.12.12.12.12h.78l.12-.12-.12-.12M105.97,98.96h-.78l-.12.12.12.12h.78l.12-.12-.12-.12M107.53,98.96h-.78l-.12.12.12.12h.78l.12-.12-.12-.12M109.08,98.96h-.78l-.12.12.12.12h.78l.12-.12-.12-.12M110.64,98.96h-.78l-.12.12.12.12h.78l.12-.12-.12-.12M112.19,98.96h-.78l-.12.12.12.12h.78l.12-.12-.12-.12M113.75,98.96h-.78l-.12.12.12.12h.78l.12-.12-.12-.12M115.31,98.96h-.78l-.12.12.12.12h.78l.12-.12-.12-.12M116.86,98.96h-.78l-.12.12.12.12h.78l.12-.12-.12-.12M118.42,98.96h-.78l-.12.12.12.12h.78l.12-.12-.12-.12M119.98,98.96h-.78l-.12.12.12.12h.78l.12-.12-.12-.12M121.53,98.96h-.78l-.12.12.12.12h.78l.12-.12-.12-.12M123.09,98.96h-.78l-.12.12.12.12h.78l.12-.12-.12-.12M124.64,98.96h-.78l-.12.12.12.12h.78l.12-.12-.12-.12M126.2,98.96h-.78l-.12.12.12.12h.78l.12-.12-.12-.12M127.76,98.96h-.78l-.12.12.12.12h.78l.12-.12-.12-.12M129.31,98.96h-.78l-.12.12.12.12h.78l.12-.12-.12-.12M130.87,98.96h-.78l-.12.12.12.12h.78l.12-.12-.12-.12M132.42,98.96h-.78l-.12.12.12.12h.78l.12-.12-.12-.12M133.98,98.96h-.78l-.12.12.12.12h.78l.12-.12-.12-.12M135.54,98.96h-.78l-.12.12.12.12h.78l.12-.12-.12-.12M137.09,98.96h-.78l-.12.12.12.12h.78l.12-.12-.12-.12M138.65,98.96h-.78l-.12.12.12.12h.78l.12-.12-.12-.12M140.2,98.96h-.78l-.12.12.12.12h.78l.12-.12-.12-.12M141.76,98.96h-.78l-.12.12.12.12h.78l.12-.12-.12-.12M143.32,98.96h-.78l-.12.12.12.12h.78l.12-.12-.12-.12M144.87,98.96h-.78l-.12.12.12.12h.78l.12-.12-.12-.12M146.43,98.96h-.78l-.12.12.12.12h.78l.12-.12-.12-.12M147.98,98.96h-.78l-.12.12.12.12h.78l.12-.12-.12-.12M149.54,98.96h-.78l-.12.12.12.12h.78l.12-.12-.12-.12M151.1,98.96h-.78l-.12.12.12.12h.78l.12-.12-.12-.12M152.65,98.96h-.78l-.12.12.12.12h.78l.12-.12-.12-.12M154.21,98.96h-.78l-.12.12.12.12h.78l.12-.12-.12-.12M155.76,98.96h-.78l-.12.12.12.12h.78l.12-.12-.12-.12M157.32,98.96h-.78l-.12.12.12.12h.78l.12-.12-.12-.12M158.88,98.96h-.78l-.12.12.12.12h.78l.12-.12-.12-.12M160.43,98.96h-.78l-.12.12.12.12h.78l.12-.12-.12-.12M161.99,98.96h-.78l-.12.12.12.12h.78l.12-.12-.12-.12M162.69,98.36l-.12.12v.73h.2-.2.25-.05.05v-.73l-.12-.12M162.69,96.8l-.12.12v.78l.12.12.12-.12v-.78l-.12-.12M162.69,95.24l-.12.12v.78l.12.12.12-.12v-.78l-.12-.12M162.69,93.69l-.12.12v.78l.12.12.12-.12v-.78l-.12-.12M162.69,92.13l-.12.12v.78l.12.12.12-.12v-.78l-.12-.12M162.69,90.58l-.12.12v.78l.12.12.12-.12v-.78l-.12-.12M162.69,89.02l-.12.12v.78l.12.12.12-.12v-.78l-.12-.12M162.69,87.46l-.12.12v.78l.12.12.12-.12v-.78l-.12-.12M162.69,85.91l-.12.12v.78l.12.12.12-.12v-.78l-.12-.12M162.69,84.35l-.12.12v.78l.12.12.12-.12v-.78l-.12-.12M162.69,82.8l-.12.12v.78l.12.12.12-.12v-.78l-.12-.12M162.69,81.24l-.12.12v.78l.12.12.12-.12v-.78l-.12-.12M162.69,79.68l-.12.12v.78l.12.12.12-.12v-.78l-.12-.12M162.69,78.13l-.12.12v.78l.12.12.12-.12v-.78l-.12-.12M162.69,76.57l-.12.12v.78l.12.12.12-.12v-.78l-.12-.12M162.69,75.02l-.12.12v.78l.12.12.12-.12v-.78l-.12-.12M162.69,73.46l-.12.12v.78l.12.12.12-.12v-.78l-.12-.12M162.69,71.9l-.12.12v.78l.12.12.12-.12v-.78l-.12-.12M162.69,70.35l-.12.12v.78l.12.12.12-.12v-.78l-.12-.12M162.69,68.79l-.12.12v.78l.12.12.12-.12v-.78l-.12-.12M162.69,67.24l-.12.12v.78l.12.12.12-.12v-.78l-.12-.12M162.69,65.68l-.12.12v.78l.12.12.12-.12v-.78l-.12-.12M162.69,64.12l-.12.12v.78l.12.12.12-.12v-.78l-.12-.12M162.69,62.57l-.12.12v.78l.12.12.12-.12v-.78l-.12-.12M162.69,61.01l-.12.12v.78l.12.12.12-.12v-.78l-.12-.12M162.69,59.46l-.12.12v.78l.12.12.12-.12v-.78l-.12-.12M162.69,57.9l-.12.12v.78l.12.12.12-.12v-.78l-.12-.12M162.69,56.34l-.12.12v.78l.12.12.12-.12v-.78l-.12-.12M162.69,54.79l-.12.12v.78l.12.12.12-.12v-.78l-.12-.12M162.69,53.23l-.12.12v.78l.12.12.12-.12v-.78l-.12-.12M162.69,51.68l-.12.12v.78l.12.12.12-.12v-.78l-.12-.12M162.69,50.12l-.12.12v.78l.12.12.12-.12v-.78l-.12-.12M162.69,48.56l-.12.12v.78l.12.12.12-.12v-.78l-.12-.12M162.69,47.01l-.12.12v.78l.12.12.12-.12v-.78l-.12-.12M162.69,45.45l-.12.12v.78l.12.12.12-.12v-.78l-.12-.12M162.69,43.9l-.12.12v.78l.12.12.12-.12v-.78l-.12-.12M162.69,42.34l-.12.12v.78l.12.12.12-.12v-.78l-.12-.12M162.69,40.78l-.12.12v.78l.12.12.12-.12v-.78l-.12-.12M162.69,39.23l-.12.12v.78l.12.12.12-.12v-.78l-.12-.12M162.69,37.67l-.12.12v.78l.12.12.12-.12v-.78l-.12-.12M162.69,36.12l-.12.12v.78l.12.12.12-.12v-.78l-.12-.12M162.69,34.56l-.12.12v.78l.12.12.12-.12v-.78l-.12-.12M162.69,33l-.12.12v.78l.12.12.12-.12v-.78l-.12-.12M162.69,31.45l-.12.12v.78l.12.12.12-.12v-.78l-.12-.12M162.69,29.89l-.12.12v.78l.12.12.12-.12v-.78l-.12-.12M162.69,28.34l-.12.12v.78l.12.12.12-.12v-.78l-.12-.12M162.69,26.78l-.12.12v.78l.12.12.12-.12v-.78l-.12-.12M162.69,25.22l-.12.12v.78l.12.12.12-.12v-.78l-.12-.12M162.69,23.67l-.12.12v.78l.12.12.12-.12v-.78l-.12-.12M162.69,22.11l-.12.12v.78l.12.12.12-.12v-.78l-.12-.12M162.69,20.56l-.12.12v.78l.12.12.12-.12v-.78l-.12-.12M162.69,19l-.12.12v.78l.12.12.12-.12v-.78l-.12-.12M162.69,17.44l-.12.12v.78l.12.12.12-.12v-.78l-.12-.12M162.69,15.89l-.12.12v.78l.12.12.12-.12v-.78l-.12-.12M162.69,14.33l-.12.12v.78l.12.12.12-.12v-.78l-.12-.12M162.69,12.78l-.12.12v.78l.12.12.12-.12v-.78l-.12-.12M162.69,11.22l-.12.12v.78l.12.12.12-.12v-.78l-.12-.12M162.69,9.66l-.12.12v.78l.12.12.12-.12v-.78l-.12-.12M162.69,8.11l-.12.12v.78l.12.12.12-.12v-.78l-.12-.12M162.69,6.55l-.12.12v.78l.12.12.12-.12v-.78l-.12-.12M162.69,5l-.12.12v.78l.12.12.12-.12v-.78l-.12-.12M162.69,3.44l-.12.12v.78l.12.12.12-.12v-.78l-.12-.12M162.69,1.88l-.12.12v.78l.12.12.12-.12v-.78l-.12-.12M162.69.33l-.12.12v.78l.12.12.12-.12V.45l-.12-.12"/>
      </g>
      <polygon class="cls-27" points="116.55 36.09 115.32 4.46 101.64 5.23 102.87 36.72 116.55 36.09 103.13 36.72 103.84 54.98 117.85 53.61 117.18 36.06 116.55 36.09"/>
      <polygon class="cls-12" points="103.84 54.98 117.86 53.65 117.36 40.71 103.31 41.41 103.84 54.98"/>
      <polygon class="cls-12" points="101.64 5.23 102.87 36.72 116.62 36.08 115.38 4.45 101.64 5.23"/>
      <line class="cls-12" x1="101.73" y1="7.47" x2="115.47" y2="6.69"/>
      <line class="cls-12" x1="103.4" y1="43.66" x2="117.51" y2="42.86"/>
      <line class="cls-12" x1="27.54" y1="93.72" x2="131.63" y2="93.72"/>
    </g>
  </g>
</svg>