<?xml version="1.0" encoding="UTF-8"?>
<svg id="_图层_2" data-name="图层 2" xmlns="http://www.w3.org/2000/svg" xmlns:xlink="http://www.w3.org/1999/xlink" viewBox="0 0 162.81 99.21">
  <defs>
    <style>
      .cls-1 {
        clip-path: url(#clippath-21);
      }

      .cls-2 {
        clip-path: url(#clippath-6);
      }

      .cls-3 {
        clip-path: url(#clippath-7);
      }

      .cls-4 {
        clip-path: url(#clippath-17);
      }

      .cls-5 {
        clip-path: url(#clippath-15);
      }

      .cls-6 {
        clip-path: url(#clippath-18);
      }

      .cls-7 {
        clip-path: url(#clippath-4);
      }

      .cls-8 {
        stroke-width: .12px;
      }

      .cls-8, .cls-9, .cls-10, .cls-11, .cls-12 {
        fill: none;
      }

      .cls-8, .cls-9, .cls-11, .cls-12 {
        stroke: #54565a;
        stroke-linecap: round;
        stroke-linejoin: round;
      }

      .cls-13 {
        clip-path: url(#clippath-22);
      }

      .cls-14 {
        clip-path: url(#clippath-23);
      }

      .cls-9 {
        stroke-width: .2px;
      }

      .cls-15 {
        clip-path: url(#clippath-9);
      }

      .cls-16 {
        clip-path: url(#clippath-10);
      }

      .cls-17 {
        fill: #fff;
      }

      .cls-18 {
        clip-path: url(#clippath-25);
      }

      .cls-19 {
        clip-path: url(#clippath-27);
      }

      .cls-20 {
        clip-path: url(#clippath-11);
      }

      .cls-21 {
        clip-path: url(#clippath-28);
      }

      .cls-22 {
        clip-path: url(#clippath-1);
      }

      .cls-11 {
        stroke-width: .17px;
      }

      .cls-23 {
        clip-path: url(#clippath-5);
      }

      .cls-24 {
        clip-path: url(#clippath-20);
      }

      .cls-25 {
        clip-path: url(#clippath-8);
      }

      .cls-26 {
        fill: #221814;
      }

      .cls-27 {
        fill: #ff6b00;
      }

      .cls-28 {
        clip-path: url(#clippath-3);
      }

      .cls-29 {
        clip-path: url(#clippath-26);
      }

      .cls-30 {
        clip-path: url(#clippath-12);
      }

      .cls-31 {
        clip-path: url(#clippath-14);
      }

      .cls-32 {
        clip-path: url(#clippath-30);
      }

      .cls-33 {
        clip-path: url(#clippath-19);
      }

      .cls-12 {
        stroke-width: .25px;
      }

      .cls-34 {
        clip-path: url(#clippath-16);
      }

      .cls-35 {
        clip-path: url(#clippath-2);
      }

      .cls-36 {
        clip-path: url(#clippath-29);
      }

      .cls-37 {
        clip-path: url(#clippath-13);
      }

      .cls-38 {
        clip-path: url(#clippath-24);
      }

      .cls-39 {
        clip-path: url(#clippath);
      }

      .cls-40 {
        fill: #54565a;
      }
    </style>
    <clipPath id="clippath">
      <rect class="cls-10" x="0" y="0" width="162.81" height="99.21"/>
    </clipPath>
    <clipPath id="clippath-1">
      <rect class="cls-10" x="0" y="0" width="162.81" height="99.21"/>
    </clipPath>
    <clipPath id="clippath-2">
      <rect class="cls-10" x="0" y="0" width="162.81" height="99.21"/>
    </clipPath>
    <clipPath id="clippath-3">
      <rect class="cls-10" x="0" y="0" width="162.81" height="99.21"/>
    </clipPath>
    <clipPath id="clippath-4">
      <rect class="cls-10" x="0" y="0" width="162.81" height="99.21"/>
    </clipPath>
    <clipPath id="clippath-5">
      <rect class="cls-10" x="0" y="0" width="162.81" height="99.21"/>
    </clipPath>
    <clipPath id="clippath-6">
      <rect class="cls-10" x="0" y="0" width="162.81" height="99.21"/>
    </clipPath>
    <clipPath id="clippath-7">
      <rect class="cls-10" x="0" y="0" width="162.81" height="99.21"/>
    </clipPath>
    <clipPath id="clippath-8">
      <rect class="cls-10" x="0" y="0" width="162.81" height="99.21"/>
    </clipPath>
    <clipPath id="clippath-9">
      <rect class="cls-10" x="0" y="0" width="162.81" height="99.21"/>
    </clipPath>
    <clipPath id="clippath-10">
      <rect class="cls-10" x="0" y="0" width="162.81" height="99.21"/>
    </clipPath>
    <clipPath id="clippath-11">
      <rect class="cls-10" x="0" y="0" width="162.81" height="99.21"/>
    </clipPath>
    <clipPath id="clippath-12">
      <rect class="cls-10" x="0" y="0" width="162.81" height="99.21"/>
    </clipPath>
    <clipPath id="clippath-13">
      <rect class="cls-10" x="0" y="0" width="162.81" height="99.21"/>
    </clipPath>
    <clipPath id="clippath-14">
      <rect class="cls-10" x="0" y="0" width="162.81" height="99.21"/>
    </clipPath>
    <clipPath id="clippath-15">
      <rect class="cls-10" x="0" y="0" width="162.81" height="99.21"/>
    </clipPath>
    <clipPath id="clippath-16">
      <rect class="cls-10" x="0" y="0" width="162.81" height="99.21"/>
    </clipPath>
    <clipPath id="clippath-17">
      <rect class="cls-10" x="0" y="0" width="162.81" height="99.21"/>
    </clipPath>
    <clipPath id="clippath-18">
      <rect class="cls-10" x="0" y="0" width="162.81" height="99.21"/>
    </clipPath>
    <clipPath id="clippath-19">
      <rect class="cls-10" x="0" y="0" width="162.81" height="99.21"/>
    </clipPath>
    <clipPath id="clippath-20">
      <rect class="cls-10" x="0" y="0" width="162.81" height="99.21"/>
    </clipPath>
    <clipPath id="clippath-21">
      <rect class="cls-10" x="0" y="0" width="162.81" height="99.21"/>
    </clipPath>
    <clipPath id="clippath-22">
      <rect class="cls-10" x="0" y="0" width="162.81" height="99.21"/>
    </clipPath>
    <clipPath id="clippath-23">
      <rect class="cls-10" x="0" y="0" width="162.81" height="99.21"/>
    </clipPath>
    <clipPath id="clippath-24">
      <rect class="cls-10" x="0" y="0" width="162.81" height="99.21"/>
    </clipPath>
    <clipPath id="clippath-25">
      <rect class="cls-10" x="0" y="0" width="162.81" height="99.21"/>
    </clipPath>
    <clipPath id="clippath-26">
      <rect class="cls-10" x="0" y="0" width="162.81" height="99.21"/>
    </clipPath>
    <clipPath id="clippath-27">
      <rect class="cls-10" x="0" y="0" width="162.81" height="99.21"/>
    </clipPath>
    <clipPath id="clippath-28">
      <rect class="cls-10" x="0" y="0" width="162.81" height="99.21"/>
    </clipPath>
    <clipPath id="clippath-29">
      <rect class="cls-10" x="0" y="0" width="162.81" height="99.21"/>
    </clipPath>
    <clipPath id="clippath-30">
      <rect class="cls-10" x="0" y="0" width="162.81" height="99.21"/>
    </clipPath>
  </defs>
  <g id="_图层_1-2" data-name="图层 1">
    <g>
      <g class="cls-39">
        <path class="cls-9" d="M57,81.14c.29.95.45,1.96.45,3.01,0,5.65-4.58,10.24-10.24,10.24s-10.24-4.58-10.24-10.24c0-3.36,1.62-6.34,4.11-8.21"/>
        <path class="cls-9" d="M52.06,76.69c1.54.79,2.95,2.03,4.04,3.42l.03.03c.92,1.15,1.9,1.96,2.5,1.93.19.02.17-.09.17-.09-.6-3.23-2.52-5.99-5.17-7.72"/>
        <path class="cls-9" d="M43.66,79.87c.31-.26.66-.49,1.03-.68"/>
        <path class="cls-9" d="M43.66,79.87l-.03.03,2.83,2.44c.17.17.09.24.09.24l-.96,1.4"/>
        <path class="cls-9" d="M50.24,88.82c.86-.56,1.55-1.35,2-2.3"/>
        <path class="cls-9" d="M42.09,86.3l3-1.94c.2-.13.31-.1.34-.07l1.07,1.23c.11.15-.1.28-.1.28l-3.43,1.75.08.27c1.02,1.15,2.51,1.88,4.17,1.88.13,0,.25,0,.38-.01l.02-.12-.86-3.45c-.07-.26.03-.33.03-.33l1.51-.59c.21-.02.22.18.22.18l.67,3.89.03.06c.36-.14.71-.31,1.03-.52"/>
        <path class="cls-8" d="M45.6,83.94l.06-1.23-2.85-2.49-.21.04s-.24.24-.39.48c-.67.97-1.06,2.15-1.06,3.42,0,.84.2,1.71.51,2.44l.12.06,3.26-1.95c.07-.1.29-.38.29-.38"/>
        <path class="cls-9" d="M42.09,86.29c-.26-.64-.44-1.4-.44-2.14,0-1.12.33-2.16.9-3.03h.15s2.71,2.8,2.71,2.8c.12.11.2.1.2.01"/>
        <line class="cls-9" x1="52.29" y1="86.41" x2="52.24" y2="86.52"/>
        <path class="cls-9" d="M50.55,79.7c1.25.94,2.14,2.42,2.25,4.08"/>
        <path class="cls-8" d="M44.51,78.73c-.47.24-.91.53-1.3.88l-.02.13,2.87,2.66.43.08"/>
        <path class="cls-8" d="M43.99,87.03l-1.45.75-.07.1s-.02,0,.17.24c1.11,1.28,2.75,2.09,4.57,2.09.25,0,.49-.01.73-.04l.04-.09-.88-3.7.4-.12c.09-.02.87-.91.87-.91"/>
        <path class="cls-8" d="M50.79,79.27c1.43,1.05,2.38,2.72,2.46,4.62.04.41,0,.66,0,.66-.04.15-.2.14-.2.14l-3.75-.27c-.09,0-.07.1-.07.1l.03.42c0,.1.12.09.12.09l3.71.22.04.07c-.41,2.09-1.89,3.79-3.85,4.51-.16.08-.55.21-.55.21l-.14.02c-.12-.04-1.04-3.85-1.04-3.85"/>
        <path class="cls-9" d="M51.03,78.8c1.67,1.19,2.75,3.14,2.75,5.35,0,3.63-2.94,6.57-6.57,6.57s-6.57-2.94-6.57-6.57c0-2.57,1.48-4.8,3.63-5.88"/>
        <path class="cls-9" d="M51.19,78.42c1.81,1.26,2.99,3.36,2.99,5.73,0,3.85-3.12,6.98-6.98,6.98s-6.98-3.12-6.98-6.98c0-2.74,1.58-5.11,3.88-6.25"/>
        <path class="cls-9" d="M47.42,79.69c.68.03-1.83,0-1.83,0,0,0-.64.01-.8-.45-.36-.9-.8-1.96-1.81-2.42-.92-.42-1.42-.75-2.14-.97-.42-.09-1.29-.55-1.29-.55l-.03-.14c2.04-1.51,4.57-2.74,7.95-3.27,1.7-.27,2.82-.21,4.12-.06l.03.08s-1.09,2.26-1.2,2.46c-.11.21-.18.67-.19.75l-2,4.41s-.07.12-.23.15c-.16.03-.59,0-.59,0"/>
        <path class="cls-9" d="M52.01,76.77c2.41,1.58,4.02,4.28,4.02,7.37,0,4.87-3.95,8.82-8.82,8.82s-8.82-3.95-8.82-8.82c0-3.19,1.64-5.96,4.17-7.51"/>
        <path class="cls-9" d="M47.39,88.61h-.18c-1.33,0-2.52-.57-3.33-1.49"/>
        <path class="cls-9" d="M51.21,86.13c-.46.93-1.23,1.67-2.18,2.1"/>
        <path class="cls-9" d="M50.15,80.79c.56.49.98,1.09,1.24,1.8"/>
        <path class="cls-9" d="M44.49,80.61c.75-.58,1.7-.93,2.72-.93.28,0,.64.03.91.09"/>
        <path class="cls-9" d="M43.02,85.69c-.18-.48-.27-1-.27-1.54,0-.81.21-1.57.59-2.22"/>
        <path class="cls-9" d="M45.93,81.83c.38-.21.82-.33,1.28-.33"/>
        <path class="cls-9" d="M45.62,86.26c.28.21.61.37.97.46.1.01.25-.15.23-.26"/>
        <path class="cls-9" d="M49.62,85.24c-.15.33-.33.6-.6.84-.06.05-.37-.01-.44-.3"/>
        <path class="cls-8" d="M41.99,75.66c1.4-.95,3.33-1.58,5.56-1.93.75-.12,1.81-.18,2.37-.16"/>
        <path class="cls-8" d="M57.73,81.38c-.67-2.53-1.89-4.53-4.12-6.09"/>
        <path class="cls-9" d="M51.42,72.4s.2.22.29.47"/>
        <path class="cls-9" d="M51.15,72.93s.18.12.22.27"/>
        <path class="cls-9" d="M50.41,75.74c-.08-.09-.33-.17-.33-.17l-.05.07.33.17.05-.08Z"/>
      </g>
      <polyline class="cls-9" points="49.55 76.68 50.22 76.99 48.65 79.88 48.2 79.6"/>
      <polyline class="cls-8" points="45.05 84.7 45.35 85.14 46.52 85.6"/>
      <g class="cls-22">
        <path class="cls-8" d="M45.35,85.14l-3.17,1.92c-.21.08-.08.27-.08.27l.33.52"/>
      </g>
      <line class="cls-8" x1="47.11" y1="86.37" x2="46.81" y2="85.96"/>
      <g class="cls-35">
        <path class="cls-8" d="M49.24,84.43l-.47-.74c-.09-.2.01-.31.01-.31"/>
        <path class="cls-9" d="M47.79,84.12c0,.31-.25.56-.56.56s-.56-.25-.56-.56.25-.56.56-.56.56.25.56.56Z"/>
        <path class="cls-8" d="M47.59,84.12c0,.2-.16.36-.36.36s-.36-.16-.36-.36.16-.36.36-.36.36.16.36.36Z"/>
        <path class="cls-8" d="M48.71,76.41c0,.29-.24.53-.53.53s-.53-.24-.53-.53.24-.52.53-.52.53.24.53.52Z"/>
        <path class="cls-9" d="M48.55,76.41c0,.2-.16.36-.36.36s-.36-.16-.36-.36.16-.36.36-.36.36.16.36.36Z"/>
        <path class="cls-8" d="M47.57,78.52c0,.29-.24.53-.53.53s-.53-.24-.53-.53.24-.52.53-.52.53.24.53.52Z"/>
        <path class="cls-9" d="M47.41,78.52c0,.2-.16.36-.36.36s-.36-.16-.36-.36.16-.36.36-.36.36.16.36.36Z"/>
        <path class="cls-9" d="M50.52,82.5c0,.11-.09.19-.19.19s-.19-.09-.19-.19.09-.19.19-.19.19.09.19.19Z"/>
        <path class="cls-9" d="M46.44,82.26c.17-.07.35-.12.54-.15"/>
        <path class="cls-9" d="M45.22,84.23v-.11c0-.11,0-.22.02-.33"/>
        <path class="cls-9" d="M46.69,86.06c-.15-.04-.29-.1-.43-.17"/>
        <path class="cls-9" d="M48.91,85.23c-.09.14-.2.26-.32.37"/>
        <path class="cls-8" d="M49.62,87.09c.12-.29.13-.56.01-.61-.12-.04-.31.16-.44.45-.12.29-.13.56-.02.61s.31-.16.44-.45Z"/>
        <path class="cls-8" d="M50.31,85.39c-.04.11-.07.25-.07.41,0,.32.1.57.22.56.12,0,.23-.27.23-.58v-.02"/>
        <path class="cls-8" d="M43.8,82.32l-.02.2c0,.32.1.57.22.56.09,0,.17-.14.21-.34"/>
        <path class="cls-8" d="M44.33,86.9c.07.1.28.19.52.22.31.04.58-.03.59-.15.01-.12-.24-.26-.55-.3h-.11"/>
        <path class="cls-8" d="M46.41,87.85c.3-.09.52-.26.47-.38-.04-.12-.32-.14-.62-.05-.3.09-.52.26-.47.38.04.12.32.14.62.05Z"/>
        <path class="cls-8" d="M46.64,80.75c.25-.2.38-.44.3-.53-.08-.09-.35,0-.6.19-.25.2-.38.44-.3.53.08.09.35,0,.6-.19Z"/>
        <path class="cls-8" d="M43.39,84.14c.16.27.38.44.48.37.1-.07.06-.35-.1-.62-.16-.27-.38-.44-.48-.37-.1.07-.06.35.1.62Z"/>
        <path class="cls-8" d="M45.29,81.28c.07-.29.04-.55-.07-.57-.08-.02-.19.08-.28.25"/>
        <polyline class="cls-8" points="45.65 82.85 45.68 82.71 46.05 82.38"/>
        <path class="cls-9" d="M50.24,83.46l1.69-1.25c.24-.14.45-.02.54.08"/>
        <path class="cls-9" d="M52.01,83.69s0-.21-.03-.38c-.04-.18-.45-.56-.53-.55l-.6.76"/>
        <path class="cls-8" d="M52.29,83.75s.15-.4.42-.59"/>
        <path class="cls-9" d="M50.58,85.3l.57.57h.15s.42-.41.45-.54"/>
        <path class="cls-9" d="M50.2,85.27l1.45,1.2c.17.14.56.06.64-.07.21-.33.25-.6.33-1,0-.1-.08-.09-.08-.09l-3.73-.13c-.16-.04-.12-.25-.12-.25l-.09-1.25c-.03-.19.14-.41.45-.39.3.02,3.74.52,3.74.52v-.05"/>
        <path class="cls-9" d="M44.69,83.21s-.04.58.1.78c.14.21.39.16.39.16"/>
        <path class="cls-9" d="M45.08,79.57l2.38-3.66c.34-.45.74-.57,1.11-.66.37-.1,1.67-.2,1.67-.2"/>
        <path class="cls-8" d="M44.93,78.58l2.25-3.47c.34-.45.74-.57,1.11-.66.37-.1,1.67-.2,1.67-.2"/>
        <path class="cls-9" d="M54.36,72.94v.1c-.09.12-.38.16-.45.24l.09.51-.5.15.13.47-.39.62-.29.63s-.02.1-.16.16c-.28.1-.7.78-.7.78,0,0-2.05,3.94-2.47,5.18l-.77,1.52s-.15.1-.21.23c-.05.12-.06.29-.06.29l-.69,1.36c-.12.22-.42.32-.68.21l-1.16-.66c-.15-.14-.14-.46-.05-.65.09-.19,1.7-3.22,1.7-3.22.14-.21.7-1,.72-1.06"/>
        <path class="cls-9" d="M54.7,72.05s.02.19-.02.29c-.05.1-.36.12-.42.2-.06.08.08.27.11.4"/>
        <path class="cls-9" d="M49.9,76.84l.72-1.51c.06-.22.07-.53.08-.67.01-.14.37-.8.37-.8-.02-.1,0-.2,0-.2l.21-.39c.05-.09.4-.11.46-.22.04-.09-.15-.31-.11-.48.05-.16.45-.1.49-.21.04-.1-.16-.3-.1-.51.06-.21.38-.1.44-.23.06-.13-.16-.31-.09-.45.07-.14.44-.16.5-.23.06-.07-.22-.34-.14-.5.08-.16.44-.16.49-.24.05-.08-.16-.32-.12-.44.05-.12.16-.1.16-.1"/>
        <path class="cls-8" d="M51.87,76.49c-.92,1.82-4.12,8.13-4.18,8.25-.1.19-.23.28-.53.17,0,0-.42-.18-.68-.37,0,0-.14-.11-.06-.36l.44-.9,3.91-7.35"/>
      </g>
      <line class="cls-9" x1="47.44" y1="81.28" x2="48.24" y2="79.65"/>
      <g class="cls-28">
        <path class="cls-9" d="M54.34,72.89l.03.07c-.05.09-.6-.1-1.24-.42-.64-.32-1.12-.66-1.07-.75h.01"/>
        <path class="cls-9" d="M53.61,74.34l.04.05c-.03.05-.56-.17-1.2-.49-.64-.32-1.13-.63-1.11-.68h.01"/>
        <path class="cls-9" d="M53.33,74.95c-.03.05-.55-.18-1.18-.51-.62-.34-1.11-.65-1.08-.7h.01"/>
        <path class="cls-9" d="M52.86,75.77c-.03.05-.53-.17-1.12-.49-.59-.32-1.05-.62-1.03-.67h.01"/>
        <path class="cls-9" d="M53.98,73.21c-.23-.07-.58-.21-.95-.4-.37-.19-.69-.38-.88-.53"/>
        <path class="cls-9" d="M54.67,72.18l.03.07c-.04.09-.58-.1-1.21-.41-.62-.32-1.09-.64-1.04-.73h.01"/>
        <path class="cls-9" d="M54.3,72.5c-.23-.07-.57-.21-.94-.4-.37-.19-.68-.38-.87-.52"/>
        <path class="cls-9" d="M54.21,71.28c-.11-.05-.23-.11-.35-.17-.62-.32-1.09-.64-1.04-.73h.01"/>
        <path class="cls-9" d="M54.35,71.66c-.18-.07-.4-.17-.62-.28-.37-.19-.68-.38-.87-.52"/>
        <path class="cls-9" d="M53.47,70.01c-.2-.14-.32-.25-.29-.29h.01"/>
        <path class="cls-9" d="M53.77,70.53c-.23-.13-.42-.25-.55-.35"/>
        <path class="cls-9" d="M53.57,73.88c-.23-.07-.58-.21-.95-.4-.37-.19-.69-.38-.88-.53"/>
        <path class="cls-9" d="M54.02,73.68c-.05.09-.6-.1-1.24-.43-.64-.33-1.12-.66-1.07-.75"/>
      </g>
      <line class="cls-9" x1="55.39" y1="75.65" x2="56.21" y2="74.61"/>
      <line class="cls-9" x1="56.48" y1="75.04" x2="55.75" y2="75.96"/>
      <g class="cls-7">
        <path class="cls-8" d="M51.98,82.24c.18.44.3.91.34,1.41"/>
        <path class="cls-8" d="M52.15,85.35c-.11.38-.27.73-.46,1.07"/>
      </g>
      <line class="cls-8" x1="50.87" y1="85.31" x2="51.24" y2="85.87"/>
      <g class="cls-23">
        <path class="cls-9" d="M101.16,84.9c-.04-.37-.06-.8-.07-1.17"/>
        <path class="cls-9" d="M101.43,86.22v.14c1.25,4.78,5.59,8.31,10.76,8.31,6.13,0,11.1-4.97,11.1-11.1,0-4.29-2.58-7.76-6.01-9.86-.19-.12-1.8-.82-1.8-.82,0,0,4.85,2.14,5.04,2.3.2.16,4.17,6.47,4.17,6.47.76,1.06,2.34,1.63,2.62,1.7.28.07.78.07.78.07l-.02-.51c0-.11-.5-.11-1.51-1.03-.11-.07-.25-.22-.25-.22,0-.04.21.05.21-.05s-.03-1.28-.03-1.28c-.01-.19-.22-.26-.22-.26l-.39-.19-.16-.39.6-.39.25.69.14-.09-2.15-5.65.21-.06-.16-.4-.22.05-.12-.28-.28.04-.55.18"/>
        <path class="cls-9" d="M102.28,85.28c-.06-.37-.09-.71-.11-1.1"/>
        <path class="cls-9" d="M113.51,73.61c4.93.65,8.73,4.86,8.73,9.97,0,5.55-4.5,10.05-10.05,10.05-4.53,0-8.37-3-9.62-7.12"/>
        <path class="cls-9" d="M103.35,78.37c.41-.68.91-1.31,1.49-1.9.24-.24.49-.47.75-.68"/>
        <line class="cls-9" x1="104.08" y1="84.86" x2="104.04" y2="84.6"/>
        <path class="cls-9" d="M112.94,75.4c4.18.38,7.46,3.9,7.46,8.18,0,4.53-3.67,8.21-8.21,8.21-3.32,0-6.18-1.97-7.47-4.8"/>
        <path class="cls-9" d="M112.86,75.39c4.22.34,7.54,3.88,7.54,8.18,0,4.53-3.67,8.21-8.21,8.21-3.31,0-6.17-1.96-7.47-4.79"/>
        <path class="cls-9" d="M106.13,78.03c.97-1.06,2.21-1.86,3.61-2.3"/>
        <path class="cls-8" d="M106.58,78.52c.9-1,2.07-1.76,3.39-2.16"/>
        <path class="cls-8" d="M113.13,76.09c3.72.46,6.6,3.64,6.6,7.49,0,4.17-3.38,7.55-7.55,7.55-2.79,0-5.27-1.61-6.58-3.85"/>
        <path class="cls-8" d="M113.29,76.64c3.31.55,5.83,3.42,5.83,6.89,0,3.86-3.12,6.98-6.98,6.98-1.68,0-3.23-.6-4.43-1.59"/>
        <path class="cls-8" d="M107.2,78.59c.8-.8,1.79-1.4,2.9-1.74"/>
        <path class="cls-9" d="M106.4,86.04c-.07-.16-.11-.28-.17-.45"/>
        <path class="cls-9" d="M113.45,77.4c2.81.61,4.91,3.11,4.91,6.1,0,3.45-2.8,6.24-6.24,6.24-1.5,0-2.88-.53-3.96-1.41"/>
        <path class="cls-9" d="M124.17,74.87c0,.81-.66,1.47-1.47,1.47s-1.46-.66-1.46-1.47.66-1.46,1.46-1.46,1.47.66,1.47,1.46Z"/>
        <path class="cls-9" d="M98.08,84.93c0,.24-.2.44-.44.44s-.44-.2-.44-.44.2-.44.44-.44.44.2.44.44Z"/>
        <path class="cls-8" d="M97.88,84.92c0,.13-.11.24-.24.24s-.24-.11-.24-.24.11-.24.24-.24.24.11.24.24Z"/>
        <path class="cls-8" d="M124,74.87c0,.72-.58,1.3-1.3,1.3s-1.3-.58-1.3-1.3.58-1.3,1.3-1.3,1.3.58,1.3,1.3Z"/>
        <path class="cls-8" d="M107.35,88.55c0,.09-.07.17-.17.17s-.17-.07-.17-.17.07-.16.17-.16.17.07.17.16Z"/>
        <path class="cls-8" d="M108.57,87.23c-.05.37-.14.66-.2.65s-.07-.31-.02-.68c.05-.37.14-.66.2-.65s.07.31.02.68Z"/>
        <path class="cls-9" d="M105.23,78.73c-.1.17-.13.36-.2.44l-.23-.05c-.09-.08-.09-.39.17-.87l.04-.18.09-.03.07-.09.05-.15.13-.05.07-.08.08-.16.15-.04.09-.06.1-.13h.18c.19-.1.34-.14.4-.14.11,0,.18.08.12.22-.1.24-.36.4-.47.48"/>
        <path class="cls-9" d="M105.23,78.84s-.02-.2,0-.32c.03-.12.36-.67.58-.8.23-.13.27-.06.25-.01"/>
        <path class="cls-9" d="M106.09,77.71l.11,8.47s-.01.25-.11.42c-.34.64-.99.41-1.13.22-.08-.12.04-.32.04-.32.06-.1.25.01.31-.3.06-.31-.07-7.37-.07-7.37"/>
        <path class="cls-9" d="M105.31,83.4l-.58-.03c-.15-.01-.16.13-.16.13,0,0-.31,1.45-1.04,2.11-.1.1-.09.4.02.46.1.06,1.24.44,1.5.37"/>
        <path class="cls-9" d="M108.4,87.9l-.73.97c-.24.26-.7.27-.81.06-.11-.21-.64-1.53-.64-1.53l-.66-.16-.06-.19.05.2,2.85.65"/>
      </g>
      <line class="cls-9" x1="106.2" y1="86" x2="108.55" y2="86.55"/>
      <g class="cls-2">
        <path class="cls-9" d="M100.91,84.95l-.66-.31v-.99s-.05-.03-.05-.03l-.04-.62s.4.62.91.7"/>
      </g>
      <line class="cls-9" x1="103.53" y1="85.61" x2="101.75" y2="85.18"/>
      <g class="cls-3">
        <path class="cls-9" d="M106.17,78.7l8.87.74c1.05.06,1.63.71,1.65,1.67.02.96-.02,2.51-.29,3.17-.27.67-.92,1.23-2.17,1.17-.8-.04-5.04-.44-8-.72"/>
        <path class="cls-9" d="M104.21,84.54c-.58-.06-.93-.09-.93-.09-1.04-.1-2.54-.9-2.71-1.13-.2-.3-.36-.94-.36-.94-.04-.52.49-1.04.49-1.04l2.63-2.8c.1-.1.26-.06.26-.06l1.13.09"/>
        <path class="cls-8" d="M104.49,83.68c-.16-.01-.34-.04-.34-.04-.87-.07-3.79-1.13-3.93-1.28"/>
        <path class="cls-8" d="M106.12,79.55l8.38.8c.87.04,1.16.41,1.17,1.06.02.65-.06,1.67-.24,2.14-.18.46-.37.94-1.61.86-.71-.04-4.99-.38-7.61-.6"/>
        <path class="cls-9" d="M106.17,80.07l8.16.67c.65.03.87.31.89.8.01.49-.12,1.24-.18,1.62-.05.26-.09.69-1.02.63-.54-.03-5.85-.48-7.83-.64"/>
        <polyline class="cls-8" points="102.68 79.28 102.9 79.24 105.25 79.46"/>
        <path class="cls-9" d="M105.24,83.06s-1.39-.16-2.12-.32c-.92-.19-2.73-.97-2.73-.97"/>
        <path class="cls-9" d="M102.33,79.61s.6.16,2.94.34"/>
        <path class="cls-9" d="M110.27,78.11s-.12.02-.21.14-.27.57-.43.57-1.54-.08-1.54-.08c.63-.54,1.37-.95,2.18-1.2"/>
        <path class="cls-9" d="M113.78,78.26s.15.06.13.19c-.01.13-.01.82.71.96"/>
        <path class="cls-9" d="M110.53,78.07c.02.1.72.04,1.56-.15.53-.11.99-.25,1.25-.36"/>
        <path class="cls-8" d="M123.4,76.26s2.06,4.97,2.96,5.83c.76.73,1.47.8,1.47.8"/>
        <polygon class="cls-9" points="124.14 75.28 125.42 78.69 126.15 78.67 124.75 74.99 124.61 75.01 124.52 75.05 124.14 75.28"/>
      </g>
      <line class="cls-9" x1="124.04" y1="73.45" x2="124.55" y2="74.95"/>
      <g class="cls-25">
        <path class="cls-9" d="M125.88,79.93l-.19.11c.02.09.41,1.4.64,1.61"/>
        <polyline class="cls-8" points="125.82 80.24 126.35 80.31 126.39 80.38 126.46 81.65"/>
      </g>
      <line class="cls-8" x1="119.39" y1="71.77" x2="121.7" y2="73.58"/>
      <g class="cls-15">
        <path class="cls-9" d="M121.21,71.01s.34.29.89.38c.43.07,3.32.52,3.32.52.15.04.2.18.2.18l.3.55c.04.13-.13.13-.13.13l-2.39.31c-.2.11,0,.45,0,.45l-.36-.12-1.89-2.42.06.02Z"/>
      </g>
      <line class="cls-8" x1="125.47" y1="78.81" x2="125.7" y2="79.4"/>
      <g class="cls-16">
        <path class="cls-9" d="M112.82,76.07h.19s.03,0,.03,0l.1.05c.02.1-.64.33-1.48.52-.84.18-1.56.27-1.55.16.01-.16.16.61.16.61l.28.67c-.17,0-.28.02-.28.04,0,.05.78.12,1.75.16.97.04,1.76.04,1.76-.01,0-.02-.12-.04-.32-.07-.02-.1,0-.22,0-.22l-.23-1.42-.09-.43"/>
        <path class="cls-9" d="M102.41,85.86c.12,0,2.11.51,2.11.51"/>
        <path class="cls-9" d="M103.47,85.99s-.91-.26-1.06-.27"/>
      </g>
      <line class="cls-9" x1="101.29" y1="85.75" x2="101.15" y2="86.31"/>
      <g class="cls-20">
        <path class="cls-8" d="M68.47,48.56c.02.2-.01.33-.08.29-.05-.03-1.57-.8-3.43-1.9-1.86-1.1-3.35-2.04-3.32-2.09.02-.03-.02-.09.67.01"/>
        <path class="cls-9" d="M61.64,44.86s-3.75,3.8-7.36,8.86c-1.22,1.65-2.41,3.36-2.41,3.43l.07.1,3.67.1c.23.01.18.22.15.33-.04.11-.2.74-.2.74-.17.39-.48.39-.48.39-.37.09-.99.31-.99.31-.26.16-.41.26-.52.65-.11.39-.73,3.17-.73,3.17-.14.58-.85.8-1.22.85-.37.05-1.7-.04-1.7-.04-.11.05-.11.2-.11.2l-.02,1.14c-.01.4.18.76.24.81-.27,0-.21.38-.11.43s.66.07.93.26c.64.44,2.35,3.06,2.35,3.06l9.68,16.09c.45.9.56.93.69.93s30.38-.32,30.38-.32c.58,0,1.65-1.25,1.83-1.7.19-.45.58-1.38,1.22-1.46.64-.08.98.05,1.27-.03.29-.08.4-.85.4-.85,0,0,.64.03.85-.19.21-.21,4.28-4.49,4.49-4.78.21-.29.77-1.49.77-1.49,0,0,3.11-.26,6-1.49,1.94-.77,10.15-3.37,10.15-3.37.58-.13.61-.32.69-.45.08-.13.08-1.22.08-1.22-.21-.32-.4-.69-.45-1.04-.05-.35-.24-1.22-.24-1.22l.11-.08-1.06-3.85-.74-3.03c-.05-.35-.29-.35-.29-.35l-2.04-.48s-1.04-.22-1.31-.19c-.13,0,0-.31,0-.31.16,0,.68-.02.74-.16.06-.13-.01-.7-.01-.7"/>
        <path class="cls-9" d="M51.8,57.41s3.51.06,3.69.07c0,0,.1.02.1.16,0,0-.1.37-.23.71-.14.34-.63.32-.81.34-.18.02-.85.09-1.14.76,0,0-.61,2.54-.74,3.08-.12.54-.31,1.03-.99,1.03h-1.63s-.09.02-.09-.09c0,0,.32-1.73.45-2.42.49-2.49,1.25-3.59,1.25-3.59-.03.04.05-.07.15-.07Z"/>
        <path class="cls-9" d="M115.85,56.13s-.56-1.59-1.2-1.6c-.64-.01-6,.36-11.56,1.15-1.26.41-2.91,1.1-5.98,1.36-3.07.25-9.6-.02-11.6-.4-1.24-.05-1.89.68-2.17,1.84-.92,3.32-.42,5.07-.29,5.31.11.1.41-.02.41-.02.18-.07.75-.33.85-.29.1.04-.3,1.15-.17,1.21.13.06.38.28.12.33-.25.05-.3.04-.29.19.01.16.34,2.02.34,2.02-.16-.02-.36-.06-.34.06.02.12.17.13.17.23s.05.13.12.07l.14.04,1.02,6.34c.15.81-.29,2.11-1.84,2.2-1.55.1-15.72,1.33-15.72,1.33-1.03.02-1.13-.45-1.17-1.38-.05-.93-1.09-5.98-1.09-5.98-.08-.22-.27-.33-.27-.33l-1.48-6.65c-.07-.71.07-1.89.07-1.89v-.19s1.67-4.47,1.67-4.47h-.17s.45-1.17.45-1.17c.07-.11.24-.12.24-.12.18-.05.28,0,.39-.12.11-.12.98-2.57.98-2.57.07-.22-.04-.33-.17-.32.02-.17.07-.33-.1-.39-.1-.04-.01-.23-.01-.23,0,0,.54-1.54.64-1.79.1-.25.32-.56.4-.66.08-.1.18-.39.18-.39"/>
        <path class="cls-9" d="M115.65,58.89s.62.06.88-.07c.26-.14.8-.44.72-.98"/>
        <path class="cls-9" d="M117.05,59.29s.93-.65,1.37-1.29c.44-.64.87-5.49.87-5.49"/>
      </g>
      <line class="cls-9" x1="118.46" y1="52.55" x2="117.85" y2="55.94"/>
      <g class="cls-30">
        <path class="cls-9" d="M118.14,52.5h1.35c.27-.02.3-.25.3-.25l.57-6.3c0-.19-.02-.15-.14-.23h-.28s-.68-.45-1.48-.16c-.8.28-1.51,1.17-1.8,3.42-.24,1.93.32,3.4,1.49,3.52Z"/>
        <path class="cls-9" d="M119.49,52.5s.3-.14.02-.21c-.28-.07-1.33,0-1.91-.65-.68-1.06-.54-3.99.39-4.95.73-.75,1.4-.84,2.34-.86"/>
        <path class="cls-9" d="M105.08,60.25v-.21s.08,0,.08,0c0,0,.02,1.02.34,1.02s2.83-.14,2.91-.32c.1-.15-.02-1.04-.02-1.04h-.12s.03.88.03.88"/>
        <path class="cls-9" d="M108.4,60.59s-.36.16-.36-.03c0-.29-.13-1.43.92-1.69,1.05-.26,9.36-1.18,9.36-1.18.2-.03.24-.26.24-.26,0,0,.2-1.27.15-1.46-.03-.11-.33-.08-.33-.08,0,0-5.01.57-8.31.89-1.77.15-3.96.03-4.23,1.7-.28,1.3-.42,2.17-.29,2.5"/>
      </g>
      <line class="cls-9" x1="108.44" y1="59.94" x2="115.62" y2="59.08"/>
      <g class="cls-37">
        <path class="cls-8" d="M105.08,60.26s-11.28,1.26-14.12,1.94c-2.84.68-4.41,1.12-5.13,1.52-.68.26-.37,1.46-.37,1.46l1.07,8.55c.15,1.62-.81,2.09-2.22,2.32"/>
        <path class="cls-9" d="M84.31,63.48s6.88-1.75,9.86-1.85"/>
      </g>
      <line class="cls-9" x1="84.75" y1="63.38" x2="84.75" y2="63.83"/>
      <g class="cls-31">
        <path class="cls-8" d="M93.89,61.67s-4.01.33-9.34,2.29c-.2.13-.2.87-.2.87"/>
        <path class="cls-9" d="M84.46,64.05s1.51-.13,3.44-.53c1.48-.23,1.93-.43,1.93-.43.18-.08.15.25.15.25l2.16,11.73c.43.78.83,1.26,1.31,1.26s3.17-.05,3.17-.05"/>
        <path class="cls-9" d="M90.09,63.75s0-.45.25-.53c.25-.08,3.42-.55,3.42-.55.4-.05.53.1.55.33.03.23,2.44,13.31,2.44,13.31,0,0,7.22-.39,8.07-.45"/>
        <path class="cls-9" d="M85.97,63.65s14.22-2.16,23.18-2.86c8.97-.7,9.92-.7,10.05-.93"/>
        <path class="cls-8" d="M114.58,60.66s.35.7.85.8c.5.1,2.24.38,2.24.38.53.08.58.68.58.68l1.76,6.76c.23.83-.4,1.36-.85,1.53-.45.18-11.55,3.72-11.55,3.72-1.23.48-2.49.5-2.49.5,0,0-8.44.5-8.54.28"/>
        <path class="cls-9" d="M94.21,62.72s18.91-2.06,21.02-2.13c1.51-.12,3.21-.28,3.34-.18.13.1,2.24,8.16,2.24,8.16.1.33-.05.43-.05.43l-.63.33"/>
        <path class="cls-9" d="M118.57,60.41l-.18.28c-.12.2-.02.48-.02.48l2.06,7.58c.08.28.4.1.4.1"/>
      </g>
      <line class="cls-9" x1="120.43" y1="68.88" x2="120" y2="69.28"/>
      <g class="cls-5">
        <path class="cls-9" d="M118.27,60.84s-10.12.18-23.91,2.29"/>
        <polygon class="cls-8" points="95.17 73.88 95.09 73.82 93.28 63.43 93.35 63.34 93.44 63.4 95.25 73.79 95.18 73.88 95.17 73.88"/>
        <polygon class="cls-8" points="94.08 74.09 94 74.02 92.2 63.64 92.26 63.55 92.35 63.61 94.16 74 94.1 74.09 94.08 74.09"/>
        <polygon class="cls-8" points="93.05 74.28 92.97 74.21 91.16 63.83 91.23 63.73 91.32 63.8 93.13 74.18 93.06 74.28 93.05 74.28"/>
        <path class="cls-9" d="M100.02,81.66s-.25.84.07,1.29l-1.48-.15"/>
        <path class="cls-9" d="M99,83.46l.06-.61s.07.12.59.16c.52.04.46-.02.46-.02"/>
        <path class="cls-9" d="M100.19,83.53c-.36.2-1.19-.06-1.19-.06l-.13.07v.47"/>
        <path class="cls-9" d="M100.26,83.64c-.77.14-1.39-.1-1.39-.1"/>
        <path class="cls-9" d="M98.71,84.01l.02-.92c.02-.16.17-.25.17-.25"/>
      </g>
      <polygon class="cls-9" points="96.23 85 96.63 85.02 96.74 85.14 96.55 86.09 96.05 86.09 96.23 85"/>
      <polygon class="cls-9" points="96.18 85.9 96.44 85.92 96.58 85.15 96.32 85.14 96.18 85.9"/>
      <line class="cls-9" x1="96.44" y1="85.91" x2="96.5" y2="86.06"/>
      <line class="cls-9" x1="96.16" y1="85.92" x2="96.06" y2="86.08"/>
      <line class="cls-9" x1="96.55" y1="85.16" x2="96.74" y2="85.14"/>
      <g class="cls-34">
        <path class="cls-9" d="M94.84,85.9s1.18.35,1.78.34,1.82-.31,1.82-.31c.11-.07.42.04.51.02l.19-.09,2.05.46.02-.14,4.32.97"/>
        <path class="cls-9" d="M50.06,65.91s.73.05.96.24c.23.19,1.72,2.01,2.77,3.74s8.71,14.65,8.71,14.65c.82,1.23,1.88,1.27,2.41,1.28.52.01,8.58-.42,8.58-.42,1.14-.06,1.19-.29,1.67-.64.47-.35.91-.73,1.86-.81s3.04-.08,3.6-.26c.56-.18,1.59-.53,2.01-.54s16.08-.83,16.08-.83"/>
        <path class="cls-9" d="M74.25,85.27s.5-2.2,1.62-2.6c1.11-.4,4.32-.58,4.98-.61.66-.03,1.43,1.17,1.67,1.14"/>
      </g>
      <line class="cls-9" x1="75.84" y1="82.81" x2="76.34" y2="83.92"/>
      <line class="cls-9" x1="80.9" y1="82.17" x2="80.5" y2="83.52"/>
      <line class="cls-9" x1="73.93" y1="85.38" x2="73.91" y2="86.51"/>
      <line class="cls-9" x1="74.14" y1="85.38" x2="74.11" y2="86.51"/>
      <g class="cls-4">
        <path class="cls-9" d="M76.47,84.03l-.04,1.8c.06.08.21.1.3.04.1-.07,2.2.06,2.2.06,0,0,.05-.29.15-.35.1-.06.42,0,.5-.04l.1-.27,4.74.15s.04-.1.03,0c0,.11.04.22.13.21h1.53s.21.09.21.09h.65s.31-.31.31-.31l.31-.05s.25-.44.24-.89c0-.45-.29-.76-.29-.76,0,0,.12.15-.03,0-.15-.14-.12-.12-.3-.12-.18,0-.14,0-.27-.13-.13-.14-1.15-.46-1.15-.46-.35-.02-.49.32-.49.32l-.45.72-.28-.1c-.12-.07-.31.03-.31.03l-.1.21h-4.17s-.37,0-.44-.12c-.07-.12-.06-.21-.06-.21"/>
        <path class="cls-9" d="M76.42,85.81l.23-.15c.14-.07.32-.04.32-.04l.35.02c.15,0,.15-.35.15-.35l1.27.18v.23s.2.05.2.05"/>
        <polygon class="cls-9" points="78.53 84.02 78.37 84.14 78.21 84.02 78.37 83.9 78.53 84.02"/>
        <path class="cls-9" d="M78.67,83.88l.05.14c0,.15-.16.26-.35.26s-.35-.12-.35-.26l.03-.1"/>
        <path class="cls-9" d="M78.86,83.85l.09.23c0,.24-.26.44-.58.44s-.58-.2-.58-.44l.05-.17"/>
        <path class="cls-9" d="M79.15,83.84c.09.11.14.24.14.37,0,.39-.42.7-.93.7s-.93-.31-.93-.7c0-.1.03-.19.07-.27"/>
      </g>
      <polyline class="cls-9" points="79.49 83.96 79.44 85.06 77.4 84.99 77.42 84.24"/>
      <g class="cls-6">
        <path class="cls-9" d="M84.28,84.31s0-.14.14-.05c.13.09.11.27.29.28.18.02.71.06.71.06"/>
        <path class="cls-9" d="M84.66,84s.02.17.18.2c.17.03.5,0,.5,0l.15-.47s.06-.2.3-.22c.24-.02.93.35.93.35.12.05.29.12.37.24.02.03.1.09,0,.59-.1.5-.19.57-.45.65"/>
        <path class="cls-9" d="M86.95,85.68s.07,0,.25-.3c.04-.07.09-.15.14-.24.29-.54.05-1.26.05-1.26,0,0,.29.26.23.75-.07.49-.16.65-.38.74"/>
      </g>
      <line class="cls-9" x1="85.55" y1="84.18" x2="85.49" y2="84.61"/>
      <line class="cls-9" x1="84.43" y1="84.33" x2="84.44" y2="85.42"/>
      <line class="cls-9" x1="84.61" y1="84.51" x2="84.61" y2="85.61"/>
      <g class="cls-33">
        <path class="cls-9" d="M85.52,84.6s.2.04.33-.02"/>
        <path class="cls-9" d="M85.54,84.27s.31,0,.41-.04"/>
        <path class="cls-9" d="M85.99,84.13l-.04.97c0,.08.41.2.61.1.2-.1.35-.65.35-.65l-.92.57"/>
        <path class="cls-9" d="M85.52,84.09s.87,0,.96-.08c.1-.08.1-.27-.18-.27h-.57l-.22.35Z"/>
        <path class="cls-9" d="M80.67,83.73l2.19.23c.32.04.3.16.3.16"/>
        <path class="cls-9" d="M83.1,85.42s.09.4-.09.39c-.19-.01-3.08-.47-3.08-.47"/>
        <path class="cls-9" d="M82.84,85.43s.12.32-.05.31"/>
        <path class="cls-9" d="M82.56,85.42s.09.3-.05.3"/>
        <path class="cls-9" d="M82.29,85.39s.13.31,0,.3"/>
        <line class="cls-9" x1="82.07" y1="85.35" x2="82.05" y2="85.65"/>
        <line class="cls-9" x1="81.81" y1="85.34" x2="81.79" y2="85.61"/>
        <line class="cls-9" x1="81.54" y1="85.34" x2="81.55" y2="85.58"/>
        <line class="cls-9" x1="81.35" y1="85.36" x2="81.34" y2="85.54"/>
        <line class="cls-9" x1="81.1" y1="85.32" x2="81.08" y2="85.51"/>
        <path class="cls-8" d="M106.15,61s.06-.17.35-.21c.28-.04.26.06.26.06.07.03.09-.11.51-.21.42-.1.37.07.46.07s.07-.1.28-.14"/>
        <path class="cls-9" d="M86.42,76.75v.57s.32-.11.77-.1c.46.01,4.71-.24,4.71-.24.26,0,.18-.14.18-.14l-.26-.64-.14-.08-.65.04c-.1,0-.14.12-.14.12,0,0,.06.21-.36.22-.41.01-3.88.19-3.88.19-.17,0-.23.04-.23.04Z"/>
      </g>
      <line class="cls-9" x1="86.8" y1="77.26" x2="86.8" y2="77.53"/>
      <line class="cls-9" x1="87.84" y1="77.24" x2="87.84" y2="77.49"/>
      <line class="cls-9" x1="86.93" y1="76.45" x2="86.93" y2="76.68"/>
      <line class="cls-9" x1="87.81" y1="76.42" x2="87.81" y2="76.59"/>
      <g class="cls-24">
        <path class="cls-9" d="M91.32,77.31l.02-.11,1.44-.09-.04-.78c0-.18-.14-.36-.72-.34-.58.02-5.61.47-5.61.47-.34.12-.29.32-.29.32l.04.81"/>
        <path class="cls-9" d="M91.82,76.21s.32-.06.59-.02c.28.04.25.31.25.31l.03.59"/>
        <path class="cls-9" d="M91.9,76.35s.33-.05.43.03c.1.08.07.58.07.58h-.32"/>
        <path class="cls-9" d="M83.83,76.16s8.31-.56,8.84-.27"/>
        <path class="cls-8" d="M64.31,46.57s.5.45.06,1.28c-.45.83-5.94,14.67-5.94,14.67-.28,2.23,1.71,5.64,1.71,5.64l4.84,9.07c.82,1.15,1.39.95,1.39.95l17.94-.95"/>
        <path class="cls-9" d="M84.74,76.27s.07,1.27-.74,1.31c-.8.03-.63.23-.63.23l9.16-.54c.48,0,.54.54.54.54"/>
        <path class="cls-9" d="M93.45,76.34s.29,2.33-.62,2.22l-.07-.45s.02-.29-.32-.27c0,0-4.95.32-6.09.36-1.14.04-1.36.59-1.36.59-.49.35-.63-.36-.35-.79"/>
        <path class="cls-9" d="M61.61,44.93s.5.47.86.76c.36.29,1.63,1.01,1.63,1.01.32.21.23.49.23.49-.14.43-.34.81-.34.81l-5.7,13.02c-.81,2.14-.18,4.14.36,5.43.54,1.29,5.8,11.06,5.8,11.06,1.03,1.5,2.83,1.09,4.06,1.08,1.23-.01,14.8-.86,14.8-.86"/>
        <path class="cls-8" d="M64.64,47.37s.86.5,1.26.95c.41.45.05,1.22.05,1.22l-6.94,16.01"/>
        <path class="cls-8" d="M63.34,56.62l2.94-6.75c.5-.94.86-.82,1.24-.78.38.04.63.14.63.14"/>
        <path class="cls-9" d="M65.53,56.64l-2.12-.1-1.39,3.55c-.19.69.17.88.42.92.25.04,1.47.11,1.47.11"/>
        <path class="cls-9" d="M63.59,56.58l-1.45,3.64c-.17.34.13.8.3.8"/>
        <path class="cls-8" d="M67.32,52.33s-.12.08-.19.23c-.07.16-.85,2.27-.85,2.27-.1.32-.08.46-.08.46"/>
        <path class="cls-8" d="M67.15,51.84s-1.11,2.9-1.17,3.06c-.08.24-.1.42-.04.48"/>
        <path class="cls-8" d="M67.52,52.52s-.09-.13-.17.05c-.07.19-.86,2.31-.86,2.31-.08.26.05.21.05.21"/>
        <path class="cls-9" d="M93.49,77.08l1.73-.08c.2,0,.17.13.17.13,0,0,.27,2.3.25,2.78-.02.48-.03.93-.65,1.3s-1.9,1.35-1.9,1.35"/>
        <path class="cls-9" d="M104.1,77.17l-6.54.37c-.25.04-.2.28-.2.28,0,.2.18.19.33.19s5.93-.27,5.93-.27"/>
        <path class="cls-9" d="M103.01,78.41l-5.17.29c-.33.03-.3.29-.3.29-.03.2.16.24.38.23.22-.02,4.52-.21,4.52-.21"/>
        <path class="cls-9" d="M87.4,83.58s-.03-.66.13-.56c.16.11.16.89.16.89"/>
        <path class="cls-9" d="M87.78,84.96s.13,1.39-.07,1.43c-.2.04-.16-.48-.19-.66-.03-.19-.03-.34-.03-.34"/>
        <path class="cls-8" d="M83.22,63.14s.12-.63,4.42-1.39c4.3-.76,8.93-1.39,11.19-2.54,2.26-1.15,3.37-2.8,5.63-3.06,2.26-.26,8.78-.82,9.44-1.01.61-.17.64-.36.64-.36"/>
        <path class="cls-8" d="M72.73,44.4c0,.21-.17.38-.38.38s-.38-.17-.38-.38.17-.38.38-.38.38.17.38.38Z"/>
        <path class="cls-8" d="M67.12,44.76c0,.22-.18.39-.39.39s-.39-.18-.39-.39.17-.39.39-.39.39.18.39.39Z"/>
        <path class="cls-8" d="M67.02,44.76c0,.16-.13.29-.29.29s-.29-.13-.29-.29.13-.29.29-.29.29.13.29.29Z"/>
        <rect class="cls-8" x="63.78" y="42.54" width=".16" height=".16" transform="translate(-11.43 57.63) rotate(-45)"/>
        <path class="cls-9" d="M73.14,44.32c.04.45-.3.84-.74.88-.45.04-.84-.3-.88-.74-.04-.45.3-.84.74-.88.45-.04.84.29.88.74Z"/>
        <path class="cls-9" d="M68.94,43.93c-.46-.22-.85-.71-.89-1.25-.07-.81.54-1.52,1.35-1.59.58-.05,1.02.22,1.39.67"/>
        <path class="cls-9" d="M68.26,40.8s-.18.05-.38.01c-.2-.04-.36-.11-.35-.15"/>
        <path class="cls-9" d="M67.74,40.62c-.12,0-.21,0-.22.04l-.5,1.53c-.01.07.22.17.52.23.2.04.38.05.48.03l.04-.09.09-.38.11-1.17s-.03-.06-.14-.1"/>
        <path class="cls-9" d="M65.61,40.67c-.04.21-.14.37-.22.35-.08-.01-.12-.2-.08-.41.04-.21.14-.37.22-.35.08.02.11.2.08.41Z"/>
        <path class="cls-9" d="M68.84,41.81c-.09.15-.22.24-.28.21-.06-.04-.03-.19.07-.34.09-.15.22-.24.28-.21.06.04.03.19-.06.34Z"/>
        <path class="cls-9" d="M65.73,40.76c-.09.38-.29.66-.44.63-.15-.04-.2-.37-.11-.76.09-.38.29-.66.44-.62.15.04.2.37.11.75Z"/>
        <path class="cls-9" d="M71.81,43.12v-.34c0-.15-.05-.15-.05-.15h-.24"/>
        <path class="cls-9" d="M71.59,42.64c-.22-.61-.83-1.02-1.5-.97-.81.07-1.41.78-1.34,1.58.05.62.47.99.97,1.3.14.09.28.11.28.11l.79.03c.13,0,.1-.13.1-.13"/>
        <path class="cls-8" d="M70.57,44.35h-.09c-.61.06-1.15-.39-1.2-1.01-.05-.61.4-1.15,1.02-1.21.53-.04,1,.29,1.16.77"/>
        <path class="cls-8" d="M70.72,44.46l-.26.05c-.7.06-1.32-.46-1.38-1.17-.06-.7.46-1.32,1.17-1.38.66-.06,1.24.4,1.36,1.04"/>
        <path class="cls-9" d="M70.88,44.53l.92.61c.15.1.45.14.63.07.42-.15.78-.43.74-.88-.03-.3-.22-.55-.47-.67l-1.91-1.13c-.12-.06-.26-.08-.41-.07-.45.04-.78.43-.74.88.02.26.16.47.35.61l.88.58"/>
        <path class="cls-8" d="M72.31,45.25c-.48.04-.9-.32-.94-.8-.04-.48.32-.9.8-.94.18-.02.35.02.5.11"/>
        <path class="cls-9" d="M70.55,36.93c-1.02,1.21-2.01,2.5-2.09,2.71-.1.27-.22.71-.26.95-.02.12-.11.11-.22.11h-.04c-.13-.03-.24-.06-.21-.19,0-.04.16-.68.28-1.02.06-.28,1.35-1.88,2.18-2.87"/>
        <path class="cls-9" d="M65.42,39.48s.05-.08.24-.09,2.16.62,2.16.62"/>
        <path class="cls-9" d="M66.36,40s.07-.03.19,0c.36.07,1.09.27,1.19.37"/>
        <path class="cls-9" d="M68.26,40.37s0,.22.24.2c.25-.02,1.11.28,1.56.61"/>
        <path class="cls-9" d="M62.29,44.88s.51.23,1.27.66l.16-.58"/>
        <path class="cls-8" d="M68.47,48.52s-1.39-.69-3.11-1.71c-1.72-1.02-3.1-1.89-3.07-1.93"/>
        <path class="cls-9" d="M69.8,44.62l-.2,1.55c-.04.35-.81.84-.81.84-.33.19-.51.03-.6.14-.09.12-.34.61-.34.61-.12.05-.56-.18-.56-.18l.02.15,1.16.78"/>
        <path class="cls-9" d="M68.25,47.11c-.52-.04-4.65-2.24-4.65-2.24-.11-.11,0-1.34.13-1.52s1.42-1.35,1.42-1.35c.12-.12.36-.12.36-.12l.08-.32h-.14v-.09s-.4-.2-.4-.2l-.06-.08.43-1.71.94.51-.38,1.7.22.09-.06.53h.99"/>
        <path class="cls-9" d="M63.62,45.54s1.31,1.06,3.67,2.05"/>
      </g>
      <line class="cls-9" x1="65.09" y1="42.04" x2="64.21" y2="41.73"/>
      <line class="cls-9" x1="64.92" y1="42.17" x2="64.18" y2="41.91"/>
      <g class="cls-1">
        <path class="cls-9" d="M65.37,39.68l-2.35,4.12c-.29.42-1.01.76-1.12.13,0,0-.1-.86-.08-1.17.02-.31.45-1.38.45-1.38,0,0,1.21-2.7,2.51-4.34.17-.16.32-.13.38-.08.06.05.49.38.54.96.06.67-.21,1.48-.21,1.48"/>
        <path class="cls-8" d="M61.91,43.93s.28.34.73-.14c.46-.48,2.73-4.81,2.73-4.81.32-.96-.19-1.98-.44-1.99"/>
      </g>
      <line class="cls-9" x1="63.13" y1="43.63" x2="63.58" y2="43.93"/>
      <g class="cls-13">
        <path class="cls-8" d="M65.51,41.88s.11-.25.22-.24c.11.01.1.18.1.18,0,0-.33.19-.18.42.15.23.29.29.32.51l.02.21v.58c.01.13.31.26.31.26l.6.24c.14.04.09.13.09.13l-.1.23"/>
        <path class="cls-8" d="M67.35,42.97c.28-.02.43.15.43.23l.09.98c0,.18-.23.38-.23.38l-.57.49c-.22.15-.29.11-.29.11"/>
        <path class="cls-8" d="M66,42.96s.52.25,1.1.08c.58-.18.58-.29.58-.29l.08.11v.27"/>
        <path class="cls-8" d="M65.99,42.8s.83.18,1.39-.13c.1-.01.31.08.31.08"/>
      </g>
      <line class="cls-9" x1="67.84" y1="43.6" x2="68.17" y2="43.61"/>
      <g class="cls-14">
        <path class="cls-9" d="M68.05,42.61s-.2,1.18.62,1.18"/>
      </g>
      <line class="cls-9" x1="67.79" y1="43.2" x2="68.04" y2="43.2"/>
      <polyline class="cls-9" points="67.76 42.8 67.81 42.59 67.92 42.71 67.89 43.18"/>
      <g class="cls-38">
        <path class="cls-9" d="M68.23,40.74s.35-.13.73-.05"/>
        <path class="cls-8" d="M66.46,39.94l-.65-.37c-.08-.09.51.07.89.18.26.08,1.09.35,1.09.35"/>
        <path class="cls-9" d="M68.9,41.46s.17-.03.31-.02c.22.02.42.06.42.06,0,0-.69.4-1.06,1.02-.14.23-.13-.56-.03-.7"/>
        <path class="cls-9" d="M68.5,42.54s-.14.91.15,1.19"/>
        <path class="cls-9" d="M69.59,41.52s.46-.19,1.01.02"/>
        <path class="cls-8" d="M65.47,41.93s-.23.66-.01.8c.22.14.51.25.51.25"/>
        <path class="cls-8" d="M65.38,42.74l.07,1.07c.01.29.73.99.89,1.13"/>
        <path class="cls-9" d="M70.68,33.75c.16.03,1.23.41,1.23.41.51.27.23,1.18.23,1.18-.29.99-.4,1.25-.86,1.22-.47-.03-1.06-.16-1.23-.26-.18-.1-.12-1.04-.08-1.26.07-.38.29-.93.29-.93.1-.25.26-.38.43-.36Z"/>
        <path class="cls-9" d="M70.54,33.76l1.22-.26c.4-.08.54-.03.69.05.15.08,1.33.74,1.33.74.37.27.25.85.22.97-.03.12-.44,1.67-.66,1.96-.22.29-.36.52-.84.52s-1.21-.21-1.21-.21c-.44-.11-.38-.88-1.17-1.21"/>
        <path class="cls-9" d="M69.76,37.05s-.3-.33-.38-.55c-.08-.22.16-1.75.16-1.75.08-.38.37-.47.37-.47l.3-.11"/>
        <path class="cls-9" d="M70.17,37.4s.78.81,1.11.94c.31.13.88.27,1.28,0,.4-.27.39-.7.39-.7"/>
        <path class="cls-8" d="M70.5,37.04s.2,1.21,1.34,1.34c.38,0,.84-.05.97-.65"/>
        <path class="cls-8" d="M71.99,33.47l1.49.85c.26.15.27.43.21.76s-.39,1.74-.62,2.06c-.35.66-1.74.44-1.9.32"/>
        <path class="cls-8" d="M66,43.5s.45.36,1.24.25"/>
        <path class="cls-8" d="M66.03,43.05s.13.25.81.23c.15,0,.35-.1.56-.13.1-.03.09.04.09.04v.02c-.08.17-.39.91-.54,1.19"/>
        <path class="cls-9" d="M70.21,36.62s-.02.15.33.31"/>
        <line class="cls-9" x1="110.47" y1="74.53" x2="110.38" y2="74.56"/>
        <path class="cls-9" d="M112.23,73.97c-.28.07-.5.13-.65.17,0,0-.44.13-1.12.39"/>
        <path class="cls-9" d="M109.95,74.73c.15-.06.3-.12.43-.17"/>
        <path class="cls-9" d="M112.71,76.08c-.18-.01-.52,0-.76,0"/>
        <line class="cls-9" x1="112.79" y1="76.09" x2="112.71" y2="76.08"/>
        <path class="cls-9" d="M110.8,76.5c.12-.03.26-.05.39-.08"/>
        <path class="cls-9" d="M111.73,76.31c.2-.04.36-.07.44-.09.26-.05.5-.11.5-.11"/>
        <path class="cls-9" d="M111.73,76.31c-.16.03-.35.07-.53.11"/>
        <path class="cls-9" d="M110.42,76.38s.26-.07.73-.15"/>
        <path class="cls-9" d="M111.95,76.09c.36-.07.69-.13.79-.19.18-.09.17-.22-.03-.25-.14-.03-.64-.01-.92,0"/>
        <line class="cls-9" x1="111.68" y1="76.14" x2="111.95" y2="76.09"/>
        <path class="cls-9" d="M111.68,76.14c-.16.03-.32.06-.46.08h-.07"/>
        <path class="cls-9" d="M110.71,76.07c.12-.03.25-.05.38-.08"/>
        <path class="cls-9" d="M110.71,76.07c-.28.06-.52.12-.59.15-.21.08-.12.24.01.26.07.01.41.02.68.03"/>
        <path class="cls-9" d="M111.62,75.88c.22-.04.39-.08.48-.09.26-.05.5-.11.5-.11"/>
        <path class="cls-9" d="M111.62,75.88c-.16.03-.35.07-.53.11"/>
        <path class="cls-9" d="M111.8,75.65c.35-.06.66-.13.76-.18.18-.09.17-.21-.02-.25-.13-.02-.54-.01-.82,0"/>
        <path class="cls-9" d="M110.26,75.94s.27-.07.77-.16"/>
        <path class="cls-9" d="M111.57,75.69c-.18.03-.36.06-.51.09h-.02"/>
        <line class="cls-9" x1="111.57" y1="75.69" x2="111.8" y2="75.65"/>
        <path class="cls-9" d="M111.51,75.44c.19-.04.34-.07.42-.08.26-.05.49-.11.49-.11"/>
        <path class="cls-9" d="M110.52,75.64c-.27.06-.49.11-.56.14-.21.08-.11.24.01.26.08.01.46.02.74.03"/>
        <path class="cls-9" d="M110.52,75.64c.14-.03.3-.06.45-.09"/>
        <path class="cls-9" d="M111.51,75.44c-.16.03-.35.07-.53.11"/>
        <line class="cls-9" x1="111.46" y1="75.27" x2="111.72" y2="75.22"/>
        <path class="cls-9" d="M110.14,75.52s.28-.07.78-.16"/>
        <path class="cls-9" d="M111.72,75.22c.33-.06.63-.12.73-.17.18-.09.17-.21-.02-.25-.13-.02-.58-.01-.86,0"/>
        <path class="cls-9" d="M111.46,75.27c-.18.03-.37.06-.52.09h-.02"/>
        <path class="cls-9" d="M110.44,75.21c-.29.06-.52.12-.6.15-.21.08-.11.24.01.26.07.01.4.02.67.03"/>
        <path class="cls-9" d="M110.44,75.21c.13-.03.28-.06.42-.09"/>
        <path class="cls-9" d="M111.4,75.01c-.16.03-.35.07-.53.11"/>
        <path class="cls-9" d="M112.3,74.82s-.24.06-.5.11c-.07.01-.23.04-.41.08"/>
        <line class="cls-9" x1="111.62" y1="74.35" x2="111.41" y2="74.36"/>
        <line class="cls-9" x1="111.57" y1="74.79" x2="111.35" y2="74.83"/>
        <path class="cls-9" d="M110.81,74.93h.02c.15-.03.33-.06.51-.09"/>
        <path class="cls-9" d="M111.57,74.79c.35-.06.67-.13.78-.18.18-.09.17-.21-.02-.25-.11-.02-.44-.01-.7,0"/>
        <path class="cls-9" d="M110.81,74.93c-.5.09-.77.16-.77.16"/>
        <line class="cls-9" x1="110.46" y1="74.75" x2="110.44" y2="74.75"/>
        <path class="cls-9" d="M110.46,74.75c.45-.09.97-.2,1.19-.24"/>
        <path class="cls-9" d="M110.44,75.21c-.27,0-.62-.02-.69-.03-.13-.02-.22-.17-.01-.26.08-.03.37-.1.7-.17"/>
        <path class="cls-9" d="M112.2,74.39s-.24.06-.5.11h-.06"/>
        <line class="cls-9" x1="111.61" y1="74.33" x2="111.41" y2="74.36"/>
        <path class="cls-9" d="M110.47,74.53c.1-.02.22-.04.36-.07.19-.03.39-.07.58-.1"/>
        <path class="cls-9" d="M111.61,74.33c.25-.05.46-.09.55-.14.14-.07.16-.16.07-.21"/>
        <line class="cls-9" x1="110.46" y1="74.75" x2="110.43" y2="74.74"/>
        <path class="cls-9" d="M110.43,74.75c-.16,0-.34,0-.48-.02"/>
      </g>
      <line class="cls-9" x1="111.62" y1="74.35" x2="111.65" y2="74.51"/>
      <line class="cls-9" x1="111.62" y1="74.35" x2="111.61" y2="74.32"/>
      <line class="cls-9" x1="110.43" y1="74.75" x2="110.44" y2="74.75"/>
      <line class="cls-9" x1="110.43" y1="74.75" x2="110.38" y2="74.56"/>
      <line class="cls-9" x1="110.97" y1="75.55" x2="110.93" y2="75.36"/>
      <line class="cls-9" x1="111.15" y1="76.23" x2="111.2" y2="76.42"/>
      <line class="cls-9" x1="110.81" y1="74.93" x2="110.86" y2="75.12"/>
      <line class="cls-9" x1="111.03" y1="75.79" x2="111.09" y2="75.99"/>
      <line class="cls-9" x1="111.46" y1="75.27" x2="111.51" y2="75.44"/>
      <line class="cls-9" x1="111.68" y1="76.14" x2="111.73" y2="76.31"/>
      <line class="cls-9" x1="111.4" y1="75.01" x2="111.35" y2="74.83"/>
      <line class="cls-9" x1="111.57" y1="75.69" x2="111.62" y2="75.88"/>
      <g class="cls-18">
        <path class="cls-9" d="M110.76,76.5s-.63.09-.64.28"/>
        <path class="cls-9" d="M97.12,84.04c-.01.08-.12.13-.23.11-.12-.02-.2-.1-.18-.18l.04-.22"/>
        <path class="cls-9" d="M102.34,85.74c.02-.1-.08-.21-.23-.23-.14-.02-.27.04-.29.15-.02.1.08.21.22.23.14.02.27-.04.29-.15Z"/>
      </g>
      <line class="cls-9" x1="102.14" y1="86.04" x2="102.08" y2="86.37"/>
      <line class="cls-9" x1="101.84" y1="85.96" x2="101.77" y2="86.3"/>
      <g class="cls-29">
        <path class="cls-11" d="M99.34,84.39l-.02-.13s-.13.11-.19.29c-.07.18-.09.34-.05.36l.1-.08"/>
        <polyline class="cls-11" points="99.45 84.43 99.43 84.3 99.34 84.39 99.28 84.62 99.18 84.82 99.2 84.95 99.29 84.87"/>
        <polyline class="cls-11" points="99.56 84.47 99.54 84.35 99.45 84.43 99.39 84.66 99.29 84.87 99.31 85 99.4 84.91"/>
        <polyline class="cls-11" points="99.67 84.52 99.65 84.39 99.56 84.47 99.5 84.71 99.4 84.91 99.42 85.04 99.51 84.96"/>
        <polyline class="cls-11" points="99.78 84.56 99.76 84.43 99.67 84.52 99.61 84.75 99.51 84.96 99.53 85.08 99.62 85"/>
        <polyline class="cls-11" points="99.89 84.61 99.87 84.48 99.78 84.56 99.72 84.79 99.62 85 99.64 85.13 99.73 85.04"/>
        <polyline class="cls-11" points="100 84.65 99.99 84.52 99.89 84.61 99.83 84.84 99.73 85.04 99.75 85.17 99.84 85.09"/>
        <polyline class="cls-11" points="100.11 84.69 100.1 84.57 100 84.65 99.94 84.88 99.84 85.09 99.86 85.22 99.95 85.13"/>
        <polyline class="cls-11" points="100.22 84.74 100.21 84.61 100.11 84.69 100.05 84.93 99.95 85.13 99.97 85.26 100.07 85.17"/>
        <polyline class="cls-11" points="100.33 84.78 100.32 84.65 100.22 84.74 100.16 84.97 100.06 85.18 100.08 85.3 100.18 85.22"/>
        <polyline class="cls-11" points="100.44 84.83 100.43 84.7 100.33 84.78 100.27 85.01 100.17 85.22 100.19 85.35 100.29 85.26"/>
        <polyline class="cls-11" points="100.55 84.87 100.54 84.74 100.44 84.83 100.38 85.06 100.29 85.26 100.3 85.39 100.4 85.31"/>
        <polyline class="cls-11" points="100.66 84.91 100.65 84.79 100.55 84.87 100.49 85.1 100.4 85.31 100.41 85.43 100.51 85.35"/>
        <polyline class="cls-11" points="100.77 84.96 100.76 84.83 100.66 84.91 100.6 85.15 100.51 85.35 100.52 85.48 100.62 85.39"/>
        <polyline class="cls-11" points="100.88 85 100.87 84.87 100.77 84.96 100.71 85.19 100.62 85.39 100.63 85.52 100.73 85.44"/>
        <polyline class="cls-11" points="101 85.05 100.98 84.92 100.88 85 100.82 85.23 100.73 85.44 100.74 85.57 100.84 85.48"/>
        <polyline class="cls-11" points="101.11 85.09 101.09 84.96 101 85.05 100.93 85.28 100.84 85.48 100.85 85.61 100.95 85.53"/>
        <polyline class="cls-11" points="101.22 85.13 101.2 85.01 101.11 85.09 101.05 85.32 100.95 85.53 100.96 85.65 101.06 85.57"/>
        <path class="cls-11" d="M101.31,85.05l-.1.08-.06.23-.1.2.02.13s.13-.11.19-.29c.07-.18.08-.34.04-.36Z"/>
      </g>
      <line class="cls-9" x1="101.23" y1="85.58" x2="101.89" y2="85.85"/>
      <g class="cls-19">
        <path class="cls-9" d="M101.13,85.66s.26.13.55.25c.29.12.6.14.68-.02,0,0,.15-.16-.08-.34l-.57-.25-.06.12.25.1"/>
      </g>
      <line class="cls-9" x1="97.17" y1="83.38" x2="99.32" y2="84.26"/>
      <line class="cls-9" x1="97.21" y1="83.49" x2="99.22" y2="84.34"/>
      <g class="cls-21">
        <path class="cls-9" d="M96.85,83.33c-.1,0-.27.1-.19.3.08.21.59.39.59.39v-.09s-.02-.05-.02-.05c0,0-.44-.18-.47-.3l.03-.16c.01-.08.12-.13.23-.11.11.02.2.1.18.18l-.05.26"/>
        <path class="cls-9" d="M96.78,83.47s.17.2.41.06"/>
        <path class="cls-9" d="M66.83,54.48l.15.58c.04.11.13.04.13.04l.11-.1c.08-.03.58-.29.69-.91s-.16-.92-.16-.92l-.08.07c.02.08.25.83-.21,1.27-.26.19-.36.24-.33-.06,0-.33-.02-.75-.02-.75"/>
        <path class="cls-17" d="M75.85,57.33s2.06,13.21,2.45,13.93c.39.72.84,1.04,1.93,1.11,1.09.07,2.55-.29,2.77-1.15.21-.86-.82-4.43-.67-5.49l.09-.25c.11-.53.23-1.01.32-1.25.3-.78.25-2.87.11-3.55-.13-.68-.15-2.42-.15-2.42,0,0,.42-.17.15-.38"/>
        <path class="cls-12" d="M75.85,57.33s2.06,13.21,2.45,13.93c.39.72.84,1.04,1.93,1.11,1.09.07,2.55-.29,2.77-1.15.21-.86-.82-4.43-.67-5.49l.09-.25c.11-.53.23-1.01.32-1.25.3-.78.25-2.87.11-3.55-.13-.68-.15-2.42-.15-2.42,0,0,.42-.17.15-.38"/>
        <path class="cls-17" d="M74.43,44.4s-.54.86-1.74.75c0,0,.55-.44.43-.93-.12-.49-.41-.76-.98-.63-.57.13-.65.71-.62.9.04.27.11.47.41.68,0,0-.29.21-.63.22-.33,0-1.25-.59-1.26-1.44-.02-.77.62-1.18,1.12-1.32.46-.3,3.21-.32,3.21-.32"/>
        <path class="cls-12" d="M74.43,44.4s-.54.86-1.74.75c0,0,.55-.44.43-.93-.12-.49-.41-.76-.98-.63-.57.13-.65.71-.62.9.04.27.11.47.41.68,0,0-.29.21-.63.22-.33,0-1.25-.59-1.26-1.44-.02-.77.62-1.18,1.12-1.32.46-.3,3.21-.32,3.21-.32"/>
        <path class="cls-17" d="M89.95,50.64s-1.05.04-3.87.3c-2.81.25-7.57.81-8.43,1.11-.61.22-1.88,1.57-2.05,2.47-.15.8-.03,1.66.25,2.82.27,1.16.76,2.49.76,2.49"/>
        <path class="cls-12" d="M89.95,50.64s-1.05.04-3.87.3c-2.81.25-7.57.81-8.43,1.11-.61.22-1.88,1.57-2.05,2.47-.15.8-.03,1.66.25,2.82.27,1.16.76,2.49.76,2.49"/>
        <path class="cls-17" d="M81.93,68.11s.24-1.47.48-2.64"/>
        <path class="cls-12" d="M81.93,68.11s.24-1.47.48-2.64"/>
        <path class="cls-17" d="M101.04,51.4s.6,2.75-.22,3.99c-.82,1.24-3.04,2.05-4.29,2.02-1.25-.02-7.13-.02-8.61,0-1.48.02-4.14.68-5.08-.08-.93-.76-1.34-1.98-1.84-2"/>
        <path class="cls-12" d="M101.04,51.4s.6,2.75-.22,3.99c-.82,1.24-3.04,2.05-4.29,2.02-1.25-.02-7.13-.02-8.61,0-1.48.02-4.14.68-5.08-.08-.93-.76-1.34-1.98-1.84-2"/>
        <path class="cls-17" d="M79.82,73.52s.79.79,1.68.42c.67-.28,1.01-1,1.45-.99.44,0,.44.37.5.44.06.07.78,2.17.78,3.09v.77s-9.67,1.22-11.9.52c-1.62-.66-.51-1.89-.51-1.89l.15-.15c.12-.08.23-.11.23-.11,0,0,1.36-.53,3.2-.83"/>
        <path class="cls-12" d="M79.82,73.52s.79.79,1.68.42c.67-.28,1.01-1,1.45-.99.44,0,.44.37.5.44.06.07.78,2.17.78,3.09v.77s-9.67,1.22-11.9.52c-1.62-.66-.51-1.89-.51-1.89l.15-.15c.12-.08.23-.11.23-.11,0,0,1.36-.53,3.2-.83"/>
        <path class="cls-12" d="M93.05,23.73l-7.19-.81s.29-2.58,1.71-3.87l5.95,2.74c.44.2.73.62.72,1.08-.01.26-.12.53-.44.71-.22.13-.49.17-.75.14Z"/>
        <path class="cls-12" d="M88.61,19.53s1.91-2.36,6.15-1.14c4.25,1.22,3.73,5.07,3.73,5.07,0,0-.17,2.25-1.39,3.87-.29.38-.76.6-1.25.59l-2.3-.02c-1.11-.01-2.1-.7-2.39-1.71l-.03-.1c-.41-1.62-.62-2.65-.62-2.65"/>
        <path class="cls-12" d="M87.84,23.14l-.16,1.19s-.06.65.16,1.05c.23.41-.03,1.31-.36,1.67-.32.36.44.56.44.56l.19.46c.08.04.71.1.99,0"/>
        <path class="cls-12" d="M90.34,29.78s.21.31.54.44c.44.17.87-.09.87-.09,0,0,1.44-.99,2.17-2.21"/>
        <path class="cls-12" d="M92.56,27.7s-1.6,1.92-1.89,2.01c-.22.07-.74.15-1.33,0-.36-.18-.55-.56-.66-.89-.11-.33-.43-.72-.43-.72"/>
        <path class="cls-12" d="M91.75,30.13s.37.01.68.69c.26.58.24.87.24.87"/>
        <path class="cls-12" d="M96.3,29.65c-.16-.15-1.07-1.74-1.07-1.74"/>
        <path class="cls-12" d="M96.3,29.65c-.05.11-.49.21-1.07.48-.74.35-2.82,1.46-3.28,2.39-1.01,2.04-2.24,6.39-2.24,6.39"/>
        <path class="cls-12" d="M91.95,32.52s2.15-.99,2.5-1.26c.35-.27,1.82-1.65,1.91-1.65s2.02,1.88,2.84,3.74c.82,1.86,2.72,10.59,2.93,14.17.22,3.58-.52,3.71-.52,3.71,0,0-.86.37-1.46,0-.6-.37-2.27-.04-2.66-.04s-3.65.24-4.27-.15c-.61-.39-2.14-.54-2.81-1.34-.68-.8-1.23-.2-1.33-.92-.1-.72.66-.75.75-1.23.09-.48-.22-.99,0-1.02"/>
        <path class="cls-12" d="M94.07,32.5s-.76.18-1.06.6c-.3.42-2.98,5.89-3.73,6.34-.74.45.05,1.78-.2,2.45"/>
        <path class="cls-12" d="M87.92,41.76c.03-.18.61-1.83,1.03-1.89"/>
        <path class="cls-12" d="M86.53,41.76c0-.12.1-1.11.87-1.38.77-.27,1.05-.5,1.21-.21"/>
        <line class="cls-12" x1="86.53" y1="40.81" x2="85.34" y2="41.63"/>
        <path class="cls-12" d="M87.82,40.22s-2.23-.12-2.81,0c-.58.13-4.38.43-5.15.55s-2.62.35-2.98.69c-.36.34-.52,1.36-.45,2.15.06.78.61,1.53,1.1,1.64.49.11,11.01-.08,11.88-.26.87-.19,1.9-.32,2.8-1.21,1.18-1.18,4.15-6.52,5.03-7.03"/>
        <path class="cls-12" d="M93.57,33.68s-.52.93-.56,2.46"/>
        <path class="cls-12" d="M96,38.24s1.14-.9,1.56-.81"/>
        <path class="cls-12" d="M76.78,41.59s-1.89.05-2.31.55c-.4.48-.33,1.71-.04,2.26.29.55,2.59.51,2.59.51"/>
        <path class="cls-12" d="M91.51,44.14s1.19,1.88,3.3,2.98c2.11,1.1,4.27,1.55,4.44,2.05"/>
        <path class="cls-12" d="M88.91,45.05s-.29.61.17.92c.45.31,1.54,1.09,1.54,1.39"/>
        <path class="cls-12" d="M91.66,48s1.13.96,3.01,1.26c1.88.3,2.31.71,2.31.71"/>
        <path class="cls-12" d="M92.3,48.16s2.55.79,3.7.37"/>
        <path class="cls-12" d="M90.41,49.71s-.55.28-.7.58c-.14.31-.72.17-.72.41"/>
        <path class="cls-12" d="M101.04,51.4s.6,2.75-.22,3.99c-.82,1.24-3.04,2.05-4.29,2.02-1.25-.02-7.13-.02-8.61,0-1.48.02-4.14.68-5.08-.08-.93-.76-1.34-1.98-1.84-2"/>
        <path class="cls-12" d="M83.2,57.53s0,.28-.34.35c-.35.07-.77.46-3.03-.65"/>
        <path class="cls-12" d="M82.85,57.88s-1.08.3-1.12.76"/>
        <path class="cls-12" d="M93.58,51.49s2.62,1.17,2.85,2.17"/>
        <path class="cls-12" d="M93.26,51.8s1.58,1.2,1.42,1.86"/>
        <path class="cls-12" d="M96.62,51.23s-.42.68-.99.87c-.57.19-1.17.72-1.31.63-.14-.09-.83.81-2.01.72-1.18-.09-4.61.42-6.77.21-2.17-.21-4.28.16-4.75.31-.73.23-1.21.58-1.4,1.66-.18,1.08.17,1.15.06,1.61-.12.45-.3.48-.06,1.26.23.78-.05,2.95.06,3.96.11,1,1.14,6.83,1.37,7.7.23.87.54,1.95.2,2.22"/>
        <path class="cls-12" d="M79.82,73.52s.79.79,1.68.42c.67-.28,1.01-1,1.45-.99.44,0,.44.37.5.44.06.07.78,2.17.78,3.09v.77s-9.67,1.22-11.9.52c-1.62-.66-.51-1.89-.51-1.89"/>
        <path class="cls-12" d="M84.24,76.48s-4.41.72-8.92.92c-1,.04-3.1-.12-3.45-.77-.27-.51-.08-.78.11-.91"/>
        <path class="cls-12" d="M79.44,73.15s.07-.68,0-.9"/>
      </g>
      <line class="cls-12" x1="82.78" y1="71.63" x2="82.96" y2="72.95"/>
      <g class="cls-36">
        <path class="cls-12" d="M81.17,51.47s6.05-1.13,6.77-1.18c.72-.05,1.77-.31,1.77-.31l.61-.37"/>
        <path class="cls-40" d="M88.86,25.58c0,.15-.08.27-.17.27s-.17-.12-.17-.27.08-.27.17-.27.17.12.17.27"/>
        <path class="cls-40" d="M88.02,24.59l.06-.08c.2-.05.77-.21,1.2.36.07.09-.14.22-.23.09-.09-.1-.2-.27-.46-.29-.15-.02-.26,0-.41.01l-.16-.09Z"/>
        <path class="cls-17" d="M79.82,73.52s-.07-.44-.56-.37c-.49.07-3.56,1.62-3.85,1.62-.29,0,.16.96.81.62.65-.34,3.61-1.87,3.61-1.87"/>
        <path class="cls-12" d="M79.82,73.52s-.07-.44-.56-.37c-.49.07-3.56,1.62-3.85,1.62-.29,0,.16.96.81.62.65-.34,3.61-1.87,3.61-1.87Z"/>
      </g>
      <line class="cls-12" x1="25.97" y1="92.49" x2="131.54" y2="92.49"/>
      <line class="cls-12" x1="100.33" y1="30.21" x2="103.89" y2="30.21"/>
      <line class="cls-12" x1="102.38" y1="33.41" x2="118.76" y2="33.41"/>
      <line class="cls-12" x1="97.57" y1="35.96" x2="104.35" y2="35.96"/>
      <line class="cls-12" x1="106.73" y1="49.99" x2="112.6" y2="49.99"/>
      <line class="cls-12" x1="102.11" y1="51.8" x2="125.8" y2="51.8"/>
      <line class="cls-12" x1="100.33" y1="18.85" x2="108.4" y2="18.85"/>
      <line class="cls-12" x1="53.27" y1="89.96" x2="69.11" y2="89.96"/>
      <line class="cls-12" x1="67.69" y1="87.56" x2="76.48" y2="87.56"/>
      <line class="cls-12" x1="117.73" y1="89.42" x2="128.24" y2="89.42"/>
      <line class="cls-12" x1="128.24" y1="86.91" x2="138.02" y2="86.91"/>
      <line class="cls-12" x1="118.76" y1="74.86" x2="135.37" y2="74.86"/>
      <line class="cls-12" x1="118.56" y1="70.54" x2="125.8" y2="70.54"/>
      <g class="cls-32">
        <path class="cls-27" d="M55.46,20.52l5.07.77-.91-1.9,2.32.47,1.93,2.4c.4.49.27,1.22-.26,1.56l-2.35,1.48-2.09-.35,1.13-1.71-4-.55,2.69,7.41-2.23.57-2.67-8.55c-.27-.87.46-1.73,1.37-1.59"/>
        <path class="cls-27" d="M44.13,41.71l3.45,3.79-2.09.3,1.68,1.67,3.07.28c.63.06,1.17-.45,1.15-1.08l-.07-2.78-1.45-1.55-.8,1.89-2.68-3.02,7.66-1.87-.77-2.17-8.59,2.52c-.88.26-1.18,1.34-.56,2.02"/>
        <path class="cls-26" d="M162.81,0h-.78l-.12.12.12.12h.78v-.25ZM161.25,0h-.78l-.12.12.12.12h.78l.12-.12-.12-.12M159.7,0h-.78l-.12.12.12.12h.78l.12-.12-.12-.12M158.14,0h-.78l-.12.12.12.12h.78l.12-.12-.12-.12M156.59,0h-.78l-.12.12.12.12h.78l.12-.12-.12-.12M155.03,0h-.78l-.12.12.12.12h.78l.12-.12-.12-.12M153.47,0h-.78l-.12.12.12.12h.78l.12-.12-.12-.12M151.92,0h-.78l-.12.12.12.12h.78l.12-.12-.12-.12M150.36,0h-.78l-.12.12.12.12h.78l.12-.12-.12-.12M148.81,0h-.78l-.12.12.12.12h.78l.12-.12-.12-.12M147.25,0h-.78l-.12.12.12.12h.78l.12-.12-.12-.12M145.69,0h-.78l-.12.12.12.12h.78l.12-.12-.12-.12M144.14,0h-.78l-.12.12.12.12h.78l.12-.12-.12-.12M142.58,0h-.78l-.12.12.12.12h.78l.12-.12-.12-.12M141.03,0h-.78l-.12.12.12.12h.78l.12-.12-.12-.12M139.47,0h-.78l-.12.12.12.12h.78l.12-.12-.12-.12M137.91,0h-.78l-.12.12.12.12h.78l.12-.12-.12-.12M136.36,0h-.78l-.12.12.12.12h.78l.12-.12-.12-.12M134.8,0h-.78l-.12.12.12.12h.78l.12-.12-.12-.12M133.25,0h-.78l-.12.12.12.12h.78l.12-.12-.12-.12M131.69,0h-.78l-.12.12.12.12h.78l.12-.12-.12-.12M130.13,0h-.78l-.12.12.12.12h.78l.12-.12-.12-.12M128.58,0h-.78l-.12.12.12.12h.78l.12-.12-.12-.12M127.02,0h-.78l-.12.12.12.12h.78l.12-.12-.12-.12M125.47,0h-.78l-.12.12.12.12h.78l.12-.12-.12-.12M123.91,0h-.78l-.12.12.12.12h.78l.12-.12-.12-.12M122.35,0h-.78l-.12.12.12.12h.78l.12-.12-.12-.12M120.8,0h-.78l-.12.12.12.12h.78l.12-.12-.12-.12M119.24,0h-.78l-.12.12.12.12h.78l.12-.12-.12-.12M117.69,0h-.78l-.12.12.12.12h.78l.12-.12-.12-.12M116.13,0h-.78l-.12.12.12.12h.78l.12-.12-.12-.12M114.57,0h-.78l-.12.12.12.12h.78l.12-.12-.12-.12M113.02,0h-.78l-.12.12.12.12h.78l.12-.12-.12-.12M111.46,0h-.78l-.12.12.12.12h.78l.12-.12-.12-.12M109.91,0h-.78l-.12.12.12.12h.78l.12-.12-.12-.12M108.35,0h-.78l-.12.12.12.12h.78l.12-.12-.12-.12M106.79,0h-.78l-.12.12.12.12h.78l.12-.12-.12-.12M105.24,0h-.78l-.12.12.12.12h.78l.12-.12-.12-.12M103.68,0h-.78l-.12.12.12.12h.78l.12-.12-.12-.12M102.13,0h-.78l-.12.12.12.12h.78l.12-.12-.12-.12M100.57,0h-.78l-.12.12.12.12h.78l.12-.12-.12-.12M99.01,0h-.78l-.12.12.12.12h.78l.12-.12-.12-.12M97.46,0h-.78l-.12.12.12.12h.78l.12-.12-.12-.12M95.9,0h-.78l-.12.12.12.12h.78l.12-.12-.12-.12M94.35,0h-.78l-.12.12.12.12h.78l.12-.12-.12-.12M92.79,0h-.78l-.12.12.12.12h.78l.12-.12-.12-.12M91.23,0h-.78l-.12.12.12.12h.78l.12-.12-.12-.12M89.68,0h-.78l-.12.12.12.12h.78l.12-.12-.12-.12M88.12,0h-.78l-.12.12.12.12h.78l.12-.12-.12-.12M86.57,0h-.78l-.12.12.12.12h.78l.12-.12-.12-.12M85.01,0h-.78l-.12.12.12.12h.78l.12-.12-.12-.12M83.45,0h-.78l-.12.12.12.12h.78l.12-.12-.12-.12M81.9,0h-.78l-.12.12.12.12h.78l.12-.12-.12-.12M80.34,0h-.78l-.12.12.12.12h.78l.12-.12-.12-.12M78.79,0h-.78l-.12.12.12.12h.78l.12-.12-.12-.12M77.23,0h-.78l-.12.12.12.12h.78l.12-.12-.12-.12M75.67,0h-.78l-.12.12.12.12h.78l.12-.12-.12-.12M74.12,0h-.78l-.12.12.12.12h.78l.12-.12-.12-.12M72.56,0h-.78l-.12.12.12.12h.78l.12-.12-.12-.12M71.01,0h-.78l-.12.12.12.12h.78l.12-.12-.12-.12M69.45,0h-.78l-.12.12.12.12h.78l.12-.12-.12-.12M67.89,0h-.78l-.12.12.12.12h.78l.12-.12-.12-.12M66.34,0h-.78l-.12.12.12.12h.78l.12-.12-.12-.12M64.78,0h-.78l-.12.12.12.12h.78l.12-.12-.12-.12M63.23,0h-.78l-.12.12.12.12h.78l.12-.12-.12-.12M61.67,0h-.78l-.12.12.12.12h.78l.12-.12-.12-.12M60.11,0h-.78l-.12.12.12.12h.78l.12-.12-.12-.12M58.56,0h-.78l-.12.12.12.12h.78l.12-.12-.12-.12M57,0h-.78l-.12.12.12.12h.78l.12-.12-.12-.12M55.45,0h-.78l-.12.12.12.12h.78l.12-.12-.12-.12M53.89,0h-.78l-.12.12.12.12h.78l.12-.12-.12-.12M52.33,0h-.78l-.12.12.12.12h.78l.12-.12-.12-.12M50.78,0h-.78l-.12.12.12.12h.78l.12-.12-.12-.12M49.22,0h-.78l-.12.12.12.12h.78l.12-.12-.12-.12M47.67,0h-.78l-.12.12.12.12h.78l.12-.12-.12-.12M46.11,0h-.78l-.12.12.12.12h.78l.12-.12-.12-.12M44.55,0h-.78l-.12.12.12.12h.78l.12-.12-.12-.12M43,0h-.78l-.12.12.12.12h.78l.12-.12-.12-.12M41.44,0h-.78l-.12.12.12.12h.78l.12-.12-.12-.12M39.89,0h-.78l-.12.12.12.12h.78l.12-.12-.12-.12M38.33,0h-.78l-.12.12.12.12h.78l.12-.12-.12-.12M36.77,0h-.78l-.12.12.12.12h.78l.12-.12-.12-.12M35.22,0h-.78l-.12.12.12.12h.78l.12-.12-.12-.12M33.66,0h-.78l-.12.12.12.12h.78l.12-.12-.12-.12M32.11,0h-.78l-.12.12.12.12h.78l.12-.12-.12-.12M30.55,0h-.78l-.12.12.12.12h.78l.12-.12-.12-.12M28.99,0h-.78l-.12.12.12.12h.78l.12-.12-.12-.12M27.44,0h-.78l-.12.12.12.12h.78l.12-.12-.12-.12M25.88,0h-.78l-.12.12.12.12h.78l.12-.12-.12-.12M24.33,0h-.78l-.12.12.12.12h.78l.12-.12-.12-.12M22.77,0h-.78l-.12.12.12.12h.78l.12-.12-.12-.12M21.21,0h-.78l-.12.12.12.12h.78l.12-.12-.12-.12M19.66,0h-.78l-.12.12.12.12h.78l.12-.12-.12-.12M18.1,0h-.78l-.12.12.12.12h.78l.12-.12-.12-.12M16.55,0h-.78l-.12.12.12.12h.78l.12-.12-.12-.12M14.99,0h-.78l-.12.12.12.12h.78l.12-.12-.12-.12M13.43,0h-.78l-.12.12.12.12h.78l.12-.12-.12-.12M11.88,0h-.78l-.12.12.12.12h.78l.12-.12-.12-.12M10.32,0h-.78l-.12.12.12.12h.78l.12-.12-.12-.12M8.77,0h-.78l-.12.12.12.12h.78l.12-.12-.12-.12M7.21,0h-.78l-.12.12.12.12h.78l.12-.12-.12-.12M5.65,0h-.78l-.12.12.12.12h.78l.12-.12-.12-.12M4.1,0h-.78l-.12.12.12.12h.78l.12-.12-.12-.12M2.54,0h-.78l-.12.12.12.12h.78l.12-.12-.12-.12M.99,0H.21L.08.12l.12.12h.78l.12-.12-.12-.12M.12.44l-.12.12v.78l.12.12.12-.12v-.78l-.12-.12M.12,2l-.12.12v.78l.12.12.12-.12v-.78l-.12-.12M.12,3.56l-.12.12v.78l.12.12.12-.12v-.78l-.12-.12M.12,5.11l-.12.12v.78l.12.12.12-.12v-.78l-.12-.12M.12,6.67l-.12.12v.78l.12.12.12-.12v-.78l-.12-.12M.12,8.22l-.12.12v.78l.12.12.12-.12v-.78l-.12-.12M.12,9.78l-.12.12v.78l.12.12.12-.12v-.78l-.12-.12M.12,11.34l-.12.12v.78l.12.12.12-.12v-.78l-.12-.12M.12,12.89l-.12.12v.78l.12.12.12-.12v-.78l-.12-.12M.12,14.45l-.12.12v.78l.12.12.12-.12v-.78l-.12-.12M.12,16l-.12.12v.78l.12.12.12-.12v-.78l-.12-.12M.12,17.56l-.12.12v.78l.12.12.12-.12v-.78l-.12-.12M.12,19.12l-.12.12v.78l.12.12.12-.12v-.78l-.12-.12M.12,20.67l-.12.12v.78l.12.12.12-.12v-.78l-.12-.12M.12,22.23l-.12.12v.78l.12.12.12-.12v-.78l-.12-.12M.12,23.78l-.12.12v.78l.12.12.12-.12v-.78l-.12-.12M.12,25.34l-.12.12v.78l.12.12.12-.12v-.78l-.12-.12M.12,26.9l-.12.12v.78l.12.12.12-.12v-.78l-.12-.12M.12,28.45l-.12.12v.78l.12.12.12-.12v-.78l-.12-.12M.12,30.01l-.12.12v.78l.12.12.12-.12v-.78l-.12-.12M.12,31.56l-.12.12v.78l.12.12.12-.12v-.78l-.12-.12M.12,33.12l-.12.12v.78l.12.12.12-.12v-.78l-.12-.12M.12,34.68l-.12.12v.78l.12.12.12-.12v-.78l-.12-.12M.12,36.23l-.12.12v.78l.12.12.12-.12v-.78l-.12-.12M.12,37.79l-.12.12v.78l.12.12.12-.12v-.78l-.12-.12M.12,39.34l-.12.12v.78l.12.12.12-.12v-.78l-.12-.12M.12,40.9l-.12.12v.78l.12.12.12-.12v-.78l-.12-.12M.12,42.46l-.12.12v.78l.12.12.12-.12v-.78l-.12-.12M.12,44.01l-.12.12v.78l.12.12.12-.12v-.78l-.12-.12M.12,45.57l-.12.12v.78l.12.12.12-.12v-.78l-.12-.12M.12,47.12l-.12.12v.78l.12.12.12-.12v-.78l-.12-.12M.12,48.68l-.12.12v.78l.12.12.12-.12v-.78l-.12-.12M.12,50.24l-.12.12v.78l.12.12.12-.12v-.78l-.12-.12M.12,51.79l-.12.12v.78l.12.12.12-.12v-.78l-.12-.12M.12,53.35l-.12.12v.78l.12.12.12-.12v-.78l-.12-.12M.12,54.9l-.12.12v.78l.12.12.12-.12v-.78l-.12-.12M.12,56.46l-.12.12v.78l.12.12.12-.12v-.78l-.12-.12M.12,58.02l-.12.12v.78l.12.12.12-.12v-.78l-.12-.12M.12,59.57l-.12.12v.78l.12.12.12-.12v-.78l-.12-.12M.12,61.13l-.12.12v.78l.12.12.12-.12v-.78l-.12-.12M.12,62.68l-.12.12v.78l.12.12.12-.12v-.78l-.12-.12M.12,64.24l-.12.12v.78l.12.12.12-.12v-.78l-.12-.12M.12,65.8l-.12.12v.78l.12.12.12-.12v-.78l-.12-.12M.12,67.35l-.12.12v.78l.12.12.12-.12v-.78l-.12-.12M.12,68.91l-.12.12v.78l.12.12.12-.12v-.78l-.12-.12M.12,70.46l-.12.12v.78l.12.12.12-.12v-.78l-.12-.12M.12,72.02l-.12.12v.78l.12.12.12-.12v-.78l-.12-.12M.12,73.58l-.12.12v.78l.12.12.12-.12v-.78l-.12-.12M.12,75.13l-.12.12v.78l.12.12.12-.12v-.78l-.12-.12M.12,76.69l-.12.12v.78l.12.12.12-.12v-.78l-.12-.12M.12,78.24l-.12.12v.78l.12.12.12-.12v-.78l-.12-.12M.12,79.8l-.12.12v.78l.12.12.12-.12v-.78l-.12-.12M.12,81.36l-.12.12v.78l.12.12.12-.12v-.78l-.12-.12M.12,82.91l-.12.12v.78l.12.12.12-.12v-.78l-.12-.12M.12,84.47l-.12.12v.78l.12.12.12-.12v-.78l-.12-.12M.12,86.02l-.12.12v.78l.12.12.12-.12v-.78l-.12-.12M.12,87.58l-.12.12v.78l.12.12.12-.12v-.78l-.12-.12M.12,89.14l-.12.12v.78l.12.12.12-.12v-.78l-.12-.12M.12,90.69l-.12.12v.78l.12.12.12-.12v-.78l-.12-.12M.12,92.25l-.12.12v.78l.12.12.12-.12v-.78l-.12-.12M.12,93.8l-.12.12v.78l.12.12.12-.12v-.78l-.12-.12M.12,95.36l-.12.12v.78l.12.12.12-.12v-.78l-.12-.12M.12,96.92l-.12.12v.78l.12.12.12-.12v-.78l-.12-.12M.12,98.47l-.12.12v.62h.25v-.04l.04-.09-.04-.09v-.4l-.12-.12M1.72,98.96h-.78l-.12.12.12.12h.78l.12-.12-.12-.12M3.28,98.96h-.78l-.12.12.12.12h.78l.12-.12-.12-.12M4.83,98.96h-.78l-.12.12.12.12h.78l.12-.12-.12-.12M6.39,98.96h-.78l-.12.12.12.12h.78l.12-.12-.12-.12M7.94,98.96h-.78l-.12.12.12.12h.78l.12-.12-.12-.12M9.5,98.96h-.78l-.12.12.12.12h.78l.12-.12-.12-.12M11.05,98.96h-.78l-.12.12.12.12h.78l.12-.12-.12-.12M12.61,98.96h-.78l-.12.12.12.12h.78l.12-.12-.12-.12M14.17,98.96h-.78l-.12.12.12.12h.78l.12-.12-.12-.12M15.72,98.96h-.78l-.12.12.12.12h.78l.12-.12-.12-.12M17.28,98.96h-.78l-.12.12.12.12h.78l.12-.12-.12-.12M18.83,98.96h-.78l-.12.12.12.12h.78l.12-.12-.12-.12M20.39,98.96h-.78l-.12.12.12.12h.78l.12-.12-.12-.12M21.95,98.96h-.78l-.12.12.12.12h.78l.12-.12-.12-.12M23.5,98.96h-.78l-.12.12.12.12h.78l.12-.12-.12-.12M25.06,98.96h-.78l-.12.12.12.12h.78l.12-.12-.12-.12M26.61,98.96h-.78l-.12.12.12.12h.78l.12-.12-.12-.12M28.17,98.96h-.78l-.12.12.12.12h.78l.12-.12-.12-.12M29.73,98.96h-.78l-.12.12.12.12h.78l.12-.12-.12-.12M31.28,98.96h-.78l-.12.12.12.12h.78l.12-.12-.12-.12M32.84,98.96h-.78l-.12.12.12.12h.78l.12-.12-.12-.12M34.39,98.96h-.78l-.12.12.12.12h.78l.12-.12-.12-.12M35.95,98.96h-.78l-.12.12.12.12h.78l.12-.12-.12-.12M37.51,98.96h-.78l-.12.12.12.12h.78l.12-.12-.12-.12M39.06,98.96h-.78l-.12.12.12.12h.78l.12-.12-.12-.12M40.62,98.96h-.78l-.12.12.12.12h.78l.12-.12-.12-.12M42.17,98.96h-.78l-.12.12.12.12h.78l.12-.12-.12-.12M43.73,98.96h-.78l-.12.12.12.12h.78l.12-.12-.12-.12M45.29,98.96h-.78l-.12.12.12.12h.78l.12-.12-.12-.12M46.84,98.96h-.78l-.12.12.12.12h.78l.12-.12-.12-.12M48.4,98.96h-.78l-.12.12.12.12h.78l.12-.12-.12-.12M49.95,98.96h-.78l-.12.12.12.12h.78l.12-.12-.12-.12M51.51,98.96h-.78l-.12.12.12.12h.78l.12-.12-.12-.12M53.07,98.96h-.78l-.12.12.12.12h.78l.12-.12-.12-.12M54.62,98.96h-.78l-.12.12.12.12h.78l.12-.12-.12-.12M56.18,98.96h-.78l-.12.12.12.12h.78l.12-.12-.12-.12M57.73,98.96h-.78l-.12.12.12.12h.78l.12-.12-.12-.12M59.29,98.96h-.78l-.12.12.12.12h.78l.12-.12-.12-.12M60.85,98.96h-.78l-.12.12.12.12h.78l.12-.12-.12-.12M62.4,98.96h-.78l-.12.12.12.12h.78l.12-.12-.12-.12M63.96,98.96h-.78l-.12.12.12.12h.78l.12-.12-.12-.12M65.51,98.96h-.78l-.12.12.12.12h.78l.12-.12-.12-.12M67.07,98.96h-.78l-.12.12.12.12h.78l.12-.12-.12-.12M68.63,98.96h-.78l-.12.12.12.12h.78l.12-.12-.12-.12M70.18,98.96h-.78l-.12.12.12.12h.78l.12-.12-.12-.12M71.74,98.96h-.78l-.12.12.12.12h.78l.12-.12-.12-.12M73.29,98.96h-.78l-.12.12.12.12h.78l.12-.12-.12-.12M74.85,98.96h-.78l-.12.12.12.12h.78l.12-.12-.12-.12M76.41,98.96h-.78l-.12.12.12.12h.78l.12-.12-.12-.12M77.96,98.96h-.78l-.12.12.12.12h.78l.12-.12-.12-.12M79.52,98.96h-.78l-.12.12.12.12h.78l.12-.12-.12-.12M81.07,98.96h-.78l-.12.12.12.12h.78l.12-.12-.12-.12M82.63,98.96h-.78l-.12.12.12.12h.78l.12-.12-.12-.12M84.19,98.96h-.78l-.12.12.12.12h.78l.12-.12-.12-.12M85.74,98.96h-.78l-.12.12.12.12h.78l.12-.12-.12-.12M87.3,98.96h-.78l-.12.12.12.12h.78l.12-.12-.12-.12M88.85,98.96h-.78l-.12.12.12.12h.78l.12-.12-.12-.12M90.41,98.96h-.78l-.12.12.12.12h.78l.12-.12-.12-.12M91.97,98.96h-.78l-.12.12.12.12h.78l.12-.12-.12-.12M93.52,98.96h-.78l-.12.12.12.12h.78l.12-.12-.12-.12M95.08,98.96h-.78l-.12.12.12.12h.78l.12-.12-.12-.12M96.63,98.96h-.78l-.12.12.12.12h.78l.12-.12-.12-.12M98.19,98.96h-.78l-.12.12.12.12h.78l.12-.12-.12-.12M99.75,98.96h-.78l-.12.12.12.12h.78l.12-.12-.12-.12M101.3,98.96h-.78l-.12.12.12.12h.78l.12-.12-.12-.12M102.86,98.96h-.78l-.12.12.12.12h.78l.12-.12-.12-.12M104.41,98.96h-.78l-.12.12.12.12h.78l.12-.12-.12-.12M105.97,98.96h-.78l-.12.12.12.12h.78l.12-.12-.12-.12M107.53,98.96h-.78l-.12.12.12.12h.78l.12-.12-.12-.12M109.08,98.96h-.78l-.12.12.12.12h.78l.12-.12-.12-.12M110.64,98.96h-.78l-.12.12.12.12h.78l.12-.12-.12-.12M112.19,98.96h-.78l-.12.12.12.12h.78l.12-.12-.12-.12M113.75,98.96h-.78l-.12.12.12.12h.78l.12-.12-.12-.12M115.31,98.96h-.78l-.12.12.12.12h.78l.12-.12-.12-.12M116.86,98.96h-.78l-.12.12.12.12h.78l.12-.12-.12-.12M118.42,98.96h-.78l-.12.12.12.12h.78l.12-.12-.12-.12M119.98,98.96h-.78l-.12.12.12.12h.78l.12-.12-.12-.12M121.53,98.96h-.78l-.12.12.12.12h.78l.12-.12-.12-.12M123.09,98.96h-.78l-.12.12.12.12h.78l.12-.12-.12-.12M124.64,98.96h-.78l-.12.12.12.12h.78l.12-.12-.12-.12M126.2,98.96h-.78l-.12.12.12.12h.78l.12-.12-.12-.12M127.76,98.96h-.78l-.12.12.12.12h.78l.12-.12-.12-.12M129.31,98.96h-.78l-.12.12.12.12h.78l.12-.12-.12-.12M130.87,98.96h-.78l-.12.12.12.12h.78l.12-.12-.12-.12M132.42,98.96h-.78l-.12.12.12.12h.78l.12-.12-.12-.12M133.98,98.96h-.78l-.12.12.12.12h.78l.12-.12-.12-.12M135.54,98.96h-.78l-.12.12.12.12h.78l.12-.12-.12-.12M137.09,98.96h-.78l-.12.12.12.12h.78l.12-.12-.12-.12M138.65,98.96h-.78l-.12.12.12.12h.78l.12-.12-.12-.12M140.2,98.96h-.78l-.12.12.12.12h.78l.12-.12-.12-.12M141.76,98.96h-.78l-.12.12.12.12h.78l.12-.12-.12-.12M143.32,98.96h-.78l-.12.12.12.12h.78l.12-.12-.12-.12M144.87,98.96h-.78l-.12.12.12.12h.78l.12-.12-.12-.12M146.43,98.96h-.78l-.12.12.12.12h.78l.12-.12-.12-.12M147.98,98.96h-.78l-.12.12.12.12h.78l.12-.12-.12-.12M149.54,98.96h-.78l-.12.12.12.12h.78l.12-.12-.12-.12M151.1,98.96h-.78l-.12.12.12.12h.78l.12-.12-.12-.12M152.65,98.96h-.78l-.12.12.12.12h.78l.12-.12-.12-.12M154.21,98.96h-.78l-.12.12.12.12h.78l.12-.12-.12-.12M155.76,98.96h-.78l-.12.12.12.12h.78l.12-.12-.12-.12M157.32,98.96h-.78l-.12.12.12.12h.78l.12-.12-.12-.12M158.88,98.96h-.78l-.12.12.12.12h.78l.12-.12-.12-.12M160.43,98.96h-.78l-.12.12.12.12h.78l.12-.12-.12-.12M161.99,98.96h-.78l-.12.12.12.12h.78l.12-.12-.12-.12M162.69,98.36l-.12.12v.73h.2-.2.25-.05.05v-.73l-.12-.12M162.69,96.8l-.12.12v.78l.12.12.12-.12v-.78l-.12-.12M162.69,95.24l-.12.12v.78l.12.12.12-.12v-.78l-.12-.12M162.69,93.69l-.12.12v.78l.12.12.12-.12v-.78l-.12-.12M162.69,92.13l-.12.12v.78l.12.12.12-.12v-.78l-.12-.12M162.69,90.58l-.12.12v.78l.12.12.12-.12v-.78l-.12-.12M162.69,89.02l-.12.12v.78l.12.12.12-.12v-.78l-.12-.12M162.69,87.46l-.12.12v.78l.12.12.12-.12v-.78l-.12-.12M162.69,85.91l-.12.12v.78l.12.12.12-.12v-.78l-.12-.12M162.69,84.35l-.12.12v.78l.12.12.12-.12v-.78l-.12-.12M162.69,82.8l-.12.12v.78l.12.12.12-.12v-.78l-.12-.12M162.69,81.24l-.12.12v.78l.12.12.12-.12v-.78l-.12-.12M162.69,79.68l-.12.12v.78l.12.12.12-.12v-.78l-.12-.12M162.69,78.13l-.12.12v.78l.12.12.12-.12v-.78l-.12-.12M162.69,76.57l-.12.12v.78l.12.12.12-.12v-.78l-.12-.12M162.69,75.02l-.12.12v.78l.12.12.12-.12v-.78l-.12-.12M162.69,73.46l-.12.12v.78l.12.12.12-.12v-.78l-.12-.12M162.69,71.9l-.12.12v.78l.12.12.12-.12v-.78l-.12-.12M162.69,70.35l-.12.12v.78l.12.12.12-.12v-.78l-.12-.12M162.69,68.79l-.12.12v.78l.12.12.12-.12v-.78l-.12-.12M162.69,67.24l-.12.12v.78l.12.12.12-.12v-.78l-.12-.12M162.69,65.68l-.12.12v.78l.12.12.12-.12v-.78l-.12-.12M162.69,64.12l-.12.12v.78l.12.12.12-.12v-.78l-.12-.12M162.69,62.57l-.12.12v.78l.12.12.12-.12v-.78l-.12-.12M162.69,61.01l-.12.12v.78l.12.12.12-.12v-.78l-.12-.12M162.69,59.46l-.12.12v.78l.12.12.12-.12v-.78l-.12-.12M162.69,57.9l-.12.12v.78l.12.12.12-.12v-.78l-.12-.12M162.69,56.34l-.12.12v.78l.12.12.12-.12v-.78l-.12-.12M162.69,54.79l-.12.12v.78l.12.12.12-.12v-.78l-.12-.12M162.69,53.23l-.12.12v.78l.12.12.12-.12v-.78l-.12-.12M162.69,51.68l-.12.12v.78l.12.12.12-.12v-.78l-.12-.12M162.69,50.12l-.12.12v.78l.12.12.12-.12v-.78l-.12-.12M162.69,48.56l-.12.12v.78l.12.12.12-.12v-.78l-.12-.12M162.69,47.01l-.12.12v.78l.12.12.12-.12v-.78l-.12-.12M162.69,45.45l-.12.12v.78l.12.12.12-.12v-.78l-.12-.12M162.69,43.9l-.12.12v.78l.12.12.12-.12v-.78l-.12-.12M162.69,42.34l-.12.12v.78l.12.12.12-.12v-.78l-.12-.12M162.69,40.78l-.12.12v.78l.12.12.12-.12v-.78l-.12-.12M162.69,39.23l-.12.12v.78l.12.12.12-.12v-.78l-.12-.12M162.69,37.67l-.12.12v.78l.12.12.12-.12v-.78l-.12-.12M162.69,36.12l-.12.12v.78l.12.12.12-.12v-.78l-.12-.12M162.69,34.56l-.12.12v.78l.12.12.12-.12v-.78l-.12-.12M162.69,33l-.12.12v.78l.12.12.12-.12v-.78l-.12-.12M162.69,31.45l-.12.12v.78l.12.12.12-.12v-.78l-.12-.12M162.69,29.89l-.12.12v.78l.12.12.12-.12v-.78l-.12-.12M162.69,28.34l-.12.12v.78l.12.12.12-.12v-.78l-.12-.12M162.69,26.78l-.12.12v.78l.12.12.12-.12v-.78l-.12-.12M162.69,25.22l-.12.12v.78l.12.12.12-.12v-.78l-.12-.12M162.69,23.67l-.12.12v.78l.12.12.12-.12v-.78l-.12-.12M162.69,22.11l-.12.12v.78l.12.12.12-.12v-.78l-.12-.12M162.69,20.56l-.12.12v.78l.12.12.12-.12v-.78l-.12-.12M162.69,19l-.12.12v.78l.12.12.12-.12v-.78l-.12-.12M162.69,17.44l-.12.12v.78l.12.12.12-.12v-.78l-.12-.12M162.69,15.89l-.12.12v.78l.12.12.12-.12v-.78l-.12-.12M162.69,14.33l-.12.12v.78l.12.12.12-.12v-.78l-.12-.12M162.69,12.78l-.12.12v.78l.12.12.12-.12v-.78l-.12-.12M162.69,11.22l-.12.12v.78l.12.12.12-.12v-.78l-.12-.12M162.69,9.66l-.12.12v.78l.12.12.12-.12v-.78l-.12-.12M162.69,8.11l-.12.12v.78l.12.12.12-.12v-.78l-.12-.12M162.69,6.55l-.12.12v.78l.12.12.12-.12v-.78l-.12-.12M162.69,5l-.12.12v.78l.12.12.12-.12v-.78l-.12-.12M162.69,3.44l-.12.12v.78l.12.12.12-.12v-.78l-.12-.12M162.69,1.88l-.12.12v.78l.12.12.12-.12v-.78l-.12-.12M162.69.33l-.12.12v.78l.12.12.12-.12V.45l-.12-.12"/>
      </g>
    </g>
  </g>
</svg>