<?xml version="1.0" encoding="UTF-8"?>
<svg id="_图层_2" data-name="图层 2" xmlns="http://www.w3.org/2000/svg" xmlns:xlink="http://www.w3.org/1999/xlink" viewBox="0 0 162.81 99.21">
  <defs>
    <style>
      .cls-1 {
        clip-path: url(#clippath-21);
      }

      .cls-2 {
        clip-path: url(#clippath-6);
      }

      .cls-3 {
        clip-path: url(#clippath-7);
      }

      .cls-4 {
        clip-path: url(#clippath-17);
      }

      .cls-5 {
        clip-path: url(#clippath-15);
      }

      .cls-6 {
        clip-path: url(#clippath-18);
      }

      .cls-7 {
        clip-path: url(#clippath-4);
      }

      .cls-8 {
        stroke-width: .12px;
      }

      .cls-8, .cls-9, .cls-10, .cls-11, .cls-12, .cls-13 {
        fill: none;
      }

      .cls-8, .cls-9, .cls-11, .cls-13 {
        stroke: #54565a;
        stroke-linecap: round;
        stroke-linejoin: round;
      }

      .cls-14 {
        clip-path: url(#clippath-22);
      }

      .cls-15 {
        clip-path: url(#clippath-23);
      }

      .cls-9 {
        stroke-width: .2px;
      }

      .cls-16 {
        clip-path: url(#clippath-9);
      }

      .cls-17 {
        clip-path: url(#clippath-10);
      }

      .cls-18 {
        fill: #fff;
      }

      .cls-19 {
        clip-path: url(#clippath-25);
      }

      .cls-20 {
        clip-path: url(#clippath-27);
      }

      .cls-21 {
        clip-path: url(#clippath-11);
      }

      .cls-22 {
        clip-path: url(#clippath-28);
      }

      .cls-23 {
        clip-path: url(#clippath-1);
      }

      .cls-24 {
        fill: #d76a36;
      }

      .cls-11 {
        stroke-width: .17px;
      }

      .cls-25 {
        clip-path: url(#clippath-5);
      }

      .cls-26 {
        clip-path: url(#clippath-20);
      }

      .cls-27 {
        clip-path: url(#clippath-8);
      }

      .cls-28 {
        fill: #221814;
      }

      .cls-29 {
        fill: #ff6b00;
      }

      .cls-30 {
        clip-path: url(#clippath-3);
      }

      .cls-31 {
        clip-path: url(#clippath-26);
      }

      .cls-32 {
        clip-path: url(#clippath-12);
      }

      .cls-33 {
        clip-path: url(#clippath-14);
      }

      .cls-34 {
        clip-path: url(#clippath-19);
      }

      .cls-12 {
        stroke: #ff6b00;
        stroke-miterlimit: 10;
        stroke-width: .09px;
      }

      .cls-13 {
        stroke-width: .25px;
      }

      .cls-35 {
        clip-path: url(#clippath-16);
      }

      .cls-36 {
        clip-path: url(#clippath-2);
      }

      .cls-37 {
        clip-path: url(#clippath-13);
      }

      .cls-38 {
        clip-path: url(#clippath-24);
      }

      .cls-39 {
        clip-path: url(#clippath);
      }

      .cls-40 {
        fill: #54565a;
      }
    </style>
    <clipPath id="clippath">
      <rect class="cls-10" width="162.81" height="99.21"/>
    </clipPath>
    <clipPath id="clippath-1">
      <rect class="cls-10" width="162.81" height="99.21"/>
    </clipPath>
    <clipPath id="clippath-2">
      <rect class="cls-10" width="162.81" height="99.21"/>
    </clipPath>
    <clipPath id="clippath-3">
      <rect class="cls-10" width="162.81" height="99.21"/>
    </clipPath>
    <clipPath id="clippath-4">
      <rect class="cls-10" width="162.81" height="99.21"/>
    </clipPath>
    <clipPath id="clippath-5">
      <rect class="cls-10" width="162.81" height="99.21"/>
    </clipPath>
    <clipPath id="clippath-6">
      <rect class="cls-10" width="162.81" height="99.21"/>
    </clipPath>
    <clipPath id="clippath-7">
      <rect class="cls-10" width="162.81" height="99.21"/>
    </clipPath>
    <clipPath id="clippath-8">
      <rect class="cls-10" width="162.81" height="99.21"/>
    </clipPath>
    <clipPath id="clippath-9">
      <rect class="cls-10" width="162.81" height="99.21"/>
    </clipPath>
    <clipPath id="clippath-10">
      <rect class="cls-10" width="162.81" height="99.21"/>
    </clipPath>
    <clipPath id="clippath-11">
      <rect class="cls-10" width="162.81" height="99.21"/>
    </clipPath>
    <clipPath id="clippath-12">
      <rect class="cls-10" width="162.81" height="99.21"/>
    </clipPath>
    <clipPath id="clippath-13">
      <rect class="cls-10" width="162.81" height="99.21"/>
    </clipPath>
    <clipPath id="clippath-14">
      <rect class="cls-10" width="162.81" height="99.21"/>
    </clipPath>
    <clipPath id="clippath-15">
      <rect class="cls-10" width="162.81" height="99.21"/>
    </clipPath>
    <clipPath id="clippath-16">
      <rect class="cls-10" width="162.81" height="99.21"/>
    </clipPath>
    <clipPath id="clippath-17">
      <rect class="cls-10" width="162.81" height="99.21"/>
    </clipPath>
    <clipPath id="clippath-18">
      <rect class="cls-10" width="162.81" height="99.21"/>
    </clipPath>
    <clipPath id="clippath-19">
      <rect class="cls-10" width="162.81" height="99.21"/>
    </clipPath>
    <clipPath id="clippath-20">
      <rect class="cls-10" width="162.81" height="99.21"/>
    </clipPath>
    <clipPath id="clippath-21">
      <rect class="cls-10" width="162.81" height="99.21"/>
    </clipPath>
    <clipPath id="clippath-22">
      <rect class="cls-10" width="162.81" height="99.21"/>
    </clipPath>
    <clipPath id="clippath-23">
      <rect class="cls-10" width="162.81" height="99.21"/>
    </clipPath>
    <clipPath id="clippath-24">
      <rect class="cls-10" width="162.81" height="99.21"/>
    </clipPath>
    <clipPath id="clippath-25">
      <rect class="cls-10" width="162.81" height="99.21"/>
    </clipPath>
    <clipPath id="clippath-26">
      <rect class="cls-10" width="162.81" height="99.21"/>
    </clipPath>
    <clipPath id="clippath-27">
      <rect class="cls-10" width="162.81" height="99.21"/>
    </clipPath>
    <clipPath id="clippath-28">
      <rect class="cls-10" width="162.81" height="99.21"/>
    </clipPath>
  </defs>
  <g id="_图层_1-2" data-name="图层 1">
    <g>
      <g class="cls-39">
        <path class="cls-9" d="M59.57,78.48c.29.95.45,1.96.45,3.01,0,5.65-4.58,10.24-10.24,10.24s-10.24-4.58-10.24-10.24c0-3.36,1.62-6.34,4.11-8.21"/>
        <path class="cls-9" d="M54.64,74.02c1.54.79,2.95,2.03,4.04,3.42l.03.03c.92,1.14,1.9,1.96,2.5,1.93.19.02.17-.09.17-.09-.6-3.23-2.52-5.99-5.17-7.72"/>
        <path class="cls-9" d="M46.23,77.2c.31-.26.66-.49,1.03-.68"/>
        <path class="cls-9" d="M46.23,77.2l-.03.03,2.83,2.44c.17.17.09.24.09.24l-.96,1.4"/>
        <path class="cls-9" d="M52.81,86.16c.86-.56,1.55-1.35,2-2.3"/>
        <path class="cls-9" d="M44.66,83.64l3-1.94c.2-.13.31-.1.34-.07l1.07,1.23c.11.15-.1.28-.1.28l-3.43,1.75.08.27c1.02,1.15,2.51,1.88,4.17,1.88.13,0,.25,0,.38-.01l.02-.12-.86-3.45c-.07-.26.03-.33.03-.33l1.5-.59c.21-.02.22.18.22.18l.67,3.89.03.06c.36-.14.71-.31,1.03-.52"/>
        <path class="cls-8" d="M48.17,81.27l.06-1.23-2.85-2.5-.21.04s-.24.24-.39.48c-.67.97-1.06,2.15-1.06,3.42,0,.84.2,1.71.51,2.44l.11.06,3.26-1.95c.07-.1.29-.38.29-.38"/>
        <path class="cls-9" d="M44.66,83.62c-.26-.64-.44-1.4-.44-2.14,0-1.12.33-2.16.9-3.03h.15s2.71,2.8,2.71,2.8c.12.11.2.1.19.01"/>
        <line class="cls-9" x1="54.86" y1="83.75" x2="54.81" y2="83.86"/>
        <path class="cls-9" d="M53.12,77.04c1.25.94,2.14,2.42,2.25,4.08"/>
        <path class="cls-8" d="M47.09,76.06c-.47.24-.91.53-1.3.88l-.02.13,2.87,2.66.43.08"/>
        <path class="cls-8" d="M46.56,84.36l-1.45.75-.07.1s-.02,0,.17.24c1.11,1.28,2.75,2.09,4.57,2.09.25,0,.49-.01.73-.04l.04-.09-.88-3.7.4-.12c.09-.02.87-.91.87-.91"/>
        <path class="cls-8" d="M53.37,76.61c1.43,1.05,2.38,2.72,2.46,4.62.04.41,0,.66,0,.66-.04.15-.2.14-.2.14l-3.75-.27c-.09,0-.07.1-.07.1l.03.42c0,.1.12.09.12.09l3.71.22.04.07c-.41,2.09-1.89,3.79-3.85,4.51-.16.08-.55.21-.55.21l-.14.02c-.11-.04-1.03-3.85-1.03-3.85"/>
        <path class="cls-9" d="M53.6,76.14c1.67,1.19,2.75,3.14,2.75,5.35,0,3.63-2.94,6.57-6.57,6.57s-6.57-2.94-6.57-6.57c0-2.57,1.48-4.8,3.63-5.88"/>
        <path class="cls-9" d="M53.76,75.75c1.81,1.26,2.99,3.36,2.99,5.73,0,3.85-3.12,6.98-6.97,6.98s-6.98-3.12-6.98-6.98c0-2.74,1.58-5.11,3.88-6.25"/>
        <path class="cls-9" d="M50,77.03c.68.03-1.83,0-1.83,0,0,0-.64.01-.8-.45-.36-.9-.8-1.96-1.81-2.42-.92-.42-1.42-.75-2.14-.97-.42-.09-1.29-.55-1.29-.55l-.03-.14c2.04-1.51,4.57-2.74,7.96-3.27,1.7-.27,2.82-.21,4.12-.06l.03.08s-1.09,2.26-1.19,2.46-.18.67-.19.75l-2,4.41s-.07.12-.23.15-.59,0-.59,0"/>
        <path class="cls-9" d="M54.58,74.11c2.41,1.58,4.02,4.28,4.02,7.37,0,4.87-3.95,8.82-8.82,8.82s-8.82-3.95-8.82-8.82c0-3.19,1.64-5.96,4.17-7.51"/>
        <path class="cls-9" d="M49.97,85.94h-.18c-1.33,0-2.52-.57-3.33-1.49"/>
        <path class="cls-9" d="M53.79,83.46c-.46.93-1.23,1.67-2.18,2.1"/>
        <path class="cls-9" d="M52.73,78.13c.56.49.98,1.09,1.24,1.8"/>
        <path class="cls-9" d="M47.06,77.95c.75-.58,1.7-.93,2.72-.93.28,0,.64.03.91.09"/>
        <path class="cls-9" d="M45.59,83.03c-.18-.48-.27-1-.27-1.54,0-.81.21-1.57.59-2.22"/>
        <path class="cls-9" d="M48.5,79.17c.38-.21.82-.33,1.28-.33"/>
        <path class="cls-9" d="M48.2,83.6c.28.21.61.37.97.46.1.01.25-.15.23-.26"/>
        <path class="cls-9" d="M52.19,82.57c-.15.33-.33.6-.6.84-.06.05-.37-.01-.44-.3"/>
        <path class="cls-8" d="M44.57,73c1.4-.95,3.33-1.58,5.56-1.93.75-.12,1.81-.18,2.37-.16"/>
        <path class="cls-8" d="M60.31,78.72c-.67-2.53-1.89-4.53-4.12-6.09"/>
        <path class="cls-9" d="M54,69.73s.2.22.29.47"/>
        <path class="cls-9" d="M53.72,70.27s.18.12.22.27"/>
        <path class="cls-9" d="M52.98,73.08c-.08-.09-.33-.17-.33-.17l-.05.07.33.17.05-.08Z"/>
      </g>
      <polyline class="cls-9" points="52.12 74.02 52.79 74.33 51.23 77.21 50.78 76.94"/>
      <polyline class="cls-8" points="47.62 82.03 47.93 82.48 49.09 82.94"/>
      <g class="cls-23">
        <path class="cls-8" d="M47.93,82.48l-3.17,1.92c-.21.08-.08.27-.08.27l.33.52"/>
      </g>
      <line class="cls-8" x1="49.68" y1="83.71" x2="49.39" y2="83.3"/>
      <g class="cls-36">
        <path class="cls-8" d="M51.81,81.77l-.47-.74c-.09-.2.01-.31.01-.31"/>
        <path class="cls-9" d="M50.37,81.45c0,.31-.25.56-.56.56s-.56-.25-.56-.56.25-.56.56-.56.56.25.56.56Z"/>
        <path class="cls-8" d="M50.16,81.45c0,.2-.16.36-.36.36s-.36-.16-.36-.36.16-.36.36-.36.36.16.36.36Z"/>
        <path class="cls-8" d="M51.29,73.74c0,.29-.24.53-.53.53s-.53-.24-.53-.53.24-.52.53-.52.53.24.53.52Z"/>
        <path class="cls-9" d="M51.12,73.74c0,.2-.16.36-.36.36s-.36-.16-.36-.36.16-.36.36-.36.36.16.36.36Z"/>
        <path class="cls-8" d="M50.15,75.85c0,.29-.24.53-.53.53s-.53-.24-.53-.53.24-.52.53-.52.53.24.53.52Z"/>
        <path class="cls-9" d="M49.98,75.85c0,.2-.16.36-.36.36s-.36-.16-.36-.36.16-.36.36-.36.36.16.36.36Z"/>
        <path class="cls-9" d="M53.1,79.84c0,.11-.09.19-.19.19s-.19-.09-.19-.19.09-.19.19-.19.19.09.19.19Z"/>
        <path class="cls-9" d="M49.01,79.6c.17-.07.35-.12.54-.15"/>
        <path class="cls-9" d="M47.79,81.57v-.11c0-.11,0-.22.02-.33"/>
        <path class="cls-9" d="M49.26,83.39c-.15-.04-.29-.1-.43-.17"/>
        <path class="cls-9" d="M51.48,82.57c-.09.14-.2.26-.32.37"/>
        <path class="cls-8" d="M52.19,84.42c.12-.29.13-.56.01-.61-.12-.04-.31.16-.44.45-.12.29-.13.56-.01.61s.31-.16.44-.45Z"/>
        <path class="cls-8" d="M52.88,82.73c-.04.11-.07.25-.07.41,0,.32.1.57.22.56.12,0,.23-.27.23-.58v-.02"/>
        <path class="cls-8" d="M46.38,79.65l-.02.2c0,.32.1.57.22.56.09,0,.17-.14.21-.33"/>
        <path class="cls-8" d="M46.91,84.23c.07.1.28.19.52.22.31.04.58-.03.59-.15.01-.12-.24-.26-.55-.3h-.11"/>
        <path class="cls-8" d="M48.98,85.19c.3-.09.52-.26.47-.38-.04-.12-.32-.14-.62-.05-.3.09-.52.26-.47.38.04.12.32.14.62.05Z"/>
        <path class="cls-8" d="M49.21,78.09c.25-.2.38-.44.3-.53-.08-.09-.35,0-.6.19-.25.2-.38.44-.3.53.08.09.35,0,.6-.19Z"/>
        <path class="cls-8" d="M45.97,81.47c.16.27.38.44.48.37.1-.07.06-.35-.1-.62-.16-.27-.38-.44-.48-.37-.1.07-.06.35.1.62Z"/>
        <path class="cls-8" d="M47.86,78.62c.07-.29.04-.55-.07-.57-.08-.02-.19.08-.28.25"/>
        <polyline class="cls-8" points="48.23 80.18 48.25 80.05 48.62 79.72"/>
        <path class="cls-9" d="M52.82,80.8l1.69-1.25c.24-.14.45-.02.54.08"/>
        <path class="cls-9" d="M54.59,81.03s0-.21-.03-.38c-.04-.18-.45-.56-.53-.55l-.6.76"/>
        <path class="cls-8" d="M54.87,81.09s.15-.4.42-.59"/>
        <path class="cls-9" d="M53.15,82.63l.57.57h.15s.42-.41.45-.54"/>
        <path class="cls-9" d="M52.78,82.61l1.45,1.2c.17.14.56.06.64-.06.21-.33.25-.6.33-1,0-.1-.08-.09-.08-.09l-3.73-.13c-.16-.04-.12-.25-.12-.25l-.09-1.25c-.03-.19.14-.41.45-.39.3.02,3.74.52,3.74.52v-.06"/>
        <path class="cls-9" d="M47.27,80.54s-.04.58.1.78c.14.21.39.16.39.16"/>
        <path class="cls-9" d="M47.65,76.91l2.38-3.66c.34-.45.74-.57,1.11-.66.37-.1,1.67-.2,1.67-.2"/>
        <path class="cls-8" d="M47.5,75.91l2.25-3.47c.34-.45.74-.57,1.11-.66.37-.1,1.67-.2,1.67-.2"/>
        <path class="cls-9" d="M56.94,70.27v.1c-.09.12-.38.16-.45.24l.09.51-.5.15.13.47-.39.62-.29.63s-.02.1-.16.16c-.28.1-.7.78-.7.78,0,0-2.05,3.94-2.47,5.18l-.77,1.52s-.15.1-.21.23c-.06.12-.06.29-.06.29l-.69,1.36c-.12.22-.42.32-.68.21l-1.16-.66c-.15-.14-.14-.46-.05-.65.09-.19,1.7-3.22,1.7-3.22.14-.21.7-1,.72-1.06"/>
        <path class="cls-9" d="M57.27,69.38s.02.19-.02.29c-.05.1-.36.12-.42.2-.06.08.08.27.11.4"/>
        <path class="cls-9" d="M52.47,74.17l.72-1.51c.06-.22.07-.53.08-.67.01-.14.37-.8.37-.8-.02-.1,0-.2,0-.2l.21-.39c.05-.09.4-.11.46-.22.04-.09-.15-.31-.1-.48.05-.16.45-.1.49-.21.03-.1-.16-.3-.1-.51.06-.21.38-.1.44-.23.06-.13-.16-.31-.09-.45.07-.14.44-.16.5-.23.06-.07-.22-.34-.14-.5.08-.16.44-.16.49-.24.05-.08-.16-.32-.12-.44.05-.12.16-.11.16-.11"/>
        <path class="cls-8" d="M54.44,73.83c-.92,1.82-4.12,8.13-4.18,8.25-.1.19-.23.28-.53.17,0,0-.43-.18-.68-.37,0,0-.14-.11-.06-.36l.44-.9,3.91-7.35"/>
      </g>
      <line class="cls-9" x1="50.01" y1="78.62" x2="50.82" y2="76.98"/>
      <g class="cls-30">
        <path class="cls-9" d="M56.91,70.22l.03.07c-.05.09-.6-.1-1.24-.42-.64-.32-1.12-.66-1.07-.75h.01"/>
        <path class="cls-9" d="M56.18,71.68l.04.05c-.03.05-.56-.17-1.2-.49s-1.13-.63-1.11-.68h.01"/>
        <path class="cls-9" d="M55.9,72.29c-.03.05-.55-.18-1.18-.51-.62-.34-1.11-.65-1.08-.7h.01"/>
        <path class="cls-9" d="M55.44,73.11c-.03.05-.53-.17-1.12-.49-.59-.32-1.05-.62-1.03-.67h.01"/>
        <path class="cls-9" d="M56.55,70.55c-.23-.07-.58-.21-.95-.4-.37-.19-.69-.38-.88-.53"/>
        <path class="cls-9" d="M57.25,69.52l.03.07c-.04.09-.58-.1-1.21-.41-.62-.32-1.09-.64-1.05-.73h.01"/>
        <path class="cls-9" d="M56.87,69.83c-.23-.07-.57-.21-.94-.4-.37-.19-.68-.38-.87-.52"/>
        <path class="cls-9" d="M56.78,68.62c-.11-.05-.23-.11-.35-.17-.62-.31-1.09-.64-1.04-.73h.01"/>
        <path class="cls-9" d="M56.92,69c-.18-.07-.4-.17-.62-.28-.37-.19-.68-.38-.87-.52"/>
        <path class="cls-9" d="M56.04,67.34c-.2-.14-.32-.25-.29-.29h.01"/>
        <path class="cls-9" d="M56.34,67.86c-.23-.13-.42-.25-.55-.35"/>
        <path class="cls-9" d="M56.14,71.21c-.23-.07-.58-.21-.95-.4-.37-.19-.69-.38-.88-.53"/>
        <path class="cls-9" d="M56.6,71.01c-.05.09-.6-.1-1.24-.43-.64-.33-1.12-.66-1.07-.75"/>
      </g>
      <line class="cls-9" x1="57.96" y1="72.98" x2="58.78" y2="71.95"/>
      <line class="cls-9" x1="59.05" y1="72.38" x2="58.33" y2="73.29"/>
      <g class="cls-7">
        <path class="cls-8" d="M54.55,79.58c.18.44.3.91.34,1.41"/>
        <path class="cls-8" d="M54.72,82.69c-.11.38-.27.73-.46,1.07"/>
      </g>
      <line class="cls-8" x1="53.45" y1="82.64" x2="53.81" y2="83.2"/>
      <g class="cls-25">
        <path class="cls-9" d="M103.73,82.23c-.04-.37-.06-.8-.07-1.17"/>
        <path class="cls-9" d="M104,83.56v.14c1.25,4.78,5.59,8.31,10.76,8.31,6.13,0,11.1-4.97,11.1-11.1,0-4.29-2.58-7.76-6.01-9.86-.19-.12-1.8-.82-1.8-.82,0,0,4.85,2.14,5.04,2.3.19.16,4.17,6.47,4.17,6.47.76,1.06,2.34,1.63,2.62,1.7.28.07.78.07.78.07l-.02-.51c0-.11-.5-.11-1.51-1.03-.11-.07-.25-.22-.25-.22,0-.04.21.05.21-.05s-.03-1.28-.03-1.28c-.01-.19-.22-.26-.22-.26l-.39-.19-.16-.39.6-.39.25.69.14-.09-2.15-5.65.21-.06-.16-.4-.22.05-.12-.28-.28.04-.55.18"/>
        <path class="cls-9" d="M104.85,82.62c-.06-.37-.09-.71-.11-1.1"/>
        <path class="cls-9" d="M116.09,70.94c4.93.65,8.73,4.86,8.73,9.97,0,5.55-4.5,10.06-10.05,10.06-4.53,0-8.37-3-9.62-7.12"/>
        <path class="cls-9" d="M105.93,75.71c.41-.68.91-1.31,1.49-1.9.24-.24.49-.47.75-.68"/>
        <line class="cls-9" x1="106.66" y1="82.19" x2="106.62" y2="81.93"/>
        <path class="cls-9" d="M115.52,72.73c4.18.38,7.46,3.9,7.46,8.18,0,4.53-3.68,8.21-8.21,8.21-3.32,0-6.18-1.97-7.47-4.8"/>
        <path class="cls-9" d="M115.44,72.73c4.22.34,7.54,3.88,7.54,8.18,0,4.53-3.68,8.21-8.21,8.21-3.31,0-6.17-1.96-7.47-4.79"/>
        <path class="cls-9" d="M108.71,75.37c.97-1.06,2.21-1.86,3.61-2.3"/>
        <path class="cls-8" d="M109.16,75.86c.9-1,2.07-1.76,3.39-2.16"/>
        <path class="cls-8" d="M115.71,73.42c3.72.46,6.6,3.64,6.6,7.49,0,4.17-3.38,7.55-7.55,7.55-2.79,0-5.27-1.61-6.58-3.85"/>
        <path class="cls-8" d="M115.86,73.97c3.31.55,5.83,3.42,5.83,6.89,0,3.86-3.12,6.98-6.98,6.98-1.68,0-3.23-.6-4.43-1.59"/>
        <path class="cls-8" d="M109.78,75.92c.8-.8,1.79-1.4,2.9-1.74"/>
        <path class="cls-9" d="M108.98,83.37c-.07-.16-.11-.28-.17-.45"/>
        <path class="cls-9" d="M116.02,74.74c2.81.61,4.91,3.11,4.91,6.1,0,3.45-2.79,6.24-6.24,6.24-1.5,0-2.88-.53-3.96-1.42"/>
        <path class="cls-9" d="M126.75,72.2c0,.81-.66,1.47-1.47,1.47s-1.46-.66-1.46-1.47.66-1.46,1.46-1.46,1.47.66,1.47,1.46Z"/>
        <path class="cls-9" d="M100.65,82.27c0,.24-.2.44-.44.44s-.44-.2-.44-.44.2-.44.44-.44.44.2.44.44Z"/>
        <path class="cls-8" d="M100.45,82.25c0,.13-.11.24-.24.24s-.24-.11-.24-.24.11-.24.24-.24.24.11.24.24Z"/>
        <path class="cls-8" d="M126.58,72.2c0,.72-.58,1.3-1.3,1.3s-1.3-.58-1.3-1.3.58-1.3,1.3-1.3,1.3.58,1.3,1.3Z"/>
        <path class="cls-8" d="M109.92,85.88c0,.09-.07.17-.17.17s-.17-.07-.17-.17.07-.16.17-.16.17.07.17.16Z"/>
        <path class="cls-8" d="M111.15,84.57c-.05.37-.14.66-.2.65-.06,0-.07-.31-.02-.68.05-.37.14-.66.2-.65.06,0,.07.31.02.68Z"/>
        <path class="cls-9" d="M107.81,76.07c-.1.17-.13.36-.2.44l-.23-.06c-.09-.08-.09-.39.17-.87l.04-.19.09-.03.07-.09.05-.15.13-.05.07-.08.08-.16.15-.04.09-.06.1-.13h.18c.19-.1.34-.14.4-.14.11,0,.18.08.12.22-.1.24-.36.4-.47.48"/>
        <path class="cls-9" d="M107.81,76.17s-.02-.2,0-.32c.03-.12.36-.67.58-.8.23-.13.27-.06.25-.01"/>
        <path class="cls-9" d="M108.66,75.04l.11,8.47s-.01.25-.11.42c-.34.64-.99.41-1.13.22-.08-.12.04-.32.04-.32.06-.1.25.01.31-.3.06-.31-.07-7.37-.07-7.37"/>
        <path class="cls-9" d="M107.89,80.73l-.58-.03c-.15-.01-.16.13-.16.13,0,0-.31,1.45-1.04,2.11-.1.1-.09.4.01.46.1.06,1.24.44,1.5.37"/>
        <path class="cls-9" d="M110.98,85.23l-.73.97c-.24.26-.7.27-.81.06-.11-.21-.64-1.53-.64-1.53l-.66-.16-.06-.19.05.2,2.85.65"/>
      </g>
      <line class="cls-9" x1="108.78" y1="83.34" x2="111.13" y2="83.89"/>
      <g class="cls-2">
        <path class="cls-9" d="M103.49,82.28l-.66-.31v-.99s-.05-.03-.05-.03l-.04-.62s.4.62.91.7"/>
      </g>
      <line class="cls-9" x1="106.11" y1="82.94" x2="104.33" y2="82.52"/>
      <g class="cls-3">
        <path class="cls-9" d="M108.75,76.04l8.87.74c1.04.06,1.63.71,1.65,1.67.02.96-.02,2.51-.29,3.17-.27.67-.92,1.23-2.17,1.17-.8-.04-5.04-.44-8-.72"/>
        <path class="cls-9" d="M106.79,81.87c-.58-.06-.93-.09-.93-.09-1.04-.1-2.54-.9-2.71-1.13-.2-.3-.36-.94-.36-.94-.04-.52.49-1.04.49-1.04l2.63-2.8c.1-.1.26-.06.26-.06l1.13.09"/>
        <path class="cls-8" d="M107.07,81.02c-.16-.01-.34-.04-.34-.04-.87-.07-3.79-1.13-3.93-1.28"/>
        <path class="cls-8" d="M108.7,76.88l8.38.8c.87.04,1.16.41,1.17,1.06.02.65-.06,1.67-.24,2.14-.18.46-.37.94-1.61.86-.71-.04-4.99-.39-7.61-.6"/>
        <path class="cls-9" d="M108.75,77.41l8.16.67c.65.03.87.31.89.8.01.49-.12,1.24-.18,1.62-.05.26-.09.69-1.02.63-.54-.03-5.85-.48-7.82-.64"/>
        <polyline class="cls-8" points="105.25 76.61 105.47 76.57 107.83 76.8"/>
        <path class="cls-9" d="M107.81,80.4s-1.39-.16-2.12-.32c-.92-.19-2.73-.97-2.73-.97"/>
        <path class="cls-9" d="M104.91,76.95s.6.16,2.94.34"/>
        <path class="cls-9" d="M112.84,75.45s-.12.02-.21.14c-.09.12-.27.57-.43.57s-1.54-.08-1.54-.08c.63-.54,1.37-.95,2.18-1.2"/>
        <path class="cls-9" d="M116.35,75.6s.15.06.13.19c-.01.13-.01.82.71.96"/>
        <path class="cls-9" d="M113.11,75.4c.02.1.72.04,1.56-.15.53-.11.99-.25,1.25-.36"/>
        <path class="cls-8" d="M125.98,73.6s2.06,4.97,2.96,5.83c.76.73,1.47.8,1.47.8"/>
        <polygon class="cls-9" points="126.72 72.62 127.99 76.03 128.72 76.01 127.33 72.32 127.19 72.35 127.09 72.38 126.72 72.62"/>
      </g>
      <line class="cls-9" x1="126.62" y1="70.78" x2="127.12" y2="72.28"/>
      <g class="cls-27">
        <path class="cls-9" d="M128.46,77.26l-.19.11c.02.09.41,1.4.63,1.61"/>
        <polyline class="cls-8" points="128.39 77.57 128.92 77.64 128.96 77.71 129.04 78.99"/>
      </g>
      <line class="cls-8" x1="121.96" y1="69.11" x2="124.28" y2="70.91"/>
      <g class="cls-16">
        <path class="cls-9" d="M123.79,68.35s.34.29.89.38c.43.07,3.32.52,3.32.52.15.04.2.18.2.18l.3.55c.04.13-.13.13-.13.13l-2.39.31c-.2.11,0,.45,0,.45l-.36-.12-1.88-2.42.06.02Z"/>
      </g>
      <line class="cls-8" x1="128.05" y1="76.14" x2="128.28" y2="76.74"/>
      <g class="cls-17">
        <path class="cls-9" d="M115.39,73.41h.19s.03,0,.03,0l.1.05c.02.1-.64.33-1.48.52-.84.18-1.56.27-1.55.16.01-.16.16.61.16.61l.28.67c-.17,0-.28.02-.28.04,0,.05.78.12,1.75.16.97.04,1.76.04,1.76-.01,0-.02-.12-.04-.32-.06-.02-.1,0-.22,0-.22l-.23-1.42-.09-.43"/>
        <path class="cls-9" d="M104.99,83.2c.12,0,2.11.51,2.11.51"/>
        <path class="cls-9" d="M106.05,83.33s-.91-.26-1.06-.27"/>
      </g>
      <line class="cls-9" x1="103.86" y1="83.08" x2="103.73" y2="83.65"/>
      <g class="cls-21">
        <path class="cls-8" d="M71.04,45.9c.02.2-.01.33-.08.29-.05-.03-1.57-.8-3.43-1.9-1.86-1.1-3.35-2.04-3.32-2.09.02-.03-.02-.08.67.01"/>
        <path class="cls-9" d="M64.22,42.2s-3.75,3.8-7.36,8.86c-1.22,1.65-2.41,3.36-2.41,3.43l.07.1,3.67.1c.23.01.18.22.15.33-.04.11-.2.74-.2.74-.17.39-.48.39-.48.39-.37.09-.99.31-.99.31-.26.16-.41.26-.52.65-.11.39-.72,3.17-.72,3.17-.13.58-.85.8-1.22.85-.37.05-1.7-.04-1.7-.04-.11.05-.11.2-.11.2l-.02,1.14c-.01.4.18.76.24.81-.27,0-.21.38-.11.43.1.05.66.07.93.26.64.44,2.35,3.06,2.35,3.06l9.68,16.09c.45.9.56.93.69.93s30.38-.32,30.38-.32c.58,0,1.65-1.25,1.83-1.7.19-.45.58-1.38,1.22-1.46.64-.08.98.05,1.27-.03.29-.08.4-.85.4-.85,0,0,.64.03.85-.19.21-.21,4.28-4.49,4.49-4.78.21-.29.77-1.49.77-1.49,0,0,3.11-.26,6-1.49,1.94-.77,10.15-3.37,10.15-3.37.59-.13.61-.32.69-.45.08-.13.08-1.22.08-1.22-.21-.32-.4-.69-.45-1.04-.05-.35-.24-1.22-.24-1.22l.11-.08-1.06-3.85-.74-3.03c-.05-.35-.29-.35-.29-.35l-2.04-.48s-1.04-.22-1.31-.19c-.13,0,0-.31,0-.31.16,0,.68-.03.74-.16.06-.13-.01-.7-.01-.7"/>
        <path class="cls-9" d="M54.38,54.75s3.51.06,3.69.07c0,0,.1.02.1.16,0,0-.1.37-.23.71-.14.34-.63.32-.81.34-.18.02-.85.09-1.14.76,0,0-.61,2.54-.74,3.08-.12.54-.31,1.03-.99,1.03h-1.64s-.09.02-.09-.09c0,0,.32-1.73.45-2.42.49-2.49,1.25-3.59,1.25-3.59-.03.03.05-.07.15-.07Z"/>
        <path class="cls-9" d="M118.42,53.47s-.56-1.59-1.2-1.6c-.64-.01-6,.36-11.56,1.15-1.26.41-2.91,1.1-5.98,1.36s-9.6-.02-11.6-.4c-1.24-.05-1.89.68-2.17,1.84-.92,3.32-.42,5.07-.29,5.31.11.1.41-.02.41-.02.18-.07.75-.33.85-.29.1.04-.3,1.15-.17,1.21.13.06.38.28.12.33-.25.05-.3.04-.29.19.01.16.34,2.02.34,2.02-.16-.02-.36-.06-.34.06.02.12.17.13.17.23s.05.13.12.07l.14.04,1.02,6.34c.15.81-.29,2.11-1.84,2.2-1.55.1-15.72,1.33-15.72,1.33-1.03.02-1.13-.45-1.17-1.38-.05-.93-1.09-5.98-1.09-5.98-.08-.22-.27-.33-.27-.33l-1.48-6.65c-.07-.71.07-1.89.07-1.89v-.19s1.67-4.47,1.67-4.47h-.17s.45-1.17.45-1.17c.07-.11.24-.12.24-.12.18-.05.28,0,.39-.12.11-.12.98-2.57.98-2.57.07-.22-.04-.33-.17-.31.02-.17.07-.33-.1-.39-.1-.04-.01-.23-.01-.23,0,0,.54-1.54.64-1.79.1-.25.32-.56.41-.66.08-.1.18-.39.18-.39"/>
        <path class="cls-9" d="M118.23,56.22s.62.06.88-.07c.26-.14.8-.44.72-.98"/>
        <path class="cls-9" d="M119.62,56.63s.93-.65,1.37-1.29c.44-.64.87-5.49.87-5.49"/>
      </g>
      <line class="cls-9" x1="121.03" y1="49.89" x2="120.43" y2="53.27"/>
      <g class="cls-32">
        <path class="cls-9" d="M120.72,49.84h1.35c.26-.02.3-.25.3-.25l.57-6.3c0-.19-.02-.15-.14-.23h-.28s-.68-.44-1.48-.16c-.8.28-1.51,1.17-1.8,3.42-.24,1.93.32,3.4,1.49,3.52Z"/>
        <path class="cls-9" d="M122.06,49.84s.3-.14.02-.21c-.28-.07-1.33,0-1.91-.65-.68-1.06-.54-4,.39-4.95.73-.75,1.4-.84,2.34-.86"/>
        <path class="cls-9" d="M107.66,57.58v-.21s.08,0,.08,0c0,0,.02,1.02.34,1.02s2.83-.14,2.91-.32c.1-.15-.02-1.04-.02-1.04h-.12s.03.88.03.88"/>
        <path class="cls-9" d="M110.97,57.93s-.36.16-.36-.03c0-.29-.13-1.43.92-1.69,1.06-.26,9.36-1.18,9.36-1.18.2-.03.24-.26.24-.26,0,0,.2-1.27.15-1.46-.03-.11-.32-.08-.32-.08,0,0-5.01.57-8.31.89-1.77.15-3.96.03-4.23,1.7-.28,1.3-.42,2.17-.29,2.5"/>
      </g>
      <line class="cls-9" x1="111.02" y1="57.27" x2="118.19" y2="56.42"/>
      <g class="cls-37">
        <path class="cls-8" d="M107.66,57.6s-11.28,1.26-14.12,1.94c-2.84.68-4.41,1.12-5.13,1.53-.68.26-.37,1.46-.37,1.46l1.07,8.55c.15,1.62-.81,2.09-2.22,2.32"/>
        <path class="cls-9" d="M86.89,60.81s6.88-1.75,9.86-1.85"/>
      </g>
      <line class="cls-9" x1="87.33" y1="60.72" x2="87.33" y2="61.16"/>
      <g class="cls-33">
        <path class="cls-8" d="M96.47,59.01s-4.01.33-9.34,2.29c-.21.13-.2.87-.2.87"/>
        <path class="cls-9" d="M87.04,61.39s1.51-.13,3.44-.53c1.48-.23,1.93-.43,1.93-.43.18-.08.15.25.15.25l2.16,11.73c.43.78.83,1.26,1.31,1.26s3.17-.05,3.17-.05"/>
        <path class="cls-9" d="M92.66,61.09s0-.45.25-.53c.25-.08,3.42-.55,3.42-.55.4-.05.53.1.55.33.03.23,2.44,13.31,2.44,13.31,0,0,7.22-.39,8.07-.44"/>
        <path class="cls-9" d="M88.54,60.99s14.22-2.16,23.18-2.86c8.97-.7,9.92-.7,10.05-.93"/>
        <path class="cls-8" d="M117.15,58s.35.7.85.8c.5.1,2.24.38,2.24.38.53.08.58.68.58.68l1.76,6.76c.23.83-.4,1.36-.85,1.53-.45.18-11.55,3.72-11.55,3.72-1.23.48-2.49.5-2.49.5,0,0-8.44.5-8.54.28"/>
        <path class="cls-9" d="M96.78,60.06s18.91-2.06,21.02-2.13c1.51-.13,3.21-.28,3.34-.18.13.1,2.24,8.16,2.24,8.16.1.33-.05.43-.05.43l-.63.33"/>
        <path class="cls-9" d="M121.15,57.75l-.18.28c-.12.2-.02.48-.02.48l2.06,7.58c.07.28.4.1.4.1"/>
      </g>
      <line class="cls-9" x1="123" y1="66.21" x2="122.58" y2="66.61"/>
      <g class="cls-5">
        <path class="cls-9" d="M120.84,58.17s-10.12.18-23.91,2.29"/>
        <polygon class="cls-8" points="97.74 71.22 97.66 71.15 95.86 60.77 95.92 60.67 96.01 60.74 97.82 71.12 97.76 71.22 97.74 71.22"/>
        <polygon class="cls-8" points="96.66 71.43 96.58 71.36 94.77 60.97 94.84 60.88 94.93 60.95 96.74 71.33 96.67 71.42 96.66 71.43"/>
        <polygon class="cls-8" points="95.62 71.61 95.55 71.55 93.74 61.16 93.8 61.07 93.9 61.14 95.7 71.52 95.64 71.61 95.62 71.61"/>
        <path class="cls-9" d="M102.59,79s-.25.84.07,1.29l-1.48-.15"/>
        <path class="cls-9" d="M101.57,80.79l.06-.61s.07.12.59.16c.52.04.46-.02.46-.02"/>
        <path class="cls-9" d="M102.76,80.86c-.36.2-1.19-.06-1.19-.06l-.13.07v.47"/>
        <path class="cls-9" d="M102.83,80.98c-.77.14-1.39-.1-1.39-.1"/>
        <path class="cls-9" d="M101.28,81.35l.02-.92c.01-.16.17-.25.17-.25"/>
      </g>
      <polygon class="cls-9" points="98.8 82.34 99.2 82.35 99.32 82.48 99.13 83.43 98.62 83.43 98.8 82.34"/>
      <polygon class="cls-9" points="98.76 83.24 99.02 83.25 99.16 82.49 98.9 82.48 98.76 83.24"/>
      <line class="cls-9" x1="99.02" y1="83.25" x2="99.08" y2="83.4"/>
      <line class="cls-9" x1="98.74" y1="83.26" x2="98.64" y2="83.41"/>
      <line class="cls-9" x1="99.13" y1="82.49" x2="99.32" y2="82.48"/>
      <g class="cls-35">
        <path class="cls-9" d="M97.41,83.24s1.18.35,1.78.34c.59-.01,1.82-.31,1.82-.31.11-.07.42.03.51.02l.19-.09,2.05.46.02-.14,4.32.97"/>
        <path class="cls-9" d="M52.63,63.24s.73.05.96.24c.23.19,1.72,2.01,2.77,3.74,1.05,1.73,8.71,14.65,8.71,14.65.82,1.23,1.88,1.27,2.41,1.28.52.01,8.58-.42,8.58-.42,1.14-.06,1.19-.29,1.67-.64.47-.35.91-.73,1.86-.81.95-.08,3.04-.08,3.6-.26.56-.18,1.59-.53,2.01-.54.42-.01,16.08-.83,16.08-.83"/>
        <path class="cls-9" d="M76.83,82.61s.5-2.2,1.62-2.6c1.11-.4,4.32-.58,4.98-.61.66-.03,1.43,1.17,1.67,1.14"/>
      </g>
      <line class="cls-9" x1="78.42" y1="80.14" x2="78.92" y2="81.25"/>
      <line class="cls-9" x1="83.48" y1="79.51" x2="83.08" y2="80.86"/>
      <line class="cls-9" x1="76.51" y1="82.71" x2="76.48" y2="83.85"/>
      <line class="cls-9" x1="76.71" y1="82.71" x2="76.69" y2="83.85"/>
      <g class="cls-4">
        <path class="cls-9" d="M79.04,81.37l-.04,1.8c.06.08.21.1.3.04.1-.07,2.19.06,2.19.06,0,0,.05-.29.15-.35.1-.06.42,0,.5-.04l.1-.27,4.74.15s.04-.1.03,0c0,.11.04.22.13.21h1.53s.21.09.21.09h.65s.31-.31.31-.31l.31-.05s.25-.44.24-.89c0-.45-.29-.76-.29-.76,0,0,.12.15-.03,0-.15-.14-.12-.12-.3-.12-.18,0-.14,0-.27-.13-.13-.14-1.15-.46-1.15-.46-.35-.02-.49.32-.49.32l-.45.72-.28-.1c-.12-.07-.31.03-.31.03l-.1.21h-4.17s-.37,0-.44-.12c-.07-.12-.06-.21-.06-.21"/>
        <path class="cls-9" d="M79,83.14l.23-.15c.14-.07.32-.04.32-.04l.35.02c.15,0,.15-.35.15-.35l1.27.18v.23s.2.05.2.05"/>
        <polygon class="cls-9" points="81.11 81.36 80.94 81.48 80.78 81.36 80.94 81.24 81.11 81.36"/>
        <path class="cls-9" d="M81.24,81.22l.05.14c0,.15-.16.26-.35.26s-.35-.12-.35-.26l.03-.1"/>
        <path class="cls-9" d="M81.43,81.19l.09.23c0,.24-.26.44-.58.44s-.58-.19-.58-.44l.05-.17"/>
        <path class="cls-9" d="M81.73,81.17c.09.11.14.24.14.37,0,.39-.42.7-.93.7s-.93-.31-.93-.7c0-.1.03-.19.07-.27"/>
      </g>
      <polyline class="cls-9" points="82.07 81.29 82.02 82.4 79.98 82.32 80 81.57"/>
      <g class="cls-6">
        <path class="cls-9" d="M86.86,81.65s0-.14.14-.05c.13.09.11.27.28.28.18.02.71.06.71.06"/>
        <path class="cls-9" d="M87.24,81.34s.02.17.18.2c.17.03.5,0,.5,0l.15-.47s.06-.2.3-.22c.24-.03.93.35.93.35.12.05.29.12.37.24.03.03.1.09,0,.59-.1.5-.19.57-.45.65"/>
        <path class="cls-9" d="M89.53,83.02s.07,0,.25-.3c.04-.07.09-.15.14-.24.29-.54.05-1.26.05-1.26,0,0,.29.26.23.75-.07.49-.16.65-.38.74"/>
      </g>
      <line class="cls-9" x1="88.12" y1="81.51" x2="88.06" y2="81.95"/>
      <line class="cls-9" x1="87.01" y1="81.67" x2="87.02" y2="82.75"/>
      <line class="cls-9" x1="87.19" y1="81.84" x2="87.19" y2="82.95"/>
      <g class="cls-34">
        <path class="cls-9" d="M88.1,81.94s.2.04.33-.02"/>
        <path class="cls-9" d="M88.11,81.6s.31,0,.41-.04"/>
        <path class="cls-9" d="M88.57,81.46l-.04.97c0,.08.41.2.61.1.2-.1.35-.65.35-.65l-.93.57"/>
        <path class="cls-9" d="M88.1,81.43s.87,0,.96-.08c.1-.08.1-.28-.18-.28h-.57l-.22.35Z"/>
        <path class="cls-9" d="M83.24,81.06l2.19.23c.32.04.3.16.3.16"/>
        <path class="cls-9" d="M85.67,82.76s.09.4-.09.39c-.19-.01-3.08-.47-3.08-.47"/>
        <path class="cls-9" d="M85.42,82.77s.12.32-.05.31"/>
        <path class="cls-9" d="M85.14,82.76s.09.3-.05.3"/>
        <path class="cls-9" d="M84.87,82.73s.13.31,0,.3"/>
        <line class="cls-9" x1="84.65" y1="82.68" x2="84.62" y2="82.98"/>
        <line class="cls-9" x1="84.39" y1="82.68" x2="84.36" y2="82.95"/>
        <line class="cls-9" x1="84.12" y1="82.67" x2="84.12" y2="82.92"/>
        <line class="cls-9" x1="83.93" y1="82.69" x2="83.91" y2="82.87"/>
        <line class="cls-9" x1="83.67" y1="82.66" x2="83.66" y2="82.85"/>
        <path class="cls-8" d="M108.73,58.33s.06-.17.35-.21c.28-.04.26.06.26.06.07.03.09-.11.51-.21.42-.1.37.07.46.07s.07-.1.28-.14"/>
        <path class="cls-9" d="M88.99,74.09v.57s.32-.11.77-.1c.46.01,4.71-.24,4.71-.24.26,0,.18-.14.18-.14l-.26-.64-.14-.08-.65.04c-.1,0-.14.12-.14.12,0,0,.06.21-.36.22-.41.01-3.88.19-3.88.19-.17,0-.23.04-.23.04Z"/>
      </g>
      <line class="cls-9" x1="89.38" y1="74.6" x2="89.38" y2="74.86"/>
      <line class="cls-9" x1="90.41" y1="74.57" x2="90.41" y2="74.82"/>
      <line class="cls-9" x1="89.5" y1="73.79" x2="89.5" y2="74.02"/>
      <line class="cls-9" x1="90.39" y1="73.76" x2="90.39" y2="73.92"/>
      <g class="cls-26">
        <path class="cls-9" d="M93.9,74.65l.02-.11,1.44-.09-.04-.78c0-.18-.14-.36-.72-.34-.58.02-5.61.47-5.61.47-.34.12-.29.32-.29.32l.04.81"/>
        <path class="cls-9" d="M94.39,73.55s.32-.06.59-.02c.28.04.25.31.25.31l.03.59"/>
        <path class="cls-9" d="M94.48,73.69s.33-.05.43.03c.1.08.07.58.07.58h-.32"/>
        <path class="cls-9" d="M86.41,73.49s8.31-.56,8.84-.27"/>
        <path class="cls-8" d="M66.88,43.9s.5.45.06,1.28c-.45.83-5.94,14.67-5.94,14.67-.28,2.23,1.71,5.64,1.71,5.64l4.84,9.07c.82,1.15,1.39.95,1.39.95l17.94-.95"/>
        <path class="cls-9" d="M87.32,73.6s.07,1.27-.74,1.31c-.8.03-.63.23-.63.23l9.16-.54c.48,0,.54.54.54.54"/>
        <path class="cls-9" d="M96.03,73.67s.29,2.33-.62,2.22l-.07-.45s.02-.3-.32-.27c0,0-4.95.32-6.09.36s-1.36.59-1.36.59c-.49.35-.63-.36-.35-.79"/>
        <path class="cls-9" d="M64.18,42.26s.5.47.86.76c.36.29,1.63,1.01,1.63,1.01.32.21.23.49.23.49-.13.43-.34.81-.34.81l-5.7,13.02c-.81,2.14-.18,4.14.36,5.43.54,1.29,5.8,11.06,5.8,11.06,1.03,1.5,2.83,1.09,4.06,1.08,1.23-.01,14.8-.86,14.8-.86"/>
        <path class="cls-8" d="M67.22,44.71s.86.5,1.26.95c.41.45.05,1.22.05,1.22l-6.94,16.01"/>
        <path class="cls-8" d="M65.92,53.96l2.94-6.75c.5-.94.86-.82,1.24-.78.38.04.63.14.63.14"/>
        <path class="cls-9" d="M68.1,53.98l-2.12-.1-1.39,3.55c-.19.69.17.88.42.92.25.04,1.47.11,1.47.11"/>
        <path class="cls-9" d="M66.17,53.91l-1.45,3.64c-.17.34.13.8.29.8"/>
        <path class="cls-8" d="M69.89,49.66s-.12.08-.19.23c-.07.16-.85,2.27-.85,2.27-.1.32-.08.46-.08.46"/>
        <path class="cls-8" d="M69.72,49.18s-1.11,2.9-1.17,3.06c-.08.24-.1.42-.04.48"/>
        <path class="cls-8" d="M70.09,49.85s-.09-.13-.17.05c-.07.19-.86,2.31-.86,2.31-.08.26.05.21.05.21"/>
        <path class="cls-9" d="M96.06,74.42l1.73-.08c.2,0,.17.13.17.13,0,0,.27,2.3.25,2.78-.02.48-.03.93-.65,1.3-.62.37-1.9,1.35-1.9,1.35"/>
        <path class="cls-9" d="M106.68,74.5l-6.54.37c-.25.04-.2.28-.2.28,0,.2.18.19.33.19s5.93-.28,5.93-.28"/>
        <path class="cls-9" d="M105.58,75.75l-5.17.29c-.33.03-.3.29-.3.29-.03.2.16.24.38.23.22-.02,4.51-.21,4.51-.21"/>
        <path class="cls-9" d="M89.98,80.92s-.03-.66.13-.56c.16.11.16.89.16.89"/>
        <path class="cls-9" d="M90.35,82.29s.13,1.39-.07,1.43c-.2.04-.16-.48-.19-.66-.03-.19-.03-.34-.03-.34"/>
        <path class="cls-8" d="M85.8,60.47s.12-.63,4.42-1.39c4.3-.76,8.93-1.39,11.19-2.54,2.26-1.15,3.37-2.8,5.64-3.06,2.26-.26,8.78-.82,9.44-1.01.61-.17.64-.36.64-.36"/>
        <path class="cls-8" d="M75.3,41.74c0,.21-.17.38-.38.38s-.38-.17-.38-.38.17-.38.38-.38.38.17.38.38Z"/>
        <path class="cls-8" d="M69.69,42.09c0,.22-.18.39-.39.39s-.39-.18-.39-.39.18-.39.39-.39.39.18.39.39Z"/>
        <path class="cls-8" d="M69.6,42.09c0,.16-.13.29-.29.29s-.29-.13-.29-.29.13-.29.29-.29.29.13.29.29Z"/>
        <rect class="cls-8" x="66.36" y="39.87" width=".16" height=".16" transform="translate(-8.79 58.68) rotate(-45)"/>
        <path class="cls-9" d="M75.71,41.66c.04.45-.3.84-.74.88-.45.04-.84-.3-.88-.74-.04-.45.3-.84.74-.88.45-.04.84.29.88.74Z"/>
        <path class="cls-9" d="M71.52,41.27c-.46-.22-.85-.71-.89-1.25-.07-.81.54-1.53,1.35-1.59.58-.05,1.02.22,1.39.67"/>
        <path class="cls-9" d="M70.83,38.13s-.18.05-.38.01c-.2-.04-.36-.11-.35-.15"/>
        <path class="cls-9" d="M70.31,37.96c-.12,0-.21,0-.22.04l-.5,1.53c-.01.07.22.17.52.23.2.04.38.05.48.03l.04-.09.09-.38.11-1.17s-.03-.06-.14-.1"/>
        <path class="cls-9" d="M68.18,38.01c-.04.21-.14.37-.22.35-.08-.01-.12-.2-.08-.41.04-.21.14-.37.22-.35.08.02.11.2.08.41Z"/>
        <path class="cls-9" d="M71.41,39.14c-.09.15-.22.24-.28.21-.06-.04-.03-.19.06-.34s.22-.24.28-.21c.06.04.03.19-.06.34Z"/>
        <path class="cls-9" d="M68.31,38.1c-.09.38-.29.66-.44.63-.15-.04-.2-.37-.11-.76.09-.38.29-.66.44-.62.15.04.2.37.11.75Z"/>
        <path class="cls-9" d="M74.39,40.46v-.34c0-.15-.05-.15-.05-.15h-.24"/>
        <path class="cls-9" d="M74.17,39.97c-.22-.61-.83-1.02-1.5-.97-.81.07-1.41.78-1.34,1.58.05.62.47.99.97,1.3.14.09.28.11.28.11l.79.03c.13,0,.1-.13.1-.13"/>
        <path class="cls-8" d="M73.14,41.69h-.09c-.61.06-1.15-.39-1.2-1.01-.05-.61.4-1.15,1.02-1.2.53-.04,1,.29,1.16.78"/>
        <path class="cls-8" d="M73.3,41.79l-.26.05c-.7.06-1.32-.46-1.38-1.17-.06-.7.46-1.32,1.17-1.38.66-.06,1.24.4,1.36,1.04"/>
        <path class="cls-9" d="M73.46,41.86l.92.61c.15.1.44.14.63.07.42-.15.78-.43.74-.88-.03-.3-.22-.55-.47-.67l-1.91-1.13c-.12-.06-.26-.08-.41-.07-.45.04-.78.43-.74.88.02.25.16.47.35.61l.88.58"/>
        <path class="cls-8" d="M74.89,42.58c-.48.04-.9-.32-.94-.8-.04-.48.32-.9.8-.94.18-.02.35.03.5.11"/>
        <path class="cls-9" d="M73.13,34.27c-1.02,1.21-2.01,2.5-2.09,2.71-.1.27-.22.71-.26.95-.02.12-.11.11-.22.11h-.04c-.13-.03-.24-.06-.21-.19,0-.04.16-.68.28-1.03.06-.28,1.35-1.88,2.18-2.87"/>
        <path class="cls-9" d="M67.99,36.82s.05-.08.24-.09c.19,0,2.16.62,2.16.62"/>
        <path class="cls-9" d="M68.93,37.33s.07-.03.19,0c.36.07,1.09.27,1.19.37"/>
        <path class="cls-9" d="M70.83,37.7s0,.22.24.2c.25-.02,1.11.28,1.56.61"/>
        <path class="cls-9" d="M64.86,42.21s.51.23,1.27.66l.16-.58"/>
        <path class="cls-8" d="M71.04,45.86s-1.39-.69-3.11-1.71c-1.72-1.02-3.1-1.89-3.07-1.93"/>
        <path class="cls-9" d="M72.38,41.96l-.2,1.55c-.03.35-.81.84-.81.84-.33.19-.51.03-.6.14-.09.11-.34.61-.34.61-.12.05-.56-.17-.56-.17v.15s1.17.78,1.17.78"/>
        <path class="cls-9" d="M70.83,44.45c-.52-.04-4.65-2.24-4.65-2.24-.11-.11,0-1.34.13-1.52.13-.19,1.43-1.36,1.43-1.36.12-.12.36-.11.36-.11l.08-.32h-.14v-.09s-.4-.2-.4-.2l-.06-.08.43-1.71.94.51-.38,1.7.22.09-.06.53h.99"/>
        <path class="cls-9" d="M66.2,42.87s1.31,1.06,3.67,2.05"/>
      </g>
      <line class="cls-9" x1="67.66" y1="39.37" x2="66.79" y2="39.07"/>
      <line class="cls-9" x1="67.5" y1="39.51" x2="66.75" y2="39.24"/>
      <g class="cls-1">
        <path class="cls-9" d="M67.94,37.01l-2.35,4.12c-.29.42-1.01.76-1.12.13,0,0-.1-.86-.08-1.17.02-.31.45-1.38.45-1.38,0,0,1.21-2.69,2.51-4.34.17-.17.32-.13.38-.08.06.05.49.38.54.96.06.67-.21,1.48-.21,1.48"/>
        <path class="cls-8" d="M64.48,41.26s.28.34.73-.14c.46-.48,2.73-4.81,2.73-4.81.32-.96-.19-1.98-.44-1.99"/>
      </g>
      <line class="cls-9" x1="65.71" y1="40.96" x2="66.15" y2="41.26"/>
      <g class="cls-14">
        <path class="cls-8" d="M68.09,39.22s.11-.25.22-.24c.11.01.1.18.1.18,0,0-.33.19-.18.42.15.23.29.29.32.51l.02.21v.58c.01.13.31.26.31.26l.6.24c.14.04.09.13.09.13l-.1.23"/>
        <path class="cls-8" d="M69.92,40.31c.28-.02.43.15.43.23l.09.98c0,.18-.23.38-.23.38l-.56.49c-.22.15-.29.11-.29.11"/>
        <path class="cls-8" d="M68.58,40.3s.52.25,1.1.08c.58-.18.58-.29.58-.29l.08.11v.27"/>
        <path class="cls-8" d="M68.56,40.13s.83.18,1.39-.13c.1-.01.31.08.31.08"/>
      </g>
      <line class="cls-9" x1="70.42" y1="40.93" x2="70.74" y2="40.94"/>
      <g class="cls-15">
        <path class="cls-9" d="M70.63,39.94s-.2,1.18.62,1.18"/>
      </g>
      <line class="cls-9" x1="70.36" y1="40.54" x2="70.62" y2="40.54"/>
      <polyline class="cls-9" points="70.34 40.13 70.39 39.93 70.49 40.04 70.47 40.51"/>
      <g class="cls-38">
        <path class="cls-9" d="M70.81,38.08s.35-.13.73-.05"/>
        <path class="cls-8" d="M69.03,37.28l-.65-.37c-.08-.09.51.07.89.18.26.08,1.08.35,1.08.35"/>
        <path class="cls-9" d="M71.47,38.79s.17-.03.31-.02c.22.02.42.06.42.06,0,0-.69.4-1.06,1.02-.14.23-.13-.56-.03-.7"/>
        <path class="cls-9" d="M71.08,39.88s-.14.91.15,1.19"/>
        <path class="cls-9" d="M72.17,38.86s.46-.19,1.01.02"/>
        <path class="cls-8" d="M68.05,39.27s-.23.66-.01.8c.22.14.51.25.51.25"/>
        <path class="cls-8" d="M67.95,40.08l.07,1.07c.01.29.73.99.89,1.13"/>
        <path class="cls-9" d="M73.26,31.08c.16.03,1.23.41,1.23.41.51.28.23,1.18.23,1.18-.29.99-.4,1.25-.86,1.22-.47-.03-1.06-.17-1.23-.26-.18-.1-.12-1.04-.08-1.26.07-.38.29-.93.29-.93.1-.25.26-.38.43-.36Z"/>
        <path class="cls-9" d="M73.12,31.1l1.22-.26c.4-.08.53-.03.69.06.15.08,1.33.74,1.33.74.37.27.25.85.22.97-.03.12-.44,1.67-.66,1.96s-.36.52-.84.52-1.21-.21-1.21-.21c-.44-.11-.38-.88-1.17-1.21"/>
        <path class="cls-9" d="M72.34,34.39s-.3-.33-.38-.55c-.08-.22.16-1.75.16-1.75.08-.38.37-.47.37-.47l.3-.11"/>
        <path class="cls-9" d="M72.75,34.74s.78.81,1.11.94c.31.13.88.28,1.28,0,.4-.27.39-.7.39-.7"/>
        <path class="cls-8" d="M73.08,34.37s.2,1.21,1.34,1.34c.38,0,.84-.05.97-.65"/>
        <path class="cls-8" d="M74.56,30.81l1.49.85c.26.15.27.43.21.76-.06.33-.39,1.74-.62,2.06-.35.66-1.74.44-1.9.32"/>
        <path class="cls-8" d="M68.58,40.84s.45.36,1.24.25"/>
        <path class="cls-8" d="M68.6,40.38s.13.25.81.23c.15,0,.35-.1.56-.13.1-.03.09.04.09.04v.02c-.08.17-.39.91-.54,1.19"/>
        <path class="cls-9" d="M72.78,33.96s-.02.15.33.31"/>
        <line class="cls-9" x1="113.04" y1="71.86" x2="112.96" y2="71.89"/>
        <path class="cls-9" d="M114.81,71.31c-.28.07-.5.13-.65.17,0,0-.44.13-1.12.39"/>
        <path class="cls-9" d="M112.53,72.06c.15-.06.3-.12.43-.17"/>
        <path class="cls-9" d="M115.29,73.42c-.18-.01-.52,0-.76,0"/>
        <line class="cls-9" x1="115.37" y1="73.43" x2="115.29" y2="73.42"/>
        <path class="cls-9" d="M113.38,73.84c.12-.03.26-.05.39-.08"/>
        <path class="cls-9" d="M114.3,73.65c.2-.04.36-.07.44-.09.26-.05.5-.11.5-.11"/>
        <path class="cls-9" d="M114.3,73.65c-.16.03-.35.07-.53.11"/>
        <path class="cls-9" d="M112.99,73.72s.26-.07.73-.15"/>
        <path class="cls-9" d="M114.52,73.43c.36-.07.69-.13.79-.19.18-.09.17-.22-.03-.25-.14-.03-.64-.01-.92,0"/>
        <line class="cls-9" x1="114.26" y1="73.47" x2="114.52" y2="73.43"/>
        <path class="cls-9" d="M114.26,73.47c-.16.03-.32.06-.46.08h-.07"/>
        <path class="cls-9" d="M113.28,73.4c.12-.03.25-.05.38-.08"/>
        <path class="cls-9" d="M113.28,73.4c-.28.06-.52.12-.59.15-.21.08-.12.24.01.26.07.01.41.02.68.03"/>
        <path class="cls-9" d="M114.19,73.22c.22-.04.39-.08.48-.09.26-.05.5-.11.5-.11"/>
        <path class="cls-9" d="M114.19,73.22c-.16.03-.35.07-.53.11"/>
        <path class="cls-9" d="M114.38,72.99c.35-.06.66-.13.76-.18.18-.09.17-.21-.02-.25-.13-.02-.54-.01-.82,0"/>
        <path class="cls-9" d="M112.84,73.28s.27-.07.77-.16"/>
        <path class="cls-9" d="M114.15,73.03c-.18.03-.36.06-.51.09h-.02"/>
        <line class="cls-9" x1="114.15" y1="73.03" x2="114.38" y2="72.99"/>
        <path class="cls-9" d="M114.08,72.77c.19-.04.34-.07.42-.08.26-.05.49-.11.49-.11"/>
        <path class="cls-9" d="M113.1,72.98c-.27.06-.49.11-.56.14-.21.08-.11.24.01.26.08.01.46.02.74.03"/>
        <path class="cls-9" d="M113.1,72.98c.14-.03.3-.06.45-.09"/>
        <path class="cls-9" d="M114.08,72.77c-.16.03-.35.07-.53.11"/>
        <line class="cls-9" x1="114.04" y1="72.6" x2="114.3" y2="72.55"/>
        <path class="cls-9" d="M112.72,72.85s.28-.07.78-.16"/>
        <path class="cls-9" d="M114.3,72.55c.33-.06.63-.12.73-.17.18-.09.17-.22-.02-.25-.13-.02-.58-.01-.86,0"/>
        <path class="cls-9" d="M114.04,72.6c-.18.03-.37.06-.52.09h-.02"/>
        <path class="cls-9" d="M113.02,72.54c-.29.06-.52.12-.6.15-.21.08-.12.24.01.26.07.01.4.02.67.03"/>
        <path class="cls-9" d="M113.02,72.54c.13-.03.28-.06.42-.09"/>
        <path class="cls-9" d="M113.97,72.35c-.16.03-.35.07-.53.11"/>
        <path class="cls-9" d="M114.88,72.16s-.24.06-.5.11c-.07.01-.23.04-.41.08"/>
        <line class="cls-9" x1="114.19" y1="71.69" x2="113.98" y2="71.7"/>
        <line class="cls-9" x1="114.14" y1="72.13" x2="113.93" y2="72.17"/>
        <path class="cls-9" d="M113.39,72.26h.02c.15-.03.33-.06.51-.09"/>
        <path class="cls-9" d="M114.14,72.13c.35-.06.67-.13.78-.18.18-.09.17-.21-.02-.25-.11-.02-.44-.01-.71,0"/>
        <path class="cls-9" d="M113.39,72.26c-.5.09-.77.16-.77.16"/>
        <line class="cls-9" x1="113.03" y1="72.08" x2="113.01" y2="72.09"/>
        <path class="cls-9" d="M113.03,72.08c.45-.09.97-.2,1.19-.24"/>
        <path class="cls-9" d="M113.02,72.54c-.27,0-.62-.02-.69-.03-.13-.02-.22-.17-.01-.26.08-.03.37-.1.7-.17"/>
        <path class="cls-9" d="M114.78,71.72s-.24.06-.5.11h-.06"/>
        <line class="cls-9" x1="114.18" y1="71.66" x2="113.98" y2="71.7"/>
        <path class="cls-9" d="M113.04,71.86c.1-.02.22-.04.36-.07.19-.03.39-.07.58-.1"/>
        <path class="cls-9" d="M114.18,71.66c.25-.05.46-.09.55-.14.14-.07.16-.16.07-.21"/>
        <line class="cls-9" x1="113.03" y1="72.08" x2="113.01" y2="72.08"/>
        <path class="cls-9" d="M113.01,72.08c-.16,0-.34,0-.48-.02"/>
      </g>
      <line class="cls-9" x1="114.19" y1="71.69" x2="114.22" y2="71.84"/>
      <line class="cls-9" x1="114.19" y1="71.69" x2="114.19" y2="71.66"/>
      <line class="cls-9" x1="113.01" y1="72.08" x2="113.01" y2="72.09"/>
      <line class="cls-9" x1="113.01" y1="72.08" x2="112.96" y2="71.89"/>
      <line class="cls-9" x1="113.55" y1="72.88" x2="113.5" y2="72.69"/>
      <line class="cls-9" x1="113.72" y1="73.57" x2="113.77" y2="73.76"/>
      <line class="cls-9" x1="113.39" y1="72.26" x2="113.44" y2="72.45"/>
      <line class="cls-9" x1="113.61" y1="73.12" x2="113.66" y2="73.32"/>
      <line class="cls-9" x1="114.04" y1="72.6" x2="114.08" y2="72.77"/>
      <line class="cls-9" x1="114.26" y1="73.47" x2="114.3" y2="73.65"/>
      <line class="cls-9" x1="113.97" y1="72.35" x2="113.93" y2="72.17"/>
      <line class="cls-9" x1="114.15" y1="73.03" x2="114.19" y2="73.22"/>
      <g class="cls-19">
        <path class="cls-9" d="M113.34,73.84s-.63.09-.64.28"/>
        <path class="cls-9" d="M99.69,81.37c-.01.08-.12.13-.23.11-.12-.02-.2-.1-.18-.18l.04-.22"/>
        <path class="cls-9" d="M104.91,83.08c.02-.1-.08-.21-.23-.23-.14-.02-.27.04-.29.15-.02.1.08.21.22.23.14.02.27-.04.29-.15Z"/>
      </g>
      <line class="cls-9" x1="104.72" y1="83.38" x2="104.66" y2="83.71"/>
      <line class="cls-9" x1="104.41" y1="83.29" x2="104.35" y2="83.63"/>
      <g class="cls-31">
        <path class="cls-11" d="M101.91,81.72l-.02-.13s-.13.11-.19.29c-.07.18-.09.34-.05.36l.1-.08"/>
        <polyline class="cls-11" points="102.02 81.77 102.01 81.64 101.91 81.72 101.85 81.95 101.76 82.16 101.77 82.29 101.87 82.2"/>
        <polyline class="cls-11" points="102.13 81.81 102.12 81.68 102.02 81.77 101.96 82 101.87 82.2 101.88 82.33 101.98 82.25"/>
        <polyline class="cls-11" points="102.25 81.85 102.23 81.73 102.14 81.81 102.07 82.04 101.98 82.25 101.99 82.37 102.09 82.29"/>
        <polyline class="cls-11" points="102.36 81.9 102.34 81.77 102.24 81.85 102.18 82.09 102.09 82.29 102.1 82.42 102.2 82.33"/>
        <polyline class="cls-11" points="102.47 81.94 102.45 81.81 102.36 81.9 102.29 82.13 102.2 82.33 102.21 82.46 102.31 82.38"/>
        <polyline class="cls-11" points="102.58 81.99 102.56 81.86 102.47 81.94 102.41 82.17 102.31 82.38 102.32 82.51 102.42 82.42"/>
        <polyline class="cls-11" points="102.69 82.03 102.67 81.9 102.58 81.99 102.52 82.22 102.42 82.42 102.43 82.55 102.53 82.47"/>
        <polyline class="cls-11" points="102.8 82.07 102.78 81.95 102.69 82.03 102.63 82.26 102.53 82.47 102.55 82.59 102.64 82.51"/>
        <polyline class="cls-11" points="102.91 82.12 102.89 81.99 102.8 82.07 102.74 82.31 102.64 82.51 102.66 82.64 102.75 82.55"/>
        <polyline class="cls-11" points="103.02 82.16 103 82.03 102.91 82.12 102.85 82.35 102.75 82.55 102.77 82.68 102.86 82.6"/>
        <polyline class="cls-11" points="103.13 82.21 103.11 82.08 103.02 82.16 102.96 82.39 102.86 82.6 102.88 82.73 102.97 82.64"/>
        <polyline class="cls-11" points="103.24 82.25 103.22 82.12 103.13 82.21 103.07 82.44 102.97 82.64 102.99 82.77 103.08 82.69"/>
        <polyline class="cls-11" points="103.35 82.29 103.33 82.17 103.24 82.25 103.18 82.48 103.08 82.69 103.1 82.81 103.19 82.73"/>
        <polyline class="cls-11" points="103.46 82.34 103.44 82.21 103.35 82.29 103.29 82.53 103.19 82.73 103.21 82.86 103.3 82.77"/>
        <polyline class="cls-11" points="103.57 82.38 103.55 82.25 103.46 82.34 103.4 82.57 103.3 82.77 103.32 82.9 103.41 82.82"/>
        <polyline class="cls-11" points="103.68 82.43 103.67 82.3 103.57 82.38 103.51 82.61 103.41 82.82 103.43 82.95 103.52 82.86"/>
        <polyline class="cls-11" points="103.79 82.47 103.78 82.34 103.68 82.43 103.62 82.66 103.52 82.86 103.54 82.99 103.63 82.91"/>
        <path class="cls-11" d="M103.89,82.39l-.1.08-.06.23-.1.2.02.13s.13-.11.19-.29c.07-.18.08-.34.04-.36Z"/>
      </g>
      <line class="cls-9" x1="103.8" y1="82.92" x2="104.47" y2="83.19"/>
      <g class="cls-20">
        <path class="cls-9" d="M103.71,83s.26.13.55.25c.29.12.6.14.68-.02,0,0,.15-.16-.09-.34l-.57-.25-.06.12.25.1"/>
      </g>
      <line class="cls-9" x1="99.75" y1="80.71" x2="101.9" y2="81.59"/>
      <line class="cls-9" x1="99.79" y1="80.83" x2="101.79" y2="81.67"/>
      <g class="cls-22">
        <path class="cls-9" d="M99.43,80.67c-.1,0-.27.1-.19.3.08.21.59.39.59.39v-.09s-.02-.05-.02-.05c0,0-.44-.18-.47-.3l.03-.16c.01-.08.12-.13.23-.11.12.02.2.1.18.18l-.04.26"/>
        <path class="cls-9" d="M99.36,80.81s.17.2.41.06"/>
        <path class="cls-9" d="M69.4,51.81l.15.58c.04.11.13.04.13.04l.11-.1c.08-.03.58-.29.69-.91.1-.62-.16-.92-.16-.92l-.08.07c.02.08.25.83-.21,1.27-.26.19-.36.24-.33-.06,0-.33-.02-.75-.02-.75"/>
        <path class="cls-28" d="M162.81,0h-.78l-.12.12.12.12h.78V0ZM161.26,0h-.78l-.12.12.12.12h.78l.12-.12-.12-.12M159.7,0h-.78l-.12.12.12.12h.78l.12-.12-.12-.12M158.14,0h-.78l-.12.12.12.12h.78l.12-.12-.12-.12M156.59,0h-.78l-.12.12.12.12h.78l.12-.12-.12-.12M155.03,0h-.78l-.12.12.12.12h.78l.12-.12-.12-.12M153.48,0h-.78l-.12.12.12.12h.78l.12-.12-.12-.12M151.92,0h-.78l-.12.12.12.12h.78l.12-.12-.12-.12M150.36,0h-.78l-.12.12.12.12h.78l.12-.12-.12-.12M148.81,0h-.78l-.12.12.12.12h.78l.12-.12-.12-.12M147.25,0h-.78l-.12.12.12.12h.78l.12-.12-.12-.12M145.7,0h-.78l-.12.12.12.12h.78l.12-.12-.12-.12M144.14,0h-.78l-.12.12.12.12h.78l.12-.12-.12-.12M142.58,0h-.78l-.12.12.12.12h.78l.12-.12-.12-.12M141.03,0h-.78l-.12.12.12.12h.78l.12-.12-.12-.12M139.47,0h-.78l-.12.12.12.12h.78l.12-.12-.12-.12M137.92,0h-.78l-.12.12.12.12h.78l.12-.12-.12-.12M136.36,0h-.78l-.12.12.12.12h.78l.12-.12-.12-.12M134.8,0h-.78l-.12.12.12.12h.78l.12-.12-.12-.12M133.25,0h-.78l-.12.12.12.12h.78l.12-.12-.12-.12M131.69,0h-.78l-.12.12.12.12h.78l.12-.12-.12-.12M130.14,0h-.78l-.12.12.12.12h.78l.12-.12-.12-.12M128.58,0h-.78l-.12.12.12.12h.78l.12-.12-.12-.12M127.02,0h-.78l-.12.12.12.12h.78l.12-.12L127.02,0M125.47,0h-.78l-.12.12.12.12h.78l.12-.12L125.47,0M123.91,0h-.78l-.12.12.12.12h.78l.12-.12L123.91,0M122.36,0h-.78l-.12.12.12.12h.78l.12-.12L122.36,0M120.8,0h-.78l-.12.12.12.12h.78l.12-.12L120.8,0M119.24,0h-.78l-.12.12.12.12h.78l.12-.12L119.24,0M117.69,0h-.78l-.12.12.12.12h.78l.12-.12L117.69,0M116.13,0h-.78l-.12.12.12.12h.78l.12-.12L116.13,0M114.58,0h-.78l-.12.12.12.12h.78l.12-.12L114.58,0M113.02,0h-.78l-.12.12.12.12h.78l.12-.12L113.02,0M111.46,0h-.78l-.12.12.12.12h.78l.12-.12L111.46,0M109.91,0h-.78l-.12.12.12.12h.78l.12-.12L109.91,0M108.35,0h-.78l-.12.12.12.12h.78l.12-.12L108.35,0M106.8,0h-.78l-.12.12.12.12h.78l.12-.12L106.8,0M105.24,0h-.78l-.12.12.12.12h.78l.12-.12L105.24,0M103.68,0h-.78l-.12.12.12.12h.78l.12-.12L103.68,0M102.13,0h-.78l-.12.12.12.12h.78l.12-.12L102.13,0M100.57,0h-.78l-.12.12.12.12h.78l.12-.12L100.57,0M99.02,0h-.78l-.12.12.12.12h.78l.12-.12L99.02,0M97.46,0h-.78l-.12.12.12.12h.78l.12-.12L97.46,0M95.9,0h-.78l-.12.12.12.12h.78l.12-.12L95.9,0M94.35,0h-.78l-.12.12.12.12h.78l.12-.12L94.35,0M92.79,0h-.78l-.12.12.12.12h.78l.12-.12L92.79,0M91.24,0h-.78l-.12.12.12.12h.78l.12-.12L91.24,0M89.68,0h-.78l-.12.12.12.12h.78l.12-.12L89.68,0M88.12,0h-.78l-.12.12.12.12h.78l.12-.12L88.12,0M86.57,0h-.78l-.12.12.12.12h.78l.12-.12L86.57,0M85.01,0h-.78l-.12.12.12.12h.78l.12-.12L85.01,0M83.46,0h-.78l-.12.12.12.12h.78l.12-.12L83.46,0M81.9,0h-.78l-.12.12.12.12h.78l.12-.12L81.9,0M80.34,0h-.78l-.12.12.12.12h.78l.12-.12L80.34,0M78.79,0h-.78l-.12.12.12.12h.78l.12-.12L78.79,0M77.23,0h-.78l-.12.12.12.12h.78l.12-.12L77.23,0M75.68,0h-.78l-.12.12.12.12h.78l.12-.12L75.68,0M74.12,0h-.78l-.12.12.12.12h.78l.12-.12L74.12,0M72.56,0h-.78l-.12.12.12.12h.78l.12-.12L72.56,0M71.01,0h-.78l-.12.12.12.12h.78l.12-.12L71.01,0M69.45,0h-.78l-.12.12.12.12h.78l.12-.12L69.45,0M67.9,0h-.78l-.12.12.12.12h.78l.12-.12L67.9,0M66.34,0h-.78l-.12.12.12.12h.78l.12-.12L66.34,0M64.78,0h-.78l-.12.12.12.12h.78l.12-.12L64.78,0M63.23,0h-.78l-.12.12.12.12h.78l.12-.12L63.23,0M61.67,0h-.78l-.12.12.12.12h.78l.12-.12L61.67,0M60.12,0h-.78l-.12.12.12.12h.78l.12-.12L60.12,0M58.56,0h-.78l-.12.12.12.12h.78l.12-.12L58.56,0M57,0h-.78l-.12.12.12.12h.78l.12-.12L57,0M55.45,0h-.78l-.12.12.12.12h.78l.12-.12L55.45,0M53.89,0h-.78l-.12.12.12.12h.78l.12-.12L53.89,0M52.34,0h-.78l-.12.12.12.12h.78l.12-.12L52.34,0M50.78,0h-.78l-.12.12.12.12h.78l.12-.12L50.78,0M49.22,0h-.78l-.12.12.12.12h.78l.12-.12L49.22,0M47.67,0h-.78l-.12.12.12.12h.78l.12-.12L47.67,0M46.11,0h-.78l-.12.12.12.12h.78l.12-.12L46.11,0M44.56,0h-.78l-.12.12.12.12h.78l.12-.12L44.56,0M43,0h-.78l-.12.12.12.12h.78l.12-.12L43,0M41.44,0h-.78l-.12.12.12.12h.78l.12-.12L41.44,0M39.89,0h-.78l-.12.12.12.12h.78l.12-.12L39.89,0M38.33,0h-.78l-.12.12.12.12h.78l.12-.12L38.33,0M36.78,0h-.78l-.12.12.12.12h.78l.12-.12L36.78,0M35.22,0h-.78l-.12.12.12.12h.78l.12-.12L35.22,0M33.66,0h-.78l-.12.12.12.12h.78l.12-.12L33.66,0M32.11,0h-.78l-.12.12.12.12h.78l.12-.12L32.11,0M30.55,0h-.78l-.12.12.12.12h.78l.12-.12L30.55,0M29,0h-.78l-.12.12.12.12h.78l.12-.12L29,0M27.44,0h-.78l-.12.12.12.12h.78l.12-.12L27.44,0M25.88,0h-.78l-.12.12.12.12h.78l.12-.12L25.88,0M24.33,0h-.78l-.12.12.12.12h.78l.12-.12L24.33,0M22.77,0h-.78l-.12.12.12.12h.78l.12-.12L22.77,0M21.22,0h-.78l-.12.12.12.12h.78l.12-.12L21.22,0M19.66,0h-.78l-.12.12.12.12h.78l.12-.12L19.66,0M18.1,0h-.78l-.12.12.12.12h.78l.12-.12L18.1,0M16.55,0h-.78l-.12.12.12.12h.78l.12-.12L16.55,0M14.99,0h-.78l-.12.12.12.12h.78l.12-.12L14.99,0M13.44,0h-.78l-.12.12.12.12h.78l.12-.12L13.44,0M11.88,0h-.78l-.12.12.12.12h.78l.12-.12L11.88,0M10.32,0h-.78l-.12.12.12.12h.78l.12-.12L10.32,0M8.77,0h-.78l-.12.12.12.12h.78l.12-.12L8.77,0M7.21,0h-.78l-.12.12.12.12h.78l.12-.12L7.21,0M5.66,0h-.78l-.12.12.12.12h.78l.12-.12L5.66,0M4.1,0h-.78l-.12.12.12.12h.78l.12-.12L4.1,0M2.54,0h-.78l-.12.12.12.12h.78l.12-.12L2.54,0M.99,0H.21L.08.13l.12.12h.78l.12-.12L.99,0M.13.45L0,.57v.78l.12.12.12-.12v-.78l-.12-.12M.13,2L0,2.13v.78l.12.12.12-.12v-.78l-.12-.12M.13,3.56L0,3.68v.78l.12.12.12-.12v-.78l-.12-.12M.13,5.11L0,5.24v.78l.12.12.12-.12v-.78l-.12-.12M.13,6.67L0,6.79v.78l.12.12.12-.12v-.78l-.12-.12M.13,8.23L0,8.35v.78l.12.12.12-.12v-.78l-.12-.12M.13,9.78L0,9.91v.78l.12.12.12-.12v-.78l-.12-.12M.13,11.34L0,11.46v.78l.12.12.12-.12v-.78l-.12-.12M.13,12.89L0,13.02v.78l.12.12.12-.12v-.78l-.12-.12M.13,14.45L0,14.57v.78l.12.12.12-.12v-.78l-.12-.12M.13,16.01L0,16.13v.78l.12.12.12-.12v-.78l-.12-.12M.13,17.56L0,17.69v.78l.12.12.12-.12v-.78l-.12-.12M.13,19.12L0,19.24v.78l.12.12.12-.12v-.78l-.12-.12M.13,20.67L0,20.8v.78l.12.12.12-.12v-.78l-.12-.12M.13,22.23L0,22.35v.78l.12.12.12-.12v-.78l-.12-.12M.13,23.79L0,23.91v.78l.12.12.12-.12v-.78l-.12-.12M.13,25.34L0,25.47v.78l.12.12.12-.12v-.78l-.12-.12M.13,26.9L0,27.02v.78l.12.12.12-.12v-.78l-.12-.12M.13,28.45L0,28.58v.78l.12.12.12-.12v-.78l-.12-.12M.13,30.01L0,30.13v.78l.12.12.12-.12v-.78l-.12-.12M.13,31.57L0,31.69v.78l.12.12.12-.12v-.78l-.12-.12M.13,33.12L0,33.25v.78l.12.12.12-.12v-.78l-.12-.12M.13,34.68L0,34.8v.78l.12.12.12-.12v-.78l-.12-.12M.13,36.23L0,36.36v.78l.12.12.12-.12v-.78l-.12-.12M.13,37.79L0,37.91v.78l.12.12.12-.12v-.78l-.12-.12M.13,39.35L0,39.47v.78l.12.12.12-.12v-.78l-.12-.12M.13,40.9L0,41.03v.78l.12.12.12-.12v-.78l-.12-.12M.13,42.46L0,42.58v.78l.12.12.12-.12v-.78l-.12-.12M.13,44.01L0,44.14v.78l.12.12.12-.12v-.78l-.12-.12M.13,45.57L0,45.69v.78l.12.12.12-.12v-.78l-.12-.12M.13,47.13L0,47.25v.78l.12.12.12-.12v-.78l-.12-.12M.13,48.68L0,48.81v.78l.12.12.12-.12v-.78l-.12-.12M.13,50.24L0,50.36v.78l.12.12.12-.12v-.78l-.12-.12M.13,51.79L0,51.92v.78l.12.12.12-.12v-.78l-.12-.12M.13,53.35L0,53.47v.78l.12.12.12-.12v-.78l-.12-.12M.13,54.91L0,55.03v.78l.12.12.12-.12v-.78l-.12-.12M.13,56.46L0,56.59v.78l.12.12.12-.12v-.78l-.12-.12M.13,58.02L0,58.14v.78l.12.12.12-.12v-.78l-.12-.12M.13,59.57L0,59.7v.78l.12.12.12-.12v-.78l-.12-.12M.13,61.13L0,61.25v.78l.12.12.12-.12v-.78l-.12-.12M.13,62.69L0,62.81v.78l.12.12.12-.12v-.78l-.12-.12M.13,64.24l-.12.12v.78l.12.12.12-.12v-.78l-.12-.12M.13,65.8l-.12.12v.78l.12.12.12-.12v-.78l-.12-.12M.13,67.35l-.12.12v.78l.12.12.12-.12v-.78l-.12-.12M.13,68.91l-.12.12v.78l.12.12.12-.12v-.78l-.12-.12M.13,70.47l-.12.12v.78l.12.12.12-.12v-.78l-.12-.12M.13,72.02l-.12.12v.78l.12.12.12-.12v-.78l-.12-.12M.13,73.58l-.12.12v.78l.12.12.12-.12v-.78l-.12-.12M.13,75.13l-.12.12v.78l.12.12.12-.12v-.78l-.12-.12M.13,76.69l-.12.12v.78l.12.12.12-.12v-.78l-.12-.12M.13,78.25l-.12.12v.78l.12.12.12-.12v-.78l-.12-.12M.13,79.8l-.12.12v.78l.12.12.12-.12v-.78l-.12-.12M.13,81.36l-.12.12v.78l.12.12.12-.12v-.78l-.12-.12M.13,82.91l-.12.12v.78l.12.12.12-.12v-.78l-.12-.12M.13,84.47l-.12.12v.78l.12.12.12-.12v-.78l-.12-.12M.13,86.03l-.12.12v.78l.12.12.12-.12v-.78l-.12-.12M.13,87.58l-.12.12v.78l.12.12.12-.12v-.78l-.12-.12M.13,89.14l-.12.12v.78l.12.12.12-.12v-.78l-.12-.12M.13,90.69l-.12.12v.78l.12.12.12-.12v-.78l-.12-.12M.13,92.25l-.12.12v.78l.12.12.12-.12v-.78l-.12-.12M.13,93.81l-.12.12v.78l.12.12.12-.12v-.78l-.12-.12M.13,95.36l-.12.12v.78l.12.12.12-.12v-.78l-.12-.12M.13,96.92l-.12.12v.78l.12.12.12-.12v-.78l-.12-.12M.13,98.47l-.12.12v.62h.25v-.04l.04-.09-.04-.09v-.4l-.12-.12M1.72,98.96h-.78l-.12.12.12.12h.78l.12-.12-.12-.12M3.28,98.96h-.78l-.12.12.12.12h.78l.12-.12-.12-.12M4.83,98.96h-.78l-.12.12.12.12h.78l.12-.12-.12-.12M6.39,98.96h-.78l-.12.12.12.12h.78l.12-.12-.12-.12M7.94,98.96h-.78l-.12.12.12.12h.78l.12-.12-.12-.12M9.5,98.96h-.78l-.12.12.12.12h.78l.12-.12-.12-.12M11.06,98.96h-.78l-.12.12.12.12h.78l.12-.12-.12-.12M12.61,98.96h-.78l-.12.12.12.12h.78l.12-.12-.12-.12M14.17,98.96h-.78l-.12.12.12.12h.78l.12-.12-.12-.12M15.72,98.96h-.78l-.12.12.12.12h.78l.12-.12-.12-.12M17.28,98.96h-.78l-.12.12.12.12h.78l.12-.12-.12-.12M18.84,98.96h-.78l-.12.12.12.12h.78l.12-.12-.12-.12M20.39,98.96h-.78l-.12.12.12.12h.78l.12-.12-.12-.12M21.95,98.96h-.78l-.12.12.12.12h.78l.12-.12-.12-.12M23.5,98.96h-.78l-.12.12.12.12h.78l.12-.12-.12-.12M25.06,98.96h-.78l-.12.12.12.12h.78l.12-.12-.12-.12M26.62,98.96h-.78l-.12.12.12.12h.78l.12-.12-.12-.12M28.17,98.96h-.78l-.12.12.12.12h.78l.12-.12-.12-.12M29.73,98.96h-.78l-.12.12.12.12h.78l.12-.12-.12-.12M31.28,98.96h-.78l-.12.12.12.12h.78l.12-.12-.12-.12M32.84,98.96h-.78l-.12.12.12.12h.78l.12-.12-.12-.12M34.4,98.96h-.78l-.12.12.12.12h.78l.12-.12-.12-.12M35.95,98.96h-.78l-.12.12.12.12h.78l.12-.12-.12-.12M37.51,98.96h-.78l-.12.12.12.12h.78l.12-.12-.12-.12M39.06,98.96h-.78l-.12.12.12.12h.78l.12-.12-.12-.12M40.62,98.96h-.78l-.12.12.12.12h.78l.12-.12-.12-.12M42.18,98.96h-.78l-.12.12.12.12h.78l.12-.12-.12-.12M43.73,98.96h-.78l-.12.12.12.12h.78l.12-.12-.12-.12M45.29,98.96h-.78l-.12.12.12.12h.78l.12-.12-.12-.12M46.84,98.96h-.78l-.12.12.12.12h.78l.12-.12-.12-.12M48.4,98.96h-.78l-.12.12.12.12h.78l.12-.12-.12-.12M49.96,98.96h-.78l-.12.12.12.12h.78l.12-.12-.12-.12M51.51,98.96h-.78l-.12.12.12.12h.78l.12-.12-.12-.12M53.07,98.96h-.78l-.12.12.12.12h.78l.12-.12-.12-.12M54.62,98.96h-.78l-.12.12.12.12h.78l.12-.12-.12-.12M56.18,98.96h-.78l-.12.12.12.12h.78l.12-.12-.12-.12M57.74,98.96h-.78l-.12.12.12.12h.78l.12-.12-.12-.12M59.29,98.96h-.78l-.12.12.12.12h.78l.12-.12-.12-.12M60.85,98.96h-.78l-.12.12.12.12h.78l.12-.12-.12-.12M62.4,98.96h-.78l-.12.12.12.12h.78l.12-.12-.12-.12M63.96,98.96h-.78l-.12.12.12.12h.78l.12-.12-.12-.12M65.52,98.96h-.78l-.12.12.12.12h.78l.12-.12-.12-.12M67.07,98.96h-.78l-.12.12.12.12h.78l.12-.12-.12-.12M68.63,98.96h-.78l-.12.12.12.12h.78l.12-.12-.12-.12M70.18,98.96h-.78l-.12.12.12.12h.78l.12-.12-.12-.12M71.74,98.96h-.78l-.12.12.12.12h.78l.12-.12-.12-.12M73.3,98.96h-.78l-.12.12.12.12h.78l.12-.12-.12-.12M74.85,98.96h-.78l-.12.12.12.12h.78l.12-.12-.12-.12M76.41,98.96h-.78l-.12.12.12.12h.78l.12-.12-.12-.12M77.96,98.96h-.78l-.12.12.12.12h.78l.12-.12-.12-.12M79.52,98.96h-.78l-.12.12.12.12h.78l.12-.12-.12-.12M81.08,98.96h-.78l-.12.12.12.12h.78l.12-.12-.12-.12M82.63,98.96h-.78l-.12.12.12.12h.78l.12-.12-.12-.12M84.19,98.96h-.78l-.12.12.12.12h.78l.12-.12-.12-.12M85.74,98.96h-.78l-.12.12.12.12h.78l.12-.12-.12-.12M87.3,98.96h-.78l-.12.12.12.12h.78l.12-.12-.12-.12M88.86,98.96h-.78l-.12.12.12.12h.78l.12-.12-.12-.12M90.41,98.96h-.78l-.12.12.12.12h.78l.12-.12-.12-.12M91.97,98.96h-.78l-.12.12.12.12h.78l.12-.12-.12-.12M93.52,98.96h-.78l-.12.12.12.12h.78l.12-.12-.12-.12M95.08,98.96h-.78l-.12.12.12.12h.78l.12-.12-.12-.12M96.64,98.96h-.78l-.12.12.12.12h.78l.12-.12-.12-.12M98.19,98.96h-.78l-.12.12.12.12h.78l.12-.12-.12-.12M99.75,98.96h-.78l-.12.12.12.12h.78l.12-.12-.12-.12M101.3,98.96h-.78l-.12.12.12.12h.78l.12-.12-.12-.12M102.86,98.96h-.78l-.12.12.12.12h.78l.12-.12-.12-.12M104.42,98.96h-.78l-.12.12.12.12h.78l.12-.12-.12-.12M105.97,98.96h-.78l-.12.12.12.12h.78l.12-.12-.12-.12M107.53,98.96h-.78l-.12.12.12.12h.78l.12-.12-.12-.12M109.08,98.96h-.78l-.12.12.12.12h.78l.12-.12-.12-.12M110.64,98.96h-.78l-.12.12.12.12h.78l.12-.12-.12-.12M112.2,98.96h-.78l-.12.12.12.12h.78l.12-.12-.12-.12M113.75,98.96h-.78l-.12.12.12.12h.78l.12-.12-.12-.12M115.31,98.96h-.78l-.12.12.12.12h.78l.12-.12-.12-.12M116.86,98.96h-.78l-.12.12.12.12h.78l.12-.12-.12-.12M118.42,98.96h-.78l-.12.12.12.12h.78l.12-.12-.12-.12M119.98,98.96h-.78l-.12.12.12.12h.78l.12-.12-.12-.12M121.53,98.96h-.78l-.12.12.12.12h.78l.12-.12-.12-.12M123.09,98.96h-.78l-.12.12.12.12h.78l.12-.12-.12-.12M124.64,98.96h-.78l-.12.12.12.12h.78l.12-.12-.12-.12M126.2,98.96h-.78l-.12.12.12.12h.78l.12-.12-.12-.12M127.76,98.96h-.78l-.12.12.12.12h.78l.12-.12-.12-.12M129.31,98.96h-.78l-.12.12.12.12h.78l.12-.12-.12-.12M130.87,98.96h-.78l-.12.12.12.12h.78l.12-.12-.12-.12M132.42,98.96h-.78l-.12.12.12.12h.78l.12-.12-.12-.12M133.98,98.96h-.78l-.12.12.12.12h.78l.12-.12-.12-.12M135.54,98.96h-.78l-.12.12.12.12h.78l.12-.12-.12-.12M137.09,98.96h-.78l-.12.12.12.12h.78l.12-.12-.12-.12M138.65,98.96h-.78l-.12.12.12.12h.78l.12-.12-.12-.12M140.2,98.96h-.78l-.12.12.12.12h.78l.12-.12-.12-.12M141.76,98.96h-.78l-.12.12.12.12h.78l.12-.12-.12-.12M143.32,98.96h-.78l-.12.12.12.12h.78l.12-.12-.12-.12M144.87,98.96h-.78l-.12.12.12.12h.78l.12-.12-.12-.12M146.43,98.96h-.78l-.12.12.12.12h.78l.12-.12-.12-.12M147.98,98.96h-.78l-.12.12.12.12h.78l.12-.12-.12-.12M149.54,98.96h-.78l-.12.12.12.12h.78l.12-.12-.12-.12M151.1,98.96h-.78l-.12.12.12.12h.78l.12-.12-.12-.12M152.65,98.96h-.78l-.12.12.12.12h.78l.12-.12-.12-.12M154.21,98.96h-.78l-.12.12.12.12h.78l.12-.12-.12-.12M155.76,98.96h-.78l-.12.12.12.12h.78l.12-.12-.12-.12M157.32,98.96h-.78l-.12.12.12.12h.78l.12-.12-.12-.12M158.88,98.96h-.78l-.12.12.12.12h.78l.12-.12-.12-.12M160.43,98.96h-.78l-.12.12.12.12h.78l.12-.12-.12-.12M161.99,98.96h-.78l-.12.12.12.12h.78l.12-.12-.12-.12M162.69,98.36l-.12.12v.73h.2-.2.25-.05.05v-.73l-.12-.12M162.69,96.8l-.12.12v.78l.12.12.12-.12v-.78l-.12-.12M162.69,95.24l-.12.12v.78l.12.12.12-.12v-.78l-.12-.12M162.69,93.69l-.12.12v.78l.12.12.12-.12v-.78l-.12-.12M162.69,92.13l-.12.12v.78l.12.12.12-.12v-.78l-.12-.12M162.69,90.58l-.12.12v.78l.12.12.12-.12v-.78l-.12-.12M162.69,89.02l-.12.12v.78l.12.12.12-.12v-.78l-.12-.12M162.69,87.46l-.12.12v.78l.12.12.12-.12v-.78l-.12-.12M162.69,85.91l-.12.12v.78l.12.12.12-.12v-.78l-.12-.12M162.69,84.35l-.12.12v.78l.12.12.12-.12v-.78l-.12-.12M162.69,82.8l-.12.12v.78l.12.12.12-.12v-.78l-.12-.12M162.69,81.24l-.12.12v.78l.12.12.12-.12v-.78l-.12-.12M162.69,79.68l-.12.12v.78l.12.12.12-.12v-.78l-.12-.12M162.69,78.13l-.12.12v.78l.12.12.12-.12v-.78l-.12-.12M162.69,76.57l-.12.12v.78l.12.12.12-.12v-.78l-.12-.12M162.69,75.02l-.12.12v.78l.12.12.12-.12v-.78l-.12-.12M162.69,73.46l-.12.12v.78l.12.12.12-.12v-.78l-.12-.12M162.69,71.9l-.12.12v.78l.12.12.12-.12v-.78l-.12-.12M162.69,70.35l-.12.12v.78l.12.12.12-.12v-.78l-.12-.12M162.69,68.79l-.12.12v.78l.12.12.12-.12v-.78l-.12-.12M162.69,67.24l-.12.12v.78l.12.12.12-.12v-.78l-.12-.12M162.69,65.68l-.12.12v.78l.12.12.12-.12v-.78l-.12-.12M162.69,64.12l-.12.12v.78l.12.12.12-.12v-.78l-.12-.12M162.69,62.57l-.12.12v.78l.12.12.12-.12v-.78l-.12-.12M162.69,61.01l-.12.12v.78l.12.12.12-.12v-.78l-.12-.12M162.69,59.46l-.12.12v.78l.12.12.12-.12v-.78l-.12-.12M162.69,57.9l-.12.12v.78l.12.12.12-.12v-.78l-.12-.12M162.69,56.34l-.12.12v.78l.12.12.12-.12v-.78l-.12-.12M162.69,54.79l-.12.12v.78l.12.12.12-.12v-.78l-.12-.12M162.69,53.23l-.12.12v.78l.12.12.12-.12v-.78l-.12-.12M162.69,51.68l-.12.12v.78l.12.12.12-.12v-.78l-.12-.12M162.69,50.12l-.12.12v.78l.12.12.12-.12v-.78l-.12-.12M162.69,48.56l-.12.12v.78l.12.12.12-.12v-.78l-.12-.12M162.69,47.01l-.12.12v.78l.12.12.12-.12v-.78l-.12-.12M162.69,45.45l-.12.12v.78l.12.12.12-.12v-.78l-.12-.12M162.69,43.9l-.12.12v.78l.12.12.12-.12v-.78l-.12-.12M162.69,42.34l-.12.12v.78l.12.12.12-.12v-.78l-.12-.12M162.69,40.78l-.12.12v.78l.12.12.12-.12v-.78l-.12-.12M162.69,39.23l-.12.12v.78l.12.12.12-.12v-.78l-.12-.12M162.69,37.67l-.12.12v.78l.12.12.12-.12v-.78l-.12-.12M162.69,36.12l-.12.12v.78l.12.12.12-.12v-.78l-.12-.12M162.69,34.56l-.12.12v.78l.12.12.12-.12v-.78l-.12-.12M162.69,33l-.12.12v.78l.12.12.12-.12v-.78l-.12-.12M162.69,31.45l-.12.12v.78l.12.12.12-.12v-.78l-.12-.12M162.69,29.89l-.12.12v.78l.12.12.12-.12v-.78l-.12-.12M162.69,28.34l-.12.12v.78l.12.12.12-.12v-.78l-.12-.12M162.69,26.78l-.12.12v.78l.12.12.12-.12v-.78l-.12-.12M162.69,25.22l-.12.12v.78l.12.12.12-.12v-.78l-.12-.12M162.69,23.67l-.12.12v.78l.12.12.12-.12v-.78l-.12-.12M162.69,22.11l-.12.12v.78l.12.12.12-.12v-.78l-.12-.12M162.69,20.56l-.12.12v.78l.12.12.12-.12v-.78l-.12-.12M162.69,19l-.12.12v.78l.12.12.12-.12v-.78l-.12-.12M162.69,17.44l-.12.12v.78l.12.12.12-.12v-.78l-.12-.12M162.69,15.89l-.12.12v.78l.12.12.12-.12v-.78l-.12-.12M162.69,14.33l-.12.12v.78l.12.12.12-.12v-.78l-.12-.12M162.69,12.78l-.12.12v.78l.12.12.12-.12v-.78l-.12-.12M162.69,11.22l-.12.12v.78l.12.12.12-.12v-.78l-.12-.12M162.69,9.66l-.12.12v.78l.12.12.12-.12v-.78l-.12-.12M162.69,8.11l-.12.12v.78l.12.12.12-.12v-.78l-.12-.12M162.69,6.55l-.12.12v.78l.12.12.12-.12v-.78l-.12-.12M162.69,5l-.12.12v.78l.12.12.12-.12v-.78l-.12-.12M162.69,3.44l-.12.12v.78l.12.12.12-.12v-.78l-.12-.12M162.69,1.88l-.12.12v.78l.12.12.12-.12v-.78l-.12-.12M162.69.33l-.12.12v.78l.12.12.12-.12V.45l-.12-.12"/>
        <line class="cls-13" x1="100.93" y1="24.67" x2="110.2" y2="24.67"/>
        <line class="cls-13" x1="110.39" y1="41.09" x2="117.1" y2="41.09"/>
        <line class="cls-13" x1="107.74" y1="39.17" x2="111.65" y2="39.17"/>
        <line class="cls-13" x1="100.67" y1="50.25" x2="116.84" y2="50.25"/>
        <line class="cls-13" x1="104.35" y1="51.69" x2="108.39" y2="51.69"/>
        <line class="cls-13" x1="103.08" y1="27.15" x2="119.47" y2="27.15"/>
        <line class="cls-13" x1="59.81" y1="88.42" x2="68.67" y2="88.42"/>
        <line class="cls-13" x1="37.12" y1="92.06" x2="132.67" y2="92.06"/>
        <line class="cls-13" x1="127.88" y1="71.32" x2="139.36" y2="71.32"/>
        <line class="cls-13" x1="118.93" y1="86.46" x2="129.59" y2="86.46"/>
        <line class="cls-13" x1="108.28" y1="29.62" x2="113.6" y2="29.62"/>
        <polygon class="cls-24" points="75.23 23.23 76.2 23.43 76.8 23.58 76.67 23.67 76.04 23.65 75.55 23.48 75.23 23.23"/>
        <path class="cls-29" d="M76.72,23.57l-.13.1-.98-.18-.36-.22h0c-.13-.04-.24-.06-.34-.08h-.14s.91,2.6.91,2.6l.06-.09h0s.12-.1.22-.06l.13.16c.08.26-.02.56-.14.81h.02s.08.22.08.22h.03c.1,0,.18.05.22.14.08.15.07.39,0,.6l.05.13h.02c.22.06.22.25.22.36l-.05.19.11.25c.07.14.21.24.37.24h1.79l.07-.04h0s-.03-.17-.03-.17l-1.72-4.65-.11-.16h0l-.03-.03h0s-.13-.07-.13-.07l-.16-.05Z"/>
        <path class="cls-24" d="M74.75,23.2l-.14.12c-.06.1-.07.22-.02.32l.88,2.52c.08-.13.15-.25.2-.34h0s-.92-2.62-.92-2.62Z"/>
        <path class="cls-13" d="M75.46,26.18l-.89-2.53c-.05-.11-.04-.23.02-.34.07-.12.2-.18.33-.15.49.1,1.51.3,1.96.43.13.04.24.14.29.27l1.75,4.74-.09.14h-1.79c-.17,0-.32-.1-.39-.25l-.11-.26"/>
        <polyline class="cls-13" points="75.26 23.25 75.62 23.47 76.59 23.65 76.72 23.55"/>
        <line class="cls-13" x1="75.68" y1="25.81" x2="74.76" y2="23.18"/>
        <path class="cls-13" d="M94.49,29.82s-2.66,3.8-3.28,4.13c-.61.33-1.64.71-1.69.9"/>
        <path class="cls-13" d="M87.94,35.52s.31-1.04.72-1c.41.05.85-.29,1.37,0"/>
        <path class="cls-13" d="M88.66,34.53s-5.47-4.44-6.12-4.92c-.83-.61-1.52-.06-1.52-.06"/>
        <path class="cls-13" d="M80.69,29.82s-1.1.92-.88,1.9c.07.33,1.43,1.85,2.51,2.68,1.07.83,4.3,3.02,4.45,3.11"/>
        <path class="cls-13" d="M79.83,31.49s-.97-.59-.79-1.14c.25-.77.91-1.51,1.27-1.51.76,0,1.24.5,1.24.5"/>
        <path class="cls-13" d="M75.56,27.43s-.47-.37-.44-.57c.03-.2.63-1.08.63-1.08,0,0,.24-.17.32.09.14.45-.39,1.1-.39,1.1"/>
        <path class="cls-13" d="M75.03,25.15s-.3-.09-.42.02c-.12.11-.04.31.09.48.14.17.68.7.68.7"/>
        <path class="cls-13" d="M76.17,27.67c.21-.27.21-.84-.12-.84-.23,0-.51.6-.56.75-.07.21.3.46.3.46"/>
        <path class="cls-13" d="M76.28,28.41l.13.24c.07.13.26.19.47.19h1.59c.27,0,.36-.3.36-.3"/>
        <path class="cls-13" d="M77.95,26.16s.05-.13.23.1c.22.27.5.91.58.99.08.08.39.49.55,1.03.08.29.82.6.82.6"/>
        <line class="cls-13" x1="76.02" y1="26.83" x2="75.94" y2="26.62"/>
        <line class="cls-13" x1="76.32" y1="27.62" x2="76.27" y2="27.49"/>
        <path class="cls-13" d="M76.11,28.6s.45-.42.44-.66c0-.11-.02-.26-.21-.31-.23-.06-.65.54-.66.63-.05.36.23.5.47.72.24.21,1.07.54,1.07.54,0,0,.78.4,1.49.47,0,0,.28.09.38.19"/>
        <polygon class="cls-24" points="77.32 29.55 77.32 29.55 77.17 29.46 77.04 28.99 77.13 28.84 77.28 28.93 77.41 29.4 77.32 29.55"/>
        <path class="cls-12" d="M77.29,29.45s1.52,5.76,2.39,9.29"/>
        <path class="cls-18" d="M78.43,54.67s2.06,13.21,2.45,13.93c.39.72.84,1.04,1.93,1.11,1.09.07,2.56-.29,2.77-1.15.21-.86-.82-4.43-.67-5.49l.09-.25c.11-.53.23-1.01.32-1.25.3-.78.25-2.86.11-3.55-.13-.68-.15-2.42-.15-2.42,0,0,.42-.17.15-.38"/>
        <path class="cls-13" d="M78.43,54.67s2.06,13.21,2.45,13.93c.39.72.84,1.04,1.93,1.11,1.09.07,2.56-.29,2.77-1.15.21-.86-.82-4.43-.67-5.49l.09-.25c.11-.53.23-1.01.32-1.25.3-.78.25-2.86.11-3.55-.13-.68-.15-2.42-.15-2.42,0,0,.42-.17.15-.38"/>
        <path class="cls-18" d="M77,41.74s-.54.86-1.74.75c0,0,.55-.44.43-.93-.12-.49-.41-.76-.98-.63-.57.13-.65.71-.62.9.04.27.11.47.41.68,0,0-.29.21-.63.22-.33,0-1.25-.59-1.26-1.44-.02-.77.62-1.18,1.12-1.32.46-.3,3.21-.32,3.21-.32"/>
        <path class="cls-13" d="M77,41.74s-.54.86-1.74.75c0,0,.55-.44.43-.93-.12-.49-.41-.76-.98-.63-.57.13-.65.71-.62.9.04.27.11.47.41.68,0,0-.29.21-.63.22-.33,0-1.25-.59-1.26-1.44-.02-.77.62-1.18,1.12-1.32.46-.3,3.21-.32,3.21-.32"/>
        <path class="cls-18" d="M92.52,47.98s-1.05.04-3.87.3c-2.81.25-7.57.81-8.43,1.11-.61.22-1.88,1.57-2.05,2.47-.15.8-.03,1.66.25,2.82s.76,2.49.76,2.49"/>
        <path class="cls-13" d="M92.52,47.98s-1.05.04-3.87.3c-2.81.25-7.57.81-8.43,1.11-.61.22-1.88,1.57-2.05,2.47-.15.8-.03,1.66.25,2.82s.76,2.49.76,2.49"/>
        <path class="cls-18" d="M84.51,65.45s.24-1.47.48-2.64"/>
        <path class="cls-13" d="M84.51,65.45s.24-1.47.48-2.64"/>
        <path class="cls-18" d="M103.62,48.74s.6,2.75-.22,3.99c-.82,1.24-3.04,2.05-4.29,2.02-1.25-.02-7.13-.02-8.61,0-1.48.02-4.14.68-5.08-.08-.93-.76-1.34-1.98-1.84-2"/>
        <path class="cls-13" d="M103.62,48.74s.6,2.75-.22,3.99c-.82,1.24-3.04,2.05-4.29,2.02-1.25-.02-7.13-.02-8.61,0-1.48.02-4.14.68-5.08-.08-.93-.76-1.34-1.98-1.84-2"/>
        <path class="cls-18" d="M82.4,70.86s.79.79,1.68.42c.67-.28,1.01-1,1.45-.99.44,0,.44.37.5.44.06.07.78,2.17.78,3.09v.77s-9.67,1.22-11.9.52c-1.62-.66-.51-1.89-.51-1.89l.15-.15c.12-.08.23-.11.23-.11,0,0,1.36-.53,3.2-.83"/>
        <path class="cls-13" d="M82.4,70.86s.79.79,1.68.42c.67-.28,1.01-1,1.45-.99.44,0,.44.37.5.44.06.07.78,2.17.78,3.09v.77s-9.67,1.22-11.9.52c-1.62-.66-.51-1.89-.51-1.89l.15-.15c.12-.08.23-.11.23-.11,0,0,1.36-.53,3.2-.83"/>
        <path class="cls-13" d="M95.63,21.07l-7.19-.81s.29-2.58,1.71-3.87l5.95,2.74c.44.2.73.62.72,1.08-.01.26-.12.53-.44.71-.22.13-.49.17-.75.14Z"/>
        <path class="cls-13" d="M91.19,16.87s1.91-2.36,6.15-1.14c4.25,1.22,3.73,5.07,3.73,5.07,0,0-.17,2.25-1.39,3.87-.29.38-.76.6-1.25.59l-2.3-.02c-1.12-.01-2.1-.7-2.39-1.71l-.03-.1c-.41-1.62-.62-2.65-.62-2.65"/>
        <path class="cls-13" d="M90.42,20.48l-.16,1.19s-.06.65.16,1.05c.23.41-.03,1.31-.36,1.67-.32.36.44.56.44.56l.19.46c.08.04.71.1.99,0"/>
        <path class="cls-13" d="M92.92,27.11s.21.31.54.44c.44.17.87-.09.87-.09,0,0,1.44-.99,2.17-2.21"/>
        <path class="cls-13" d="M95.14,25.03s-1.6,1.92-1.89,2.01c-.22.07-.74.15-1.33,0-.36-.18-.55-.56-.66-.89-.11-.33-.43-.72-.43-.72"/>
        <path class="cls-13" d="M94.32,27.47s.37.01.68.69c.26.58.24.87.24.87"/>
        <path class="cls-13" d="M98.87,26.99c-.16-.15-1.07-1.74-1.07-1.74"/>
        <path class="cls-13" d="M98.87,26.99c-.05.11-.49.21-1.07.48-.74.35-2.82,1.46-3.28,2.39-1.01,2.04-2.24,6.39-2.24,6.39"/>
        <path class="cls-13" d="M94.53,29.85s2.15-.99,2.5-1.26c.35-.27,1.82-1.65,1.91-1.65s2.02,1.88,2.84,3.74c.82,1.86,2.72,10.59,2.93,14.17.22,3.58-.52,3.71-.52,3.71,0,0-.86.37-1.46,0-.6-.37-2.27-.04-2.66-.04s-3.65.24-4.27-.15c-.61-.39-2.13-.54-2.81-1.34-.68-.8-1.23-.2-1.33-.92-.1-.72.66-.75.75-1.23.09-.48-.22-.99,0-1.02"/>
        <path class="cls-13" d="M96.64,29.84s-.76.18-1.06.6c-.3.42-2.98,5.89-3.73,6.34-.74.45.05,1.78-.2,2.45"/>
        <path class="cls-13" d="M90.5,39.1c.03-.18.61-1.83,1.03-1.89"/>
        <path class="cls-13" d="M89.11,39.1c0-.12.1-1.11.87-1.38s1.05-.5,1.21-.21"/>
        <line class="cls-13" x1="89.11" y1="38.15" x2="87.91" y2="38.96"/>
        <path class="cls-13" d="M90.39,37.56s-2.23-.12-2.81,0c-.58.13-4.38.43-5.15.55-.78.12-2.62.35-2.98.69-.35.34-.52,1.36-.45,2.15.06.78.61,1.53,1.1,1.64.49.11,11.01-.08,11.88-.26.87-.19,1.9-.32,2.8-1.21,1.18-1.18,4.15-6.52,5.03-7.03"/>
        <path class="cls-13" d="M96.14,31.01s-.52.93-.56,2.46"/>
        <path class="cls-13" d="M98.58,35.58s1.14-.9,1.56-.81"/>
        <path class="cls-13" d="M79.35,38.93s-1.89.05-2.31.55c-.4.47-.33,1.71-.04,2.26.29.55,2.59.51,2.59.51"/>
        <path class="cls-13" d="M94.09,41.47s1.19,1.88,3.3,2.98c2.11,1.1,4.27,1.55,4.44,2.05"/>
        <path class="cls-13" d="M91.49,42.38s-.29.61.17.92c.45.31,1.54,1.09,1.54,1.39"/>
        <path class="cls-13" d="M94.23,45.33s1.13.96,3.01,1.26c1.88.3,2.31.71,2.31.71"/>
        <path class="cls-13" d="M94.88,45.5s2.55.79,3.7.37"/>
        <path class="cls-13" d="M92.99,47.05s-.55.28-.7.58-.72.17-.72.41"/>
        <path class="cls-13" d="M103.62,48.74s.6,2.75-.22,3.99c-.82,1.24-3.04,2.05-4.29,2.02-1.25-.02-7.13-.02-8.61,0-1.48.02-4.14.68-5.08-.08-.93-.76-1.34-1.98-1.84-2"/>
        <path class="cls-13" d="M85.77,54.86s0,.28-.34.35c-.35.07-.77.46-3.03-.65"/>
        <path class="cls-13" d="M85.43,55.22s-1.08.3-1.12.76"/>
        <path class="cls-13" d="M96.16,48.83s2.62,1.17,2.85,2.17"/>
        <path class="cls-13" d="M95.83,49.13s1.58,1.2,1.42,1.86"/>
        <path class="cls-13" d="M99.2,48.57s-.42.68-.99.87c-.57.19-1.17.72-1.31.63-.14-.09-.83.81-2.01.72-1.18-.09-4.61.42-6.77.21-2.17-.21-4.28.16-4.75.31-.73.23-1.21.58-1.4,1.66-.18,1.08.17,1.15.06,1.61-.12.45-.3.48-.06,1.26.23.78-.05,2.95.06,3.96.11,1,1.14,6.83,1.37,7.7.23.87.54,1.95.21,2.22"/>
        <path class="cls-13" d="M82.4,70.86s.79.79,1.68.42c.67-.28,1.01-1,1.45-.99.44,0,.44.37.5.44.06.07.78,2.17.78,3.09v.77s-9.67,1.22-11.9.52c-1.62-.66-.51-1.89-.51-1.89"/>
        <path class="cls-13" d="M86.81,73.82s-4.41.72-8.92.92c-1,.04-3.1-.12-3.45-.77-.27-.51-.08-.78.11-.91"/>
        <path class="cls-13" d="M82.01,70.48s.07-.68,0-.9"/>
        <line class="cls-13" x1="85.35" y1="68.96" x2="85.53" y2="70.28"/>
        <path class="cls-13" d="M83.75,48.81s6.05-1.13,6.77-1.18c.72-.05,1.77-.31,1.77-.31l.61-.37"/>
        <path class="cls-40" d="M91.44,22.92c0,.15-.08.27-.17.27s-.17-.12-.17-.27.08-.27.17-.27.17.12.17.27"/>
        <path class="cls-40" d="M90.59,21.93l.06-.08c.2-.05.77-.21,1.2.36.07.09-.14.22-.23.09-.09-.1-.2-.27-.46-.29-.16-.02-.26,0-.41.01l-.16-.09Z"/>
        <path class="cls-18" d="M82.4,70.86s-.07-.44-.56-.37c-.49.07-3.56,1.62-3.85,1.62-.29,0,.16.96.81.62.65-.34,3.61-1.87,3.61-1.87"/>
        <path class="cls-13" d="M82.4,70.86s-.07-.44-.56-.37c-.49.07-3.56,1.62-3.85,1.62-.29,0,.16.96.81.62.65-.34,3.61-1.87,3.61-1.87Z"/>
      </g>
    </g>
  </g>
</svg>