<?xml version="1.0" encoding="UTF-8"?>
<svg id="_图层_2" data-name="图层 2" xmlns="http://www.w3.org/2000/svg" viewBox="0 0 154.6 104.95">
  <defs>
    <style>
      .cls-1 {
        fill: #595757;
        font-family: TimesNewRomanPSMT, 'Times New Roman';
        font-size: 8px;
      }

      .cls-2 {
        stroke: #000;
        stroke-dasharray: .7;
        stroke-width: .17px;
      }

      .cls-2, .cls-3, .cls-4 {
        fill: none;
        stroke-miterlimit: 10;
      }

      .cls-3 {
        stroke-width: .28px;
      }

      .cls-3, .cls-4 {
        stroke: #595757;
      }

      .cls-5 {
        letter-spacing: -.04em;
      }

      .cls-4 {
        stroke-linecap: square;
        stroke-width: .25px;
      }
    </style>
  </defs>
  <g id="_图层_1-2" data-name="图层 1">
    <g>
      <line class="cls-3" x1="56.41" y1="9.33" x2="87.89" y2="9.33"/>
      <text class="cls-1" transform="translate(88.4 11.02)"><tspan x="0" y="0">Hazard Light Button</tspan></text>
      <line class="cls-3" x1="56.41" y1="50.2" x2="87.89" y2="50.2"/>
      <text class="cls-1" transform="translate(88.4 51.89)"><tspan x="0" y="0">Lights Switch</tspan></text>
      <line class="cls-3" x1="56.41" y1="92.83" x2="87.89" y2="92.83"/>
      <text class="cls-1" transform="translate(88.4 94.52)"><tspan x="0" y="0">Mode Button</tspan></text>
      <polyline class="cls-3" points="87.89 73.22 26.1 73.22 26.1 86.5"/>
      <text class="cls-1" transform="translate(88.4 74.9)"><tspan class="cls-5" x="0" y="0">P</tspan><tspan x="4.15" y="0" xml:space="preserve"> Gear</tspan></text>
      <line class="cls-4" x1="39.45" y1="12.78" x2="39.42" y2="12.31"/>
      <line class="cls-4" x1="45.03" y1="9.19" x2="39.42" y2="12.31"/>
      <line class="cls-4" x1="39.45" y1="12.78" x2="47.06" y2="13.68"/>
      <line class="cls-4" x1="47.06" y1="13.68" x2="47.04" y2="13.2"/>
      <line class="cls-4" x1="39.42" y1="12.31" x2="47.04" y2="13.2"/>
      <line class="cls-4" x1="47.04" y1="13.2" x2="45.03" y2="9.19"/>
      <line class="cls-4" x1="41.6" y1="11.94" x2="45.41" y2="12.38"/>
      <line class="cls-4" x1="44.43" y1="10.85" x2="44.41" y2="10.37"/>
      <line class="cls-4" x1="44.43" y1="10.85" x2="42.33" y2="12.02"/>
      <line class="cls-4" x1="44.41" y1="10.37" x2="41.6" y2="11.94"/>
      <line class="cls-4" x1="45.18" y1="12.35" x2="44.43" y2="10.85"/>
      <line class="cls-4" x1="45.41" y1="12.38" x2="44.41" y2="10.37"/>
      <polyline class="cls-4" points="28.94 16.31 27.96 17.16 26.99 18.03 26.05 18.92"/>
      <line class="cls-4" x1="57.25" y1="9.67" x2="58.05" y2="9.74"/>
      <polyline class="cls-4" points="58.05 9.74 58.6 9.81 59.11 9.92 59.55 10.06 59.9 10.24"/>
      <polyline class="cls-4" points="59.9 10.24 60.1 10.39 60.22 10.56 60.28 10.7 60.28 10.85 60.17 11.11"/>
      <line class="cls-4" x1="60.17" y1="11.11" x2="59.17" y2="12.4"/>
      <line class="cls-4" x1="59.17" y1="12.4" x2="57.99" y2="13.92"/>
      <polyline class="cls-4" points="55.6 16.95 56.8 15.44 57.99 13.92"/>
      <polyline class="cls-4" points="53.3 19.85 54.45 18.4 55.6 16.95"/>
      <polyline class="cls-4" points="50.65 23.14 51.97 21.5 53.3 19.85"/>
      <polyline class="cls-4" points="50.65 23.14 50.44 23.36 50.18 23.56 49.83 23.76 49.44 23.93 48.61 24.13 48.17 24.18 47.73 24.18"/>
      <polyline class="cls-4" points="42.16 23.79 44.01 23.96 45.87 24.08 47.73 24.18"/>
      <polyline class="cls-4" points="36.79 23.13 38.57 23.38 40.36 23.6 42.16 23.79"/>
      <polyline class="cls-4" points="32.24 22.34 34.51 22.76 36.79 23.13"/>
      <polyline class="cls-4" points="27.2 21.2 28.88 21.61 30.55 21.99 32.24 22.34"/>
      <polyline class="cls-4" points="27.2 21.2 26.68 21.03 26.25 20.78 25.9 20.47 25.75 20.23"/>
      <polyline class="cls-4" points="25.75 20.23 25.64 19.92 25.65 19.6 25.76 19.29 26.05 18.92"/>
      <polyline class="cls-4" points="28.73 18.92 28.75 19.13 28.81 19.33 28.89 19.53"/>
      <polyline class="cls-4" points="28.97 18.1 28.78 18.5 28.73 18.92"/>
      <polyline class="cls-4" points="28.89 19.53 28.99 19.68 29.09 19.81"/>
      <polyline class="cls-4" points="29.09 19.81 29.36 20.08 29.66 20.3"/>
      <polyline class="cls-4" points="29.66 20.31 29.72 20.35 29.8 20.39"/>
      <polyline class="cls-4" points="29.8 20.4 30.17 20.57 30.55 20.72 30.95 20.84"/>
      <polyline class="cls-4" points="30.95 20.84 31.14 20.88 31.34 20.92"/>
      <polyline class="cls-4" points="31.34 20.93 33.67 21.3 36.01 21.65 38.35 21.96 40.69 22.23 43.04 22.48 45.4 22.69"/>
      <polyline class="cls-4" points="45.4 22.69 45.87 22.71 46.35 22.7 46.84 22.67 47.31 22.59 47.78 22.49 48.24 22.37"/>
      <polyline class="cls-4" points="48.24 22.37 49.07 22.03 49.78 21.6 50.08 21.36 50.33 21.09"/>
      <polyline class="cls-4" points="50.33 21.09 51.96 19.16 53.49 17.27 54.92 15.45 56.25 13.71 57.47 12.04"/>
      <polyline class="cls-4" points="57.47 12.04 57.55 11.91 57.6 11.77 57.62 11.62"/>
      <polyline class="cls-4" points="57.61 11.62 57.54 11.35 57.34 11.1"/>
      <line class="cls-4" x1="32.99" y1="24.55" x2="33" y2="24.52"/>
      <polyline class="cls-4" points="22.74 21.8 22.47 22.17 22.39 22.54 22.49 22.93"/>
      <polyline class="cls-4" points="22.49 22.93 22.78 23.29 23.25 23.59 23.85 23.81"/>
      <line class="cls-4" x1="23.85" y1="23.81" x2="26.76" y2="24.53"/>
      <polyline class="cls-4" points="26.76 24.53 30.34 25.29 33.99 25.94 37.72 26.48 41.51 26.91 45.35 27.22 49.23 27.41"/>
      <polyline class="cls-4" points="49.23 27.41 50.07 27.38 50.88 27.2 51.56 26.92 52.06 26.53"/>
      <line class="cls-4" x1="52.06" y1="26.53" x2="54.39" y2="23.97"/>
      <line class="cls-4" x1="47.93" y1="17.42" x2="47.99" y2="17.36"/>
      <polyline class="cls-4" points="23.79 22.37 25.25 22.77 26.71 23.15"/>
      <polyline class="cls-4" points="23.79 22.37 25.25 22.77 26.71 23.15"/>
      <polyline class="cls-4" points="54.39 23.97 56.37 21.51 58.22 19.13 59.95 16.81 61.54 14.58 62.99 12.41"/>
      <polyline class="cls-4" points="32.49 12.11 31.39 12.84 30.3 13.59"/>
      <polyline class="cls-4" points="30.3 13.59 27.69 15.58 25.16 17.74 22.72 20.07"/>
      <polyline class="cls-4" points="61.09 9.62 59.17 9.45 57.23 9.29"/>
      <polyline class="cls-4" points="61.6 9.67 61.35 9.64 61.09 9.62"/>
      <polyline class="cls-4" points="62.13 9.78 61.87 9.72 61.6 9.67"/>
      <polyline class="cls-4" points="62.7 9.98 62.42 9.87 62.13 9.78"/>
      <polyline class="cls-4" points="63.03 10.18 62.87 10.07 62.7 9.98"/>
      <line class="cls-4" x1="63.03" y1="10.26" x2="63.13" y2="10.18"/>
      <polyline class="cls-4" points="63.27 10.46 63.21 10.35 63.13 10.26"/>
      <polyline class="cls-4" points="63.3 10.66 63.3 10.56 63.27 10.46"/>
      <polyline class="cls-4" points="63.2 10.9 63.26 10.79 63.3 10.66"/>
      <polyline class="cls-4" points="53.8 22.89 54.75 21.7 55.71 20.49"/>
      <polyline class="cls-4" points="52.01 25.13 52.9 24.01 53.8 22.89"/>
      <polyline class="cls-4" points="61 13.75 62.1 12.32 63.2 10.9"/>
      <polyline class="cls-4" points="58.82 16.54 59.91 15.14 61 13.75"/>
      <polyline class="cls-4" points="55.71 20.49 57.27 18.52 58.82 16.54"/>
      <polyline class="cls-4" points="52.01 25.13 51.61 25.5 51.11 25.8 50.52 26.03 49.86 26.16 49.17 26.2"/>
      <polyline class="cls-4" points="26.71 23.15 28.42 23.56 30.13 23.95 31.85 24.3"/>
      <polyline class="cls-4" points="39.46 25.5 41.4 25.71 43.34 25.89 45.28 26.03 47.23 26.13 49.17 26.2"/>
      <polyline class="cls-4" points="36.42 25.09 37.93 25.31 39.46 25.5"/>
      <polyline class="cls-4" points="34.17 24.73 35.29 24.92 36.42 25.09"/>
      <line class="cls-4" x1="34.17" y1="24.73" x2="34.02" y2="24.7"/>
      <polyline class="cls-4" points="32.93 24.51 33.48 24.61 34.02 24.7"/>
      <polyline class="cls-4" points="31.85 24.3 32.39 24.41 32.93 24.51"/>
      <polyline class="cls-4" points="23.79 22.37 23.31 22.18 22.89 21.92 22.56 21.6 22.36 21.22 22.33 20.81 22.45 20.42 22.72 20.07"/>
      <line class="cls-4" x1="62.99" y1="12.41" x2="63.23" y2="11.94"/>
      <polyline class="cls-4" points="63.23 11.94 63.33 11.61 63.3 11.28 63.14 10.97"/>
      <line class="cls-4" x1="28.93" y1="16.12" x2="28.97" y2="18.1"/>
      <polyline class="cls-4" points="39.58 6.55 40.29 6.13 41.26 5.72 42.34 5.43 43.59 5.26 44.85 5.25 44.96 5.25"/>
      <polyline class="cls-4" points="31.99 16.28 31.52 16.16 31.31 16.03"/>
      <polyline class="cls-4" points="31.99 16.28 34.26 16.64 36.55 16.96 38.84 17.26 41.12 17.52 43.42 17.75 45.72 17.96"/>
      <polyline class="cls-4" points="45.72 17.96 46.52 17.94 47.2 17.8 47.71 17.58 47.93 17.42"/>
      <polyline class="cls-4" points="57.15 7.91 57.03 7.44 56.76 7 56.35 6.63 55.83 6.36 55.12 6.15 54.75 6.09"/>
      <polyline class="cls-4" points="39.58 6.55 36.03 9.2 32.7 11.94 29.56 14.73"/>
      <polyline class="cls-4" points="28.93 16.12 29 15.63 29.2 15.16 29.56 14.73"/>
      <polyline class="cls-4" points="54.75 6.09 52.3 5.84 49.85 5.61 47.41 5.42 44.96 5.26"/>
      <line class="cls-4" x1="57.15" y1="7.91" x2="57.4" y2="12.14"/>
      <line class="cls-4" x1="28.91" y1="23.72" x2="28.91" y2="23.68"/>
      <polyline class="cls-4" points="18.23 95.36 18.05 94.71 17.95 94.04 17.93 93.67"/>
      <line class="cls-4" x1="17.98" y1="90.27" x2="17.98" y2="89.84"/>
      <line class="cls-4" x1="17.98" y1="89.84" x2="17.98" y2="89.39"/>
      <line class="cls-4" x1="17.98" y1="89.39" x2="17.99" y2="88.98"/>
      <polyline class="cls-4" points="18.01 88.66 18 88.82 17.99 88.98"/>
      <polyline class="cls-4" points="18.7 86.6 18.74 86.52 18.83 86.43"/>
      <line class="cls-4" x1="18.83" y1="86.43" x2="18.93" y2="86.29"/>
      <line class="cls-4" x1="19.14" y1="86.04" x2="19.26" y2="85.92"/>
      <line class="cls-4" x1="19.26" y1="85.92" x2="19.37" y2="85.82"/>
      <polyline class="cls-4" points="20.53 85.08 20.42 85.13 20.31 85.18"/>
      <polyline class="cls-4" points="20.53 85.08 21.14 84.87 22.1 84.68"/>
      <polyline class="cls-4" points="24.82 84.83 26.63 85.01 28.44 85.15 30.25 85.25"/>
      <line class="cls-4" x1="30.25" y1="85.25" x2="30.53" y2="85.27"/>
      <polyline class="cls-4" points="30.53 85.27 33.22 85.36 35.91 85.43"/>
      <line class="cls-4" x1="46.59" y1="100.3" x2="48.46" y2="100.33"/>
      <line class="cls-4" x1="46.76" y1="83.35" x2="46.8" y2="83.35"/>
      <polyline class="cls-4" points="15.42 85.37 15.22 85.7 15.04 86.04 14.88 86.39 14.75 86.76 14.64 87.13 14.56 87.52 14.51 87.89 14.49 88.29"/>
      <polyline class="cls-4" points="16.11 84.56 15.75 84.94 15.42 85.37"/>
      <line class="cls-4" x1="16.11" y1="84.56" x2="16.2" y2="84.47"/>
      <line class="cls-4" x1="16.2" y1="84.47" x2="16.22" y2="84.45"/>
      <polyline class="cls-4" points="18.21 83.2 17.96 83.3 17.72 83.42"/>
      <polyline class="cls-4" points="19.12 82.93 18.67 83.05 18.21 83.2"/>
      <polyline class="cls-4" points="19.44 82.87 19.28 82.9 19.12 82.93"/>
      <polyline class="cls-4" points="20.04 82.79 19.74 82.82 19.44 82.87"/>
      <line class="cls-4" x1="14.4" y1="93.47" x2="14.4" y2="93.45"/>
      <line class="cls-4" x1="14.4" y1="93.45" x2="14.44" y2="91.24"/>
      <line class="cls-4" x1="14.44" y1="91.24" x2="14.45" y2="90.47"/>
      <line class="cls-4" x1="14.45" y1="90.47" x2="14.46" y2="89.86"/>
      <line class="cls-4" x1="14.46" y1="89.86" x2="14.47" y2="89.25"/>
      <line class="cls-4" x1="16.5" y1="98.53" x2="16.56" y2="98.48"/>
      <line class="cls-4" x1="46.59" y1="100.3" x2="44.99" y2="100.28"/>
      <polyline class="cls-4" points="35.4 100.14 42.86 100.27 50.32 100.37"/>
      <polyline class="cls-4" points="20.37 99.87 27.88 100.02 35.4 100.14"/>
      <polyline class="cls-4" points="18.78 99.64 19.3 99.76 19.84 99.83 20.37 99.87"/>
      <polyline class="cls-4" points="18.21 99.46 18.49 99.56 18.78 99.64"/>
      <polyline class="cls-4" points="17.72 99.25 17.96 99.36 18.21 99.46"/>
      <polyline class="cls-4" points="17.16 98.94 17.44 99.1 17.72 99.25"/>
      <polyline class="cls-4" points="16.56 98.54 16.86 98.75 17.16 98.94"/>
      <polyline class="cls-4" points="52.17 83.49 51.66 83.36 51.13 83.29 50.61 83.25"/>
      <polyline class="cls-4" points="52.74 83.67 52.46 83.57 52.17 83.49"/>
      <polyline class="cls-4" points="53.22 83.88 52.99 83.77 52.74 83.67"/>
      <polyline class="cls-4" points="53.77 84.18 53.51 84.02 53.22 83.88"/>
      <polyline class="cls-4" points="54.71 84.89 54.42 84.63 54.11 84.4 53.77 84.18"/>
      <polyline class="cls-4" points="55.8 86.27 55.57 85.9 55.31 85.54 55.03 85.2 54.71 84.89"/>
      <polyline class="cls-4" points="56.03 86.73 55.92 86.49 55.8 86.27"/>
      <polyline class="cls-4" points="56.5 88.98 56.49 88.6 56.45 88.21 56.38 87.84 56.29 87.46 56.17 87.09 56.03 86.73"/>
      <line class="cls-4" x1="56.38" y1="94.12" x2="56.36" y2="94.85"/>
      <line class="cls-4" x1="56.39" y1="93.38" x2="56.38" y2="94.12"/>
      <line class="cls-4" x1="56.42" y1="91.21" x2="56.39" y2="93.38"/>
      <line class="cls-4" x1="56.46" y1="88.98" x2="56.42" y2="91.21"/>
      <line class="cls-4" x1="56.5" y1="88.98" x2="56.4" y2="94.85"/>
      <line class="cls-4" x1="22.45" y1="82.8" x2="24.37" y2="82.82"/>
      <line class="cls-4" x1="22.16" y1="82.8" x2="22.45" y2="82.8"/>
      <line class="cls-4" x1="21.49" y1="82.79" x2="22.16" y2="82.8"/>
      <line class="cls-4" x1="20.63" y1="82.77" x2="21.49" y2="82.79"/>
      <polyline class="cls-4" points="35.68 82.98 28.17 82.86 20.65 82.76"/>
      <polyline class="cls-4" points="50.61 83.25 43.14 83.1 35.68 82.98"/>
      <line class="cls-4" x1="48.36" y1="83.23" x2="48.74" y2="83.24"/>
      <line class="cls-4" x1="46.88" y1="83.2" x2="48.36" y2="83.23"/>
      <polyline class="cls-4" points="46.88 83.2 44.31 83.14 41.74 83.09"/>
      <polyline class="cls-4" points="54.76 98.58 55.02 98.3 55.26 98.01 55.47 97.7 55.68 97.38 55.85 97.04 55.99 96.69 56.12 96.34 56.22 95.97 56.3 95.6 56.35 95.22 56.36 94.85"/>
      <polyline class="cls-4" points="56.09 96.52 56.22 96.1 56.31 95.69 56.37 95.28 56.4 94.85"/>
      <polyline class="cls-4" points="55.87 97.08 55.99 96.8 56.09 96.52"/>
      <polyline class="cls-4" points="54.49 98.87 54.76 98.62 55.02 98.33 55.26 98.04 55.49 97.73 55.68 97.41 55.87 97.08"/>
      <polyline class="cls-4" points="53.56 99.53 54.04 99.22 54.49 98.87"/>
      <polyline class="cls-4" points="52.54 100 53.06 99.79 53.56 99.53"/>
      <polyline class="cls-4" points="50.32 100.37 50.77 100.36 51.23 100.32 51.67 100.24 52.12 100.14 52.54 100"/>
      <polyline class="cls-4" points="51.08 100.32 51.51 100.25 51.94 100.16"/>
      <polyline class="cls-4" points="51.94 100.16 52.42 100.03 52.88 99.85 53.32 99.63"/>
      <polyline class="cls-4" points="16.12 84.54 15.8 84.89 15.52 85.25 15.26 85.65 15.03 86.06"/>
      <polyline class="cls-4" points="16.44 84.26 16.28 84.4 16.12 84.54"/>
      <polyline class="cls-4" points="17.37 83.6 16.89 83.91 16.44 84.26"/>
      <polyline class="cls-4" points="18.41 83.13 17.88 83.34 17.37 83.6"/>
      <polyline class="cls-4" points="20.65 82.76 20.2 82.77 19.74 82.81 19.29 82.88 18.84 82.98 18.41 83.13"/>
      <polyline class="cls-4" points="14.49 88.29 14.57 87.46 14.82 86.54 15.22 85.71 15.75 84.95 16.2 84.46"/>
      <line class="cls-4" x1="14.39" y1="94.14" x2="14.4" y2="93.47"/>
      <line class="cls-4" x1="14.47" y1="89.25" x2="14.49" y2="88.29"/>
      <polyline class="cls-4" points="16.5 98.48 15.84 97.87 15.27 97.14 14.83 96.33 14.54 95.44 14.39 94.5 14.39 94.14"/>
      <line class="cls-4" x1="16.56" y1="98.54" x2="16.56" y2="98.53"/>
      <line class="cls-4" x1="16.11" y1="84.56" x2="16.12" y2="84.54"/>
      <polyline class="cls-4" points="14.34 84.12 14.34 84.22 14.35 84.32"/>
      <polyline class="cls-4" points="16.29 82.2 16.05 82.21 15.82 82.26 15.6 82.32 15.38 82.41 15.18 82.53 15 82.67 14.83 82.84 14.69 83.02 14.56 83.22 14.47 83.44 14.39 83.65 14.35 83.89 14.34 84.12"/>
      <line class="cls-4" x1="55.54" y1="82.86" x2="16.29" y2="82.2"/>
      <line class="cls-4" x1="14.35" y1="84.32" x2="14.64" y2="87.14"/>
      <line class="cls-4" x1="15.72" y1="97.73" x2="15.79" y2="98.54"/>
      <polyline class="cls-4" points="15.79 98.54 15.84 98.77 15.89 99 15.99 99.2 16.1 99.41 16.25 99.59 16.41 99.76 16.58 99.91 16.78 100.03 16.99 100.13 17.21 100.2 17.44 100.24 17.67 100.27"/>
      <line class="cls-4" x1="17.67" y1="100.26" x2="53.56" y2="100.86"/>
      <line class="cls-4" x1="53.56" y1="100.86" x2="53.58" y2="100.86"/>
      <polyline class="cls-4" points="53.58 100.86 53.81 100.86 54.03 100.81 54.25 100.75 54.46 100.65 54.66 100.54 54.85 100.39 55 100.24 55.15 100.06 55.27 99.86 55.37 99.66 55.44 99.44 55.48 99.21"/>
      <line class="cls-4" x1="55.48" y1="99.21" x2="55.73" y2="97.32"/>
      <line class="cls-4" x1="56.44" y1="92.12" x2="57.4" y2="85.03"/>
      <polyline class="cls-4" points="57.4 85.03 57.42 84.89 57.42 84.77"/>
      <polyline class="cls-4" points="57.42 84.77 57.41 84.54 57.37 84.32 57.3 84.1 57.21 83.89 57.09 83.7 56.95 83.51 56.79 83.35 56.6 83.21 56.41 83.08 56.2 82.99 55.99 82.92 55.77 82.88 55.54 82.86"/>
      <line class="cls-4" x1="22.6" y1="21.69" x2="22.61" y2="21.67"/>
      <line class="cls-4" x1="24.97" y1="38.99" x2="25.04" y2="38.98"/>
      <line class="cls-4" x1="20.95" y1="60.92" x2="20.89" y2="60.57"/>
      <polyline class="cls-4" points="45.18 45.58 46.26 46.16 47.3 46.79"/>
      <line class="cls-4" x1="43.12" y1="44.61" x2="45.18" y2="45.58"/>
      <line class="cls-4" x1="31.89" y1="40.55" x2="32.11" y2="40.56"/>
      <line class="cls-4" x1="20.95" y1="60.89" x2="20.98" y2="60.66"/>
      <polyline class="cls-4" points="47.07 46.64 46.3 46.15 45.51 45.7 44.71 45.28"/>
      <polyline class="cls-4" points="50 48.98 49.45 48.47 48.88 47.99 48.29 47.52 47.68 47.07 47.07 46.64"/>
      <polyline class="cls-4" points="49.31 55.38 49.67 55.1 50 54.79"/>
      <polyline class="cls-4" points="50 54.79 50.13 54.66 50.25 54.51"/>
      <polyline class="cls-4" points="50.25 54.51 50.41 54.29 50.56 54.06"/>
      <polyline class="cls-4" points="50.56 54.06 50.78 53.63 50.96 53.19"/>
      <polyline class="cls-4" points="50.96 53.19 51.04 52.9 51.11 52.6"/>
      <polyline class="cls-4" points="51.11 52.6 51.13 52.44 51.16 52.27"/>
      <polyline class="cls-4" points="51.16 52.27 51.18 51.91 51.17 51.55 51.13 51.19 51.06 50.83 50.95 50.48"/>
      <polyline class="cls-4" points="50.95 50.48 50.88 50.31 50.82 50.13"/>
      <polyline class="cls-4" points="50.82 50.13 50.65 49.82 50.46 49.52 50.25 49.24 50 48.98"/>
      <polyline class="cls-4" points="47.09 56.68 47.84 56.27 48.58 55.84 49.31 55.38"/>
      <polyline class="cls-4" points="47.09 56.68 45.95 57.24 44.78 57.72 43.69 58.11 41.46 58.8"/>
      <line class="cls-4" x1="23.08" y1="39.86" x2="23.2" y2="39.64"/>
      <line class="cls-4" x1="19.6" y1="55.58" x2="19.58" y2="55.17"/>
      <polyline class="cls-4" points="19.6 55.58 19.7 56.58 19.82 57.58 19.98 58.58 20.18 59.58 20.42 60.56"/>
      <polyline class="cls-4" points="44.91 44.12 43.65 43.51 42.38 42.91 41.11 42.34 39.82 41.8 38.51 41.28 37.2 40.77 35.89 40.3 34.57 39.85 33.23 39.43 31.89 39.02 30.54 38.65 29.18 38.29 27.81 37.97 26.45 37.67 25.07 37.39"/>
      <polyline class="cls-4" points="50.42 48.04 49.87 47.53 49.3 47.02 48.72 46.55 48.12 46.09 47.51 45.65 46.88 45.24 46.23 44.85 45.58 44.47 44.91 44.12"/>
      <polyline class="cls-4" points="50.42 48.04 50.72 48.36 51 48.72 51.44 49.5 51.73 50.37 51.86 51.27 51.85 52.19"/>
      <line class="cls-4" x1="49.52" y1="56.11" x2="49.61" y2="56.05"/>
      <polyline class="cls-4" points="51.09 54.42 50.58 55.15 50.21 55.55 49.64 56.03"/>
      <polyline class="cls-4" points="51.09 54.42 51.17 54.3 51.24 54.16"/>
      <polyline class="cls-4" points="51.24 54.16 51.42 53.79 51.57 53.41 51.7 53.01 51.79 52.6 51.85 52.19"/>
      <polyline class="cls-4" points="47.21 57.5 47.99 57.06 48.76 56.6 49.52 56.11"/>
      <polyline class="cls-4" points="41.39 59.72 42.88 59.27 44.35 58.76"/>
      <polyline class="cls-4" points="44.35 58.76 44.74 58.61 45.11 58.46"/>
      <polyline class="cls-4" points="45.11 58.46 45.82 58.17 46.52 57.84 47.21 57.5"/>
      <polyline class="cls-4" points="20.64 61.07 20.81 61.28 21 61.48"/>
      <polyline class="cls-4" points="20.42 60.56 20.51 60.82 20.64 61.06"/>
      <polyline class="cls-4" points="21.85 62.88 21.38 62.84 20.93 62.73 20.5 62.52 20.02 62.14 19.61 61.68 19.33 61.13 19.22 60.79"/>
      <polyline class="cls-4" points="21.93 61.87 22.03 61.88 22.13 61.88"/>
      <polyline class="cls-4" points="21.45 61.75 21.68 61.83 21.93 61.88"/>
      <polyline class="cls-4" points="21.16 61.59 21.31 61.68 21.45 61.75"/>
      <polyline class="cls-4" points="21 61.48 21.09 61.54 21.16 61.59"/>
      <polyline class="cls-4" points="18.56 49.51 19.05 46.77 19.81 44.08 20.81 41.44 22.07 38.89"/>
      <polyline class="cls-4" points="18.56 49.51 18.46 50.38 18.38 51.24 18.33 52.11"/>
      <line class="cls-4" x1="18.33" y1="52.11" x2="18.32" y2="52.32"/>
      <polyline class="cls-4" points="18.32 52.32 18.31 53.26 18.31 54.19 18.36 55.12"/>
      <polyline class="cls-4" points="18.36 55.15 18.43 56.1 18.53 57.04 18.66 57.99 18.82 58.93 19 59.86 19.22 60.79"/>
      <polyline class="cls-4" points="22.07 38.89 22.4 38.39 22.85 37.98 23.37 37.65 23.71 37.5 24.07 37.4 24.41 37.35 24.75 37.34 25.07 37.39"/>
      <polyline class="cls-4" points="23.53 39.24 23.35 39.43 23.2 39.64"/>
      <polyline class="cls-4" points="21.85 62.88 23.76 62.78 25.7 62.65 27.6 62.47 29.51 62.24 32.45 61.79 35.41 61.23 38.39 60.53 41.39 59.72"/>
      <line class="cls-4" x1="39.42" y1="43.03" x2="39.68" y2="43.13"/>
      <line class="cls-4" x1="39.73" y1="43.16" x2="39.76" y2="43.15"/>
      <polyline class="cls-4" points="31.89 60.93 33.49 60.66 35.1 60.35 36.7 60.01 38.29 59.64 39.89 59.24 41.46 58.8"/>
      <line class="cls-4" x1="31.23" y1="61.03" x2="31.89" y2="60.93"/>
      <polyline class="cls-4" points="22.13 61.88 23.65 61.81 25.18 61.72 26.69 61.59 28.21 61.44 29.72 61.25 31.23 61.03"/>
      <line class="cls-4" x1="51.03" y1="52.95" x2="51.18" y2="51.8"/>
      <line class="cls-4" x1="31.63" y1="40.48" x2="31.64" y2="40.43"/>
      <line class="cls-4" x1="22.55" y1="61.15" x2="22.35" y2="61.16"/>
      <line class="cls-4" x1="22.33" y1="61.16" x2="22.35" y2="61.16"/>
      <polyline class="cls-4" points="25.08 39.01 28.79 39.77 32.41 40.69 35.96 41.78 39.42 43.04"/>
      <polyline class="cls-4" points="42.09 44.13 40.93 43.64 39.76 43.16"/>
      <line class="cls-4" x1="42.22" y1="44.2" x2="42.25" y2="44.19"/>
      <line class="cls-4" x1="42.09" y1="44.19" x2="42.22" y2="44.13"/>
      <polyline class="cls-4" points="48.97 49.02 49.28 49.69 49.43 50.48 49.43 51.29 49.25 52.09 48.92 52.83 48.45 53.49 48.4 53.54"/>
      <polyline class="cls-4" points="47.58 54.25 47.88 54.04 48.14 53.8 48.4 53.54"/>
      <line class="cls-4" x1="47.49" y1="54.31" x2="47.58" y2="54.25"/>
      <line class="cls-4" x1="44.02" y1="56.28" x2="44.12" y2="56.22"/>
      <polyline class="cls-4" points="44.12 56.22 44.99 55.78 45.83 55.31 46.67 54.82 47.49 54.31"/>
      <line class="cls-4" x1="43.99" y1="56.29" x2="44.02" y2="56.28"/>
      <polyline class="cls-4" points="40.75 57.63 41.58 57.34 42.39 57.01 43.2 56.67 44 56.29"/>
      <line class="cls-4" x1="40.75" y1="57.63" x2="40.61" y2="57.68"/>
      <line class="cls-4" x1="40.58" y1="57.69" x2="40.44" y2="57.73"/>
      <line class="cls-4" x1="40.58" y1="57.69" x2="40.61" y2="57.68"/>
      <polyline class="cls-4" points="36.43 58.9 37.77 58.54 39.11 58.15 40.44 57.73"/>
      <polyline class="cls-4" points="36.43 58.9 33 59.71 29.7 60.32 26.05 60.83 22.55 61.15"/>
      <polyline class="cls-4" points="48.24 48.11 47.56 47.52 46.85 46.95 46.13 46.4 45.37 45.89"/>
      <line class="cls-4" x1="45.29" y1="45.89" x2="45.37" y2="45.83"/>
      <polyline class="cls-4" points="48.97 49.02 48.78 48.72 48.56 48.44 48.31 48.18"/>
      <polyline class="cls-4" points="45.25 45.82 44.56 45.39 43.85 44.99 43.12 44.61 42.37 44.26"/>
      <line class="cls-4" x1="42.24" y1="44.26" x2="42.37" y2="44.2"/>
      <line class="cls-4" x1="45.25" y1="45.83" x2="45.29" y2="45.82"/>
      <polyline class="cls-4" points="20.39 59.67 20.46 59.89 20.55 60.09 20.66 60.29 20.79 60.47 20.95 60.64 21.13 60.78"/>
      <polyline class="cls-4" points="21.16 60.82 21.37 60.95 21.6 61.05 21.83 61.12 22.08 61.16 22.33 61.16"/>
      <line class="cls-4" x1="39.68" y1="43.15" x2="39.73" y2="43.13"/>
      <polyline class="cls-4" points="22.96 40.05 23.27 39.63 23.66 39.31 24.13 39.08 24.65 38.98 25.08 39.01"/>
      <line class="cls-4" x1="21.13" y1="60.82" x2="21.16" y2="60.78"/>
      <polyline class="cls-4" points="22.96 40.05 22.11 41.72 21.36 43.46 20.69 45.45 20.17 47.49 19.81 49.57 19.75 50.02 19.66 50.88 19.59 51.73 19.55 52.6 19.53 53.45 19.54 54.31 19.58 55.17"/>
      <line class="cls-4" x1="25.28" y1="47.56" x2="24.91" y2="51.55"/>
      <polyline class="cls-4" points="27.91 44.36 27.71 44.31 27.37 44.35 27.04 44.49 26.73 44.7 26.39 45.01 26.08 45.39 25.71 46.02 25.45 46.71 25.28 47.56"/>
      <polyline class="cls-4" points="28.53 44.7 28.22 44.53 27.91 44.36"/>
      <polyline class="cls-4" points="24.91 51.55 24.91 52.34 25.05 53.1 25.31 53.68 25.66 54.15 25.95 54.39 26.28 54.54 26.54 54.58 26.8 54.56 26.94 54.5"/>
      <polyline class="cls-4" points="27.63 54.15 27.29 54.31 26.94 54.5"/>
      <line class="cls-4" x1="39" y1="48.01" x2="38.62" y2="52"/>
      <polyline class="cls-4" points="36.52 44.65 36.78 44.61 37.16 44.68 37.53 44.84 37.87 45.07 38.21 45.41 38.5 45.8 38.81 46.45 38.98 47.16 39.01 47.59 39 48.01"/>
      <polyline class="cls-4" points="36.52 44.65 36.13 44.79 35.76 44.95"/>
      <polyline class="cls-4" points="38.62 52 38.55 52.4 38.45 52.8 38.3 53.17 38.11 53.53 37.68 54.1 37.15 54.54 36.75 54.75 36.32 54.87 36.01 54.9 35.7 54.85 35.55 54.78"/>
      <polyline class="cls-4" points="34.86 54.39 35.2 54.59 35.55 54.78"/>
      <polyline class="cls-4" points="27.19 56.82 27.92 57.37 28.74 57.79 29.62 58.06 30.54 58.18"/>
      <line class="cls-4" x1="40.06" y1="53.04" x2="40.44" y2="49.05"/>
      <polyline class="cls-4" points="40.44 49.05 40.45 48.06 40.28 47.09 39.94 46.19 39.43 45.36 38.79 44.64"/>
      <polyline class="cls-4" points="34.14 58.29 35.12 58.23 36.07 58.01 36.98 57.62 37.82 57.08 38.54 56.41 39.15 55.63 39.62 54.75 39.93 53.81 40.06 53.04"/>
      <line class="cls-4" x1="34.14" y1="58.29" x2="30.54" y2="58.18"/>
      <line class="cls-4" x1="25.17" y1="47.69" x2="24.78" y2="51.68"/>
      <polyline class="cls-4" points="31.06 42.48 30.07 42.53 29.11 42.76 28.21 43.15 27.39 43.68 26.67 44.34 26.06 45.12 25.6 45.99 25.29 46.92 25.17 47.69"/>
      <line class="cls-4" x1="26.47" y1="56.17" x2="27.19" y2="56.82"/>
      <polyline class="cls-4" points="24.78 51.68 24.78 52.67 24.92 53.54 25.21 54.39 25.64 55.18 26.19 55.88 26.47 56.17"/>
      <line class="cls-4" x1="38.07" y1="43.98" x2="38.79" y2="44.64"/>
      <polyline class="cls-4" points="38.07 43.98 37.78 43.74 37.48 43.51 37.16 43.31 36.83 43.14 36.48 42.99 36.13 42.86 35.76 42.75 35.4 42.68 35.03 42.63 34.65 42.6"/>
      <line class="cls-4" x1="31.06" y1="42.48" x2="34.65" y2="42.6"/>
      <line class="cls-4" x1="36.02" y1="45.91" x2="35.3" y2="53.46"/>
      <line class="cls-4" x1="32.78" y1="57.08" x2="29.51" y2="56.97"/>
      <polyline class="cls-4" points="33.1 57.08 33.95 56.99 34.72 56.79 35.46 56.49 36.15 56.08 36.78 55.6 37.46 54.87 38.03 54.04 38.44 53.12"/>
      <polyline class="cls-4" points="39.11 46.67 38.92 45.78 38.6 44.92 38.44 44.63"/>
      <line class="cls-4" x1="39.13" y1="52.15" x2="39.51" y2="48.21"/>
      <line class="cls-4" x1="27.37" y1="53.21" x2="28.09" y2="45.63"/>
      <polyline class="cls-4" points="27.14 56.48 27.42 56.59 28.29 56.85 29.19 56.96"/>
      <polyline class="cls-4" points="46.98 43.5 47.16 43.7 47.44 43.76 47.73 43.66 47.92 43.43 47.93 43.16"/>
      <polyline class="cls-4" points="47.93 43.16 47.73 42.94 47.41 42.91 47.11 43.05 46.96 43.33"/>
      <line class="cls-4" x1="46.96" y1="43.33" x2="46.98" y2="43.5"/>
      <polyline class="cls-4" points="41.27 41.06 41.54 40.65 41.63 40.19"/>
      <polyline class="cls-4" points="41.63 40.19 41.18 40.14 40.77 40.16 40.45 40.25 40.27 40.4 40.25 40.57"/>
      <polyline class="cls-4" points="40.25 40.57 40.43 40.78 40.79 40.96 41.27 41.06"/>
      <polyline class="cls-4" points="41.18 40.87 41.35 40.6 41.41 40.3"/>
      <polyline class="cls-4" points="41.41 40.3 41.06 40.27 40.75 40.31 40.56 40.41 40.52 40.56"/>
      <polyline class="cls-4" points="40.52 40.56 40.64 40.69 40.87 40.8 41.18 40.87"/>
      <line class="cls-4" x1="41.85" y1="40.58" x2="41.77" y2="40.77"/>
      <line class="cls-4" x1="42.35" y1="40.92" x2="41.77" y2="40.77"/>
      <line class="cls-4" x1="42.35" y1="40.92" x2="42.43" y2="40.72"/>
      <line class="cls-4" x1="41.85" y1="40.58" x2="42.43" y2="40.72"/>
      <line class="cls-4" x1="42" y1="40.22" x2="41.92" y2="40.43"/>
      <line class="cls-4" x1="42.5" y1="40.56" x2="41.92" y2="40.43"/>
      <line class="cls-4" x1="42.5" y1="40.56" x2="42.58" y2="40.36"/>
      <line class="cls-4" x1="42" y1="40.22" x2="42.58" y2="40.36"/>
      <polyline class="cls-4" points="38.77 40.41 39.19 40.54 39.59 40.58 39.9 40.53 40.08 40.4 40.09 40.2"/>
      <polyline class="cls-4" points="40.09 40.2 39.92 39.96 39.61 39.73 39.2 39.55"/>
      <polyline class="cls-4" points="39.2 39.55 38.89 39.95 38.77 40.41"/>
      <polyline class="cls-4" points="39.28 39.74 39.07 40 39 40.3"/>
      <polyline class="cls-4" points="39 40.3 39.34 40.4 39.63 40.4 39.82 40.31 39.84 40.16"/>
      <polyline class="cls-4" points="39.84 40.16 39.64 39.94 39.28 39.74"/>
      <line class="cls-4" x1="38.2" y1="39.44" x2="38.77" y2="39.6"/>
      <line class="cls-4" x1="38.87" y1="39.4" x2="38.77" y2="39.6"/>
      <line class="cls-4" x1="38.87" y1="39.4" x2="38.3" y2="39.24"/>
      <line class="cls-4" x1="38.2" y1="39.44" x2="38.3" y2="39.24"/>
      <line class="cls-4" x1="38.7" y1="39.75" x2="38.13" y2="39.59"/>
      <line class="cls-4" x1="38.04" y1="39.79" x2="38.13" y2="39.59"/>
      <line class="cls-4" x1="38.04" y1="39.79" x2="38.61" y2="39.94"/>
      <line class="cls-4" x1="38.7" y1="39.75" x2="38.61" y2="39.94"/>
      <line class="cls-4" x1="41.71" y1="40.92" x2="41.64" y2="41.11"/>
      <line class="cls-4" x1="42.21" y1="41.25" x2="41.64" y2="41.11"/>
      <line class="cls-4" x1="42.21" y1="41.25" x2="42.29" y2="41.06"/>
      <line class="cls-4" x1="41.71" y1="40.92" x2="42.29" y2="41.06"/>
      <line class="cls-4" x1="38.54" y1="40.09" x2="37.97" y2="39.92"/>
      <line class="cls-4" x1="37.87" y1="40.11" x2="38.44" y2="40.27"/>
      <line class="cls-4" x1="38.54" y1="40.09" x2="38.44" y2="40.27"/>
      <polyline class="cls-4" points="31.26 36.83 30.91 36.9 30.64 37.11 30.49 37.4 30.5 37.69"/>
      <polyline class="cls-4" points="30.5 37.69 30.7 37.95 31.01 38.07 31.38 38.03 31.69 37.82 31.87 37.53 31.86 37.21"/>
      <polyline class="cls-4" points="31.86 37.21 31.73 37.02 31.53 36.89"/>
      <line class="cls-4" x1="31.67" y1="36.53" x2="31.53" y2="36.89"/>
      <line class="cls-4" x1="31.39" y1="36.48" x2="31.67" y2="36.53"/>
      <line class="cls-4" x1="31.26" y1="36.83" x2="31.39" y2="36.48"/>
      <polyline class="cls-4" points="31.61 37.3 31.45 37.12 31.19 37.06 30.93 37.16 30.76 37.36 30.75 37.61"/>
      <polyline class="cls-4" points="30.75 37.61 30.93 37.79 31.22 37.83 31.49 37.7 31.62 37.45"/>
      <line class="cls-4" x1="31.62" y1="37.45" x2="31.61" y2="37.3"/>
      <line class="cls-4" x1="31.98" y1="36.84" x2="31.95" y2="37.03"/>
      <line class="cls-4" x1="32.39" y1="37.03" x2="31.95" y2="37.03"/>
      <line class="cls-4" x1="32.39" y1="37.03" x2="32.41" y2="36.84"/>
      <line class="cls-4" x1="31.98" y1="36.84" x2="32.41" y2="36.84"/>
      <line class="cls-4" x1="32.07" y1="37.48" x2="31.97" y2="37.66"/>
      <line class="cls-4" x1="32.36" y1="37.79" x2="31.97" y2="37.66"/>
      <line class="cls-4" x1="32.36" y1="37.79" x2="32.46" y2="37.62"/>
      <line class="cls-4" x1="32.07" y1="37.48" x2="32.46" y2="37.62"/>
      <line class="cls-4" x1="31.02" y1="38.15" x2="30.81" y2="38.12"/>
      <line class="cls-4" x1="30.69" y1="38.5" x2="30.81" y2="38.12"/>
      <line class="cls-4" x1="30.69" y1="38.5" x2="30.9" y2="38.53"/>
      <line class="cls-4" x1="31.02" y1="38.15" x2="30.9" y2="38.53"/>
      <line class="cls-4" x1="31.68" y1="38.45" x2="31.5" y2="38.12"/>
      <line class="cls-4" x1="31.68" y1="38.45" x2="31.88" y2="38.35"/>
      <line class="cls-4" x1="31.7" y1="38.02" x2="31.88" y2="38.35"/>
      <line class="cls-4" x1="31.7" y1="38.02" x2="31.5" y2="38.12"/>
      <line class="cls-4" x1="29.92" y1="37.32" x2="30.35" y2="37.35"/>
      <line class="cls-4" x1="30.39" y1="37.16" x2="30.35" y2="37.35"/>
      <line class="cls-4" x1="30.39" y1="37.16" x2="29.95" y2="37.14"/>
      <line class="cls-4" x1="29.92" y1="37.32" x2="29.95" y2="37.14"/>
      <line class="cls-4" x1="30.34" y1="37.76" x2="29.96" y2="37.99"/>
      <line class="cls-4" x1="30.07" y1="38.14" x2="29.96" y2="37.99"/>
      <line class="cls-4" x1="30.07" y1="38.14" x2="30.44" y2="37.92"/>
      <line class="cls-4" x1="30.34" y1="37.76" x2="30.44" y2="37.92"/>
      <line class="cls-4" x1="30.42" y1="36.65" x2="30.8" y2="36.8"/>
      <line class="cls-4" x1="30.91" y1="36.64" x2="30.8" y2="36.8"/>
      <line class="cls-4" x1="30.91" y1="36.64" x2="30.53" y2="36.48"/>
      <line class="cls-4" x1="30.42" y1="36.65" x2="30.53" y2="36.48"/>
      <line class="cls-4" x1="24.82" y1="84.83" x2="22.1" y2="84.68"/>
      <line class="cls-4" x1="20.31" y1="85.18" x2="19.37" y2="85.82"/>
      <line class="cls-4" x1="19.14" y1="86.04" x2="18.93" y2="86.29"/>
      <line class="cls-4" x1="18.7" y1="86.6" x2="18.01" y2="88.66"/>
      <line class="cls-4" x1="17.98" y1="90.27" x2="17.93" y2="93.67"/>
      <line class="cls-4" x1="18.62" y1="96.7" x2="18.74" y2="96.57"/>
      <line class="cls-4" x1="18.74" y1="96.8" x2="18.85" y2="96.7"/>
      <polyline class="cls-4" points="19.78 97.44 19.9 97.5 20.01 97.55"/>
      <polyline class="cls-4" points="20.01 97.55 20.61 97.75 21.58 97.93"/>
      <polyline class="cls-4" points="29.72 97.36 27.91 97.47 26.11 97.61 24.3 97.8"/>
      <line class="cls-4" x1="29.72" y1="97.36" x2="30" y2="97.35"/>
      <polyline class="cls-4" points="35.39 97.19 32.69 97.25 30 97.34"/>
      <line class="cls-4" x1="24.3" y1="97.8" x2="21.58" y2="97.93"/>
      <line class="cls-4" x1="19.78" y1="97.44" x2="18.85" y2="96.8"/>
      <line class="cls-4" x1="18.62" y1="96.57" x2="18.23" y2="95.36"/>
      <line class="cls-4" x1="35.39" y1="97.19" x2="35.91" y2="97.19"/>
      <polyline class="cls-4" points="53.58 95.36 53.77 94.71 53.87 94.04 53.89 93.67"/>
      <line class="cls-4" x1="53.83" y1="90.27" x2="53.83" y2="89.84"/>
      <line class="cls-4" x1="53.83" y1="89.84" x2="53.84" y2="89.39"/>
      <line class="cls-4" x1="53.84" y1="89.39" x2="53.83" y2="88.98"/>
      <polyline class="cls-4" points="53.83 88.98 53.82 88.82 53.81 88.66"/>
      <polyline class="cls-4" points="53.12 86.6 53.07 86.52 52.99 86.43"/>
      <line class="cls-4" x1="52.89" y1="86.43" x2="52.99" y2="86.29"/>
      <line class="cls-4" x1="52.55" y1="86.04" x2="52.67" y2="85.92"/>
      <line class="cls-4" x1="52.44" y1="85.92" x2="52.55" y2="85.82"/>
      <polyline class="cls-4" points="51.5 85.18 51.39 85.13 51.29 85.08"/>
      <polyline class="cls-4" points="51.29 85.08 50.68 84.87 49.71 84.68"/>
      <polyline class="cls-4" points="41.56 85.25 43.38 85.15 45.19 85.01 46.99 84.83"/>
      <line class="cls-4" x1="41.56" y1="85.25" x2="41.28" y2="85.27"/>
      <polyline class="cls-4" points="35.91 85.43 38.6 85.36 41.28 85.27"/>
      <line class="cls-4" x1="46.99" y1="84.83" x2="49.71" y2="84.68"/>
      <line class="cls-4" x1="51.5" y1="85.18" x2="52.44" y2="85.82"/>
      <line class="cls-4" x1="52.67" y1="86.04" x2="52.89" y2="86.29"/>
      <line class="cls-4" x1="53.12" y1="86.6" x2="53.81" y2="88.66"/>
      <line class="cls-4" x1="53.83" y1="90.27" x2="53.89" y2="93.67"/>
      <line class="cls-4" x1="53.08" y1="96.7" x2="53.2" y2="96.57"/>
      <line class="cls-4" x1="52.97" y1="96.8" x2="53.08" y2="96.7"/>
      <polyline class="cls-4" points="51.81 97.55 51.92 97.5 52.03 97.44"/>
      <polyline class="cls-4" points="51.81 97.55 51.2 97.75 50.24 97.93"/>
      <polyline class="cls-4" points="47.52 97.8 45.71 97.61 43.9 97.47 42.09 97.36"/>
      <line class="cls-4" x1="42.09" y1="97.36" x2="41.81" y2="97.35"/>
      <polyline class="cls-4" points="41.81 97.34 39.12 97.25 36.43 97.19"/>
      <line class="cls-4" x1="47.52" y1="97.8" x2="50.24" y2="97.93"/>
      <line class="cls-4" x1="52.03" y1="97.44" x2="52.97" y2="96.8"/>
      <line class="cls-4" x1="53.2" y1="96.57" x2="53.58" y2="95.36"/>
      <line class="cls-4" x1="36.43" y1="97.19" x2="35.91" y2="97.19"/>
      <polyline class="cls-4" points="38.84 92.72 38.84 88.77 40.35 92.72 41.85 88.77 41.85 92.72"/>
      <polyline class="cls-4" points="44.48 88.77 44.1 88.96 43.72 89.33 43.54 89.71 43.35 90.27 43.35 91.21 43.54 91.78 43.72 92.16 44.1 92.53 44.48 92.72 45.23 92.72 45.61 92.53 45.97 92.16 46.17 91.78 46.35 91.21 46.35 90.27 46.17 89.71 45.97 89.33 45.61 88.96 45.23 88.77 44.48 88.77"/>
      <polyline class="cls-4" points="47.48 92.72 47.48 88.77 48.8 88.77 49.36 88.96 49.74 89.33 49.92 89.71 50.11 90.27 50.11 91.21 49.92 91.78 49.74 92.16 49.36 92.53 48.8 92.72 47.48 92.72"/>
      <polyline class="cls-4" points="51.43 92.72 51.43 88.77 53.87 88.77"/>
      <line class="cls-4" x1="51.43" y1="90.65" x2="52.93" y2="90.65"/>
      <line class="cls-4" x1="51.43" y1="92.72" x2="53.87" y2="92.72"/>
      <polyline class="cls-4" points="28.8 92.41 28.91 92.17 29 91.92 29.05 91.66 29.09 91.39 29.1 91.12 29.08 90.85 29.04 90.58 28.96 90.33 28.87 90.08 28.74 89.84 28.6 89.61 28.43 89.4 28.25 89.21 28.05 89.03 27.83 88.88 27.6 88.75 27.35 88.64 27.09 88.56 26.83 88.51 26.57 88.47 26.3 88.46 26.03 88.49 25.76 88.54 25.51 88.61 25.26 88.71 25.02 88.83 24.8 88.98 24.59 89.15 24.4 89.33 24.22 89.54 24.07 89.76 23.94 90 23.84 90.25 23.76 90.51 23.71 90.77 23.68 91.04 23.68 91.3 23.7 91.57 23.76 91.83 23.84 92.09 23.94 92.33 24.06 92.57 24.21 92.8 24.38 93"/>
      <polyline class="cls-4" points="29.2 92.72 29.33 92.46 29.44 92.19 29.51 91.92 29.56 91.63 29.6 91.35 29.6 91.06 29.57 90.78 29.52 90.49 29.45 90.21 29.36 89.95 29.23 89.69 29.09 89.44 28.92 89.2 28.74 88.98 28.53 88.78 28.31 88.61 28.07 88.44 27.82 88.3 27.55 88.19 27.29 88.09 27 88.03 26.73 87.99 26.43 87.97 26.15 87.98 25.86 88.01 25.59 88.07 25.31 88.15 25.04 88.26 24.79 88.4 24.55 88.55 24.32 88.72 24.1 88.92 23.91 89.13 23.74 89.36 23.59 89.6 23.46 89.85 23.36 90.12 23.27 90.4 23.22 90.68 23.18 90.97 23.17 91.25 23.2 91.54 23.24 91.82 23.31 92.1 23.41 92.37 23.53 92.64 23.67 92.88 23.83 93.12 24.01 93.34"/>
      <line class="cls-4" x1="24.38" y1="93" x2="24.01" y2="93.34"/>
      <line class="cls-4" x1="28.53" y1="92.21" x2="28.8" y2="92.41"/>
      <line class="cls-4" x1="29.21" y1="92.71" x2="29.43" y2="92.88"/>
      <line class="cls-4" x1="28.53" y1="92.21" x2="28.62" y2="93.03"/>
      <line class="cls-4" x1="28.62" y1="93.03" x2="29.43" y2="92.88"/>
      <line class="cls-4" x1="26.44" y1="89.28" x2="25.33" y2="90.15"/>
      <line class="cls-4" x1="25.33" y1="90.15" x2="26.59" y2="90.68"/>
      <line class="cls-4" x1="26.59" y1="90.68" x2="25.45" y2="91.51"/>
      <line class="cls-4" x1="25.45" y1="91.51" x2="26.61" y2="92.1"/>
      <line class="cls-4" x1="26.61" y1="92.1" x2="25.5" y2="92.96"/>
      <line class="cls-4" x1="26.64" y1="89.54" x2="25.99" y2="90.06"/>
      <line class="cls-4" x1="25.99" y1="90.06" x2="27.27" y2="90.59"/>
      <line class="cls-4" x1="27.27" y1="90.59" x2="26.1" y2="91.45"/>
      <line class="cls-4" x1="27.24" y1="92.04" x2="25.71" y2="93.23"/>
      <line class="cls-4" x1="26.1" y1="91.45" x2="27.24" y2="92.04"/>
      <line class="cls-4" x1="25.5" y1="92.96" x2="25.71" y2="93.23"/>
      <line class="cls-4" x1="26.44" y1="89.28" x2="26.64" y2="89.54"/>
      <rect class="cls-2" x=".09" y=".09" width="74.32" height="104.77"/>
      <path class="cls-4" d="M13.19,60.59c-.85-5.05-1.31-9.74-.08-14.69.93-5.69,3.31-11.51,9.69-11.49,9.84.46,39.72,6.45,34.22,20.46-3.33,5.89-13.21,8.65-20.13,10.85-6.94,1.78-13.69,4.03-19.85,1.8-2.09-.77-3.18-4.54-3.8-6.74l-.04-.18Z"/>
      <path class="cls-4" d="M48.09,17.36s9.25-9.14,8.98-9.79"/>
      <path class="cls-4" d="M31.28,16.03s-1.38-1.47-.45-2.37"/>
    </g>
  </g>
</svg>