<?xml version="1.0" encoding="UTF-8"?>
<svg id="_图层_2" data-name="图层 2" xmlns="http://www.w3.org/2000/svg" viewBox="0 0 18.96 10.62">
  <defs>
    <style>
      .cls-1 {
        fill: none;
        stroke: #070001;
        stroke-linecap: square;
        stroke-miterlimit: 10;
        stroke-width: .12px;
      }
    </style>
  </defs>
  <g id="_图层_1-2" data-name="图层 1">
    <g>
      <polyline class="cls-1" points=".5 .13 1.21 .56 1.57 .78 1.75 .88 1.84 .94 1.88 .97 1.9 .98 1.93 .98 3.64 .98 5.34 .98 5.45 .98 5.47 .97 5.49 .95 5.54 .92 5.73 .81 6.1 .59 6.85 .13"/>
      <polyline class="cls-1" points="6.85 .13 6.76 .1 6.66 .07 6.56 .06 6.46 .06 6.07 .06 5.27 .06 3.68 .06 2.08 .06 1.29 .06 .89 .06 .79 .06 .69 .07 .59 .09 .5 .13"/>
      <polyline class="cls-1" points="8.79 .13 9.5 .56 9.85 .78 10.03 .88 10.12 .94 10.17 .97 10.19 .98 10.22 .98 11.92 .98 13.63 .98 13.74 .98 13.76 .97 13.78 .95 13.83 .92 14.02 .81 14.39 .59 15.14 .13"/>
      <polyline class="cls-1" points="15.14 .13 15.05 .1 14.95 .07 14.85 .06 14.75 .06 14.35 .06 13.56 .06 11.97 .06 10.37 .06 9.58 .06 9.18 .06 9.08 .06 8.98 .07 8.88 .09 8.79 .13"/>
      <line class="cls-1" x1="1.88" y1="9.65" x2=".5" y2="10.49"/>
      <polyline class="cls-1" points=".5 10.49 .59 10.53 .69 10.55 .79 10.56 .88 10.56 1.28 10.56 2.08 10.56 3.67 10.56 5.26 10.56 6.06 10.56 6.46 10.56 6.56 10.56 6.66 10.55 6.76 10.53 6.85 10.49"/>
      <polyline class="cls-1" points="6.85 10.49 5.76 9.83 5.48 9.66 5.45 9.64 5.4 9.64 5.32 9.64 5.16 9.64 4.5 9.64 3.19 9.64 2.54 9.64 2.21 9.64 2.04 9.64 1.96 9.64 1.92 9.64 1.9 9.64 1.88 9.65"/>
      <line class="cls-1" x1="8.79" y1="10.49" x2="10.17" y2="9.65"/>
      <polyline class="cls-1" points="15.14 10.49 15.04 10.53 14.95 10.55 14.85 10.56 14.75 10.56 14.35 10.56 13.55 10.56 11.96 10.56 10.37 10.56 9.57 10.56 9.17 10.56 9.07 10.56 8.98 10.55 8.88 10.53 8.79 10.49"/>
      <polyline class="cls-1" points="10.17 9.65 10.19 9.64 10.21 9.64 10.25 9.64 10.33 9.64 10.5 9.64 10.82 9.64 11.48 9.64 12.79 9.64 13.45 9.64 13.61 9.64 13.69 9.64 13.73 9.64 13.77 9.66 14.04 9.83 15.14 10.49"/>
      <line class="cls-1" x1=".36" y1="4.68" x2="1.69" y2="5.15"/>
      <line class="cls-1" x1="1.69" y1="5.15" x2="5.66" y2="5.15"/>
      <line class="cls-1" x1="5.66" y1="5.15" x2="6.99" y2="4.68"/>
      <line class="cls-1" x1="6.99" y1="4.68" x2="5.66" y2="4.19"/>
      <line class="cls-1" x1="5.66" y1="4.19" x2="1.69" y2="4.19"/>
      <line class="cls-1" x1="1.69" y1="4.19" x2=".36" y2="4.68"/>
      <line class="cls-1" x1="8.65" y1="4.68" x2="9.98" y2="5.15"/>
      <line class="cls-1" x1="9.98" y1="5.15" x2="13.95" y2="5.15"/>
      <line class="cls-1" x1="13.95" y1="5.15" x2="15.28" y2="4.68"/>
      <line class="cls-1" x1="15.28" y1="4.68" x2="13.95" y2="4.19"/>
      <line class="cls-1" x1="13.95" y1="4.19" x2="9.98" y2="4.19"/>
      <line class="cls-1" x1="9.98" y1="4.19" x2="8.65" y2="4.68"/>
      <polyline class="cls-1" points=".32 .24 .28 .29 .23 .34 .19 .4 .16 .45 .12 .52 .1 .58 .08 .65 .07 .71 .06 .78 .06 .85 .06 .99 .06 1.27 .06 2.39 .06 3.52 .06 4.08 .06 4.36 .06 4.38 .07 4.4 .08 4.41 .09 4.43 .11 4.44 .13 4.44 .17 4.44 .35 4.44"/>
      <line class="cls-1" x1=".35" y1="4.44" x2="1.67" y2="3.97"/>
      <polyline class="cls-1" points="1.67 3.97 1.7 3.95 1.71 3.92 1.72 3.89 1.72 3.86 1.72 3.72 1.72 3.45 1.72 2.9 1.72 1.8 1.72 1.25 1.72 1.11 1.71 1.1 1.7 1.08 1.67 1.06 1.61 1.02 1.35 .87 .32 .24"/>
      <polyline class="cls-1" points="8.61 .24 8.57 .29 8.52 .34 8.48 .4 8.44 .45 8.41 .52 8.39 .58 8.37 .65 8.36 .71 8.35 .78 8.35 .85 8.35 .99 8.35 1.27 8.35 2.39 8.35 3.52 8.35 4.08 8.35 4.36 8.35 4.38 8.36 4.4 8.37 4.41 8.38 4.43 8.4 4.44 8.42 4.44 8.46 4.44 8.64 4.44"/>
      <line class="cls-1" x1="8.64" y1="4.44" x2="9.95" y2="3.97"/>
      <polyline class="cls-1" points="9.95 3.97 9.98 3.95 10 3.92 10 3.89 10 3.86 10 3.72 10 3.45 10 2.9 10 1.8 10 1.25 10 1.11 10 1.1 9.99 1.08 9.96 1.06 9.9 1.02 9.64 .87 8.61 .24"/>
      <line class="cls-1" x1="5.68" y1="3.97" x2="7.01" y2="4.44"/>
      <polyline class="cls-1" points="7.01 4.44 7.12 4.44 7.18 4.44 7.2 4.44 7.24 4.44 7.26 4.42 7.28 4.4 7.29 4.36 7.29 4.33 7.29 4.19 7.29 3.62 7.29 2.47 7.29 1.33 7.29 .76 7.28 .69 7.26 .61 7.24 .54 7.21 .47 7.17 .41 7.13 .35 7.08 .3 7.03 .24"/>
      <polyline class="cls-1" points="7.03 .24 6.11 .8 5.66 1.08 5.65 1.09 5.64 1.1 5.63 1.14 5.63 1.21 5.63 1.36 5.63 1.65 5.63 2.82 5.63 3.4 5.63 3.69 5.63 3.84 5.63 3.91 5.64 3.93 5.65 3.95 5.67 3.96 5.68 3.97"/>
      <line class="cls-1" x1="13.97" y1="3.97" x2="15.29" y2="4.44"/>
      <polyline class="cls-1" points="15.29 4.44 15.41 4.44 15.47 4.44 15.49 4.44 15.53 4.44 15.55 4.42 15.57 4.4 15.58 4.36 15.58 4.33 15.58 4.19 15.58 3.62 15.58 2.47 15.58 1.33 15.58 .76 15.56 .69 15.55 .61 15.53 .54 15.49 .47 15.46 .41 15.42 .35 15.37 .3 15.32 .24"/>
      <polyline class="cls-1" points="15.32 .24 14.4 .8 13.95 1.08 13.93 1.09 13.93 1.11 13.92 1.14 13.92 1.21 13.92 1.36 13.92 1.65 13.92 2.82 13.92 3.4 13.92 3.69 13.92 3.84 13.92 3.91 13.93 3.93 13.94 3.95 13.95 3.96 13.97 3.97"/>
      <polyline class="cls-1" points="15.29 4.9 14.54 5.18 14.17 5.31 13.98 5.38 13.96 5.39 13.94 5.4 13.92 5.43 13.92 5.46 13.92 5.57 13.92 7.38 13.92 9.2 13.92 9.43 13.92 9.48 13.92 9.51 13.94 9.54 13.96 9.56 13.99 9.57 14.04 9.61 14.47 9.86 15.32 10.38"/>
      <polyline class="cls-1" points="15.32 10.38 15.38 10.32 15.43 10.25 15.48 10.18 15.52 10.09 15.55 10.01 15.57 9.93 15.58 9.84 15.58 9.75 15.58 9.03 15.58 7.59 15.58 6.15 15.58 5.43 15.58 5.07 15.58 4.98 15.57 4.95 15.56 4.93 15.54 4.92 15.51 4.91 15.49 4.9 15.46 4.9 15.4 4.9 15.29 4.9"/>
      <polyline class="cls-1" points="7.01 4.9 6.25 5.18 5.88 5.31 5.69 5.38 5.67 5.39 5.65 5.4 5.64 5.43 5.63 5.46 5.63 5.57 5.63 7.38 5.63 9.2 5.63 9.43 5.63 9.48 5.64 9.51 5.65 9.54 5.68 9.56 5.7 9.57 5.75 9.61 6.18 9.86 7.03 10.38"/>
      <polyline class="cls-1" points="8.61 10.38 8.55 10.32 8.5 10.25 8.45 10.18 8.41 10.09 8.38 10.01 8.36 9.93 8.35 9.84 8.35 9.75 8.35 9.03 8.35 7.59 8.35 6.15 8.35 5.43 8.35 5.07 8.35 4.98 8.36 4.95 8.37 4.93 8.39 4.92 8.41 4.91 8.44 4.9 8.46 4.9 8.52 4.9 8.64 4.9"/>
      <polyline class="cls-1" points="8.64 4.9 9.38 5.18 9.76 5.31 9.95 5.38 9.97 5.39 9.99 5.4 10 5.43 10 5.46 10 5.57 10 7.38 10 9.2 10 9.43 10 9.48 10 9.51 9.99 9.54 9.97 9.56 9.94 9.57 9.88 9.61 9.46 9.86 8.61 10.38"/>
      <polyline class="cls-1" points=".32 10.38 .26 10.32 .21 10.25 .16 10.18 .12 10.09 .09 10.01 .07 9.93 .06 9.84 .06 9.75 .06 9.03 .06 7.59 .06 6.15 .06 5.43 .06 5.07 .06 4.98 .07 4.95 .08 4.93 .1 4.92 .12 4.91 .15 4.9 .18 4.9 .23 4.9 .35 4.9"/>
      <polyline class="cls-1" points=".35 4.9 1.09 5.18 1.47 5.31 1.66 5.38 1.68 5.39 1.7 5.4 1.72 5.43 1.72 5.46 1.72 5.57 1.72 7.38 1.72 9.2 1.72 9.43 1.72 9.48 1.72 9.51 1.7 9.54 1.68 9.56 1.65 9.57 1.6 9.6 1.17 9.86 .32 10.38"/>
      <polyline class="cls-1" points="7.03 10.38 7.09 10.32 7.14 10.25 7.19 10.18 7.23 10.09 7.26 10.01 7.28 9.93 7.29 9.84 7.29 9.75 7.29 9.03 7.29 7.59 7.29 6.15 7.29 5.43 7.29 5.07 7.29 4.98 7.28 4.95 7.27 4.93 7.25 4.92 7.23 4.91 7.2 4.9 7.17 4.9 7.12 4.9 7.01 4.9"/>
      <line class="cls-1" x1="16.98" y1="9.88" x2="16.98" y2="10.53"/>
      <line class="cls-1" x1="16.98" y1="10.53" x2="17.1" y2="10.53"/>
      <line class="cls-1" x1="17.1" y1="10.53" x2="17.1" y2="10.14"/>
      <line class="cls-1" x1="17.1" y1="10.14" x2="17.11" y2="10.06"/>
      <line class="cls-1" x1="17.11" y1="10.06" x2="17.11" y2="10.05"/>
      <line class="cls-1" x1="17.11" y1="10.05" x2="17.17" y2="9.99"/>
      <line class="cls-1" x1="17.17" y1="9.99" x2="17.26" y2="9.96"/>
      <line class="cls-1" x1="17.26" y1="9.96" x2="17.26" y2="9.96"/>
      <line class="cls-1" x1="17.26" y1="10" x2="17.34" y2="9.96"/>
      <line class="cls-1" x1="17.34" y1="10.01" x2="17.35" y2="10"/>
      <line class="cls-1" x1="17.35" y1="10.01" x2="17.37" y2="10.11"/>
      <line class="cls-1" x1="17.37" y1="10.11" x2="17.37" y2="10.53"/>
      <line class="cls-1" x1="17.37" y1="10.53" x2="17.48" y2="10.53"/>
      <line class="cls-1" x1="17.48" y1="10.53" x2="17.48" y2="10.15"/>
      <line class="cls-1" x1="17.48" y1="10.15" x2="17.49" y2="10.08"/>
      <line class="cls-1" x1="17.49" y1="10.08" x2="17.52" y2="10.01"/>
      <line class="cls-1" x1="17.52" y1="10.01" x2="17.55" y2="9.99"/>
      <line class="cls-1" x1="17.55" y1="9.99" x2="17.64" y2="9.96"/>
      <line class="cls-1" x1="17.64" y1="9.98" x2="17.7" y2="9.96"/>
      <line class="cls-1" x1="17.7" y1="10.03" x2="17.74" y2="9.98"/>
      <line class="cls-1" x1="17.74" y1="10.03" x2="17.74" y2="10.03"/>
      <line class="cls-1" x1="17.74" y1="10.03" x2="17.75" y2="10.12"/>
      <line class="cls-1" x1="17.75" y1="10.12" x2="17.75" y2="10.53"/>
      <line class="cls-1" x1="17.75" y1="10.53" x2="17.86" y2="10.53"/>
      <line class="cls-1" x1="17.86" y1="10.53" x2="17.86" y2="10.08"/>
      <line class="cls-1" x1="17.86" y1="10.08" x2="17.84" y2="9.99"/>
      <line class="cls-1" x1="17.81" y1="9.99" x2="17.84" y2="9.92"/>
      <line class="cls-1" x1="17.76" y1="9.92" x2="17.81" y2="9.88"/>
      <line class="cls-1" x1="17.76" y1="9.88" x2="17.66" y2="9.87"/>
      <line class="cls-1" x1="17.6" y1="9.87" x2="17.66" y2="9.87"/>
      <line class="cls-1" x1="17.52" y1="9.91" x2="17.6" y2="9.87"/>
      <line class="cls-1" x1="17.46" y1="9.98" x2="17.52" y2="9.91"/>
      <line class="cls-1" x1="17.45" y1="9.98" x2="17.46" y2="9.96"/>
      <line class="cls-1" x1="17.39" y1="9.96" x2="17.45" y2="9.89"/>
      <line class="cls-1" x1="17.37" y1="9.89" x2="17.39" y2="9.88"/>
      <line class="cls-1" x1="17.37" y1="9.88" x2="17.28" y2="9.87"/>
      <line class="cls-1" x1="17.25" y1="9.87" x2="17.28" y2="9.87"/>
      <line class="cls-1" x1="17.25" y1="9.87" x2="17.16" y2="9.89"/>
      <line class="cls-1" x1="17.15" y1="9.9" x2="17.16" y2="9.89"/>
      <line class="cls-1" x1="17.08" y1="9.97" x2="17.15" y2="9.9"/>
      <line class="cls-1" x1="17.08" y1="9.97" x2="17.08" y2="9.88"/>
      <line class="cls-1" x1="17.08" y1="9.88" x2="16.98" y2="9.88"/>
      <line class="cls-1" x1="18.36" y1="9.64" x2="18.36" y2="10.53"/>
      <line class="cls-1" x1="18.36" y1="10.53" x2="18.47" y2="10.53"/>
      <line class="cls-1" x1="18.47" y1="10.53" x2="18.47" y2="10.17"/>
      <line class="cls-1" x1="18.47" y1="10.17" x2="18.48" y2="10.14"/>
      <line class="cls-1" x1="18.48" y1="10.14" x2="18.49" y2="10.05"/>
      <line class="cls-1" x1="18.49" y1="10.05" x2="18.5" y2="10.05"/>
      <line class="cls-1" x1="18.5" y1="10.05" x2="18.55" y2="9.99"/>
      <line class="cls-1" x1="18.55" y1="9.99" x2="18.56" y2="9.98"/>
      <line class="cls-1" x1="18.56" y1="9.98" x2="18.64" y2="9.96"/>
      <line class="cls-1" x1="18.64" y1="9.96" x2="18.67" y2="9.96"/>
      <line class="cls-1" x1="18.67" y1="9.96" x2="18.74" y2="10"/>
      <line class="cls-1" x1="18.74" y1="10.02" x2="18.76" y2="10"/>
      <line class="cls-1" x1="18.76" y1="10.02" x2="18.78" y2="10.11"/>
      <line class="cls-1" x1="18.78" y1="10.11" x2="18.78" y2="10.53"/>
      <line class="cls-1" x1="18.78" y1="10.53" x2="18.89" y2="10.53"/>
      <line class="cls-1" x1="18.89" y1="10.53" x2="18.89" y2="10.11"/>
      <line class="cls-1" x1="18.89" y1="10.11" x2="18.89" y2="10.05"/>
      <line class="cls-1" x1="18.89" y1="10.05" x2="18.87" y2="9.97"/>
      <line class="cls-1" x1="18.86" y1="9.97" x2="18.87" y2="9.96"/>
      <line class="cls-1" x1="18.79" y1="9.96" x2="18.86" y2="9.89"/>
      <line class="cls-1" x1="18.76" y1="9.89" x2="18.79" y2="9.88"/>
      <line class="cls-1" x1="18.76" y1="9.88" x2="18.67" y2="9.87"/>
      <line class="cls-1" x1="18.63" y1="9.87" x2="18.67" y2="9.87"/>
      <line class="cls-1" x1="18.63" y1="9.87" x2="18.54" y2="9.9"/>
      <line class="cls-1" x1="18.47" y1="9.96" x2="18.54" y2="9.9"/>
      <line class="cls-1" x1="18.47" y1="9.96" x2="18.47" y2="9.64"/>
      <line class="cls-1" x1="18.47" y1="9.64" x2="18.36" y2="9.64"/>
      <line class="cls-1" x1="16.36" y1="9.64" x2="16.36" y2="10.53"/>
      <line class="cls-1" x1="16.36" y1="10.53" x2="16.48" y2="10.53"/>
      <line class="cls-1" x1="16.48" y1="10.53" x2="16.48" y2="10.27"/>
      <line class="cls-1" x1="16.48" y1="10.27" x2="16.55" y2="10.2"/>
      <line class="cls-1" x1="16.55" y1="10.2" x2="16.76" y2="10.53"/>
      <line class="cls-1" x1="16.76" y1="10.53" x2="16.9" y2="10.53"/>
      <line class="cls-1" x1="16.9" y1="10.53" x2="16.63" y2="10.12"/>
      <line class="cls-1" x1="16.63" y1="10.12" x2="16.88" y2="9.88"/>
      <line class="cls-1" x1="16.88" y1="9.88" x2="16.74" y2="9.88"/>
      <line class="cls-1" x1="16.74" y1="9.88" x2="16.48" y2="10.14"/>
      <line class="cls-1" x1="16.48" y1="10.14" x2="16.48" y2="9.64"/>
      <line class="cls-1" x1="16.48" y1="9.64" x2="16.36" y2="9.64"/>
      <line class="cls-1" x1="18.03" y1="10.54" x2="17.94" y2="10.54"/>
      <line class="cls-1" x1="18.28" y1="9.62" x2="18.03" y2="10.54"/>
      <line class="cls-1" x1="18.2" y1="9.62" x2="18.28" y2="9.62"/>
      <line class="cls-1" x1="17.94" y1="10.54" x2="18.2" y2="9.62"/>
    </g>
  </g>
</svg>