<?xml version="1.0" encoding="UTF-8"?>
<svg id="_图层_2" data-name="图层 2" xmlns="http://www.w3.org/2000/svg" viewBox="0 0 6.58 12.41">
  <defs>
    <style>
      .cls-1 {
        fill: none;
        stroke: #070001;
        stroke-linecap: square;
        stroke-miterlimit: 10;
        stroke-width: .12px;
      }
    </style>
  </defs>
  <g id="_图层_1-2" data-name="图层 1">
    <g>
      <line class="cls-1" x1="2.01" y1="7.72" x2=".92" y2="7.72"/>
      <polyline class="cls-1" points=".88 7.67 .88 7.72 .92 7.72"/>
      <line class="cls-1" x1=".88" y1="7.67" x2=".88" y2="2.37"/>
      <polyline class="cls-1" points=".92 2.33 .88 2.33 .88 2.37"/>
      <line class="cls-1" x1=".92" y1="2.33" x2="2.33" y2="2.33"/>
      <polyline class="cls-1" points="2.33 2.33 2.37 2.33 2.37 2.28"/>
      <line class="cls-1" x1="2.37" y1="2.28" x2="2.37" y2="1.92"/>
      <polyline class="cls-1" points="2.37 1.92 2.37 1.87 2.33 1.87"/>
      <line class="cls-1" x1="2.33" y1="1.87" x2=".15" y2="1.87"/>
      <polyline class="cls-1" points=".11 1.83 .11 1.83 .15 1.87"/>
      <line class="cls-1" x1=".11" y1="1.83" x2=".11" y2="1.56"/>
      <polyline class="cls-1" points=".15 1.51 .11 1.51 .11 1.56"/>
      <line class="cls-1" x1=".15" y1="1.51" x2="2.33" y2="1.51"/>
      <polyline class="cls-1" points="2.33 1.51 2.37 1.47 2.37 1.47"/>
      <line class="cls-1" x1="2.37" y1="1.47" x2="2.37" y2=".06"/>
      <line class="cls-1" x1="4.27" y1=".06" x2="4.27" y2="1.47"/>
      <polyline class="cls-1" points="4.27 1.47 4.27 1.47 4.32 1.51"/>
      <line class="cls-1" x1="4.32" y1="1.51" x2="6.45" y2="1.51"/>
      <polyline class="cls-1" points="6.49 1.56 6.49 1.51 6.45 1.51"/>
      <line class="cls-1" x1="6.49" y1="1.56" x2="6.49" y2="1.83"/>
      <polyline class="cls-1" points="6.45 1.87 6.49 1.83 6.49 1.83"/>
      <line class="cls-1" x1="6.45" y1="1.87" x2="4.32" y2="1.87"/>
      <polyline class="cls-1" points="4.32 1.87 4.27 1.87 4.27 1.92"/>
      <line class="cls-1" x1="4.27" y1="1.92" x2="4.27" y2="2.28"/>
      <polyline class="cls-1" points="4.27 2.28 4.27 2.33 4.32 2.33"/>
      <line class="cls-1" x1="4.32" y1="2.33" x2="5.72" y2="2.33"/>
      <polyline class="cls-1" points="5.77 2.37 5.77 2.33 5.72 2.33"/>
      <line class="cls-1" x1="5.77" y1="2.37" x2="5.77" y2="7.67"/>
      <polyline class="cls-1" points="5.72 7.72 5.77 7.72 5.77 7.67"/>
      <line class="cls-1" x1="5.72" y1="7.72" x2="4.64" y2="7.72"/>
      <line class="cls-1" x1="2.15" y1="3.37" x2="4.5" y2="3.37"/>
      <polyline class="cls-1" points="4.68 3.55 4.64 3.41 4.5 3.37"/>
      <line class="cls-1" x1="4.68" y1="3.55" x2="4.68" y2="4.73"/>
      <polyline class="cls-1" points="4.5 4.91 4.64 4.86 4.68 4.73"/>
      <line class="cls-1" x1="4.5" y1="4.91" x2="2.15" y2="4.91"/>
      <polyline class="cls-1" points="1.96 4.73 2.01 4.86 2.15 4.91"/>
      <line class="cls-1" x1="1.96" y1="4.73" x2="1.96" y2="3.55"/>
      <polyline class="cls-1" points="2.15 3.37 2.01 3.41 1.96 3.55"/>
      <polyline class="cls-1" points="4.64 7.72 4.27 6.4 3.32 5.86 2.37 6.4 2.01 7.72"/>
      <polyline class="cls-1" points="3.32 9.35 3.5 9.3 3.73 9.26 3.91 9.08 4.09 8.89 4.23 8.67 4.32 8.35 4.41 8.03 4.41 7.72 4.41 7.4 4.32 7.08 4.23 6.77 4.09 6.54 3.91 6.31 3.73 6.18 3.5 6.09 3.32 6.09 3.1 6.09 2.92 6.18 2.73 6.31 2.55 6.54 2.42 6.77 2.28 7.08 2.24 7.4 2.19 7.72 2.24 8.03 2.28 8.35 2.42 8.67 2.55 8.89 2.73 9.08 2.92 9.26 3.1 9.3 3.32 9.35"/>
      <polyline class="cls-1" points="3.32 9.57 2.69 9.62 2.15 9.71 1.69 9.8 1.29 9.89 .97 9.98 .7 10.07 .52 10.16 .33 10.25 .15 10.43 .06 10.57 .06 10.75 .11 10.84 .2 10.98 .33 11.07 .56 11.16 .83 11.25 1.24 11.34 1.65 11.39 2.69 11.52 3.64 11.61 4.05 11.66 4.36 11.66 4.64 11.7 4.77 11.75 4.86 11.79 4.91 11.84 4.86 11.88 4.82 11.93 4.73 11.97 4.59 12.06 4.32 12.11 4 12.2 3.55 12.25 3.01 12.34"/>
      <polyline class="cls-1" points="3.32 9.57 2.96 9.71 2.69 9.85 2.42 9.98 2.24 10.12 2.1 10.21 2.01 10.3 1.87 10.48 1.87 10.62 1.96 10.71 2.1 10.8 2.28 10.84 2.51 10.89 2.82 10.93 3.19 10.93 3.59 10.98 4.45 11.07 4.91 11.11 5.27 11.16 5.59 11.2 5.86 11.29 6.08 11.34 6.22 11.43 6.36 11.48 6.45 11.57 6.49 11.61 6.45 11.7 6.4 11.79 6.31 11.88 6.18 11.97 5.95 12.06 5.77 12.11 5.59 12.15 5.32 12.2 5 12.25 4.64 12.29 4.18 12.29 3.64 12.34 3.01 12.34"/>
    </g>
  </g>
</svg>