<?xml version="1.0" encoding="UTF-8"?>
<svg id="_图层_2" data-name="图层 2" xmlns="http://www.w3.org/2000/svg" viewBox="0 0 145.47 91.21">
  <defs>
    <style>
      .cls-1, .cls-2 {
        stroke-width: .25px;
      }

      .cls-1, .cls-2, .cls-3 {
        fill: none;
        stroke: #595857;
        stroke-miterlimit: 10;
      }

      .cls-1, .cls-3 {
        stroke-linecap: square;
      }

      .cls-4 {
        letter-spacing: -.06em;
      }

      .cls-5, .cls-6 {
        fill: #595857;
      }

      .cls-2 {
        stroke-dasharray: 1;
      }

      .cls-6 {
        font-family: TimesNewRomanPSMT, 'Times New Roman';
        font-size: 6px;
      }

      .cls-3 {
        stroke-width: .42px;
      }
    </style>
  </defs>
  <g id="_图层_1-2" data-name="图层 1">
    <g>
      <line class="cls-3" x1="53.94" y1="36.3" x2="110.54" y2="36.3"/>
      <text class="cls-6" transform="translate(57.22 33.54) rotate(.14)"><tspan class="cls-4" x="0" y="0">V</tspan><tspan x="3.97" y="0">in Number Position</tspan></text>
      <g>
        <line class="cls-3" x1="47.06" y1="58.97" x2="53.75" y2="36.3"/>
        <polygon class="cls-5" points="48.9 58.27 47.21 58.47 45.89 57.39 46.34 61.4 48.9 58.27"/>
      </g>
      <rect class="cls-2" x=".12" y=".12" width="145.22" height="90.96"/>
      <g>
        <rect class="cls-1" x="42.15" y="8.31" width="4.38" height="1.29" transform="translate(8.62 -18.8) rotate(26.43)"/>
        <polygon class="cls-1" points="45.63 12.25 40.94 9.89 42.05 8.63 45.97 10.58 45.63 12.25"/>
        <line class="cls-1" x1="40.94" y1="9.96" x2="32.88" y2="25.46"/>
        <line class="cls-1" x1="42.12" y1="18.99" x2="35.99" y2="30.79"/>
        <line class="cls-1" x1="43.51" y1="16.31" x2="45.62" y2="12.25"/>
        <polyline class="cls-1" points="28.61 34.1 23.1 44.9 23.17 45.23 27.56 47.42 27.82 47.28 29.15 44.88"/>
        <polygon class="cls-1" points="32.73 28.09 32.26 24.14 31.89 23.78 30.96 23.33 26.25 32.58 26.42 32.8 29.06 34.17 29.49 34.07 32.73 28.09"/>
        <polygon class="cls-1" points="28.35 40.55 30.39 36.59 31.24 35.75 34.47 34.88 34.99 35.26 39.11 48.86 38.82 49.41 35.87 50.12 34.99 47.49 29.24 44.63 29.34 43.85 29.92 42.05 29.34 41.73 29.49 41.2 28.35 40.55"/>
        <polyline class="cls-1" points="29.94 42.5 33.56 44.32 33.73 44.63 33.56 46.16 29.49 43.99"/>
        <path class="cls-1" d="M49.73,12.25l-.37,1.71-.91.91-4.82,1.45-.27.13-1.05,2.09-.11.43h.48l6-3.11s1.42-.76,1.89-2.84l.16-.78h-1Z"/>
        <polyline class="cls-1" points="42.46 18.63 48.56 15.4 49.42 14.61 50.08 12.9 50.22 12.25"/>
        <path class="cls-1" d="M46.8,77.42c-1.61-1.48-2.91-3.38-3.83-6.2-3.11-9.59-6.47-21.29-6.47-21.29,0,0-.7-2.39-.96-2.81s-.93-.65-.93-.65v-2.45l-.88-.72-4.24-2.09"/>
        <path class="cls-1" d="M33.07,35.26c-.05-1.82,1.35-3.69,1.35-3.69l2.49-.56,11.67,38.6s1.43,6.79,11.58,5.79v.73h0c-1.09.1-1.95,1.05-1.95,2.21,0,1.22.95,2.21,2.12,2.21v.88h-4.83s-2.87-.19-5.96-1.96"/>
        <path class="cls-1" d="M49.29,78.92l-1.87-1.4c-.28-.21-.67-.15-.87.12l-1.08,1.44,2.87,2.15,1.08-1.44c.21-.28.15-.67-.12-.87Z"/>
        <polyline class="cls-1" points="40.52 10.76 40.1 10.44 36.76 11.22 37.47 16.64"/>
      </g>
    </g>
  </g>
</svg>